<?xml version="1.0" encoding="UTF-8"?>
<svg xmlns="http://www.w3.org/2000/svg" xmlns:xlink="http://www.w3.org/1999/xlink" width="595.275591pt" height="841.889764pt" viewBox="0 0 595.275591 841.889764" version="1.2">
<g id="surface31602">
<rect x="0" y="0" width="595.275591" height="841.889764" style="fill:rgb(100%,100%,100%);fill-opacity:1;stroke:none;"/>
<path style="fill:none;stroke-width:28;stroke-linecap:round;stroke-linejoin:round;stroke:rgb(0%,0%,0%);stroke-opacity:1;stroke-miterlimit:10;" d="M 31423.958333 14559.895833 L 31784.114583 14200 " transform="matrix(0.015,0,0,0.015,0,0)"/>
<path style="fill:none;stroke-width:28;stroke-linecap:round;stroke-linejoin:round;stroke:rgb(0%,0%,0%);stroke-opacity:1;stroke-miterlimit:10;" d="M 31423.958333 14559.895833 L 31423.958333 13240.104167 " transform="matrix(0.015,0,0,0.015,0,0)"/>
<path style="fill:none;stroke-width:28;stroke-linecap:round;stroke-linejoin:round;stroke:rgb(0%,0%,0%);stroke-opacity:1;stroke-miterlimit:10;" d="M 33823.958333 16959.895833 L 34184.114583 17320.052083 " transform="matrix(0.015,0,0,0.015,0,0)"/>
<path style="fill:none;stroke-width:28;stroke-linecap:round;stroke-linejoin:round;stroke:rgb(0%,0%,0%);stroke-opacity:1;stroke-miterlimit:10;" d="M 31423.958333 16720.052083 L 31423.958333 14800 " transform="matrix(0.015,0,0,0.015,0,0)"/>
<path style="fill:none;stroke-width:28;stroke-linecap:round;stroke-linejoin:round;stroke:rgb(0%,0%,0%);stroke-opacity:1;stroke-miterlimit:10;" d="M 31717.447917 15759.895833 C 31717.447917 15922.135417 31586.197917 16053.385417 31423.958333 16053.385417 C 31261.979167 16053.385417 31130.46875 15922.135417 31130.46875 15759.895833 C 31130.46875 15597.916667 31261.979167 15466.40625 31423.958333 15466.40625 C 31586.197917 15466.40625 31717.447917 15597.916667 31717.447917 15759.895833 Z M 31717.447917 15759.895833 " transform="matrix(0.015,0,0,0.015,0,0)"/>
<path style="fill:none;stroke-width:28;stroke-linecap:round;stroke-linejoin:round;stroke:rgb(0%,0%,0%);stroke-opacity:1;stroke-miterlimit:10;" d="M 33823.958333 16720.052083 L 33823.958333 14800 " transform="matrix(0.015,0,0,0.015,0,0)"/>
<path style="fill:none;stroke-width:28;stroke-linecap:round;stroke-linejoin:round;stroke:rgb(0%,0%,0%);stroke-opacity:1;stroke-miterlimit:10;" d="M 20884.895833 11335.9375 L 20884.895833 10770.052083 L 21073.958333 11173.958333 L 21263.020833 10770.052083 L 21263.020833 11335.9375 " transform="matrix(0.015,0,0,0.015,0,0)"/>
<path style="fill:none;stroke-width:28;stroke-linecap:round;stroke-linejoin:round;stroke:rgb(0%,0%,0%);stroke-opacity:1;stroke-miterlimit:10;" d="M 21478.90625 10770.052083 L 21829.947917 10770.052083 L 21640.885417 10985.9375 L 21721.875 10985.9375 L 21776.041667 11013.020833 L 21803.125 11040.104167 L 21829.947917 11092.96875 L 21829.947917 11228.125 L 21803.125 11282.03125 L 21776.041667 11309.114583 L 21721.875 11335.9375 L 21559.895833 11335.9375 L 21505.989583 11309.114583 L 21478.90625 11282.03125 " transform="matrix(0.015,0,0,0.015,0,0)"/>
<path style="fill:none;stroke-width:28;stroke-linecap:round;stroke-linejoin:round;stroke:rgb(0%,0%,0%);stroke-opacity:1;stroke-miterlimit:10;" d="M 22975.520833 15759.895833 C 22975.520833 16000 22847.395833 16221.614583 22639.84375 16341.40625 C 22432.03125 16461.458333 22176.041667 16461.458333 21968.229167 16341.40625 C 21760.416667 16221.614583 21632.552083 16000 21632.552083 15759.895833 C 21632.552083 15520.052083 21760.416667 15298.4375 21968.229167 15178.385417 C 22176.041667 15058.59375 22432.03125 15058.59375 22639.84375 15178.385417 C 22847.395833 15298.4375 22975.520833 15520.052083 22975.520833 15759.895833 Z M 22975.520833 15759.895833 " transform="matrix(0.015,0,0,0.015,0,0)"/>
<path style="fill:none;stroke-width:28;stroke-linecap:round;stroke-linejoin:round;stroke:rgb(0%,0%,0%);stroke-opacity:1;stroke-miterlimit:10;" d="M 21646.614583 12400 C 21646.614583 12567.1875 21510.9375 12702.604167 21344.010417 12702.604167 C 21176.822917 12702.604167 21041.40625 12567.1875 21041.40625 12400 C 21041.40625 12232.8125 21176.822917 12097.395833 21344.010417 12097.395833 C 21510.9375 12097.395833 21646.614583 12232.8125 21646.614583 12400 Z M 21646.614583 12400 " transform="matrix(0.015,0,0,0.015,0,0)"/>
<path style="fill:none;stroke-width:28;stroke-linecap:round;stroke-linejoin:round;stroke:rgb(0%,0%,0%);stroke-opacity:1;stroke-miterlimit:10;" d="M 19544.53125 9640.625 C 19544.53125 9449.479167 19620.3125 9266.40625 19755.46875 9131.510417 C 19890.364583 8996.354167 20073.4375 8920.572917 20264.583333 8920.572917 " transform="matrix(0.015,0,0,0.015,0,0)"/>
<path style="fill:none;stroke-width:28;stroke-linecap:round;stroke-linejoin:round;stroke:rgb(0%,0%,0%);stroke-opacity:1;stroke-miterlimit:10;" d="M 22303.90625 12400 L 20384.114583 12400 " transform="matrix(0.015,0,0,0.015,0,0)"/>
<path style="fill:none;stroke-width:28;stroke-linecap:round;stroke-linejoin:round;stroke:rgb(0%,0%,0%);stroke-opacity:1;stroke-miterlimit:10;" d="M 21344.010417 13359.895833 L 21344.010417 11440.104167 " transform="matrix(0.015,0,0,0.015,0,0)"/>
<path style="fill:none;stroke-width:28;stroke-linecap:round;stroke-linejoin:round;stroke:rgb(0%,0%,0%);stroke-opacity:1;stroke-miterlimit:10;" d="M 29494.010417 12450 L 29845.052083 12450 L 29655.989583 12665.885417 L 29736.979167 12665.885417 L 29790.885417 12692.96875 L 29817.96875 12720.052083 L 29845.052083 12772.916667 L 29845.052083 12908.072917 L 29817.96875 12961.979167 L 29790.885417 12989.0625 L 29736.979167 13015.885417 L 29575 13015.885417 L 29521.09375 12989.0625 L 29494.010417 12961.979167 " transform="matrix(0.015,0,0,0.015,0,0)"/>
<path style="fill:none;stroke-width:28;stroke-linecap:round;stroke-linejoin:round;stroke:rgb(0%,0%,0%);stroke-opacity:1;stroke-miterlimit:10;" d="M 30088.020833 13015.885417 L 30088.020833 12639.0625 " transform="matrix(0.015,0,0,0.015,0,0)"/>
<path style="fill:none;stroke-width:28;stroke-linecap:round;stroke-linejoin:round;stroke:rgb(0%,0%,0%);stroke-opacity:1;stroke-miterlimit:10;" d="M 30088.020833 12692.96875 L 30115.104167 12665.885417 L 30169.010417 12639.0625 L 30250 12639.0625 L 30303.90625 12665.885417 L 30330.989583 12720.052083 L 30330.989583 13015.885417 " transform="matrix(0.015,0,0,0.015,0,0)"/>
<path style="fill:none;stroke-width:28;stroke-linecap:round;stroke-linejoin:round;stroke:rgb(0%,0%,0%);stroke-opacity:1;stroke-miterlimit:10;" d="M 30330.989583 12720.052083 L 30358.072917 12665.885417 L 30411.979167 12639.0625 L 30492.96875 12639.0625 L 30546.875 12665.885417 L 30573.958333 12720.052083 L 30573.958333 13015.885417 " transform="matrix(0.015,0,0,0.015,0,0)"/>
<path style="fill:none;stroke-width:28;stroke-linecap:round;stroke-linejoin:round;stroke:rgb(0%,0%,0%);stroke-opacity:1;stroke-miterlimit:10;" d="M 30844.010417 13015.885417 L 30844.010417 12639.0625 " transform="matrix(0.015,0,0,0.015,0,0)"/>
<path style="fill:none;stroke-width:28;stroke-linecap:round;stroke-linejoin:round;stroke:rgb(0%,0%,0%);stroke-opacity:1;stroke-miterlimit:10;" d="M 30844.010417 12692.96875 L 30871.09375 12665.885417 L 30925 12639.0625 L 31005.989583 12639.0625 L 31059.895833 12665.885417 L 31086.979167 12720.052083 L 31086.979167 13015.885417 " transform="matrix(0.015,0,0,0.015,0,0)"/>
<path style="fill:none;stroke-width:28;stroke-linecap:round;stroke-linejoin:round;stroke:rgb(0%,0%,0%);stroke-opacity:1;stroke-miterlimit:10;" d="M 31086.979167 12720.052083 L 31114.0625 12665.885417 L 31167.96875 12639.0625 L 31248.958333 12639.0625 L 31303.125 12665.885417 L 31329.947917 12720.052083 L 31329.947917 13015.885417 " transform="matrix(0.015,0,0,0.015,0,0)"/>
<path style="fill:none;stroke-width:28;stroke-linecap:round;stroke-linejoin:round;stroke:rgb(0%,0%,0%);stroke-opacity:1;stroke-miterlimit:10;" d="M 32301.041667 13015.885417 L 32030.989583 13015.885417 L 32030.989583 12450 " transform="matrix(0.015,0,0,0.015,0,0)"/>
<path style="fill:none;stroke-width:28;stroke-linecap:round;stroke-linejoin:round;stroke:rgb(0%,0%,0%);stroke-opacity:1;stroke-miterlimit:10;" d="M 32490.104167 12720.052083 L 32678.90625 12720.052083 " transform="matrix(0.015,0,0,0.015,0,0)"/>
<path style="fill:none;stroke-width:28;stroke-linecap:round;stroke-linejoin:round;stroke:rgb(0%,0%,0%);stroke-opacity:1;stroke-miterlimit:10;" d="M 32759.895833 13015.885417 L 32490.104167 13015.885417 L 32490.104167 12450 L 32759.895833 12450 " transform="matrix(0.015,0,0,0.015,0,0)"/>
<path style="fill:none;stroke-width:28;stroke-linecap:round;stroke-linejoin:round;stroke:rgb(0%,0%,0%);stroke-opacity:1;stroke-miterlimit:10;" d="M 33003.125 13015.885417 L 33003.125 12450 L 33138.020833 12450 L 33219.010417 12477.083333 L 33272.916667 12530.989583 L 33300 12584.895833 L 33327.083333 12692.96875 L 33327.083333 12772.916667 L 33300 12880.989583 L 33272.916667 12934.895833 L 33219.010417 12989.0625 L 33138.020833 13015.885417 L 33003.125 13015.885417 " transform="matrix(0.015,0,0,0.015,0,0)"/>
<path style="fill:none;stroke-width:28;stroke-linecap:round;stroke-linejoin:round;stroke:rgb(0%,0%,0%);stroke-opacity:1;stroke-miterlimit:10;" d="M 34325 11215.885417 L 34325 10650 L 34514.0625 11053.90625 L 34703.125 10650 L 34703.125 11215.885417 " transform="matrix(0.015,0,0,0.015,0,0)"/>
<path style="fill:none;stroke-width:28;stroke-linecap:round;stroke-linejoin:round;stroke:rgb(0%,0%,0%);stroke-opacity:1;stroke-miterlimit:10;" d="M 34919.010417 10650 L 35270.052083 10650 L 35080.989583 10865.885417 L 35161.979167 10865.885417 L 35215.885417 10892.96875 L 35242.96875 10920.052083 L 35270.052083 10972.916667 L 35270.052083 11108.072917 L 35242.96875 11161.979167 L 35215.885417 11189.0625 L 35161.979167 11215.885417 L 35000 11215.885417 L 34946.09375 11189.0625 L 34919.010417 11161.979167 " transform="matrix(0.015,0,0,0.015,0,0)"/>
<path style="fill:none;stroke-width:28;stroke-linecap:round;stroke-linejoin:round;stroke:rgb(0%,0%,0%);stroke-opacity:1;stroke-miterlimit:10;" d="M 35086.458333 12400 C 35086.458333 12567.1875 34951.041667 12702.604167 34784.114583 12702.604167 C 34616.927083 12702.604167 34481.510417 12567.1875 34481.510417 12400 C 34481.510417 12232.8125 34616.927083 12097.395833 34784.114583 12097.395833 C 34951.041667 12097.395833 35086.458333 12232.8125 35086.458333 12400 Z M 35086.458333 12400 " transform="matrix(0.015,0,0,0.015,0,0)"/>
<path style="fill:none;stroke-width:28;stroke-linecap:round;stroke-linejoin:round;stroke:rgb(0%,0%,0%);stroke-opacity:1;stroke-miterlimit:10;" d="M 35864.583333 8920.572917 C 36055.46875 8920.572917 36238.541667 8996.354167 36373.697917 9131.510417 C 36508.59375 9266.40625 36584.375 9449.479167 36584.375 9640.625 " transform="matrix(0.015,0,0,0.015,0,0)"/>
<path style="fill:none;stroke-width:28;stroke-linecap:round;stroke-linejoin:round;stroke:rgb(0%,0%,0%);stroke-opacity:1;stroke-miterlimit:10;" d="M 35744.010417 12400 L 33823.958333 12400 " transform="matrix(0.015,0,0,0.015,0,0)"/>
<path style="fill:none;stroke-width:28;stroke-linecap:round;stroke-linejoin:round;stroke:rgb(0%,0%,0%);stroke-opacity:1;stroke-miterlimit:10;" d="M 20936.979167 9896.09375 L 20936.979167 9329.947917 " transform="matrix(0.015,0,0,0.015,0,0)"/>
<path style="fill:none;stroke-width:28;stroke-linecap:round;stroke-linejoin:round;stroke:rgb(0%,0%,0%);stroke-opacity:1;stroke-miterlimit:10;" d="M 20936.979167 9600 L 21260.9375 9600 " transform="matrix(0.015,0,0,0.015,0,0)"/>
<path style="fill:none;stroke-width:28;stroke-linecap:round;stroke-linejoin:round;stroke:rgb(0%,0%,0%);stroke-opacity:1;stroke-miterlimit:10;" d="M 21260.9375 9896.09375 L 21260.9375 9329.947917 " transform="matrix(0.015,0,0,0.015,0,0)"/>
<path style="fill:none;stroke-width:28;stroke-linecap:round;stroke-linejoin:round;stroke:rgb(0%,0%,0%);stroke-opacity:1;stroke-miterlimit:10;" d="M 21773.958333 9896.09375 L 21773.958333 9600 L 21746.875 9546.09375 L 21692.96875 9519.010417 L 21584.895833 9519.010417 L 21530.989583 9546.09375 " transform="matrix(0.015,0,0,0.015,0,0)"/>
<path style="fill:none;stroke-width:28;stroke-linecap:round;stroke-linejoin:round;stroke:rgb(0%,0%,0%);stroke-opacity:1;stroke-miterlimit:10;" d="M 21773.958333 9869.010417 L 21720.052083 9896.09375 L 21584.895833 9896.09375 L 21530.989583 9869.010417 L 21503.90625 9815.104167 L 21503.90625 9760.9375 L 21530.989583 9707.03125 L 21584.895833 9679.947917 L 21720.052083 9679.947917 L 21773.958333 9653.125 " transform="matrix(0.015,0,0,0.015,0,0)"/>
<path style="fill:none;stroke-width:28;stroke-linecap:round;stroke-linejoin:round;stroke:rgb(0%,0%,0%);stroke-opacity:1;stroke-miterlimit:10;" d="M 22044.010417 9896.09375 L 22044.010417 9519.010417 " transform="matrix(0.015,0,0,0.015,0,0)"/>
<path style="fill:none;stroke-width:28;stroke-linecap:round;stroke-linejoin:round;stroke:rgb(0%,0%,0%);stroke-opacity:1;stroke-miterlimit:10;" d="M 22044.010417 9572.916667 L 22071.09375 9546.09375 L 22125 9519.010417 L 22205.989583 9519.010417 L 22259.895833 9546.09375 L 22286.979167 9600 L 22286.979167 9896.09375 " transform="matrix(0.015,0,0,0.015,0,0)"/>
<path style="fill:none;stroke-width:28;stroke-linecap:round;stroke-linejoin:round;stroke:rgb(0%,0%,0%);stroke-opacity:1;stroke-miterlimit:10;" d="M 22286.979167 9600 L 22314.0625 9546.09375 L 22367.96875 9519.010417 L 22448.958333 9519.010417 L 22503.125 9546.09375 L 22529.947917 9600 L 22529.947917 9896.09375 " transform="matrix(0.015,0,0,0.015,0,0)"/>
<path style="fill:none;stroke-width:28;stroke-linecap:round;stroke-linejoin:round;stroke:rgb(0%,0%,0%);stroke-opacity:1;stroke-miterlimit:10;" d="M 22800 9896.09375 L 22800 9519.010417 " transform="matrix(0.015,0,0,0.015,0,0)"/>
<path style="fill:none;stroke-width:28;stroke-linecap:round;stroke-linejoin:round;stroke:rgb(0%,0%,0%);stroke-opacity:1;stroke-miterlimit:10;" d="M 22800 9572.916667 L 22827.083333 9546.09375 L 22880.989583 9519.010417 L 22961.979167 9519.010417 L 23015.885417 9546.09375 L 23042.96875 9600 L 23042.96875 9896.09375 " transform="matrix(0.015,0,0,0.015,0,0)"/>
<path style="fill:none;stroke-width:28;stroke-linecap:round;stroke-linejoin:round;stroke:rgb(0%,0%,0%);stroke-opacity:1;stroke-miterlimit:10;" d="M 23042.96875 9600 L 23070.052083 9546.09375 L 23123.958333 9519.010417 L 23204.947917 9519.010417 L 23259.114583 9546.09375 L 23285.9375 9600 L 23285.9375 9896.09375 " transform="matrix(0.015,0,0,0.015,0,0)"/>
<path style="fill:none;stroke-width:28;stroke-linecap:round;stroke-linejoin:round;stroke:rgb(0%,0%,0%);stroke-opacity:1;stroke-miterlimit:10;" d="M 23636.979167 9896.09375 L 23583.072917 9869.010417 L 23555.989583 9841.927083 L 23528.90625 9788.020833 L 23528.90625 9627.083333 L 23555.989583 9572.916667 L 23583.072917 9546.09375 L 23636.979167 9519.010417 L 23717.96875 9519.010417 L 23771.875 9546.09375 L 23798.958333 9572.916667 L 23826.041667 9627.083333 L 23826.041667 9788.020833 L 23798.958333 9841.927083 L 23771.875 9869.010417 L 23717.96875 9896.09375 L 23636.979167 9896.09375 " transform="matrix(0.015,0,0,0.015,0,0)"/>
<path style="fill:none;stroke-width:28;stroke-linecap:round;stroke-linejoin:round;stroke:rgb(0%,0%,0%);stroke-opacity:1;stroke-miterlimit:10;" d="M 24067.96875 9519.010417 L 24067.96875 9896.09375 " transform="matrix(0.015,0,0,0.015,0,0)"/>
<path style="fill:none;stroke-width:28;stroke-linecap:round;stroke-linejoin:round;stroke:rgb(0%,0%,0%);stroke-opacity:1;stroke-miterlimit:10;" d="M 24067.96875 9572.916667 L 24095.052083 9546.09375 L 24148.958333 9519.010417 L 24229.947917 9519.010417 L 24284.114583 9546.09375 L 24310.9375 9600 L 24310.9375 9896.09375 " transform="matrix(0.015,0,0,0.015,0,0)"/>
<path style="fill:none;stroke-width:28;stroke-linecap:round;stroke-linejoin:round;stroke:rgb(0%,0%,0%);stroke-opacity:1;stroke-miterlimit:10;" d="M 24823.958333 9896.09375 L 24823.958333 9329.947917 " transform="matrix(0.015,0,0,0.015,0,0)"/>
<path style="fill:none;stroke-width:28;stroke-linecap:round;stroke-linejoin:round;stroke:rgb(0%,0%,0%);stroke-opacity:1;stroke-miterlimit:10;" d="M 24823.958333 9869.010417 L 24770.052083 9896.09375 L 24661.979167 9896.09375 L 24608.072917 9869.010417 L 24580.989583 9841.927083 L 24553.90625 9788.020833 L 24553.90625 9627.083333 L 24580.989583 9572.916667 L 24608.072917 9546.09375 L 24661.979167 9519.010417 L 24770.052083 9519.010417 L 24823.958333 9546.09375 " transform="matrix(0.015,0,0,0.015,0,0)"/>
<path style="fill:none;stroke-width:28;stroke-linecap:round;stroke-linejoin:round;stroke:rgb(0%,0%,0%);stroke-opacity:1;stroke-miterlimit:10;" d="M 25822.916667 9896.09375 L 25498.958333 9896.09375 " transform="matrix(0.015,0,0,0.015,0,0)"/>
<path style="fill:none;stroke-width:28;stroke-linecap:round;stroke-linejoin:round;stroke:rgb(0%,0%,0%);stroke-opacity:1;stroke-miterlimit:10;" d="M 25660.9375 9896.09375 L 25660.9375 9329.947917 L 25607.03125 9410.9375 L 25553.125 9465.104167 L 25498.958333 9491.927083 " transform="matrix(0.015,0,0,0.015,0,0)"/>
<path style="fill:none;stroke-width:28;stroke-linecap:round;stroke-linejoin:round;stroke:rgb(0%,0%,0%);stroke-opacity:1;stroke-miterlimit:10;" d="M 26335.9375 9329.947917 L 26065.885417 9329.947917 L 26039.0625 9600 L 26065.885417 9572.916667 L 26120.052083 9546.09375 L 26254.947917 9546.09375 L 26309.114583 9572.916667 L 26335.9375 9600 L 26363.020833 9653.125 L 26363.020833 9788.020833 L 26335.9375 9841.927083 L 26309.114583 9869.010417 L 26254.947917 9896.09375 L 26120.052083 9896.09375 L 26065.885417 9869.010417 L 26039.0625 9841.927083 " transform="matrix(0.015,0,0,0.015,0,0)"/>
<path style="fill:none;stroke-width:28;stroke-linecap:round;stroke-linejoin:round;stroke:rgb(0%,0%,0%);stroke-opacity:1;stroke-miterlimit:10;" d="M 26633.072917 9896.09375 L 26740.885417 9896.09375 L 26795.052083 9869.010417 L 26821.875 9841.927083 L 26876.041667 9760.9375 L 26903.125 9653.125 L 26903.125 9438.020833 L 26876.041667 9384.114583 L 26848.958333 9357.03125 L 26795.052083 9329.947917 L 26686.979167 9329.947917 L 26633.072917 9357.03125 L 26605.989583 9384.114583 L 26578.90625 9438.020833 L 26578.90625 9572.916667 L 26605.989583 9627.083333 L 26633.072917 9653.125 L 26686.979167 9679.947917 L 26795.052083 9679.947917 L 26848.958333 9653.125 L 26876.041667 9627.083333 L 26903.125 9572.916667 " transform="matrix(0.015,0,0,0.015,0,0)"/>
<path style="fill:none;stroke-width:28;stroke-linecap:round;stroke-linejoin:round;stroke:rgb(0%,0%,0%);stroke-opacity:1;stroke-miterlimit:10;" d="M 27253.90625 9329.947917 L 27308.072917 9329.947917 L 27361.979167 9357.03125 L 27389.0625 9384.114583 L 27415.885417 9438.020833 L 27442.96875 9546.09375 L 27442.96875 9679.947917 L 27415.885417 9788.020833 L 27389.0625 9841.927083 L 27361.979167 9869.010417 L 27308.072917 9896.09375 L 27253.90625 9896.09375 L 27200 9869.010417 L 27172.916667 9841.927083 L 27146.09375 9788.020833 L 27119.010417 9679.947917 L 27119.010417 9546.09375 L 27146.09375 9438.020833 L 27172.916667 9384.114583 L 27200 9357.03125 L 27253.90625 9329.947917 " transform="matrix(0.015,0,0,0.015,0,0)"/>
<path style="fill:none;stroke-width:28;stroke-linecap:round;stroke-linejoin:round;stroke:rgb(0%,0%,0%);stroke-opacity:1;stroke-miterlimit:10;" d="M 27875 9600 L 27955.989583 9627.083333 L 27983.072917 9653.125 L 28009.895833 9707.03125 L 28009.895833 9788.020833 L 27983.072917 9841.927083 L 27955.989583 9869.010417 L 27902.083333 9896.09375 L 27685.9375 9896.09375 L 27685.9375 9329.947917 L 27875 9329.947917 L 27928.90625 9357.03125 L 27955.989583 9384.114583 L 27983.072917 9438.020833 L 27983.072917 9491.927083 L 27955.989583 9546.09375 L 27928.90625 9572.916667 L 27875 9600 L 27685.9375 9600 " transform="matrix(0.015,0,0,0.015,0,0)"/>
<path style="fill:none;stroke-width:28;stroke-linecap:round;stroke-linejoin:round;stroke:rgb(0%,0%,0%);stroke-opacity:1;stroke-miterlimit:10;" d="M 28441.927083 9600 L 28522.916667 9627.083333 L 28550 9653.125 L 28577.083333 9707.03125 L 28577.083333 9788.020833 L 28550 9841.927083 L 28522.916667 9869.010417 L 28469.010417 9896.09375 L 28253.125 9896.09375 L 28253.125 9329.947917 L 28441.927083 9329.947917 L 28496.09375 9357.03125 L 28522.916667 9384.114583 L 28550 9438.020833 L 28550 9491.927083 L 28522.916667 9546.09375 L 28496.09375 9572.916667 L 28441.927083 9600 L 28253.125 9600 " transform="matrix(0.015,0,0,0.015,0,0)"/>
<path style="fill:none;stroke-width:28;stroke-linecap:round;stroke-linejoin:round;stroke:rgb(0%,0%,0%);stroke-opacity:1;stroke-miterlimit:10;" d="M 29225 9869.010417 L 29278.90625 9896.09375 L 29386.979167 9896.09375 L 29440.885417 9869.010417 L 29467.96875 9815.104167 L 29467.96875 9788.020833 L 29440.885417 9734.114583 L 29386.979167 9707.03125 L 29305.989583 9707.03125 L 29252.083333 9679.947917 L 29225 9627.083333 L 29225 9600 L 29252.083333 9546.09375 L 29305.989583 9519.010417 L 29386.979167 9519.010417 L 29440.885417 9546.09375 " transform="matrix(0.015,0,0,0.015,0,0)"/>
<path style="fill:none;stroke-width:28;stroke-linecap:round;stroke-linejoin:round;stroke:rgb(0%,0%,0%);stroke-opacity:1;stroke-miterlimit:10;" d="M 29710.9375 9896.09375 L 29710.9375 9519.010417 " transform="matrix(0.015,0,0,0.015,0,0)"/>
<path style="fill:none;stroke-width:28;stroke-linecap:round;stroke-linejoin:round;stroke:rgb(0%,0%,0%);stroke-opacity:1;stroke-miterlimit:10;" d="M 29710.9375 9329.947917 L 29684.114583 9357.03125 L 29710.9375 9384.114583 L 29738.020833 9357.03125 L 29710.9375 9329.947917 L 29710.9375 9384.114583 " transform="matrix(0.015,0,0,0.015,0,0)"/>
<path style="fill:none;stroke-width:28;stroke-linecap:round;stroke-linejoin:round;stroke:rgb(0%,0%,0%);stroke-opacity:1;stroke-miterlimit:10;" d="M 29927.083333 9519.010417 L 30223.958333 9519.010417 L 29927.083333 9896.09375 L 30223.958333 9896.09375 " transform="matrix(0.015,0,0,0.015,0,0)"/>
<path style="fill:none;stroke-width:28;stroke-linecap:round;stroke-linejoin:round;stroke:rgb(0%,0%,0%);stroke-opacity:1;stroke-miterlimit:10;" d="M 30655.989583 9869.010417 L 30602.083333 9896.09375 L 30494.010417 9896.09375 L 30440.104167 9869.010417 L 30413.020833 9815.104167 L 30413.020833 9600 L 30440.104167 9546.09375 L 30494.010417 9519.010417 L 30602.083333 9519.010417 L 30655.989583 9546.09375 L 30683.072917 9600 L 30683.072917 9653.125 L 30413.020833 9707.03125 " transform="matrix(0.015,0,0,0.015,0,0)"/>
<path style="fill:none;stroke-width:28;stroke-linecap:round;stroke-linejoin:round;stroke:rgb(0%,0%,0%);stroke-opacity:1;stroke-miterlimit:10;" d="M 31573.958333 9869.010417 L 31520.052083 9896.09375 L 31411.979167 9896.09375 L 31358.072917 9869.010417 L 31330.989583 9815.104167 L 31330.989583 9600 L 31358.072917 9546.09375 L 31411.979167 9519.010417 L 31520.052083 9519.010417 L 31573.958333 9546.09375 L 31601.041667 9600 L 31601.041667 9653.125 L 31330.989583 9707.03125 " transform="matrix(0.015,0,0,0.015,0,0)"/>
<path style="fill:none;stroke-width:28;stroke-linecap:round;stroke-linejoin:round;stroke:rgb(0%,0%,0%);stroke-opacity:1;stroke-miterlimit:10;" d="M 31844.010417 9519.010417 L 31844.010417 9896.09375 " transform="matrix(0.015,0,0,0.015,0,0)"/>
<path style="fill:none;stroke-width:28;stroke-linecap:round;stroke-linejoin:round;stroke:rgb(0%,0%,0%);stroke-opacity:1;stroke-miterlimit:10;" d="M 31844.010417 9572.916667 L 31871.09375 9546.09375 L 31925 9519.010417 L 32005.989583 9519.010417 L 32059.895833 9546.09375 L 32085.9375 9600 L 32085.9375 9896.09375 " transform="matrix(0.015,0,0,0.015,0,0)"/>
<path style="fill:none;stroke-width:28;stroke-linecap:round;stroke-linejoin:round;stroke:rgb(0%,0%,0%);stroke-opacity:1;stroke-miterlimit:10;" d="M 32598.958333 9869.010417 L 32545.052083 9896.09375 L 32436.979167 9896.09375 L 32383.072917 9869.010417 L 32355.989583 9841.927083 L 32328.90625 9788.020833 L 32328.90625 9627.083333 L 32355.989583 9572.916667 L 32383.072917 9546.09375 L 32436.979167 9519.010417 L 32545.052083 9519.010417 L 32598.958333 9546.09375 " transform="matrix(0.015,0,0,0.015,0,0)"/>
<path style="fill:none;stroke-width:28;stroke-linecap:round;stroke-linejoin:round;stroke:rgb(0%,0%,0%);stroke-opacity:1;stroke-miterlimit:10;" d="M 32922.916667 9896.09375 L 32869.010417 9869.010417 L 32841.927083 9815.104167 L 32841.927083 9329.947917 " transform="matrix(0.015,0,0,0.015,0,0)"/>
<path style="fill:none;stroke-width:28;stroke-linecap:round;stroke-linejoin:round;stroke:rgb(0%,0%,0%);stroke-opacity:1;stroke-miterlimit:10;" d="M 33220.052083 9896.09375 L 33165.885417 9869.010417 L 33139.0625 9841.927083 L 33111.979167 9788.020833 L 33111.979167 9627.083333 L 33139.0625 9572.916667 L 33165.885417 9546.09375 L 33220.052083 9519.010417 L 33301.041667 9519.010417 L 33354.947917 9546.09375 L 33382.03125 9572.916667 L 33409.114583 9627.083333 L 33409.114583 9788.020833 L 33382.03125 9841.927083 L 33354.947917 9869.010417 L 33301.041667 9896.09375 L 33220.052083 9896.09375 " transform="matrix(0.015,0,0,0.015,0,0)"/>
<path style="fill:none;stroke-width:28;stroke-linecap:round;stroke-linejoin:round;stroke:rgb(0%,0%,0%);stroke-opacity:1;stroke-miterlimit:10;" d="M 33625 9869.010417 L 33678.90625 9896.09375 L 33786.979167 9896.09375 L 33840.885417 9869.010417 L 33867.96875 9815.104167 L 33867.96875 9788.020833 L 33840.885417 9734.114583 L 33786.979167 9707.03125 L 33705.989583 9707.03125 L 33652.083333 9679.947917 L 33625 9627.083333 L 33625 9600 L 33652.083333 9546.09375 L 33705.989583 9519.010417 L 33786.979167 9519.010417 L 33840.885417 9546.09375 " transform="matrix(0.015,0,0,0.015,0,0)"/>
<path style="fill:none;stroke-width:28;stroke-linecap:round;stroke-linejoin:round;stroke:rgb(0%,0%,0%);stroke-opacity:1;stroke-miterlimit:10;" d="M 34353.90625 9519.010417 L 34353.90625 9896.09375 " transform="matrix(0.015,0,0,0.015,0,0)"/>
<path style="fill:none;stroke-width:28;stroke-linecap:round;stroke-linejoin:round;stroke:rgb(0%,0%,0%);stroke-opacity:1;stroke-miterlimit:10;" d="M 34110.9375 9519.010417 L 34110.9375 9815.104167 L 34138.020833 9869.010417 L 34191.927083 9896.09375 L 34272.916667 9896.09375 L 34327.083333 9869.010417 L 34353.90625 9841.927083 " transform="matrix(0.015,0,0,0.015,0,0)"/>
<path style="fill:none;stroke-width:28;stroke-linecap:round;stroke-linejoin:round;stroke:rgb(0%,0%,0%);stroke-opacity:1;stroke-miterlimit:10;" d="M 34623.958333 9896.09375 L 34623.958333 9519.010417 " transform="matrix(0.015,0,0,0.015,0,0)"/>
<path style="fill:none;stroke-width:28;stroke-linecap:round;stroke-linejoin:round;stroke:rgb(0%,0%,0%);stroke-opacity:1;stroke-miterlimit:10;" d="M 34623.958333 9627.083333 L 34651.041667 9572.916667 L 34678.125 9546.09375 L 34732.03125 9519.010417 L 34785.9375 9519.010417 " transform="matrix(0.015,0,0,0.015,0,0)"/>
<path style="fill:none;stroke-width:28;stroke-linecap:round;stroke-linejoin:round;stroke:rgb(0%,0%,0%);stroke-opacity:1;stroke-miterlimit:10;" d="M 35190.885417 9869.010417 L 35136.979167 9896.09375 L 35028.90625 9896.09375 L 34975 9869.010417 L 34947.916667 9815.104167 L 34947.916667 9600 L 34975 9546.09375 L 35028.90625 9519.010417 L 35136.979167 9519.010417 L 35190.885417 9546.09375 L 35217.96875 9600 L 35217.96875 9653.125 L 34947.916667 9707.03125 " transform="matrix(0.015,0,0,0.015,0,0)"/>
<path style="fill:none;stroke-width:28;stroke-linecap:round;stroke-linejoin:round;stroke:rgb(0%,0%,0%);stroke-opacity:1;stroke-miterlimit:10;" d="M 31423.958333 14559.895833 L 31064.0625 14200 " transform="matrix(0.015,0,0,0.015,0,0)"/>
<path style="fill:none;stroke-width:28;stroke-linecap:round;stroke-linejoin:round;stroke:rgb(0%,0%,0%);stroke-opacity:1;stroke-miterlimit:10;" d="M 34784.114583 13359.895833 L 34784.114583 11440.104167 " transform="matrix(0.015,0,0,0.015,0,0)"/>
<path style="fill:none;stroke-width:28;stroke-linecap:round;stroke-linejoin:round;stroke:rgb(0%,0%,0%);stroke-opacity:1;stroke-miterlimit:10;" d="M 32384.114583 15759.895833 L 30464.0625 15759.895833 " transform="matrix(0.015,0,0,0.015,0,0)"/>
<path style="fill:none;stroke-width:28;stroke-linecap:round;stroke-linejoin:round;stroke:rgb(0%,0%,0%);stroke-opacity:1;stroke-miterlimit:10;" d="M 32864.0625 15759.895833 L 34784.114583 15759.895833 " transform="matrix(0.015,0,0,0.015,0,0)"/>
<path style="fill:none;stroke-width:28;stroke-linecap:round;stroke-linejoin:round;stroke:rgb(0%,0%,0%);stroke-opacity:1;stroke-miterlimit:10;" d="M 28735.416667 15759.895833 C 28735.416667 16000 28607.552083 16221.614583 28399.739583 16341.40625 C 28191.927083 16461.458333 27935.9375 16461.458333 27728.125 16341.40625 C 27520.572917 16221.614583 27392.447917 16000 27392.447917 15759.895833 C 27392.447917 15520.052083 27520.572917 15298.4375 27728.125 15178.385417 C 27935.9375 15058.59375 28191.927083 15058.59375 28399.739583 15178.385417 C 28607.552083 15298.4375 28735.416667 15520.052083 28735.416667 15759.895833 Z M 28735.416667 15759.895833 " transform="matrix(0.015,0,0,0.015,0,0)"/>
<path style="fill:none;stroke-width:28;stroke-linecap:round;stroke-linejoin:round;stroke:rgb(0%,0%,0%);stroke-opacity:1;stroke-miterlimit:10;" d="M 35864.0625 8920.052083 L 20264.0625 8920.052083 " transform="matrix(0.015,0,0,0.015,0,0)"/>
<path style="fill:none;stroke-width:28;stroke-linecap:round;stroke-linejoin:round;stroke:rgb(0%,0%,0%);stroke-opacity:1;stroke-miterlimit:10;" d="M 23264.0625 15759.895833 L 21344.010417 15759.895833 " transform="matrix(0.015,0,0,0.015,0,0)"/>
<path style="fill:none;stroke-width:28;stroke-linecap:round;stroke-linejoin:round;stroke:rgb(0%,0%,0%);stroke-opacity:1;stroke-miterlimit:10;" d="M 29023.958333 15759.895833 L 27103.90625 15759.895833 " transform="matrix(0.015,0,0,0.015,0,0)"/>
<path style="fill:none;stroke-width:28;stroke-linecap:round;stroke-linejoin:round;stroke:rgb(0%,0%,0%);stroke-opacity:1;stroke-miterlimit:10;" d="M 34495.572917 15759.895833 C 34495.572917 16000 34367.447917 16221.614583 34159.635417 16341.40625 C 33952.083333 16461.458333 33696.09375 16461.458333 33488.28125 16341.40625 C 33280.46875 16221.614583 33152.604167 16000 33152.604167 15759.895833 C 33152.604167 15520.052083 33280.46875 15298.4375 33488.28125 15178.385417 C 33696.09375 15058.59375 33952.083333 15058.59375 34159.635417 15178.385417 C 34367.447917 15298.4375 34495.572917 15520.052083 34495.572917 15759.895833 Z M 34495.572917 15759.895833 " transform="matrix(0.015,0,0,0.015,0,0)"/>
<path style="fill:none;stroke-width:28;stroke-linecap:round;stroke-linejoin:round;stroke:rgb(0%,0%,0%);stroke-opacity:1;stroke-miterlimit:10;" d="M 28064.0625 16959.895833 L 27703.90625 17320.052083 " transform="matrix(0.015,0,0,0.015,0,0)"/>
<path style="fill:none;stroke-width:28;stroke-linecap:round;stroke-linejoin:round;stroke:rgb(0%,0%,0%);stroke-opacity:1;stroke-miterlimit:10;" d="M 19544.010417 9640.104167 L 19544.010417 30040.104167 " transform="matrix(0.015,0,0,0.015,0,0)"/>
<path style="fill:none;stroke-width:28;stroke-linecap:round;stroke-linejoin:round;stroke:rgb(0%,0%,0%);stroke-opacity:1;stroke-miterlimit:10;" d="M 36584.114583 30040.104167 L 36584.114583 9640.104167 " transform="matrix(0.015,0,0,0.015,0,0)"/>
<path style="fill:none;stroke-width:28;stroke-linecap:round;stroke-linejoin:round;stroke:rgb(0%,0%,0%);stroke-opacity:1;stroke-miterlimit:10;" d="M 20264.0625 30759.895833 L 35864.0625 30759.895833 " transform="matrix(0.015,0,0,0.015,0,0)"/>
<path style="fill:none;stroke-width:28;stroke-linecap:round;stroke-linejoin:round;stroke:rgb(0%,0%,0%);stroke-opacity:1;stroke-miterlimit:10;" d="M 29144.010417 28120.052083 L 26984.114583 28120.052083 " transform="matrix(0.015,0,0,0.015,0,0)"/>
<path style="fill:none;stroke-width:28;stroke-linecap:round;stroke-linejoin:round;stroke:rgb(0%,0%,0%);stroke-opacity:1;stroke-miterlimit:10;" d="M 26803.125 19615.885417 L 26478.90625 19615.885417 " transform="matrix(0.015,0,0,0.015,0,0)"/>
<path style="fill:none;stroke-width:28;stroke-linecap:round;stroke-linejoin:round;stroke:rgb(0%,0%,0%);stroke-opacity:1;stroke-miterlimit:10;" d="M 26640.885417 19615.885417 L 26640.885417 19050 L 26586.979167 19130.989583 L 26533.072917 19184.895833 L 26478.90625 19211.979167 " transform="matrix(0.015,0,0,0.015,0,0)"/>
<path style="fill:none;stroke-width:28;stroke-linecap:round;stroke-linejoin:round;stroke:rgb(0%,0%,0%);stroke-opacity:1;stroke-miterlimit:10;" d="M 27451.041667 19022.916667 L 26965.104167 19751.041667 " transform="matrix(0.015,0,0,0.015,0,0)"/>
<path style="fill:none;stroke-width:28;stroke-linecap:round;stroke-linejoin:round;stroke:rgb(0%,0%,0%);stroke-opacity:1;stroke-miterlimit:10;" d="M 27883.072917 19239.0625 L 27883.072917 19615.885417 " transform="matrix(0.015,0,0,0.015,0,0)"/>
<path style="fill:none;stroke-width:28;stroke-linecap:round;stroke-linejoin:round;stroke:rgb(0%,0%,0%);stroke-opacity:1;stroke-miterlimit:10;" d="M 27747.916667 19022.916667 L 27613.020833 19427.083333 L 27964.0625 19427.083333 " transform="matrix(0.015,0,0,0.015,0,0)"/>
<path style="fill:none;stroke-width:28;stroke-linecap:round;stroke-linejoin:round;stroke:rgb(0%,0%,0%);stroke-opacity:1;stroke-miterlimit:10;" d="M 28153.125 19050 L 28153.125 19158.072917 " transform="matrix(0.015,0,0,0.015,0,0)"/>
<path style="fill:none;stroke-width:28;stroke-linecap:round;stroke-linejoin:round;stroke:rgb(0%,0%,0%);stroke-opacity:1;stroke-miterlimit:10;" d="M 28369.010417 19050 L 28369.010417 19158.072917 " transform="matrix(0.015,0,0,0.015,0,0)"/>
<path style="fill:none;stroke-width:28;stroke-linecap:round;stroke-linejoin:round;stroke:rgb(0%,0%,0%);stroke-opacity:1;stroke-miterlimit:10;" d="M 29042.96875 19239.0625 L 29042.96875 19804.947917 " transform="matrix(0.015,0,0,0.015,0,0)"/>
<path style="fill:none;stroke-width:28;stroke-linecap:round;stroke-linejoin:round;stroke:rgb(0%,0%,0%);stroke-opacity:1;stroke-miterlimit:10;" d="M 29042.96875 19265.885417 L 29096.875 19239.0625 L 29204.947917 19239.0625 L 29259.114583 19265.885417 L 29285.9375 19292.96875 L 29313.020833 19346.875 L 29313.020833 19508.072917 L 29285.9375 19561.979167 L 29259.114583 19589.0625 L 29204.947917 19615.885417 L 29096.875 19615.885417 L 29042.96875 19589.0625 " transform="matrix(0.015,0,0,0.015,0,0)"/>
<path style="fill:none;stroke-width:28;stroke-linecap:round;stroke-linejoin:round;stroke:rgb(0%,0%,0%);stroke-opacity:1;stroke-miterlimit:10;" d="M 29636.979167 19615.885417 L 29583.072917 19589.0625 L 29555.989583 19561.979167 L 29528.90625 19508.072917 L 29528.90625 19346.875 L 29555.989583 19292.96875 L 29583.072917 19265.885417 L 29636.979167 19239.0625 L 29717.96875 19239.0625 L 29771.875 19265.885417 L 29798.958333 19292.96875 L 29826.041667 19346.875 L 29826.041667 19508.072917 L 29798.958333 19561.979167 L 29771.875 19589.0625 L 29717.96875 19615.885417 L 29636.979167 19615.885417 " transform="matrix(0.015,0,0,0.015,0,0)"/>
<path style="fill:none;stroke-width:28;stroke-linecap:round;stroke-linejoin:round;stroke:rgb(0%,0%,0%);stroke-opacity:1;stroke-miterlimit:10;" d="M 29988.020833 19239.0625 L 30203.90625 19239.0625 " transform="matrix(0.015,0,0,0.015,0,0)"/>
<path style="fill:none;stroke-width:28;stroke-linecap:round;stroke-linejoin:round;stroke:rgb(0%,0%,0%);stroke-opacity:1;stroke-miterlimit:10;" d="M 30069.010417 19050 L 30069.010417 19534.895833 L 30096.09375 19589.0625 L 30150 19615.885417 L 30203.90625 19615.885417 " transform="matrix(0.015,0,0,0.015,0,0)"/>
<path style="fill:none;stroke-width:28;stroke-linecap:round;stroke-linejoin:round;stroke:rgb(0%,0%,0%);stroke-opacity:1;stroke-miterlimit:10;" d="M 30365.885417 19589.0625 L 30420.052083 19615.885417 L 30528.125 19615.885417 L 30582.03125 19589.0625 L 30609.114583 19534.895833 L 30609.114583 19508.072917 L 30582.03125 19453.90625 L 30528.125 19427.083333 L 30446.875 19427.083333 L 30392.96875 19400 L 30365.885417 19346.875 L 30365.885417 19320.052083 L 30392.96875 19265.885417 L 30446.875 19239.0625 L 30528.125 19239.0625 L 30582.03125 19265.885417 " transform="matrix(0.015,0,0,0.015,0,0)"/>
<path style="fill:none;stroke-width:28;stroke-linecap:round;stroke-linejoin:round;stroke:rgb(0%,0%,0%);stroke-opacity:1;stroke-miterlimit:10;" d="M 25958.072917 26439.0625 L 26173.958333 26439.0625 " transform="matrix(0.015,0,0,0.015,0,0)"/>
<path style="fill:none;stroke-width:28;stroke-linecap:round;stroke-linejoin:round;stroke:rgb(0%,0%,0%);stroke-opacity:1;stroke-miterlimit:10;" d="M 26039.0625 26815.885417 L 26039.0625 26330.989583 L 26065.885417 26277.083333 L 26120.052083 26250 L 26173.958333 26250 " transform="matrix(0.015,0,0,0.015,0,0)"/>
<path style="fill:none;stroke-width:28;stroke-linecap:round;stroke-linejoin:round;stroke:rgb(0%,0%,0%);stroke-opacity:1;stroke-miterlimit:10;" d="M 26444.010417 26815.885417 L 26390.104167 26789.0625 L 26363.020833 26761.979167 L 26335.9375 26708.072917 L 26335.9375 26546.875 L 26363.020833 26492.96875 L 26390.104167 26465.885417 L 26444.010417 26439.0625 L 26525 26439.0625 L 26578.90625 26465.885417 L 26605.989583 26492.96875 L 26633.072917 26546.875 L 26633.072917 26708.072917 L 26605.989583 26761.979167 L 26578.90625 26789.0625 L 26525 26815.885417 L 26444.010417 26815.885417 " transform="matrix(0.015,0,0,0.015,0,0)"/>
<path style="fill:none;stroke-width:28;stroke-linecap:round;stroke-linejoin:round;stroke:rgb(0%,0%,0%);stroke-opacity:1;stroke-miterlimit:10;" d="M 26957.03125 26815.885417 L 26903.125 26789.0625 L 26876.041667 26761.979167 L 26848.958333 26708.072917 L 26848.958333 26546.875 L 26876.041667 26492.96875 L 26903.125 26465.885417 L 26957.03125 26439.0625 L 27038.020833 26439.0625 L 27091.927083 26465.885417 L 27119.010417 26492.96875 L 27146.09375 26546.875 L 27146.09375 26708.072917 L 27119.010417 26761.979167 L 27091.927083 26789.0625 L 27038.020833 26815.885417 L 26957.03125 26815.885417 " transform="matrix(0.015,0,0,0.015,0,0)"/>
<path style="fill:none;stroke-width:28;stroke-linecap:round;stroke-linejoin:round;stroke:rgb(0%,0%,0%);stroke-opacity:1;stroke-miterlimit:10;" d="M 27308.072917 26439.0625 L 27523.958333 26439.0625 " transform="matrix(0.015,0,0,0.015,0,0)"/>
<path style="fill:none;stroke-width:28;stroke-linecap:round;stroke-linejoin:round;stroke:rgb(0%,0%,0%);stroke-opacity:1;stroke-miterlimit:10;" d="M 27389.0625 26250 L 27389.0625 26734.895833 L 27415.885417 26789.0625 L 27470.052083 26815.885417 L 27523.958333 26815.885417 " transform="matrix(0.015,0,0,0.015,0,0)"/>
<path style="fill:none;stroke-width:28;stroke-linecap:round;stroke-linejoin:round;stroke:rgb(0%,0%,0%);stroke-opacity:1;stroke-miterlimit:10;" d="M 27685.9375 26789.0625 L 27740.104167 26815.885417 L 27847.916667 26815.885417 L 27902.083333 26789.0625 L 27928.90625 26734.895833 L 27928.90625 26708.072917 L 27902.083333 26653.90625 L 27847.916667 26627.083333 L 27766.927083 26627.083333 L 27713.020833 26600 L 27685.9375 26546.875 L 27685.9375 26520.052083 L 27713.020833 26465.885417 L 27766.927083 26439.0625 L 27847.916667 26439.0625 L 27902.083333 26465.885417 " transform="matrix(0.015,0,0,0.015,0,0)"/>
<path style="fill:none;stroke-width:28;stroke-linecap:round;stroke-linejoin:round;stroke:rgb(0%,0%,0%);stroke-opacity:1;stroke-miterlimit:10;" d="M 28117.96875 26439.0625 L 28226.041667 26815.885417 L 28334.114583 26546.875 L 28441.927083 26815.885417 L 28550 26439.0625 " transform="matrix(0.015,0,0,0.015,0,0)"/>
<path style="fill:none;stroke-width:28;stroke-linecap:round;stroke-linejoin:round;stroke:rgb(0%,0%,0%);stroke-opacity:1;stroke-miterlimit:10;" d="M 28765.885417 26815.885417 L 28765.885417 26439.0625 " transform="matrix(0.015,0,0,0.015,0,0)"/>
<path style="fill:none;stroke-width:28;stroke-linecap:round;stroke-linejoin:round;stroke:rgb(0%,0%,0%);stroke-opacity:1;stroke-miterlimit:10;" d="M 28765.885417 26250 L 28739.0625 26277.083333 L 28765.885417 26303.90625 L 28792.96875 26277.083333 L 28765.885417 26250 L 28765.885417 26303.90625 " transform="matrix(0.015,0,0,0.015,0,0)"/>
<path style="fill:none;stroke-width:28;stroke-linecap:round;stroke-linejoin:round;stroke:rgb(0%,0%,0%);stroke-opacity:1;stroke-miterlimit:10;" d="M 28954.947917 26439.0625 L 29171.09375 26439.0625 " transform="matrix(0.015,0,0,0.015,0,0)"/>
<path style="fill:none;stroke-width:28;stroke-linecap:round;stroke-linejoin:round;stroke:rgb(0%,0%,0%);stroke-opacity:1;stroke-miterlimit:10;" d="M 29035.9375 26250 L 29035.9375 26734.895833 L 29063.020833 26789.0625 L 29116.927083 26815.885417 L 29171.09375 26815.885417 " transform="matrix(0.015,0,0,0.015,0,0)"/>
<path style="fill:none;stroke-width:28;stroke-linecap:round;stroke-linejoin:round;stroke:rgb(0%,0%,0%);stroke-opacity:1;stroke-miterlimit:10;" d="M 29603.125 26789.0625 L 29548.958333 26815.885417 L 29440.885417 26815.885417 L 29386.979167 26789.0625 L 29359.895833 26761.979167 L 29333.072917 26708.072917 L 29333.072917 26546.875 L 29359.895833 26492.96875 L 29386.979167 26465.885417 L 29440.885417 26439.0625 L 29548.958333 26439.0625 L 29603.125 26465.885417 " transform="matrix(0.015,0,0,0.015,0,0)"/>
<path style="fill:none;stroke-width:28;stroke-linecap:round;stroke-linejoin:round;stroke:rgb(0%,0%,0%);stroke-opacity:1;stroke-miterlimit:10;" d="M 29846.09375 26815.885417 L 29846.09375 26250 " transform="matrix(0.015,0,0,0.015,0,0)"/>
<path style="fill:none;stroke-width:28;stroke-linecap:round;stroke-linejoin:round;stroke:rgb(0%,0%,0%);stroke-opacity:1;stroke-miterlimit:10;" d="M 30089.0625 26815.885417 L 30089.0625 26520.052083 L 30061.979167 26465.885417 L 30008.072917 26439.0625 L 29927.083333 26439.0625 L 29872.916667 26465.885417 L 29846.09375 26492.96875 " transform="matrix(0.015,0,0,0.015,0,0)"/>
<path style="fill:none;stroke-width:28;stroke-linecap:round;stroke-linejoin:round;stroke:rgb(0%,0%,0%);stroke-opacity:1;stroke-miterlimit:10;" d="M 34325 23696.09375 L 34325 23129.947917 L 34514.0625 23534.114583 L 34703.125 23129.947917 L 34703.125 23696.09375 " transform="matrix(0.015,0,0,0.015,0,0)"/>
<path style="fill:none;stroke-width:28;stroke-linecap:round;stroke-linejoin:round;stroke:rgb(0%,0%,0%);stroke-opacity:1;stroke-miterlimit:10;" d="M 34919.010417 23129.947917 L 35270.052083 23129.947917 L 35080.989583 23346.09375 L 35161.979167 23346.09375 L 35215.885417 23372.916667 L 35242.96875 23400 L 35270.052083 23453.125 L 35270.052083 23588.020833 L 35242.96875 23641.927083 L 35215.885417 23669.010417 L 35161.979167 23696.09375 L 35000 23696.09375 L 34946.09375 23669.010417 L 34919.010417 23641.927083 " transform="matrix(0.015,0,0,0.015,0,0)"/>
<path style="fill:none;stroke-width:28;stroke-linecap:round;stroke-linejoin:round;stroke:rgb(0%,0%,0%);stroke-opacity:1;stroke-miterlimit:10;" d="M 35086.458333 24879.947917 C 35086.458333 25047.135417 34951.041667 25182.552083 34784.114583 25182.552083 C 34616.927083 25182.552083 34481.510417 25047.135417 34481.510417 24879.947917 C 34481.510417 24713.020833 34616.927083 24577.604167 34784.114583 24577.604167 C 34951.041667 24577.604167 35086.458333 24713.020833 35086.458333 24879.947917 Z M 35086.458333 24879.947917 " transform="matrix(0.015,0,0,0.015,0,0)"/>
<path style="fill:none;stroke-width:28;stroke-linecap:round;stroke-linejoin:round;stroke:rgb(0%,0%,0%);stroke-opacity:1;stroke-miterlimit:10;" d="M 36584.375 30040.625 C 36584.375 30231.510417 36508.59375 30414.583333 36373.697917 30549.739583 C 36238.541667 30684.635417 36055.46875 30760.416667 35864.583333 30760.416667 " transform="matrix(0.015,0,0,0.015,0,0)"/>
<path style="fill:none;stroke-width:28;stroke-linecap:round;stroke-linejoin:round;stroke:rgb(0%,0%,0%);stroke-opacity:1;stroke-miterlimit:10;" d="M 28971.614583 28120.052083 C 28971.614583 28444.270833 28798.4375 28743.75 28517.708333 28905.989583 C 28236.979167 29067.96875 27891.145833 29067.96875 27610.15625 28905.989583 C 27329.427083 28743.75 27156.510417 28444.270833 27156.510417 28120.052083 C 27156.510417 27795.833333 27329.427083 27496.09375 27610.15625 27334.114583 C 27891.145833 27171.875 28236.979167 27171.875 28517.708333 27334.114583 C 28798.4375 27496.09375 28971.614583 27795.833333 28971.614583 28120.052083 Z M 28971.614583 28120.052083 " transform="matrix(0.015,0,0,0.015,0,0)"/>
<path style="fill:none;stroke-width:28;stroke-linecap:round;stroke-linejoin:round;stroke:rgb(0%,0%,0%);stroke-opacity:1;stroke-miterlimit:10;" d="M 35744.010417 24879.947917 L 33823.958333 24879.947917 " transform="matrix(0.015,0,0,0.015,0,0)"/>
<path style="fill:none;stroke-width:28;stroke-linecap:round;stroke-linejoin:round;stroke:rgb(0%,0%,0%);stroke-opacity:1;stroke-miterlimit:10;" d="M 34784.114583 25840.104167 L 34784.114583 23920.052083 " transform="matrix(0.015,0,0,0.015,0,0)"/>
<path style="fill:none;stroke-width:28;stroke-linecap:round;stroke-linejoin:round;stroke:rgb(0%,0%,0%);stroke-opacity:1;stroke-miterlimit:10;" d="M 28064.0625 29200 L 28064.0625 27040.104167 " transform="matrix(0.015,0,0,0.015,0,0)"/>
<path style="fill:none;stroke-width:28;stroke-linecap:round;stroke-linejoin:round;stroke:rgb(0%,0%,0%);stroke-opacity:1;stroke-miterlimit:10;" d="M 22303.90625 16959.895833 L 21944.010417 17320.052083 " transform="matrix(0.015,0,0,0.015,0,0)"/>
<path style="fill:none;stroke-width:28;stroke-linecap:round;stroke-linejoin:round;stroke:rgb(0%,0%,0%);stroke-opacity:1;stroke-miterlimit:10;" d="M 26144.010417 19359.895833 L 22303.90625 19359.895833 " transform="matrix(0.015,0,0,0.015,0,0)"/>
<path style="fill:none;stroke-width:28;stroke-linecap:round;stroke-linejoin:round;stroke:rgb(0%,0%,0%);stroke-opacity:1;stroke-miterlimit:10;" d="M 20884.895833 23696.09375 L 20884.895833 23129.947917 L 21073.958333 23534.114583 L 21263.020833 23129.947917 L 21263.020833 23696.09375 " transform="matrix(0.015,0,0,0.015,0,0)"/>
<path style="fill:none;stroke-width:28;stroke-linecap:round;stroke-linejoin:round;stroke:rgb(0%,0%,0%);stroke-opacity:1;stroke-miterlimit:10;" d="M 21478.90625 23129.947917 L 21829.947917 23129.947917 L 21640.885417 23346.09375 L 21721.875 23346.09375 L 21776.041667 23372.916667 L 21803.125 23400 L 21829.947917 23453.125 L 21829.947917 23588.020833 L 21803.125 23641.927083 L 21776.041667 23669.010417 L 21721.875 23696.09375 L 21559.895833 23696.09375 L 21505.989583 23669.010417 L 21478.90625 23641.927083 " transform="matrix(0.015,0,0,0.015,0,0)"/>
<path style="fill:none;stroke-width:28;stroke-linecap:round;stroke-linejoin:round;stroke:rgb(0%,0%,0%);stroke-opacity:1;stroke-miterlimit:10;" d="M 21646.614583 24879.947917 C 21646.614583 25047.135417 21510.9375 25182.552083 21344.010417 25182.552083 C 21176.822917 25182.552083 21041.40625 25047.135417 21041.40625 24879.947917 C 21041.40625 24713.020833 21176.822917 24577.604167 21344.010417 24577.604167 C 21510.9375 24577.604167 21646.614583 24713.020833 21646.614583 24879.947917 Z M 21646.614583 24879.947917 " transform="matrix(0.015,0,0,0.015,0,0)"/>
<path style="fill:none;stroke-width:28;stroke-linecap:round;stroke-linejoin:round;stroke:rgb(0%,0%,0%);stroke-opacity:1;stroke-miterlimit:10;" d="M 20264.583333 30760.416667 C 20073.4375 30760.416667 19890.364583 30684.635417 19755.46875 30549.739583 C 19620.3125 30414.583333 19544.53125 30231.510417 19544.53125 30040.625 " transform="matrix(0.015,0,0,0.015,0,0)"/>
<path style="fill:none;stroke-width:28;stroke-linecap:round;stroke-linejoin:round;stroke:rgb(0%,0%,0%);stroke-opacity:1;stroke-miterlimit:10;" d="M 22303.90625 24879.947917 L 20384.114583 24879.947917 " transform="matrix(0.015,0,0,0.015,0,0)"/>
<path style="fill:none;stroke-width:28;stroke-linecap:round;stroke-linejoin:round;stroke:rgb(0%,0%,0%);stroke-opacity:1;stroke-miterlimit:10;" d="M 21344.010417 25840.104167 L 21344.010417 23920.052083 " transform="matrix(0.015,0,0,0.015,0,0)"/>
<path style="fill:none;stroke-width:28;stroke-linecap:round;stroke-linejoin:round;stroke:rgb(0%,0%,0%);stroke-opacity:1;stroke-miterlimit:10;" d="M 33823.958333 19359.895833 L 30944.010417 19359.895833 " transform="matrix(0.015,0,0,0.015,0,0)"/>
<path style="fill:none;stroke-width:28;stroke-linecap:round;stroke-linejoin:round;stroke:rgb(0%,0%,0%);stroke-opacity:1;stroke-miterlimit:10;" d="M 33823.958333 16959.895833 L 33464.0625 17320.052083 " transform="matrix(0.015,0,0,0.015,0,0)"/>
<path style="fill:none;stroke-width:28;stroke-linecap:round;stroke-linejoin:round;stroke:rgb(0%,0%,0%);stroke-opacity:1;stroke-miterlimit:10;" d="M 33823.958333 16959.895833 L 33823.958333 19359.895833 " transform="matrix(0.015,0,0,0.015,0,0)"/>
<path style="fill:none;stroke-width:28;stroke-linecap:round;stroke-linejoin:round;stroke:rgb(0%,0%,0%);stroke-opacity:1;stroke-miterlimit:10;" d="M 28064.0625 16959.895833 L 28423.958333 17320.052083 " transform="matrix(0.015,0,0,0.015,0,0)"/>
<path style="fill:none;stroke-width:28;stroke-linecap:round;stroke-linejoin:round;stroke:rgb(0%,0%,0%);stroke-opacity:1;stroke-miterlimit:10;" d="M 28064.0625 16959.895833 L 28064.0625 18759.895833 " transform="matrix(0.015,0,0,0.015,0,0)"/>
<path style="fill:none;stroke-width:28;stroke-linecap:round;stroke-linejoin:round;stroke:rgb(0%,0%,0%);stroke-opacity:1;stroke-miterlimit:10;" d="M 22303.90625 16959.895833 L 22664.0625 17320.052083 " transform="matrix(0.015,0,0,0.015,0,0)"/>
<path style="fill:none;stroke-width:28;stroke-linecap:round;stroke-linejoin:round;stroke:rgb(0%,0%,0%);stroke-opacity:1;stroke-miterlimit:10;" d="M 22303.90625 16959.895833 L 22303.90625 19359.895833 " transform="matrix(0.015,0,0,0.015,0,0)"/>
<path style="fill:none;stroke-width:28;stroke-linecap:round;stroke-linejoin:round;stroke:rgb(0%,0%,0%);stroke-opacity:1;stroke-miterlimit:10;" d="M 22303.90625 16720.052083 L 22303.90625 14800 " transform="matrix(0.015,0,0,0.015,0,0)"/>
<path style="fill:none;stroke-width:28;stroke-linecap:round;stroke-linejoin:round;stroke:rgb(0%,0%,0%);stroke-opacity:1;stroke-miterlimit:10;" d="M 28064.0625 16720.052083 L 28064.0625 14800 " transform="matrix(0.015,0,0,0.015,0,0)"/>
</g>
</svg>
