M48
; DRILL file {KiCad 5.1.6-c6e7f7d~87~ubuntu18.04.1} date Wed Jul 29 17:50:38 2020
; FORMAT={-:-/ absolute / metric / decimal}
; #@! TF.CreationDate,2020-07-29T17:50:38-04:00
; #@! TF.GenerationSoftware,Kicad,Pcbnew,5.1.6-c6e7f7d~87~ubuntu18.04.1
FMAT,2
METRIC
T1C0.500
T2C3.200
%
G90
G05
T1
X78.88Y-106.68
X79.583Y-104.983
X79.583Y-108.377
X81.28Y-104.28
X81.28Y-109.08
X82.977Y-104.983
X82.977Y-108.377
X83.68Y-106.68
X150.0Y-40.64
X150.703Y-38.943
X150.703Y-42.337
X152.4Y-38.24
X152.4Y-43.04
X154.097Y-38.943
X154.097Y-42.337
X154.8Y-40.64
X150.0Y-106.68
X150.703Y-104.983
X150.703Y-108.377
X152.4Y-104.28
X152.4Y-109.08
X154.097Y-104.983
X154.097Y-108.377
X154.8Y-106.68
X78.88Y-40.64
X79.583Y-38.943
X79.583Y-42.337
X81.28Y-38.24
X81.28Y-43.04
X82.977Y-38.943
X82.977Y-42.337
X83.68Y-40.64
T2
X152.4Y-40.64
X152.4Y-106.68
X81.28Y-40.64
X81.28Y-106.68
T0
M30
