<?xml version="1.0" encoding="UTF-8"?>
<svg xmlns="http://www.w3.org/2000/svg" xmlns:xlink="http://www.w3.org/1999/xlink" width="595.275591pt" height="841.889764pt" viewBox="0 0 595.275591 841.889764" version="1.2">
<g id="surface8822">
<rect x="0" y="0" width="595.275591" height="841.889764" style="fill:rgb(100%,100%,100%);fill-opacity:1;stroke:none;"/>
<path style="fill:none;stroke-width:28;stroke-linecap:round;stroke-linejoin:round;stroke:rgb(0%,0%,0%);stroke-opacity:1;stroke-miterlimit:10;" d="M 21344.53125 22240.625 C 21089.84375 22240.625 20845.833333 22139.322917 20665.625 21959.375 C 20485.677083 21779.166667 20384.375 21535.15625 20384.375 21280.46875 " transform="matrix(0.015,0,0,0.015,0,0)"/>
<path style="fill:none;stroke-width:28;stroke-linecap:round;stroke-linejoin:round;stroke:rgb(0%,0%,0%);stroke-opacity:1;stroke-miterlimit:10;" d="M 20384.375 18400.520833 C 20384.375 18145.833333 20485.677083 17901.822917 20665.625 17721.614583 C 20845.833333 17541.666667 21089.84375 17440.625 21344.53125 17440.625 " transform="matrix(0.015,0,0,0.015,0,0)"/>
<path style="fill:none;stroke-width:28;stroke-linecap:round;stroke-linejoin:round;stroke:rgb(0%,0%,0%);stroke-opacity:1;stroke-miterlimit:10;" d="M 20384.114583 18400 L 20384.114583 21279.947917 " transform="matrix(0.015,0,0,0.015,0,0)"/>
<path style="fill:none;stroke-width:28;stroke-linecap:round;stroke-linejoin:round;stroke:rgb(0%,0%,0%);stroke-opacity:1;stroke-miterlimit:10;" d="M 21344.010417 17440.104167 L 21344.010417 17440.104167 " transform="matrix(0.015,0,0,0.015,0,0)"/>
<path style="fill:none;stroke-width:28;stroke-linecap:round;stroke-linejoin:round;stroke:rgb(0%,0%,0%);stroke-opacity:1;stroke-miterlimit:10;" d="M 23211.458333 20320.052083 C 23211.458333 20644.270833 23038.541667 20943.75 22757.8125 21105.989583 C 22477.083333 21267.96875 22130.989583 21267.96875 21850.260417 21105.989583 C 21569.53125 20943.75 21396.614583 20644.270833 21396.614583 20320.052083 C 21396.614583 19995.833333 21569.53125 19696.09375 21850.260417 19534.114583 C 22130.989583 19371.875 22477.083333 19371.875 22757.8125 19534.114583 C 23038.541667 19696.09375 23211.458333 19995.833333 23211.458333 20320.052083 Z M 23211.458333 20320.052083 " transform="matrix(0.015,0,0,0.015,0,0)"/>
<path style="fill:none;stroke-width:28;stroke-linecap:round;stroke-linejoin:round;stroke:rgb(0%,0%,0%);stroke-opacity:1;stroke-miterlimit:10;" d="M 22303.90625 20320.052083 L 22303.90625 19240.104167 " transform="matrix(0.015,0,0,0.015,0,0)"/>
<path style="fill:none;stroke-width:28;stroke-linecap:round;stroke-linejoin:round;stroke:rgb(0%,0%,0%);stroke-opacity:1;stroke-miterlimit:10;" d="M 22303.90625 20320.052083 L 22303.90625 21400 " transform="matrix(0.015,0,0,0.015,0,0)"/>
<path style="fill:none;stroke-width:28;stroke-linecap:round;stroke-linejoin:round;stroke:rgb(0%,0%,0%);stroke-opacity:1;stroke-miterlimit:10;" d="M 23384.114583 20320.052083 L 21223.958333 20320.052083 " transform="matrix(0.015,0,0,0.015,0,0)"/>
<path style="fill:none;stroke-width:28;stroke-linecap:round;stroke-linejoin:round;stroke:rgb(0%,0%,0%);stroke-opacity:1;stroke-miterlimit:10;" d="M 35744.53125 21280.46875 C 35744.53125 21535.15625 35643.229167 21779.166667 35463.28125 21959.375 C 35283.333333 22139.322917 35039.0625 22240.625 34784.375 22240.625 " transform="matrix(0.015,0,0,0.015,0,0)"/>
<path style="fill:none;stroke-width:28;stroke-linecap:round;stroke-linejoin:round;stroke:rgb(0%,0%,0%);stroke-opacity:1;stroke-miterlimit:10;" d="M 34784.375 17440.625 C 35039.0625 17440.625 35283.333333 17541.666667 35463.28125 17721.614583 C 35643.229167 17901.822917 35744.53125 18145.833333 35744.53125 18400.520833 " transform="matrix(0.015,0,0,0.015,0,0)"/>
<path style="fill:none;stroke-width:28;stroke-linecap:round;stroke-linejoin:round;stroke:rgb(0%,0%,0%);stroke-opacity:1;stroke-miterlimit:10;" d="M 35744.010417 21279.947917 L 35744.010417 18400 " transform="matrix(0.015,0,0,0.015,0,0)"/>
<path style="fill:none;stroke-width:28;stroke-linecap:round;stroke-linejoin:round;stroke:rgb(0%,0%,0%);stroke-opacity:1;stroke-miterlimit:10;" d="M 21344.010417 22240.104167 L 34784.114583 22240.104167 " transform="matrix(0.015,0,0,0.015,0,0)"/>
<path style="fill:none;stroke-width:28;stroke-linecap:round;stroke-linejoin:round;stroke:rgb(0%,0%,0%);stroke-opacity:1;stroke-miterlimit:10;" d="M 25423.958333 20320.052083 L 25423.958333 21400 " transform="matrix(0.015,0,0,0.015,0,0)"/>
<path style="fill:none;stroke-width:28;stroke-linecap:round;stroke-linejoin:round;stroke:rgb(0%,0%,0%);stroke-opacity:1;stroke-miterlimit:10;" d="M 30703.90625 20320.052083 L 30703.90625 21400 " transform="matrix(0.015,0,0,0.015,0,0)"/>
<path style="fill:none;stroke-width:28;stroke-linecap:round;stroke-linejoin:round;stroke:rgb(0%,0%,0%);stroke-opacity:1;stroke-miterlimit:10;" d="M 34903.90625 20320.052083 L 32744.010417 20320.052083 " transform="matrix(0.015,0,0,0.015,0,0)"/>
<path style="fill:none;stroke-width:28;stroke-linecap:round;stroke-linejoin:round;stroke:rgb(0%,0%,0%);stroke-opacity:1;stroke-miterlimit:10;" d="M 33823.958333 20320.052083 L 33823.958333 21400 " transform="matrix(0.015,0,0,0.015,0,0)"/>
<path style="fill:none;stroke-width:28;stroke-linecap:round;stroke-linejoin:round;stroke:rgb(0%,0%,0%);stroke-opacity:1;stroke-miterlimit:10;" d="M 34784.114583 17440.104167 L 21344.010417 17440.104167 " transform="matrix(0.015,0,0,0.015,0,0)"/>
<path style="fill:none;stroke-width:28;stroke-linecap:round;stroke-linejoin:round;stroke:rgb(0%,0%,0%);stroke-opacity:1;stroke-miterlimit:10;" d="M 34731.510417 20320.052083 C 34731.510417 20644.270833 34558.59375 20943.75 34277.864583 21105.989583 C 33996.875 21267.96875 33651.041667 21267.96875 33370.3125 21105.989583 C 33089.583333 20943.75 32916.40625 20644.270833 32916.40625 20320.052083 C 32916.40625 19995.833333 33089.583333 19696.09375 33370.3125 19534.114583 C 33651.041667 19371.875 33996.875 19371.875 34277.864583 19534.114583 C 34558.59375 19696.09375 34731.510417 19995.833333 34731.510417 20320.052083 Z M 34731.510417 20320.052083 " transform="matrix(0.015,0,0,0.015,0,0)"/>
<path style="fill:none;stroke-width:28;stroke-linecap:round;stroke-linejoin:round;stroke:rgb(0%,0%,0%);stroke-opacity:1;stroke-miterlimit:10;" d="M 31611.458333 20320.052083 C 31611.458333 20644.270833 31438.541667 20943.75 31157.8125 21105.989583 C 30877.083333 21267.96875 30530.989583 21267.96875 30250.260417 21105.989583 C 29969.53125 20943.75 29796.614583 20644.270833 29796.614583 20320.052083 C 29796.614583 19995.833333 29969.53125 19696.09375 30250.260417 19534.114583 C 30530.989583 19371.875 30877.083333 19371.875 31157.8125 19534.114583 C 31438.541667 19696.09375 31611.458333 19995.833333 31611.458333 20320.052083 Z M 31611.458333 20320.052083 " transform="matrix(0.015,0,0,0.015,0,0)"/>
<path style="fill:none;stroke-width:28;stroke-linecap:round;stroke-linejoin:round;stroke:rgb(0%,0%,0%);stroke-opacity:1;stroke-miterlimit:10;" d="M 28064.0625 18879.947917 L 28064.0625 20079.947917 " transform="matrix(0.015,0,0,0.015,0,0)"/>
<path style="fill:none;stroke-width:28;stroke-linecap:round;stroke-linejoin:round;stroke:rgb(0%,0%,0%);stroke-opacity:1;stroke-miterlimit:10;" d="M 26503.90625 20320.052083 L 24344.010417 20320.052083 " transform="matrix(0.015,0,0,0.015,0,0)"/>
<path style="fill:none;stroke-width:28;stroke-linecap:round;stroke-linejoin:round;stroke:rgb(0%,0%,0%);stroke-opacity:1;stroke-miterlimit:10;" d="M 30703.90625 20320.052083 L 30703.90625 19240.104167 " transform="matrix(0.015,0,0,0.015,0,0)"/>
<path style="fill:none;stroke-width:28;stroke-linecap:round;stroke-linejoin:round;stroke:rgb(0%,0%,0%);stroke-opacity:1;stroke-miterlimit:10;" d="M 31784.114583 20320.052083 L 29623.958333 20320.052083 " transform="matrix(0.015,0,0,0.015,0,0)"/>
<path style="fill:none;stroke-width:28;stroke-linecap:round;stroke-linejoin:round;stroke:rgb(0%,0%,0%);stroke-opacity:1;stroke-miterlimit:10;" d="M 33823.958333 20320.052083 L 33823.958333 19240.104167 " transform="matrix(0.015,0,0,0.015,0,0)"/>
<path style="fill:none;stroke-width:28;stroke-linecap:round;stroke-linejoin:round;stroke:rgb(0%,0%,0%);stroke-opacity:1;stroke-miterlimit:10;" d="M 27464.0625 19720.052083 L 28664.0625 19720.052083 " transform="matrix(0.015,0,0,0.015,0,0)"/>
<path style="fill:none;stroke-width:28;stroke-linecap:round;stroke-linejoin:round;stroke:rgb(0%,0%,0%);stroke-opacity:1;stroke-miterlimit:10;" d="M 27464.583333 19720.572917 C 27225.520833 19550 27070.833333 19285.677083 27038.541667 18994.010417 C 27006.25 18702.083333 27099.739583 18410.416667 27295.572917 18191.927083 C 27491.40625 17973.177083 27771.09375 17848.177083 28064.583333 17848.177083 C 28358.072917 17848.177083 28637.760417 17973.177083 28833.59375 18191.927083 C 29029.427083 18410.416667 29122.65625 18702.083333 29090.625 18994.010417 C 29058.333333 19285.677083 28903.385417 19550 28664.583333 19720.572917 " transform="matrix(0.015,0,0,0.015,0,0)"/>
<path style="fill:none;stroke-width:28;stroke-linecap:round;stroke-linejoin:round;stroke:rgb(0%,0%,0%);stroke-opacity:1;stroke-miterlimit:10;" d="M 26331.510417 20320.052083 C 26331.510417 20644.270833 26158.59375 20943.75 25877.864583 21105.989583 C 25596.875 21267.96875 25251.041667 21267.96875 24970.3125 21105.989583 C 24689.583333 20943.75 24516.40625 20644.270833 24516.40625 20320.052083 C 24516.40625 19995.833333 24689.583333 19696.09375 24970.3125 19534.114583 C 25251.041667 19371.875 25596.875 19371.875 25877.864583 19534.114583 C 26158.59375 19696.09375 26331.510417 19995.833333 26331.510417 20320.052083 Z M 26331.510417 20320.052083 " transform="matrix(0.015,0,0,0.015,0,0)"/>
<path style="fill:none;stroke-width:28;stroke-linecap:round;stroke-linejoin:round;stroke:rgb(0%,0%,0%);stroke-opacity:1;stroke-miterlimit:10;" d="M 28064.0625 18879.947917 L 28064.0625 17679.947917 " transform="matrix(0.015,0,0,0.015,0,0)"/>
<path style="fill:none;stroke-width:28;stroke-linecap:round;stroke-linejoin:round;stroke:rgb(0%,0%,0%);stroke-opacity:1;stroke-miterlimit:10;" d="M 29264.0625 18879.947917 L 26864.0625 18879.947917 " transform="matrix(0.015,0,0,0.015,0,0)"/>
<path style="fill:none;stroke-width:28;stroke-linecap:round;stroke-linejoin:round;stroke:rgb(0%,0%,0%);stroke-opacity:1;stroke-miterlimit:10;" d="M 25423.958333 20320.052083 L 25423.958333 19240.104167 " transform="matrix(0.015,0,0,0.015,0,0)"/>
</g>
</svg>
