%TF.GenerationSoftware,KiCad,Pcbnew,5.1.6-c6e7f7d~87~ubuntu18.04.1*%
%TF.CreationDate,2020-07-29T17:48:24-04:00*%
%TF.ProjectId,bit_crusher_jack_panel,6269745f-6372-4757-9368-65725f6a6163,rev?*%
%TF.SameCoordinates,Original*%
%TF.FileFunction,Copper,L1,Top*%
%TF.FilePolarity,Positive*%
%FSLAX46Y46*%
G04 Gerber Fmt 4.6, Leading zero omitted, Abs format (unit mm)*
G04 Created by KiCad (PCBNEW 5.1.6-c6e7f7d~87~ubuntu18.04.1) date 2020-07-29 17:48:24*
%MOMM*%
%LPD*%
G01*
G04 APERTURE LIST*
%TA.AperFunction,NonConductor*%
%ADD10C,0.254000*%
%TD*%
G04 APERTURE END LIST*
D10*
G36*
X153182249Y-36292437D02*
G01*
X153939774Y-36499672D01*
X154648625Y-36837777D01*
X155286404Y-37296067D01*
X155832946Y-37860055D01*
X156270977Y-38511913D01*
X156586651Y-39231038D01*
X156771206Y-39999768D01*
X156820001Y-40664221D01*
X156820000Y-55850608D01*
X156747563Y-56662249D01*
X156540328Y-57419774D01*
X156202221Y-58128627D01*
X155743928Y-58766410D01*
X155179945Y-59312946D01*
X154528085Y-59750978D01*
X153808963Y-60066651D01*
X153040232Y-60251206D01*
X152375792Y-60300000D01*
X81309392Y-60300000D01*
X80497751Y-60227563D01*
X79740226Y-60020328D01*
X79031373Y-59682221D01*
X78393590Y-59223928D01*
X77847054Y-58659945D01*
X77409022Y-58008085D01*
X77093349Y-57288963D01*
X76908794Y-56520232D01*
X76860000Y-55855792D01*
X76860000Y-50294369D01*
X80903377Y-50294369D01*
X80903377Y-51305631D01*
X81089195Y-52299673D01*
X81454505Y-53242646D01*
X81986866Y-54102438D01*
X82668148Y-54849769D01*
X83475152Y-55459190D01*
X84380396Y-55909948D01*
X85353053Y-56186693D01*
X86360000Y-56280000D01*
X87366947Y-56186693D01*
X88339604Y-55909948D01*
X89244848Y-55459190D01*
X90051852Y-54849769D01*
X90733134Y-54102438D01*
X91265495Y-53242646D01*
X91630805Y-52299673D01*
X91816623Y-51305631D01*
X91816623Y-50294369D01*
X97413377Y-50294369D01*
X97413377Y-51305631D01*
X97599195Y-52299673D01*
X97964505Y-53242646D01*
X98496866Y-54102438D01*
X99178148Y-54849769D01*
X99985152Y-55459190D01*
X100890396Y-55909948D01*
X101863053Y-56186693D01*
X102870000Y-56280000D01*
X103876947Y-56186693D01*
X104849604Y-55909948D01*
X105754848Y-55459190D01*
X106561852Y-54849769D01*
X107243134Y-54102438D01*
X107775495Y-53242646D01*
X108140805Y-52299673D01*
X108326623Y-51305631D01*
X108326623Y-50294369D01*
X125353377Y-50294369D01*
X125353377Y-51305631D01*
X125539195Y-52299673D01*
X125904505Y-53242646D01*
X126436866Y-54102438D01*
X127118148Y-54849769D01*
X127925152Y-55459190D01*
X128830396Y-55909948D01*
X129803053Y-56186693D01*
X130810000Y-56280000D01*
X131816947Y-56186693D01*
X132789604Y-55909948D01*
X133694848Y-55459190D01*
X134501852Y-54849769D01*
X135183134Y-54102438D01*
X135715495Y-53242646D01*
X136080805Y-52299673D01*
X136266623Y-51305631D01*
X136266623Y-50294369D01*
X141863377Y-50294369D01*
X141863377Y-51305631D01*
X142049195Y-52299673D01*
X142414505Y-53242646D01*
X142946866Y-54102438D01*
X143628148Y-54849769D01*
X144435152Y-55459190D01*
X145340396Y-55909948D01*
X146313053Y-56186693D01*
X147320000Y-56280000D01*
X148326947Y-56186693D01*
X149299604Y-55909948D01*
X150204848Y-55459190D01*
X151011852Y-54849769D01*
X151693134Y-54102438D01*
X152225495Y-53242646D01*
X152590805Y-52299673D01*
X152776623Y-51305631D01*
X152776623Y-50294369D01*
X152590805Y-49300327D01*
X152225495Y-48357354D01*
X151693134Y-47497562D01*
X151011852Y-46750231D01*
X150204848Y-46140810D01*
X149299604Y-45690052D01*
X148326947Y-45413307D01*
X147320000Y-45320000D01*
X146313053Y-45413307D01*
X145340396Y-45690052D01*
X144435152Y-46140810D01*
X143628148Y-46750231D01*
X142946866Y-47497562D01*
X142414505Y-48357354D01*
X142049195Y-49300327D01*
X141863377Y-50294369D01*
X136266623Y-50294369D01*
X136080805Y-49300327D01*
X135715495Y-48357354D01*
X135183134Y-47497562D01*
X134501852Y-46750231D01*
X133694848Y-46140810D01*
X132789604Y-45690052D01*
X131816947Y-45413307D01*
X130810000Y-45320000D01*
X129803053Y-45413307D01*
X128830396Y-45690052D01*
X127925152Y-46140810D01*
X127118148Y-46750231D01*
X126436866Y-47497562D01*
X125904505Y-48357354D01*
X125539195Y-49300327D01*
X125353377Y-50294369D01*
X108326623Y-50294369D01*
X108140805Y-49300327D01*
X107775495Y-48357354D01*
X107243134Y-47497562D01*
X106561852Y-46750231D01*
X105754848Y-46140810D01*
X104849604Y-45690052D01*
X103876947Y-45413307D01*
X102870000Y-45320000D01*
X101863053Y-45413307D01*
X100890396Y-45690052D01*
X99985152Y-46140810D01*
X99178148Y-46750231D01*
X98496866Y-47497562D01*
X97964505Y-48357354D01*
X97599195Y-49300327D01*
X97413377Y-50294369D01*
X91816623Y-50294369D01*
X91630805Y-49300327D01*
X91265495Y-48357354D01*
X90733134Y-47497562D01*
X90051852Y-46750231D01*
X89244848Y-46140810D01*
X88339604Y-45690052D01*
X87366947Y-45413307D01*
X86360000Y-45320000D01*
X85353053Y-45413307D01*
X84380396Y-45690052D01*
X83475152Y-46140810D01*
X82668148Y-46750231D01*
X81986866Y-47497562D01*
X81454505Y-48357354D01*
X81089195Y-49300327D01*
X80903377Y-50294369D01*
X76860000Y-50294369D01*
X76860000Y-42769317D01*
X110806550Y-42769317D01*
X110815749Y-43708750D01*
X110826897Y-43823255D01*
X110999087Y-44746818D01*
X111029950Y-44857646D01*
X111359899Y-45737278D01*
X111409538Y-45841064D01*
X111887221Y-46650037D01*
X111938499Y-46721764D01*
X111954128Y-46743626D01*
X112565030Y-47457360D01*
X112647172Y-47537909D01*
X113322814Y-48093658D01*
X113323052Y-48093948D01*
X113423550Y-48176425D01*
X113538207Y-48237710D01*
X113662617Y-48275450D01*
X113759581Y-48285000D01*
X119920419Y-48285000D01*
X120017383Y-48275450D01*
X120141793Y-48237710D01*
X120256450Y-48176425D01*
X120287219Y-48151173D01*
X120353017Y-48105101D01*
X120377562Y-48084505D01*
X120403626Y-48065872D01*
X121117360Y-47454970D01*
X121197909Y-47372828D01*
X121794718Y-46647268D01*
X121859780Y-46552387D01*
X122321530Y-45734214D01*
X122347497Y-45677074D01*
X122369127Y-45629477D01*
X122681788Y-44743553D01*
X122710474Y-44632141D01*
X122864546Y-43705383D01*
X122873450Y-43590682D01*
X122864251Y-42651250D01*
X122853103Y-42536745D01*
X122853102Y-42536743D01*
X122680913Y-41613182D01*
X122650050Y-41502354D01*
X122320101Y-40622722D01*
X122270462Y-40518936D01*
X121792779Y-39709963D01*
X121725872Y-39616374D01*
X121114970Y-38902640D01*
X121032828Y-38822091D01*
X120307268Y-38225282D01*
X120212386Y-38160220D01*
X120212382Y-38160218D01*
X119394215Y-37698470D01*
X119289477Y-37650873D01*
X119289467Y-37650870D01*
X118403553Y-37338212D01*
X118310706Y-37314306D01*
X118292142Y-37309526D01*
X117365383Y-37155454D01*
X117250683Y-37146550D01*
X116311250Y-37155749D01*
X116196745Y-37166897D01*
X116196743Y-37166898D01*
X115273182Y-37339087D01*
X115178226Y-37365530D01*
X115162354Y-37369950D01*
X114282722Y-37699899D01*
X114178936Y-37749538D01*
X113369963Y-38227221D01*
X113276374Y-38294128D01*
X112562642Y-38905028D01*
X112562641Y-38905029D01*
X112482091Y-38987172D01*
X111885282Y-39712732D01*
X111820221Y-39807613D01*
X111358470Y-40625785D01*
X111310873Y-40730523D01*
X111310870Y-40730533D01*
X110998212Y-41616447D01*
X110975400Y-41705046D01*
X110969526Y-41727858D01*
X110815454Y-42654617D01*
X110806550Y-42769317D01*
X76860000Y-42769317D01*
X76860000Y-40669392D01*
X76932437Y-39857751D01*
X77139672Y-39100226D01*
X77477777Y-38391375D01*
X77936067Y-37753596D01*
X78500055Y-37207054D01*
X79151913Y-36769023D01*
X79871038Y-36453349D01*
X80639768Y-36268794D01*
X81304207Y-36220000D01*
X152370608Y-36220000D01*
X153182249Y-36292437D01*
G37*
X153182249Y-36292437D02*
X153939774Y-36499672D01*
X154648625Y-36837777D01*
X155286404Y-37296067D01*
X155832946Y-37860055D01*
X156270977Y-38511913D01*
X156586651Y-39231038D01*
X156771206Y-39999768D01*
X156820001Y-40664221D01*
X156820000Y-55850608D01*
X156747563Y-56662249D01*
X156540328Y-57419774D01*
X156202221Y-58128627D01*
X155743928Y-58766410D01*
X155179945Y-59312946D01*
X154528085Y-59750978D01*
X153808963Y-60066651D01*
X153040232Y-60251206D01*
X152375792Y-60300000D01*
X81309392Y-60300000D01*
X80497751Y-60227563D01*
X79740226Y-60020328D01*
X79031373Y-59682221D01*
X78393590Y-59223928D01*
X77847054Y-58659945D01*
X77409022Y-58008085D01*
X77093349Y-57288963D01*
X76908794Y-56520232D01*
X76860000Y-55855792D01*
X76860000Y-50294369D01*
X80903377Y-50294369D01*
X80903377Y-51305631D01*
X81089195Y-52299673D01*
X81454505Y-53242646D01*
X81986866Y-54102438D01*
X82668148Y-54849769D01*
X83475152Y-55459190D01*
X84380396Y-55909948D01*
X85353053Y-56186693D01*
X86360000Y-56280000D01*
X87366947Y-56186693D01*
X88339604Y-55909948D01*
X89244848Y-55459190D01*
X90051852Y-54849769D01*
X90733134Y-54102438D01*
X91265495Y-53242646D01*
X91630805Y-52299673D01*
X91816623Y-51305631D01*
X91816623Y-50294369D01*
X97413377Y-50294369D01*
X97413377Y-51305631D01*
X97599195Y-52299673D01*
X97964505Y-53242646D01*
X98496866Y-54102438D01*
X99178148Y-54849769D01*
X99985152Y-55459190D01*
X100890396Y-55909948D01*
X101863053Y-56186693D01*
X102870000Y-56280000D01*
X103876947Y-56186693D01*
X104849604Y-55909948D01*
X105754848Y-55459190D01*
X106561852Y-54849769D01*
X107243134Y-54102438D01*
X107775495Y-53242646D01*
X108140805Y-52299673D01*
X108326623Y-51305631D01*
X108326623Y-50294369D01*
X125353377Y-50294369D01*
X125353377Y-51305631D01*
X125539195Y-52299673D01*
X125904505Y-53242646D01*
X126436866Y-54102438D01*
X127118148Y-54849769D01*
X127925152Y-55459190D01*
X128830396Y-55909948D01*
X129803053Y-56186693D01*
X130810000Y-56280000D01*
X131816947Y-56186693D01*
X132789604Y-55909948D01*
X133694848Y-55459190D01*
X134501852Y-54849769D01*
X135183134Y-54102438D01*
X135715495Y-53242646D01*
X136080805Y-52299673D01*
X136266623Y-51305631D01*
X136266623Y-50294369D01*
X141863377Y-50294369D01*
X141863377Y-51305631D01*
X142049195Y-52299673D01*
X142414505Y-53242646D01*
X142946866Y-54102438D01*
X143628148Y-54849769D01*
X144435152Y-55459190D01*
X145340396Y-55909948D01*
X146313053Y-56186693D01*
X147320000Y-56280000D01*
X148326947Y-56186693D01*
X149299604Y-55909948D01*
X150204848Y-55459190D01*
X151011852Y-54849769D01*
X151693134Y-54102438D01*
X152225495Y-53242646D01*
X152590805Y-52299673D01*
X152776623Y-51305631D01*
X152776623Y-50294369D01*
X152590805Y-49300327D01*
X152225495Y-48357354D01*
X151693134Y-47497562D01*
X151011852Y-46750231D01*
X150204848Y-46140810D01*
X149299604Y-45690052D01*
X148326947Y-45413307D01*
X147320000Y-45320000D01*
X146313053Y-45413307D01*
X145340396Y-45690052D01*
X144435152Y-46140810D01*
X143628148Y-46750231D01*
X142946866Y-47497562D01*
X142414505Y-48357354D01*
X142049195Y-49300327D01*
X141863377Y-50294369D01*
X136266623Y-50294369D01*
X136080805Y-49300327D01*
X135715495Y-48357354D01*
X135183134Y-47497562D01*
X134501852Y-46750231D01*
X133694848Y-46140810D01*
X132789604Y-45690052D01*
X131816947Y-45413307D01*
X130810000Y-45320000D01*
X129803053Y-45413307D01*
X128830396Y-45690052D01*
X127925152Y-46140810D01*
X127118148Y-46750231D01*
X126436866Y-47497562D01*
X125904505Y-48357354D01*
X125539195Y-49300327D01*
X125353377Y-50294369D01*
X108326623Y-50294369D01*
X108140805Y-49300327D01*
X107775495Y-48357354D01*
X107243134Y-47497562D01*
X106561852Y-46750231D01*
X105754848Y-46140810D01*
X104849604Y-45690052D01*
X103876947Y-45413307D01*
X102870000Y-45320000D01*
X101863053Y-45413307D01*
X100890396Y-45690052D01*
X99985152Y-46140810D01*
X99178148Y-46750231D01*
X98496866Y-47497562D01*
X97964505Y-48357354D01*
X97599195Y-49300327D01*
X97413377Y-50294369D01*
X91816623Y-50294369D01*
X91630805Y-49300327D01*
X91265495Y-48357354D01*
X90733134Y-47497562D01*
X90051852Y-46750231D01*
X89244848Y-46140810D01*
X88339604Y-45690052D01*
X87366947Y-45413307D01*
X86360000Y-45320000D01*
X85353053Y-45413307D01*
X84380396Y-45690052D01*
X83475152Y-46140810D01*
X82668148Y-46750231D01*
X81986866Y-47497562D01*
X81454505Y-48357354D01*
X81089195Y-49300327D01*
X80903377Y-50294369D01*
X76860000Y-50294369D01*
X76860000Y-42769317D01*
X110806550Y-42769317D01*
X110815749Y-43708750D01*
X110826897Y-43823255D01*
X110999087Y-44746818D01*
X111029950Y-44857646D01*
X111359899Y-45737278D01*
X111409538Y-45841064D01*
X111887221Y-46650037D01*
X111938499Y-46721764D01*
X111954128Y-46743626D01*
X112565030Y-47457360D01*
X112647172Y-47537909D01*
X113322814Y-48093658D01*
X113323052Y-48093948D01*
X113423550Y-48176425D01*
X113538207Y-48237710D01*
X113662617Y-48275450D01*
X113759581Y-48285000D01*
X119920419Y-48285000D01*
X120017383Y-48275450D01*
X120141793Y-48237710D01*
X120256450Y-48176425D01*
X120287219Y-48151173D01*
X120353017Y-48105101D01*
X120377562Y-48084505D01*
X120403626Y-48065872D01*
X121117360Y-47454970D01*
X121197909Y-47372828D01*
X121794718Y-46647268D01*
X121859780Y-46552387D01*
X122321530Y-45734214D01*
X122347497Y-45677074D01*
X122369127Y-45629477D01*
X122681788Y-44743553D01*
X122710474Y-44632141D01*
X122864546Y-43705383D01*
X122873450Y-43590682D01*
X122864251Y-42651250D01*
X122853103Y-42536745D01*
X122853102Y-42536743D01*
X122680913Y-41613182D01*
X122650050Y-41502354D01*
X122320101Y-40622722D01*
X122270462Y-40518936D01*
X121792779Y-39709963D01*
X121725872Y-39616374D01*
X121114970Y-38902640D01*
X121032828Y-38822091D01*
X120307268Y-38225282D01*
X120212386Y-38160220D01*
X120212382Y-38160218D01*
X119394215Y-37698470D01*
X119289477Y-37650873D01*
X119289467Y-37650870D01*
X118403553Y-37338212D01*
X118310706Y-37314306D01*
X118292142Y-37309526D01*
X117365383Y-37155454D01*
X117250683Y-37146550D01*
X116311250Y-37155749D01*
X116196745Y-37166897D01*
X116196743Y-37166898D01*
X115273182Y-37339087D01*
X115178226Y-37365530D01*
X115162354Y-37369950D01*
X114282722Y-37699899D01*
X114178936Y-37749538D01*
X113369963Y-38227221D01*
X113276374Y-38294128D01*
X112562642Y-38905028D01*
X112562641Y-38905029D01*
X112482091Y-38987172D01*
X111885282Y-39712732D01*
X111820221Y-39807613D01*
X111358470Y-40625785D01*
X111310873Y-40730523D01*
X111310870Y-40730533D01*
X110998212Y-41616447D01*
X110975400Y-41705046D01*
X110969526Y-41727858D01*
X110815454Y-42654617D01*
X110806550Y-42769317D01*
X76860000Y-42769317D01*
X76860000Y-40669392D01*
X76932437Y-39857751D01*
X77139672Y-39100226D01*
X77477777Y-38391375D01*
X77936067Y-37753596D01*
X78500055Y-37207054D01*
X79151913Y-36769023D01*
X79871038Y-36453349D01*
X80639768Y-36268794D01*
X81304207Y-36220000D01*
X152370608Y-36220000D01*
X153182249Y-36292437D01*
M02*
