G04 #@! TF.GenerationSoftware,KiCad,Pcbnew,5.1.6-c6e7f7d~87~ubuntu18.04.1*
G04 #@! TF.CreationDate,2020-07-30T09:46:51-04:00*
G04 #@! TF.ProjectId,bit_crusher_jack_panel,6269745f-6372-4757-9368-65725f6a6163,rev?*
G04 #@! TF.SameCoordinates,Original*
G04 #@! TF.FileFunction,Legend,Top*
G04 #@! TF.FilePolarity,Positive*
%FSLAX46Y46*%
G04 Gerber Fmt 4.6, Leading zero omitted, Abs format (unit mm)*
G04 Created by KiCad (PCBNEW 5.1.6-c6e7f7d~87~ubuntu18.04.1) date 2020-07-30 09:46:51*
%MOMM*%
%LPD*%
G01*
G04 APERTURE LIST*
%ADD10C,0.300000*%
%ADD11C,0.120000*%
G04 APERTURE END LIST*
D10*
X112395000Y-56515000D02*
X113030000Y-56515000D01*
X112395000Y-57150000D02*
X112395000Y-56515000D01*
X112395000Y-55880000D02*
X112395000Y-56515000D01*
X111760000Y-56515000D02*
X112395000Y-56515000D01*
X114300000Y-56515000D02*
X115400000Y-56515000D01*
X120650000Y-56515000D02*
X121920000Y-56515000D01*
X116840000Y-56515000D02*
X119380000Y-56515000D01*
D11*
X117363634Y-56515000D02*
G75*
G03*
X117363634Y-56515000I-523634J0D01*
G01*
X117289013Y-56515000D02*
G75*
G03*
X117289013Y-56515000I-449013J0D01*
G01*
X117226255Y-56515000D02*
G75*
G03*
X117226255Y-56515000I-386255J0D01*
G01*
X117163788Y-56515000D02*
G75*
G03*
X117163788Y-56515000I-323788J0D01*
G01*
X117094000Y-56515000D02*
G75*
G03*
X117094000Y-56515000I-254000J0D01*
G01*
X117030500Y-56515000D02*
G75*
G03*
X117030500Y-56515000I-190500J0D01*
G01*
X116967000Y-56515000D02*
G75*
G03*
X116967000Y-56515000I-127000J0D01*
G01*
X116903500Y-56515000D02*
G75*
G03*
X116903500Y-56515000I-63500J0D01*
G01*
D10*
X118110332Y-57149333D02*
G75*
G02*
X118109999Y-55880001I-1270332J634333D01*
G01*
D11*
X117475000Y-56515000D02*
G75*
G03*
X117475000Y-56515000I-635000J0D01*
G01*
D10*
X112482857Y-53427142D02*
X113054285Y-53427142D01*
X113340000Y-53284285D01*
X113482857Y-53141428D01*
X113768571Y-52712857D01*
X113911428Y-52141428D01*
X113911428Y-50998571D01*
X113768571Y-50712857D01*
X113625714Y-50570000D01*
X113340000Y-50427142D01*
X112768571Y-50427142D01*
X112482857Y-50570000D01*
X112340000Y-50712857D01*
X112197142Y-50998571D01*
X112197142Y-51712857D01*
X112340000Y-51998571D01*
X112482857Y-52141428D01*
X112768571Y-52284285D01*
X113340000Y-52284285D01*
X113625714Y-52141428D01*
X113768571Y-51998571D01*
X113911428Y-51712857D01*
X114911428Y-51427142D02*
X115625714Y-53427142D01*
X116340000Y-51427142D01*
X118768571Y-53427142D02*
X118768571Y-50427142D01*
X118768571Y-53284285D02*
X118482857Y-53427142D01*
X117911428Y-53427142D01*
X117625714Y-53284285D01*
X117482857Y-53141428D01*
X117340000Y-52855714D01*
X117340000Y-51998571D01*
X117482857Y-51712857D01*
X117625714Y-51570000D01*
X117911428Y-51427142D01*
X118482857Y-51427142D01*
X118768571Y-51570000D01*
X121482857Y-53284285D02*
X121197142Y-53427142D01*
X120625714Y-53427142D01*
X120340000Y-53284285D01*
X120197142Y-53141428D01*
X120054285Y-52855714D01*
X120054285Y-51998571D01*
X120197142Y-51712857D01*
X120340000Y-51570000D01*
X120625714Y-51427142D01*
X121197142Y-51427142D01*
X121482857Y-51570000D01*
X141462857Y-41854285D02*
X141748571Y-41997142D01*
X142320000Y-41997142D01*
X142605714Y-41854285D01*
X142748571Y-41568571D01*
X142748571Y-41425714D01*
X142605714Y-41140000D01*
X142320000Y-40997142D01*
X141891428Y-40997142D01*
X141605714Y-40854285D01*
X141462857Y-40568571D01*
X141462857Y-40425714D01*
X141605714Y-40140000D01*
X141891428Y-39997142D01*
X142320000Y-39997142D01*
X142605714Y-40140000D01*
X144034285Y-41997142D02*
X144034285Y-39997142D01*
X144034285Y-40568571D02*
X144177142Y-40282857D01*
X144320000Y-40140000D01*
X144605714Y-39997142D01*
X144891428Y-39997142D01*
X145891428Y-40854285D02*
X148177142Y-40854285D01*
X150891428Y-41854285D02*
X150605714Y-41997142D01*
X150034285Y-41997142D01*
X149748571Y-41854285D01*
X149605714Y-41711428D01*
X149462857Y-41425714D01*
X149462857Y-40568571D01*
X149605714Y-40282857D01*
X149748571Y-40140000D01*
X150034285Y-39997142D01*
X150605714Y-39997142D01*
X150891428Y-40140000D01*
X151891428Y-39997142D02*
X152605714Y-41997142D01*
X153320000Y-39997142D01*
X124310000Y-41997142D02*
X124310000Y-38997142D01*
X124310000Y-40140000D02*
X124595714Y-39997142D01*
X125167142Y-39997142D01*
X125452857Y-40140000D01*
X125595714Y-40282857D01*
X125738571Y-40568571D01*
X125738571Y-41425714D01*
X125595714Y-41711428D01*
X125452857Y-41854285D01*
X125167142Y-41997142D01*
X124595714Y-41997142D01*
X124310000Y-41854285D01*
X127024285Y-41997142D02*
X127024285Y-39997142D01*
X127024285Y-38997142D02*
X126881428Y-39140000D01*
X127024285Y-39282857D01*
X127167142Y-39140000D01*
X127024285Y-38997142D01*
X127024285Y-39282857D01*
X128024285Y-39997142D02*
X129167142Y-39997142D01*
X128452857Y-38997142D02*
X128452857Y-41568571D01*
X128595714Y-41854285D01*
X128881428Y-41997142D01*
X129167142Y-41997142D01*
X130167142Y-40854285D02*
X132452857Y-40854285D01*
X135167142Y-41854285D02*
X134881428Y-41997142D01*
X134310000Y-41997142D01*
X134024285Y-41854285D01*
X133881428Y-41711428D01*
X133738571Y-41425714D01*
X133738571Y-40568571D01*
X133881428Y-40282857D01*
X134024285Y-40140000D01*
X134310000Y-39997142D01*
X134881428Y-39997142D01*
X135167142Y-40140000D01*
X136167142Y-39997142D02*
X136881428Y-41997142D01*
X137595714Y-39997142D01*
X100441428Y-41997142D02*
X100155714Y-41854285D01*
X100012857Y-41711428D01*
X99870000Y-41425714D01*
X99870000Y-40568571D01*
X100012857Y-40282857D01*
X100155714Y-40140000D01*
X100441428Y-39997142D01*
X100870000Y-39997142D01*
X101155714Y-40140000D01*
X101298571Y-40282857D01*
X101441428Y-40568571D01*
X101441428Y-41425714D01*
X101298571Y-41711428D01*
X101155714Y-41854285D01*
X100870000Y-41997142D01*
X100441428Y-41997142D01*
X104012857Y-39997142D02*
X104012857Y-41997142D01*
X102727142Y-39997142D02*
X102727142Y-41568571D01*
X102870000Y-41854285D01*
X103155714Y-41997142D01*
X103584285Y-41997142D01*
X103870000Y-41854285D01*
X104012857Y-41711428D01*
X105012857Y-39997142D02*
X106155714Y-39997142D01*
X105441428Y-38997142D02*
X105441428Y-41568571D01*
X105584285Y-41854285D01*
X105870000Y-41997142D01*
X106155714Y-41997142D01*
X85002857Y-41997142D02*
X85002857Y-39997142D01*
X85002857Y-38997142D02*
X84860000Y-39140000D01*
X85002857Y-39282857D01*
X85145714Y-39140000D01*
X85002857Y-38997142D01*
X85002857Y-39282857D01*
X86431428Y-39997142D02*
X86431428Y-41997142D01*
X86431428Y-40282857D02*
X86574285Y-40140000D01*
X86860000Y-39997142D01*
X87288571Y-39997142D01*
X87574285Y-40140000D01*
X87717142Y-40425714D01*
X87717142Y-41997142D01*
D11*
X117540000Y-56515000D02*
G75*
G03*
X117540000Y-56515000I-700000J0D01*
G01*
M02*
