M48
; DRILL file {KiCad 5.1.6-c6e7f7d~87~ubuntu18.04.1} date Sun Nov  8 17:16:22 2020
; FORMAT={-:-/ absolute / inch / decimal}
; #@! TF.CreationDate,2020-11-08T17:16:22-05:00
; #@! TF.GenerationSoftware,Kicad,Pcbnew,5.1.6-c6e7f7d~87~ubuntu18.04.1
; #@! TF.FileFunction,Plated,1,2,PTH
FMAT,2
INCH
T1C0.0157
T2C0.0197
T3C0.0315
T4C0.0354
T5C0.0394
T6C0.0433
T7C0.1260
%
G90
G05
T1
X3.09Y-3.965
X3.3Y-4.04
X3.4117Y-4.0383
X3.43Y-3.54
X3.48Y-3.63
X3.53Y-4.01
X3.58Y-3.63
X3.6086Y-3.0756
X3.643Y-3.7674
X3.696Y-3.71
X3.705Y-2.925
X3.7461Y-2.8789
X3.8Y-3.56
X3.936Y-3.706
X3.998Y-3.908
X4.025Y-3.225
X4.032Y-3.626
X4.106Y-3.764
X4.112Y-3.642
X4.12Y-3.908
X4.185Y-3.2375
X4.238Y-3.91
X4.31Y-3.64
X4.36Y-3.124
X4.36Y-3.91
X4.37Y-4.16
X4.406Y-3.438
X4.41Y-3.64
X4.46Y-3.84
X4.482Y-3.94
X4.49Y-2.79
X4.494Y-3.488
X4.5Y-3.07
X4.5Y-3.2025
X4.5211Y-2.6849
X4.57Y-4.16
X4.594Y-4.078
X4.598Y-3.57
X4.618Y-3.488
X4.62Y-3.2025
X4.62Y-3.63
X4.672Y-3.764
X4.6975Y-3.095
X4.702Y-3.0345
X4.73Y-4.074
X4.738Y-3.168
X4.738Y-3.728
X4.76Y-4.02
X4.76Y-4.16
X4.7925Y-3.6225
X4.8197Y-2.7123
X4.825Y-2.775
X4.83Y-2.6725
X4.84Y-3.85
X4.85Y-2.925
X4.8945Y-3.3115
X4.9Y-3.438
X4.902Y-2.954
X4.96Y-3.61
X4.968Y-3.436
X5.0Y-2.988
X5.1Y-3.25
X5.1Y-3.975
X5.1Y-4.16
X5.125Y-2.775
X5.125Y-2.925
X5.125Y-3.7
X5.125Y-3.825
X5.158Y-3.436
X5.162Y-3.15
X5.2Y-2.548
X5.2375Y-4.11
X5.2463Y-4.0716
X5.25Y-3.25
X5.25Y-3.45
X5.2575Y-2.95
X5.2875Y-3.7225
X5.2875Y-3.835
X5.3Y-2.725
X5.346Y-3.604
X5.392Y-2.55
X5.4525Y-3.82
X5.455Y-3.7025
X5.474Y-2.9
X5.475Y-2.725
X5.475Y-3.0125
X5.555Y-3.225
X5.6125Y-3.5725
X5.675Y-2.725
X5.675Y-2.875
X5.705Y-3.655
X5.7775Y-3.25
X5.7875Y-3.525
X5.82Y-3.675
X5.9Y-2.725
X5.9Y-2.875
X6.0435Y-3.3947
X6.05Y-3.7125
X6.1625Y-3.4025
T2
X3.1055Y-4.2
X3.1332Y-4.1332
X3.1332Y-4.2668
X3.2Y-4.1055
X3.2Y-4.2945
X3.2668Y-4.1332
X3.2668Y-4.2668
X3.2945Y-4.2
X5.9055Y-4.2
X5.9332Y-4.1332
X5.9332Y-4.2668
X6.0Y-4.1055
X6.0Y-4.2945
X6.0668Y-4.1332
X6.0668Y-4.2668
X6.0945Y-4.2
T3
X3.7Y-2.325
X3.7Y-2.425
X3.7Y-2.525
X3.775Y-2.275
X3.775Y-2.375
X3.775Y-2.475
X3.8Y-2.7
X3.8772Y-3.9948
X3.92Y-2.646
X3.92Y-2.702
X3.92Y-2.755
X3.93Y-3.628
X4.0Y-2.7
X4.02Y-3.316
X4.2Y-2.375
X4.2Y-2.525
X4.225Y-2.675
X4.225Y-2.775
X4.325Y-2.675
X4.325Y-2.775
X3.225Y-3.6031
X3.225Y-3.8
X3.5Y-3.0
X3.6Y-3.0
X3.7Y-3.0
X3.5Y-3.4
X3.6Y-3.4
X3.7Y-3.4
T4
X5.2Y-2.3
X5.3Y-2.3
X5.4Y-2.3
T5
X4.8Y-4.3
X4.9Y-4.3
X4.0Y-4.3
X4.1Y-4.3
X4.2Y-4.3
X4.3Y-4.3
X4.5016Y-2.6
X4.6Y-2.6
X4.6984Y-2.6
X5.625Y-4.3
X5.725Y-4.3
X3.15Y-3.1
X3.15Y-3.2
X3.15Y-3.3
X3.87Y-2.3
X3.97Y-2.3
X3.3016Y-2.6
X3.4Y-2.6
X3.4984Y-2.6
X3.15Y-2.7
X3.15Y-2.8
X3.15Y-2.9
X5.3Y-4.3
X5.4Y-4.3
X5.7016Y-2.6
X5.8Y-2.6
X5.8984Y-2.6
T7
X3.2Y-4.2
X6.0Y-4.2
T6
G00X3.211Y-2.3185
M15
G01X3.211Y-2.2909
M16
G05
G00X3.589Y-2.3185
M15
G01X3.589Y-2.2909
M16
G05
G00X5.611Y-2.3185
M15
G01X5.611Y-2.2909
M16
G05
G00X5.989Y-2.3185
M15
G01X5.989Y-2.2909
M16
G05
G00X4.411Y-2.3185
M15
G01X4.411Y-2.2909
M16
G05
G00X4.789Y-2.3185
M15
G01X4.789Y-2.2909
M16
G05
T0
M30
