G04 #@! TF.GenerationSoftware,KiCad,Pcbnew,5.1.6-c6e7f7d~87~ubuntu18.04.1*
G04 #@! TF.CreationDate,2020-11-08T17:16:30-05:00*
G04 #@! TF.ProjectId,bit_crusher_pedal,6269745f-6372-4757-9368-65725f706564,1*
G04 #@! TF.SameCoordinates,Original*
G04 #@! TF.FileFunction,Copper,L1,Top*
G04 #@! TF.FilePolarity,Positive*
%FSLAX46Y46*%
G04 Gerber Fmt 4.6, Leading zero omitted, Abs format (unit mm)*
G04 Created by KiCad (PCBNEW 5.1.6-c6e7f7d~87~ubuntu18.04.1) date 2020-11-08 17:16:30*
%MOMM*%
%LPD*%
G01*
G04 APERTURE LIST*
G04 #@! TA.AperFunction,ComponentPad*
%ADD10C,1.440000*%
G04 #@! TD*
G04 #@! TA.AperFunction,ComponentPad*
%ADD11O,1.700000X1.700000*%
G04 #@! TD*
G04 #@! TA.AperFunction,ComponentPad*
%ADD12R,1.700000X1.700000*%
G04 #@! TD*
G04 #@! TA.AperFunction,ComponentPad*
%ADD13C,0.800000*%
G04 #@! TD*
G04 #@! TA.AperFunction,ComponentPad*
%ADD14C,6.400000*%
G04 #@! TD*
G04 #@! TA.AperFunction,ComponentPad*
%ADD15C,1.500000*%
G04 #@! TD*
G04 #@! TA.AperFunction,ComponentPad*
%ADD16O,2.720000X3.240000*%
G04 #@! TD*
G04 #@! TA.AperFunction,ComponentPad*
%ADD17C,1.800000*%
G04 #@! TD*
G04 #@! TA.AperFunction,ComponentPad*
%ADD18R,1.800000X1.800000*%
G04 #@! TD*
G04 #@! TA.AperFunction,ViaPad*
%ADD19C,0.800000*%
G04 #@! TD*
G04 #@! TA.AperFunction,ViaPad*
%ADD20C,1.000000*%
G04 #@! TD*
G04 #@! TA.AperFunction,Conductor*
%ADD21C,0.400000*%
G04 #@! TD*
G04 #@! TA.AperFunction,Conductor*
%ADD22C,1.000000*%
G04 #@! TD*
G04 #@! TA.AperFunction,Conductor*
%ADD23C,0.500000*%
G04 #@! TD*
G04 #@! TA.AperFunction,Conductor*
%ADD24C,0.300000*%
G04 #@! TD*
G04 #@! TA.AperFunction,Conductor*
%ADD25C,0.254000*%
G04 #@! TD*
G04 APERTURE END LIST*
D10*
X88900000Y-86360000D03*
X91440000Y-86360000D03*
X93980000Y-86360000D03*
X88900000Y-76200000D03*
X91440000Y-76200000D03*
X93980000Y-76200000D03*
D11*
X124460000Y-109220000D03*
D12*
X121920000Y-109220000D03*
D13*
X154097056Y-104982944D03*
X152400000Y-104280000D03*
X150702944Y-104982944D03*
X150000000Y-106680000D03*
X150702944Y-108377056D03*
X152400000Y-109080000D03*
X154097056Y-108377056D03*
X154800000Y-106680000D03*
D14*
X152400000Y-106680000D03*
D13*
X82977056Y-104982944D03*
X81280000Y-104280000D03*
X79582944Y-104982944D03*
X78880000Y-106680000D03*
X79582944Y-108377056D03*
X81280000Y-109080000D03*
X82977056Y-108377056D03*
X83680000Y-106680000D03*
D14*
X81280000Y-106680000D03*
D15*
X81915000Y-91520000D03*
X81915000Y-96520000D03*
D16*
X112040000Y-58540000D03*
X121640000Y-58540000D03*
D17*
X119340000Y-66040000D03*
X116840000Y-66040000D03*
D18*
X114340000Y-66040000D03*
D16*
X81560000Y-58540000D03*
X91160000Y-58540000D03*
D17*
X88860000Y-66040000D03*
X86360000Y-66040000D03*
D18*
X83860000Y-66040000D03*
D16*
X142520000Y-58540000D03*
X152120000Y-58540000D03*
D17*
X149820000Y-66040000D03*
X147320000Y-66040000D03*
D18*
X144820000Y-66040000D03*
D11*
X80010000Y-83820000D03*
X80010000Y-81280000D03*
D12*
X80010000Y-78740000D03*
D11*
X80010000Y-73660000D03*
X80010000Y-71120000D03*
D12*
X80010000Y-68580000D03*
D11*
X100838000Y-58420000D03*
D12*
X98298000Y-58420000D03*
D11*
X109220000Y-109220000D03*
X106680000Y-109220000D03*
X104140000Y-109220000D03*
D12*
X101600000Y-109220000D03*
D11*
X137160000Y-109220000D03*
D12*
X134620000Y-109220000D03*
D11*
X145415000Y-109220000D03*
D12*
X142875000Y-109220000D03*
D17*
X132080000Y-58420000D03*
X134620000Y-58420000D03*
D18*
X137160000Y-58420000D03*
D19*
X139039600Y-73660000D03*
X127000000Y-75895200D03*
X114300000Y-81343500D03*
X117348000Y-81343500D03*
X114147600Y-88595200D03*
X117297200Y-88595200D03*
X101549200Y-99263200D03*
X104648000Y-99263200D03*
X107645200Y-99314000D03*
X130175000Y-97155000D03*
X130175000Y-93980000D03*
X125984000Y-91694000D03*
X122936000Y-97790000D03*
X113284000Y-97536000D03*
X117348000Y-92202000D03*
X112014000Y-92456000D03*
X109474000Y-92456000D03*
X110744000Y-99314000D03*
X110998000Y-105664000D03*
X116078000Y-105664000D03*
X120904000Y-105664000D03*
X129540000Y-105664000D03*
X120904000Y-102108000D03*
X129540000Y-100965000D03*
X90932000Y-92202000D03*
X96520000Y-90424000D03*
X87122000Y-89916000D03*
D20*
X107315000Y-67945000D03*
X109855000Y-67945000D03*
X109855000Y-70485000D03*
X107315000Y-70485000D03*
X101600000Y-68580000D03*
X96520000Y-68580000D03*
X95885000Y-62865000D03*
X95885000Y-60325000D03*
X95885000Y-57785000D03*
X93980000Y-59055000D03*
X93980000Y-61595000D03*
X93980000Y-64135000D03*
X106680000Y-64135000D03*
X106680000Y-60325000D03*
D19*
X123190000Y-74295000D03*
X122555000Y-70485000D03*
X130175000Y-74295000D03*
X130175000Y-70485000D03*
X134620000Y-69215000D03*
X139065000Y-69215000D03*
X144145000Y-69215000D03*
X144145000Y-73025000D03*
X149860000Y-73025000D03*
X149860000Y-69215000D03*
X129540000Y-82550000D03*
X133350000Y-82550000D03*
X133540500Y-74930000D03*
X102235000Y-81915000D03*
X106299000Y-82232500D03*
X121729500Y-92011500D03*
X133350000Y-87630000D03*
X139065000Y-76517500D03*
X134302500Y-97409000D03*
X134302500Y-94551500D03*
X146748500Y-82550000D03*
X114300000Y-77978000D03*
X88392000Y-92202000D03*
X78486000Y-100711000D03*
X83820000Y-102616000D03*
X86657728Y-102572272D03*
X89662000Y-101854000D03*
X144907000Y-92837000D03*
X142557500Y-90741500D03*
X138493500Y-97028000D03*
X138557000Y-94043500D03*
X147002500Y-89535000D03*
X153670000Y-94297500D03*
X124320410Y-84111990D03*
X124510800Y-75031600D03*
D20*
X102108000Y-84226400D03*
X99568000Y-68630800D03*
X99822000Y-92151200D03*
X99568000Y-67208400D03*
X98481868Y-101466932D03*
X99568000Y-69977000D03*
D19*
X93878400Y-94234000D03*
X104292400Y-95605600D03*
X99974400Y-94132400D03*
X114836525Y-68195875D03*
X114046000Y-70866000D03*
X95150001Y-73124995D03*
X110744000Y-79349600D03*
X113842800Y-100076000D03*
X111912400Y-87325200D03*
X92532223Y-95692324D03*
X91659241Y-78120011D03*
X116789200Y-90678000D03*
X147828000Y-93345000D03*
X141097000Y-81915000D03*
X94107000Y-74295000D03*
X104444800Y-92506800D03*
X102412800Y-92100400D03*
X116687600Y-103581200D03*
X120142000Y-103479600D03*
X136956800Y-64770000D03*
X133255899Y-103419260D03*
X132079998Y-64719200D03*
X133032501Y-104394000D03*
X120345200Y-80467200D03*
X120345200Y-94691200D03*
X122420403Y-68893483D03*
X118668800Y-95605600D03*
X119316500Y-78613000D03*
X124460000Y-87325200D03*
X126187200Y-87274400D03*
X131013200Y-87274400D03*
X131114800Y-80010000D03*
X135788400Y-91541600D03*
X156527500Y-86423500D03*
X153504990Y-86226412D03*
X122682000Y-67881500D03*
X119430800Y-77076300D03*
D21*
X124320410Y-84111990D02*
X124320410Y-75221990D01*
X124320410Y-75221990D02*
X124510800Y-75031600D01*
D22*
X99568000Y-81686400D02*
X99568000Y-68630800D01*
X102108000Y-84226400D02*
X99568000Y-81686400D01*
X98907600Y-67208400D02*
X99568000Y-67208400D01*
X99822000Y-92151200D02*
X98044000Y-90373200D01*
X98044000Y-68072000D02*
X98907600Y-67208400D01*
X98044000Y-90373200D02*
X98044000Y-68072000D01*
X98481868Y-93491332D02*
X99822000Y-92151200D01*
X98481868Y-101466932D02*
X98481868Y-93491332D01*
D23*
X101600000Y-104585064D02*
X98481868Y-101466932D01*
X101600000Y-109220000D02*
X101600000Y-104585064D01*
D22*
X99568000Y-68630800D02*
X99568000Y-67208400D01*
D23*
X104292400Y-95605600D02*
X101447600Y-95605600D01*
X101447600Y-95605600D02*
X99974400Y-94132400D01*
D21*
X114836525Y-70075475D02*
X114046000Y-70866000D01*
X114836525Y-68195875D02*
X114836525Y-70075475D01*
D23*
X95150001Y-72330001D02*
X95150001Y-73124995D01*
X93878400Y-94234000D02*
X95150001Y-92962399D01*
X88860000Y-66040000D02*
X95150001Y-72330001D01*
X95150001Y-92962399D02*
X95150001Y-73124995D01*
D21*
X110744000Y-96977200D02*
X113842800Y-100076000D01*
X110896400Y-87325200D02*
X110744000Y-87172800D01*
X111912400Y-87325200D02*
X110896400Y-87325200D01*
X110744000Y-79349600D02*
X110744000Y-87172800D01*
X110744000Y-87172800D02*
X110744000Y-96977200D01*
X92532223Y-95692324D02*
X92532223Y-95126639D01*
X92707837Y-94951025D02*
X92707837Y-79168607D01*
X92707837Y-79168607D02*
X91659241Y-78120011D01*
X92532223Y-95126639D02*
X92707837Y-94951025D01*
D23*
X115624616Y-89513416D02*
X115624616Y-68528176D01*
X115624616Y-68528176D02*
X116840000Y-67312792D01*
X116789200Y-90678000D02*
X115624616Y-89513416D01*
X116840000Y-67312792D02*
X116840000Y-66040000D01*
D21*
X147828000Y-93345000D02*
X141097000Y-86614000D01*
X141097000Y-86614000D02*
X141097000Y-81915000D01*
D24*
X89027000Y-76200000D02*
X88900000Y-76200000D01*
D21*
X90805000Y-74295000D02*
X88900000Y-76200000D01*
X94107000Y-74295000D02*
X90805000Y-74295000D01*
X104444800Y-92506800D02*
X102819200Y-92506800D01*
X102819200Y-92506800D02*
X102412800Y-92100400D01*
X116687600Y-103581200D02*
X120040400Y-103581200D01*
X120040400Y-103581200D02*
X120142000Y-103479600D01*
X132842000Y-103005361D02*
X133255899Y-103419260D01*
X132842000Y-91065326D02*
X132842000Y-103005361D01*
X136956800Y-64770000D02*
X136956800Y-86950526D01*
X136956800Y-86950526D02*
X132842000Y-91065326D01*
X132143500Y-103504999D02*
X133032501Y-104394000D01*
X132143500Y-90915283D02*
X132143500Y-103504999D01*
X136271000Y-86787783D02*
X132143500Y-90915283D01*
X132079998Y-64719200D02*
X135267700Y-64719200D01*
X135267700Y-64719200D02*
X136271000Y-65722500D01*
X136271000Y-65722500D02*
X136271000Y-86787783D01*
D23*
X120345200Y-80467200D02*
X120345200Y-94691200D01*
D21*
X120345200Y-70968686D02*
X122420403Y-68893483D01*
X120345200Y-80467200D02*
X120345200Y-70968686D01*
X119380000Y-78676500D02*
X119316500Y-78613000D01*
X118668800Y-95605600D02*
X119380000Y-94894400D01*
X119380000Y-94894400D02*
X119380000Y-78676500D01*
X124460000Y-87325200D02*
X126136400Y-87325200D01*
X126136400Y-87325200D02*
X126187200Y-87274400D01*
X131013200Y-87274400D02*
X131013200Y-80111600D01*
X131013200Y-80111600D02*
X131114800Y-80010000D01*
X135763000Y-91567000D02*
X135788400Y-91541600D01*
X134620000Y-109220000D02*
X135763000Y-108077000D01*
X135763000Y-108077000D02*
X135763000Y-91567000D01*
X156527500Y-86423500D02*
X153702078Y-86423500D01*
X153702078Y-86423500D02*
X153504990Y-86226412D01*
X122116315Y-67881500D02*
X119430800Y-70567015D01*
X119430800Y-70567015D02*
X119430800Y-77076300D01*
X122682000Y-67881500D02*
X122116315Y-67881500D01*
D24*
X93980000Y-76200000D02*
X91440000Y-76200000D01*
D25*
G36*
X153182249Y-51532437D02*
G01*
X153939774Y-51739672D01*
X154648625Y-52077777D01*
X155286404Y-52536067D01*
X155832946Y-53100055D01*
X156270977Y-53751913D01*
X156586651Y-54471038D01*
X156771206Y-55239768D01*
X156820001Y-55904221D01*
X156820000Y-85426405D01*
X156629439Y-85388500D01*
X156425561Y-85388500D01*
X156225602Y-85428274D01*
X156037244Y-85506295D01*
X155914215Y-85588500D01*
X154323535Y-85588500D01*
X154308927Y-85566638D01*
X154164764Y-85422475D01*
X153995246Y-85309207D01*
X153806888Y-85231186D01*
X153606929Y-85191412D01*
X153403051Y-85191412D01*
X153203092Y-85231186D01*
X153014734Y-85309207D01*
X152845216Y-85422475D01*
X152701053Y-85566638D01*
X152587785Y-85736156D01*
X152509764Y-85924514D01*
X152469990Y-86124473D01*
X152469990Y-86328351D01*
X152509764Y-86528310D01*
X152587785Y-86716668D01*
X152701053Y-86886186D01*
X152845216Y-87030349D01*
X153014734Y-87143617D01*
X153203092Y-87221638D01*
X153403051Y-87261412D01*
X153606929Y-87261412D01*
X153634647Y-87255899D01*
X153661059Y-87258500D01*
X153661060Y-87258500D01*
X153702078Y-87262540D01*
X153743096Y-87258500D01*
X155914215Y-87258500D01*
X156037244Y-87340705D01*
X156225602Y-87418726D01*
X156425561Y-87458500D01*
X156629439Y-87458500D01*
X156820000Y-87420595D01*
X156820000Y-106650608D01*
X156747563Y-107462249D01*
X156540328Y-108219774D01*
X156202221Y-108928627D01*
X155743928Y-109566410D01*
X155179945Y-110112946D01*
X154528085Y-110550978D01*
X153808963Y-110866651D01*
X153040232Y-111051206D01*
X152375792Y-111100000D01*
X81309392Y-111100000D01*
X80497751Y-111027563D01*
X79740226Y-110820328D01*
X79031373Y-110482221D01*
X78393590Y-110023928D01*
X77847054Y-109459945D01*
X77793926Y-109380881D01*
X78758724Y-109380881D01*
X79118912Y-109870548D01*
X79782882Y-110230849D01*
X80504385Y-110454694D01*
X81255695Y-110533480D01*
X82007938Y-110464178D01*
X82732208Y-110249452D01*
X83400670Y-109897555D01*
X83441088Y-109870548D01*
X83801276Y-109380881D01*
X81280000Y-106859605D01*
X78758724Y-109380881D01*
X77793926Y-109380881D01*
X77409022Y-108808085D01*
X77093349Y-108088963D01*
X76908794Y-107320232D01*
X76860000Y-106655792D01*
X76860000Y-106655695D01*
X77426520Y-106655695D01*
X77495822Y-107407938D01*
X77710548Y-108132208D01*
X78062445Y-108800670D01*
X78089452Y-108841088D01*
X78579119Y-109201276D01*
X81100395Y-106680000D01*
X81459605Y-106680000D01*
X83980881Y-109201276D01*
X84470548Y-108841088D01*
X84830849Y-108177118D01*
X85054694Y-107455615D01*
X85133480Y-106704305D01*
X85064178Y-105952062D01*
X84849452Y-105227792D01*
X84497555Y-104559330D01*
X84470548Y-104518912D01*
X83980881Y-104158724D01*
X81459605Y-106680000D01*
X81100395Y-106680000D01*
X78579119Y-104158724D01*
X78089452Y-104518912D01*
X77729151Y-105182882D01*
X77505306Y-105904385D01*
X77426520Y-106655695D01*
X76860000Y-106655695D01*
X76860000Y-103979119D01*
X78758724Y-103979119D01*
X81280000Y-106500395D01*
X83801276Y-103979119D01*
X83441088Y-103489452D01*
X82777118Y-103129151D01*
X82055615Y-102905306D01*
X81304305Y-102826520D01*
X80552062Y-102895822D01*
X79827792Y-103110548D01*
X79159330Y-103462445D01*
X79118912Y-103489452D01*
X78758724Y-103979119D01*
X76860000Y-103979119D01*
X76860000Y-96383589D01*
X80530000Y-96383589D01*
X80530000Y-96656411D01*
X80583225Y-96923989D01*
X80687629Y-97176043D01*
X80839201Y-97402886D01*
X81032114Y-97595799D01*
X81258957Y-97747371D01*
X81511011Y-97851775D01*
X81778589Y-97905000D01*
X82051411Y-97905000D01*
X82318989Y-97851775D01*
X82571043Y-97747371D01*
X82797886Y-97595799D01*
X82990799Y-97402886D01*
X83142371Y-97176043D01*
X83246775Y-96923989D01*
X83300000Y-96656411D01*
X83300000Y-96383589D01*
X83246775Y-96116011D01*
X83142371Y-95863957D01*
X82990799Y-95637114D01*
X82797886Y-95444201D01*
X82571043Y-95292629D01*
X82318989Y-95188225D01*
X82051411Y-95135000D01*
X81778589Y-95135000D01*
X81511011Y-95188225D01*
X81258957Y-95292629D01*
X81032114Y-95444201D01*
X80839201Y-95637114D01*
X80687629Y-95863957D01*
X80583225Y-96116011D01*
X80530000Y-96383589D01*
X76860000Y-96383589D01*
X76860000Y-91383589D01*
X80530000Y-91383589D01*
X80530000Y-91656411D01*
X80583225Y-91923989D01*
X80687629Y-92176043D01*
X80839201Y-92402886D01*
X81032114Y-92595799D01*
X81258957Y-92747371D01*
X81511011Y-92851775D01*
X81778589Y-92905000D01*
X82051411Y-92905000D01*
X82318989Y-92851775D01*
X82571043Y-92747371D01*
X82797886Y-92595799D01*
X82990799Y-92402886D01*
X83142371Y-92176043D01*
X83246775Y-91923989D01*
X83300000Y-91656411D01*
X83300000Y-91383589D01*
X83246775Y-91116011D01*
X83142371Y-90863957D01*
X82990799Y-90637114D01*
X82797886Y-90444201D01*
X82571043Y-90292629D01*
X82318989Y-90188225D01*
X82051411Y-90135000D01*
X81778589Y-90135000D01*
X81511011Y-90188225D01*
X81258957Y-90292629D01*
X81032114Y-90444201D01*
X80839201Y-90637114D01*
X80687629Y-90863957D01*
X80583225Y-91116011D01*
X80530000Y-91383589D01*
X76860000Y-91383589D01*
X76860000Y-84176890D01*
X78568524Y-84176890D01*
X78613175Y-84324099D01*
X78738359Y-84586920D01*
X78912412Y-84820269D01*
X79128645Y-85015178D01*
X79378748Y-85164157D01*
X79653109Y-85261481D01*
X79883000Y-85140814D01*
X79883000Y-83947000D01*
X80137000Y-83947000D01*
X80137000Y-85140814D01*
X80366891Y-85261481D01*
X80641252Y-85164157D01*
X80891355Y-85015178D01*
X81107588Y-84820269D01*
X81281641Y-84586920D01*
X81406825Y-84324099D01*
X81451476Y-84176890D01*
X81330155Y-83947000D01*
X80137000Y-83947000D01*
X79883000Y-83947000D01*
X78689845Y-83947000D01*
X78568524Y-84176890D01*
X76860000Y-84176890D01*
X76860000Y-77890000D01*
X78521928Y-77890000D01*
X78521928Y-79590000D01*
X78534188Y-79714482D01*
X78570498Y-79834180D01*
X78629463Y-79944494D01*
X78708815Y-80041185D01*
X78805506Y-80120537D01*
X78915820Y-80179502D01*
X78988380Y-80201513D01*
X78856525Y-80333368D01*
X78694010Y-80576589D01*
X78582068Y-80846842D01*
X78525000Y-81133740D01*
X78525000Y-81426260D01*
X78582068Y-81713158D01*
X78694010Y-81983411D01*
X78856525Y-82226632D01*
X79063368Y-82433475D01*
X79245534Y-82555195D01*
X79128645Y-82624822D01*
X78912412Y-82819731D01*
X78738359Y-83053080D01*
X78613175Y-83315901D01*
X78568524Y-83463110D01*
X78689845Y-83693000D01*
X79883000Y-83693000D01*
X79883000Y-83673000D01*
X80137000Y-83673000D01*
X80137000Y-83693000D01*
X81330155Y-83693000D01*
X81451476Y-83463110D01*
X81406825Y-83315901D01*
X81281641Y-83053080D01*
X81107588Y-82819731D01*
X80891355Y-82624822D01*
X80774466Y-82555195D01*
X80956632Y-82433475D01*
X81163475Y-82226632D01*
X81325990Y-81983411D01*
X81437932Y-81713158D01*
X81495000Y-81426260D01*
X81495000Y-81133740D01*
X81437932Y-80846842D01*
X81325990Y-80576589D01*
X81163475Y-80333368D01*
X81031620Y-80201513D01*
X81104180Y-80179502D01*
X81214494Y-80120537D01*
X81311185Y-80041185D01*
X81390537Y-79944494D01*
X81449502Y-79834180D01*
X81485812Y-79714482D01*
X81498072Y-79590000D01*
X81498072Y-77890000D01*
X81485812Y-77765518D01*
X81449502Y-77645820D01*
X81390537Y-77535506D01*
X81311185Y-77438815D01*
X81214494Y-77359463D01*
X81104180Y-77300498D01*
X80984482Y-77264188D01*
X80860000Y-77251928D01*
X79160000Y-77251928D01*
X79035518Y-77264188D01*
X78915820Y-77300498D01*
X78805506Y-77359463D01*
X78708815Y-77438815D01*
X78629463Y-77535506D01*
X78570498Y-77645820D01*
X78534188Y-77765518D01*
X78521928Y-77890000D01*
X76860000Y-77890000D01*
X76860000Y-74016890D01*
X78568524Y-74016890D01*
X78613175Y-74164099D01*
X78738359Y-74426920D01*
X78912412Y-74660269D01*
X79128645Y-74855178D01*
X79378748Y-75004157D01*
X79653109Y-75101481D01*
X79883000Y-74980814D01*
X79883000Y-73787000D01*
X80137000Y-73787000D01*
X80137000Y-74980814D01*
X80366891Y-75101481D01*
X80641252Y-75004157D01*
X80891355Y-74855178D01*
X81107588Y-74660269D01*
X81281641Y-74426920D01*
X81406825Y-74164099D01*
X81451476Y-74016890D01*
X81330155Y-73787000D01*
X80137000Y-73787000D01*
X79883000Y-73787000D01*
X78689845Y-73787000D01*
X78568524Y-74016890D01*
X76860000Y-74016890D01*
X76860000Y-67730000D01*
X78521928Y-67730000D01*
X78521928Y-69430000D01*
X78534188Y-69554482D01*
X78570498Y-69674180D01*
X78629463Y-69784494D01*
X78708815Y-69881185D01*
X78805506Y-69960537D01*
X78915820Y-70019502D01*
X78988380Y-70041513D01*
X78856525Y-70173368D01*
X78694010Y-70416589D01*
X78582068Y-70686842D01*
X78525000Y-70973740D01*
X78525000Y-71266260D01*
X78582068Y-71553158D01*
X78694010Y-71823411D01*
X78856525Y-72066632D01*
X79063368Y-72273475D01*
X79245534Y-72395195D01*
X79128645Y-72464822D01*
X78912412Y-72659731D01*
X78738359Y-72893080D01*
X78613175Y-73155901D01*
X78568524Y-73303110D01*
X78689845Y-73533000D01*
X79883000Y-73533000D01*
X79883000Y-73513000D01*
X80137000Y-73513000D01*
X80137000Y-73533000D01*
X81330155Y-73533000D01*
X81451476Y-73303110D01*
X81406825Y-73155901D01*
X81281641Y-72893080D01*
X81107588Y-72659731D01*
X80891355Y-72464822D01*
X80774466Y-72395195D01*
X80956632Y-72273475D01*
X81163475Y-72066632D01*
X81325990Y-71823411D01*
X81437932Y-71553158D01*
X81495000Y-71266260D01*
X81495000Y-70973740D01*
X81437932Y-70686842D01*
X81325990Y-70416589D01*
X81163475Y-70173368D01*
X81031620Y-70041513D01*
X81104180Y-70019502D01*
X81214494Y-69960537D01*
X81311185Y-69881185D01*
X81390537Y-69784494D01*
X81449502Y-69674180D01*
X81485812Y-69554482D01*
X81498072Y-69430000D01*
X81498072Y-67730000D01*
X81485812Y-67605518D01*
X81449502Y-67485820D01*
X81390537Y-67375506D01*
X81311185Y-67278815D01*
X81214494Y-67199463D01*
X81104180Y-67140498D01*
X80984482Y-67104188D01*
X80860000Y-67091928D01*
X79160000Y-67091928D01*
X79035518Y-67104188D01*
X78915820Y-67140498D01*
X78805506Y-67199463D01*
X78708815Y-67278815D01*
X78629463Y-67375506D01*
X78570498Y-67485820D01*
X78534188Y-67605518D01*
X78521928Y-67730000D01*
X76860000Y-67730000D01*
X76860000Y-66940000D01*
X82321928Y-66940000D01*
X82334188Y-67064482D01*
X82370498Y-67184180D01*
X82429463Y-67294494D01*
X82508815Y-67391185D01*
X82605506Y-67470537D01*
X82715820Y-67529502D01*
X82835518Y-67565812D01*
X82960000Y-67578072D01*
X83574250Y-67575000D01*
X83733000Y-67416250D01*
X83733000Y-66167000D01*
X82483750Y-66167000D01*
X82325000Y-66325750D01*
X82321928Y-66940000D01*
X76860000Y-66940000D01*
X76860000Y-65140000D01*
X82321928Y-65140000D01*
X82325000Y-65754250D01*
X82483750Y-65913000D01*
X83733000Y-65913000D01*
X83733000Y-64663750D01*
X83987000Y-64663750D01*
X83987000Y-65913000D01*
X84007000Y-65913000D01*
X84007000Y-66167000D01*
X83987000Y-66167000D01*
X83987000Y-67416250D01*
X84145750Y-67575000D01*
X84760000Y-67578072D01*
X84884482Y-67565812D01*
X85004180Y-67529502D01*
X85114494Y-67470537D01*
X85211185Y-67391185D01*
X85290537Y-67294494D01*
X85343880Y-67194697D01*
X85381495Y-67232312D01*
X85632905Y-67400299D01*
X85912257Y-67516011D01*
X86208816Y-67575000D01*
X86511184Y-67575000D01*
X86807743Y-67516011D01*
X87087095Y-67400299D01*
X87338505Y-67232312D01*
X87552312Y-67018505D01*
X87610000Y-66932169D01*
X87667688Y-67018505D01*
X87881495Y-67232312D01*
X88132905Y-67400299D01*
X88412257Y-67516011D01*
X88708816Y-67575000D01*
X89011184Y-67575000D01*
X89121482Y-67553060D01*
X94224116Y-72655695D01*
X94154775Y-72823097D01*
X94115001Y-73023056D01*
X94115001Y-73226934D01*
X94121578Y-73260000D01*
X94005061Y-73260000D01*
X93805102Y-73299774D01*
X93616744Y-73377795D01*
X93493715Y-73460000D01*
X90846018Y-73460000D01*
X90805000Y-73455960D01*
X90641311Y-73472082D01*
X90483913Y-73519828D01*
X90338854Y-73597364D01*
X90312425Y-73619054D01*
X90211709Y-73701709D01*
X90185563Y-73733568D01*
X89067384Y-74851749D01*
X89033456Y-74845000D01*
X88766544Y-74845000D01*
X88504761Y-74897072D01*
X88258167Y-74999215D01*
X88036238Y-75147503D01*
X87847503Y-75336238D01*
X87699215Y-75558167D01*
X87597072Y-75804761D01*
X87545000Y-76066544D01*
X87545000Y-76333456D01*
X87597072Y-76595239D01*
X87699215Y-76841833D01*
X87847503Y-77063762D01*
X88036238Y-77252497D01*
X88258167Y-77400785D01*
X88504761Y-77502928D01*
X88766544Y-77555000D01*
X89033456Y-77555000D01*
X89295239Y-77502928D01*
X89541833Y-77400785D01*
X89763762Y-77252497D01*
X89952497Y-77063762D01*
X90100785Y-76841833D01*
X90170000Y-76674734D01*
X90239215Y-76841833D01*
X90387503Y-77063762D01*
X90576238Y-77252497D01*
X90798167Y-77400785D01*
X90880608Y-77434933D01*
X90855304Y-77460237D01*
X90742036Y-77629755D01*
X90664015Y-77818113D01*
X90624241Y-78018072D01*
X90624241Y-78221950D01*
X90664015Y-78421909D01*
X90742036Y-78610267D01*
X90855304Y-78779785D01*
X90999467Y-78923948D01*
X91168985Y-79037216D01*
X91357343Y-79115237D01*
X91502466Y-79144103D01*
X91872838Y-79514476D01*
X91872838Y-85072646D01*
X91835239Y-85057072D01*
X91573456Y-85005000D01*
X91306544Y-85005000D01*
X91044761Y-85057072D01*
X90798167Y-85159215D01*
X90576238Y-85307503D01*
X90387503Y-85496238D01*
X90239215Y-85718167D01*
X90170000Y-85885266D01*
X90100785Y-85718167D01*
X89952497Y-85496238D01*
X89763762Y-85307503D01*
X89541833Y-85159215D01*
X89295239Y-85057072D01*
X89033456Y-85005000D01*
X88766544Y-85005000D01*
X88504761Y-85057072D01*
X88258167Y-85159215D01*
X88036238Y-85307503D01*
X87847503Y-85496238D01*
X87699215Y-85718167D01*
X87597072Y-85964761D01*
X87545000Y-86226544D01*
X87545000Y-86493456D01*
X87597072Y-86755239D01*
X87699215Y-87001833D01*
X87847503Y-87223762D01*
X88036238Y-87412497D01*
X88258167Y-87560785D01*
X88504761Y-87662928D01*
X88766544Y-87715000D01*
X89033456Y-87715000D01*
X89295239Y-87662928D01*
X89541833Y-87560785D01*
X89763762Y-87412497D01*
X89952497Y-87223762D01*
X90100785Y-87001833D01*
X90170000Y-86834734D01*
X90239215Y-87001833D01*
X90387503Y-87223762D01*
X90576238Y-87412497D01*
X90798167Y-87560785D01*
X91044761Y-87662928D01*
X91306544Y-87715000D01*
X91573456Y-87715000D01*
X91835239Y-87662928D01*
X91872837Y-87647354D01*
X91872837Y-94613886D01*
X91834588Y-94660493D01*
X91757051Y-94805552D01*
X91709305Y-94962950D01*
X91702552Y-95031513D01*
X91697983Y-95077901D01*
X91615018Y-95202068D01*
X91536997Y-95390426D01*
X91497223Y-95590385D01*
X91497223Y-95794263D01*
X91536997Y-95994222D01*
X91615018Y-96182580D01*
X91728286Y-96352098D01*
X91872449Y-96496261D01*
X92041967Y-96609529D01*
X92230325Y-96687550D01*
X92430284Y-96727324D01*
X92634162Y-96727324D01*
X92834121Y-96687550D01*
X93022479Y-96609529D01*
X93191997Y-96496261D01*
X93336160Y-96352098D01*
X93449428Y-96182580D01*
X93527449Y-95994222D01*
X93567223Y-95794263D01*
X93567223Y-95590385D01*
X93527449Y-95390426D01*
X93480436Y-95276926D01*
X93483009Y-95272112D01*
X93505002Y-95199610D01*
X93576502Y-95229226D01*
X93776461Y-95269000D01*
X93980339Y-95269000D01*
X94180298Y-95229226D01*
X94368656Y-95151205D01*
X94538174Y-95037937D01*
X94682337Y-94893774D01*
X94795605Y-94724256D01*
X94873626Y-94535898D01*
X94884935Y-94479043D01*
X95745051Y-93618928D01*
X95778818Y-93591216D01*
X95846549Y-93508687D01*
X95889411Y-93456459D01*
X95889412Y-93456458D01*
X95971590Y-93302712D01*
X96022196Y-93135889D01*
X96035001Y-93005876D01*
X96035001Y-93005866D01*
X96039282Y-92962400D01*
X96035001Y-92918934D01*
X96035001Y-73663449D01*
X96067206Y-73615251D01*
X96145227Y-73426893D01*
X96185001Y-73226934D01*
X96185001Y-73023056D01*
X96145227Y-72823097D01*
X96067206Y-72634739D01*
X96035001Y-72586541D01*
X96035001Y-72373470D01*
X96039282Y-72330001D01*
X96035001Y-72286532D01*
X96035001Y-72286524D01*
X96022196Y-72156511D01*
X95971590Y-71989688D01*
X95889412Y-71835942D01*
X95866256Y-71807726D01*
X95806533Y-71734954D01*
X95806531Y-71734952D01*
X95778818Y-71701184D01*
X95745052Y-71673473D01*
X92143579Y-68072000D01*
X96903509Y-68072000D01*
X96909001Y-68127762D01*
X96909000Y-90317449D01*
X96903509Y-90373200D01*
X96909000Y-90428951D01*
X96925423Y-90595698D01*
X96990324Y-90809646D01*
X97095716Y-91006823D01*
X97237551Y-91179649D01*
X97280864Y-91215195D01*
X98216868Y-92151200D01*
X97718728Y-92649341D01*
X97675420Y-92684883D01*
X97533585Y-92857709D01*
X97522283Y-92878854D01*
X97428192Y-93054886D01*
X97363291Y-93268834D01*
X97341377Y-93491332D01*
X97346869Y-93547093D01*
X97346868Y-101355144D01*
X97346868Y-101578720D01*
X97357800Y-101633680D01*
X97363291Y-101689430D01*
X97379552Y-101743035D01*
X97390485Y-101797999D01*
X97411932Y-101849777D01*
X97428192Y-101903378D01*
X97454598Y-101952780D01*
X97476044Y-102004556D01*
X97507175Y-102051147D01*
X97533584Y-102100555D01*
X97569127Y-102143864D01*
X97600256Y-102190452D01*
X97639877Y-102230073D01*
X97675419Y-102273381D01*
X97718727Y-102308923D01*
X97758348Y-102348544D01*
X97804936Y-102379673D01*
X97848245Y-102415216D01*
X97897654Y-102441625D01*
X97944244Y-102472756D01*
X97996017Y-102494201D01*
X98045421Y-102520608D01*
X98099026Y-102536869D01*
X98150801Y-102558315D01*
X98205762Y-102569247D01*
X98259369Y-102585509D01*
X98315121Y-102591000D01*
X98364100Y-102600743D01*
X100715001Y-104951644D01*
X100715000Y-107735375D01*
X100625518Y-107744188D01*
X100505820Y-107780498D01*
X100395506Y-107839463D01*
X100298815Y-107918815D01*
X100219463Y-108015506D01*
X100160498Y-108125820D01*
X100124188Y-108245518D01*
X100111928Y-108370000D01*
X100111928Y-110070000D01*
X100124188Y-110194482D01*
X100160498Y-110314180D01*
X100219463Y-110424494D01*
X100298815Y-110521185D01*
X100395506Y-110600537D01*
X100505820Y-110659502D01*
X100625518Y-110695812D01*
X100750000Y-110708072D01*
X102450000Y-110708072D01*
X102574482Y-110695812D01*
X102694180Y-110659502D01*
X102804494Y-110600537D01*
X102901185Y-110521185D01*
X102980537Y-110424494D01*
X103039502Y-110314180D01*
X103061513Y-110241620D01*
X103193368Y-110373475D01*
X103436589Y-110535990D01*
X103706842Y-110647932D01*
X103993740Y-110705000D01*
X104286260Y-110705000D01*
X104573158Y-110647932D01*
X104843411Y-110535990D01*
X105086632Y-110373475D01*
X105293475Y-110166632D01*
X105415195Y-109984466D01*
X105484822Y-110101355D01*
X105679731Y-110317588D01*
X105913080Y-110491641D01*
X106175901Y-110616825D01*
X106323110Y-110661476D01*
X106553000Y-110540155D01*
X106553000Y-109347000D01*
X106533000Y-109347000D01*
X106533000Y-109093000D01*
X106553000Y-109093000D01*
X106553000Y-107899845D01*
X106807000Y-107899845D01*
X106807000Y-109093000D01*
X106827000Y-109093000D01*
X106827000Y-109347000D01*
X106807000Y-109347000D01*
X106807000Y-110540155D01*
X107036890Y-110661476D01*
X107184099Y-110616825D01*
X107446920Y-110491641D01*
X107680269Y-110317588D01*
X107875178Y-110101355D01*
X107944805Y-109984466D01*
X108066525Y-110166632D01*
X108273368Y-110373475D01*
X108516589Y-110535990D01*
X108786842Y-110647932D01*
X109073740Y-110705000D01*
X109366260Y-110705000D01*
X109653158Y-110647932D01*
X109923411Y-110535990D01*
X110166632Y-110373475D01*
X110373475Y-110166632D01*
X110535990Y-109923411D01*
X110647932Y-109653158D01*
X110705000Y-109366260D01*
X110705000Y-109073740D01*
X110647932Y-108786842D01*
X110535990Y-108516589D01*
X110438043Y-108370000D01*
X120431928Y-108370000D01*
X120431928Y-110070000D01*
X120444188Y-110194482D01*
X120480498Y-110314180D01*
X120539463Y-110424494D01*
X120618815Y-110521185D01*
X120715506Y-110600537D01*
X120825820Y-110659502D01*
X120945518Y-110695812D01*
X121070000Y-110708072D01*
X122770000Y-110708072D01*
X122894482Y-110695812D01*
X123014180Y-110659502D01*
X123124494Y-110600537D01*
X123221185Y-110521185D01*
X123300537Y-110424494D01*
X123359502Y-110314180D01*
X123383966Y-110233534D01*
X123459731Y-110317588D01*
X123693080Y-110491641D01*
X123955901Y-110616825D01*
X124103110Y-110661476D01*
X124333000Y-110540155D01*
X124333000Y-109347000D01*
X124587000Y-109347000D01*
X124587000Y-110540155D01*
X124816890Y-110661476D01*
X124964099Y-110616825D01*
X125226920Y-110491641D01*
X125460269Y-110317588D01*
X125655178Y-110101355D01*
X125804157Y-109851252D01*
X125901481Y-109576891D01*
X125780814Y-109347000D01*
X124587000Y-109347000D01*
X124333000Y-109347000D01*
X124313000Y-109347000D01*
X124313000Y-109093000D01*
X124333000Y-109093000D01*
X124333000Y-107899845D01*
X124587000Y-107899845D01*
X124587000Y-109093000D01*
X125780814Y-109093000D01*
X125901481Y-108863109D01*
X125804157Y-108588748D01*
X125673856Y-108370000D01*
X133131928Y-108370000D01*
X133131928Y-110070000D01*
X133144188Y-110194482D01*
X133180498Y-110314180D01*
X133239463Y-110424494D01*
X133318815Y-110521185D01*
X133415506Y-110600537D01*
X133525820Y-110659502D01*
X133645518Y-110695812D01*
X133770000Y-110708072D01*
X135470000Y-110708072D01*
X135594482Y-110695812D01*
X135714180Y-110659502D01*
X135824494Y-110600537D01*
X135921185Y-110521185D01*
X136000537Y-110424494D01*
X136059502Y-110314180D01*
X136083966Y-110233534D01*
X136159731Y-110317588D01*
X136393080Y-110491641D01*
X136655901Y-110616825D01*
X136803110Y-110661476D01*
X137033000Y-110540155D01*
X137033000Y-109347000D01*
X137287000Y-109347000D01*
X137287000Y-110540155D01*
X137516890Y-110661476D01*
X137664099Y-110616825D01*
X137926920Y-110491641D01*
X138160269Y-110317588D01*
X138355178Y-110101355D01*
X138504157Y-109851252D01*
X138601481Y-109576891D01*
X138480814Y-109347000D01*
X137287000Y-109347000D01*
X137033000Y-109347000D01*
X137013000Y-109347000D01*
X137013000Y-109093000D01*
X137033000Y-109093000D01*
X137033000Y-107899845D01*
X137287000Y-107899845D01*
X137287000Y-109093000D01*
X138480814Y-109093000D01*
X138601481Y-108863109D01*
X138504157Y-108588748D01*
X138373856Y-108370000D01*
X141386928Y-108370000D01*
X141386928Y-110070000D01*
X141399188Y-110194482D01*
X141435498Y-110314180D01*
X141494463Y-110424494D01*
X141573815Y-110521185D01*
X141670506Y-110600537D01*
X141780820Y-110659502D01*
X141900518Y-110695812D01*
X142025000Y-110708072D01*
X143725000Y-110708072D01*
X143849482Y-110695812D01*
X143969180Y-110659502D01*
X144079494Y-110600537D01*
X144176185Y-110521185D01*
X144255537Y-110424494D01*
X144314502Y-110314180D01*
X144338966Y-110233534D01*
X144414731Y-110317588D01*
X144648080Y-110491641D01*
X144910901Y-110616825D01*
X145058110Y-110661476D01*
X145288000Y-110540155D01*
X145288000Y-109347000D01*
X145542000Y-109347000D01*
X145542000Y-110540155D01*
X145771890Y-110661476D01*
X145919099Y-110616825D01*
X146181920Y-110491641D01*
X146415269Y-110317588D01*
X146610178Y-110101355D01*
X146759157Y-109851252D01*
X146856481Y-109576891D01*
X146753598Y-109380881D01*
X149878724Y-109380881D01*
X150238912Y-109870548D01*
X150902882Y-110230849D01*
X151624385Y-110454694D01*
X152375695Y-110533480D01*
X153127938Y-110464178D01*
X153852208Y-110249452D01*
X154520670Y-109897555D01*
X154561088Y-109870548D01*
X154921276Y-109380881D01*
X152400000Y-106859605D01*
X149878724Y-109380881D01*
X146753598Y-109380881D01*
X146735814Y-109347000D01*
X145542000Y-109347000D01*
X145288000Y-109347000D01*
X145268000Y-109347000D01*
X145268000Y-109093000D01*
X145288000Y-109093000D01*
X145288000Y-107899845D01*
X145542000Y-107899845D01*
X145542000Y-109093000D01*
X146735814Y-109093000D01*
X146856481Y-108863109D01*
X146759157Y-108588748D01*
X146610178Y-108338645D01*
X146415269Y-108122412D01*
X146181920Y-107948359D01*
X145919099Y-107823175D01*
X145771890Y-107778524D01*
X145542000Y-107899845D01*
X145288000Y-107899845D01*
X145058110Y-107778524D01*
X144910901Y-107823175D01*
X144648080Y-107948359D01*
X144414731Y-108122412D01*
X144338966Y-108206466D01*
X144314502Y-108125820D01*
X144255537Y-108015506D01*
X144176185Y-107918815D01*
X144079494Y-107839463D01*
X143969180Y-107780498D01*
X143849482Y-107744188D01*
X143725000Y-107731928D01*
X142025000Y-107731928D01*
X141900518Y-107744188D01*
X141780820Y-107780498D01*
X141670506Y-107839463D01*
X141573815Y-107918815D01*
X141494463Y-108015506D01*
X141435498Y-108125820D01*
X141399188Y-108245518D01*
X141386928Y-108370000D01*
X138373856Y-108370000D01*
X138355178Y-108338645D01*
X138160269Y-108122412D01*
X137926920Y-107948359D01*
X137664099Y-107823175D01*
X137516890Y-107778524D01*
X137287000Y-107899845D01*
X137033000Y-107899845D01*
X136803110Y-107778524D01*
X136655901Y-107823175D01*
X136598000Y-107850754D01*
X136598000Y-106655695D01*
X148546520Y-106655695D01*
X148615822Y-107407938D01*
X148830548Y-108132208D01*
X149182445Y-108800670D01*
X149209452Y-108841088D01*
X149699119Y-109201276D01*
X152220395Y-106680000D01*
X152579605Y-106680000D01*
X155100881Y-109201276D01*
X155590548Y-108841088D01*
X155950849Y-108177118D01*
X156174694Y-107455615D01*
X156253480Y-106704305D01*
X156184178Y-105952062D01*
X155969452Y-105227792D01*
X155617555Y-104559330D01*
X155590548Y-104518912D01*
X155100881Y-104158724D01*
X152579605Y-106680000D01*
X152220395Y-106680000D01*
X149699119Y-104158724D01*
X149209452Y-104518912D01*
X148849151Y-105182882D01*
X148625306Y-105904385D01*
X148546520Y-106655695D01*
X136598000Y-106655695D01*
X136598000Y-103979119D01*
X149878724Y-103979119D01*
X152400000Y-106500395D01*
X154921276Y-103979119D01*
X154561088Y-103489452D01*
X153897118Y-103129151D01*
X153175615Y-102905306D01*
X152424305Y-102826520D01*
X151672062Y-102895822D01*
X150947792Y-103110548D01*
X150279330Y-103462445D01*
X150238912Y-103489452D01*
X149878724Y-103979119D01*
X136598000Y-103979119D01*
X136598000Y-92192899D01*
X136705605Y-92031856D01*
X136783626Y-91843498D01*
X136823400Y-91643539D01*
X136823400Y-91439661D01*
X136783626Y-91239702D01*
X136705605Y-91051344D01*
X136592337Y-90881826D01*
X136448174Y-90737663D01*
X136278656Y-90624395D01*
X136090298Y-90546374D01*
X135890339Y-90506600D01*
X135686461Y-90506600D01*
X135486502Y-90546374D01*
X135298144Y-90624395D01*
X135128626Y-90737663D01*
X134984463Y-90881826D01*
X134871195Y-91051344D01*
X134793174Y-91239702D01*
X134753400Y-91439661D01*
X134753400Y-91643539D01*
X134793174Y-91843498D01*
X134871195Y-92031856D01*
X134928001Y-92116872D01*
X134928000Y-107731132D01*
X134927204Y-107731928D01*
X133770000Y-107731928D01*
X133645518Y-107744188D01*
X133525820Y-107780498D01*
X133415506Y-107839463D01*
X133318815Y-107918815D01*
X133239463Y-108015506D01*
X133180498Y-108125820D01*
X133144188Y-108245518D01*
X133131928Y-108370000D01*
X125673856Y-108370000D01*
X125655178Y-108338645D01*
X125460269Y-108122412D01*
X125226920Y-107948359D01*
X124964099Y-107823175D01*
X124816890Y-107778524D01*
X124587000Y-107899845D01*
X124333000Y-107899845D01*
X124103110Y-107778524D01*
X123955901Y-107823175D01*
X123693080Y-107948359D01*
X123459731Y-108122412D01*
X123383966Y-108206466D01*
X123359502Y-108125820D01*
X123300537Y-108015506D01*
X123221185Y-107918815D01*
X123124494Y-107839463D01*
X123014180Y-107780498D01*
X122894482Y-107744188D01*
X122770000Y-107731928D01*
X121070000Y-107731928D01*
X120945518Y-107744188D01*
X120825820Y-107780498D01*
X120715506Y-107839463D01*
X120618815Y-107918815D01*
X120539463Y-108015506D01*
X120480498Y-108125820D01*
X120444188Y-108245518D01*
X120431928Y-108370000D01*
X110438043Y-108370000D01*
X110373475Y-108273368D01*
X110166632Y-108066525D01*
X109923411Y-107904010D01*
X109653158Y-107792068D01*
X109366260Y-107735000D01*
X109073740Y-107735000D01*
X108786842Y-107792068D01*
X108516589Y-107904010D01*
X108273368Y-108066525D01*
X108066525Y-108273368D01*
X107944805Y-108455534D01*
X107875178Y-108338645D01*
X107680269Y-108122412D01*
X107446920Y-107948359D01*
X107184099Y-107823175D01*
X107036890Y-107778524D01*
X106807000Y-107899845D01*
X106553000Y-107899845D01*
X106323110Y-107778524D01*
X106175901Y-107823175D01*
X105913080Y-107948359D01*
X105679731Y-108122412D01*
X105484822Y-108338645D01*
X105415195Y-108455534D01*
X105293475Y-108273368D01*
X105086632Y-108066525D01*
X104843411Y-107904010D01*
X104573158Y-107792068D01*
X104286260Y-107735000D01*
X103993740Y-107735000D01*
X103706842Y-107792068D01*
X103436589Y-107904010D01*
X103193368Y-108066525D01*
X103061513Y-108198380D01*
X103039502Y-108125820D01*
X102980537Y-108015506D01*
X102901185Y-107918815D01*
X102804494Y-107839463D01*
X102694180Y-107780498D01*
X102574482Y-107744188D01*
X102485000Y-107735375D01*
X102485000Y-104628533D01*
X102489281Y-104585064D01*
X102485000Y-104541595D01*
X102485000Y-104541587D01*
X102472195Y-104411574D01*
X102464175Y-104385137D01*
X102421589Y-104244750D01*
X102339411Y-104091005D01*
X102256532Y-103990017D01*
X102256530Y-103990015D01*
X102228817Y-103956247D01*
X102195049Y-103928534D01*
X101745776Y-103479261D01*
X115652600Y-103479261D01*
X115652600Y-103683139D01*
X115692374Y-103883098D01*
X115770395Y-104071456D01*
X115883663Y-104240974D01*
X116027826Y-104385137D01*
X116197344Y-104498405D01*
X116385702Y-104576426D01*
X116585661Y-104616200D01*
X116789539Y-104616200D01*
X116989498Y-104576426D01*
X117177856Y-104498405D01*
X117300885Y-104416200D01*
X119698567Y-104416200D01*
X119840102Y-104474826D01*
X120040061Y-104514600D01*
X120243939Y-104514600D01*
X120443898Y-104474826D01*
X120632256Y-104396805D01*
X120801774Y-104283537D01*
X120945937Y-104139374D01*
X121059205Y-103969856D01*
X121137226Y-103781498D01*
X121177000Y-103581539D01*
X121177000Y-103377661D01*
X121137226Y-103177702D01*
X121059205Y-102989344D01*
X120945937Y-102819826D01*
X120801774Y-102675663D01*
X120632256Y-102562395D01*
X120443898Y-102484374D01*
X120243939Y-102444600D01*
X120040061Y-102444600D01*
X119840102Y-102484374D01*
X119651744Y-102562395D01*
X119482226Y-102675663D01*
X119411689Y-102746200D01*
X117300885Y-102746200D01*
X117177856Y-102663995D01*
X116989498Y-102585974D01*
X116789539Y-102546200D01*
X116585661Y-102546200D01*
X116385702Y-102585974D01*
X116197344Y-102663995D01*
X116027826Y-102777263D01*
X115883663Y-102921426D01*
X115770395Y-103090944D01*
X115692374Y-103279302D01*
X115652600Y-103479261D01*
X101745776Y-103479261D01*
X99616868Y-101350354D01*
X99616868Y-95104581D01*
X99672502Y-95127626D01*
X99729357Y-95138935D01*
X100791070Y-96200649D01*
X100818783Y-96234417D01*
X100852551Y-96262130D01*
X100852553Y-96262132D01*
X100873794Y-96279564D01*
X100953541Y-96345011D01*
X101107287Y-96427189D01*
X101274110Y-96477795D01*
X101404123Y-96490600D01*
X101404133Y-96490600D01*
X101447599Y-96494881D01*
X101491065Y-96490600D01*
X103753946Y-96490600D01*
X103802144Y-96522805D01*
X103990502Y-96600826D01*
X104190461Y-96640600D01*
X104394339Y-96640600D01*
X104594298Y-96600826D01*
X104782656Y-96522805D01*
X104952174Y-96409537D01*
X105096337Y-96265374D01*
X105209605Y-96095856D01*
X105287626Y-95907498D01*
X105327400Y-95707539D01*
X105327400Y-95503661D01*
X105287626Y-95303702D01*
X105209605Y-95115344D01*
X105096337Y-94945826D01*
X104952174Y-94801663D01*
X104782656Y-94688395D01*
X104594298Y-94610374D01*
X104394339Y-94570600D01*
X104190461Y-94570600D01*
X103990502Y-94610374D01*
X103802144Y-94688395D01*
X103753946Y-94720600D01*
X101814179Y-94720600D01*
X100980935Y-93887357D01*
X100969626Y-93830502D01*
X100891605Y-93642144D01*
X100778337Y-93472626D01*
X100634174Y-93328463D01*
X100464656Y-93215195D01*
X100392871Y-93185461D01*
X100585143Y-92993189D01*
X100628449Y-92957649D01*
X100663991Y-92914341D01*
X100703612Y-92874720D01*
X100734741Y-92828132D01*
X100770284Y-92784823D01*
X100796693Y-92735414D01*
X100827824Y-92688824D01*
X100849269Y-92637051D01*
X100875676Y-92587647D01*
X100891937Y-92534042D01*
X100913383Y-92482267D01*
X100924315Y-92427306D01*
X100940577Y-92373699D01*
X100946068Y-92317947D01*
X100957000Y-92262988D01*
X100957000Y-92206952D01*
X100962491Y-92151200D01*
X100957000Y-92095448D01*
X100957000Y-92039412D01*
X100948855Y-91998461D01*
X101377800Y-91998461D01*
X101377800Y-92202339D01*
X101417574Y-92402298D01*
X101495595Y-92590656D01*
X101608863Y-92760174D01*
X101753026Y-92904337D01*
X101922544Y-93017605D01*
X102110902Y-93095626D01*
X102255520Y-93124392D01*
X102353054Y-93204436D01*
X102498113Y-93281972D01*
X102655511Y-93329718D01*
X102778181Y-93341800D01*
X102778191Y-93341800D01*
X102819199Y-93345839D01*
X102860207Y-93341800D01*
X103831515Y-93341800D01*
X103954544Y-93424005D01*
X104142902Y-93502026D01*
X104342861Y-93541800D01*
X104546739Y-93541800D01*
X104746698Y-93502026D01*
X104935056Y-93424005D01*
X105104574Y-93310737D01*
X105248737Y-93166574D01*
X105362005Y-92997056D01*
X105440026Y-92808698D01*
X105479800Y-92608739D01*
X105479800Y-92404861D01*
X105440026Y-92204902D01*
X105362005Y-92016544D01*
X105248737Y-91847026D01*
X105104574Y-91702863D01*
X104935056Y-91589595D01*
X104746698Y-91511574D01*
X104546739Y-91471800D01*
X104342861Y-91471800D01*
X104142902Y-91511574D01*
X103954544Y-91589595D01*
X103831515Y-91671800D01*
X103355544Y-91671800D01*
X103330005Y-91610144D01*
X103216737Y-91440626D01*
X103072574Y-91296463D01*
X102903056Y-91183195D01*
X102714698Y-91105174D01*
X102514739Y-91065400D01*
X102310861Y-91065400D01*
X102110902Y-91105174D01*
X101922544Y-91183195D01*
X101753026Y-91296463D01*
X101608863Y-91440626D01*
X101495595Y-91610144D01*
X101417574Y-91798502D01*
X101377800Y-91998461D01*
X100948855Y-91998461D01*
X100946068Y-91984453D01*
X100940577Y-91928701D01*
X100924315Y-91875094D01*
X100913383Y-91820133D01*
X100891937Y-91768358D01*
X100875676Y-91714753D01*
X100849269Y-91665349D01*
X100827824Y-91613576D01*
X100796693Y-91566986D01*
X100770284Y-91517577D01*
X100734741Y-91474267D01*
X100703612Y-91427680D01*
X100663994Y-91388062D01*
X100663989Y-91388056D01*
X100663986Y-91388053D01*
X100628449Y-91344751D01*
X100585147Y-91309214D01*
X99179000Y-89903069D01*
X99179000Y-82902531D01*
X101226388Y-84949920D01*
X101384480Y-85108012D01*
X101431070Y-85139143D01*
X101474376Y-85174683D01*
X101523782Y-85201091D01*
X101570376Y-85232224D01*
X101622152Y-85253671D01*
X101671552Y-85280075D01*
X101725152Y-85296335D01*
X101776933Y-85317783D01*
X101831901Y-85328717D01*
X101885500Y-85344976D01*
X101941244Y-85350466D01*
X101996212Y-85361400D01*
X102052257Y-85361400D01*
X102107999Y-85366890D01*
X102163741Y-85361400D01*
X102219788Y-85361400D01*
X102274758Y-85350466D01*
X102330498Y-85344976D01*
X102384094Y-85328718D01*
X102439067Y-85317783D01*
X102490854Y-85296332D01*
X102544446Y-85280075D01*
X102593839Y-85253674D01*
X102645624Y-85232224D01*
X102692226Y-85201086D01*
X102741622Y-85174683D01*
X102784920Y-85139149D01*
X102831520Y-85108012D01*
X102871151Y-85068381D01*
X102914448Y-85032848D01*
X102949981Y-84989551D01*
X102989612Y-84949920D01*
X103020749Y-84903320D01*
X103056283Y-84860022D01*
X103082686Y-84810626D01*
X103113824Y-84764024D01*
X103135274Y-84712239D01*
X103161675Y-84662846D01*
X103177932Y-84609254D01*
X103199383Y-84557467D01*
X103210318Y-84502494D01*
X103226576Y-84448898D01*
X103232066Y-84393158D01*
X103243000Y-84338188D01*
X103243000Y-84282141D01*
X103248490Y-84226399D01*
X103243000Y-84170657D01*
X103243000Y-84114612D01*
X103232066Y-84059644D01*
X103226576Y-84003900D01*
X103210317Y-83950301D01*
X103199383Y-83895333D01*
X103177935Y-83843552D01*
X103161675Y-83789952D01*
X103135271Y-83740552D01*
X103113824Y-83688776D01*
X103082691Y-83642182D01*
X103056283Y-83592776D01*
X103020743Y-83549470D01*
X102989612Y-83502880D01*
X102831520Y-83344788D01*
X100703000Y-81216269D01*
X100703000Y-79247661D01*
X109709000Y-79247661D01*
X109709000Y-79451539D01*
X109748774Y-79651498D01*
X109826795Y-79839856D01*
X109909000Y-79962885D01*
X109909001Y-87131771D01*
X109904960Y-87172800D01*
X109909000Y-87213819D01*
X109909001Y-96936171D01*
X109904960Y-96977200D01*
X109921082Y-97140888D01*
X109968828Y-97298286D01*
X110046364Y-97443345D01*
X110046365Y-97443346D01*
X110150710Y-97570491D01*
X110182574Y-97596641D01*
X112818708Y-100232775D01*
X112847574Y-100377898D01*
X112925595Y-100566256D01*
X113038863Y-100735774D01*
X113183026Y-100879937D01*
X113352544Y-100993205D01*
X113540902Y-101071226D01*
X113740861Y-101111000D01*
X113944739Y-101111000D01*
X114144698Y-101071226D01*
X114333056Y-100993205D01*
X114502574Y-100879937D01*
X114646737Y-100735774D01*
X114760005Y-100566256D01*
X114838026Y-100377898D01*
X114877800Y-100177939D01*
X114877800Y-99974061D01*
X114838026Y-99774102D01*
X114760005Y-99585744D01*
X114646737Y-99416226D01*
X114502574Y-99272063D01*
X114333056Y-99158795D01*
X114144698Y-99080774D01*
X113999575Y-99051908D01*
X111579000Y-96631333D01*
X111579000Y-95503661D01*
X117633800Y-95503661D01*
X117633800Y-95707539D01*
X117673574Y-95907498D01*
X117751595Y-96095856D01*
X117864863Y-96265374D01*
X118009026Y-96409537D01*
X118178544Y-96522805D01*
X118366902Y-96600826D01*
X118566861Y-96640600D01*
X118770739Y-96640600D01*
X118970698Y-96600826D01*
X119159056Y-96522805D01*
X119328574Y-96409537D01*
X119472737Y-96265374D01*
X119586005Y-96095856D01*
X119664026Y-95907498D01*
X119692892Y-95762376D01*
X119850100Y-95605168D01*
X119854944Y-95608405D01*
X120043302Y-95686426D01*
X120243261Y-95726200D01*
X120447139Y-95726200D01*
X120647098Y-95686426D01*
X120835456Y-95608405D01*
X121004974Y-95495137D01*
X121149137Y-95350974D01*
X121262405Y-95181456D01*
X121340426Y-94993098D01*
X121380200Y-94793139D01*
X121380200Y-94589261D01*
X121340426Y-94389302D01*
X121262405Y-94200944D01*
X121230200Y-94152746D01*
X121230200Y-87223261D01*
X123425000Y-87223261D01*
X123425000Y-87427139D01*
X123464774Y-87627098D01*
X123542795Y-87815456D01*
X123656063Y-87984974D01*
X123800226Y-88129137D01*
X123969744Y-88242405D01*
X124158102Y-88320426D01*
X124358061Y-88360200D01*
X124561939Y-88360200D01*
X124761898Y-88320426D01*
X124950256Y-88242405D01*
X125073285Y-88160200D01*
X125649943Y-88160200D01*
X125696944Y-88191605D01*
X125885302Y-88269626D01*
X126085261Y-88309400D01*
X126289139Y-88309400D01*
X126489098Y-88269626D01*
X126677456Y-88191605D01*
X126846974Y-88078337D01*
X126991137Y-87934174D01*
X127104405Y-87764656D01*
X127182426Y-87576298D01*
X127222200Y-87376339D01*
X127222200Y-87172461D01*
X129978200Y-87172461D01*
X129978200Y-87376339D01*
X130017974Y-87576298D01*
X130095995Y-87764656D01*
X130209263Y-87934174D01*
X130353426Y-88078337D01*
X130522944Y-88191605D01*
X130711302Y-88269626D01*
X130911261Y-88309400D01*
X131115139Y-88309400D01*
X131315098Y-88269626D01*
X131503456Y-88191605D01*
X131672974Y-88078337D01*
X131817137Y-87934174D01*
X131930405Y-87764656D01*
X132008426Y-87576298D01*
X132048200Y-87376339D01*
X132048200Y-87172461D01*
X132008426Y-86972502D01*
X131930405Y-86784144D01*
X131848200Y-86661115D01*
X131848200Y-80740311D01*
X131918737Y-80669774D01*
X132032005Y-80500256D01*
X132110026Y-80311898D01*
X132149800Y-80111939D01*
X132149800Y-79908061D01*
X132110026Y-79708102D01*
X132032005Y-79519744D01*
X131918737Y-79350226D01*
X131774574Y-79206063D01*
X131605056Y-79092795D01*
X131416698Y-79014774D01*
X131216739Y-78975000D01*
X131012861Y-78975000D01*
X130812902Y-79014774D01*
X130624544Y-79092795D01*
X130455026Y-79206063D01*
X130310863Y-79350226D01*
X130197595Y-79519744D01*
X130119574Y-79708102D01*
X130079800Y-79908061D01*
X130079800Y-80111939D01*
X130119574Y-80311898D01*
X130178201Y-80453435D01*
X130178200Y-86661115D01*
X130095995Y-86784144D01*
X130017974Y-86972502D01*
X129978200Y-87172461D01*
X127222200Y-87172461D01*
X127182426Y-86972502D01*
X127104405Y-86784144D01*
X126991137Y-86614626D01*
X126846974Y-86470463D01*
X126677456Y-86357195D01*
X126489098Y-86279174D01*
X126289139Y-86239400D01*
X126085261Y-86239400D01*
X125885302Y-86279174D01*
X125696944Y-86357195D01*
X125527426Y-86470463D01*
X125507689Y-86490200D01*
X125073285Y-86490200D01*
X124950256Y-86407995D01*
X124761898Y-86329974D01*
X124561939Y-86290200D01*
X124358061Y-86290200D01*
X124158102Y-86329974D01*
X123969744Y-86407995D01*
X123800226Y-86521263D01*
X123656063Y-86665426D01*
X123542795Y-86834944D01*
X123464774Y-87023302D01*
X123425000Y-87223261D01*
X121230200Y-87223261D01*
X121230200Y-84010051D01*
X123285410Y-84010051D01*
X123285410Y-84213929D01*
X123325184Y-84413888D01*
X123403205Y-84602246D01*
X123516473Y-84771764D01*
X123660636Y-84915927D01*
X123830154Y-85029195D01*
X124018512Y-85107216D01*
X124218471Y-85146990D01*
X124422349Y-85146990D01*
X124622308Y-85107216D01*
X124810666Y-85029195D01*
X124980184Y-84915927D01*
X125124347Y-84771764D01*
X125237615Y-84602246D01*
X125315636Y-84413888D01*
X125355410Y-84213929D01*
X125355410Y-84010051D01*
X125315636Y-83810092D01*
X125237615Y-83621734D01*
X125155410Y-83498705D01*
X125155410Y-75845669D01*
X125170574Y-75835537D01*
X125314737Y-75691374D01*
X125428005Y-75521856D01*
X125506026Y-75333498D01*
X125545800Y-75133539D01*
X125545800Y-74929661D01*
X125506026Y-74729702D01*
X125428005Y-74541344D01*
X125314737Y-74371826D01*
X125170574Y-74227663D01*
X125001056Y-74114395D01*
X124812698Y-74036374D01*
X124612739Y-73996600D01*
X124408861Y-73996600D01*
X124208902Y-74036374D01*
X124020544Y-74114395D01*
X123851026Y-74227663D01*
X123706863Y-74371826D01*
X123593595Y-74541344D01*
X123515574Y-74729702D01*
X123475800Y-74929661D01*
X123475800Y-75133539D01*
X123485352Y-75181560D01*
X123481370Y-75221990D01*
X123485411Y-75263019D01*
X123485410Y-83498705D01*
X123403205Y-83621734D01*
X123325184Y-83810092D01*
X123285410Y-84010051D01*
X121230200Y-84010051D01*
X121230200Y-81005654D01*
X121262405Y-80957456D01*
X121340426Y-80769098D01*
X121380200Y-80569139D01*
X121380200Y-80365261D01*
X121340426Y-80165302D01*
X121262405Y-79976944D01*
X121180200Y-79853915D01*
X121180200Y-71314553D01*
X122577178Y-69917575D01*
X122722301Y-69888709D01*
X122910659Y-69810688D01*
X123080177Y-69697420D01*
X123224340Y-69553257D01*
X123337608Y-69383739D01*
X123415629Y-69195381D01*
X123455403Y-68995422D01*
X123455403Y-68791544D01*
X123418947Y-68608264D01*
X123485937Y-68541274D01*
X123599205Y-68371756D01*
X123677226Y-68183398D01*
X123717000Y-67983439D01*
X123717000Y-67779561D01*
X123677226Y-67579602D01*
X123599205Y-67391244D01*
X123485937Y-67221726D01*
X123341774Y-67077563D01*
X123172256Y-66964295D01*
X122983898Y-66886274D01*
X122783939Y-66846500D01*
X122580061Y-66846500D01*
X122380102Y-66886274D01*
X122191744Y-66964295D01*
X122067577Y-67047260D01*
X121952626Y-67058582D01*
X121802283Y-67104188D01*
X121795228Y-67106328D01*
X121650169Y-67183864D01*
X121631162Y-67199463D01*
X121523024Y-67288209D01*
X121496878Y-67320068D01*
X118869379Y-69947569D01*
X118837509Y-69973724D01*
X118754004Y-70075476D01*
X118733164Y-70100870D01*
X118655628Y-70245929D01*
X118607882Y-70403327D01*
X118591760Y-70567015D01*
X118595800Y-70608034D01*
X118595801Y-76463014D01*
X118513595Y-76586044D01*
X118435574Y-76774402D01*
X118395800Y-76974361D01*
X118395800Y-77178239D01*
X118435574Y-77378198D01*
X118513595Y-77566556D01*
X118626863Y-77736074D01*
X118682578Y-77791789D01*
X118656726Y-77809063D01*
X118512563Y-77953226D01*
X118399295Y-78122744D01*
X118321274Y-78311102D01*
X118281500Y-78511061D01*
X118281500Y-78714939D01*
X118321274Y-78914898D01*
X118399295Y-79103256D01*
X118512563Y-79272774D01*
X118545001Y-79305212D01*
X118545000Y-94548532D01*
X118512024Y-94581508D01*
X118366902Y-94610374D01*
X118178544Y-94688395D01*
X118009026Y-94801663D01*
X117864863Y-94945826D01*
X117751595Y-95115344D01*
X117673574Y-95303702D01*
X117633800Y-95503661D01*
X111579000Y-95503661D01*
X111579000Y-88307377D01*
X111610502Y-88320426D01*
X111810461Y-88360200D01*
X112014339Y-88360200D01*
X112214298Y-88320426D01*
X112402656Y-88242405D01*
X112572174Y-88129137D01*
X112716337Y-87984974D01*
X112829605Y-87815456D01*
X112907626Y-87627098D01*
X112947400Y-87427139D01*
X112947400Y-87223261D01*
X112907626Y-87023302D01*
X112829605Y-86834944D01*
X112716337Y-86665426D01*
X112572174Y-86521263D01*
X112402656Y-86407995D01*
X112214298Y-86329974D01*
X112014339Y-86290200D01*
X111810461Y-86290200D01*
X111610502Y-86329974D01*
X111579000Y-86343023D01*
X111579000Y-79962885D01*
X111661205Y-79839856D01*
X111739226Y-79651498D01*
X111779000Y-79451539D01*
X111779000Y-79247661D01*
X111739226Y-79047702D01*
X111661205Y-78859344D01*
X111547937Y-78689826D01*
X111403774Y-78545663D01*
X111234256Y-78432395D01*
X111045898Y-78354374D01*
X110845939Y-78314600D01*
X110642061Y-78314600D01*
X110442102Y-78354374D01*
X110253744Y-78432395D01*
X110084226Y-78545663D01*
X109940063Y-78689826D01*
X109826795Y-78859344D01*
X109748774Y-79047702D01*
X109709000Y-79247661D01*
X100703000Y-79247661D01*
X100703000Y-67264152D01*
X100708491Y-67208400D01*
X100703000Y-67152648D01*
X100703000Y-67096612D01*
X100692068Y-67041653D01*
X100686577Y-66985901D01*
X100672653Y-66940000D01*
X112801928Y-66940000D01*
X112814188Y-67064482D01*
X112850498Y-67184180D01*
X112909463Y-67294494D01*
X112988815Y-67391185D01*
X113085506Y-67470537D01*
X113195820Y-67529502D01*
X113315518Y-67565812D01*
X113440000Y-67578072D01*
X114006437Y-67575239D01*
X113919320Y-67705619D01*
X113841299Y-67893977D01*
X113801525Y-68093936D01*
X113801525Y-68297814D01*
X113841299Y-68497773D01*
X113919320Y-68686131D01*
X114001525Y-68809160D01*
X114001526Y-69729607D01*
X113889225Y-69841907D01*
X113744102Y-69870774D01*
X113555744Y-69948795D01*
X113386226Y-70062063D01*
X113242063Y-70206226D01*
X113128795Y-70375744D01*
X113050774Y-70564102D01*
X113011000Y-70764061D01*
X113011000Y-70967939D01*
X113050774Y-71167898D01*
X113128795Y-71356256D01*
X113242063Y-71525774D01*
X113386226Y-71669937D01*
X113555744Y-71783205D01*
X113744102Y-71861226D01*
X113944061Y-71901000D01*
X114147939Y-71901000D01*
X114347898Y-71861226D01*
X114536256Y-71783205D01*
X114705774Y-71669937D01*
X114739617Y-71636094D01*
X114739616Y-89469947D01*
X114735335Y-89513416D01*
X114739616Y-89556885D01*
X114739616Y-89556892D01*
X114752421Y-89686905D01*
X114803027Y-89853728D01*
X114885205Y-90007474D01*
X114995799Y-90142233D01*
X115029572Y-90169950D01*
X115782665Y-90923044D01*
X115793974Y-90979898D01*
X115871995Y-91168256D01*
X115985263Y-91337774D01*
X116129426Y-91481937D01*
X116298944Y-91595205D01*
X116487302Y-91673226D01*
X116687261Y-91713000D01*
X116891139Y-91713000D01*
X117091098Y-91673226D01*
X117279456Y-91595205D01*
X117448974Y-91481937D01*
X117593137Y-91337774D01*
X117706405Y-91168256D01*
X117784426Y-90979898D01*
X117824200Y-90779939D01*
X117824200Y-90576061D01*
X117784426Y-90376102D01*
X117706405Y-90187744D01*
X117593137Y-90018226D01*
X117448974Y-89874063D01*
X117279456Y-89760795D01*
X117091098Y-89682774D01*
X117034244Y-89671465D01*
X116509616Y-89146838D01*
X116509616Y-68894754D01*
X117435050Y-67969321D01*
X117468817Y-67941609D01*
X117496991Y-67907280D01*
X117579411Y-67806851D01*
X117661589Y-67653106D01*
X117712195Y-67486282D01*
X117712195Y-67486281D01*
X117725000Y-67356269D01*
X117725000Y-67356261D01*
X117729281Y-67312792D01*
X117727353Y-67293218D01*
X117818505Y-67232312D01*
X118032312Y-67018505D01*
X118090000Y-66932169D01*
X118147688Y-67018505D01*
X118361495Y-67232312D01*
X118612905Y-67400299D01*
X118892257Y-67516011D01*
X119188816Y-67575000D01*
X119491184Y-67575000D01*
X119787743Y-67516011D01*
X120067095Y-67400299D01*
X120318505Y-67232312D01*
X120532312Y-67018505D01*
X120700299Y-66767095D01*
X120816011Y-66487743D01*
X120875000Y-66191184D01*
X120875000Y-65888816D01*
X120816011Y-65592257D01*
X120700299Y-65312905D01*
X120532312Y-65061495D01*
X120318505Y-64847688D01*
X120067095Y-64679701D01*
X119916353Y-64617261D01*
X131044998Y-64617261D01*
X131044998Y-64821139D01*
X131084772Y-65021098D01*
X131162793Y-65209456D01*
X131276061Y-65378974D01*
X131420224Y-65523137D01*
X131589742Y-65636405D01*
X131778100Y-65714426D01*
X131978059Y-65754200D01*
X132181937Y-65754200D01*
X132381896Y-65714426D01*
X132570254Y-65636405D01*
X132693283Y-65554200D01*
X134921833Y-65554200D01*
X135436000Y-66068368D01*
X135436001Y-86441914D01*
X131582079Y-90295837D01*
X131550209Y-90321992D01*
X131462431Y-90428951D01*
X131445864Y-90449138D01*
X131368328Y-90594197D01*
X131320582Y-90751595D01*
X131304460Y-90915283D01*
X131308500Y-90956302D01*
X131308501Y-103463970D01*
X131304460Y-103504999D01*
X131320582Y-103668687D01*
X131368328Y-103826085D01*
X131445176Y-103969856D01*
X131445865Y-103971145D01*
X131550210Y-104098290D01*
X131582074Y-104124440D01*
X132008408Y-104550775D01*
X132037275Y-104695898D01*
X132115296Y-104884256D01*
X132228564Y-105053774D01*
X132372727Y-105197937D01*
X132542245Y-105311205D01*
X132730603Y-105389226D01*
X132930562Y-105429000D01*
X133134440Y-105429000D01*
X133334399Y-105389226D01*
X133522757Y-105311205D01*
X133692275Y-105197937D01*
X133836438Y-105053774D01*
X133949706Y-104884256D01*
X134027727Y-104695898D01*
X134067501Y-104495939D01*
X134067501Y-104292061D01*
X134030886Y-104107984D01*
X134059836Y-104079034D01*
X134173104Y-103909516D01*
X134251125Y-103721158D01*
X134290899Y-103521199D01*
X134290899Y-103317321D01*
X134251125Y-103117362D01*
X134173104Y-102929004D01*
X134059836Y-102759486D01*
X133915673Y-102615323D01*
X133746155Y-102502055D01*
X133677000Y-102473410D01*
X133677000Y-91411193D01*
X137518227Y-87569967D01*
X137550091Y-87543817D01*
X137654436Y-87416672D01*
X137731972Y-87271613D01*
X137779718Y-87114215D01*
X137791800Y-86991545D01*
X137795840Y-86950526D01*
X137791800Y-86909508D01*
X137791800Y-81813061D01*
X140062000Y-81813061D01*
X140062000Y-82016939D01*
X140101774Y-82216898D01*
X140179795Y-82405256D01*
X140262001Y-82528286D01*
X140262000Y-86572981D01*
X140257960Y-86614000D01*
X140262000Y-86655018D01*
X140274082Y-86777688D01*
X140321828Y-86935086D01*
X140399364Y-87080145D01*
X140503709Y-87207291D01*
X140535579Y-87233446D01*
X146803908Y-93501776D01*
X146832774Y-93646898D01*
X146910795Y-93835256D01*
X147024063Y-94004774D01*
X147168226Y-94148937D01*
X147337744Y-94262205D01*
X147526102Y-94340226D01*
X147726061Y-94380000D01*
X147929939Y-94380000D01*
X148129898Y-94340226D01*
X148318256Y-94262205D01*
X148487774Y-94148937D01*
X148631937Y-94004774D01*
X148745205Y-93835256D01*
X148823226Y-93646898D01*
X148863000Y-93446939D01*
X148863000Y-93243061D01*
X148823226Y-93043102D01*
X148745205Y-92854744D01*
X148631937Y-92685226D01*
X148487774Y-92541063D01*
X148318256Y-92427795D01*
X148129898Y-92349774D01*
X147984776Y-92320908D01*
X141932000Y-86268133D01*
X141932000Y-82528285D01*
X142014205Y-82405256D01*
X142092226Y-82216898D01*
X142132000Y-82016939D01*
X142132000Y-81813061D01*
X142092226Y-81613102D01*
X142014205Y-81424744D01*
X141900937Y-81255226D01*
X141756774Y-81111063D01*
X141587256Y-80997795D01*
X141398898Y-80919774D01*
X141198939Y-80880000D01*
X140995061Y-80880000D01*
X140795102Y-80919774D01*
X140606744Y-80997795D01*
X140437226Y-81111063D01*
X140293063Y-81255226D01*
X140179795Y-81424744D01*
X140101774Y-81613102D01*
X140062000Y-81813061D01*
X137791800Y-81813061D01*
X137791800Y-65383285D01*
X137874005Y-65260256D01*
X137923817Y-65140000D01*
X143281928Y-65140000D01*
X143281928Y-66940000D01*
X143294188Y-67064482D01*
X143330498Y-67184180D01*
X143389463Y-67294494D01*
X143468815Y-67391185D01*
X143565506Y-67470537D01*
X143675820Y-67529502D01*
X143795518Y-67565812D01*
X143920000Y-67578072D01*
X145720000Y-67578072D01*
X145844482Y-67565812D01*
X145964180Y-67529502D01*
X146074494Y-67470537D01*
X146171185Y-67391185D01*
X146250537Y-67294494D01*
X146303880Y-67194697D01*
X146341495Y-67232312D01*
X146592905Y-67400299D01*
X146872257Y-67516011D01*
X147168816Y-67575000D01*
X147471184Y-67575000D01*
X147767743Y-67516011D01*
X148047095Y-67400299D01*
X148298505Y-67232312D01*
X148512312Y-67018505D01*
X148570000Y-66932169D01*
X148627688Y-67018505D01*
X148841495Y-67232312D01*
X149092905Y-67400299D01*
X149372257Y-67516011D01*
X149668816Y-67575000D01*
X149971184Y-67575000D01*
X150267743Y-67516011D01*
X150547095Y-67400299D01*
X150798505Y-67232312D01*
X151012312Y-67018505D01*
X151180299Y-66767095D01*
X151296011Y-66487743D01*
X151355000Y-66191184D01*
X151355000Y-65888816D01*
X151296011Y-65592257D01*
X151180299Y-65312905D01*
X151012312Y-65061495D01*
X150798505Y-64847688D01*
X150547095Y-64679701D01*
X150267743Y-64563989D01*
X149971184Y-64505000D01*
X149668816Y-64505000D01*
X149372257Y-64563989D01*
X149092905Y-64679701D01*
X148841495Y-64847688D01*
X148627688Y-65061495D01*
X148570000Y-65147831D01*
X148512312Y-65061495D01*
X148298505Y-64847688D01*
X148047095Y-64679701D01*
X147767743Y-64563989D01*
X147471184Y-64505000D01*
X147168816Y-64505000D01*
X146872257Y-64563989D01*
X146592905Y-64679701D01*
X146341495Y-64847688D01*
X146303880Y-64885303D01*
X146250537Y-64785506D01*
X146171185Y-64688815D01*
X146074494Y-64609463D01*
X145964180Y-64550498D01*
X145844482Y-64514188D01*
X145720000Y-64501928D01*
X143920000Y-64501928D01*
X143795518Y-64514188D01*
X143675820Y-64550498D01*
X143565506Y-64609463D01*
X143468815Y-64688815D01*
X143389463Y-64785506D01*
X143330498Y-64895820D01*
X143294188Y-65015518D01*
X143281928Y-65140000D01*
X137923817Y-65140000D01*
X137952026Y-65071898D01*
X137991800Y-64871939D01*
X137991800Y-64668061D01*
X137952026Y-64468102D01*
X137874005Y-64279744D01*
X137760737Y-64110226D01*
X137616574Y-63966063D01*
X137447056Y-63852795D01*
X137258698Y-63774774D01*
X137058739Y-63735000D01*
X136854861Y-63735000D01*
X136654902Y-63774774D01*
X136466544Y-63852795D01*
X136297026Y-63966063D01*
X136152863Y-64110226D01*
X136039595Y-64279744D01*
X136030666Y-64301299D01*
X135887146Y-64157779D01*
X135860991Y-64125909D01*
X135733846Y-64021564D01*
X135588787Y-63944028D01*
X135431389Y-63896282D01*
X135308719Y-63884200D01*
X135308718Y-63884200D01*
X135267700Y-63880160D01*
X135226682Y-63884200D01*
X132693283Y-63884200D01*
X132570254Y-63801995D01*
X132381896Y-63723974D01*
X132181937Y-63684200D01*
X131978059Y-63684200D01*
X131778100Y-63723974D01*
X131589742Y-63801995D01*
X131420224Y-63915263D01*
X131276061Y-64059426D01*
X131162793Y-64228944D01*
X131084772Y-64417302D01*
X131044998Y-64617261D01*
X119916353Y-64617261D01*
X119787743Y-64563989D01*
X119491184Y-64505000D01*
X119188816Y-64505000D01*
X118892257Y-64563989D01*
X118612905Y-64679701D01*
X118361495Y-64847688D01*
X118147688Y-65061495D01*
X118090000Y-65147831D01*
X118032312Y-65061495D01*
X117818505Y-64847688D01*
X117567095Y-64679701D01*
X117287743Y-64563989D01*
X116991184Y-64505000D01*
X116688816Y-64505000D01*
X116392257Y-64563989D01*
X116112905Y-64679701D01*
X115861495Y-64847688D01*
X115823880Y-64885303D01*
X115770537Y-64785506D01*
X115691185Y-64688815D01*
X115594494Y-64609463D01*
X115484180Y-64550498D01*
X115364482Y-64514188D01*
X115240000Y-64501928D01*
X114625750Y-64505000D01*
X114467000Y-64663750D01*
X114467000Y-65913000D01*
X114487000Y-65913000D01*
X114487000Y-66167000D01*
X114467000Y-66167000D01*
X114467000Y-66187000D01*
X114213000Y-66187000D01*
X114213000Y-66167000D01*
X112963750Y-66167000D01*
X112805000Y-66325750D01*
X112801928Y-66940000D01*
X100672653Y-66940000D01*
X100670315Y-66932294D01*
X100659383Y-66877333D01*
X100637937Y-66825558D01*
X100621676Y-66771953D01*
X100595269Y-66722549D01*
X100573824Y-66670776D01*
X100542693Y-66624186D01*
X100516284Y-66574777D01*
X100480741Y-66531468D01*
X100449612Y-66484880D01*
X100409991Y-66445259D01*
X100374449Y-66401951D01*
X100331141Y-66366409D01*
X100291520Y-66326788D01*
X100244932Y-66295659D01*
X100201623Y-66260116D01*
X100152214Y-66233707D01*
X100105624Y-66202576D01*
X100053851Y-66181131D01*
X100004447Y-66154724D01*
X99950842Y-66138463D01*
X99899067Y-66117017D01*
X99844106Y-66106085D01*
X99790499Y-66089823D01*
X99734747Y-66084332D01*
X99679788Y-66073400D01*
X99623752Y-66073400D01*
X99568000Y-66067909D01*
X99512249Y-66073400D01*
X98963352Y-66073400D01*
X98907600Y-66067909D01*
X98851848Y-66073400D01*
X98685101Y-66089823D01*
X98471153Y-66154724D01*
X98273977Y-66260116D01*
X98101151Y-66401951D01*
X98065608Y-66445260D01*
X97280860Y-67230009D01*
X97237552Y-67265551D01*
X97095717Y-67438377D01*
X97056246Y-67512223D01*
X96990324Y-67635554D01*
X96925423Y-67849502D01*
X96903509Y-68072000D01*
X92143579Y-68072000D01*
X90373060Y-66301482D01*
X90395000Y-66191184D01*
X90395000Y-65888816D01*
X90336011Y-65592257D01*
X90220299Y-65312905D01*
X90104768Y-65140000D01*
X112801928Y-65140000D01*
X112805000Y-65754250D01*
X112963750Y-65913000D01*
X114213000Y-65913000D01*
X114213000Y-64663750D01*
X114054250Y-64505000D01*
X113440000Y-64501928D01*
X113315518Y-64514188D01*
X113195820Y-64550498D01*
X113085506Y-64609463D01*
X112988815Y-64688815D01*
X112909463Y-64785506D01*
X112850498Y-64895820D01*
X112814188Y-65015518D01*
X112801928Y-65140000D01*
X90104768Y-65140000D01*
X90052312Y-65061495D01*
X89838505Y-64847688D01*
X89587095Y-64679701D01*
X89307743Y-64563989D01*
X89011184Y-64505000D01*
X88708816Y-64505000D01*
X88412257Y-64563989D01*
X88132905Y-64679701D01*
X87881495Y-64847688D01*
X87667688Y-65061495D01*
X87610000Y-65147831D01*
X87552312Y-65061495D01*
X87338505Y-64847688D01*
X87087095Y-64679701D01*
X86807743Y-64563989D01*
X86511184Y-64505000D01*
X86208816Y-64505000D01*
X85912257Y-64563989D01*
X85632905Y-64679701D01*
X85381495Y-64847688D01*
X85343880Y-64885303D01*
X85290537Y-64785506D01*
X85211185Y-64688815D01*
X85114494Y-64609463D01*
X85004180Y-64550498D01*
X84884482Y-64514188D01*
X84760000Y-64501928D01*
X84145750Y-64505000D01*
X83987000Y-64663750D01*
X83733000Y-64663750D01*
X83574250Y-64505000D01*
X82960000Y-64501928D01*
X82835518Y-64514188D01*
X82715820Y-64550498D01*
X82605506Y-64609463D01*
X82508815Y-64688815D01*
X82429463Y-64785506D01*
X82370498Y-64895820D01*
X82334188Y-65015518D01*
X82321928Y-65140000D01*
X76860000Y-65140000D01*
X76860000Y-58182002D01*
X79565000Y-58182002D01*
X79565000Y-58897997D01*
X79593867Y-59191087D01*
X79707943Y-59567146D01*
X79893193Y-59913725D01*
X80142497Y-60217503D01*
X80446275Y-60466807D01*
X80792853Y-60652057D01*
X81168912Y-60766133D01*
X81560000Y-60804652D01*
X81951087Y-60766133D01*
X82327146Y-60652057D01*
X82673725Y-60466807D01*
X82977503Y-60217503D01*
X83226807Y-59913725D01*
X83412057Y-59567147D01*
X83526133Y-59191088D01*
X83555000Y-58897998D01*
X83555000Y-58182003D01*
X83555000Y-58182002D01*
X89165000Y-58182002D01*
X89165000Y-58897997D01*
X89193867Y-59191087D01*
X89307943Y-59567146D01*
X89493193Y-59913725D01*
X89742497Y-60217503D01*
X90046275Y-60466807D01*
X90392853Y-60652057D01*
X90768912Y-60766133D01*
X91160000Y-60804652D01*
X91551087Y-60766133D01*
X91927146Y-60652057D01*
X92273725Y-60466807D01*
X92577503Y-60217503D01*
X92826807Y-59913725D01*
X93012057Y-59567147D01*
X93126133Y-59191088D01*
X93155000Y-58897998D01*
X93155000Y-58182003D01*
X93126133Y-57888913D01*
X93029393Y-57570000D01*
X96809928Y-57570000D01*
X96809928Y-59270000D01*
X96822188Y-59394482D01*
X96858498Y-59514180D01*
X96917463Y-59624494D01*
X96996815Y-59721185D01*
X97093506Y-59800537D01*
X97203820Y-59859502D01*
X97323518Y-59895812D01*
X97448000Y-59908072D01*
X99148000Y-59908072D01*
X99272482Y-59895812D01*
X99392180Y-59859502D01*
X99502494Y-59800537D01*
X99599185Y-59721185D01*
X99678537Y-59624494D01*
X99737502Y-59514180D01*
X99761966Y-59433534D01*
X99837731Y-59517588D01*
X100071080Y-59691641D01*
X100333901Y-59816825D01*
X100481110Y-59861476D01*
X100711000Y-59740155D01*
X100711000Y-58547000D01*
X100965000Y-58547000D01*
X100965000Y-59740155D01*
X101194890Y-59861476D01*
X101342099Y-59816825D01*
X101604920Y-59691641D01*
X101838269Y-59517588D01*
X102033178Y-59301355D01*
X102182157Y-59051252D01*
X102279481Y-58776891D01*
X102158814Y-58547000D01*
X100965000Y-58547000D01*
X100711000Y-58547000D01*
X100691000Y-58547000D01*
X100691000Y-58293000D01*
X100711000Y-58293000D01*
X100711000Y-57099845D01*
X100965000Y-57099845D01*
X100965000Y-58293000D01*
X102158814Y-58293000D01*
X102217075Y-58182002D01*
X110045000Y-58182002D01*
X110045000Y-58897997D01*
X110073867Y-59191087D01*
X110187943Y-59567146D01*
X110373193Y-59913725D01*
X110622497Y-60217503D01*
X110926275Y-60466807D01*
X111272853Y-60652057D01*
X111648912Y-60766133D01*
X112040000Y-60804652D01*
X112431087Y-60766133D01*
X112807146Y-60652057D01*
X113153725Y-60466807D01*
X113457503Y-60217503D01*
X113706807Y-59913725D01*
X113892057Y-59567147D01*
X114006133Y-59191088D01*
X114035000Y-58897998D01*
X114035000Y-58182003D01*
X114035000Y-58182002D01*
X119645000Y-58182002D01*
X119645000Y-58897997D01*
X119673867Y-59191087D01*
X119787943Y-59567146D01*
X119973193Y-59913725D01*
X120222497Y-60217503D01*
X120526275Y-60466807D01*
X120872853Y-60652057D01*
X121248912Y-60766133D01*
X121640000Y-60804652D01*
X122031087Y-60766133D01*
X122407146Y-60652057D01*
X122753725Y-60466807D01*
X123057503Y-60217503D01*
X123306807Y-59913725D01*
X123492057Y-59567147D01*
X123606133Y-59191088D01*
X123635000Y-58897998D01*
X123635000Y-58268816D01*
X130545000Y-58268816D01*
X130545000Y-58571184D01*
X130603989Y-58867743D01*
X130719701Y-59147095D01*
X130887688Y-59398505D01*
X131101495Y-59612312D01*
X131352905Y-59780299D01*
X131632257Y-59896011D01*
X131928816Y-59955000D01*
X132231184Y-59955000D01*
X132527743Y-59896011D01*
X132807095Y-59780299D01*
X133058505Y-59612312D01*
X133272312Y-59398505D01*
X133374951Y-59244895D01*
X133555920Y-59304475D01*
X134440395Y-58420000D01*
X133555920Y-57535525D01*
X133374951Y-57595105D01*
X133272312Y-57441495D01*
X133186737Y-57355920D01*
X133735525Y-57355920D01*
X134620000Y-58240395D01*
X134634143Y-58226253D01*
X134813748Y-58405858D01*
X134799605Y-58420000D01*
X134813748Y-58434143D01*
X134634143Y-58613748D01*
X134620000Y-58599605D01*
X133735525Y-59484080D01*
X133819208Y-59738261D01*
X134091775Y-59869158D01*
X134384642Y-59944365D01*
X134686553Y-59960991D01*
X134985907Y-59918397D01*
X135271199Y-59818222D01*
X135420792Y-59738261D01*
X135504474Y-59484082D01*
X135620422Y-59600030D01*
X135667187Y-59553265D01*
X135670498Y-59564180D01*
X135729463Y-59674494D01*
X135808815Y-59771185D01*
X135905506Y-59850537D01*
X136015820Y-59909502D01*
X136135518Y-59945812D01*
X136260000Y-59958072D01*
X138060000Y-59958072D01*
X138184482Y-59945812D01*
X138304180Y-59909502D01*
X138414494Y-59850537D01*
X138511185Y-59771185D01*
X138590537Y-59674494D01*
X138649502Y-59564180D01*
X138685812Y-59444482D01*
X138698072Y-59320000D01*
X138698072Y-58182002D01*
X140525000Y-58182002D01*
X140525000Y-58897997D01*
X140553867Y-59191087D01*
X140667943Y-59567146D01*
X140853193Y-59913725D01*
X141102497Y-60217503D01*
X141406275Y-60466807D01*
X141752853Y-60652057D01*
X142128912Y-60766133D01*
X142520000Y-60804652D01*
X142911087Y-60766133D01*
X143287146Y-60652057D01*
X143633725Y-60466807D01*
X143937503Y-60217503D01*
X144186807Y-59913725D01*
X144372057Y-59567147D01*
X144486133Y-59191088D01*
X144515000Y-58897998D01*
X144515000Y-58182003D01*
X144515000Y-58182002D01*
X150125000Y-58182002D01*
X150125000Y-58897997D01*
X150153867Y-59191087D01*
X150267943Y-59567146D01*
X150453193Y-59913725D01*
X150702497Y-60217503D01*
X151006275Y-60466807D01*
X151352853Y-60652057D01*
X151728912Y-60766133D01*
X152120000Y-60804652D01*
X152511087Y-60766133D01*
X152887146Y-60652057D01*
X153233725Y-60466807D01*
X153537503Y-60217503D01*
X153786807Y-59913725D01*
X153972057Y-59567147D01*
X154086133Y-59191088D01*
X154115000Y-58897998D01*
X154115000Y-58182003D01*
X154086133Y-57888913D01*
X153972057Y-57512853D01*
X153786807Y-57166275D01*
X153537503Y-56862497D01*
X153233725Y-56613193D01*
X152887147Y-56427943D01*
X152511088Y-56313867D01*
X152120000Y-56275348D01*
X151728913Y-56313867D01*
X151352854Y-56427943D01*
X151006276Y-56613193D01*
X150702498Y-56862497D01*
X150453193Y-57166275D01*
X150267943Y-57512853D01*
X150153867Y-57888912D01*
X150125000Y-58182002D01*
X144515000Y-58182002D01*
X144486133Y-57888913D01*
X144372057Y-57512853D01*
X144186807Y-57166275D01*
X143937503Y-56862497D01*
X143633725Y-56613193D01*
X143287147Y-56427943D01*
X142911088Y-56313867D01*
X142520000Y-56275348D01*
X142128913Y-56313867D01*
X141752854Y-56427943D01*
X141406276Y-56613193D01*
X141102498Y-56862497D01*
X140853193Y-57166275D01*
X140667943Y-57512853D01*
X140553867Y-57888912D01*
X140525000Y-58182002D01*
X138698072Y-58182002D01*
X138698072Y-57520000D01*
X138685812Y-57395518D01*
X138649502Y-57275820D01*
X138590537Y-57165506D01*
X138511185Y-57068815D01*
X138414494Y-56989463D01*
X138304180Y-56930498D01*
X138184482Y-56894188D01*
X138060000Y-56881928D01*
X136260000Y-56881928D01*
X136135518Y-56894188D01*
X136015820Y-56930498D01*
X135905506Y-56989463D01*
X135808815Y-57068815D01*
X135729463Y-57165506D01*
X135670498Y-57275820D01*
X135667187Y-57286735D01*
X135620422Y-57239970D01*
X135504474Y-57355918D01*
X135420792Y-57101739D01*
X135148225Y-56970842D01*
X134855358Y-56895635D01*
X134553447Y-56879009D01*
X134254093Y-56921603D01*
X133968801Y-57021778D01*
X133819208Y-57101739D01*
X133735525Y-57355920D01*
X133186737Y-57355920D01*
X133058505Y-57227688D01*
X132807095Y-57059701D01*
X132527743Y-56943989D01*
X132231184Y-56885000D01*
X131928816Y-56885000D01*
X131632257Y-56943989D01*
X131352905Y-57059701D01*
X131101495Y-57227688D01*
X130887688Y-57441495D01*
X130719701Y-57692905D01*
X130603989Y-57972257D01*
X130545000Y-58268816D01*
X123635000Y-58268816D01*
X123635000Y-58182003D01*
X123606133Y-57888913D01*
X123492057Y-57512853D01*
X123306807Y-57166275D01*
X123057503Y-56862497D01*
X122753725Y-56613193D01*
X122407147Y-56427943D01*
X122031088Y-56313867D01*
X121640000Y-56275348D01*
X121248913Y-56313867D01*
X120872854Y-56427943D01*
X120526276Y-56613193D01*
X120222498Y-56862497D01*
X119973193Y-57166275D01*
X119787943Y-57512853D01*
X119673867Y-57888912D01*
X119645000Y-58182002D01*
X114035000Y-58182002D01*
X114006133Y-57888913D01*
X113892057Y-57512853D01*
X113706807Y-57166275D01*
X113457503Y-56862497D01*
X113153725Y-56613193D01*
X112807147Y-56427943D01*
X112431088Y-56313867D01*
X112040000Y-56275348D01*
X111648913Y-56313867D01*
X111272854Y-56427943D01*
X110926276Y-56613193D01*
X110622498Y-56862497D01*
X110373193Y-57166275D01*
X110187943Y-57512853D01*
X110073867Y-57888912D01*
X110045000Y-58182002D01*
X102217075Y-58182002D01*
X102279481Y-58063109D01*
X102182157Y-57788748D01*
X102033178Y-57538645D01*
X101838269Y-57322412D01*
X101604920Y-57148359D01*
X101342099Y-57023175D01*
X101194890Y-56978524D01*
X100965000Y-57099845D01*
X100711000Y-57099845D01*
X100481110Y-56978524D01*
X100333901Y-57023175D01*
X100071080Y-57148359D01*
X99837731Y-57322412D01*
X99761966Y-57406466D01*
X99737502Y-57325820D01*
X99678537Y-57215506D01*
X99599185Y-57118815D01*
X99502494Y-57039463D01*
X99392180Y-56980498D01*
X99272482Y-56944188D01*
X99148000Y-56931928D01*
X97448000Y-56931928D01*
X97323518Y-56944188D01*
X97203820Y-56980498D01*
X97093506Y-57039463D01*
X96996815Y-57118815D01*
X96917463Y-57215506D01*
X96858498Y-57325820D01*
X96822188Y-57445518D01*
X96809928Y-57570000D01*
X93029393Y-57570000D01*
X93012057Y-57512853D01*
X92826807Y-57166275D01*
X92577503Y-56862497D01*
X92273725Y-56613193D01*
X91927147Y-56427943D01*
X91551088Y-56313867D01*
X91160000Y-56275348D01*
X90768913Y-56313867D01*
X90392854Y-56427943D01*
X90046276Y-56613193D01*
X89742498Y-56862497D01*
X89493193Y-57166275D01*
X89307943Y-57512853D01*
X89193867Y-57888912D01*
X89165000Y-58182002D01*
X83555000Y-58182002D01*
X83526133Y-57888913D01*
X83412057Y-57512853D01*
X83226807Y-57166275D01*
X82977503Y-56862497D01*
X82673725Y-56613193D01*
X82327147Y-56427943D01*
X81951088Y-56313867D01*
X81560000Y-56275348D01*
X81168913Y-56313867D01*
X80792854Y-56427943D01*
X80446276Y-56613193D01*
X80142498Y-56862497D01*
X79893193Y-57166275D01*
X79707943Y-57512853D01*
X79593867Y-57888912D01*
X79565000Y-58182002D01*
X76860000Y-58182002D01*
X76860000Y-55909392D01*
X76932437Y-55097751D01*
X77139672Y-54340226D01*
X77477777Y-53631375D01*
X77936067Y-52993596D01*
X78500055Y-52447054D01*
X79151913Y-52009023D01*
X79871038Y-51693349D01*
X80639768Y-51508794D01*
X81304207Y-51460000D01*
X152370608Y-51460000D01*
X153182249Y-51532437D01*
G37*
X153182249Y-51532437D02*
X153939774Y-51739672D01*
X154648625Y-52077777D01*
X155286404Y-52536067D01*
X155832946Y-53100055D01*
X156270977Y-53751913D01*
X156586651Y-54471038D01*
X156771206Y-55239768D01*
X156820001Y-55904221D01*
X156820000Y-85426405D01*
X156629439Y-85388500D01*
X156425561Y-85388500D01*
X156225602Y-85428274D01*
X156037244Y-85506295D01*
X155914215Y-85588500D01*
X154323535Y-85588500D01*
X154308927Y-85566638D01*
X154164764Y-85422475D01*
X153995246Y-85309207D01*
X153806888Y-85231186D01*
X153606929Y-85191412D01*
X153403051Y-85191412D01*
X153203092Y-85231186D01*
X153014734Y-85309207D01*
X152845216Y-85422475D01*
X152701053Y-85566638D01*
X152587785Y-85736156D01*
X152509764Y-85924514D01*
X152469990Y-86124473D01*
X152469990Y-86328351D01*
X152509764Y-86528310D01*
X152587785Y-86716668D01*
X152701053Y-86886186D01*
X152845216Y-87030349D01*
X153014734Y-87143617D01*
X153203092Y-87221638D01*
X153403051Y-87261412D01*
X153606929Y-87261412D01*
X153634647Y-87255899D01*
X153661059Y-87258500D01*
X153661060Y-87258500D01*
X153702078Y-87262540D01*
X153743096Y-87258500D01*
X155914215Y-87258500D01*
X156037244Y-87340705D01*
X156225602Y-87418726D01*
X156425561Y-87458500D01*
X156629439Y-87458500D01*
X156820000Y-87420595D01*
X156820000Y-106650608D01*
X156747563Y-107462249D01*
X156540328Y-108219774D01*
X156202221Y-108928627D01*
X155743928Y-109566410D01*
X155179945Y-110112946D01*
X154528085Y-110550978D01*
X153808963Y-110866651D01*
X153040232Y-111051206D01*
X152375792Y-111100000D01*
X81309392Y-111100000D01*
X80497751Y-111027563D01*
X79740226Y-110820328D01*
X79031373Y-110482221D01*
X78393590Y-110023928D01*
X77847054Y-109459945D01*
X77793926Y-109380881D01*
X78758724Y-109380881D01*
X79118912Y-109870548D01*
X79782882Y-110230849D01*
X80504385Y-110454694D01*
X81255695Y-110533480D01*
X82007938Y-110464178D01*
X82732208Y-110249452D01*
X83400670Y-109897555D01*
X83441088Y-109870548D01*
X83801276Y-109380881D01*
X81280000Y-106859605D01*
X78758724Y-109380881D01*
X77793926Y-109380881D01*
X77409022Y-108808085D01*
X77093349Y-108088963D01*
X76908794Y-107320232D01*
X76860000Y-106655792D01*
X76860000Y-106655695D01*
X77426520Y-106655695D01*
X77495822Y-107407938D01*
X77710548Y-108132208D01*
X78062445Y-108800670D01*
X78089452Y-108841088D01*
X78579119Y-109201276D01*
X81100395Y-106680000D01*
X81459605Y-106680000D01*
X83980881Y-109201276D01*
X84470548Y-108841088D01*
X84830849Y-108177118D01*
X85054694Y-107455615D01*
X85133480Y-106704305D01*
X85064178Y-105952062D01*
X84849452Y-105227792D01*
X84497555Y-104559330D01*
X84470548Y-104518912D01*
X83980881Y-104158724D01*
X81459605Y-106680000D01*
X81100395Y-106680000D01*
X78579119Y-104158724D01*
X78089452Y-104518912D01*
X77729151Y-105182882D01*
X77505306Y-105904385D01*
X77426520Y-106655695D01*
X76860000Y-106655695D01*
X76860000Y-103979119D01*
X78758724Y-103979119D01*
X81280000Y-106500395D01*
X83801276Y-103979119D01*
X83441088Y-103489452D01*
X82777118Y-103129151D01*
X82055615Y-102905306D01*
X81304305Y-102826520D01*
X80552062Y-102895822D01*
X79827792Y-103110548D01*
X79159330Y-103462445D01*
X79118912Y-103489452D01*
X78758724Y-103979119D01*
X76860000Y-103979119D01*
X76860000Y-96383589D01*
X80530000Y-96383589D01*
X80530000Y-96656411D01*
X80583225Y-96923989D01*
X80687629Y-97176043D01*
X80839201Y-97402886D01*
X81032114Y-97595799D01*
X81258957Y-97747371D01*
X81511011Y-97851775D01*
X81778589Y-97905000D01*
X82051411Y-97905000D01*
X82318989Y-97851775D01*
X82571043Y-97747371D01*
X82797886Y-97595799D01*
X82990799Y-97402886D01*
X83142371Y-97176043D01*
X83246775Y-96923989D01*
X83300000Y-96656411D01*
X83300000Y-96383589D01*
X83246775Y-96116011D01*
X83142371Y-95863957D01*
X82990799Y-95637114D01*
X82797886Y-95444201D01*
X82571043Y-95292629D01*
X82318989Y-95188225D01*
X82051411Y-95135000D01*
X81778589Y-95135000D01*
X81511011Y-95188225D01*
X81258957Y-95292629D01*
X81032114Y-95444201D01*
X80839201Y-95637114D01*
X80687629Y-95863957D01*
X80583225Y-96116011D01*
X80530000Y-96383589D01*
X76860000Y-96383589D01*
X76860000Y-91383589D01*
X80530000Y-91383589D01*
X80530000Y-91656411D01*
X80583225Y-91923989D01*
X80687629Y-92176043D01*
X80839201Y-92402886D01*
X81032114Y-92595799D01*
X81258957Y-92747371D01*
X81511011Y-92851775D01*
X81778589Y-92905000D01*
X82051411Y-92905000D01*
X82318989Y-92851775D01*
X82571043Y-92747371D01*
X82797886Y-92595799D01*
X82990799Y-92402886D01*
X83142371Y-92176043D01*
X83246775Y-91923989D01*
X83300000Y-91656411D01*
X83300000Y-91383589D01*
X83246775Y-91116011D01*
X83142371Y-90863957D01*
X82990799Y-90637114D01*
X82797886Y-90444201D01*
X82571043Y-90292629D01*
X82318989Y-90188225D01*
X82051411Y-90135000D01*
X81778589Y-90135000D01*
X81511011Y-90188225D01*
X81258957Y-90292629D01*
X81032114Y-90444201D01*
X80839201Y-90637114D01*
X80687629Y-90863957D01*
X80583225Y-91116011D01*
X80530000Y-91383589D01*
X76860000Y-91383589D01*
X76860000Y-84176890D01*
X78568524Y-84176890D01*
X78613175Y-84324099D01*
X78738359Y-84586920D01*
X78912412Y-84820269D01*
X79128645Y-85015178D01*
X79378748Y-85164157D01*
X79653109Y-85261481D01*
X79883000Y-85140814D01*
X79883000Y-83947000D01*
X80137000Y-83947000D01*
X80137000Y-85140814D01*
X80366891Y-85261481D01*
X80641252Y-85164157D01*
X80891355Y-85015178D01*
X81107588Y-84820269D01*
X81281641Y-84586920D01*
X81406825Y-84324099D01*
X81451476Y-84176890D01*
X81330155Y-83947000D01*
X80137000Y-83947000D01*
X79883000Y-83947000D01*
X78689845Y-83947000D01*
X78568524Y-84176890D01*
X76860000Y-84176890D01*
X76860000Y-77890000D01*
X78521928Y-77890000D01*
X78521928Y-79590000D01*
X78534188Y-79714482D01*
X78570498Y-79834180D01*
X78629463Y-79944494D01*
X78708815Y-80041185D01*
X78805506Y-80120537D01*
X78915820Y-80179502D01*
X78988380Y-80201513D01*
X78856525Y-80333368D01*
X78694010Y-80576589D01*
X78582068Y-80846842D01*
X78525000Y-81133740D01*
X78525000Y-81426260D01*
X78582068Y-81713158D01*
X78694010Y-81983411D01*
X78856525Y-82226632D01*
X79063368Y-82433475D01*
X79245534Y-82555195D01*
X79128645Y-82624822D01*
X78912412Y-82819731D01*
X78738359Y-83053080D01*
X78613175Y-83315901D01*
X78568524Y-83463110D01*
X78689845Y-83693000D01*
X79883000Y-83693000D01*
X79883000Y-83673000D01*
X80137000Y-83673000D01*
X80137000Y-83693000D01*
X81330155Y-83693000D01*
X81451476Y-83463110D01*
X81406825Y-83315901D01*
X81281641Y-83053080D01*
X81107588Y-82819731D01*
X80891355Y-82624822D01*
X80774466Y-82555195D01*
X80956632Y-82433475D01*
X81163475Y-82226632D01*
X81325990Y-81983411D01*
X81437932Y-81713158D01*
X81495000Y-81426260D01*
X81495000Y-81133740D01*
X81437932Y-80846842D01*
X81325990Y-80576589D01*
X81163475Y-80333368D01*
X81031620Y-80201513D01*
X81104180Y-80179502D01*
X81214494Y-80120537D01*
X81311185Y-80041185D01*
X81390537Y-79944494D01*
X81449502Y-79834180D01*
X81485812Y-79714482D01*
X81498072Y-79590000D01*
X81498072Y-77890000D01*
X81485812Y-77765518D01*
X81449502Y-77645820D01*
X81390537Y-77535506D01*
X81311185Y-77438815D01*
X81214494Y-77359463D01*
X81104180Y-77300498D01*
X80984482Y-77264188D01*
X80860000Y-77251928D01*
X79160000Y-77251928D01*
X79035518Y-77264188D01*
X78915820Y-77300498D01*
X78805506Y-77359463D01*
X78708815Y-77438815D01*
X78629463Y-77535506D01*
X78570498Y-77645820D01*
X78534188Y-77765518D01*
X78521928Y-77890000D01*
X76860000Y-77890000D01*
X76860000Y-74016890D01*
X78568524Y-74016890D01*
X78613175Y-74164099D01*
X78738359Y-74426920D01*
X78912412Y-74660269D01*
X79128645Y-74855178D01*
X79378748Y-75004157D01*
X79653109Y-75101481D01*
X79883000Y-74980814D01*
X79883000Y-73787000D01*
X80137000Y-73787000D01*
X80137000Y-74980814D01*
X80366891Y-75101481D01*
X80641252Y-75004157D01*
X80891355Y-74855178D01*
X81107588Y-74660269D01*
X81281641Y-74426920D01*
X81406825Y-74164099D01*
X81451476Y-74016890D01*
X81330155Y-73787000D01*
X80137000Y-73787000D01*
X79883000Y-73787000D01*
X78689845Y-73787000D01*
X78568524Y-74016890D01*
X76860000Y-74016890D01*
X76860000Y-67730000D01*
X78521928Y-67730000D01*
X78521928Y-69430000D01*
X78534188Y-69554482D01*
X78570498Y-69674180D01*
X78629463Y-69784494D01*
X78708815Y-69881185D01*
X78805506Y-69960537D01*
X78915820Y-70019502D01*
X78988380Y-70041513D01*
X78856525Y-70173368D01*
X78694010Y-70416589D01*
X78582068Y-70686842D01*
X78525000Y-70973740D01*
X78525000Y-71266260D01*
X78582068Y-71553158D01*
X78694010Y-71823411D01*
X78856525Y-72066632D01*
X79063368Y-72273475D01*
X79245534Y-72395195D01*
X79128645Y-72464822D01*
X78912412Y-72659731D01*
X78738359Y-72893080D01*
X78613175Y-73155901D01*
X78568524Y-73303110D01*
X78689845Y-73533000D01*
X79883000Y-73533000D01*
X79883000Y-73513000D01*
X80137000Y-73513000D01*
X80137000Y-73533000D01*
X81330155Y-73533000D01*
X81451476Y-73303110D01*
X81406825Y-73155901D01*
X81281641Y-72893080D01*
X81107588Y-72659731D01*
X80891355Y-72464822D01*
X80774466Y-72395195D01*
X80956632Y-72273475D01*
X81163475Y-72066632D01*
X81325990Y-71823411D01*
X81437932Y-71553158D01*
X81495000Y-71266260D01*
X81495000Y-70973740D01*
X81437932Y-70686842D01*
X81325990Y-70416589D01*
X81163475Y-70173368D01*
X81031620Y-70041513D01*
X81104180Y-70019502D01*
X81214494Y-69960537D01*
X81311185Y-69881185D01*
X81390537Y-69784494D01*
X81449502Y-69674180D01*
X81485812Y-69554482D01*
X81498072Y-69430000D01*
X81498072Y-67730000D01*
X81485812Y-67605518D01*
X81449502Y-67485820D01*
X81390537Y-67375506D01*
X81311185Y-67278815D01*
X81214494Y-67199463D01*
X81104180Y-67140498D01*
X80984482Y-67104188D01*
X80860000Y-67091928D01*
X79160000Y-67091928D01*
X79035518Y-67104188D01*
X78915820Y-67140498D01*
X78805506Y-67199463D01*
X78708815Y-67278815D01*
X78629463Y-67375506D01*
X78570498Y-67485820D01*
X78534188Y-67605518D01*
X78521928Y-67730000D01*
X76860000Y-67730000D01*
X76860000Y-66940000D01*
X82321928Y-66940000D01*
X82334188Y-67064482D01*
X82370498Y-67184180D01*
X82429463Y-67294494D01*
X82508815Y-67391185D01*
X82605506Y-67470537D01*
X82715820Y-67529502D01*
X82835518Y-67565812D01*
X82960000Y-67578072D01*
X83574250Y-67575000D01*
X83733000Y-67416250D01*
X83733000Y-66167000D01*
X82483750Y-66167000D01*
X82325000Y-66325750D01*
X82321928Y-66940000D01*
X76860000Y-66940000D01*
X76860000Y-65140000D01*
X82321928Y-65140000D01*
X82325000Y-65754250D01*
X82483750Y-65913000D01*
X83733000Y-65913000D01*
X83733000Y-64663750D01*
X83987000Y-64663750D01*
X83987000Y-65913000D01*
X84007000Y-65913000D01*
X84007000Y-66167000D01*
X83987000Y-66167000D01*
X83987000Y-67416250D01*
X84145750Y-67575000D01*
X84760000Y-67578072D01*
X84884482Y-67565812D01*
X85004180Y-67529502D01*
X85114494Y-67470537D01*
X85211185Y-67391185D01*
X85290537Y-67294494D01*
X85343880Y-67194697D01*
X85381495Y-67232312D01*
X85632905Y-67400299D01*
X85912257Y-67516011D01*
X86208816Y-67575000D01*
X86511184Y-67575000D01*
X86807743Y-67516011D01*
X87087095Y-67400299D01*
X87338505Y-67232312D01*
X87552312Y-67018505D01*
X87610000Y-66932169D01*
X87667688Y-67018505D01*
X87881495Y-67232312D01*
X88132905Y-67400299D01*
X88412257Y-67516011D01*
X88708816Y-67575000D01*
X89011184Y-67575000D01*
X89121482Y-67553060D01*
X94224116Y-72655695D01*
X94154775Y-72823097D01*
X94115001Y-73023056D01*
X94115001Y-73226934D01*
X94121578Y-73260000D01*
X94005061Y-73260000D01*
X93805102Y-73299774D01*
X93616744Y-73377795D01*
X93493715Y-73460000D01*
X90846018Y-73460000D01*
X90805000Y-73455960D01*
X90641311Y-73472082D01*
X90483913Y-73519828D01*
X90338854Y-73597364D01*
X90312425Y-73619054D01*
X90211709Y-73701709D01*
X90185563Y-73733568D01*
X89067384Y-74851749D01*
X89033456Y-74845000D01*
X88766544Y-74845000D01*
X88504761Y-74897072D01*
X88258167Y-74999215D01*
X88036238Y-75147503D01*
X87847503Y-75336238D01*
X87699215Y-75558167D01*
X87597072Y-75804761D01*
X87545000Y-76066544D01*
X87545000Y-76333456D01*
X87597072Y-76595239D01*
X87699215Y-76841833D01*
X87847503Y-77063762D01*
X88036238Y-77252497D01*
X88258167Y-77400785D01*
X88504761Y-77502928D01*
X88766544Y-77555000D01*
X89033456Y-77555000D01*
X89295239Y-77502928D01*
X89541833Y-77400785D01*
X89763762Y-77252497D01*
X89952497Y-77063762D01*
X90100785Y-76841833D01*
X90170000Y-76674734D01*
X90239215Y-76841833D01*
X90387503Y-77063762D01*
X90576238Y-77252497D01*
X90798167Y-77400785D01*
X90880608Y-77434933D01*
X90855304Y-77460237D01*
X90742036Y-77629755D01*
X90664015Y-77818113D01*
X90624241Y-78018072D01*
X90624241Y-78221950D01*
X90664015Y-78421909D01*
X90742036Y-78610267D01*
X90855304Y-78779785D01*
X90999467Y-78923948D01*
X91168985Y-79037216D01*
X91357343Y-79115237D01*
X91502466Y-79144103D01*
X91872838Y-79514476D01*
X91872838Y-85072646D01*
X91835239Y-85057072D01*
X91573456Y-85005000D01*
X91306544Y-85005000D01*
X91044761Y-85057072D01*
X90798167Y-85159215D01*
X90576238Y-85307503D01*
X90387503Y-85496238D01*
X90239215Y-85718167D01*
X90170000Y-85885266D01*
X90100785Y-85718167D01*
X89952497Y-85496238D01*
X89763762Y-85307503D01*
X89541833Y-85159215D01*
X89295239Y-85057072D01*
X89033456Y-85005000D01*
X88766544Y-85005000D01*
X88504761Y-85057072D01*
X88258167Y-85159215D01*
X88036238Y-85307503D01*
X87847503Y-85496238D01*
X87699215Y-85718167D01*
X87597072Y-85964761D01*
X87545000Y-86226544D01*
X87545000Y-86493456D01*
X87597072Y-86755239D01*
X87699215Y-87001833D01*
X87847503Y-87223762D01*
X88036238Y-87412497D01*
X88258167Y-87560785D01*
X88504761Y-87662928D01*
X88766544Y-87715000D01*
X89033456Y-87715000D01*
X89295239Y-87662928D01*
X89541833Y-87560785D01*
X89763762Y-87412497D01*
X89952497Y-87223762D01*
X90100785Y-87001833D01*
X90170000Y-86834734D01*
X90239215Y-87001833D01*
X90387503Y-87223762D01*
X90576238Y-87412497D01*
X90798167Y-87560785D01*
X91044761Y-87662928D01*
X91306544Y-87715000D01*
X91573456Y-87715000D01*
X91835239Y-87662928D01*
X91872837Y-87647354D01*
X91872837Y-94613886D01*
X91834588Y-94660493D01*
X91757051Y-94805552D01*
X91709305Y-94962950D01*
X91702552Y-95031513D01*
X91697983Y-95077901D01*
X91615018Y-95202068D01*
X91536997Y-95390426D01*
X91497223Y-95590385D01*
X91497223Y-95794263D01*
X91536997Y-95994222D01*
X91615018Y-96182580D01*
X91728286Y-96352098D01*
X91872449Y-96496261D01*
X92041967Y-96609529D01*
X92230325Y-96687550D01*
X92430284Y-96727324D01*
X92634162Y-96727324D01*
X92834121Y-96687550D01*
X93022479Y-96609529D01*
X93191997Y-96496261D01*
X93336160Y-96352098D01*
X93449428Y-96182580D01*
X93527449Y-95994222D01*
X93567223Y-95794263D01*
X93567223Y-95590385D01*
X93527449Y-95390426D01*
X93480436Y-95276926D01*
X93483009Y-95272112D01*
X93505002Y-95199610D01*
X93576502Y-95229226D01*
X93776461Y-95269000D01*
X93980339Y-95269000D01*
X94180298Y-95229226D01*
X94368656Y-95151205D01*
X94538174Y-95037937D01*
X94682337Y-94893774D01*
X94795605Y-94724256D01*
X94873626Y-94535898D01*
X94884935Y-94479043D01*
X95745051Y-93618928D01*
X95778818Y-93591216D01*
X95846549Y-93508687D01*
X95889411Y-93456459D01*
X95889412Y-93456458D01*
X95971590Y-93302712D01*
X96022196Y-93135889D01*
X96035001Y-93005876D01*
X96035001Y-93005866D01*
X96039282Y-92962400D01*
X96035001Y-92918934D01*
X96035001Y-73663449D01*
X96067206Y-73615251D01*
X96145227Y-73426893D01*
X96185001Y-73226934D01*
X96185001Y-73023056D01*
X96145227Y-72823097D01*
X96067206Y-72634739D01*
X96035001Y-72586541D01*
X96035001Y-72373470D01*
X96039282Y-72330001D01*
X96035001Y-72286532D01*
X96035001Y-72286524D01*
X96022196Y-72156511D01*
X95971590Y-71989688D01*
X95889412Y-71835942D01*
X95866256Y-71807726D01*
X95806533Y-71734954D01*
X95806531Y-71734952D01*
X95778818Y-71701184D01*
X95745052Y-71673473D01*
X92143579Y-68072000D01*
X96903509Y-68072000D01*
X96909001Y-68127762D01*
X96909000Y-90317449D01*
X96903509Y-90373200D01*
X96909000Y-90428951D01*
X96925423Y-90595698D01*
X96990324Y-90809646D01*
X97095716Y-91006823D01*
X97237551Y-91179649D01*
X97280864Y-91215195D01*
X98216868Y-92151200D01*
X97718728Y-92649341D01*
X97675420Y-92684883D01*
X97533585Y-92857709D01*
X97522283Y-92878854D01*
X97428192Y-93054886D01*
X97363291Y-93268834D01*
X97341377Y-93491332D01*
X97346869Y-93547093D01*
X97346868Y-101355144D01*
X97346868Y-101578720D01*
X97357800Y-101633680D01*
X97363291Y-101689430D01*
X97379552Y-101743035D01*
X97390485Y-101797999D01*
X97411932Y-101849777D01*
X97428192Y-101903378D01*
X97454598Y-101952780D01*
X97476044Y-102004556D01*
X97507175Y-102051147D01*
X97533584Y-102100555D01*
X97569127Y-102143864D01*
X97600256Y-102190452D01*
X97639877Y-102230073D01*
X97675419Y-102273381D01*
X97718727Y-102308923D01*
X97758348Y-102348544D01*
X97804936Y-102379673D01*
X97848245Y-102415216D01*
X97897654Y-102441625D01*
X97944244Y-102472756D01*
X97996017Y-102494201D01*
X98045421Y-102520608D01*
X98099026Y-102536869D01*
X98150801Y-102558315D01*
X98205762Y-102569247D01*
X98259369Y-102585509D01*
X98315121Y-102591000D01*
X98364100Y-102600743D01*
X100715001Y-104951644D01*
X100715000Y-107735375D01*
X100625518Y-107744188D01*
X100505820Y-107780498D01*
X100395506Y-107839463D01*
X100298815Y-107918815D01*
X100219463Y-108015506D01*
X100160498Y-108125820D01*
X100124188Y-108245518D01*
X100111928Y-108370000D01*
X100111928Y-110070000D01*
X100124188Y-110194482D01*
X100160498Y-110314180D01*
X100219463Y-110424494D01*
X100298815Y-110521185D01*
X100395506Y-110600537D01*
X100505820Y-110659502D01*
X100625518Y-110695812D01*
X100750000Y-110708072D01*
X102450000Y-110708072D01*
X102574482Y-110695812D01*
X102694180Y-110659502D01*
X102804494Y-110600537D01*
X102901185Y-110521185D01*
X102980537Y-110424494D01*
X103039502Y-110314180D01*
X103061513Y-110241620D01*
X103193368Y-110373475D01*
X103436589Y-110535990D01*
X103706842Y-110647932D01*
X103993740Y-110705000D01*
X104286260Y-110705000D01*
X104573158Y-110647932D01*
X104843411Y-110535990D01*
X105086632Y-110373475D01*
X105293475Y-110166632D01*
X105415195Y-109984466D01*
X105484822Y-110101355D01*
X105679731Y-110317588D01*
X105913080Y-110491641D01*
X106175901Y-110616825D01*
X106323110Y-110661476D01*
X106553000Y-110540155D01*
X106553000Y-109347000D01*
X106533000Y-109347000D01*
X106533000Y-109093000D01*
X106553000Y-109093000D01*
X106553000Y-107899845D01*
X106807000Y-107899845D01*
X106807000Y-109093000D01*
X106827000Y-109093000D01*
X106827000Y-109347000D01*
X106807000Y-109347000D01*
X106807000Y-110540155D01*
X107036890Y-110661476D01*
X107184099Y-110616825D01*
X107446920Y-110491641D01*
X107680269Y-110317588D01*
X107875178Y-110101355D01*
X107944805Y-109984466D01*
X108066525Y-110166632D01*
X108273368Y-110373475D01*
X108516589Y-110535990D01*
X108786842Y-110647932D01*
X109073740Y-110705000D01*
X109366260Y-110705000D01*
X109653158Y-110647932D01*
X109923411Y-110535990D01*
X110166632Y-110373475D01*
X110373475Y-110166632D01*
X110535990Y-109923411D01*
X110647932Y-109653158D01*
X110705000Y-109366260D01*
X110705000Y-109073740D01*
X110647932Y-108786842D01*
X110535990Y-108516589D01*
X110438043Y-108370000D01*
X120431928Y-108370000D01*
X120431928Y-110070000D01*
X120444188Y-110194482D01*
X120480498Y-110314180D01*
X120539463Y-110424494D01*
X120618815Y-110521185D01*
X120715506Y-110600537D01*
X120825820Y-110659502D01*
X120945518Y-110695812D01*
X121070000Y-110708072D01*
X122770000Y-110708072D01*
X122894482Y-110695812D01*
X123014180Y-110659502D01*
X123124494Y-110600537D01*
X123221185Y-110521185D01*
X123300537Y-110424494D01*
X123359502Y-110314180D01*
X123383966Y-110233534D01*
X123459731Y-110317588D01*
X123693080Y-110491641D01*
X123955901Y-110616825D01*
X124103110Y-110661476D01*
X124333000Y-110540155D01*
X124333000Y-109347000D01*
X124587000Y-109347000D01*
X124587000Y-110540155D01*
X124816890Y-110661476D01*
X124964099Y-110616825D01*
X125226920Y-110491641D01*
X125460269Y-110317588D01*
X125655178Y-110101355D01*
X125804157Y-109851252D01*
X125901481Y-109576891D01*
X125780814Y-109347000D01*
X124587000Y-109347000D01*
X124333000Y-109347000D01*
X124313000Y-109347000D01*
X124313000Y-109093000D01*
X124333000Y-109093000D01*
X124333000Y-107899845D01*
X124587000Y-107899845D01*
X124587000Y-109093000D01*
X125780814Y-109093000D01*
X125901481Y-108863109D01*
X125804157Y-108588748D01*
X125673856Y-108370000D01*
X133131928Y-108370000D01*
X133131928Y-110070000D01*
X133144188Y-110194482D01*
X133180498Y-110314180D01*
X133239463Y-110424494D01*
X133318815Y-110521185D01*
X133415506Y-110600537D01*
X133525820Y-110659502D01*
X133645518Y-110695812D01*
X133770000Y-110708072D01*
X135470000Y-110708072D01*
X135594482Y-110695812D01*
X135714180Y-110659502D01*
X135824494Y-110600537D01*
X135921185Y-110521185D01*
X136000537Y-110424494D01*
X136059502Y-110314180D01*
X136083966Y-110233534D01*
X136159731Y-110317588D01*
X136393080Y-110491641D01*
X136655901Y-110616825D01*
X136803110Y-110661476D01*
X137033000Y-110540155D01*
X137033000Y-109347000D01*
X137287000Y-109347000D01*
X137287000Y-110540155D01*
X137516890Y-110661476D01*
X137664099Y-110616825D01*
X137926920Y-110491641D01*
X138160269Y-110317588D01*
X138355178Y-110101355D01*
X138504157Y-109851252D01*
X138601481Y-109576891D01*
X138480814Y-109347000D01*
X137287000Y-109347000D01*
X137033000Y-109347000D01*
X137013000Y-109347000D01*
X137013000Y-109093000D01*
X137033000Y-109093000D01*
X137033000Y-107899845D01*
X137287000Y-107899845D01*
X137287000Y-109093000D01*
X138480814Y-109093000D01*
X138601481Y-108863109D01*
X138504157Y-108588748D01*
X138373856Y-108370000D01*
X141386928Y-108370000D01*
X141386928Y-110070000D01*
X141399188Y-110194482D01*
X141435498Y-110314180D01*
X141494463Y-110424494D01*
X141573815Y-110521185D01*
X141670506Y-110600537D01*
X141780820Y-110659502D01*
X141900518Y-110695812D01*
X142025000Y-110708072D01*
X143725000Y-110708072D01*
X143849482Y-110695812D01*
X143969180Y-110659502D01*
X144079494Y-110600537D01*
X144176185Y-110521185D01*
X144255537Y-110424494D01*
X144314502Y-110314180D01*
X144338966Y-110233534D01*
X144414731Y-110317588D01*
X144648080Y-110491641D01*
X144910901Y-110616825D01*
X145058110Y-110661476D01*
X145288000Y-110540155D01*
X145288000Y-109347000D01*
X145542000Y-109347000D01*
X145542000Y-110540155D01*
X145771890Y-110661476D01*
X145919099Y-110616825D01*
X146181920Y-110491641D01*
X146415269Y-110317588D01*
X146610178Y-110101355D01*
X146759157Y-109851252D01*
X146856481Y-109576891D01*
X146753598Y-109380881D01*
X149878724Y-109380881D01*
X150238912Y-109870548D01*
X150902882Y-110230849D01*
X151624385Y-110454694D01*
X152375695Y-110533480D01*
X153127938Y-110464178D01*
X153852208Y-110249452D01*
X154520670Y-109897555D01*
X154561088Y-109870548D01*
X154921276Y-109380881D01*
X152400000Y-106859605D01*
X149878724Y-109380881D01*
X146753598Y-109380881D01*
X146735814Y-109347000D01*
X145542000Y-109347000D01*
X145288000Y-109347000D01*
X145268000Y-109347000D01*
X145268000Y-109093000D01*
X145288000Y-109093000D01*
X145288000Y-107899845D01*
X145542000Y-107899845D01*
X145542000Y-109093000D01*
X146735814Y-109093000D01*
X146856481Y-108863109D01*
X146759157Y-108588748D01*
X146610178Y-108338645D01*
X146415269Y-108122412D01*
X146181920Y-107948359D01*
X145919099Y-107823175D01*
X145771890Y-107778524D01*
X145542000Y-107899845D01*
X145288000Y-107899845D01*
X145058110Y-107778524D01*
X144910901Y-107823175D01*
X144648080Y-107948359D01*
X144414731Y-108122412D01*
X144338966Y-108206466D01*
X144314502Y-108125820D01*
X144255537Y-108015506D01*
X144176185Y-107918815D01*
X144079494Y-107839463D01*
X143969180Y-107780498D01*
X143849482Y-107744188D01*
X143725000Y-107731928D01*
X142025000Y-107731928D01*
X141900518Y-107744188D01*
X141780820Y-107780498D01*
X141670506Y-107839463D01*
X141573815Y-107918815D01*
X141494463Y-108015506D01*
X141435498Y-108125820D01*
X141399188Y-108245518D01*
X141386928Y-108370000D01*
X138373856Y-108370000D01*
X138355178Y-108338645D01*
X138160269Y-108122412D01*
X137926920Y-107948359D01*
X137664099Y-107823175D01*
X137516890Y-107778524D01*
X137287000Y-107899845D01*
X137033000Y-107899845D01*
X136803110Y-107778524D01*
X136655901Y-107823175D01*
X136598000Y-107850754D01*
X136598000Y-106655695D01*
X148546520Y-106655695D01*
X148615822Y-107407938D01*
X148830548Y-108132208D01*
X149182445Y-108800670D01*
X149209452Y-108841088D01*
X149699119Y-109201276D01*
X152220395Y-106680000D01*
X152579605Y-106680000D01*
X155100881Y-109201276D01*
X155590548Y-108841088D01*
X155950849Y-108177118D01*
X156174694Y-107455615D01*
X156253480Y-106704305D01*
X156184178Y-105952062D01*
X155969452Y-105227792D01*
X155617555Y-104559330D01*
X155590548Y-104518912D01*
X155100881Y-104158724D01*
X152579605Y-106680000D01*
X152220395Y-106680000D01*
X149699119Y-104158724D01*
X149209452Y-104518912D01*
X148849151Y-105182882D01*
X148625306Y-105904385D01*
X148546520Y-106655695D01*
X136598000Y-106655695D01*
X136598000Y-103979119D01*
X149878724Y-103979119D01*
X152400000Y-106500395D01*
X154921276Y-103979119D01*
X154561088Y-103489452D01*
X153897118Y-103129151D01*
X153175615Y-102905306D01*
X152424305Y-102826520D01*
X151672062Y-102895822D01*
X150947792Y-103110548D01*
X150279330Y-103462445D01*
X150238912Y-103489452D01*
X149878724Y-103979119D01*
X136598000Y-103979119D01*
X136598000Y-92192899D01*
X136705605Y-92031856D01*
X136783626Y-91843498D01*
X136823400Y-91643539D01*
X136823400Y-91439661D01*
X136783626Y-91239702D01*
X136705605Y-91051344D01*
X136592337Y-90881826D01*
X136448174Y-90737663D01*
X136278656Y-90624395D01*
X136090298Y-90546374D01*
X135890339Y-90506600D01*
X135686461Y-90506600D01*
X135486502Y-90546374D01*
X135298144Y-90624395D01*
X135128626Y-90737663D01*
X134984463Y-90881826D01*
X134871195Y-91051344D01*
X134793174Y-91239702D01*
X134753400Y-91439661D01*
X134753400Y-91643539D01*
X134793174Y-91843498D01*
X134871195Y-92031856D01*
X134928001Y-92116872D01*
X134928000Y-107731132D01*
X134927204Y-107731928D01*
X133770000Y-107731928D01*
X133645518Y-107744188D01*
X133525820Y-107780498D01*
X133415506Y-107839463D01*
X133318815Y-107918815D01*
X133239463Y-108015506D01*
X133180498Y-108125820D01*
X133144188Y-108245518D01*
X133131928Y-108370000D01*
X125673856Y-108370000D01*
X125655178Y-108338645D01*
X125460269Y-108122412D01*
X125226920Y-107948359D01*
X124964099Y-107823175D01*
X124816890Y-107778524D01*
X124587000Y-107899845D01*
X124333000Y-107899845D01*
X124103110Y-107778524D01*
X123955901Y-107823175D01*
X123693080Y-107948359D01*
X123459731Y-108122412D01*
X123383966Y-108206466D01*
X123359502Y-108125820D01*
X123300537Y-108015506D01*
X123221185Y-107918815D01*
X123124494Y-107839463D01*
X123014180Y-107780498D01*
X122894482Y-107744188D01*
X122770000Y-107731928D01*
X121070000Y-107731928D01*
X120945518Y-107744188D01*
X120825820Y-107780498D01*
X120715506Y-107839463D01*
X120618815Y-107918815D01*
X120539463Y-108015506D01*
X120480498Y-108125820D01*
X120444188Y-108245518D01*
X120431928Y-108370000D01*
X110438043Y-108370000D01*
X110373475Y-108273368D01*
X110166632Y-108066525D01*
X109923411Y-107904010D01*
X109653158Y-107792068D01*
X109366260Y-107735000D01*
X109073740Y-107735000D01*
X108786842Y-107792068D01*
X108516589Y-107904010D01*
X108273368Y-108066525D01*
X108066525Y-108273368D01*
X107944805Y-108455534D01*
X107875178Y-108338645D01*
X107680269Y-108122412D01*
X107446920Y-107948359D01*
X107184099Y-107823175D01*
X107036890Y-107778524D01*
X106807000Y-107899845D01*
X106553000Y-107899845D01*
X106323110Y-107778524D01*
X106175901Y-107823175D01*
X105913080Y-107948359D01*
X105679731Y-108122412D01*
X105484822Y-108338645D01*
X105415195Y-108455534D01*
X105293475Y-108273368D01*
X105086632Y-108066525D01*
X104843411Y-107904010D01*
X104573158Y-107792068D01*
X104286260Y-107735000D01*
X103993740Y-107735000D01*
X103706842Y-107792068D01*
X103436589Y-107904010D01*
X103193368Y-108066525D01*
X103061513Y-108198380D01*
X103039502Y-108125820D01*
X102980537Y-108015506D01*
X102901185Y-107918815D01*
X102804494Y-107839463D01*
X102694180Y-107780498D01*
X102574482Y-107744188D01*
X102485000Y-107735375D01*
X102485000Y-104628533D01*
X102489281Y-104585064D01*
X102485000Y-104541595D01*
X102485000Y-104541587D01*
X102472195Y-104411574D01*
X102464175Y-104385137D01*
X102421589Y-104244750D01*
X102339411Y-104091005D01*
X102256532Y-103990017D01*
X102256530Y-103990015D01*
X102228817Y-103956247D01*
X102195049Y-103928534D01*
X101745776Y-103479261D01*
X115652600Y-103479261D01*
X115652600Y-103683139D01*
X115692374Y-103883098D01*
X115770395Y-104071456D01*
X115883663Y-104240974D01*
X116027826Y-104385137D01*
X116197344Y-104498405D01*
X116385702Y-104576426D01*
X116585661Y-104616200D01*
X116789539Y-104616200D01*
X116989498Y-104576426D01*
X117177856Y-104498405D01*
X117300885Y-104416200D01*
X119698567Y-104416200D01*
X119840102Y-104474826D01*
X120040061Y-104514600D01*
X120243939Y-104514600D01*
X120443898Y-104474826D01*
X120632256Y-104396805D01*
X120801774Y-104283537D01*
X120945937Y-104139374D01*
X121059205Y-103969856D01*
X121137226Y-103781498D01*
X121177000Y-103581539D01*
X121177000Y-103377661D01*
X121137226Y-103177702D01*
X121059205Y-102989344D01*
X120945937Y-102819826D01*
X120801774Y-102675663D01*
X120632256Y-102562395D01*
X120443898Y-102484374D01*
X120243939Y-102444600D01*
X120040061Y-102444600D01*
X119840102Y-102484374D01*
X119651744Y-102562395D01*
X119482226Y-102675663D01*
X119411689Y-102746200D01*
X117300885Y-102746200D01*
X117177856Y-102663995D01*
X116989498Y-102585974D01*
X116789539Y-102546200D01*
X116585661Y-102546200D01*
X116385702Y-102585974D01*
X116197344Y-102663995D01*
X116027826Y-102777263D01*
X115883663Y-102921426D01*
X115770395Y-103090944D01*
X115692374Y-103279302D01*
X115652600Y-103479261D01*
X101745776Y-103479261D01*
X99616868Y-101350354D01*
X99616868Y-95104581D01*
X99672502Y-95127626D01*
X99729357Y-95138935D01*
X100791070Y-96200649D01*
X100818783Y-96234417D01*
X100852551Y-96262130D01*
X100852553Y-96262132D01*
X100873794Y-96279564D01*
X100953541Y-96345011D01*
X101107287Y-96427189D01*
X101274110Y-96477795D01*
X101404123Y-96490600D01*
X101404133Y-96490600D01*
X101447599Y-96494881D01*
X101491065Y-96490600D01*
X103753946Y-96490600D01*
X103802144Y-96522805D01*
X103990502Y-96600826D01*
X104190461Y-96640600D01*
X104394339Y-96640600D01*
X104594298Y-96600826D01*
X104782656Y-96522805D01*
X104952174Y-96409537D01*
X105096337Y-96265374D01*
X105209605Y-96095856D01*
X105287626Y-95907498D01*
X105327400Y-95707539D01*
X105327400Y-95503661D01*
X105287626Y-95303702D01*
X105209605Y-95115344D01*
X105096337Y-94945826D01*
X104952174Y-94801663D01*
X104782656Y-94688395D01*
X104594298Y-94610374D01*
X104394339Y-94570600D01*
X104190461Y-94570600D01*
X103990502Y-94610374D01*
X103802144Y-94688395D01*
X103753946Y-94720600D01*
X101814179Y-94720600D01*
X100980935Y-93887357D01*
X100969626Y-93830502D01*
X100891605Y-93642144D01*
X100778337Y-93472626D01*
X100634174Y-93328463D01*
X100464656Y-93215195D01*
X100392871Y-93185461D01*
X100585143Y-92993189D01*
X100628449Y-92957649D01*
X100663991Y-92914341D01*
X100703612Y-92874720D01*
X100734741Y-92828132D01*
X100770284Y-92784823D01*
X100796693Y-92735414D01*
X100827824Y-92688824D01*
X100849269Y-92637051D01*
X100875676Y-92587647D01*
X100891937Y-92534042D01*
X100913383Y-92482267D01*
X100924315Y-92427306D01*
X100940577Y-92373699D01*
X100946068Y-92317947D01*
X100957000Y-92262988D01*
X100957000Y-92206952D01*
X100962491Y-92151200D01*
X100957000Y-92095448D01*
X100957000Y-92039412D01*
X100948855Y-91998461D01*
X101377800Y-91998461D01*
X101377800Y-92202339D01*
X101417574Y-92402298D01*
X101495595Y-92590656D01*
X101608863Y-92760174D01*
X101753026Y-92904337D01*
X101922544Y-93017605D01*
X102110902Y-93095626D01*
X102255520Y-93124392D01*
X102353054Y-93204436D01*
X102498113Y-93281972D01*
X102655511Y-93329718D01*
X102778181Y-93341800D01*
X102778191Y-93341800D01*
X102819199Y-93345839D01*
X102860207Y-93341800D01*
X103831515Y-93341800D01*
X103954544Y-93424005D01*
X104142902Y-93502026D01*
X104342861Y-93541800D01*
X104546739Y-93541800D01*
X104746698Y-93502026D01*
X104935056Y-93424005D01*
X105104574Y-93310737D01*
X105248737Y-93166574D01*
X105362005Y-92997056D01*
X105440026Y-92808698D01*
X105479800Y-92608739D01*
X105479800Y-92404861D01*
X105440026Y-92204902D01*
X105362005Y-92016544D01*
X105248737Y-91847026D01*
X105104574Y-91702863D01*
X104935056Y-91589595D01*
X104746698Y-91511574D01*
X104546739Y-91471800D01*
X104342861Y-91471800D01*
X104142902Y-91511574D01*
X103954544Y-91589595D01*
X103831515Y-91671800D01*
X103355544Y-91671800D01*
X103330005Y-91610144D01*
X103216737Y-91440626D01*
X103072574Y-91296463D01*
X102903056Y-91183195D01*
X102714698Y-91105174D01*
X102514739Y-91065400D01*
X102310861Y-91065400D01*
X102110902Y-91105174D01*
X101922544Y-91183195D01*
X101753026Y-91296463D01*
X101608863Y-91440626D01*
X101495595Y-91610144D01*
X101417574Y-91798502D01*
X101377800Y-91998461D01*
X100948855Y-91998461D01*
X100946068Y-91984453D01*
X100940577Y-91928701D01*
X100924315Y-91875094D01*
X100913383Y-91820133D01*
X100891937Y-91768358D01*
X100875676Y-91714753D01*
X100849269Y-91665349D01*
X100827824Y-91613576D01*
X100796693Y-91566986D01*
X100770284Y-91517577D01*
X100734741Y-91474267D01*
X100703612Y-91427680D01*
X100663994Y-91388062D01*
X100663989Y-91388056D01*
X100663986Y-91388053D01*
X100628449Y-91344751D01*
X100585147Y-91309214D01*
X99179000Y-89903069D01*
X99179000Y-82902531D01*
X101226388Y-84949920D01*
X101384480Y-85108012D01*
X101431070Y-85139143D01*
X101474376Y-85174683D01*
X101523782Y-85201091D01*
X101570376Y-85232224D01*
X101622152Y-85253671D01*
X101671552Y-85280075D01*
X101725152Y-85296335D01*
X101776933Y-85317783D01*
X101831901Y-85328717D01*
X101885500Y-85344976D01*
X101941244Y-85350466D01*
X101996212Y-85361400D01*
X102052257Y-85361400D01*
X102107999Y-85366890D01*
X102163741Y-85361400D01*
X102219788Y-85361400D01*
X102274758Y-85350466D01*
X102330498Y-85344976D01*
X102384094Y-85328718D01*
X102439067Y-85317783D01*
X102490854Y-85296332D01*
X102544446Y-85280075D01*
X102593839Y-85253674D01*
X102645624Y-85232224D01*
X102692226Y-85201086D01*
X102741622Y-85174683D01*
X102784920Y-85139149D01*
X102831520Y-85108012D01*
X102871151Y-85068381D01*
X102914448Y-85032848D01*
X102949981Y-84989551D01*
X102989612Y-84949920D01*
X103020749Y-84903320D01*
X103056283Y-84860022D01*
X103082686Y-84810626D01*
X103113824Y-84764024D01*
X103135274Y-84712239D01*
X103161675Y-84662846D01*
X103177932Y-84609254D01*
X103199383Y-84557467D01*
X103210318Y-84502494D01*
X103226576Y-84448898D01*
X103232066Y-84393158D01*
X103243000Y-84338188D01*
X103243000Y-84282141D01*
X103248490Y-84226399D01*
X103243000Y-84170657D01*
X103243000Y-84114612D01*
X103232066Y-84059644D01*
X103226576Y-84003900D01*
X103210317Y-83950301D01*
X103199383Y-83895333D01*
X103177935Y-83843552D01*
X103161675Y-83789952D01*
X103135271Y-83740552D01*
X103113824Y-83688776D01*
X103082691Y-83642182D01*
X103056283Y-83592776D01*
X103020743Y-83549470D01*
X102989612Y-83502880D01*
X102831520Y-83344788D01*
X100703000Y-81216269D01*
X100703000Y-79247661D01*
X109709000Y-79247661D01*
X109709000Y-79451539D01*
X109748774Y-79651498D01*
X109826795Y-79839856D01*
X109909000Y-79962885D01*
X109909001Y-87131771D01*
X109904960Y-87172800D01*
X109909000Y-87213819D01*
X109909001Y-96936171D01*
X109904960Y-96977200D01*
X109921082Y-97140888D01*
X109968828Y-97298286D01*
X110046364Y-97443345D01*
X110046365Y-97443346D01*
X110150710Y-97570491D01*
X110182574Y-97596641D01*
X112818708Y-100232775D01*
X112847574Y-100377898D01*
X112925595Y-100566256D01*
X113038863Y-100735774D01*
X113183026Y-100879937D01*
X113352544Y-100993205D01*
X113540902Y-101071226D01*
X113740861Y-101111000D01*
X113944739Y-101111000D01*
X114144698Y-101071226D01*
X114333056Y-100993205D01*
X114502574Y-100879937D01*
X114646737Y-100735774D01*
X114760005Y-100566256D01*
X114838026Y-100377898D01*
X114877800Y-100177939D01*
X114877800Y-99974061D01*
X114838026Y-99774102D01*
X114760005Y-99585744D01*
X114646737Y-99416226D01*
X114502574Y-99272063D01*
X114333056Y-99158795D01*
X114144698Y-99080774D01*
X113999575Y-99051908D01*
X111579000Y-96631333D01*
X111579000Y-95503661D01*
X117633800Y-95503661D01*
X117633800Y-95707539D01*
X117673574Y-95907498D01*
X117751595Y-96095856D01*
X117864863Y-96265374D01*
X118009026Y-96409537D01*
X118178544Y-96522805D01*
X118366902Y-96600826D01*
X118566861Y-96640600D01*
X118770739Y-96640600D01*
X118970698Y-96600826D01*
X119159056Y-96522805D01*
X119328574Y-96409537D01*
X119472737Y-96265374D01*
X119586005Y-96095856D01*
X119664026Y-95907498D01*
X119692892Y-95762376D01*
X119850100Y-95605168D01*
X119854944Y-95608405D01*
X120043302Y-95686426D01*
X120243261Y-95726200D01*
X120447139Y-95726200D01*
X120647098Y-95686426D01*
X120835456Y-95608405D01*
X121004974Y-95495137D01*
X121149137Y-95350974D01*
X121262405Y-95181456D01*
X121340426Y-94993098D01*
X121380200Y-94793139D01*
X121380200Y-94589261D01*
X121340426Y-94389302D01*
X121262405Y-94200944D01*
X121230200Y-94152746D01*
X121230200Y-87223261D01*
X123425000Y-87223261D01*
X123425000Y-87427139D01*
X123464774Y-87627098D01*
X123542795Y-87815456D01*
X123656063Y-87984974D01*
X123800226Y-88129137D01*
X123969744Y-88242405D01*
X124158102Y-88320426D01*
X124358061Y-88360200D01*
X124561939Y-88360200D01*
X124761898Y-88320426D01*
X124950256Y-88242405D01*
X125073285Y-88160200D01*
X125649943Y-88160200D01*
X125696944Y-88191605D01*
X125885302Y-88269626D01*
X126085261Y-88309400D01*
X126289139Y-88309400D01*
X126489098Y-88269626D01*
X126677456Y-88191605D01*
X126846974Y-88078337D01*
X126991137Y-87934174D01*
X127104405Y-87764656D01*
X127182426Y-87576298D01*
X127222200Y-87376339D01*
X127222200Y-87172461D01*
X129978200Y-87172461D01*
X129978200Y-87376339D01*
X130017974Y-87576298D01*
X130095995Y-87764656D01*
X130209263Y-87934174D01*
X130353426Y-88078337D01*
X130522944Y-88191605D01*
X130711302Y-88269626D01*
X130911261Y-88309400D01*
X131115139Y-88309400D01*
X131315098Y-88269626D01*
X131503456Y-88191605D01*
X131672974Y-88078337D01*
X131817137Y-87934174D01*
X131930405Y-87764656D01*
X132008426Y-87576298D01*
X132048200Y-87376339D01*
X132048200Y-87172461D01*
X132008426Y-86972502D01*
X131930405Y-86784144D01*
X131848200Y-86661115D01*
X131848200Y-80740311D01*
X131918737Y-80669774D01*
X132032005Y-80500256D01*
X132110026Y-80311898D01*
X132149800Y-80111939D01*
X132149800Y-79908061D01*
X132110026Y-79708102D01*
X132032005Y-79519744D01*
X131918737Y-79350226D01*
X131774574Y-79206063D01*
X131605056Y-79092795D01*
X131416698Y-79014774D01*
X131216739Y-78975000D01*
X131012861Y-78975000D01*
X130812902Y-79014774D01*
X130624544Y-79092795D01*
X130455026Y-79206063D01*
X130310863Y-79350226D01*
X130197595Y-79519744D01*
X130119574Y-79708102D01*
X130079800Y-79908061D01*
X130079800Y-80111939D01*
X130119574Y-80311898D01*
X130178201Y-80453435D01*
X130178200Y-86661115D01*
X130095995Y-86784144D01*
X130017974Y-86972502D01*
X129978200Y-87172461D01*
X127222200Y-87172461D01*
X127182426Y-86972502D01*
X127104405Y-86784144D01*
X126991137Y-86614626D01*
X126846974Y-86470463D01*
X126677456Y-86357195D01*
X126489098Y-86279174D01*
X126289139Y-86239400D01*
X126085261Y-86239400D01*
X125885302Y-86279174D01*
X125696944Y-86357195D01*
X125527426Y-86470463D01*
X125507689Y-86490200D01*
X125073285Y-86490200D01*
X124950256Y-86407995D01*
X124761898Y-86329974D01*
X124561939Y-86290200D01*
X124358061Y-86290200D01*
X124158102Y-86329974D01*
X123969744Y-86407995D01*
X123800226Y-86521263D01*
X123656063Y-86665426D01*
X123542795Y-86834944D01*
X123464774Y-87023302D01*
X123425000Y-87223261D01*
X121230200Y-87223261D01*
X121230200Y-84010051D01*
X123285410Y-84010051D01*
X123285410Y-84213929D01*
X123325184Y-84413888D01*
X123403205Y-84602246D01*
X123516473Y-84771764D01*
X123660636Y-84915927D01*
X123830154Y-85029195D01*
X124018512Y-85107216D01*
X124218471Y-85146990D01*
X124422349Y-85146990D01*
X124622308Y-85107216D01*
X124810666Y-85029195D01*
X124980184Y-84915927D01*
X125124347Y-84771764D01*
X125237615Y-84602246D01*
X125315636Y-84413888D01*
X125355410Y-84213929D01*
X125355410Y-84010051D01*
X125315636Y-83810092D01*
X125237615Y-83621734D01*
X125155410Y-83498705D01*
X125155410Y-75845669D01*
X125170574Y-75835537D01*
X125314737Y-75691374D01*
X125428005Y-75521856D01*
X125506026Y-75333498D01*
X125545800Y-75133539D01*
X125545800Y-74929661D01*
X125506026Y-74729702D01*
X125428005Y-74541344D01*
X125314737Y-74371826D01*
X125170574Y-74227663D01*
X125001056Y-74114395D01*
X124812698Y-74036374D01*
X124612739Y-73996600D01*
X124408861Y-73996600D01*
X124208902Y-74036374D01*
X124020544Y-74114395D01*
X123851026Y-74227663D01*
X123706863Y-74371826D01*
X123593595Y-74541344D01*
X123515574Y-74729702D01*
X123475800Y-74929661D01*
X123475800Y-75133539D01*
X123485352Y-75181560D01*
X123481370Y-75221990D01*
X123485411Y-75263019D01*
X123485410Y-83498705D01*
X123403205Y-83621734D01*
X123325184Y-83810092D01*
X123285410Y-84010051D01*
X121230200Y-84010051D01*
X121230200Y-81005654D01*
X121262405Y-80957456D01*
X121340426Y-80769098D01*
X121380200Y-80569139D01*
X121380200Y-80365261D01*
X121340426Y-80165302D01*
X121262405Y-79976944D01*
X121180200Y-79853915D01*
X121180200Y-71314553D01*
X122577178Y-69917575D01*
X122722301Y-69888709D01*
X122910659Y-69810688D01*
X123080177Y-69697420D01*
X123224340Y-69553257D01*
X123337608Y-69383739D01*
X123415629Y-69195381D01*
X123455403Y-68995422D01*
X123455403Y-68791544D01*
X123418947Y-68608264D01*
X123485937Y-68541274D01*
X123599205Y-68371756D01*
X123677226Y-68183398D01*
X123717000Y-67983439D01*
X123717000Y-67779561D01*
X123677226Y-67579602D01*
X123599205Y-67391244D01*
X123485937Y-67221726D01*
X123341774Y-67077563D01*
X123172256Y-66964295D01*
X122983898Y-66886274D01*
X122783939Y-66846500D01*
X122580061Y-66846500D01*
X122380102Y-66886274D01*
X122191744Y-66964295D01*
X122067577Y-67047260D01*
X121952626Y-67058582D01*
X121802283Y-67104188D01*
X121795228Y-67106328D01*
X121650169Y-67183864D01*
X121631162Y-67199463D01*
X121523024Y-67288209D01*
X121496878Y-67320068D01*
X118869379Y-69947569D01*
X118837509Y-69973724D01*
X118754004Y-70075476D01*
X118733164Y-70100870D01*
X118655628Y-70245929D01*
X118607882Y-70403327D01*
X118591760Y-70567015D01*
X118595800Y-70608034D01*
X118595801Y-76463014D01*
X118513595Y-76586044D01*
X118435574Y-76774402D01*
X118395800Y-76974361D01*
X118395800Y-77178239D01*
X118435574Y-77378198D01*
X118513595Y-77566556D01*
X118626863Y-77736074D01*
X118682578Y-77791789D01*
X118656726Y-77809063D01*
X118512563Y-77953226D01*
X118399295Y-78122744D01*
X118321274Y-78311102D01*
X118281500Y-78511061D01*
X118281500Y-78714939D01*
X118321274Y-78914898D01*
X118399295Y-79103256D01*
X118512563Y-79272774D01*
X118545001Y-79305212D01*
X118545000Y-94548532D01*
X118512024Y-94581508D01*
X118366902Y-94610374D01*
X118178544Y-94688395D01*
X118009026Y-94801663D01*
X117864863Y-94945826D01*
X117751595Y-95115344D01*
X117673574Y-95303702D01*
X117633800Y-95503661D01*
X111579000Y-95503661D01*
X111579000Y-88307377D01*
X111610502Y-88320426D01*
X111810461Y-88360200D01*
X112014339Y-88360200D01*
X112214298Y-88320426D01*
X112402656Y-88242405D01*
X112572174Y-88129137D01*
X112716337Y-87984974D01*
X112829605Y-87815456D01*
X112907626Y-87627098D01*
X112947400Y-87427139D01*
X112947400Y-87223261D01*
X112907626Y-87023302D01*
X112829605Y-86834944D01*
X112716337Y-86665426D01*
X112572174Y-86521263D01*
X112402656Y-86407995D01*
X112214298Y-86329974D01*
X112014339Y-86290200D01*
X111810461Y-86290200D01*
X111610502Y-86329974D01*
X111579000Y-86343023D01*
X111579000Y-79962885D01*
X111661205Y-79839856D01*
X111739226Y-79651498D01*
X111779000Y-79451539D01*
X111779000Y-79247661D01*
X111739226Y-79047702D01*
X111661205Y-78859344D01*
X111547937Y-78689826D01*
X111403774Y-78545663D01*
X111234256Y-78432395D01*
X111045898Y-78354374D01*
X110845939Y-78314600D01*
X110642061Y-78314600D01*
X110442102Y-78354374D01*
X110253744Y-78432395D01*
X110084226Y-78545663D01*
X109940063Y-78689826D01*
X109826795Y-78859344D01*
X109748774Y-79047702D01*
X109709000Y-79247661D01*
X100703000Y-79247661D01*
X100703000Y-67264152D01*
X100708491Y-67208400D01*
X100703000Y-67152648D01*
X100703000Y-67096612D01*
X100692068Y-67041653D01*
X100686577Y-66985901D01*
X100672653Y-66940000D01*
X112801928Y-66940000D01*
X112814188Y-67064482D01*
X112850498Y-67184180D01*
X112909463Y-67294494D01*
X112988815Y-67391185D01*
X113085506Y-67470537D01*
X113195820Y-67529502D01*
X113315518Y-67565812D01*
X113440000Y-67578072D01*
X114006437Y-67575239D01*
X113919320Y-67705619D01*
X113841299Y-67893977D01*
X113801525Y-68093936D01*
X113801525Y-68297814D01*
X113841299Y-68497773D01*
X113919320Y-68686131D01*
X114001525Y-68809160D01*
X114001526Y-69729607D01*
X113889225Y-69841907D01*
X113744102Y-69870774D01*
X113555744Y-69948795D01*
X113386226Y-70062063D01*
X113242063Y-70206226D01*
X113128795Y-70375744D01*
X113050774Y-70564102D01*
X113011000Y-70764061D01*
X113011000Y-70967939D01*
X113050774Y-71167898D01*
X113128795Y-71356256D01*
X113242063Y-71525774D01*
X113386226Y-71669937D01*
X113555744Y-71783205D01*
X113744102Y-71861226D01*
X113944061Y-71901000D01*
X114147939Y-71901000D01*
X114347898Y-71861226D01*
X114536256Y-71783205D01*
X114705774Y-71669937D01*
X114739617Y-71636094D01*
X114739616Y-89469947D01*
X114735335Y-89513416D01*
X114739616Y-89556885D01*
X114739616Y-89556892D01*
X114752421Y-89686905D01*
X114803027Y-89853728D01*
X114885205Y-90007474D01*
X114995799Y-90142233D01*
X115029572Y-90169950D01*
X115782665Y-90923044D01*
X115793974Y-90979898D01*
X115871995Y-91168256D01*
X115985263Y-91337774D01*
X116129426Y-91481937D01*
X116298944Y-91595205D01*
X116487302Y-91673226D01*
X116687261Y-91713000D01*
X116891139Y-91713000D01*
X117091098Y-91673226D01*
X117279456Y-91595205D01*
X117448974Y-91481937D01*
X117593137Y-91337774D01*
X117706405Y-91168256D01*
X117784426Y-90979898D01*
X117824200Y-90779939D01*
X117824200Y-90576061D01*
X117784426Y-90376102D01*
X117706405Y-90187744D01*
X117593137Y-90018226D01*
X117448974Y-89874063D01*
X117279456Y-89760795D01*
X117091098Y-89682774D01*
X117034244Y-89671465D01*
X116509616Y-89146838D01*
X116509616Y-68894754D01*
X117435050Y-67969321D01*
X117468817Y-67941609D01*
X117496991Y-67907280D01*
X117579411Y-67806851D01*
X117661589Y-67653106D01*
X117712195Y-67486282D01*
X117712195Y-67486281D01*
X117725000Y-67356269D01*
X117725000Y-67356261D01*
X117729281Y-67312792D01*
X117727353Y-67293218D01*
X117818505Y-67232312D01*
X118032312Y-67018505D01*
X118090000Y-66932169D01*
X118147688Y-67018505D01*
X118361495Y-67232312D01*
X118612905Y-67400299D01*
X118892257Y-67516011D01*
X119188816Y-67575000D01*
X119491184Y-67575000D01*
X119787743Y-67516011D01*
X120067095Y-67400299D01*
X120318505Y-67232312D01*
X120532312Y-67018505D01*
X120700299Y-66767095D01*
X120816011Y-66487743D01*
X120875000Y-66191184D01*
X120875000Y-65888816D01*
X120816011Y-65592257D01*
X120700299Y-65312905D01*
X120532312Y-65061495D01*
X120318505Y-64847688D01*
X120067095Y-64679701D01*
X119916353Y-64617261D01*
X131044998Y-64617261D01*
X131044998Y-64821139D01*
X131084772Y-65021098D01*
X131162793Y-65209456D01*
X131276061Y-65378974D01*
X131420224Y-65523137D01*
X131589742Y-65636405D01*
X131778100Y-65714426D01*
X131978059Y-65754200D01*
X132181937Y-65754200D01*
X132381896Y-65714426D01*
X132570254Y-65636405D01*
X132693283Y-65554200D01*
X134921833Y-65554200D01*
X135436000Y-66068368D01*
X135436001Y-86441914D01*
X131582079Y-90295837D01*
X131550209Y-90321992D01*
X131462431Y-90428951D01*
X131445864Y-90449138D01*
X131368328Y-90594197D01*
X131320582Y-90751595D01*
X131304460Y-90915283D01*
X131308500Y-90956302D01*
X131308501Y-103463970D01*
X131304460Y-103504999D01*
X131320582Y-103668687D01*
X131368328Y-103826085D01*
X131445176Y-103969856D01*
X131445865Y-103971145D01*
X131550210Y-104098290D01*
X131582074Y-104124440D01*
X132008408Y-104550775D01*
X132037275Y-104695898D01*
X132115296Y-104884256D01*
X132228564Y-105053774D01*
X132372727Y-105197937D01*
X132542245Y-105311205D01*
X132730603Y-105389226D01*
X132930562Y-105429000D01*
X133134440Y-105429000D01*
X133334399Y-105389226D01*
X133522757Y-105311205D01*
X133692275Y-105197937D01*
X133836438Y-105053774D01*
X133949706Y-104884256D01*
X134027727Y-104695898D01*
X134067501Y-104495939D01*
X134067501Y-104292061D01*
X134030886Y-104107984D01*
X134059836Y-104079034D01*
X134173104Y-103909516D01*
X134251125Y-103721158D01*
X134290899Y-103521199D01*
X134290899Y-103317321D01*
X134251125Y-103117362D01*
X134173104Y-102929004D01*
X134059836Y-102759486D01*
X133915673Y-102615323D01*
X133746155Y-102502055D01*
X133677000Y-102473410D01*
X133677000Y-91411193D01*
X137518227Y-87569967D01*
X137550091Y-87543817D01*
X137654436Y-87416672D01*
X137731972Y-87271613D01*
X137779718Y-87114215D01*
X137791800Y-86991545D01*
X137795840Y-86950526D01*
X137791800Y-86909508D01*
X137791800Y-81813061D01*
X140062000Y-81813061D01*
X140062000Y-82016939D01*
X140101774Y-82216898D01*
X140179795Y-82405256D01*
X140262001Y-82528286D01*
X140262000Y-86572981D01*
X140257960Y-86614000D01*
X140262000Y-86655018D01*
X140274082Y-86777688D01*
X140321828Y-86935086D01*
X140399364Y-87080145D01*
X140503709Y-87207291D01*
X140535579Y-87233446D01*
X146803908Y-93501776D01*
X146832774Y-93646898D01*
X146910795Y-93835256D01*
X147024063Y-94004774D01*
X147168226Y-94148937D01*
X147337744Y-94262205D01*
X147526102Y-94340226D01*
X147726061Y-94380000D01*
X147929939Y-94380000D01*
X148129898Y-94340226D01*
X148318256Y-94262205D01*
X148487774Y-94148937D01*
X148631937Y-94004774D01*
X148745205Y-93835256D01*
X148823226Y-93646898D01*
X148863000Y-93446939D01*
X148863000Y-93243061D01*
X148823226Y-93043102D01*
X148745205Y-92854744D01*
X148631937Y-92685226D01*
X148487774Y-92541063D01*
X148318256Y-92427795D01*
X148129898Y-92349774D01*
X147984776Y-92320908D01*
X141932000Y-86268133D01*
X141932000Y-82528285D01*
X142014205Y-82405256D01*
X142092226Y-82216898D01*
X142132000Y-82016939D01*
X142132000Y-81813061D01*
X142092226Y-81613102D01*
X142014205Y-81424744D01*
X141900937Y-81255226D01*
X141756774Y-81111063D01*
X141587256Y-80997795D01*
X141398898Y-80919774D01*
X141198939Y-80880000D01*
X140995061Y-80880000D01*
X140795102Y-80919774D01*
X140606744Y-80997795D01*
X140437226Y-81111063D01*
X140293063Y-81255226D01*
X140179795Y-81424744D01*
X140101774Y-81613102D01*
X140062000Y-81813061D01*
X137791800Y-81813061D01*
X137791800Y-65383285D01*
X137874005Y-65260256D01*
X137923817Y-65140000D01*
X143281928Y-65140000D01*
X143281928Y-66940000D01*
X143294188Y-67064482D01*
X143330498Y-67184180D01*
X143389463Y-67294494D01*
X143468815Y-67391185D01*
X143565506Y-67470537D01*
X143675820Y-67529502D01*
X143795518Y-67565812D01*
X143920000Y-67578072D01*
X145720000Y-67578072D01*
X145844482Y-67565812D01*
X145964180Y-67529502D01*
X146074494Y-67470537D01*
X146171185Y-67391185D01*
X146250537Y-67294494D01*
X146303880Y-67194697D01*
X146341495Y-67232312D01*
X146592905Y-67400299D01*
X146872257Y-67516011D01*
X147168816Y-67575000D01*
X147471184Y-67575000D01*
X147767743Y-67516011D01*
X148047095Y-67400299D01*
X148298505Y-67232312D01*
X148512312Y-67018505D01*
X148570000Y-66932169D01*
X148627688Y-67018505D01*
X148841495Y-67232312D01*
X149092905Y-67400299D01*
X149372257Y-67516011D01*
X149668816Y-67575000D01*
X149971184Y-67575000D01*
X150267743Y-67516011D01*
X150547095Y-67400299D01*
X150798505Y-67232312D01*
X151012312Y-67018505D01*
X151180299Y-66767095D01*
X151296011Y-66487743D01*
X151355000Y-66191184D01*
X151355000Y-65888816D01*
X151296011Y-65592257D01*
X151180299Y-65312905D01*
X151012312Y-65061495D01*
X150798505Y-64847688D01*
X150547095Y-64679701D01*
X150267743Y-64563989D01*
X149971184Y-64505000D01*
X149668816Y-64505000D01*
X149372257Y-64563989D01*
X149092905Y-64679701D01*
X148841495Y-64847688D01*
X148627688Y-65061495D01*
X148570000Y-65147831D01*
X148512312Y-65061495D01*
X148298505Y-64847688D01*
X148047095Y-64679701D01*
X147767743Y-64563989D01*
X147471184Y-64505000D01*
X147168816Y-64505000D01*
X146872257Y-64563989D01*
X146592905Y-64679701D01*
X146341495Y-64847688D01*
X146303880Y-64885303D01*
X146250537Y-64785506D01*
X146171185Y-64688815D01*
X146074494Y-64609463D01*
X145964180Y-64550498D01*
X145844482Y-64514188D01*
X145720000Y-64501928D01*
X143920000Y-64501928D01*
X143795518Y-64514188D01*
X143675820Y-64550498D01*
X143565506Y-64609463D01*
X143468815Y-64688815D01*
X143389463Y-64785506D01*
X143330498Y-64895820D01*
X143294188Y-65015518D01*
X143281928Y-65140000D01*
X137923817Y-65140000D01*
X137952026Y-65071898D01*
X137991800Y-64871939D01*
X137991800Y-64668061D01*
X137952026Y-64468102D01*
X137874005Y-64279744D01*
X137760737Y-64110226D01*
X137616574Y-63966063D01*
X137447056Y-63852795D01*
X137258698Y-63774774D01*
X137058739Y-63735000D01*
X136854861Y-63735000D01*
X136654902Y-63774774D01*
X136466544Y-63852795D01*
X136297026Y-63966063D01*
X136152863Y-64110226D01*
X136039595Y-64279744D01*
X136030666Y-64301299D01*
X135887146Y-64157779D01*
X135860991Y-64125909D01*
X135733846Y-64021564D01*
X135588787Y-63944028D01*
X135431389Y-63896282D01*
X135308719Y-63884200D01*
X135308718Y-63884200D01*
X135267700Y-63880160D01*
X135226682Y-63884200D01*
X132693283Y-63884200D01*
X132570254Y-63801995D01*
X132381896Y-63723974D01*
X132181937Y-63684200D01*
X131978059Y-63684200D01*
X131778100Y-63723974D01*
X131589742Y-63801995D01*
X131420224Y-63915263D01*
X131276061Y-64059426D01*
X131162793Y-64228944D01*
X131084772Y-64417302D01*
X131044998Y-64617261D01*
X119916353Y-64617261D01*
X119787743Y-64563989D01*
X119491184Y-64505000D01*
X119188816Y-64505000D01*
X118892257Y-64563989D01*
X118612905Y-64679701D01*
X118361495Y-64847688D01*
X118147688Y-65061495D01*
X118090000Y-65147831D01*
X118032312Y-65061495D01*
X117818505Y-64847688D01*
X117567095Y-64679701D01*
X117287743Y-64563989D01*
X116991184Y-64505000D01*
X116688816Y-64505000D01*
X116392257Y-64563989D01*
X116112905Y-64679701D01*
X115861495Y-64847688D01*
X115823880Y-64885303D01*
X115770537Y-64785506D01*
X115691185Y-64688815D01*
X115594494Y-64609463D01*
X115484180Y-64550498D01*
X115364482Y-64514188D01*
X115240000Y-64501928D01*
X114625750Y-64505000D01*
X114467000Y-64663750D01*
X114467000Y-65913000D01*
X114487000Y-65913000D01*
X114487000Y-66167000D01*
X114467000Y-66167000D01*
X114467000Y-66187000D01*
X114213000Y-66187000D01*
X114213000Y-66167000D01*
X112963750Y-66167000D01*
X112805000Y-66325750D01*
X112801928Y-66940000D01*
X100672653Y-66940000D01*
X100670315Y-66932294D01*
X100659383Y-66877333D01*
X100637937Y-66825558D01*
X100621676Y-66771953D01*
X100595269Y-66722549D01*
X100573824Y-66670776D01*
X100542693Y-66624186D01*
X100516284Y-66574777D01*
X100480741Y-66531468D01*
X100449612Y-66484880D01*
X100409991Y-66445259D01*
X100374449Y-66401951D01*
X100331141Y-66366409D01*
X100291520Y-66326788D01*
X100244932Y-66295659D01*
X100201623Y-66260116D01*
X100152214Y-66233707D01*
X100105624Y-66202576D01*
X100053851Y-66181131D01*
X100004447Y-66154724D01*
X99950842Y-66138463D01*
X99899067Y-66117017D01*
X99844106Y-66106085D01*
X99790499Y-66089823D01*
X99734747Y-66084332D01*
X99679788Y-66073400D01*
X99623752Y-66073400D01*
X99568000Y-66067909D01*
X99512249Y-66073400D01*
X98963352Y-66073400D01*
X98907600Y-66067909D01*
X98851848Y-66073400D01*
X98685101Y-66089823D01*
X98471153Y-66154724D01*
X98273977Y-66260116D01*
X98101151Y-66401951D01*
X98065608Y-66445260D01*
X97280860Y-67230009D01*
X97237552Y-67265551D01*
X97095717Y-67438377D01*
X97056246Y-67512223D01*
X96990324Y-67635554D01*
X96925423Y-67849502D01*
X96903509Y-68072000D01*
X92143579Y-68072000D01*
X90373060Y-66301482D01*
X90395000Y-66191184D01*
X90395000Y-65888816D01*
X90336011Y-65592257D01*
X90220299Y-65312905D01*
X90104768Y-65140000D01*
X112801928Y-65140000D01*
X112805000Y-65754250D01*
X112963750Y-65913000D01*
X114213000Y-65913000D01*
X114213000Y-64663750D01*
X114054250Y-64505000D01*
X113440000Y-64501928D01*
X113315518Y-64514188D01*
X113195820Y-64550498D01*
X113085506Y-64609463D01*
X112988815Y-64688815D01*
X112909463Y-64785506D01*
X112850498Y-64895820D01*
X112814188Y-65015518D01*
X112801928Y-65140000D01*
X90104768Y-65140000D01*
X90052312Y-65061495D01*
X89838505Y-64847688D01*
X89587095Y-64679701D01*
X89307743Y-64563989D01*
X89011184Y-64505000D01*
X88708816Y-64505000D01*
X88412257Y-64563989D01*
X88132905Y-64679701D01*
X87881495Y-64847688D01*
X87667688Y-65061495D01*
X87610000Y-65147831D01*
X87552312Y-65061495D01*
X87338505Y-64847688D01*
X87087095Y-64679701D01*
X86807743Y-64563989D01*
X86511184Y-64505000D01*
X86208816Y-64505000D01*
X85912257Y-64563989D01*
X85632905Y-64679701D01*
X85381495Y-64847688D01*
X85343880Y-64885303D01*
X85290537Y-64785506D01*
X85211185Y-64688815D01*
X85114494Y-64609463D01*
X85004180Y-64550498D01*
X84884482Y-64514188D01*
X84760000Y-64501928D01*
X84145750Y-64505000D01*
X83987000Y-64663750D01*
X83733000Y-64663750D01*
X83574250Y-64505000D01*
X82960000Y-64501928D01*
X82835518Y-64514188D01*
X82715820Y-64550498D01*
X82605506Y-64609463D01*
X82508815Y-64688815D01*
X82429463Y-64785506D01*
X82370498Y-64895820D01*
X82334188Y-65015518D01*
X82321928Y-65140000D01*
X76860000Y-65140000D01*
X76860000Y-58182002D01*
X79565000Y-58182002D01*
X79565000Y-58897997D01*
X79593867Y-59191087D01*
X79707943Y-59567146D01*
X79893193Y-59913725D01*
X80142497Y-60217503D01*
X80446275Y-60466807D01*
X80792853Y-60652057D01*
X81168912Y-60766133D01*
X81560000Y-60804652D01*
X81951087Y-60766133D01*
X82327146Y-60652057D01*
X82673725Y-60466807D01*
X82977503Y-60217503D01*
X83226807Y-59913725D01*
X83412057Y-59567147D01*
X83526133Y-59191088D01*
X83555000Y-58897998D01*
X83555000Y-58182003D01*
X83555000Y-58182002D01*
X89165000Y-58182002D01*
X89165000Y-58897997D01*
X89193867Y-59191087D01*
X89307943Y-59567146D01*
X89493193Y-59913725D01*
X89742497Y-60217503D01*
X90046275Y-60466807D01*
X90392853Y-60652057D01*
X90768912Y-60766133D01*
X91160000Y-60804652D01*
X91551087Y-60766133D01*
X91927146Y-60652057D01*
X92273725Y-60466807D01*
X92577503Y-60217503D01*
X92826807Y-59913725D01*
X93012057Y-59567147D01*
X93126133Y-59191088D01*
X93155000Y-58897998D01*
X93155000Y-58182003D01*
X93126133Y-57888913D01*
X93029393Y-57570000D01*
X96809928Y-57570000D01*
X96809928Y-59270000D01*
X96822188Y-59394482D01*
X96858498Y-59514180D01*
X96917463Y-59624494D01*
X96996815Y-59721185D01*
X97093506Y-59800537D01*
X97203820Y-59859502D01*
X97323518Y-59895812D01*
X97448000Y-59908072D01*
X99148000Y-59908072D01*
X99272482Y-59895812D01*
X99392180Y-59859502D01*
X99502494Y-59800537D01*
X99599185Y-59721185D01*
X99678537Y-59624494D01*
X99737502Y-59514180D01*
X99761966Y-59433534D01*
X99837731Y-59517588D01*
X100071080Y-59691641D01*
X100333901Y-59816825D01*
X100481110Y-59861476D01*
X100711000Y-59740155D01*
X100711000Y-58547000D01*
X100965000Y-58547000D01*
X100965000Y-59740155D01*
X101194890Y-59861476D01*
X101342099Y-59816825D01*
X101604920Y-59691641D01*
X101838269Y-59517588D01*
X102033178Y-59301355D01*
X102182157Y-59051252D01*
X102279481Y-58776891D01*
X102158814Y-58547000D01*
X100965000Y-58547000D01*
X100711000Y-58547000D01*
X100691000Y-58547000D01*
X100691000Y-58293000D01*
X100711000Y-58293000D01*
X100711000Y-57099845D01*
X100965000Y-57099845D01*
X100965000Y-58293000D01*
X102158814Y-58293000D01*
X102217075Y-58182002D01*
X110045000Y-58182002D01*
X110045000Y-58897997D01*
X110073867Y-59191087D01*
X110187943Y-59567146D01*
X110373193Y-59913725D01*
X110622497Y-60217503D01*
X110926275Y-60466807D01*
X111272853Y-60652057D01*
X111648912Y-60766133D01*
X112040000Y-60804652D01*
X112431087Y-60766133D01*
X112807146Y-60652057D01*
X113153725Y-60466807D01*
X113457503Y-60217503D01*
X113706807Y-59913725D01*
X113892057Y-59567147D01*
X114006133Y-59191088D01*
X114035000Y-58897998D01*
X114035000Y-58182003D01*
X114035000Y-58182002D01*
X119645000Y-58182002D01*
X119645000Y-58897997D01*
X119673867Y-59191087D01*
X119787943Y-59567146D01*
X119973193Y-59913725D01*
X120222497Y-60217503D01*
X120526275Y-60466807D01*
X120872853Y-60652057D01*
X121248912Y-60766133D01*
X121640000Y-60804652D01*
X122031087Y-60766133D01*
X122407146Y-60652057D01*
X122753725Y-60466807D01*
X123057503Y-60217503D01*
X123306807Y-59913725D01*
X123492057Y-59567147D01*
X123606133Y-59191088D01*
X123635000Y-58897998D01*
X123635000Y-58268816D01*
X130545000Y-58268816D01*
X130545000Y-58571184D01*
X130603989Y-58867743D01*
X130719701Y-59147095D01*
X130887688Y-59398505D01*
X131101495Y-59612312D01*
X131352905Y-59780299D01*
X131632257Y-59896011D01*
X131928816Y-59955000D01*
X132231184Y-59955000D01*
X132527743Y-59896011D01*
X132807095Y-59780299D01*
X133058505Y-59612312D01*
X133272312Y-59398505D01*
X133374951Y-59244895D01*
X133555920Y-59304475D01*
X134440395Y-58420000D01*
X133555920Y-57535525D01*
X133374951Y-57595105D01*
X133272312Y-57441495D01*
X133186737Y-57355920D01*
X133735525Y-57355920D01*
X134620000Y-58240395D01*
X134634143Y-58226253D01*
X134813748Y-58405858D01*
X134799605Y-58420000D01*
X134813748Y-58434143D01*
X134634143Y-58613748D01*
X134620000Y-58599605D01*
X133735525Y-59484080D01*
X133819208Y-59738261D01*
X134091775Y-59869158D01*
X134384642Y-59944365D01*
X134686553Y-59960991D01*
X134985907Y-59918397D01*
X135271199Y-59818222D01*
X135420792Y-59738261D01*
X135504474Y-59484082D01*
X135620422Y-59600030D01*
X135667187Y-59553265D01*
X135670498Y-59564180D01*
X135729463Y-59674494D01*
X135808815Y-59771185D01*
X135905506Y-59850537D01*
X136015820Y-59909502D01*
X136135518Y-59945812D01*
X136260000Y-59958072D01*
X138060000Y-59958072D01*
X138184482Y-59945812D01*
X138304180Y-59909502D01*
X138414494Y-59850537D01*
X138511185Y-59771185D01*
X138590537Y-59674494D01*
X138649502Y-59564180D01*
X138685812Y-59444482D01*
X138698072Y-59320000D01*
X138698072Y-58182002D01*
X140525000Y-58182002D01*
X140525000Y-58897997D01*
X140553867Y-59191087D01*
X140667943Y-59567146D01*
X140853193Y-59913725D01*
X141102497Y-60217503D01*
X141406275Y-60466807D01*
X141752853Y-60652057D01*
X142128912Y-60766133D01*
X142520000Y-60804652D01*
X142911087Y-60766133D01*
X143287146Y-60652057D01*
X143633725Y-60466807D01*
X143937503Y-60217503D01*
X144186807Y-59913725D01*
X144372057Y-59567147D01*
X144486133Y-59191088D01*
X144515000Y-58897998D01*
X144515000Y-58182003D01*
X144515000Y-58182002D01*
X150125000Y-58182002D01*
X150125000Y-58897997D01*
X150153867Y-59191087D01*
X150267943Y-59567146D01*
X150453193Y-59913725D01*
X150702497Y-60217503D01*
X151006275Y-60466807D01*
X151352853Y-60652057D01*
X151728912Y-60766133D01*
X152120000Y-60804652D01*
X152511087Y-60766133D01*
X152887146Y-60652057D01*
X153233725Y-60466807D01*
X153537503Y-60217503D01*
X153786807Y-59913725D01*
X153972057Y-59567147D01*
X154086133Y-59191088D01*
X154115000Y-58897998D01*
X154115000Y-58182003D01*
X154086133Y-57888913D01*
X153972057Y-57512853D01*
X153786807Y-57166275D01*
X153537503Y-56862497D01*
X153233725Y-56613193D01*
X152887147Y-56427943D01*
X152511088Y-56313867D01*
X152120000Y-56275348D01*
X151728913Y-56313867D01*
X151352854Y-56427943D01*
X151006276Y-56613193D01*
X150702498Y-56862497D01*
X150453193Y-57166275D01*
X150267943Y-57512853D01*
X150153867Y-57888912D01*
X150125000Y-58182002D01*
X144515000Y-58182002D01*
X144486133Y-57888913D01*
X144372057Y-57512853D01*
X144186807Y-57166275D01*
X143937503Y-56862497D01*
X143633725Y-56613193D01*
X143287147Y-56427943D01*
X142911088Y-56313867D01*
X142520000Y-56275348D01*
X142128913Y-56313867D01*
X141752854Y-56427943D01*
X141406276Y-56613193D01*
X141102498Y-56862497D01*
X140853193Y-57166275D01*
X140667943Y-57512853D01*
X140553867Y-57888912D01*
X140525000Y-58182002D01*
X138698072Y-58182002D01*
X138698072Y-57520000D01*
X138685812Y-57395518D01*
X138649502Y-57275820D01*
X138590537Y-57165506D01*
X138511185Y-57068815D01*
X138414494Y-56989463D01*
X138304180Y-56930498D01*
X138184482Y-56894188D01*
X138060000Y-56881928D01*
X136260000Y-56881928D01*
X136135518Y-56894188D01*
X136015820Y-56930498D01*
X135905506Y-56989463D01*
X135808815Y-57068815D01*
X135729463Y-57165506D01*
X135670498Y-57275820D01*
X135667187Y-57286735D01*
X135620422Y-57239970D01*
X135504474Y-57355918D01*
X135420792Y-57101739D01*
X135148225Y-56970842D01*
X134855358Y-56895635D01*
X134553447Y-56879009D01*
X134254093Y-56921603D01*
X133968801Y-57021778D01*
X133819208Y-57101739D01*
X133735525Y-57355920D01*
X133186737Y-57355920D01*
X133058505Y-57227688D01*
X132807095Y-57059701D01*
X132527743Y-56943989D01*
X132231184Y-56885000D01*
X131928816Y-56885000D01*
X131632257Y-56943989D01*
X131352905Y-57059701D01*
X131101495Y-57227688D01*
X130887688Y-57441495D01*
X130719701Y-57692905D01*
X130603989Y-57972257D01*
X130545000Y-58268816D01*
X123635000Y-58268816D01*
X123635000Y-58182003D01*
X123606133Y-57888913D01*
X123492057Y-57512853D01*
X123306807Y-57166275D01*
X123057503Y-56862497D01*
X122753725Y-56613193D01*
X122407147Y-56427943D01*
X122031088Y-56313867D01*
X121640000Y-56275348D01*
X121248913Y-56313867D01*
X120872854Y-56427943D01*
X120526276Y-56613193D01*
X120222498Y-56862497D01*
X119973193Y-57166275D01*
X119787943Y-57512853D01*
X119673867Y-57888912D01*
X119645000Y-58182002D01*
X114035000Y-58182002D01*
X114006133Y-57888913D01*
X113892057Y-57512853D01*
X113706807Y-57166275D01*
X113457503Y-56862497D01*
X113153725Y-56613193D01*
X112807147Y-56427943D01*
X112431088Y-56313867D01*
X112040000Y-56275348D01*
X111648913Y-56313867D01*
X111272854Y-56427943D01*
X110926276Y-56613193D01*
X110622498Y-56862497D01*
X110373193Y-57166275D01*
X110187943Y-57512853D01*
X110073867Y-57888912D01*
X110045000Y-58182002D01*
X102217075Y-58182002D01*
X102279481Y-58063109D01*
X102182157Y-57788748D01*
X102033178Y-57538645D01*
X101838269Y-57322412D01*
X101604920Y-57148359D01*
X101342099Y-57023175D01*
X101194890Y-56978524D01*
X100965000Y-57099845D01*
X100711000Y-57099845D01*
X100481110Y-56978524D01*
X100333901Y-57023175D01*
X100071080Y-57148359D01*
X99837731Y-57322412D01*
X99761966Y-57406466D01*
X99737502Y-57325820D01*
X99678537Y-57215506D01*
X99599185Y-57118815D01*
X99502494Y-57039463D01*
X99392180Y-56980498D01*
X99272482Y-56944188D01*
X99148000Y-56931928D01*
X97448000Y-56931928D01*
X97323518Y-56944188D01*
X97203820Y-56980498D01*
X97093506Y-57039463D01*
X96996815Y-57118815D01*
X96917463Y-57215506D01*
X96858498Y-57325820D01*
X96822188Y-57445518D01*
X96809928Y-57570000D01*
X93029393Y-57570000D01*
X93012057Y-57512853D01*
X92826807Y-57166275D01*
X92577503Y-56862497D01*
X92273725Y-56613193D01*
X91927147Y-56427943D01*
X91551088Y-56313867D01*
X91160000Y-56275348D01*
X90768913Y-56313867D01*
X90392854Y-56427943D01*
X90046276Y-56613193D01*
X89742498Y-56862497D01*
X89493193Y-57166275D01*
X89307943Y-57512853D01*
X89193867Y-57888912D01*
X89165000Y-58182002D01*
X83555000Y-58182002D01*
X83526133Y-57888913D01*
X83412057Y-57512853D01*
X83226807Y-57166275D01*
X82977503Y-56862497D01*
X82673725Y-56613193D01*
X82327147Y-56427943D01*
X81951088Y-56313867D01*
X81560000Y-56275348D01*
X81168913Y-56313867D01*
X80792854Y-56427943D01*
X80446276Y-56613193D01*
X80142498Y-56862497D01*
X79893193Y-57166275D01*
X79707943Y-57512853D01*
X79593867Y-57888912D01*
X79565000Y-58182002D01*
X76860000Y-58182002D01*
X76860000Y-55909392D01*
X76932437Y-55097751D01*
X77139672Y-54340226D01*
X77477777Y-53631375D01*
X77936067Y-52993596D01*
X78500055Y-52447054D01*
X79151913Y-52009023D01*
X79871038Y-51693349D01*
X80639768Y-51508794D01*
X81304207Y-51460000D01*
X152370608Y-51460000D01*
X153182249Y-51532437D01*
M02*
