%TF.GenerationSoftware,KiCad,Pcbnew,5.1.6-c6e7f7d~87~ubuntu18.04.1*%
%TF.CreationDate,2020-08-18T09:57:54-04:00*%
%TF.ProjectId,bit_crusher_pedal,6269745f-6372-4757-9368-65725f706564,1*%
%TF.SameCoordinates,Original*%
%TF.FileFunction,Legend,Bot*%
%TF.FilePolarity,Positive*%
%FSLAX46Y46*%
G04 Gerber Fmt 4.6, Leading zero omitted, Abs format (unit mm)*
G04 Created by KiCad (PCBNEW 5.1.6-c6e7f7d~87~ubuntu18.04.1) date 2020-08-18 09:57:54*
%MOMM*%
%LPD*%
G01*
G04 APERTURE LIST*
%ADD10C,0.150000*%
%ADD11C,0.120000*%
G04 APERTURE END LIST*
D10*
X102280404Y-85987380D02*
X102280404Y-85320714D01*
X102280404Y-85511190D02*
X102232785Y-85415952D01*
X102185166Y-85368333D01*
X102089928Y-85320714D01*
X101994690Y-85320714D01*
X101232785Y-85987380D02*
X101232785Y-85463571D01*
X101280404Y-85368333D01*
X101375642Y-85320714D01*
X101566119Y-85320714D01*
X101661357Y-85368333D01*
X101232785Y-85939761D02*
X101328023Y-85987380D01*
X101566119Y-85987380D01*
X101661357Y-85939761D01*
X101708976Y-85844523D01*
X101708976Y-85749285D01*
X101661357Y-85654047D01*
X101566119Y-85606428D01*
X101328023Y-85606428D01*
X101232785Y-85558809D01*
X100899452Y-85320714D02*
X100518500Y-85320714D01*
X100756595Y-84987380D02*
X100756595Y-85844523D01*
X100708976Y-85939761D01*
X100613738Y-85987380D01*
X100518500Y-85987380D01*
X99804214Y-85939761D02*
X99899452Y-85987380D01*
X100089928Y-85987380D01*
X100185166Y-85939761D01*
X100232785Y-85844523D01*
X100232785Y-85463571D01*
X100185166Y-85368333D01*
X100089928Y-85320714D01*
X99899452Y-85320714D01*
X99804214Y-85368333D01*
X99756595Y-85463571D01*
X99756595Y-85558809D01*
X100232785Y-85654047D01*
X99328023Y-85606428D02*
X98566119Y-85606428D01*
X97518500Y-85892142D02*
X97566119Y-85939761D01*
X97708976Y-85987380D01*
X97804214Y-85987380D01*
X97947071Y-85939761D01*
X98042309Y-85844523D01*
X98089928Y-85749285D01*
X98137547Y-85558809D01*
X98137547Y-85415952D01*
X98089928Y-85225476D01*
X98042309Y-85130238D01*
X97947071Y-85035000D01*
X97804214Y-84987380D01*
X97708976Y-84987380D01*
X97566119Y-85035000D01*
X97518500Y-85082619D01*
X97232785Y-84987380D02*
X96899452Y-85987380D01*
X96566119Y-84987380D01*
X102423261Y-86970714D02*
X102042309Y-86970714D01*
X102280404Y-86637380D02*
X102280404Y-87494523D01*
X102232785Y-87589761D01*
X102137547Y-87637380D01*
X102042309Y-87637380D01*
X101708976Y-87637380D02*
X101708976Y-86970714D01*
X101708976Y-87161190D02*
X101661357Y-87065952D01*
X101613738Y-87018333D01*
X101518500Y-86970714D01*
X101423261Y-86970714D01*
X101089928Y-87637380D02*
X101089928Y-86970714D01*
X101089928Y-86637380D02*
X101137547Y-86685000D01*
X101089928Y-86732619D01*
X101042309Y-86685000D01*
X101089928Y-86637380D01*
X101089928Y-86732619D01*
X100613738Y-87637380D02*
X100613738Y-86970714D01*
X100613738Y-87065952D02*
X100566119Y-87018333D01*
X100470880Y-86970714D01*
X100328023Y-86970714D01*
X100232785Y-87018333D01*
X100185166Y-87113571D01*
X100185166Y-87637380D01*
X100185166Y-87113571D02*
X100137547Y-87018333D01*
X100042309Y-86970714D01*
X99899452Y-86970714D01*
X99804214Y-87018333D01*
X99756595Y-87113571D01*
X99756595Y-87637380D01*
X101264404Y-75827380D02*
X101264404Y-74827380D01*
X101264404Y-75208333D02*
X101169166Y-75160714D01*
X100978690Y-75160714D01*
X100883452Y-75208333D01*
X100835833Y-75255952D01*
X100788214Y-75351190D01*
X100788214Y-75636904D01*
X100835833Y-75732142D01*
X100883452Y-75779761D01*
X100978690Y-75827380D01*
X101169166Y-75827380D01*
X101264404Y-75779761D01*
X100359642Y-75827380D02*
X100359642Y-75160714D01*
X100359642Y-74827380D02*
X100407261Y-74875000D01*
X100359642Y-74922619D01*
X100312023Y-74875000D01*
X100359642Y-74827380D01*
X100359642Y-74922619D01*
X100026309Y-75160714D02*
X99645357Y-75160714D01*
X99883452Y-74827380D02*
X99883452Y-75684523D01*
X99835833Y-75779761D01*
X99740595Y-75827380D01*
X99645357Y-75827380D01*
X99312023Y-75446428D02*
X98550119Y-75446428D01*
X97502500Y-75732142D02*
X97550119Y-75779761D01*
X97692976Y-75827380D01*
X97788214Y-75827380D01*
X97931071Y-75779761D01*
X98026309Y-75684523D01*
X98073928Y-75589285D01*
X98121547Y-75398809D01*
X98121547Y-75255952D01*
X98073928Y-75065476D01*
X98026309Y-74970238D01*
X97931071Y-74875000D01*
X97788214Y-74827380D01*
X97692976Y-74827380D01*
X97550119Y-74875000D01*
X97502500Y-74922619D01*
X97216785Y-74827380D02*
X96883452Y-75827380D01*
X96550119Y-74827380D01*
X101407261Y-76810714D02*
X101026309Y-76810714D01*
X101264404Y-76477380D02*
X101264404Y-77334523D01*
X101216785Y-77429761D01*
X101121547Y-77477380D01*
X101026309Y-77477380D01*
X100692976Y-77477380D02*
X100692976Y-76810714D01*
X100692976Y-77001190D02*
X100645357Y-76905952D01*
X100597738Y-76858333D01*
X100502500Y-76810714D01*
X100407261Y-76810714D01*
X100073928Y-77477380D02*
X100073928Y-76810714D01*
X100073928Y-76477380D02*
X100121547Y-76525000D01*
X100073928Y-76572619D01*
X100026309Y-76525000D01*
X100073928Y-76477380D01*
X100073928Y-76572619D01*
X99597738Y-77477380D02*
X99597738Y-76810714D01*
X99597738Y-76905952D02*
X99550119Y-76858333D01*
X99454880Y-76810714D01*
X99312023Y-76810714D01*
X99216785Y-76858333D01*
X99169166Y-76953571D01*
X99169166Y-77477380D01*
X99169166Y-76953571D02*
X99121547Y-76858333D01*
X99026309Y-76810714D01*
X98883452Y-76810714D01*
X98788214Y-76858333D01*
X98740595Y-76953571D01*
X98740595Y-77477380D01*
X124007619Y-106630214D02*
X124007619Y-107106404D01*
X125007619Y-107106404D01*
X124531428Y-106296880D02*
X124531428Y-105963547D01*
X124007619Y-105820690D02*
X124007619Y-106296880D01*
X125007619Y-106296880D01*
X125007619Y-105820690D01*
X124007619Y-105392119D02*
X125007619Y-105392119D01*
X125007619Y-105154023D01*
X124960000Y-105011166D01*
X124864761Y-104915928D01*
X124769523Y-104868309D01*
X124579047Y-104820690D01*
X124436190Y-104820690D01*
X124245714Y-104868309D01*
X124150476Y-104915928D01*
X124055238Y-105011166D01*
X124007619Y-105154023D01*
X124007619Y-105392119D01*
X124388571Y-104392119D02*
X124388571Y-103630214D01*
X121467619Y-106630214D02*
X121467619Y-107106404D01*
X122467619Y-107106404D01*
X121991428Y-106296880D02*
X121991428Y-105963547D01*
X121467619Y-105820690D02*
X121467619Y-106296880D01*
X122467619Y-106296880D01*
X122467619Y-105820690D01*
X121467619Y-105392119D02*
X122467619Y-105392119D01*
X122467619Y-105154023D01*
X122420000Y-105011166D01*
X122324761Y-104915928D01*
X122229523Y-104868309D01*
X122039047Y-104820690D01*
X121896190Y-104820690D01*
X121705714Y-104868309D01*
X121610476Y-104915928D01*
X121515238Y-105011166D01*
X121467619Y-105154023D01*
X121467619Y-105392119D01*
X121848571Y-104392119D02*
X121848571Y-103630214D01*
X121467619Y-104011166D02*
X122229523Y-104011166D01*
X126363809Y-62142714D02*
X126363809Y-62809380D01*
X126792380Y-62142714D02*
X126792380Y-62666523D01*
X126744761Y-62761761D01*
X126649523Y-62809380D01*
X126506666Y-62809380D01*
X126411428Y-62761761D01*
X126363809Y-62714142D01*
X125982857Y-62142714D02*
X125744761Y-62809380D01*
X125506666Y-62142714D01*
X124697142Y-62809380D02*
X124697142Y-62285571D01*
X124744761Y-62190333D01*
X124840000Y-62142714D01*
X125030476Y-62142714D01*
X125125714Y-62190333D01*
X124697142Y-62761761D02*
X124792380Y-62809380D01*
X125030476Y-62809380D01*
X125125714Y-62761761D01*
X125173333Y-62666523D01*
X125173333Y-62571285D01*
X125125714Y-62476047D01*
X125030476Y-62428428D01*
X124792380Y-62428428D01*
X124697142Y-62380809D01*
X123030476Y-62142714D02*
X123030476Y-62809380D01*
X123459047Y-62142714D02*
X123459047Y-62666523D01*
X123411428Y-62761761D01*
X123316190Y-62809380D01*
X123173333Y-62809380D01*
X123078095Y-62761761D01*
X123030476Y-62714142D01*
X122649523Y-62142714D02*
X122411428Y-62809380D01*
X122173333Y-62142714D01*
X121363809Y-62809380D02*
X121363809Y-62285571D01*
X121411428Y-62190333D01*
X121506666Y-62142714D01*
X121697142Y-62142714D01*
X121792380Y-62190333D01*
X121363809Y-62761761D02*
X121459047Y-62809380D01*
X121697142Y-62809380D01*
X121792380Y-62761761D01*
X121840000Y-62666523D01*
X121840000Y-62571285D01*
X121792380Y-62476047D01*
X121697142Y-62428428D01*
X121459047Y-62428428D01*
X121363809Y-62380809D01*
X120887619Y-62809380D02*
X120887619Y-62142714D01*
X120887619Y-62237952D02*
X120840000Y-62190333D01*
X120744761Y-62142714D01*
X120601904Y-62142714D01*
X120506666Y-62190333D01*
X120459047Y-62285571D01*
X120459047Y-62809380D01*
X120459047Y-62285571D02*
X120411428Y-62190333D01*
X120316190Y-62142714D01*
X120173333Y-62142714D01*
X120078095Y-62190333D01*
X120030476Y-62285571D01*
X120030476Y-62809380D01*
X118887619Y-62142714D02*
X118649523Y-62809380D01*
X118411428Y-62142714D01*
X118030476Y-62809380D02*
X118030476Y-62142714D01*
X118030476Y-61809380D02*
X118078095Y-61857000D01*
X118030476Y-61904619D01*
X117982857Y-61857000D01*
X118030476Y-61809380D01*
X118030476Y-61904619D01*
X117649523Y-62142714D02*
X117411428Y-62809380D01*
X117173333Y-62142714D01*
X116411428Y-62761761D02*
X116506666Y-62809380D01*
X116697142Y-62809380D01*
X116792380Y-62761761D01*
X116840000Y-62666523D01*
X116840000Y-62285571D01*
X116792380Y-62190333D01*
X116697142Y-62142714D01*
X116506666Y-62142714D01*
X116411428Y-62190333D01*
X116363809Y-62285571D01*
X116363809Y-62380809D01*
X116840000Y-62476047D01*
X115935238Y-62142714D02*
X115935238Y-62809380D01*
X115935238Y-62237952D02*
X115887619Y-62190333D01*
X115792380Y-62142714D01*
X115649523Y-62142714D01*
X115554285Y-62190333D01*
X115506666Y-62285571D01*
X115506666Y-62809380D01*
X114601904Y-62809380D02*
X114601904Y-61809380D01*
X114601904Y-62761761D02*
X114697142Y-62809380D01*
X114887619Y-62809380D01*
X114982857Y-62761761D01*
X115030476Y-62714142D01*
X115078095Y-62618904D01*
X115078095Y-62333190D01*
X115030476Y-62237952D01*
X114982857Y-62190333D01*
X114887619Y-62142714D01*
X114697142Y-62142714D01*
X114601904Y-62190333D01*
X113982857Y-62809380D02*
X114078095Y-62761761D01*
X114125714Y-62714142D01*
X114173333Y-62618904D01*
X114173333Y-62333190D01*
X114125714Y-62237952D01*
X114078095Y-62190333D01*
X113982857Y-62142714D01*
X113840000Y-62142714D01*
X113744761Y-62190333D01*
X113697142Y-62237952D01*
X113649523Y-62333190D01*
X113649523Y-62618904D01*
X113697142Y-62714142D01*
X113744761Y-62761761D01*
X113840000Y-62809380D01*
X113982857Y-62809380D01*
X112554285Y-62142714D02*
X112316190Y-62809380D01*
X112078095Y-62142714D01*
X111268571Y-62809380D02*
X111268571Y-62285571D01*
X111316190Y-62190333D01*
X111411428Y-62142714D01*
X111601904Y-62142714D01*
X111697142Y-62190333D01*
X111268571Y-62761761D02*
X111363809Y-62809380D01*
X111601904Y-62809380D01*
X111697142Y-62761761D01*
X111744761Y-62666523D01*
X111744761Y-62571285D01*
X111697142Y-62476047D01*
X111601904Y-62428428D01*
X111363809Y-62428428D01*
X111268571Y-62380809D01*
X110792380Y-62809380D02*
X110792380Y-62142714D01*
X110792380Y-62333190D02*
X110744761Y-62237952D01*
X110697142Y-62190333D01*
X110601904Y-62142714D01*
X110506666Y-62142714D01*
X110173333Y-62809380D02*
X110173333Y-62142714D01*
X110173333Y-61809380D02*
X110220952Y-61857000D01*
X110173333Y-61904619D01*
X110125714Y-61857000D01*
X110173333Y-61809380D01*
X110173333Y-61904619D01*
X109268571Y-62809380D02*
X109268571Y-62285571D01*
X109316190Y-62190333D01*
X109411428Y-62142714D01*
X109601904Y-62142714D01*
X109697142Y-62190333D01*
X109268571Y-62761761D02*
X109363809Y-62809380D01*
X109601904Y-62809380D01*
X109697142Y-62761761D01*
X109744761Y-62666523D01*
X109744761Y-62571285D01*
X109697142Y-62476047D01*
X109601904Y-62428428D01*
X109363809Y-62428428D01*
X109268571Y-62380809D01*
X108173333Y-62142714D02*
X107792380Y-62142714D01*
X108030476Y-62809380D02*
X108030476Y-61952238D01*
X107982857Y-61857000D01*
X107887619Y-61809380D01*
X107792380Y-61809380D01*
X107459047Y-62809380D02*
X107459047Y-62142714D01*
X107459047Y-61809380D02*
X107506666Y-61857000D01*
X107459047Y-61904619D01*
X107411428Y-61857000D01*
X107459047Y-61809380D01*
X107459047Y-61904619D01*
X107125714Y-62142714D02*
X106744761Y-62142714D01*
X106982857Y-61809380D02*
X106982857Y-62666523D01*
X106935238Y-62761761D01*
X106840000Y-62809380D01*
X106744761Y-62809380D01*
X154366333Y-52428214D02*
X154366333Y-53237738D01*
X154413952Y-53332976D01*
X154461571Y-53380595D01*
X154556809Y-53428214D01*
X154699666Y-53428214D01*
X154794904Y-53380595D01*
X154366333Y-53047261D02*
X154461571Y-53094880D01*
X154652047Y-53094880D01*
X154747285Y-53047261D01*
X154794904Y-52999642D01*
X154842523Y-52904404D01*
X154842523Y-52618690D01*
X154794904Y-52523452D01*
X154747285Y-52475833D01*
X154652047Y-52428214D01*
X154461571Y-52428214D01*
X154366333Y-52475833D01*
X153890142Y-53094880D02*
X153890142Y-52428214D01*
X153890142Y-52094880D02*
X153937761Y-52142500D01*
X153890142Y-52190119D01*
X153842523Y-52142500D01*
X153890142Y-52094880D01*
X153890142Y-52190119D01*
X153556809Y-52428214D02*
X153175857Y-52428214D01*
X153413952Y-52094880D02*
X153413952Y-52952023D01*
X153366333Y-53047261D01*
X153271095Y-53094880D01*
X153175857Y-53094880D01*
X152842523Y-53094880D02*
X152842523Y-52094880D01*
X152413952Y-53094880D02*
X152413952Y-52571071D01*
X152461571Y-52475833D01*
X152556809Y-52428214D01*
X152699666Y-52428214D01*
X152794904Y-52475833D01*
X152842523Y-52523452D01*
X151509190Y-52428214D02*
X151509190Y-53094880D01*
X151937761Y-52428214D02*
X151937761Y-52952023D01*
X151890142Y-53047261D01*
X151794904Y-53094880D01*
X151652047Y-53094880D01*
X151556809Y-53047261D01*
X151509190Y-52999642D01*
X151033000Y-53094880D02*
X151033000Y-52094880D01*
X151033000Y-52475833D02*
X150937761Y-52428214D01*
X150747285Y-52428214D01*
X150652047Y-52475833D01*
X150604428Y-52523452D01*
X150556809Y-52618690D01*
X150556809Y-52904404D01*
X150604428Y-52999642D01*
X150652047Y-53047261D01*
X150747285Y-53094880D01*
X150937761Y-53094880D01*
X151033000Y-53047261D01*
X150128238Y-52999642D02*
X150080619Y-53047261D01*
X150128238Y-53094880D01*
X150175857Y-53047261D01*
X150128238Y-52999642D01*
X150128238Y-53094880D01*
X149223476Y-53047261D02*
X149318714Y-53094880D01*
X149509190Y-53094880D01*
X149604428Y-53047261D01*
X149652047Y-52999642D01*
X149699666Y-52904404D01*
X149699666Y-52618690D01*
X149652047Y-52523452D01*
X149604428Y-52475833D01*
X149509190Y-52428214D01*
X149318714Y-52428214D01*
X149223476Y-52475833D01*
X148652047Y-53094880D02*
X148747285Y-53047261D01*
X148794904Y-52999642D01*
X148842523Y-52904404D01*
X148842523Y-52618690D01*
X148794904Y-52523452D01*
X148747285Y-52475833D01*
X148652047Y-52428214D01*
X148509190Y-52428214D01*
X148413952Y-52475833D01*
X148366333Y-52523452D01*
X148318714Y-52618690D01*
X148318714Y-52904404D01*
X148366333Y-52999642D01*
X148413952Y-53047261D01*
X148509190Y-53094880D01*
X148652047Y-53094880D01*
X147890142Y-53094880D02*
X147890142Y-52428214D01*
X147890142Y-52523452D02*
X147842523Y-52475833D01*
X147747285Y-52428214D01*
X147604428Y-52428214D01*
X147509190Y-52475833D01*
X147461571Y-52571071D01*
X147461571Y-53094880D01*
X147461571Y-52571071D02*
X147413952Y-52475833D01*
X147318714Y-52428214D01*
X147175857Y-52428214D01*
X147080619Y-52475833D01*
X147033000Y-52571071D01*
X147033000Y-53094880D01*
X145842523Y-52047261D02*
X146699666Y-53332976D01*
X145223476Y-52094880D02*
X145223476Y-52809166D01*
X145271095Y-52952023D01*
X145366333Y-53047261D01*
X145509190Y-53094880D01*
X145604428Y-53094880D01*
X144604428Y-53094880D02*
X144699666Y-53047261D01*
X144747285Y-52999642D01*
X144794904Y-52904404D01*
X144794904Y-52618690D01*
X144747285Y-52523452D01*
X144699666Y-52475833D01*
X144604428Y-52428214D01*
X144461571Y-52428214D01*
X144366333Y-52475833D01*
X144318714Y-52523452D01*
X144271095Y-52618690D01*
X144271095Y-52904404D01*
X144318714Y-52999642D01*
X144366333Y-53047261D01*
X144461571Y-53094880D01*
X144604428Y-53094880D01*
X143842523Y-53094880D02*
X143842523Y-52428214D01*
X143842523Y-52618690D02*
X143794904Y-52523452D01*
X143747285Y-52475833D01*
X143652047Y-52428214D01*
X143556809Y-52428214D01*
X142794904Y-53094880D02*
X142794904Y-52094880D01*
X142794904Y-53047261D02*
X142890142Y-53094880D01*
X143080619Y-53094880D01*
X143175857Y-53047261D01*
X143223476Y-52999642D01*
X143271095Y-52904404D01*
X143271095Y-52618690D01*
X143223476Y-52523452D01*
X143175857Y-52475833D01*
X143080619Y-52428214D01*
X142890142Y-52428214D01*
X142794904Y-52475833D01*
X141890142Y-53094880D02*
X141890142Y-52571071D01*
X141937761Y-52475833D01*
X142033000Y-52428214D01*
X142223476Y-52428214D01*
X142318714Y-52475833D01*
X141890142Y-53047261D02*
X141985380Y-53094880D01*
X142223476Y-53094880D01*
X142318714Y-53047261D01*
X142366333Y-52952023D01*
X142366333Y-52856785D01*
X142318714Y-52761547D01*
X142223476Y-52713928D01*
X141985380Y-52713928D01*
X141890142Y-52666309D01*
X141413952Y-52428214D02*
X141413952Y-53094880D01*
X141413952Y-52523452D02*
X141366333Y-52475833D01*
X141271095Y-52428214D01*
X141128238Y-52428214D01*
X141033000Y-52475833D01*
X140985380Y-52571071D01*
X140985380Y-53094880D01*
X140556809Y-52809166D02*
X140080619Y-52809166D01*
X140652047Y-53094880D02*
X140318714Y-52094880D01*
X139985380Y-53094880D01*
X139223476Y-53047261D02*
X139318714Y-53094880D01*
X139509190Y-53094880D01*
X139604428Y-53047261D01*
X139652047Y-52999642D01*
X139699666Y-52904404D01*
X139699666Y-52618690D01*
X139652047Y-52523452D01*
X139604428Y-52475833D01*
X139509190Y-52428214D01*
X139318714Y-52428214D01*
X139223476Y-52475833D01*
X138413952Y-53047261D02*
X138509190Y-53094880D01*
X138699666Y-53094880D01*
X138794904Y-53047261D01*
X138842523Y-52952023D01*
X138842523Y-52571071D01*
X138794904Y-52475833D01*
X138699666Y-52428214D01*
X138509190Y-52428214D01*
X138413952Y-52475833D01*
X138366333Y-52571071D01*
X138366333Y-52666309D01*
X138842523Y-52761547D01*
X138080619Y-52428214D02*
X137699666Y-52428214D01*
X137937761Y-52094880D02*
X137937761Y-52952023D01*
X137890142Y-53047261D01*
X137794904Y-53094880D01*
X137699666Y-53094880D01*
X137223476Y-53094880D02*
X137318714Y-53047261D01*
X137366333Y-52999642D01*
X137413952Y-52904404D01*
X137413952Y-52618690D01*
X137366333Y-52523452D01*
X137318714Y-52475833D01*
X137223476Y-52428214D01*
X137080619Y-52428214D01*
X136985380Y-52475833D01*
X136937761Y-52523452D01*
X136890142Y-52618690D01*
X136890142Y-52904404D01*
X136937761Y-52999642D01*
X136985380Y-53047261D01*
X137080619Y-53094880D01*
X137223476Y-53094880D01*
X135747285Y-52047261D02*
X136604428Y-53332976D01*
X135413952Y-53094880D02*
X135413952Y-52094880D01*
X135413952Y-52475833D02*
X135318714Y-52428214D01*
X135128238Y-52428214D01*
X135033000Y-52475833D01*
X134985380Y-52523452D01*
X134937761Y-52618690D01*
X134937761Y-52904404D01*
X134985380Y-52999642D01*
X135033000Y-53047261D01*
X135128238Y-53094880D01*
X135318714Y-53094880D01*
X135413952Y-53047261D01*
X134509190Y-53094880D02*
X134509190Y-52428214D01*
X134509190Y-52094880D02*
X134556809Y-52142500D01*
X134509190Y-52190119D01*
X134461571Y-52142500D01*
X134509190Y-52094880D01*
X134509190Y-52190119D01*
X134175857Y-52428214D02*
X133794904Y-52428214D01*
X134033000Y-52094880D02*
X134033000Y-52952023D01*
X133985380Y-53047261D01*
X133890142Y-53094880D01*
X133794904Y-53094880D01*
X133699666Y-53190119D02*
X132937761Y-53190119D01*
X132271095Y-53047261D02*
X132366333Y-53094880D01*
X132556809Y-53094880D01*
X132652047Y-53047261D01*
X132699666Y-52999642D01*
X132747285Y-52904404D01*
X132747285Y-52618690D01*
X132699666Y-52523452D01*
X132652047Y-52475833D01*
X132556809Y-52428214D01*
X132366333Y-52428214D01*
X132271095Y-52475833D01*
X131842523Y-53094880D02*
X131842523Y-52428214D01*
X131842523Y-52618690D02*
X131794904Y-52523452D01*
X131747285Y-52475833D01*
X131652047Y-52428214D01*
X131556809Y-52428214D01*
X130794904Y-52428214D02*
X130794904Y-53094880D01*
X131223476Y-52428214D02*
X131223476Y-52952023D01*
X131175857Y-53047261D01*
X131080619Y-53094880D01*
X130937761Y-53094880D01*
X130842523Y-53047261D01*
X130794904Y-52999642D01*
X130366333Y-53047261D02*
X130271095Y-53094880D01*
X130080619Y-53094880D01*
X129985380Y-53047261D01*
X129937761Y-52952023D01*
X129937761Y-52904404D01*
X129985380Y-52809166D01*
X130080619Y-52761547D01*
X130223476Y-52761547D01*
X130318714Y-52713928D01*
X130366333Y-52618690D01*
X130366333Y-52571071D01*
X130318714Y-52475833D01*
X130223476Y-52428214D01*
X130080619Y-52428214D01*
X129985380Y-52475833D01*
X129509190Y-53094880D02*
X129509190Y-52094880D01*
X129080619Y-53094880D02*
X129080619Y-52571071D01*
X129128238Y-52475833D01*
X129223476Y-52428214D01*
X129366333Y-52428214D01*
X129461571Y-52475833D01*
X129509190Y-52523452D01*
X128223476Y-53047261D02*
X128318714Y-53094880D01*
X128509190Y-53094880D01*
X128604428Y-53047261D01*
X128652047Y-52952023D01*
X128652047Y-52571071D01*
X128604428Y-52475833D01*
X128509190Y-52428214D01*
X128318714Y-52428214D01*
X128223476Y-52475833D01*
X128175857Y-52571071D01*
X128175857Y-52666309D01*
X128652047Y-52761547D01*
X127747285Y-53094880D02*
X127747285Y-52428214D01*
X127747285Y-52618690D02*
X127699666Y-52523452D01*
X127652047Y-52475833D01*
X127556809Y-52428214D01*
X127461571Y-52428214D01*
X127366333Y-53190119D02*
X126604428Y-53190119D01*
X126366333Y-52428214D02*
X126366333Y-53428214D01*
X126366333Y-52475833D02*
X126271095Y-52428214D01*
X126080619Y-52428214D01*
X125985380Y-52475833D01*
X125937761Y-52523452D01*
X125890142Y-52618690D01*
X125890142Y-52904404D01*
X125937761Y-52999642D01*
X125985380Y-53047261D01*
X126080619Y-53094880D01*
X126271095Y-53094880D01*
X126366333Y-53047261D01*
X125080619Y-53047261D02*
X125175857Y-53094880D01*
X125366333Y-53094880D01*
X125461571Y-53047261D01*
X125509190Y-52952023D01*
X125509190Y-52571071D01*
X125461571Y-52475833D01*
X125366333Y-52428214D01*
X125175857Y-52428214D01*
X125080619Y-52475833D01*
X125033000Y-52571071D01*
X125033000Y-52666309D01*
X125509190Y-52761547D01*
X124175857Y-53094880D02*
X124175857Y-52094880D01*
X124175857Y-53047261D02*
X124271095Y-53094880D01*
X124461571Y-53094880D01*
X124556809Y-53047261D01*
X124604428Y-52999642D01*
X124652047Y-52904404D01*
X124652047Y-52618690D01*
X124604428Y-52523452D01*
X124556809Y-52475833D01*
X124461571Y-52428214D01*
X124271095Y-52428214D01*
X124175857Y-52475833D01*
X123271095Y-53094880D02*
X123271095Y-52571071D01*
X123318714Y-52475833D01*
X123413952Y-52428214D01*
X123604428Y-52428214D01*
X123699666Y-52475833D01*
X123271095Y-53047261D02*
X123366333Y-53094880D01*
X123604428Y-53094880D01*
X123699666Y-53047261D01*
X123747285Y-52952023D01*
X123747285Y-52856785D01*
X123699666Y-52761547D01*
X123604428Y-52713928D01*
X123366333Y-52713928D01*
X123271095Y-52666309D01*
X122652047Y-53094880D02*
X122747285Y-53047261D01*
X122794904Y-52952023D01*
X122794904Y-52094880D01*
X154794904Y-54744880D02*
X154794904Y-54078214D01*
X154794904Y-54268690D02*
X154747285Y-54173452D01*
X154699666Y-54125833D01*
X154604428Y-54078214D01*
X154509190Y-54078214D01*
X153794904Y-54697261D02*
X153890142Y-54744880D01*
X154080619Y-54744880D01*
X154175857Y-54697261D01*
X154223476Y-54602023D01*
X154223476Y-54221071D01*
X154175857Y-54125833D01*
X154080619Y-54078214D01*
X153890142Y-54078214D01*
X153794904Y-54125833D01*
X153747285Y-54221071D01*
X153747285Y-54316309D01*
X154223476Y-54411547D01*
X153413952Y-54078214D02*
X153175857Y-54744880D01*
X152937761Y-54078214D01*
X151271095Y-54744880D02*
X151842523Y-54744880D01*
X151556809Y-54744880D02*
X151556809Y-53744880D01*
X151652047Y-53887738D01*
X151747285Y-53982976D01*
X151842523Y-54030595D01*
X154842523Y-55490119D02*
X154794904Y-55442500D01*
X154699666Y-55394880D01*
X154461571Y-55394880D01*
X154366333Y-55442500D01*
X154318714Y-55490119D01*
X154271095Y-55585357D01*
X154271095Y-55680595D01*
X154318714Y-55823452D01*
X154890142Y-56394880D01*
X154271095Y-56394880D01*
X153652047Y-55394880D02*
X153556809Y-55394880D01*
X153461571Y-55442500D01*
X153413952Y-55490119D01*
X153366333Y-55585357D01*
X153318714Y-55775833D01*
X153318714Y-56013928D01*
X153366333Y-56204404D01*
X153413952Y-56299642D01*
X153461571Y-56347261D01*
X153556809Y-56394880D01*
X153652047Y-56394880D01*
X153747285Y-56347261D01*
X153794904Y-56299642D01*
X153842523Y-56204404D01*
X153890142Y-56013928D01*
X153890142Y-55775833D01*
X153842523Y-55585357D01*
X153794904Y-55490119D01*
X153747285Y-55442500D01*
X153652047Y-55394880D01*
X152937761Y-55490119D02*
X152890142Y-55442500D01*
X152794904Y-55394880D01*
X152556809Y-55394880D01*
X152461571Y-55442500D01*
X152413952Y-55490119D01*
X152366333Y-55585357D01*
X152366333Y-55680595D01*
X152413952Y-55823452D01*
X152985380Y-56394880D01*
X152366333Y-56394880D01*
X151747285Y-55394880D02*
X151652047Y-55394880D01*
X151556809Y-55442500D01*
X151509190Y-55490119D01*
X151461571Y-55585357D01*
X151413952Y-55775833D01*
X151413952Y-56013928D01*
X151461571Y-56204404D01*
X151509190Y-56299642D01*
X151556809Y-56347261D01*
X151652047Y-56394880D01*
X151747285Y-56394880D01*
X151842523Y-56347261D01*
X151890142Y-56299642D01*
X151937761Y-56204404D01*
X151985380Y-56013928D01*
X151985380Y-55775833D01*
X151937761Y-55585357D01*
X151890142Y-55490119D01*
X151842523Y-55442500D01*
X151747285Y-55394880D01*
X150985380Y-56013928D02*
X150223476Y-56013928D01*
X149556809Y-55394880D02*
X149461571Y-55394880D01*
X149366333Y-55442500D01*
X149318714Y-55490119D01*
X149271095Y-55585357D01*
X149223476Y-55775833D01*
X149223476Y-56013928D01*
X149271095Y-56204404D01*
X149318714Y-56299642D01*
X149366333Y-56347261D01*
X149461571Y-56394880D01*
X149556809Y-56394880D01*
X149652047Y-56347261D01*
X149699666Y-56299642D01*
X149747285Y-56204404D01*
X149794904Y-56013928D01*
X149794904Y-55775833D01*
X149747285Y-55585357D01*
X149699666Y-55490119D01*
X149652047Y-55442500D01*
X149556809Y-55394880D01*
X148652047Y-55823452D02*
X148747285Y-55775833D01*
X148794904Y-55728214D01*
X148842523Y-55632976D01*
X148842523Y-55585357D01*
X148794904Y-55490119D01*
X148747285Y-55442500D01*
X148652047Y-55394880D01*
X148461571Y-55394880D01*
X148366333Y-55442500D01*
X148318714Y-55490119D01*
X148271095Y-55585357D01*
X148271095Y-55632976D01*
X148318714Y-55728214D01*
X148366333Y-55775833D01*
X148461571Y-55823452D01*
X148652047Y-55823452D01*
X148747285Y-55871071D01*
X148794904Y-55918690D01*
X148842523Y-56013928D01*
X148842523Y-56204404D01*
X148794904Y-56299642D01*
X148747285Y-56347261D01*
X148652047Y-56394880D01*
X148461571Y-56394880D01*
X148366333Y-56347261D01*
X148318714Y-56299642D01*
X148271095Y-56204404D01*
X148271095Y-56013928D01*
X148318714Y-55918690D01*
X148366333Y-55871071D01*
X148461571Y-55823452D01*
X147842523Y-56013928D02*
X147080619Y-56013928D01*
X146080619Y-56394880D02*
X146652047Y-56394880D01*
X146366333Y-56394880D02*
X146366333Y-55394880D01*
X146461571Y-55537738D01*
X146556809Y-55632976D01*
X146652047Y-55680595D01*
X145747285Y-55394880D02*
X145080619Y-55394880D01*
X145509190Y-56394880D01*
D11*
X89662000Y-101600000D02*
G75*
G03*
X89662000Y-101600000I-254000J0D01*
G01*
D10*
X101052285Y-55750833D02*
X100242761Y-55750833D01*
X100147523Y-55798452D01*
X100099904Y-55846071D01*
X100052285Y-55941309D01*
X100052285Y-56084166D01*
X100099904Y-56179404D01*
X100433238Y-55750833D02*
X100385619Y-55846071D01*
X100385619Y-56036547D01*
X100433238Y-56131785D01*
X100480857Y-56179404D01*
X100576095Y-56227023D01*
X100861809Y-56227023D01*
X100957047Y-56179404D01*
X101004666Y-56131785D01*
X101052285Y-56036547D01*
X101052285Y-55846071D01*
X101004666Y-55750833D01*
X101052285Y-55274642D02*
X100385619Y-55274642D01*
X100957047Y-55274642D02*
X101004666Y-55227023D01*
X101052285Y-55131785D01*
X101052285Y-54988928D01*
X101004666Y-54893690D01*
X100909428Y-54846071D01*
X100385619Y-54846071D01*
X100385619Y-53941309D02*
X101385619Y-53941309D01*
X100433238Y-53941309D02*
X100385619Y-54036547D01*
X100385619Y-54227023D01*
X100433238Y-54322261D01*
X100480857Y-54369880D01*
X100576095Y-54417500D01*
X100861809Y-54417500D01*
X100957047Y-54369880D01*
X101004666Y-54322261D01*
X101052285Y-54227023D01*
X101052285Y-54036547D01*
X101004666Y-53941309D01*
X97845619Y-56179404D02*
X98845619Y-56179404D01*
X98845619Y-55941309D01*
X98798000Y-55798452D01*
X98702761Y-55703214D01*
X98607523Y-55655595D01*
X98417047Y-55607976D01*
X98274190Y-55607976D01*
X98083714Y-55655595D01*
X97988476Y-55703214D01*
X97893238Y-55798452D01*
X97845619Y-55941309D01*
X97845619Y-56179404D01*
X97940857Y-54607976D02*
X97893238Y-54655595D01*
X97845619Y-54798452D01*
X97845619Y-54893690D01*
X97893238Y-55036547D01*
X97988476Y-55131785D01*
X98083714Y-55179404D01*
X98274190Y-55227023D01*
X98417047Y-55227023D01*
X98607523Y-55179404D01*
X98702761Y-55131785D01*
X98798000Y-55036547D01*
X98845619Y-54893690D01*
X98845619Y-54798452D01*
X98798000Y-54655595D01*
X98750380Y-54607976D01*
X97845619Y-53417500D02*
X98512285Y-53417500D01*
X98845619Y-53417500D02*
X98798000Y-53465119D01*
X98750380Y-53417500D01*
X98798000Y-53369880D01*
X98845619Y-53417500D01*
X98750380Y-53417500D01*
X98512285Y-52941309D02*
X97845619Y-52941309D01*
X98417047Y-52941309D02*
X98464666Y-52893690D01*
X98512285Y-52798452D01*
X98512285Y-52655595D01*
X98464666Y-52560357D01*
X98369428Y-52512738D01*
X97845619Y-52512738D01*
X137374285Y-106677833D02*
X136564761Y-106677833D01*
X136469523Y-106725452D01*
X136421904Y-106773071D01*
X136374285Y-106868309D01*
X136374285Y-107011166D01*
X136421904Y-107106404D01*
X136755238Y-106677833D02*
X136707619Y-106773071D01*
X136707619Y-106963547D01*
X136755238Y-107058785D01*
X136802857Y-107106404D01*
X136898095Y-107154023D01*
X137183809Y-107154023D01*
X137279047Y-107106404D01*
X137326666Y-107058785D01*
X137374285Y-106963547D01*
X137374285Y-106773071D01*
X137326666Y-106677833D01*
X137374285Y-106201642D02*
X136707619Y-106201642D01*
X137279047Y-106201642D02*
X137326666Y-106154023D01*
X137374285Y-106058785D01*
X137374285Y-105915928D01*
X137326666Y-105820690D01*
X137231428Y-105773071D01*
X136707619Y-105773071D01*
X136707619Y-104868309D02*
X137707619Y-104868309D01*
X136755238Y-104868309D02*
X136707619Y-104963547D01*
X136707619Y-105154023D01*
X136755238Y-105249261D01*
X136802857Y-105296880D01*
X136898095Y-105344500D01*
X137183809Y-105344500D01*
X137279047Y-105296880D01*
X137326666Y-105249261D01*
X137374285Y-105154023D01*
X137374285Y-104963547D01*
X137326666Y-104868309D01*
X145629285Y-106677833D02*
X144819761Y-106677833D01*
X144724523Y-106725452D01*
X144676904Y-106773071D01*
X144629285Y-106868309D01*
X144629285Y-107011166D01*
X144676904Y-107106404D01*
X145010238Y-106677833D02*
X144962619Y-106773071D01*
X144962619Y-106963547D01*
X145010238Y-107058785D01*
X145057857Y-107106404D01*
X145153095Y-107154023D01*
X145438809Y-107154023D01*
X145534047Y-107106404D01*
X145581666Y-107058785D01*
X145629285Y-106963547D01*
X145629285Y-106773071D01*
X145581666Y-106677833D01*
X145629285Y-106201642D02*
X144962619Y-106201642D01*
X145534047Y-106201642D02*
X145581666Y-106154023D01*
X145629285Y-106058785D01*
X145629285Y-105915928D01*
X145581666Y-105820690D01*
X145486428Y-105773071D01*
X144962619Y-105773071D01*
X144962619Y-104868309D02*
X145962619Y-104868309D01*
X145010238Y-104868309D02*
X144962619Y-104963547D01*
X144962619Y-105154023D01*
X145010238Y-105249261D01*
X145057857Y-105296880D01*
X145153095Y-105344500D01*
X145438809Y-105344500D01*
X145534047Y-105296880D01*
X145581666Y-105249261D01*
X145629285Y-105154023D01*
X145629285Y-104963547D01*
X145581666Y-104868309D01*
X106275238Y-107027023D02*
X106227619Y-106884166D01*
X106227619Y-106646071D01*
X106275238Y-106550833D01*
X106322857Y-106503214D01*
X106418095Y-106455595D01*
X106513333Y-106455595D01*
X106608571Y-106503214D01*
X106656190Y-106550833D01*
X106703809Y-106646071D01*
X106751428Y-106836547D01*
X106799047Y-106931785D01*
X106846666Y-106979404D01*
X106941904Y-107027023D01*
X107037142Y-107027023D01*
X107132380Y-106979404D01*
X107180000Y-106931785D01*
X107227619Y-106836547D01*
X107227619Y-106598452D01*
X107180000Y-106455595D01*
X107227619Y-106122261D02*
X106227619Y-105884166D01*
X106941904Y-105693690D01*
X106227619Y-105503214D01*
X107227619Y-105265119D01*
X106227619Y-104884166D02*
X107227619Y-104884166D01*
X107227619Y-104646071D01*
X107180000Y-104503214D01*
X107084761Y-104407976D01*
X106989523Y-104360357D01*
X106799047Y-104312738D01*
X106656190Y-104312738D01*
X106465714Y-104360357D01*
X106370476Y-104407976D01*
X106275238Y-104503214D01*
X106227619Y-104646071D01*
X106227619Y-104884166D01*
X106227619Y-103884166D02*
X107227619Y-103884166D01*
X107227619Y-103217500D02*
X107227619Y-103027023D01*
X107180000Y-102931785D01*
X107084761Y-102836547D01*
X106894285Y-102788928D01*
X106560952Y-102788928D01*
X106370476Y-102836547D01*
X106275238Y-102931785D01*
X106227619Y-103027023D01*
X106227619Y-103217500D01*
X106275238Y-103312738D01*
X106370476Y-103407976D01*
X106560952Y-103455595D01*
X106894285Y-103455595D01*
X107084761Y-103407976D01*
X107180000Y-103312738D01*
X107227619Y-103217500D01*
X104640000Y-106455595D02*
X104687619Y-106550833D01*
X104687619Y-106693690D01*
X104640000Y-106836547D01*
X104544761Y-106931785D01*
X104449523Y-106979404D01*
X104259047Y-107027023D01*
X104116190Y-107027023D01*
X103925714Y-106979404D01*
X103830476Y-106931785D01*
X103735238Y-106836547D01*
X103687619Y-106693690D01*
X103687619Y-106598452D01*
X103735238Y-106455595D01*
X103782857Y-106407976D01*
X104116190Y-106407976D01*
X104116190Y-106598452D01*
X103687619Y-105979404D02*
X104687619Y-105979404D01*
X103687619Y-105407976D01*
X104687619Y-105407976D01*
X103687619Y-104931785D02*
X104687619Y-104931785D01*
X104687619Y-104693690D01*
X104640000Y-104550833D01*
X104544761Y-104455595D01*
X104449523Y-104407976D01*
X104259047Y-104360357D01*
X104116190Y-104360357D01*
X103925714Y-104407976D01*
X103830476Y-104455595D01*
X103735238Y-104550833D01*
X103687619Y-104693690D01*
X103687619Y-104931785D01*
X101195238Y-107027023D02*
X101147619Y-106884166D01*
X101147619Y-106646071D01*
X101195238Y-106550833D01*
X101242857Y-106503214D01*
X101338095Y-106455595D01*
X101433333Y-106455595D01*
X101528571Y-106503214D01*
X101576190Y-106550833D01*
X101623809Y-106646071D01*
X101671428Y-106836547D01*
X101719047Y-106931785D01*
X101766666Y-106979404D01*
X101861904Y-107027023D01*
X101957142Y-107027023D01*
X102052380Y-106979404D01*
X102100000Y-106931785D01*
X102147619Y-106836547D01*
X102147619Y-106598452D01*
X102100000Y-106455595D01*
X102147619Y-106122261D02*
X101147619Y-105884166D01*
X101861904Y-105693690D01*
X101147619Y-105503214D01*
X102147619Y-105265119D01*
X101242857Y-104312738D02*
X101195238Y-104360357D01*
X101147619Y-104503214D01*
X101147619Y-104598452D01*
X101195238Y-104741309D01*
X101290476Y-104836547D01*
X101385714Y-104884166D01*
X101576190Y-104931785D01*
X101719047Y-104931785D01*
X101909523Y-104884166D01*
X102004761Y-104836547D01*
X102100000Y-104741309D01*
X102147619Y-104598452D01*
X102147619Y-104503214D01*
X102100000Y-104360357D01*
X102052380Y-104312738D01*
X101147619Y-103407976D02*
X101147619Y-103884166D01*
X102147619Y-103884166D01*
X101147619Y-103074642D02*
X102147619Y-103074642D01*
X101147619Y-102503214D02*
X101719047Y-102931785D01*
X102147619Y-102503214D02*
X101576190Y-103074642D01*
X109767619Y-106947642D02*
X109767619Y-106328595D01*
X109386666Y-106661928D01*
X109386666Y-106519071D01*
X109339047Y-106423833D01*
X109291428Y-106376214D01*
X109196190Y-106328595D01*
X108958095Y-106328595D01*
X108862857Y-106376214D01*
X108815238Y-106423833D01*
X108767619Y-106519071D01*
X108767619Y-106804785D01*
X108815238Y-106900023D01*
X108862857Y-106947642D01*
X108862857Y-105900023D02*
X108815238Y-105852404D01*
X108767619Y-105900023D01*
X108815238Y-105947642D01*
X108862857Y-105900023D01*
X108767619Y-105900023D01*
X109767619Y-105519071D02*
X109767619Y-104900023D01*
X109386666Y-105233357D01*
X109386666Y-105090500D01*
X109339047Y-104995261D01*
X109291428Y-104947642D01*
X109196190Y-104900023D01*
X108958095Y-104900023D01*
X108862857Y-104947642D01*
X108815238Y-104995261D01*
X108767619Y-105090500D01*
X108767619Y-105376214D01*
X108815238Y-105471452D01*
X108862857Y-105519071D01*
X109434285Y-104566690D02*
X108767619Y-104328595D01*
X109434285Y-104090500D01*
X99511904Y-109624761D02*
X99369047Y-109672380D01*
X99130952Y-109672380D01*
X99035714Y-109624761D01*
X98988095Y-109577142D01*
X98940476Y-109481904D01*
X98940476Y-109386666D01*
X98988095Y-109291428D01*
X99035714Y-109243809D01*
X99130952Y-109196190D01*
X99321428Y-109148571D01*
X99416666Y-109100952D01*
X99464285Y-109053333D01*
X99511904Y-108958095D01*
X99511904Y-108862857D01*
X99464285Y-108767619D01*
X99416666Y-108720000D01*
X99321428Y-108672380D01*
X99083333Y-108672380D01*
X98940476Y-108720000D01*
X98607142Y-108672380D02*
X98369047Y-109672380D01*
X98178571Y-108958095D01*
X97988095Y-109672380D01*
X97750000Y-108672380D01*
X97369047Y-109672380D02*
X97369047Y-108672380D01*
X97130952Y-108672380D01*
X96988095Y-108720000D01*
X96892857Y-108815238D01*
X96845238Y-108910476D01*
X96797619Y-109100952D01*
X96797619Y-109243809D01*
X96845238Y-109434285D01*
X96892857Y-109529523D01*
X96988095Y-109624761D01*
X97130952Y-109672380D01*
X97369047Y-109672380D01*
X95607142Y-109672380D02*
X95607142Y-108672380D01*
X95178571Y-109672380D02*
X95178571Y-109148571D01*
X95226190Y-109053333D01*
X95321428Y-109005714D01*
X95464285Y-109005714D01*
X95559523Y-109053333D01*
X95607142Y-109100952D01*
X94321428Y-109624761D02*
X94416666Y-109672380D01*
X94607142Y-109672380D01*
X94702380Y-109624761D01*
X94750000Y-109529523D01*
X94750000Y-109148571D01*
X94702380Y-109053333D01*
X94607142Y-109005714D01*
X94416666Y-109005714D01*
X94321428Y-109053333D01*
X94273809Y-109148571D01*
X94273809Y-109243809D01*
X94750000Y-109339047D01*
X93416666Y-109672380D02*
X93416666Y-109148571D01*
X93464285Y-109053333D01*
X93559523Y-109005714D01*
X93750000Y-109005714D01*
X93845238Y-109053333D01*
X93416666Y-109624761D02*
X93511904Y-109672380D01*
X93750000Y-109672380D01*
X93845238Y-109624761D01*
X93892857Y-109529523D01*
X93892857Y-109434285D01*
X93845238Y-109339047D01*
X93750000Y-109291428D01*
X93511904Y-109291428D01*
X93416666Y-109243809D01*
X92511904Y-109672380D02*
X92511904Y-108672380D01*
X92511904Y-109624761D02*
X92607142Y-109672380D01*
X92797619Y-109672380D01*
X92892857Y-109624761D01*
X92940476Y-109577142D01*
X92988095Y-109481904D01*
X92988095Y-109196190D01*
X92940476Y-109100952D01*
X92892857Y-109053333D01*
X92797619Y-109005714D01*
X92607142Y-109005714D01*
X92511904Y-109053333D01*
X91654761Y-109624761D02*
X91750000Y-109672380D01*
X91940476Y-109672380D01*
X92035714Y-109624761D01*
X92083333Y-109529523D01*
X92083333Y-109148571D01*
X92035714Y-109053333D01*
X91940476Y-109005714D01*
X91750000Y-109005714D01*
X91654761Y-109053333D01*
X91607142Y-109148571D01*
X91607142Y-109243809D01*
X92083333Y-109339047D01*
X91178571Y-109672380D02*
X91178571Y-109005714D01*
X91178571Y-109196190D02*
X91130952Y-109100952D01*
X91083333Y-109053333D01*
X90988095Y-109005714D01*
X90892857Y-109005714D01*
X134167619Y-106963547D02*
X134215238Y-107058785D01*
X134262857Y-107106404D01*
X134358095Y-107154023D01*
X134643809Y-107154023D01*
X134739047Y-107106404D01*
X134786666Y-107058785D01*
X134834285Y-106963547D01*
X134834285Y-106820690D01*
X134786666Y-106725452D01*
X134739047Y-106677833D01*
X134643809Y-106630214D01*
X134358095Y-106630214D01*
X134262857Y-106677833D01*
X134215238Y-106725452D01*
X134167619Y-106820690D01*
X134167619Y-106963547D01*
X134834285Y-105773071D02*
X134167619Y-105773071D01*
X134834285Y-106201642D02*
X134310476Y-106201642D01*
X134215238Y-106154023D01*
X134167619Y-106058785D01*
X134167619Y-105915928D01*
X134215238Y-105820690D01*
X134262857Y-105773071D01*
X134834285Y-105439738D02*
X134834285Y-105058785D01*
X135167619Y-105296880D02*
X134310476Y-105296880D01*
X134215238Y-105249261D01*
X134167619Y-105154023D01*
X134167619Y-105058785D01*
X142422619Y-107106404D02*
X143089285Y-107106404D01*
X143422619Y-107106404D02*
X143375000Y-107154023D01*
X143327380Y-107106404D01*
X143375000Y-107058785D01*
X143422619Y-107106404D01*
X143327380Y-107106404D01*
X143089285Y-106630214D02*
X142422619Y-106630214D01*
X142994047Y-106630214D02*
X143041666Y-106582595D01*
X143089285Y-106487357D01*
X143089285Y-106344500D01*
X143041666Y-106249261D01*
X142946428Y-106201642D01*
X142422619Y-106201642D01*
X77755714Y-78192380D02*
X77184285Y-78192380D01*
X77470000Y-79192380D02*
X77470000Y-78192380D01*
X77160476Y-81732380D02*
X77493809Y-81256190D01*
X77731904Y-81732380D02*
X77731904Y-80732380D01*
X77350952Y-80732380D01*
X77255714Y-80780000D01*
X77208095Y-80827619D01*
X77160476Y-80922857D01*
X77160476Y-81065714D01*
X77208095Y-81160952D01*
X77255714Y-81208571D01*
X77350952Y-81256190D01*
X77731904Y-81256190D01*
X77755714Y-84224761D02*
X77612857Y-84272380D01*
X77374761Y-84272380D01*
X77279523Y-84224761D01*
X77231904Y-84177142D01*
X77184285Y-84081904D01*
X77184285Y-83986666D01*
X77231904Y-83891428D01*
X77279523Y-83843809D01*
X77374761Y-83796190D01*
X77565238Y-83748571D01*
X77660476Y-83700952D01*
X77708095Y-83653333D01*
X77755714Y-83558095D01*
X77755714Y-83462857D01*
X77708095Y-83367619D01*
X77660476Y-83320000D01*
X77565238Y-83272380D01*
X77327142Y-83272380D01*
X77184285Y-83320000D01*
X83002380Y-77422857D02*
X82335714Y-77422857D01*
X82526190Y-77422857D02*
X82430952Y-77470476D01*
X82383333Y-77518095D01*
X82335714Y-77613333D01*
X82335714Y-77708571D01*
X83002380Y-78470476D02*
X82478571Y-78470476D01*
X82383333Y-78422857D01*
X82335714Y-78327619D01*
X82335714Y-78137142D01*
X82383333Y-78041904D01*
X82954761Y-78470476D02*
X83002380Y-78375238D01*
X83002380Y-78137142D01*
X82954761Y-78041904D01*
X82859523Y-77994285D01*
X82764285Y-77994285D01*
X82669047Y-78041904D01*
X82621428Y-78137142D01*
X82621428Y-78375238D01*
X82573809Y-78470476D01*
X82335714Y-78803809D02*
X82335714Y-79184761D01*
X82002380Y-78946666D02*
X82859523Y-78946666D01*
X82954761Y-78994285D01*
X83002380Y-79089523D01*
X83002380Y-79184761D01*
X82954761Y-79899047D02*
X83002380Y-79803809D01*
X83002380Y-79613333D01*
X82954761Y-79518095D01*
X82859523Y-79470476D01*
X82478571Y-79470476D01*
X82383333Y-79518095D01*
X82335714Y-79613333D01*
X82335714Y-79803809D01*
X82383333Y-79899047D01*
X82478571Y-79946666D01*
X82573809Y-79946666D01*
X82669047Y-79470476D01*
X82621428Y-80375238D02*
X82621428Y-81137142D01*
X82907142Y-82184761D02*
X82954761Y-82137142D01*
X83002380Y-81994285D01*
X83002380Y-81899047D01*
X82954761Y-81756190D01*
X82859523Y-81660952D01*
X82764285Y-81613333D01*
X82573809Y-81565714D01*
X82430952Y-81565714D01*
X82240476Y-81613333D01*
X82145238Y-81660952D01*
X82050000Y-81756190D01*
X82002380Y-81899047D01*
X82002380Y-81994285D01*
X82050000Y-82137142D01*
X82097619Y-82184761D01*
X82002380Y-82470476D02*
X83002380Y-82803809D01*
X82002380Y-83137142D01*
X83002380Y-84232380D02*
X82335714Y-84232380D01*
X82002380Y-84232380D02*
X82050000Y-84184761D01*
X82097619Y-84232380D01*
X82050000Y-84280000D01*
X82002380Y-84232380D01*
X82097619Y-84232380D01*
X82335714Y-84708571D02*
X83002380Y-84708571D01*
X82430952Y-84708571D02*
X82383333Y-84756190D01*
X82335714Y-84851428D01*
X82335714Y-84994285D01*
X82383333Y-85089523D01*
X82478571Y-85137142D01*
X83002380Y-85137142D01*
X83002380Y-67762857D02*
X82002380Y-67762857D01*
X82383333Y-67762857D02*
X82335714Y-67858095D01*
X82335714Y-68048571D01*
X82383333Y-68143809D01*
X82430952Y-68191428D01*
X82526190Y-68239047D01*
X82811904Y-68239047D01*
X82907142Y-68191428D01*
X82954761Y-68143809D01*
X83002380Y-68048571D01*
X83002380Y-67858095D01*
X82954761Y-67762857D01*
X83002380Y-68667619D02*
X82335714Y-68667619D01*
X82002380Y-68667619D02*
X82050000Y-68620000D01*
X82097619Y-68667619D01*
X82050000Y-68715238D01*
X82002380Y-68667619D01*
X82097619Y-68667619D01*
X82335714Y-69000952D02*
X82335714Y-69381904D01*
X82002380Y-69143809D02*
X82859523Y-69143809D01*
X82954761Y-69191428D01*
X83002380Y-69286666D01*
X83002380Y-69381904D01*
X82621428Y-69715238D02*
X82621428Y-70477142D01*
X82907142Y-71524761D02*
X82954761Y-71477142D01*
X83002380Y-71334285D01*
X83002380Y-71239047D01*
X82954761Y-71096190D01*
X82859523Y-71000952D01*
X82764285Y-70953333D01*
X82573809Y-70905714D01*
X82430952Y-70905714D01*
X82240476Y-70953333D01*
X82145238Y-71000952D01*
X82050000Y-71096190D01*
X82002380Y-71239047D01*
X82002380Y-71334285D01*
X82050000Y-71477142D01*
X82097619Y-71524761D01*
X82002380Y-71810476D02*
X83002380Y-72143809D01*
X82002380Y-72477142D01*
X83002380Y-73572380D02*
X82335714Y-73572380D01*
X82002380Y-73572380D02*
X82050000Y-73524761D01*
X82097619Y-73572380D01*
X82050000Y-73620000D01*
X82002380Y-73572380D01*
X82097619Y-73572380D01*
X82335714Y-74048571D02*
X83002380Y-74048571D01*
X82430952Y-74048571D02*
X82383333Y-74096190D01*
X82335714Y-74191428D01*
X82335714Y-74334285D01*
X82383333Y-74429523D01*
X82478571Y-74477142D01*
X83002380Y-74477142D01*
X77755714Y-74064761D02*
X77612857Y-74112380D01*
X77374761Y-74112380D01*
X77279523Y-74064761D01*
X77231904Y-74017142D01*
X77184285Y-73921904D01*
X77184285Y-73826666D01*
X77231904Y-73731428D01*
X77279523Y-73683809D01*
X77374761Y-73636190D01*
X77565238Y-73588571D01*
X77660476Y-73540952D01*
X77708095Y-73493333D01*
X77755714Y-73398095D01*
X77755714Y-73302857D01*
X77708095Y-73207619D01*
X77660476Y-73160000D01*
X77565238Y-73112380D01*
X77327142Y-73112380D01*
X77184285Y-73160000D01*
X77160476Y-71572380D02*
X77493809Y-71096190D01*
X77731904Y-71572380D02*
X77731904Y-70572380D01*
X77350952Y-70572380D01*
X77255714Y-70620000D01*
X77208095Y-70667619D01*
X77160476Y-70762857D01*
X77160476Y-70905714D01*
X77208095Y-71000952D01*
X77255714Y-71048571D01*
X77350952Y-71096190D01*
X77731904Y-71096190D01*
X77755714Y-68032380D02*
X77184285Y-68032380D01*
X77470000Y-69032380D02*
X77470000Y-68032380D01*
D11*
%TO.C,R34*%
X151690000Y-100582252D02*
X151690000Y-100059748D01*
X153110000Y-100582252D02*
X153110000Y-100059748D01*
%TO.C,R33*%
X149350252Y-102056000D02*
X148827748Y-102056000D01*
X149350252Y-100636000D02*
X148827748Y-100636000D01*
%TO.C,R32*%
X147049748Y-94032000D02*
X147572252Y-94032000D01*
X147049748Y-95452000D02*
X147572252Y-95452000D01*
%TO.C,R31*%
X142746252Y-102056000D02*
X142223748Y-102056000D01*
X142746252Y-100636000D02*
X142223748Y-100636000D01*
%TO.C,Q1*%
X147068000Y-99878000D02*
X148528000Y-99878000D01*
X147068000Y-96718000D02*
X150228000Y-96718000D01*
X147068000Y-96718000D02*
X147068000Y-97648000D01*
X147068000Y-99878000D02*
X147068000Y-98948000D01*
%TO.C,C37*%
X142746252Y-99008000D02*
X142223748Y-99008000D01*
X142746252Y-97588000D02*
X142223748Y-97588000D01*
%TO.C,U4*%
X96158000Y-64455000D02*
X96158000Y-70465000D01*
X102978000Y-66705000D02*
X102978000Y-70465000D01*
X96158000Y-70465000D02*
X97418000Y-70465000D01*
X102978000Y-70465000D02*
X101718000Y-70465000D01*
%TO.C,C4*%
X118820000Y-76709748D02*
X118820000Y-77232252D01*
X117400000Y-76709748D02*
X117400000Y-77232252D01*
%TO.C,U5*%
X144018000Y-88445000D02*
X140158000Y-88445000D01*
X140158000Y-88445000D02*
X140158000Y-88190000D01*
X144018000Y-88445000D02*
X147878000Y-88445000D01*
X147878000Y-88445000D02*
X147878000Y-88190000D01*
X144018000Y-77925000D02*
X140158000Y-77925000D01*
X140158000Y-77925000D02*
X140158000Y-78180000D01*
X144018000Y-77925000D02*
X147878000Y-77925000D01*
X147878000Y-77925000D02*
X147878000Y-78180000D01*
X147878000Y-78180000D02*
X149693000Y-78180000D01*
%TO.C,U1*%
X126004000Y-83312000D02*
X126004000Y-85262000D01*
X126004000Y-83312000D02*
X126004000Y-81362000D01*
X120884000Y-83312000D02*
X120884000Y-85262000D01*
X120884000Y-83312000D02*
X120884000Y-79862000D01*
%TO.C,RV5*%
X96325000Y-83830000D02*
X86555000Y-83830000D01*
X96325000Y-88900000D02*
X86555000Y-88900000D01*
X96325000Y-83830000D02*
X96325000Y-88900000D01*
X86555000Y-83830000D02*
X86555000Y-88900000D01*
%TO.C,RV4*%
X96325000Y-73670000D02*
X86555000Y-73670000D01*
X96325000Y-78740000D02*
X86555000Y-78740000D01*
X96325000Y-73670000D02*
X96325000Y-78740000D01*
X86555000Y-73670000D02*
X86555000Y-78740000D01*
%TO.C,R30*%
X152924252Y-76760000D02*
X152401748Y-76760000D01*
X152924252Y-78180000D02*
X152401748Y-78180000D01*
%TO.C,R29*%
X152401748Y-88340000D02*
X152924252Y-88340000D01*
X152401748Y-86920000D02*
X152924252Y-86920000D01*
%TO.C,R28*%
X152924252Y-71680000D02*
X152401748Y-71680000D01*
X152924252Y-73100000D02*
X152401748Y-73100000D01*
%TO.C,R27*%
X152924252Y-81840000D02*
X152401748Y-81840000D01*
X152924252Y-83260000D02*
X152401748Y-83260000D01*
%TO.C,R26*%
X135238748Y-93420000D02*
X135761252Y-93420000D01*
X135238748Y-92000000D02*
X135761252Y-92000000D01*
%TO.C,R25*%
X135634252Y-84380000D02*
X135111748Y-84380000D01*
X135634252Y-85800000D02*
X135111748Y-85800000D01*
%TO.C,R24*%
X135634252Y-81840000D02*
X135111748Y-81840000D01*
X135634252Y-83260000D02*
X135111748Y-83260000D01*
%TO.C,R19*%
X88136252Y-80570000D02*
X87613748Y-80570000D01*
X88136252Y-81990000D02*
X87613748Y-81990000D01*
%TO.C,R12*%
X135256748Y-73100000D02*
X135779252Y-73100000D01*
X135256748Y-71680000D02*
X135779252Y-71680000D01*
%TO.C,R11*%
X135634252Y-76760000D02*
X135111748Y-76760000D01*
X135634252Y-78180000D02*
X135111748Y-78180000D01*
%TO.C,R5*%
X141476252Y-65330000D02*
X140953748Y-65330000D01*
X141476252Y-66750000D02*
X140953748Y-66750000D01*
%TO.C,C36*%
X140351252Y-74220000D02*
X139828748Y-74220000D01*
X140351252Y-75640000D02*
X139828748Y-75640000D01*
%TO.C,C35*%
X140351252Y-71680000D02*
X139828748Y-71680000D01*
X140351252Y-73100000D02*
X139828748Y-73100000D01*
%TO.C,C34*%
X152924252Y-89460000D02*
X152401748Y-89460000D01*
X152924252Y-90880000D02*
X152401748Y-90880000D01*
%TO.C,C33*%
X152401748Y-80720000D02*
X152924252Y-80720000D01*
X152401748Y-79300000D02*
X152924252Y-79300000D01*
%TO.C,C32*%
X152924252Y-74220000D02*
X152401748Y-74220000D01*
X152924252Y-75640000D02*
X152401748Y-75640000D01*
%TO.C,C31*%
X152924252Y-92000000D02*
X152401748Y-92000000D01*
X152924252Y-93420000D02*
X152401748Y-93420000D01*
%TO.C,C30*%
X152401748Y-85800000D02*
X152924252Y-85800000D01*
X152401748Y-84380000D02*
X152924252Y-84380000D01*
%TO.C,C29*%
X135761252Y-89460000D02*
X135238748Y-89460000D01*
X135761252Y-90880000D02*
X135238748Y-90880000D01*
%TO.C,C28*%
X135634252Y-86920000D02*
X135111748Y-86920000D01*
X135634252Y-88340000D02*
X135111748Y-88340000D01*
%TO.C,C27*%
X135256748Y-75640000D02*
X135779252Y-75640000D01*
X135256748Y-74220000D02*
X135779252Y-74220000D01*
%TO.C,C8*%
X135634252Y-79300000D02*
X135111748Y-79300000D01*
X135634252Y-80720000D02*
X135111748Y-80720000D01*
%TO.C,R23*%
X117654000Y-104646252D02*
X117654000Y-104123748D01*
X119074000Y-104646252D02*
X119074000Y-104123748D01*
%TO.C,J7*%
X120590000Y-107890000D02*
X120590000Y-109220000D01*
X121920000Y-107890000D02*
X120590000Y-107890000D01*
X123190000Y-107890000D02*
X123190000Y-110550000D01*
X123190000Y-110550000D02*
X125790000Y-110550000D01*
X123190000Y-107890000D02*
X125790000Y-107890000D01*
X125790000Y-107890000D02*
X125790000Y-110550000D01*
%TO.C,X1*%
X79215000Y-96520000D02*
X79215000Y-91520000D01*
X84615000Y-96520000D02*
X84615000Y-91520000D01*
X79215000Y-91520000D02*
G75*
G02*
X84615000Y-91520000I2700000J0D01*
G01*
X79215000Y-96520000D02*
G75*
G03*
X84615000Y-96520000I2700000J0D01*
G01*
%TO.C,U3*%
X90356821Y-101387868D02*
X89426976Y-100458023D01*
X90144689Y-101600000D02*
X90356821Y-101387868D01*
X90356821Y-101812132D02*
X90144689Y-101600000D01*
X95250000Y-106705311D02*
X95462132Y-106493179D01*
X95037868Y-106493179D02*
X95250000Y-106705311D01*
X95250000Y-96494689D02*
X95037868Y-96706821D01*
X95462132Y-96706821D02*
X95250000Y-96494689D01*
X100355311Y-101600000D02*
X100143179Y-101812132D01*
X100143179Y-101387868D02*
X100355311Y-101600000D01*
%TO.C,U2*%
X107549000Y-83312000D02*
X107549000Y-79862000D01*
X107549000Y-83312000D02*
X107549000Y-85262000D01*
X112669000Y-83312000D02*
X112669000Y-81362000D01*
X112669000Y-83312000D02*
X112669000Y-85262000D01*
%TO.C,R22*%
X106224000Y-89932252D02*
X106224000Y-89409748D01*
X107644000Y-89932252D02*
X107644000Y-89409748D01*
%TO.C,R21*%
X113359000Y-89409748D02*
X113359000Y-89932252D01*
X111939000Y-89409748D02*
X111939000Y-89932252D01*
%TO.C,R20*%
X110438000Y-89409748D02*
X110438000Y-89932252D01*
X109018000Y-89409748D02*
X109018000Y-89932252D01*
%TO.C,R18*%
X107898000Y-76691748D02*
X107898000Y-77214252D01*
X106478000Y-76691748D02*
X106478000Y-77214252D01*
%TO.C,R17*%
X112066000Y-77214252D02*
X112066000Y-76691748D01*
X113486000Y-77214252D02*
X113486000Y-76691748D01*
%TO.C,R16*%
X109272000Y-77214252D02*
X109272000Y-76691748D01*
X110692000Y-77214252D02*
X110692000Y-76691748D01*
%TO.C,R15*%
X88136252Y-71830000D02*
X87613748Y-71830000D01*
X88136252Y-70410000D02*
X87613748Y-70410000D01*
%TO.C,R14*%
X120448000Y-99067252D02*
X120448000Y-98544748D01*
X121868000Y-99067252D02*
X121868000Y-98544748D01*
%TO.C,R13*%
X116153000Y-98535748D02*
X116153000Y-99058252D01*
X114733000Y-98535748D02*
X114733000Y-99058252D01*
%TO.C,R10*%
X123900000Y-89409748D02*
X123900000Y-89932252D01*
X122480000Y-89409748D02*
X122480000Y-89932252D01*
%TO.C,R9*%
X129488000Y-89391748D02*
X129488000Y-89914252D01*
X128068000Y-89391748D02*
X128068000Y-89914252D01*
%TO.C,R8*%
X126440000Y-76691748D02*
X126440000Y-77214252D01*
X125020000Y-76691748D02*
X125020000Y-77214252D01*
%TO.C,R7*%
X122480000Y-77214252D02*
X122480000Y-76691748D01*
X123900000Y-77214252D02*
X123900000Y-76691748D01*
%TO.C,R6*%
X119940000Y-77214252D02*
X119940000Y-76691748D01*
X121360000Y-77214252D02*
X121360000Y-76691748D01*
%TO.C,R4*%
X88848000Y-106790748D02*
X88848000Y-107313252D01*
X87428000Y-106790748D02*
X87428000Y-107313252D01*
%TO.C,R3*%
X132790000Y-62485748D02*
X132790000Y-63008252D01*
X131370000Y-62485748D02*
X131370000Y-63008252D01*
%TO.C,R2*%
X137870000Y-62485748D02*
X137870000Y-63008252D01*
X136450000Y-62485748D02*
X136450000Y-63008252D01*
%TO.C,R1*%
X85904000Y-93470252D02*
X85904000Y-92947748D01*
X87324000Y-93470252D02*
X87324000Y-92947748D01*
%TO.C,J6*%
X81340000Y-77410000D02*
X80010000Y-77410000D01*
X81340000Y-78740000D02*
X81340000Y-77410000D01*
X81340000Y-80010000D02*
X78680000Y-80010000D01*
X78680000Y-80010000D02*
X78680000Y-85150000D01*
X81340000Y-80010000D02*
X81340000Y-85150000D01*
X81340000Y-85150000D02*
X78680000Y-85150000D01*
%TO.C,J5*%
X81340000Y-67250000D02*
X80010000Y-67250000D01*
X81340000Y-68580000D02*
X81340000Y-67250000D01*
X81340000Y-69850000D02*
X78680000Y-69850000D01*
X78680000Y-69850000D02*
X78680000Y-74990000D01*
X81340000Y-69850000D02*
X81340000Y-74990000D01*
X81340000Y-74990000D02*
X78680000Y-74990000D01*
%TO.C,J4*%
X96968000Y-57090000D02*
X96968000Y-58420000D01*
X98298000Y-57090000D02*
X96968000Y-57090000D01*
X99568000Y-57090000D02*
X99568000Y-59750000D01*
X99568000Y-59750000D02*
X102168000Y-59750000D01*
X99568000Y-57090000D02*
X102168000Y-57090000D01*
X102168000Y-57090000D02*
X102168000Y-59750000D01*
%TO.C,J3*%
X100270000Y-107890000D02*
X100270000Y-109220000D01*
X101600000Y-107890000D02*
X100270000Y-107890000D01*
X102870000Y-107890000D02*
X102870000Y-110550000D01*
X102870000Y-110550000D02*
X110550000Y-110550000D01*
X102870000Y-107890000D02*
X110550000Y-107890000D01*
X110550000Y-107890000D02*
X110550000Y-110550000D01*
%TO.C,J2*%
X133290000Y-107890000D02*
X133290000Y-109220000D01*
X134620000Y-107890000D02*
X133290000Y-107890000D01*
X135890000Y-107890000D02*
X135890000Y-110550000D01*
X135890000Y-110550000D02*
X138490000Y-110550000D01*
X135890000Y-107890000D02*
X138490000Y-107890000D01*
X138490000Y-107890000D02*
X138490000Y-110550000D01*
%TO.C,J1*%
X141545000Y-107890000D02*
X141545000Y-109220000D01*
X142875000Y-107890000D02*
X141545000Y-107890000D01*
X144145000Y-107890000D02*
X144145000Y-110550000D01*
X144145000Y-110550000D02*
X146745000Y-110550000D01*
X144145000Y-107890000D02*
X146745000Y-107890000D01*
X146745000Y-107890000D02*
X146745000Y-110550000D01*
%TO.C,FB2*%
X103938000Y-63516252D02*
X103938000Y-62993748D01*
X105358000Y-63516252D02*
X105358000Y-62993748D01*
%TO.C,FB1*%
X97461000Y-93470252D02*
X97461000Y-92947748D01*
X98881000Y-93470252D02*
X98881000Y-92947748D01*
%TO.C,D2*%
X102073000Y-61230000D02*
X98173000Y-61230000D01*
X102073000Y-63230000D02*
X98173000Y-63230000D01*
X102073000Y-61230000D02*
X102073000Y-63230000D01*
%TO.C,C26*%
X103430000Y-89932252D02*
X103430000Y-89409748D01*
X104850000Y-89932252D02*
X104850000Y-89409748D01*
%TO.C,C25*%
X114860000Y-89932252D02*
X114860000Y-89409748D01*
X116280000Y-89932252D02*
X116280000Y-89409748D01*
%TO.C,C24*%
X105104000Y-76691748D02*
X105104000Y-77214252D01*
X103684000Y-76691748D02*
X103684000Y-77214252D01*
%TO.C,C23*%
X116280000Y-76691748D02*
X116280000Y-77214252D01*
X114860000Y-76691748D02*
X114860000Y-77214252D01*
%TO.C,C22*%
X117654000Y-99067252D02*
X117654000Y-98544748D01*
X119074000Y-99067252D02*
X119074000Y-98544748D01*
%TO.C,C21*%
X103430000Y-83573252D02*
X103430000Y-83050748D01*
X104850000Y-83573252D02*
X104850000Y-83050748D01*
%TO.C,C20*%
X93524000Y-68587252D02*
X93524000Y-68064748D01*
X94944000Y-68587252D02*
X94944000Y-68064748D01*
%TO.C,C19*%
X113590000Y-83564252D02*
X113590000Y-83041748D01*
X115010000Y-83564252D02*
X115010000Y-83041748D01*
%TO.C,C18*%
X127052000Y-83573252D02*
X127052000Y-83050748D01*
X128472000Y-83573252D02*
X128472000Y-83050748D01*
%TO.C,C17*%
X105358000Y-68563748D02*
X105358000Y-69086252D01*
X103938000Y-68563748D02*
X103938000Y-69086252D01*
%TO.C,C16*%
X116638000Y-83582252D02*
X116638000Y-83059748D01*
X118058000Y-83582252D02*
X118058000Y-83059748D01*
%TO.C,C15*%
X108383000Y-100600252D02*
X108383000Y-100077748D01*
X109803000Y-100600252D02*
X109803000Y-100077748D01*
%TO.C,C14*%
X86054000Y-101347748D02*
X86054000Y-101870252D01*
X84634000Y-101347748D02*
X84634000Y-101870252D01*
%TO.C,C13*%
X91746000Y-93488252D02*
X91746000Y-92965748D01*
X93166000Y-93488252D02*
X93166000Y-92965748D01*
%TO.C,C12*%
X88848000Y-101347748D02*
X88848000Y-101870252D01*
X87428000Y-101347748D02*
X87428000Y-101870252D01*
%TO.C,C11*%
X94667000Y-93470252D02*
X94667000Y-92947748D01*
X96087000Y-93470252D02*
X96087000Y-92947748D01*
%TO.C,C10*%
X102414000Y-100582252D02*
X102414000Y-100059748D01*
X103834000Y-100582252D02*
X103834000Y-100059748D01*
%TO.C,C9*%
X105462000Y-100582252D02*
X105462000Y-100059748D01*
X106882000Y-100582252D02*
X106882000Y-100059748D01*
%TO.C,C7*%
X125274000Y-89932252D02*
X125274000Y-89409748D01*
X126694000Y-89932252D02*
X126694000Y-89409748D01*
%TO.C,C6*%
X121106000Y-89409748D02*
X121106000Y-89932252D01*
X119686000Y-89409748D02*
X119686000Y-89932252D01*
%TO.C,C5*%
X128980000Y-76691748D02*
X128980000Y-77214252D01*
X127560000Y-76691748D02*
X127560000Y-77214252D01*
%TO.C,C3*%
X88825000Y-93470252D02*
X88825000Y-92947748D01*
X90245000Y-93470252D02*
X90245000Y-92947748D01*
%TO.C,C2*%
X81151252Y-88086000D02*
X80628748Y-88086000D01*
X81151252Y-86666000D02*
X80628748Y-86666000D01*
%TO.C,C1*%
X81151252Y-101421000D02*
X80628748Y-101421000D01*
X81151252Y-100001000D02*
X80628748Y-100001000D01*
%TO.C,R34*%
D10*
X153042857Y-97988380D02*
X153376190Y-97512190D01*
X153614285Y-97988380D02*
X153614285Y-96988380D01*
X153233333Y-96988380D01*
X153138095Y-97036000D01*
X153090476Y-97083619D01*
X153042857Y-97178857D01*
X153042857Y-97321714D01*
X153090476Y-97416952D01*
X153138095Y-97464571D01*
X153233333Y-97512190D01*
X153614285Y-97512190D01*
X152709523Y-96988380D02*
X152090476Y-96988380D01*
X152423809Y-97369333D01*
X152280952Y-97369333D01*
X152185714Y-97416952D01*
X152138095Y-97464571D01*
X152090476Y-97559809D01*
X152090476Y-97797904D01*
X152138095Y-97893142D01*
X152185714Y-97940761D01*
X152280952Y-97988380D01*
X152566666Y-97988380D01*
X152661904Y-97940761D01*
X152709523Y-97893142D01*
X151233333Y-97321714D02*
X151233333Y-97988380D01*
X151471428Y-96940761D02*
X151709523Y-97655047D01*
X151090476Y-97655047D01*
%TO.C,R33*%
X146438857Y-101798380D02*
X146772190Y-101322190D01*
X147010285Y-101798380D02*
X147010285Y-100798380D01*
X146629333Y-100798380D01*
X146534095Y-100846000D01*
X146486476Y-100893619D01*
X146438857Y-100988857D01*
X146438857Y-101131714D01*
X146486476Y-101226952D01*
X146534095Y-101274571D01*
X146629333Y-101322190D01*
X147010285Y-101322190D01*
X146105523Y-100798380D02*
X145486476Y-100798380D01*
X145819809Y-101179333D01*
X145676952Y-101179333D01*
X145581714Y-101226952D01*
X145534095Y-101274571D01*
X145486476Y-101369809D01*
X145486476Y-101607904D01*
X145534095Y-101703142D01*
X145581714Y-101750761D01*
X145676952Y-101798380D01*
X145962666Y-101798380D01*
X146057904Y-101750761D01*
X146105523Y-101703142D01*
X145153142Y-100798380D02*
X144534095Y-100798380D01*
X144867428Y-101179333D01*
X144724571Y-101179333D01*
X144629333Y-101226952D01*
X144581714Y-101274571D01*
X144534095Y-101369809D01*
X144534095Y-101607904D01*
X144581714Y-101703142D01*
X144629333Y-101750761D01*
X144724571Y-101798380D01*
X145010285Y-101798380D01*
X145105523Y-101750761D01*
X145153142Y-101703142D01*
%TO.C,R32*%
X144642857Y-95194380D02*
X144976190Y-94718190D01*
X145214285Y-95194380D02*
X145214285Y-94194380D01*
X144833333Y-94194380D01*
X144738095Y-94242000D01*
X144690476Y-94289619D01*
X144642857Y-94384857D01*
X144642857Y-94527714D01*
X144690476Y-94622952D01*
X144738095Y-94670571D01*
X144833333Y-94718190D01*
X145214285Y-94718190D01*
X144309523Y-94194380D02*
X143690476Y-94194380D01*
X144023809Y-94575333D01*
X143880952Y-94575333D01*
X143785714Y-94622952D01*
X143738095Y-94670571D01*
X143690476Y-94765809D01*
X143690476Y-95003904D01*
X143738095Y-95099142D01*
X143785714Y-95146761D01*
X143880952Y-95194380D01*
X144166666Y-95194380D01*
X144261904Y-95146761D01*
X144309523Y-95099142D01*
X143309523Y-94289619D02*
X143261904Y-94242000D01*
X143166666Y-94194380D01*
X142928571Y-94194380D01*
X142833333Y-94242000D01*
X142785714Y-94289619D01*
X142738095Y-94384857D01*
X142738095Y-94480095D01*
X142785714Y-94622952D01*
X143357142Y-95194380D01*
X142738095Y-95194380D01*
%TO.C,R31*%
X139834857Y-101798380D02*
X140168190Y-101322190D01*
X140406285Y-101798380D02*
X140406285Y-100798380D01*
X140025333Y-100798380D01*
X139930095Y-100846000D01*
X139882476Y-100893619D01*
X139834857Y-100988857D01*
X139834857Y-101131714D01*
X139882476Y-101226952D01*
X139930095Y-101274571D01*
X140025333Y-101322190D01*
X140406285Y-101322190D01*
X139501523Y-100798380D02*
X138882476Y-100798380D01*
X139215809Y-101179333D01*
X139072952Y-101179333D01*
X138977714Y-101226952D01*
X138930095Y-101274571D01*
X138882476Y-101369809D01*
X138882476Y-101607904D01*
X138930095Y-101703142D01*
X138977714Y-101750761D01*
X139072952Y-101798380D01*
X139358666Y-101798380D01*
X139453904Y-101750761D01*
X139501523Y-101703142D01*
X137930095Y-101798380D02*
X138501523Y-101798380D01*
X138215809Y-101798380D02*
X138215809Y-100798380D01*
X138311047Y-100941238D01*
X138406285Y-101036476D01*
X138501523Y-101084095D01*
%TO.C,Q1*%
X145383238Y-97321619D02*
X145478476Y-97274000D01*
X145573714Y-97178761D01*
X145716571Y-97035904D01*
X145811809Y-96988285D01*
X145907047Y-96988285D01*
X145859428Y-97226380D02*
X145954666Y-97178761D01*
X146049904Y-97083523D01*
X146097523Y-96893047D01*
X146097523Y-96559714D01*
X146049904Y-96369238D01*
X145954666Y-96274000D01*
X145859428Y-96226380D01*
X145668952Y-96226380D01*
X145573714Y-96274000D01*
X145478476Y-96369238D01*
X145430857Y-96559714D01*
X145430857Y-96893047D01*
X145478476Y-97083523D01*
X145573714Y-97178761D01*
X145668952Y-97226380D01*
X145859428Y-97226380D01*
X144478476Y-97226380D02*
X145049904Y-97226380D01*
X144764190Y-97226380D02*
X144764190Y-96226380D01*
X144859428Y-96369238D01*
X144954666Y-96464476D01*
X145049904Y-96512095D01*
%TO.C,C37*%
X139834857Y-98655142D02*
X139882476Y-98702761D01*
X140025333Y-98750380D01*
X140120571Y-98750380D01*
X140263428Y-98702761D01*
X140358666Y-98607523D01*
X140406285Y-98512285D01*
X140453904Y-98321809D01*
X140453904Y-98178952D01*
X140406285Y-97988476D01*
X140358666Y-97893238D01*
X140263428Y-97798000D01*
X140120571Y-97750380D01*
X140025333Y-97750380D01*
X139882476Y-97798000D01*
X139834857Y-97845619D01*
X139501523Y-97750380D02*
X138882476Y-97750380D01*
X139215809Y-98131333D01*
X139072952Y-98131333D01*
X138977714Y-98178952D01*
X138930095Y-98226571D01*
X138882476Y-98321809D01*
X138882476Y-98559904D01*
X138930095Y-98655142D01*
X138977714Y-98702761D01*
X139072952Y-98750380D01*
X139358666Y-98750380D01*
X139453904Y-98702761D01*
X139501523Y-98655142D01*
X138549142Y-97750380D02*
X137882476Y-97750380D01*
X138311047Y-98750380D01*
%TO.C,U4*%
X103631904Y-71080380D02*
X103631904Y-71889904D01*
X103584285Y-71985142D01*
X103536666Y-72032761D01*
X103441428Y-72080380D01*
X103250952Y-72080380D01*
X103155714Y-72032761D01*
X103108095Y-71985142D01*
X103060476Y-71889904D01*
X103060476Y-71080380D01*
X102155714Y-71413714D02*
X102155714Y-72080380D01*
X102393809Y-71032761D02*
X102631904Y-71747047D01*
X102012857Y-71747047D01*
%TO.C,C4*%
X118276666Y-74924142D02*
X118324285Y-74971761D01*
X118467142Y-75019380D01*
X118562380Y-75019380D01*
X118705238Y-74971761D01*
X118800476Y-74876523D01*
X118848095Y-74781285D01*
X118895714Y-74590809D01*
X118895714Y-74447952D01*
X118848095Y-74257476D01*
X118800476Y-74162238D01*
X118705238Y-74067000D01*
X118562380Y-74019380D01*
X118467142Y-74019380D01*
X118324285Y-74067000D01*
X118276666Y-74114619D01*
X117419523Y-74352714D02*
X117419523Y-75019380D01*
X117657619Y-73971761D02*
X117895714Y-74686047D01*
X117276666Y-74686047D01*
%TO.C,U5*%
X144779904Y-76537380D02*
X144779904Y-77346904D01*
X144732285Y-77442142D01*
X144684666Y-77489761D01*
X144589428Y-77537380D01*
X144398952Y-77537380D01*
X144303714Y-77489761D01*
X144256095Y-77442142D01*
X144208476Y-77346904D01*
X144208476Y-76537380D01*
X143256095Y-76537380D02*
X143732285Y-76537380D01*
X143779904Y-77013571D01*
X143732285Y-76965952D01*
X143637047Y-76918333D01*
X143398952Y-76918333D01*
X143303714Y-76965952D01*
X143256095Y-77013571D01*
X143208476Y-77108809D01*
X143208476Y-77346904D01*
X143256095Y-77442142D01*
X143303714Y-77489761D01*
X143398952Y-77537380D01*
X143637047Y-77537380D01*
X143732285Y-77489761D01*
X143779904Y-77442142D01*
%TO.C,U1*%
X119496380Y-82550095D02*
X120305904Y-82550095D01*
X120401142Y-82597714D01*
X120448761Y-82645333D01*
X120496380Y-82740571D01*
X120496380Y-82931047D01*
X120448761Y-83026285D01*
X120401142Y-83073904D01*
X120305904Y-83121523D01*
X119496380Y-83121523D01*
X120496380Y-84121523D02*
X120496380Y-83550095D01*
X120496380Y-83835809D02*
X119496380Y-83835809D01*
X119639238Y-83740571D01*
X119734476Y-83645333D01*
X119782095Y-83550095D01*
%TO.C,RV5*%
X92035238Y-83510380D02*
X92368571Y-83034190D01*
X92606666Y-83510380D02*
X92606666Y-82510380D01*
X92225714Y-82510380D01*
X92130476Y-82558000D01*
X92082857Y-82605619D01*
X92035238Y-82700857D01*
X92035238Y-82843714D01*
X92082857Y-82938952D01*
X92130476Y-82986571D01*
X92225714Y-83034190D01*
X92606666Y-83034190D01*
X91749523Y-82510380D02*
X91416190Y-83510380D01*
X91082857Y-82510380D01*
X90273333Y-82510380D02*
X90749523Y-82510380D01*
X90797142Y-82986571D01*
X90749523Y-82938952D01*
X90654285Y-82891333D01*
X90416190Y-82891333D01*
X90320952Y-82938952D01*
X90273333Y-82986571D01*
X90225714Y-83081809D01*
X90225714Y-83319904D01*
X90273333Y-83415142D01*
X90320952Y-83462761D01*
X90416190Y-83510380D01*
X90654285Y-83510380D01*
X90749523Y-83462761D01*
X90797142Y-83415142D01*
%TO.C,RV4*%
X92289238Y-73350380D02*
X92622571Y-72874190D01*
X92860666Y-73350380D02*
X92860666Y-72350380D01*
X92479714Y-72350380D01*
X92384476Y-72398000D01*
X92336857Y-72445619D01*
X92289238Y-72540857D01*
X92289238Y-72683714D01*
X92336857Y-72778952D01*
X92384476Y-72826571D01*
X92479714Y-72874190D01*
X92860666Y-72874190D01*
X92003523Y-72350380D02*
X91670190Y-73350380D01*
X91336857Y-72350380D01*
X90574952Y-72683714D02*
X90574952Y-73350380D01*
X90813047Y-72302761D02*
X91051142Y-73017047D01*
X90432095Y-73017047D01*
%TO.C,R30*%
X156471857Y-77922380D02*
X156805190Y-77446190D01*
X157043285Y-77922380D02*
X157043285Y-76922380D01*
X156662333Y-76922380D01*
X156567095Y-76970000D01*
X156519476Y-77017619D01*
X156471857Y-77112857D01*
X156471857Y-77255714D01*
X156519476Y-77350952D01*
X156567095Y-77398571D01*
X156662333Y-77446190D01*
X157043285Y-77446190D01*
X156138523Y-76922380D02*
X155519476Y-76922380D01*
X155852809Y-77303333D01*
X155709952Y-77303333D01*
X155614714Y-77350952D01*
X155567095Y-77398571D01*
X155519476Y-77493809D01*
X155519476Y-77731904D01*
X155567095Y-77827142D01*
X155614714Y-77874761D01*
X155709952Y-77922380D01*
X155995666Y-77922380D01*
X156090904Y-77874761D01*
X156138523Y-77827142D01*
X154900428Y-76922380D02*
X154805190Y-76922380D01*
X154709952Y-76970000D01*
X154662333Y-77017619D01*
X154614714Y-77112857D01*
X154567095Y-77303333D01*
X154567095Y-77541428D01*
X154614714Y-77731904D01*
X154662333Y-77827142D01*
X154709952Y-77874761D01*
X154805190Y-77922380D01*
X154900428Y-77922380D01*
X154995666Y-77874761D01*
X155043285Y-77827142D01*
X155090904Y-77731904D01*
X155138523Y-77541428D01*
X155138523Y-77303333D01*
X155090904Y-77112857D01*
X155043285Y-77017619D01*
X154995666Y-76970000D01*
X154900428Y-76922380D01*
%TO.C,R29*%
X156471857Y-88082380D02*
X156805190Y-87606190D01*
X157043285Y-88082380D02*
X157043285Y-87082380D01*
X156662333Y-87082380D01*
X156567095Y-87130000D01*
X156519476Y-87177619D01*
X156471857Y-87272857D01*
X156471857Y-87415714D01*
X156519476Y-87510952D01*
X156567095Y-87558571D01*
X156662333Y-87606190D01*
X157043285Y-87606190D01*
X156090904Y-87177619D02*
X156043285Y-87130000D01*
X155948047Y-87082380D01*
X155709952Y-87082380D01*
X155614714Y-87130000D01*
X155567095Y-87177619D01*
X155519476Y-87272857D01*
X155519476Y-87368095D01*
X155567095Y-87510952D01*
X156138523Y-88082380D01*
X155519476Y-88082380D01*
X155043285Y-88082380D02*
X154852809Y-88082380D01*
X154757571Y-88034761D01*
X154709952Y-87987142D01*
X154614714Y-87844285D01*
X154567095Y-87653809D01*
X154567095Y-87272857D01*
X154614714Y-87177619D01*
X154662333Y-87130000D01*
X154757571Y-87082380D01*
X154948047Y-87082380D01*
X155043285Y-87130000D01*
X155090904Y-87177619D01*
X155138523Y-87272857D01*
X155138523Y-87510952D01*
X155090904Y-87606190D01*
X155043285Y-87653809D01*
X154948047Y-87701428D01*
X154757571Y-87701428D01*
X154662333Y-87653809D01*
X154614714Y-87606190D01*
X154567095Y-87510952D01*
%TO.C,R28*%
X156471857Y-72842380D02*
X156805190Y-72366190D01*
X157043285Y-72842380D02*
X157043285Y-71842380D01*
X156662333Y-71842380D01*
X156567095Y-71890000D01*
X156519476Y-71937619D01*
X156471857Y-72032857D01*
X156471857Y-72175714D01*
X156519476Y-72270952D01*
X156567095Y-72318571D01*
X156662333Y-72366190D01*
X157043285Y-72366190D01*
X156090904Y-71937619D02*
X156043285Y-71890000D01*
X155948047Y-71842380D01*
X155709952Y-71842380D01*
X155614714Y-71890000D01*
X155567095Y-71937619D01*
X155519476Y-72032857D01*
X155519476Y-72128095D01*
X155567095Y-72270952D01*
X156138523Y-72842380D01*
X155519476Y-72842380D01*
X154948047Y-72270952D02*
X155043285Y-72223333D01*
X155090904Y-72175714D01*
X155138523Y-72080476D01*
X155138523Y-72032857D01*
X155090904Y-71937619D01*
X155043285Y-71890000D01*
X154948047Y-71842380D01*
X154757571Y-71842380D01*
X154662333Y-71890000D01*
X154614714Y-71937619D01*
X154567095Y-72032857D01*
X154567095Y-72080476D01*
X154614714Y-72175714D01*
X154662333Y-72223333D01*
X154757571Y-72270952D01*
X154948047Y-72270952D01*
X155043285Y-72318571D01*
X155090904Y-72366190D01*
X155138523Y-72461428D01*
X155138523Y-72651904D01*
X155090904Y-72747142D01*
X155043285Y-72794761D01*
X154948047Y-72842380D01*
X154757571Y-72842380D01*
X154662333Y-72794761D01*
X154614714Y-72747142D01*
X154567095Y-72651904D01*
X154567095Y-72461428D01*
X154614714Y-72366190D01*
X154662333Y-72318571D01*
X154757571Y-72270952D01*
%TO.C,R27*%
X156471857Y-83002380D02*
X156805190Y-82526190D01*
X157043285Y-83002380D02*
X157043285Y-82002380D01*
X156662333Y-82002380D01*
X156567095Y-82050000D01*
X156519476Y-82097619D01*
X156471857Y-82192857D01*
X156471857Y-82335714D01*
X156519476Y-82430952D01*
X156567095Y-82478571D01*
X156662333Y-82526190D01*
X157043285Y-82526190D01*
X156090904Y-82097619D02*
X156043285Y-82050000D01*
X155948047Y-82002380D01*
X155709952Y-82002380D01*
X155614714Y-82050000D01*
X155567095Y-82097619D01*
X155519476Y-82192857D01*
X155519476Y-82288095D01*
X155567095Y-82430952D01*
X156138523Y-83002380D01*
X155519476Y-83002380D01*
X155186142Y-82002380D02*
X154519476Y-82002380D01*
X154948047Y-83002380D01*
%TO.C,R26*%
X132831857Y-93162380D02*
X133165190Y-92686190D01*
X133403285Y-93162380D02*
X133403285Y-92162380D01*
X133022333Y-92162380D01*
X132927095Y-92210000D01*
X132879476Y-92257619D01*
X132831857Y-92352857D01*
X132831857Y-92495714D01*
X132879476Y-92590952D01*
X132927095Y-92638571D01*
X133022333Y-92686190D01*
X133403285Y-92686190D01*
X132450904Y-92257619D02*
X132403285Y-92210000D01*
X132308047Y-92162380D01*
X132069952Y-92162380D01*
X131974714Y-92210000D01*
X131927095Y-92257619D01*
X131879476Y-92352857D01*
X131879476Y-92448095D01*
X131927095Y-92590952D01*
X132498523Y-93162380D01*
X131879476Y-93162380D01*
X131022333Y-92162380D02*
X131212809Y-92162380D01*
X131308047Y-92210000D01*
X131355666Y-92257619D01*
X131450904Y-92400476D01*
X131498523Y-92590952D01*
X131498523Y-92971904D01*
X131450904Y-93067142D01*
X131403285Y-93114761D01*
X131308047Y-93162380D01*
X131117571Y-93162380D01*
X131022333Y-93114761D01*
X130974714Y-93067142D01*
X130927095Y-92971904D01*
X130927095Y-92733809D01*
X130974714Y-92638571D01*
X131022333Y-92590952D01*
X131117571Y-92543333D01*
X131308047Y-92543333D01*
X131403285Y-92590952D01*
X131450904Y-92638571D01*
X131498523Y-92733809D01*
%TO.C,R25*%
X132849857Y-85542380D02*
X133183190Y-85066190D01*
X133421285Y-85542380D02*
X133421285Y-84542380D01*
X133040333Y-84542380D01*
X132945095Y-84590000D01*
X132897476Y-84637619D01*
X132849857Y-84732857D01*
X132849857Y-84875714D01*
X132897476Y-84970952D01*
X132945095Y-85018571D01*
X133040333Y-85066190D01*
X133421285Y-85066190D01*
X132468904Y-84637619D02*
X132421285Y-84590000D01*
X132326047Y-84542380D01*
X132087952Y-84542380D01*
X131992714Y-84590000D01*
X131945095Y-84637619D01*
X131897476Y-84732857D01*
X131897476Y-84828095D01*
X131945095Y-84970952D01*
X132516523Y-85542380D01*
X131897476Y-85542380D01*
X130992714Y-84542380D02*
X131468904Y-84542380D01*
X131516523Y-85018571D01*
X131468904Y-84970952D01*
X131373666Y-84923333D01*
X131135571Y-84923333D01*
X131040333Y-84970952D01*
X130992714Y-85018571D01*
X130945095Y-85113809D01*
X130945095Y-85351904D01*
X130992714Y-85447142D01*
X131040333Y-85494761D01*
X131135571Y-85542380D01*
X131373666Y-85542380D01*
X131468904Y-85494761D01*
X131516523Y-85447142D01*
%TO.C,R24*%
X132849857Y-83002380D02*
X133183190Y-82526190D01*
X133421285Y-83002380D02*
X133421285Y-82002380D01*
X133040333Y-82002380D01*
X132945095Y-82050000D01*
X132897476Y-82097619D01*
X132849857Y-82192857D01*
X132849857Y-82335714D01*
X132897476Y-82430952D01*
X132945095Y-82478571D01*
X133040333Y-82526190D01*
X133421285Y-82526190D01*
X132468904Y-82097619D02*
X132421285Y-82050000D01*
X132326047Y-82002380D01*
X132087952Y-82002380D01*
X131992714Y-82050000D01*
X131945095Y-82097619D01*
X131897476Y-82192857D01*
X131897476Y-82288095D01*
X131945095Y-82430952D01*
X132516523Y-83002380D01*
X131897476Y-83002380D01*
X131040333Y-82335714D02*
X131040333Y-83002380D01*
X131278428Y-81954761D02*
X131516523Y-82669047D01*
X130897476Y-82669047D01*
%TO.C,R19*%
X88517857Y-80082380D02*
X88851190Y-79606190D01*
X89089285Y-80082380D02*
X89089285Y-79082380D01*
X88708333Y-79082380D01*
X88613095Y-79130000D01*
X88565476Y-79177619D01*
X88517857Y-79272857D01*
X88517857Y-79415714D01*
X88565476Y-79510952D01*
X88613095Y-79558571D01*
X88708333Y-79606190D01*
X89089285Y-79606190D01*
X87565476Y-80082380D02*
X88136904Y-80082380D01*
X87851190Y-80082380D02*
X87851190Y-79082380D01*
X87946428Y-79225238D01*
X88041666Y-79320476D01*
X88136904Y-79368095D01*
X87089285Y-80082380D02*
X86898809Y-80082380D01*
X86803571Y-80034761D01*
X86755952Y-79987142D01*
X86660714Y-79844285D01*
X86613095Y-79653809D01*
X86613095Y-79272857D01*
X86660714Y-79177619D01*
X86708333Y-79130000D01*
X86803571Y-79082380D01*
X86994047Y-79082380D01*
X87089285Y-79130000D01*
X87136904Y-79177619D01*
X87184523Y-79272857D01*
X87184523Y-79510952D01*
X87136904Y-79606190D01*
X87089285Y-79653809D01*
X86994047Y-79701428D01*
X86803571Y-79701428D01*
X86708333Y-79653809D01*
X86660714Y-79606190D01*
X86613095Y-79510952D01*
%TO.C,R12*%
X132976857Y-72842380D02*
X133310190Y-72366190D01*
X133548285Y-72842380D02*
X133548285Y-71842380D01*
X133167333Y-71842380D01*
X133072095Y-71890000D01*
X133024476Y-71937619D01*
X132976857Y-72032857D01*
X132976857Y-72175714D01*
X133024476Y-72270952D01*
X133072095Y-72318571D01*
X133167333Y-72366190D01*
X133548285Y-72366190D01*
X132024476Y-72842380D02*
X132595904Y-72842380D01*
X132310190Y-72842380D02*
X132310190Y-71842380D01*
X132405428Y-71985238D01*
X132500666Y-72080476D01*
X132595904Y-72128095D01*
X131643523Y-71937619D02*
X131595904Y-71890000D01*
X131500666Y-71842380D01*
X131262571Y-71842380D01*
X131167333Y-71890000D01*
X131119714Y-71937619D01*
X131072095Y-72032857D01*
X131072095Y-72128095D01*
X131119714Y-72270952D01*
X131691142Y-72842380D01*
X131072095Y-72842380D01*
%TO.C,R11*%
X132849857Y-77922380D02*
X133183190Y-77446190D01*
X133421285Y-77922380D02*
X133421285Y-76922380D01*
X133040333Y-76922380D01*
X132945095Y-76970000D01*
X132897476Y-77017619D01*
X132849857Y-77112857D01*
X132849857Y-77255714D01*
X132897476Y-77350952D01*
X132945095Y-77398571D01*
X133040333Y-77446190D01*
X133421285Y-77446190D01*
X131897476Y-77922380D02*
X132468904Y-77922380D01*
X132183190Y-77922380D02*
X132183190Y-76922380D01*
X132278428Y-77065238D01*
X132373666Y-77160476D01*
X132468904Y-77208095D01*
X130945095Y-77922380D02*
X131516523Y-77922380D01*
X131230809Y-77922380D02*
X131230809Y-76922380D01*
X131326047Y-77065238D01*
X131421285Y-77160476D01*
X131516523Y-77208095D01*
%TO.C,R5*%
X141381666Y-64842380D02*
X141715000Y-64366190D01*
X141953095Y-64842380D02*
X141953095Y-63842380D01*
X141572142Y-63842380D01*
X141476904Y-63890000D01*
X141429285Y-63937619D01*
X141381666Y-64032857D01*
X141381666Y-64175714D01*
X141429285Y-64270952D01*
X141476904Y-64318571D01*
X141572142Y-64366190D01*
X141953095Y-64366190D01*
X140476904Y-63842380D02*
X140953095Y-63842380D01*
X141000714Y-64318571D01*
X140953095Y-64270952D01*
X140857857Y-64223333D01*
X140619761Y-64223333D01*
X140524523Y-64270952D01*
X140476904Y-64318571D01*
X140429285Y-64413809D01*
X140429285Y-64651904D01*
X140476904Y-64747142D01*
X140524523Y-64794761D01*
X140619761Y-64842380D01*
X140857857Y-64842380D01*
X140953095Y-64794761D01*
X141000714Y-64747142D01*
%TO.C,C36*%
X143898857Y-75287142D02*
X143946476Y-75334761D01*
X144089333Y-75382380D01*
X144184571Y-75382380D01*
X144327428Y-75334761D01*
X144422666Y-75239523D01*
X144470285Y-75144285D01*
X144517904Y-74953809D01*
X144517904Y-74810952D01*
X144470285Y-74620476D01*
X144422666Y-74525238D01*
X144327428Y-74430000D01*
X144184571Y-74382380D01*
X144089333Y-74382380D01*
X143946476Y-74430000D01*
X143898857Y-74477619D01*
X143565523Y-74382380D02*
X142946476Y-74382380D01*
X143279809Y-74763333D01*
X143136952Y-74763333D01*
X143041714Y-74810952D01*
X142994095Y-74858571D01*
X142946476Y-74953809D01*
X142946476Y-75191904D01*
X142994095Y-75287142D01*
X143041714Y-75334761D01*
X143136952Y-75382380D01*
X143422666Y-75382380D01*
X143517904Y-75334761D01*
X143565523Y-75287142D01*
X142089333Y-74382380D02*
X142279809Y-74382380D01*
X142375047Y-74430000D01*
X142422666Y-74477619D01*
X142517904Y-74620476D01*
X142565523Y-74810952D01*
X142565523Y-75191904D01*
X142517904Y-75287142D01*
X142470285Y-75334761D01*
X142375047Y-75382380D01*
X142184571Y-75382380D01*
X142089333Y-75334761D01*
X142041714Y-75287142D01*
X141994095Y-75191904D01*
X141994095Y-74953809D01*
X142041714Y-74858571D01*
X142089333Y-74810952D01*
X142184571Y-74763333D01*
X142375047Y-74763333D01*
X142470285Y-74810952D01*
X142517904Y-74858571D01*
X142565523Y-74953809D01*
%TO.C,C35*%
X143898857Y-72747142D02*
X143946476Y-72794761D01*
X144089333Y-72842380D01*
X144184571Y-72842380D01*
X144327428Y-72794761D01*
X144422666Y-72699523D01*
X144470285Y-72604285D01*
X144517904Y-72413809D01*
X144517904Y-72270952D01*
X144470285Y-72080476D01*
X144422666Y-71985238D01*
X144327428Y-71890000D01*
X144184571Y-71842380D01*
X144089333Y-71842380D01*
X143946476Y-71890000D01*
X143898857Y-71937619D01*
X143565523Y-71842380D02*
X142946476Y-71842380D01*
X143279809Y-72223333D01*
X143136952Y-72223333D01*
X143041714Y-72270952D01*
X142994095Y-72318571D01*
X142946476Y-72413809D01*
X142946476Y-72651904D01*
X142994095Y-72747142D01*
X143041714Y-72794761D01*
X143136952Y-72842380D01*
X143422666Y-72842380D01*
X143517904Y-72794761D01*
X143565523Y-72747142D01*
X142041714Y-71842380D02*
X142517904Y-71842380D01*
X142565523Y-72318571D01*
X142517904Y-72270952D01*
X142422666Y-72223333D01*
X142184571Y-72223333D01*
X142089333Y-72270952D01*
X142041714Y-72318571D01*
X141994095Y-72413809D01*
X141994095Y-72651904D01*
X142041714Y-72747142D01*
X142089333Y-72794761D01*
X142184571Y-72842380D01*
X142422666Y-72842380D01*
X142517904Y-72794761D01*
X142565523Y-72747142D01*
%TO.C,C34*%
X156471857Y-90527142D02*
X156519476Y-90574761D01*
X156662333Y-90622380D01*
X156757571Y-90622380D01*
X156900428Y-90574761D01*
X156995666Y-90479523D01*
X157043285Y-90384285D01*
X157090904Y-90193809D01*
X157090904Y-90050952D01*
X157043285Y-89860476D01*
X156995666Y-89765238D01*
X156900428Y-89670000D01*
X156757571Y-89622380D01*
X156662333Y-89622380D01*
X156519476Y-89670000D01*
X156471857Y-89717619D01*
X156138523Y-89622380D02*
X155519476Y-89622380D01*
X155852809Y-90003333D01*
X155709952Y-90003333D01*
X155614714Y-90050952D01*
X155567095Y-90098571D01*
X155519476Y-90193809D01*
X155519476Y-90431904D01*
X155567095Y-90527142D01*
X155614714Y-90574761D01*
X155709952Y-90622380D01*
X155995666Y-90622380D01*
X156090904Y-90574761D01*
X156138523Y-90527142D01*
X154662333Y-89955714D02*
X154662333Y-90622380D01*
X154900428Y-89574761D02*
X155138523Y-90289047D01*
X154519476Y-90289047D01*
%TO.C,C33*%
X156471857Y-80367142D02*
X156519476Y-80414761D01*
X156662333Y-80462380D01*
X156757571Y-80462380D01*
X156900428Y-80414761D01*
X156995666Y-80319523D01*
X157043285Y-80224285D01*
X157090904Y-80033809D01*
X157090904Y-79890952D01*
X157043285Y-79700476D01*
X156995666Y-79605238D01*
X156900428Y-79510000D01*
X156757571Y-79462380D01*
X156662333Y-79462380D01*
X156519476Y-79510000D01*
X156471857Y-79557619D01*
X156138523Y-79462380D02*
X155519476Y-79462380D01*
X155852809Y-79843333D01*
X155709952Y-79843333D01*
X155614714Y-79890952D01*
X155567095Y-79938571D01*
X155519476Y-80033809D01*
X155519476Y-80271904D01*
X155567095Y-80367142D01*
X155614714Y-80414761D01*
X155709952Y-80462380D01*
X155995666Y-80462380D01*
X156090904Y-80414761D01*
X156138523Y-80367142D01*
X155186142Y-79462380D02*
X154567095Y-79462380D01*
X154900428Y-79843333D01*
X154757571Y-79843333D01*
X154662333Y-79890952D01*
X154614714Y-79938571D01*
X154567095Y-80033809D01*
X154567095Y-80271904D01*
X154614714Y-80367142D01*
X154662333Y-80414761D01*
X154757571Y-80462380D01*
X155043285Y-80462380D01*
X155138523Y-80414761D01*
X155186142Y-80367142D01*
%TO.C,C32*%
X156471857Y-75287142D02*
X156519476Y-75334761D01*
X156662333Y-75382380D01*
X156757571Y-75382380D01*
X156900428Y-75334761D01*
X156995666Y-75239523D01*
X157043285Y-75144285D01*
X157090904Y-74953809D01*
X157090904Y-74810952D01*
X157043285Y-74620476D01*
X156995666Y-74525238D01*
X156900428Y-74430000D01*
X156757571Y-74382380D01*
X156662333Y-74382380D01*
X156519476Y-74430000D01*
X156471857Y-74477619D01*
X156138523Y-74382380D02*
X155519476Y-74382380D01*
X155852809Y-74763333D01*
X155709952Y-74763333D01*
X155614714Y-74810952D01*
X155567095Y-74858571D01*
X155519476Y-74953809D01*
X155519476Y-75191904D01*
X155567095Y-75287142D01*
X155614714Y-75334761D01*
X155709952Y-75382380D01*
X155995666Y-75382380D01*
X156090904Y-75334761D01*
X156138523Y-75287142D01*
X155138523Y-74477619D02*
X155090904Y-74430000D01*
X154995666Y-74382380D01*
X154757571Y-74382380D01*
X154662333Y-74430000D01*
X154614714Y-74477619D01*
X154567095Y-74572857D01*
X154567095Y-74668095D01*
X154614714Y-74810952D01*
X155186142Y-75382380D01*
X154567095Y-75382380D01*
%TO.C,C31*%
X156471857Y-93067142D02*
X156519476Y-93114761D01*
X156662333Y-93162380D01*
X156757571Y-93162380D01*
X156900428Y-93114761D01*
X156995666Y-93019523D01*
X157043285Y-92924285D01*
X157090904Y-92733809D01*
X157090904Y-92590952D01*
X157043285Y-92400476D01*
X156995666Y-92305238D01*
X156900428Y-92210000D01*
X156757571Y-92162380D01*
X156662333Y-92162380D01*
X156519476Y-92210000D01*
X156471857Y-92257619D01*
X156138523Y-92162380D02*
X155519476Y-92162380D01*
X155852809Y-92543333D01*
X155709952Y-92543333D01*
X155614714Y-92590952D01*
X155567095Y-92638571D01*
X155519476Y-92733809D01*
X155519476Y-92971904D01*
X155567095Y-93067142D01*
X155614714Y-93114761D01*
X155709952Y-93162380D01*
X155995666Y-93162380D01*
X156090904Y-93114761D01*
X156138523Y-93067142D01*
X154567095Y-93162380D02*
X155138523Y-93162380D01*
X154852809Y-93162380D02*
X154852809Y-92162380D01*
X154948047Y-92305238D01*
X155043285Y-92400476D01*
X155138523Y-92448095D01*
%TO.C,C30*%
X156471857Y-85447142D02*
X156519476Y-85494761D01*
X156662333Y-85542380D01*
X156757571Y-85542380D01*
X156900428Y-85494761D01*
X156995666Y-85399523D01*
X157043285Y-85304285D01*
X157090904Y-85113809D01*
X157090904Y-84970952D01*
X157043285Y-84780476D01*
X156995666Y-84685238D01*
X156900428Y-84590000D01*
X156757571Y-84542380D01*
X156662333Y-84542380D01*
X156519476Y-84590000D01*
X156471857Y-84637619D01*
X156138523Y-84542380D02*
X155519476Y-84542380D01*
X155852809Y-84923333D01*
X155709952Y-84923333D01*
X155614714Y-84970952D01*
X155567095Y-85018571D01*
X155519476Y-85113809D01*
X155519476Y-85351904D01*
X155567095Y-85447142D01*
X155614714Y-85494761D01*
X155709952Y-85542380D01*
X155995666Y-85542380D01*
X156090904Y-85494761D01*
X156138523Y-85447142D01*
X154900428Y-84542380D02*
X154805190Y-84542380D01*
X154709952Y-84590000D01*
X154662333Y-84637619D01*
X154614714Y-84732857D01*
X154567095Y-84923333D01*
X154567095Y-85161428D01*
X154614714Y-85351904D01*
X154662333Y-85447142D01*
X154709952Y-85494761D01*
X154805190Y-85542380D01*
X154900428Y-85542380D01*
X154995666Y-85494761D01*
X155043285Y-85447142D01*
X155090904Y-85351904D01*
X155138523Y-85161428D01*
X155138523Y-84923333D01*
X155090904Y-84732857D01*
X155043285Y-84637619D01*
X154995666Y-84590000D01*
X154900428Y-84542380D01*
%TO.C,C29*%
X132722857Y-90527142D02*
X132770476Y-90574761D01*
X132913333Y-90622380D01*
X133008571Y-90622380D01*
X133151428Y-90574761D01*
X133246666Y-90479523D01*
X133294285Y-90384285D01*
X133341904Y-90193809D01*
X133341904Y-90050952D01*
X133294285Y-89860476D01*
X133246666Y-89765238D01*
X133151428Y-89670000D01*
X133008571Y-89622380D01*
X132913333Y-89622380D01*
X132770476Y-89670000D01*
X132722857Y-89717619D01*
X132341904Y-89717619D02*
X132294285Y-89670000D01*
X132199047Y-89622380D01*
X131960952Y-89622380D01*
X131865714Y-89670000D01*
X131818095Y-89717619D01*
X131770476Y-89812857D01*
X131770476Y-89908095D01*
X131818095Y-90050952D01*
X132389523Y-90622380D01*
X131770476Y-90622380D01*
X131294285Y-90622380D02*
X131103809Y-90622380D01*
X131008571Y-90574761D01*
X130960952Y-90527142D01*
X130865714Y-90384285D01*
X130818095Y-90193809D01*
X130818095Y-89812857D01*
X130865714Y-89717619D01*
X130913333Y-89670000D01*
X131008571Y-89622380D01*
X131199047Y-89622380D01*
X131294285Y-89670000D01*
X131341904Y-89717619D01*
X131389523Y-89812857D01*
X131389523Y-90050952D01*
X131341904Y-90146190D01*
X131294285Y-90193809D01*
X131199047Y-90241428D01*
X131008571Y-90241428D01*
X130913333Y-90193809D01*
X130865714Y-90146190D01*
X130818095Y-90050952D01*
%TO.C,C28*%
X132849857Y-87987142D02*
X132897476Y-88034761D01*
X133040333Y-88082380D01*
X133135571Y-88082380D01*
X133278428Y-88034761D01*
X133373666Y-87939523D01*
X133421285Y-87844285D01*
X133468904Y-87653809D01*
X133468904Y-87510952D01*
X133421285Y-87320476D01*
X133373666Y-87225238D01*
X133278428Y-87130000D01*
X133135571Y-87082380D01*
X133040333Y-87082380D01*
X132897476Y-87130000D01*
X132849857Y-87177619D01*
X132468904Y-87177619D02*
X132421285Y-87130000D01*
X132326047Y-87082380D01*
X132087952Y-87082380D01*
X131992714Y-87130000D01*
X131945095Y-87177619D01*
X131897476Y-87272857D01*
X131897476Y-87368095D01*
X131945095Y-87510952D01*
X132516523Y-88082380D01*
X131897476Y-88082380D01*
X131326047Y-87510952D02*
X131421285Y-87463333D01*
X131468904Y-87415714D01*
X131516523Y-87320476D01*
X131516523Y-87272857D01*
X131468904Y-87177619D01*
X131421285Y-87130000D01*
X131326047Y-87082380D01*
X131135571Y-87082380D01*
X131040333Y-87130000D01*
X130992714Y-87177619D01*
X130945095Y-87272857D01*
X130945095Y-87320476D01*
X130992714Y-87415714D01*
X131040333Y-87463333D01*
X131135571Y-87510952D01*
X131326047Y-87510952D01*
X131421285Y-87558571D01*
X131468904Y-87606190D01*
X131516523Y-87701428D01*
X131516523Y-87891904D01*
X131468904Y-87987142D01*
X131421285Y-88034761D01*
X131326047Y-88082380D01*
X131135571Y-88082380D01*
X131040333Y-88034761D01*
X130992714Y-87987142D01*
X130945095Y-87891904D01*
X130945095Y-87701428D01*
X130992714Y-87606190D01*
X131040333Y-87558571D01*
X131135571Y-87510952D01*
%TO.C,C27*%
X132976857Y-75287142D02*
X133024476Y-75334761D01*
X133167333Y-75382380D01*
X133262571Y-75382380D01*
X133405428Y-75334761D01*
X133500666Y-75239523D01*
X133548285Y-75144285D01*
X133595904Y-74953809D01*
X133595904Y-74810952D01*
X133548285Y-74620476D01*
X133500666Y-74525238D01*
X133405428Y-74430000D01*
X133262571Y-74382380D01*
X133167333Y-74382380D01*
X133024476Y-74430000D01*
X132976857Y-74477619D01*
X132595904Y-74477619D02*
X132548285Y-74430000D01*
X132453047Y-74382380D01*
X132214952Y-74382380D01*
X132119714Y-74430000D01*
X132072095Y-74477619D01*
X132024476Y-74572857D01*
X132024476Y-74668095D01*
X132072095Y-74810952D01*
X132643523Y-75382380D01*
X132024476Y-75382380D01*
X131691142Y-74382380D02*
X131024476Y-74382380D01*
X131453047Y-75382380D01*
%TO.C,C8*%
X132881666Y-80367142D02*
X132929285Y-80414761D01*
X133072142Y-80462380D01*
X133167380Y-80462380D01*
X133310238Y-80414761D01*
X133405476Y-80319523D01*
X133453095Y-80224285D01*
X133500714Y-80033809D01*
X133500714Y-79890952D01*
X133453095Y-79700476D01*
X133405476Y-79605238D01*
X133310238Y-79510000D01*
X133167380Y-79462380D01*
X133072142Y-79462380D01*
X132929285Y-79510000D01*
X132881666Y-79557619D01*
X132310238Y-79890952D02*
X132405476Y-79843333D01*
X132453095Y-79795714D01*
X132500714Y-79700476D01*
X132500714Y-79652857D01*
X132453095Y-79557619D01*
X132405476Y-79510000D01*
X132310238Y-79462380D01*
X132119761Y-79462380D01*
X132024523Y-79510000D01*
X131976904Y-79557619D01*
X131929285Y-79652857D01*
X131929285Y-79700476D01*
X131976904Y-79795714D01*
X132024523Y-79843333D01*
X132119761Y-79890952D01*
X132310238Y-79890952D01*
X132405476Y-79938571D01*
X132453095Y-79986190D01*
X132500714Y-80081428D01*
X132500714Y-80271904D01*
X132453095Y-80367142D01*
X132405476Y-80414761D01*
X132310238Y-80462380D01*
X132119761Y-80462380D01*
X132024523Y-80414761D01*
X131976904Y-80367142D01*
X131929285Y-80271904D01*
X131929285Y-80081428D01*
X131976904Y-79986190D01*
X132024523Y-79938571D01*
X132119761Y-79890952D01*
%TO.C,R23*%
X119006857Y-102297380D02*
X119340190Y-101821190D01*
X119578285Y-102297380D02*
X119578285Y-101297380D01*
X119197333Y-101297380D01*
X119102095Y-101345000D01*
X119054476Y-101392619D01*
X119006857Y-101487857D01*
X119006857Y-101630714D01*
X119054476Y-101725952D01*
X119102095Y-101773571D01*
X119197333Y-101821190D01*
X119578285Y-101821190D01*
X118625904Y-101392619D02*
X118578285Y-101345000D01*
X118483047Y-101297380D01*
X118244952Y-101297380D01*
X118149714Y-101345000D01*
X118102095Y-101392619D01*
X118054476Y-101487857D01*
X118054476Y-101583095D01*
X118102095Y-101725952D01*
X118673523Y-102297380D01*
X118054476Y-102297380D01*
X117721142Y-101297380D02*
X117102095Y-101297380D01*
X117435428Y-101678333D01*
X117292571Y-101678333D01*
X117197333Y-101725952D01*
X117149714Y-101773571D01*
X117102095Y-101868809D01*
X117102095Y-102106904D01*
X117149714Y-102202142D01*
X117197333Y-102249761D01*
X117292571Y-102297380D01*
X117578285Y-102297380D01*
X117673523Y-102249761D01*
X117721142Y-102202142D01*
%TO.C,J7*%
X119459333Y-108672380D02*
X119459333Y-109386666D01*
X119506952Y-109529523D01*
X119602190Y-109624761D01*
X119745047Y-109672380D01*
X119840285Y-109672380D01*
X119078380Y-108672380D02*
X118411714Y-108672380D01*
X118840285Y-109672380D01*
%TO.C,X1*%
X78914523Y-93432380D02*
X78247857Y-94432380D01*
X78247857Y-93432380D02*
X78914523Y-94432380D01*
X77343095Y-94432380D02*
X77914523Y-94432380D01*
X77628809Y-94432380D02*
X77628809Y-93432380D01*
X77724047Y-93575238D01*
X77819285Y-93670476D01*
X77914523Y-93718095D01*
%TO.C,U3*%
X92018185Y-105909310D02*
X91445765Y-106481730D01*
X91344750Y-106515402D01*
X91277406Y-106515402D01*
X91176391Y-106481730D01*
X91041704Y-106347043D01*
X91008032Y-106246028D01*
X91008032Y-106178684D01*
X91041704Y-106077669D01*
X91614124Y-105505249D01*
X91344750Y-105235875D02*
X90907017Y-104798143D01*
X90873345Y-105303219D01*
X90772330Y-105202204D01*
X90671315Y-105168532D01*
X90603971Y-105168532D01*
X90502956Y-105202204D01*
X90334597Y-105370562D01*
X90300925Y-105471578D01*
X90300925Y-105538921D01*
X90334597Y-105639936D01*
X90536628Y-105841967D01*
X90637643Y-105875639D01*
X90704986Y-105875639D01*
%TO.C,U2*%
X107187904Y-82764380D02*
X107187904Y-83573904D01*
X107140285Y-83669142D01*
X107092666Y-83716761D01*
X106997428Y-83764380D01*
X106806952Y-83764380D01*
X106711714Y-83716761D01*
X106664095Y-83669142D01*
X106616476Y-83573904D01*
X106616476Y-82764380D01*
X106187904Y-82859619D02*
X106140285Y-82812000D01*
X106045047Y-82764380D01*
X105806952Y-82764380D01*
X105711714Y-82812000D01*
X105664095Y-82859619D01*
X105616476Y-82954857D01*
X105616476Y-83050095D01*
X105664095Y-83192952D01*
X106235523Y-83764380D01*
X105616476Y-83764380D01*
%TO.C,R22*%
X107576857Y-92654380D02*
X107910190Y-92178190D01*
X108148285Y-92654380D02*
X108148285Y-91654380D01*
X107767333Y-91654380D01*
X107672095Y-91702000D01*
X107624476Y-91749619D01*
X107576857Y-91844857D01*
X107576857Y-91987714D01*
X107624476Y-92082952D01*
X107672095Y-92130571D01*
X107767333Y-92178190D01*
X108148285Y-92178190D01*
X107195904Y-91749619D02*
X107148285Y-91702000D01*
X107053047Y-91654380D01*
X106814952Y-91654380D01*
X106719714Y-91702000D01*
X106672095Y-91749619D01*
X106624476Y-91844857D01*
X106624476Y-91940095D01*
X106672095Y-92082952D01*
X107243523Y-92654380D01*
X106624476Y-92654380D01*
X106243523Y-91749619D02*
X106195904Y-91702000D01*
X106100666Y-91654380D01*
X105862571Y-91654380D01*
X105767333Y-91702000D01*
X105719714Y-91749619D01*
X105672095Y-91844857D01*
X105672095Y-91940095D01*
X105719714Y-92082952D01*
X106291142Y-92654380D01*
X105672095Y-92654380D01*
%TO.C,R21*%
X113291857Y-92654380D02*
X113625190Y-92178190D01*
X113863285Y-92654380D02*
X113863285Y-91654380D01*
X113482333Y-91654380D01*
X113387095Y-91702000D01*
X113339476Y-91749619D01*
X113291857Y-91844857D01*
X113291857Y-91987714D01*
X113339476Y-92082952D01*
X113387095Y-92130571D01*
X113482333Y-92178190D01*
X113863285Y-92178190D01*
X112910904Y-91749619D02*
X112863285Y-91702000D01*
X112768047Y-91654380D01*
X112529952Y-91654380D01*
X112434714Y-91702000D01*
X112387095Y-91749619D01*
X112339476Y-91844857D01*
X112339476Y-91940095D01*
X112387095Y-92082952D01*
X112958523Y-92654380D01*
X112339476Y-92654380D01*
X111387095Y-92654380D02*
X111958523Y-92654380D01*
X111672809Y-92654380D02*
X111672809Y-91654380D01*
X111768047Y-91797238D01*
X111863285Y-91892476D01*
X111958523Y-91940095D01*
%TO.C,R20*%
X110370857Y-92654380D02*
X110704190Y-92178190D01*
X110942285Y-92654380D02*
X110942285Y-91654380D01*
X110561333Y-91654380D01*
X110466095Y-91702000D01*
X110418476Y-91749619D01*
X110370857Y-91844857D01*
X110370857Y-91987714D01*
X110418476Y-92082952D01*
X110466095Y-92130571D01*
X110561333Y-92178190D01*
X110942285Y-92178190D01*
X109989904Y-91749619D02*
X109942285Y-91702000D01*
X109847047Y-91654380D01*
X109608952Y-91654380D01*
X109513714Y-91702000D01*
X109466095Y-91749619D01*
X109418476Y-91844857D01*
X109418476Y-91940095D01*
X109466095Y-92082952D01*
X110037523Y-92654380D01*
X109418476Y-92654380D01*
X108799428Y-91654380D02*
X108704190Y-91654380D01*
X108608952Y-91702000D01*
X108561333Y-91749619D01*
X108513714Y-91844857D01*
X108466095Y-92035333D01*
X108466095Y-92273428D01*
X108513714Y-92463904D01*
X108561333Y-92559142D01*
X108608952Y-92606761D01*
X108704190Y-92654380D01*
X108799428Y-92654380D01*
X108894666Y-92606761D01*
X108942285Y-92559142D01*
X108989904Y-92463904D01*
X109037523Y-92273428D01*
X109037523Y-92035333D01*
X108989904Y-91844857D01*
X108942285Y-91749619D01*
X108894666Y-91702000D01*
X108799428Y-91654380D01*
%TO.C,R18*%
X107830857Y-74874380D02*
X108164190Y-74398190D01*
X108402285Y-74874380D02*
X108402285Y-73874380D01*
X108021333Y-73874380D01*
X107926095Y-73922000D01*
X107878476Y-73969619D01*
X107830857Y-74064857D01*
X107830857Y-74207714D01*
X107878476Y-74302952D01*
X107926095Y-74350571D01*
X108021333Y-74398190D01*
X108402285Y-74398190D01*
X106878476Y-74874380D02*
X107449904Y-74874380D01*
X107164190Y-74874380D02*
X107164190Y-73874380D01*
X107259428Y-74017238D01*
X107354666Y-74112476D01*
X107449904Y-74160095D01*
X106307047Y-74302952D02*
X106402285Y-74255333D01*
X106449904Y-74207714D01*
X106497523Y-74112476D01*
X106497523Y-74064857D01*
X106449904Y-73969619D01*
X106402285Y-73922000D01*
X106307047Y-73874380D01*
X106116571Y-73874380D01*
X106021333Y-73922000D01*
X105973714Y-73969619D01*
X105926095Y-74064857D01*
X105926095Y-74112476D01*
X105973714Y-74207714D01*
X106021333Y-74255333D01*
X106116571Y-74302952D01*
X106307047Y-74302952D01*
X106402285Y-74350571D01*
X106449904Y-74398190D01*
X106497523Y-74493428D01*
X106497523Y-74683904D01*
X106449904Y-74779142D01*
X106402285Y-74826761D01*
X106307047Y-74874380D01*
X106116571Y-74874380D01*
X106021333Y-74826761D01*
X105973714Y-74779142D01*
X105926095Y-74683904D01*
X105926095Y-74493428D01*
X105973714Y-74398190D01*
X106021333Y-74350571D01*
X106116571Y-74302952D01*
%TO.C,R17*%
X113418857Y-74874380D02*
X113752190Y-74398190D01*
X113990285Y-74874380D02*
X113990285Y-73874380D01*
X113609333Y-73874380D01*
X113514095Y-73922000D01*
X113466476Y-73969619D01*
X113418857Y-74064857D01*
X113418857Y-74207714D01*
X113466476Y-74302952D01*
X113514095Y-74350571D01*
X113609333Y-74398190D01*
X113990285Y-74398190D01*
X112466476Y-74874380D02*
X113037904Y-74874380D01*
X112752190Y-74874380D02*
X112752190Y-73874380D01*
X112847428Y-74017238D01*
X112942666Y-74112476D01*
X113037904Y-74160095D01*
X112133142Y-73874380D02*
X111466476Y-73874380D01*
X111895047Y-74874380D01*
%TO.C,R16*%
X110624857Y-74874380D02*
X110958190Y-74398190D01*
X111196285Y-74874380D02*
X111196285Y-73874380D01*
X110815333Y-73874380D01*
X110720095Y-73922000D01*
X110672476Y-73969619D01*
X110624857Y-74064857D01*
X110624857Y-74207714D01*
X110672476Y-74302952D01*
X110720095Y-74350571D01*
X110815333Y-74398190D01*
X111196285Y-74398190D01*
X109672476Y-74874380D02*
X110243904Y-74874380D01*
X109958190Y-74874380D02*
X109958190Y-73874380D01*
X110053428Y-74017238D01*
X110148666Y-74112476D01*
X110243904Y-74160095D01*
X108815333Y-73874380D02*
X109005809Y-73874380D01*
X109101047Y-73922000D01*
X109148666Y-73969619D01*
X109243904Y-74112476D01*
X109291523Y-74302952D01*
X109291523Y-74683904D01*
X109243904Y-74779142D01*
X109196285Y-74826761D01*
X109101047Y-74874380D01*
X108910571Y-74874380D01*
X108815333Y-74826761D01*
X108767714Y-74779142D01*
X108720095Y-74683904D01*
X108720095Y-74445809D01*
X108767714Y-74350571D01*
X108815333Y-74302952D01*
X108910571Y-74255333D01*
X109101047Y-74255333D01*
X109196285Y-74302952D01*
X109243904Y-74350571D01*
X109291523Y-74445809D01*
%TO.C,R15*%
X88517857Y-69922380D02*
X88851190Y-69446190D01*
X89089285Y-69922380D02*
X89089285Y-68922380D01*
X88708333Y-68922380D01*
X88613095Y-68970000D01*
X88565476Y-69017619D01*
X88517857Y-69112857D01*
X88517857Y-69255714D01*
X88565476Y-69350952D01*
X88613095Y-69398571D01*
X88708333Y-69446190D01*
X89089285Y-69446190D01*
X87565476Y-69922380D02*
X88136904Y-69922380D01*
X87851190Y-69922380D02*
X87851190Y-68922380D01*
X87946428Y-69065238D01*
X88041666Y-69160476D01*
X88136904Y-69208095D01*
X86660714Y-68922380D02*
X87136904Y-68922380D01*
X87184523Y-69398571D01*
X87136904Y-69350952D01*
X87041666Y-69303333D01*
X86803571Y-69303333D01*
X86708333Y-69350952D01*
X86660714Y-69398571D01*
X86613095Y-69493809D01*
X86613095Y-69731904D01*
X86660714Y-69827142D01*
X86708333Y-69874761D01*
X86803571Y-69922380D01*
X87041666Y-69922380D01*
X87136904Y-69874761D01*
X87184523Y-69827142D01*
%TO.C,R14*%
X121800857Y-96718380D02*
X122134190Y-96242190D01*
X122372285Y-96718380D02*
X122372285Y-95718380D01*
X121991333Y-95718380D01*
X121896095Y-95766000D01*
X121848476Y-95813619D01*
X121800857Y-95908857D01*
X121800857Y-96051714D01*
X121848476Y-96146952D01*
X121896095Y-96194571D01*
X121991333Y-96242190D01*
X122372285Y-96242190D01*
X120848476Y-96718380D02*
X121419904Y-96718380D01*
X121134190Y-96718380D02*
X121134190Y-95718380D01*
X121229428Y-95861238D01*
X121324666Y-95956476D01*
X121419904Y-96004095D01*
X119991333Y-96051714D02*
X119991333Y-96718380D01*
X120229428Y-95670761D02*
X120467523Y-96385047D01*
X119848476Y-96385047D01*
%TO.C,R13*%
X116085857Y-96709380D02*
X116419190Y-96233190D01*
X116657285Y-96709380D02*
X116657285Y-95709380D01*
X116276333Y-95709380D01*
X116181095Y-95757000D01*
X116133476Y-95804619D01*
X116085857Y-95899857D01*
X116085857Y-96042714D01*
X116133476Y-96137952D01*
X116181095Y-96185571D01*
X116276333Y-96233190D01*
X116657285Y-96233190D01*
X115133476Y-96709380D02*
X115704904Y-96709380D01*
X115419190Y-96709380D02*
X115419190Y-95709380D01*
X115514428Y-95852238D01*
X115609666Y-95947476D01*
X115704904Y-95995095D01*
X114800142Y-95709380D02*
X114181095Y-95709380D01*
X114514428Y-96090333D01*
X114371571Y-96090333D01*
X114276333Y-96137952D01*
X114228714Y-96185571D01*
X114181095Y-96280809D01*
X114181095Y-96518904D01*
X114228714Y-96614142D01*
X114276333Y-96661761D01*
X114371571Y-96709380D01*
X114657285Y-96709380D01*
X114752523Y-96661761D01*
X114800142Y-96614142D01*
%TO.C,R10*%
X123832857Y-92654380D02*
X124166190Y-92178190D01*
X124404285Y-92654380D02*
X124404285Y-91654380D01*
X124023333Y-91654380D01*
X123928095Y-91702000D01*
X123880476Y-91749619D01*
X123832857Y-91844857D01*
X123832857Y-91987714D01*
X123880476Y-92082952D01*
X123928095Y-92130571D01*
X124023333Y-92178190D01*
X124404285Y-92178190D01*
X122880476Y-92654380D02*
X123451904Y-92654380D01*
X123166190Y-92654380D02*
X123166190Y-91654380D01*
X123261428Y-91797238D01*
X123356666Y-91892476D01*
X123451904Y-91940095D01*
X122261428Y-91654380D02*
X122166190Y-91654380D01*
X122070952Y-91702000D01*
X122023333Y-91749619D01*
X121975714Y-91844857D01*
X121928095Y-92035333D01*
X121928095Y-92273428D01*
X121975714Y-92463904D01*
X122023333Y-92559142D01*
X122070952Y-92606761D01*
X122166190Y-92654380D01*
X122261428Y-92654380D01*
X122356666Y-92606761D01*
X122404285Y-92559142D01*
X122451904Y-92463904D01*
X122499523Y-92273428D01*
X122499523Y-92035333D01*
X122451904Y-91844857D01*
X122404285Y-91749619D01*
X122356666Y-91702000D01*
X122261428Y-91654380D01*
%TO.C,R9*%
X128944666Y-92654380D02*
X129278000Y-92178190D01*
X129516095Y-92654380D02*
X129516095Y-91654380D01*
X129135142Y-91654380D01*
X129039904Y-91702000D01*
X128992285Y-91749619D01*
X128944666Y-91844857D01*
X128944666Y-91987714D01*
X128992285Y-92082952D01*
X129039904Y-92130571D01*
X129135142Y-92178190D01*
X129516095Y-92178190D01*
X128468476Y-92654380D02*
X128278000Y-92654380D01*
X128182761Y-92606761D01*
X128135142Y-92559142D01*
X128039904Y-92416285D01*
X127992285Y-92225809D01*
X127992285Y-91844857D01*
X128039904Y-91749619D01*
X128087523Y-91702000D01*
X128182761Y-91654380D01*
X128373238Y-91654380D01*
X128468476Y-91702000D01*
X128516095Y-91749619D01*
X128563714Y-91844857D01*
X128563714Y-92082952D01*
X128516095Y-92178190D01*
X128468476Y-92225809D01*
X128373238Y-92273428D01*
X128182761Y-92273428D01*
X128087523Y-92225809D01*
X128039904Y-92178190D01*
X127992285Y-92082952D01*
%TO.C,R8*%
X125896666Y-74992380D02*
X126230000Y-74516190D01*
X126468095Y-74992380D02*
X126468095Y-73992380D01*
X126087142Y-73992380D01*
X125991904Y-74040000D01*
X125944285Y-74087619D01*
X125896666Y-74182857D01*
X125896666Y-74325714D01*
X125944285Y-74420952D01*
X125991904Y-74468571D01*
X126087142Y-74516190D01*
X126468095Y-74516190D01*
X125325238Y-74420952D02*
X125420476Y-74373333D01*
X125468095Y-74325714D01*
X125515714Y-74230476D01*
X125515714Y-74182857D01*
X125468095Y-74087619D01*
X125420476Y-74040000D01*
X125325238Y-73992380D01*
X125134761Y-73992380D01*
X125039523Y-74040000D01*
X124991904Y-74087619D01*
X124944285Y-74182857D01*
X124944285Y-74230476D01*
X124991904Y-74325714D01*
X125039523Y-74373333D01*
X125134761Y-74420952D01*
X125325238Y-74420952D01*
X125420476Y-74468571D01*
X125468095Y-74516190D01*
X125515714Y-74611428D01*
X125515714Y-74801904D01*
X125468095Y-74897142D01*
X125420476Y-74944761D01*
X125325238Y-74992380D01*
X125134761Y-74992380D01*
X125039523Y-74944761D01*
X124991904Y-74897142D01*
X124944285Y-74801904D01*
X124944285Y-74611428D01*
X124991904Y-74516190D01*
X125039523Y-74468571D01*
X125134761Y-74420952D01*
%TO.C,R7*%
X123356666Y-74992380D02*
X123690000Y-74516190D01*
X123928095Y-74992380D02*
X123928095Y-73992380D01*
X123547142Y-73992380D01*
X123451904Y-74040000D01*
X123404285Y-74087619D01*
X123356666Y-74182857D01*
X123356666Y-74325714D01*
X123404285Y-74420952D01*
X123451904Y-74468571D01*
X123547142Y-74516190D01*
X123928095Y-74516190D01*
X123023333Y-73992380D02*
X122356666Y-73992380D01*
X122785238Y-74992380D01*
%TO.C,R6*%
X120816666Y-74992380D02*
X121150000Y-74516190D01*
X121388095Y-74992380D02*
X121388095Y-73992380D01*
X121007142Y-73992380D01*
X120911904Y-74040000D01*
X120864285Y-74087619D01*
X120816666Y-74182857D01*
X120816666Y-74325714D01*
X120864285Y-74420952D01*
X120911904Y-74468571D01*
X121007142Y-74516190D01*
X121388095Y-74516190D01*
X119959523Y-73992380D02*
X120150000Y-73992380D01*
X120245238Y-74040000D01*
X120292857Y-74087619D01*
X120388095Y-74230476D01*
X120435714Y-74420952D01*
X120435714Y-74801904D01*
X120388095Y-74897142D01*
X120340476Y-74944761D01*
X120245238Y-74992380D01*
X120054761Y-74992380D01*
X119959523Y-74944761D01*
X119911904Y-74897142D01*
X119864285Y-74801904D01*
X119864285Y-74563809D01*
X119911904Y-74468571D01*
X119959523Y-74420952D01*
X120054761Y-74373333D01*
X120245238Y-74373333D01*
X120340476Y-74420952D01*
X120388095Y-74468571D01*
X120435714Y-74563809D01*
%TO.C,R4*%
X88304666Y-105100380D02*
X88638000Y-104624190D01*
X88876095Y-105100380D02*
X88876095Y-104100380D01*
X88495142Y-104100380D01*
X88399904Y-104148000D01*
X88352285Y-104195619D01*
X88304666Y-104290857D01*
X88304666Y-104433714D01*
X88352285Y-104528952D01*
X88399904Y-104576571D01*
X88495142Y-104624190D01*
X88876095Y-104624190D01*
X87447523Y-104433714D02*
X87447523Y-105100380D01*
X87685619Y-104052761D02*
X87923714Y-104767047D01*
X87304666Y-104767047D01*
%TO.C,R3*%
X132246666Y-60904380D02*
X132580000Y-60428190D01*
X132818095Y-60904380D02*
X132818095Y-59904380D01*
X132437142Y-59904380D01*
X132341904Y-59952000D01*
X132294285Y-59999619D01*
X132246666Y-60094857D01*
X132246666Y-60237714D01*
X132294285Y-60332952D01*
X132341904Y-60380571D01*
X132437142Y-60428190D01*
X132818095Y-60428190D01*
X131913333Y-59904380D02*
X131294285Y-59904380D01*
X131627619Y-60285333D01*
X131484761Y-60285333D01*
X131389523Y-60332952D01*
X131341904Y-60380571D01*
X131294285Y-60475809D01*
X131294285Y-60713904D01*
X131341904Y-60809142D01*
X131389523Y-60856761D01*
X131484761Y-60904380D01*
X131770476Y-60904380D01*
X131865714Y-60856761D01*
X131913333Y-60809142D01*
%TO.C,R2*%
X137326666Y-60904380D02*
X137660000Y-60428190D01*
X137898095Y-60904380D02*
X137898095Y-59904380D01*
X137517142Y-59904380D01*
X137421904Y-59952000D01*
X137374285Y-59999619D01*
X137326666Y-60094857D01*
X137326666Y-60237714D01*
X137374285Y-60332952D01*
X137421904Y-60380571D01*
X137517142Y-60428190D01*
X137898095Y-60428190D01*
X136945714Y-59999619D02*
X136898095Y-59952000D01*
X136802857Y-59904380D01*
X136564761Y-59904380D01*
X136469523Y-59952000D01*
X136421904Y-59999619D01*
X136374285Y-60094857D01*
X136374285Y-60190095D01*
X136421904Y-60332952D01*
X136993333Y-60904380D01*
X136374285Y-60904380D01*
%TO.C,R1*%
X86780666Y-91130380D02*
X87114000Y-90654190D01*
X87352095Y-91130380D02*
X87352095Y-90130380D01*
X86971142Y-90130380D01*
X86875904Y-90178000D01*
X86828285Y-90225619D01*
X86780666Y-90320857D01*
X86780666Y-90463714D01*
X86828285Y-90558952D01*
X86875904Y-90606571D01*
X86971142Y-90654190D01*
X87352095Y-90654190D01*
X85828285Y-91130380D02*
X86399714Y-91130380D01*
X86114000Y-91130380D02*
X86114000Y-90130380D01*
X86209238Y-90273238D01*
X86304476Y-90368476D01*
X86399714Y-90416095D01*
%TO.C,J6*%
X80343333Y-75862380D02*
X80343333Y-76576666D01*
X80390952Y-76719523D01*
X80486190Y-76814761D01*
X80629047Y-76862380D01*
X80724285Y-76862380D01*
X79438571Y-75862380D02*
X79629047Y-75862380D01*
X79724285Y-75910000D01*
X79771904Y-75957619D01*
X79867142Y-76100476D01*
X79914761Y-76290952D01*
X79914761Y-76671904D01*
X79867142Y-76767142D01*
X79819523Y-76814761D01*
X79724285Y-76862380D01*
X79533809Y-76862380D01*
X79438571Y-76814761D01*
X79390952Y-76767142D01*
X79343333Y-76671904D01*
X79343333Y-76433809D01*
X79390952Y-76338571D01*
X79438571Y-76290952D01*
X79533809Y-76243333D01*
X79724285Y-76243333D01*
X79819523Y-76290952D01*
X79867142Y-76338571D01*
X79914761Y-76433809D01*
%TO.C,J5*%
X80343333Y-65702380D02*
X80343333Y-66416666D01*
X80390952Y-66559523D01*
X80486190Y-66654761D01*
X80629047Y-66702380D01*
X80724285Y-66702380D01*
X79390952Y-65702380D02*
X79867142Y-65702380D01*
X79914761Y-66178571D01*
X79867142Y-66130952D01*
X79771904Y-66083333D01*
X79533809Y-66083333D01*
X79438571Y-66130952D01*
X79390952Y-66178571D01*
X79343333Y-66273809D01*
X79343333Y-66511904D01*
X79390952Y-66607142D01*
X79438571Y-66654761D01*
X79533809Y-66702380D01*
X79771904Y-66702380D01*
X79867142Y-66654761D01*
X79914761Y-66607142D01*
%TO.C,J4*%
X95456333Y-57872380D02*
X95456333Y-58586666D01*
X95503952Y-58729523D01*
X95599190Y-58824761D01*
X95742047Y-58872380D01*
X95837285Y-58872380D01*
X94551571Y-58205714D02*
X94551571Y-58872380D01*
X94789666Y-57824761D02*
X95027761Y-58539047D01*
X94408714Y-58539047D01*
%TO.C,J3*%
X112093333Y-108672380D02*
X112093333Y-109386666D01*
X112140952Y-109529523D01*
X112236190Y-109624761D01*
X112379047Y-109672380D01*
X112474285Y-109672380D01*
X111712380Y-108672380D02*
X111093333Y-108672380D01*
X111426666Y-109053333D01*
X111283809Y-109053333D01*
X111188571Y-109100952D01*
X111140952Y-109148571D01*
X111093333Y-109243809D01*
X111093333Y-109481904D01*
X111140952Y-109577142D01*
X111188571Y-109624761D01*
X111283809Y-109672380D01*
X111569523Y-109672380D01*
X111664761Y-109624761D01*
X111712380Y-109577142D01*
%TO.C,J2*%
X132159333Y-108672380D02*
X132159333Y-109386666D01*
X132206952Y-109529523D01*
X132302190Y-109624761D01*
X132445047Y-109672380D01*
X132540285Y-109672380D01*
X131730761Y-108767619D02*
X131683142Y-108720000D01*
X131587904Y-108672380D01*
X131349809Y-108672380D01*
X131254571Y-108720000D01*
X131206952Y-108767619D01*
X131159333Y-108862857D01*
X131159333Y-108958095D01*
X131206952Y-109100952D01*
X131778380Y-109672380D01*
X131159333Y-109672380D01*
%TO.C,J1*%
X140541333Y-108672380D02*
X140541333Y-109386666D01*
X140588952Y-109529523D01*
X140684190Y-109624761D01*
X140827047Y-109672380D01*
X140922285Y-109672380D01*
X139541333Y-109672380D02*
X140112761Y-109672380D01*
X139827047Y-109672380D02*
X139827047Y-108672380D01*
X139922285Y-108815238D01*
X140017523Y-108910476D01*
X140112761Y-108958095D01*
%TO.C,FB2*%
X105481333Y-60634571D02*
X105814666Y-60634571D01*
X105814666Y-61158380D02*
X105814666Y-60158380D01*
X105338476Y-60158380D01*
X104624190Y-60634571D02*
X104481333Y-60682190D01*
X104433714Y-60729809D01*
X104386095Y-60825047D01*
X104386095Y-60967904D01*
X104433714Y-61063142D01*
X104481333Y-61110761D01*
X104576571Y-61158380D01*
X104957523Y-61158380D01*
X104957523Y-60158380D01*
X104624190Y-60158380D01*
X104528952Y-60206000D01*
X104481333Y-60253619D01*
X104433714Y-60348857D01*
X104433714Y-60444095D01*
X104481333Y-60539333D01*
X104528952Y-60586952D01*
X104624190Y-60634571D01*
X104957523Y-60634571D01*
X104005142Y-60253619D02*
X103957523Y-60206000D01*
X103862285Y-60158380D01*
X103624190Y-60158380D01*
X103528952Y-60206000D01*
X103481333Y-60253619D01*
X103433714Y-60348857D01*
X103433714Y-60444095D01*
X103481333Y-60586952D01*
X104052761Y-61158380D01*
X103433714Y-61158380D01*
%TO.C,FB1*%
X99004333Y-90588571D02*
X99337666Y-90588571D01*
X99337666Y-91112380D02*
X99337666Y-90112380D01*
X98861476Y-90112380D01*
X98147190Y-90588571D02*
X98004333Y-90636190D01*
X97956714Y-90683809D01*
X97909095Y-90779047D01*
X97909095Y-90921904D01*
X97956714Y-91017142D01*
X98004333Y-91064761D01*
X98099571Y-91112380D01*
X98480523Y-91112380D01*
X98480523Y-90112380D01*
X98147190Y-90112380D01*
X98051952Y-90160000D01*
X98004333Y-90207619D01*
X97956714Y-90302857D01*
X97956714Y-90398095D01*
X98004333Y-90493333D01*
X98051952Y-90540952D01*
X98147190Y-90588571D01*
X98480523Y-90588571D01*
X96956714Y-91112380D02*
X97528142Y-91112380D01*
X97242428Y-91112380D02*
X97242428Y-90112380D01*
X97337666Y-90255238D01*
X97432904Y-90350476D01*
X97528142Y-90398095D01*
%TO.C,D2*%
X97194595Y-62174380D02*
X97194595Y-61174380D01*
X96956500Y-61174380D01*
X96813642Y-61222000D01*
X96718404Y-61317238D01*
X96670785Y-61412476D01*
X96623166Y-61602952D01*
X96623166Y-61745809D01*
X96670785Y-61936285D01*
X96718404Y-62031523D01*
X96813642Y-62126761D01*
X96956500Y-62174380D01*
X97194595Y-62174380D01*
X96242214Y-61269619D02*
X96194595Y-61222000D01*
X96099357Y-61174380D01*
X95861261Y-61174380D01*
X95766023Y-61222000D01*
X95718404Y-61269619D01*
X95670785Y-61364857D01*
X95670785Y-61460095D01*
X95718404Y-61602952D01*
X96289833Y-62174380D01*
X95670785Y-62174380D01*
%TO.C,C26*%
X104782857Y-92559142D02*
X104830476Y-92606761D01*
X104973333Y-92654380D01*
X105068571Y-92654380D01*
X105211428Y-92606761D01*
X105306666Y-92511523D01*
X105354285Y-92416285D01*
X105401904Y-92225809D01*
X105401904Y-92082952D01*
X105354285Y-91892476D01*
X105306666Y-91797238D01*
X105211428Y-91702000D01*
X105068571Y-91654380D01*
X104973333Y-91654380D01*
X104830476Y-91702000D01*
X104782857Y-91749619D01*
X104401904Y-91749619D02*
X104354285Y-91702000D01*
X104259047Y-91654380D01*
X104020952Y-91654380D01*
X103925714Y-91702000D01*
X103878095Y-91749619D01*
X103830476Y-91844857D01*
X103830476Y-91940095D01*
X103878095Y-92082952D01*
X104449523Y-92654380D01*
X103830476Y-92654380D01*
X102973333Y-91654380D02*
X103163809Y-91654380D01*
X103259047Y-91702000D01*
X103306666Y-91749619D01*
X103401904Y-91892476D01*
X103449523Y-92082952D01*
X103449523Y-92463904D01*
X103401904Y-92559142D01*
X103354285Y-92606761D01*
X103259047Y-92654380D01*
X103068571Y-92654380D01*
X102973333Y-92606761D01*
X102925714Y-92559142D01*
X102878095Y-92463904D01*
X102878095Y-92225809D01*
X102925714Y-92130571D01*
X102973333Y-92082952D01*
X103068571Y-92035333D01*
X103259047Y-92035333D01*
X103354285Y-92082952D01*
X103401904Y-92130571D01*
X103449523Y-92225809D01*
%TO.C,C25*%
X116212857Y-92559142D02*
X116260476Y-92606761D01*
X116403333Y-92654380D01*
X116498571Y-92654380D01*
X116641428Y-92606761D01*
X116736666Y-92511523D01*
X116784285Y-92416285D01*
X116831904Y-92225809D01*
X116831904Y-92082952D01*
X116784285Y-91892476D01*
X116736666Y-91797238D01*
X116641428Y-91702000D01*
X116498571Y-91654380D01*
X116403333Y-91654380D01*
X116260476Y-91702000D01*
X116212857Y-91749619D01*
X115831904Y-91749619D02*
X115784285Y-91702000D01*
X115689047Y-91654380D01*
X115450952Y-91654380D01*
X115355714Y-91702000D01*
X115308095Y-91749619D01*
X115260476Y-91844857D01*
X115260476Y-91940095D01*
X115308095Y-92082952D01*
X115879523Y-92654380D01*
X115260476Y-92654380D01*
X114355714Y-91654380D02*
X114831904Y-91654380D01*
X114879523Y-92130571D01*
X114831904Y-92082952D01*
X114736666Y-92035333D01*
X114498571Y-92035333D01*
X114403333Y-92082952D01*
X114355714Y-92130571D01*
X114308095Y-92225809D01*
X114308095Y-92463904D01*
X114355714Y-92559142D01*
X114403333Y-92606761D01*
X114498571Y-92654380D01*
X114736666Y-92654380D01*
X114831904Y-92606761D01*
X114879523Y-92559142D01*
%TO.C,C24*%
X105036857Y-74779142D02*
X105084476Y-74826761D01*
X105227333Y-74874380D01*
X105322571Y-74874380D01*
X105465428Y-74826761D01*
X105560666Y-74731523D01*
X105608285Y-74636285D01*
X105655904Y-74445809D01*
X105655904Y-74302952D01*
X105608285Y-74112476D01*
X105560666Y-74017238D01*
X105465428Y-73922000D01*
X105322571Y-73874380D01*
X105227333Y-73874380D01*
X105084476Y-73922000D01*
X105036857Y-73969619D01*
X104655904Y-73969619D02*
X104608285Y-73922000D01*
X104513047Y-73874380D01*
X104274952Y-73874380D01*
X104179714Y-73922000D01*
X104132095Y-73969619D01*
X104084476Y-74064857D01*
X104084476Y-74160095D01*
X104132095Y-74302952D01*
X104703523Y-74874380D01*
X104084476Y-74874380D01*
X103227333Y-74207714D02*
X103227333Y-74874380D01*
X103465428Y-73826761D02*
X103703523Y-74541047D01*
X103084476Y-74541047D01*
%TO.C,C23*%
X116212857Y-74779142D02*
X116260476Y-74826761D01*
X116403333Y-74874380D01*
X116498571Y-74874380D01*
X116641428Y-74826761D01*
X116736666Y-74731523D01*
X116784285Y-74636285D01*
X116831904Y-74445809D01*
X116831904Y-74302952D01*
X116784285Y-74112476D01*
X116736666Y-74017238D01*
X116641428Y-73922000D01*
X116498571Y-73874380D01*
X116403333Y-73874380D01*
X116260476Y-73922000D01*
X116212857Y-73969619D01*
X115831904Y-73969619D02*
X115784285Y-73922000D01*
X115689047Y-73874380D01*
X115450952Y-73874380D01*
X115355714Y-73922000D01*
X115308095Y-73969619D01*
X115260476Y-74064857D01*
X115260476Y-74160095D01*
X115308095Y-74302952D01*
X115879523Y-74874380D01*
X115260476Y-74874380D01*
X114927142Y-73874380D02*
X114308095Y-73874380D01*
X114641428Y-74255333D01*
X114498571Y-74255333D01*
X114403333Y-74302952D01*
X114355714Y-74350571D01*
X114308095Y-74445809D01*
X114308095Y-74683904D01*
X114355714Y-74779142D01*
X114403333Y-74826761D01*
X114498571Y-74874380D01*
X114784285Y-74874380D01*
X114879523Y-74826761D01*
X114927142Y-74779142D01*
%TO.C,C22*%
X119006857Y-96623142D02*
X119054476Y-96670761D01*
X119197333Y-96718380D01*
X119292571Y-96718380D01*
X119435428Y-96670761D01*
X119530666Y-96575523D01*
X119578285Y-96480285D01*
X119625904Y-96289809D01*
X119625904Y-96146952D01*
X119578285Y-95956476D01*
X119530666Y-95861238D01*
X119435428Y-95766000D01*
X119292571Y-95718380D01*
X119197333Y-95718380D01*
X119054476Y-95766000D01*
X119006857Y-95813619D01*
X118625904Y-95813619D02*
X118578285Y-95766000D01*
X118483047Y-95718380D01*
X118244952Y-95718380D01*
X118149714Y-95766000D01*
X118102095Y-95813619D01*
X118054476Y-95908857D01*
X118054476Y-96004095D01*
X118102095Y-96146952D01*
X118673523Y-96718380D01*
X118054476Y-96718380D01*
X117673523Y-95813619D02*
X117625904Y-95766000D01*
X117530666Y-95718380D01*
X117292571Y-95718380D01*
X117197333Y-95766000D01*
X117149714Y-95813619D01*
X117102095Y-95908857D01*
X117102095Y-96004095D01*
X117149714Y-96146952D01*
X117721142Y-96718380D01*
X117102095Y-96718380D01*
%TO.C,C21*%
X104782857Y-81129142D02*
X104830476Y-81176761D01*
X104973333Y-81224380D01*
X105068571Y-81224380D01*
X105211428Y-81176761D01*
X105306666Y-81081523D01*
X105354285Y-80986285D01*
X105401904Y-80795809D01*
X105401904Y-80652952D01*
X105354285Y-80462476D01*
X105306666Y-80367238D01*
X105211428Y-80272000D01*
X105068571Y-80224380D01*
X104973333Y-80224380D01*
X104830476Y-80272000D01*
X104782857Y-80319619D01*
X104401904Y-80319619D02*
X104354285Y-80272000D01*
X104259047Y-80224380D01*
X104020952Y-80224380D01*
X103925714Y-80272000D01*
X103878095Y-80319619D01*
X103830476Y-80414857D01*
X103830476Y-80510095D01*
X103878095Y-80652952D01*
X104449523Y-81224380D01*
X103830476Y-81224380D01*
X102878095Y-81224380D02*
X103449523Y-81224380D01*
X103163809Y-81224380D02*
X103163809Y-80224380D01*
X103259047Y-80367238D01*
X103354285Y-80462476D01*
X103449523Y-80510095D01*
%TO.C,C20*%
X94876857Y-66143142D02*
X94924476Y-66190761D01*
X95067333Y-66238380D01*
X95162571Y-66238380D01*
X95305428Y-66190761D01*
X95400666Y-66095523D01*
X95448285Y-66000285D01*
X95495904Y-65809809D01*
X95495904Y-65666952D01*
X95448285Y-65476476D01*
X95400666Y-65381238D01*
X95305428Y-65286000D01*
X95162571Y-65238380D01*
X95067333Y-65238380D01*
X94924476Y-65286000D01*
X94876857Y-65333619D01*
X94495904Y-65333619D02*
X94448285Y-65286000D01*
X94353047Y-65238380D01*
X94114952Y-65238380D01*
X94019714Y-65286000D01*
X93972095Y-65333619D01*
X93924476Y-65428857D01*
X93924476Y-65524095D01*
X93972095Y-65666952D01*
X94543523Y-66238380D01*
X93924476Y-66238380D01*
X93305428Y-65238380D02*
X93210190Y-65238380D01*
X93114952Y-65286000D01*
X93067333Y-65333619D01*
X93019714Y-65428857D01*
X92972095Y-65619333D01*
X92972095Y-65857428D01*
X93019714Y-66047904D01*
X93067333Y-66143142D01*
X93114952Y-66190761D01*
X93210190Y-66238380D01*
X93305428Y-66238380D01*
X93400666Y-66190761D01*
X93448285Y-66143142D01*
X93495904Y-66047904D01*
X93543523Y-65857428D01*
X93543523Y-65619333D01*
X93495904Y-65428857D01*
X93448285Y-65333619D01*
X93400666Y-65286000D01*
X93305428Y-65238380D01*
%TO.C,C19*%
X114942857Y-81129142D02*
X114990476Y-81176761D01*
X115133333Y-81224380D01*
X115228571Y-81224380D01*
X115371428Y-81176761D01*
X115466666Y-81081523D01*
X115514285Y-80986285D01*
X115561904Y-80795809D01*
X115561904Y-80652952D01*
X115514285Y-80462476D01*
X115466666Y-80367238D01*
X115371428Y-80272000D01*
X115228571Y-80224380D01*
X115133333Y-80224380D01*
X114990476Y-80272000D01*
X114942857Y-80319619D01*
X113990476Y-81224380D02*
X114561904Y-81224380D01*
X114276190Y-81224380D02*
X114276190Y-80224380D01*
X114371428Y-80367238D01*
X114466666Y-80462476D01*
X114561904Y-80510095D01*
X113514285Y-81224380D02*
X113323809Y-81224380D01*
X113228571Y-81176761D01*
X113180952Y-81129142D01*
X113085714Y-80986285D01*
X113038095Y-80795809D01*
X113038095Y-80414857D01*
X113085714Y-80319619D01*
X113133333Y-80272000D01*
X113228571Y-80224380D01*
X113419047Y-80224380D01*
X113514285Y-80272000D01*
X113561904Y-80319619D01*
X113609523Y-80414857D01*
X113609523Y-80652952D01*
X113561904Y-80748190D01*
X113514285Y-80795809D01*
X113419047Y-80843428D01*
X113228571Y-80843428D01*
X113133333Y-80795809D01*
X113085714Y-80748190D01*
X113038095Y-80652952D01*
%TO.C,C18*%
X128404857Y-81138142D02*
X128452476Y-81185761D01*
X128595333Y-81233380D01*
X128690571Y-81233380D01*
X128833428Y-81185761D01*
X128928666Y-81090523D01*
X128976285Y-80995285D01*
X129023904Y-80804809D01*
X129023904Y-80661952D01*
X128976285Y-80471476D01*
X128928666Y-80376238D01*
X128833428Y-80281000D01*
X128690571Y-80233380D01*
X128595333Y-80233380D01*
X128452476Y-80281000D01*
X128404857Y-80328619D01*
X127452476Y-81233380D02*
X128023904Y-81233380D01*
X127738190Y-81233380D02*
X127738190Y-80233380D01*
X127833428Y-80376238D01*
X127928666Y-80471476D01*
X128023904Y-80519095D01*
X126881047Y-80661952D02*
X126976285Y-80614333D01*
X127023904Y-80566714D01*
X127071523Y-80471476D01*
X127071523Y-80423857D01*
X127023904Y-80328619D01*
X126976285Y-80281000D01*
X126881047Y-80233380D01*
X126690571Y-80233380D01*
X126595333Y-80281000D01*
X126547714Y-80328619D01*
X126500095Y-80423857D01*
X126500095Y-80471476D01*
X126547714Y-80566714D01*
X126595333Y-80614333D01*
X126690571Y-80661952D01*
X126881047Y-80661952D01*
X126976285Y-80709571D01*
X127023904Y-80757190D01*
X127071523Y-80852428D01*
X127071523Y-81042904D01*
X127023904Y-81138142D01*
X126976285Y-81185761D01*
X126881047Y-81233380D01*
X126690571Y-81233380D01*
X126595333Y-81185761D01*
X126547714Y-81138142D01*
X126500095Y-81042904D01*
X126500095Y-80852428D01*
X126547714Y-80757190D01*
X126595333Y-80709571D01*
X126690571Y-80661952D01*
%TO.C,C17*%
X105290857Y-66651142D02*
X105338476Y-66698761D01*
X105481333Y-66746380D01*
X105576571Y-66746380D01*
X105719428Y-66698761D01*
X105814666Y-66603523D01*
X105862285Y-66508285D01*
X105909904Y-66317809D01*
X105909904Y-66174952D01*
X105862285Y-65984476D01*
X105814666Y-65889238D01*
X105719428Y-65794000D01*
X105576571Y-65746380D01*
X105481333Y-65746380D01*
X105338476Y-65794000D01*
X105290857Y-65841619D01*
X104338476Y-66746380D02*
X104909904Y-66746380D01*
X104624190Y-66746380D02*
X104624190Y-65746380D01*
X104719428Y-65889238D01*
X104814666Y-65984476D01*
X104909904Y-66032095D01*
X104005142Y-65746380D02*
X103338476Y-65746380D01*
X103767047Y-66746380D01*
%TO.C,C16*%
X117990857Y-81129142D02*
X118038476Y-81176761D01*
X118181333Y-81224380D01*
X118276571Y-81224380D01*
X118419428Y-81176761D01*
X118514666Y-81081523D01*
X118562285Y-80986285D01*
X118609904Y-80795809D01*
X118609904Y-80652952D01*
X118562285Y-80462476D01*
X118514666Y-80367238D01*
X118419428Y-80272000D01*
X118276571Y-80224380D01*
X118181333Y-80224380D01*
X118038476Y-80272000D01*
X117990857Y-80319619D01*
X117038476Y-81224380D02*
X117609904Y-81224380D01*
X117324190Y-81224380D02*
X117324190Y-80224380D01*
X117419428Y-80367238D01*
X117514666Y-80462476D01*
X117609904Y-80510095D01*
X116181333Y-80224380D02*
X116371809Y-80224380D01*
X116467047Y-80272000D01*
X116514666Y-80319619D01*
X116609904Y-80462476D01*
X116657523Y-80652952D01*
X116657523Y-81033904D01*
X116609904Y-81129142D01*
X116562285Y-81176761D01*
X116467047Y-81224380D01*
X116276571Y-81224380D01*
X116181333Y-81176761D01*
X116133714Y-81129142D01*
X116086095Y-81033904D01*
X116086095Y-80795809D01*
X116133714Y-80700571D01*
X116181333Y-80652952D01*
X116276571Y-80605333D01*
X116467047Y-80605333D01*
X116562285Y-80652952D01*
X116609904Y-80700571D01*
X116657523Y-80795809D01*
%TO.C,C15*%
X109735857Y-98147142D02*
X109783476Y-98194761D01*
X109926333Y-98242380D01*
X110021571Y-98242380D01*
X110164428Y-98194761D01*
X110259666Y-98099523D01*
X110307285Y-98004285D01*
X110354904Y-97813809D01*
X110354904Y-97670952D01*
X110307285Y-97480476D01*
X110259666Y-97385238D01*
X110164428Y-97290000D01*
X110021571Y-97242380D01*
X109926333Y-97242380D01*
X109783476Y-97290000D01*
X109735857Y-97337619D01*
X108783476Y-98242380D02*
X109354904Y-98242380D01*
X109069190Y-98242380D02*
X109069190Y-97242380D01*
X109164428Y-97385238D01*
X109259666Y-97480476D01*
X109354904Y-97528095D01*
X107878714Y-97242380D02*
X108354904Y-97242380D01*
X108402523Y-97718571D01*
X108354904Y-97670952D01*
X108259666Y-97623333D01*
X108021571Y-97623333D01*
X107926333Y-97670952D01*
X107878714Y-97718571D01*
X107831095Y-97813809D01*
X107831095Y-98051904D01*
X107878714Y-98147142D01*
X107926333Y-98194761D01*
X108021571Y-98242380D01*
X108259666Y-98242380D01*
X108354904Y-98194761D01*
X108402523Y-98147142D01*
%TO.C,C14*%
X85986857Y-99417142D02*
X86034476Y-99464761D01*
X86177333Y-99512380D01*
X86272571Y-99512380D01*
X86415428Y-99464761D01*
X86510666Y-99369523D01*
X86558285Y-99274285D01*
X86605904Y-99083809D01*
X86605904Y-98940952D01*
X86558285Y-98750476D01*
X86510666Y-98655238D01*
X86415428Y-98560000D01*
X86272571Y-98512380D01*
X86177333Y-98512380D01*
X86034476Y-98560000D01*
X85986857Y-98607619D01*
X85034476Y-99512380D02*
X85605904Y-99512380D01*
X85320190Y-99512380D02*
X85320190Y-98512380D01*
X85415428Y-98655238D01*
X85510666Y-98750476D01*
X85605904Y-98798095D01*
X84177333Y-98845714D02*
X84177333Y-99512380D01*
X84415428Y-98464761D02*
X84653523Y-99179047D01*
X84034476Y-99179047D01*
%TO.C,C13*%
X93098857Y-91044142D02*
X93146476Y-91091761D01*
X93289333Y-91139380D01*
X93384571Y-91139380D01*
X93527428Y-91091761D01*
X93622666Y-90996523D01*
X93670285Y-90901285D01*
X93717904Y-90710809D01*
X93717904Y-90567952D01*
X93670285Y-90377476D01*
X93622666Y-90282238D01*
X93527428Y-90187000D01*
X93384571Y-90139380D01*
X93289333Y-90139380D01*
X93146476Y-90187000D01*
X93098857Y-90234619D01*
X92146476Y-91139380D02*
X92717904Y-91139380D01*
X92432190Y-91139380D02*
X92432190Y-90139380D01*
X92527428Y-90282238D01*
X92622666Y-90377476D01*
X92717904Y-90425095D01*
X91813142Y-90139380D02*
X91194095Y-90139380D01*
X91527428Y-90520333D01*
X91384571Y-90520333D01*
X91289333Y-90567952D01*
X91241714Y-90615571D01*
X91194095Y-90710809D01*
X91194095Y-90948904D01*
X91241714Y-91044142D01*
X91289333Y-91091761D01*
X91384571Y-91139380D01*
X91670285Y-91139380D01*
X91765523Y-91091761D01*
X91813142Y-91044142D01*
%TO.C,C12*%
X88780857Y-99417142D02*
X88828476Y-99464761D01*
X88971333Y-99512380D01*
X89066571Y-99512380D01*
X89209428Y-99464761D01*
X89304666Y-99369523D01*
X89352285Y-99274285D01*
X89399904Y-99083809D01*
X89399904Y-98940952D01*
X89352285Y-98750476D01*
X89304666Y-98655238D01*
X89209428Y-98560000D01*
X89066571Y-98512380D01*
X88971333Y-98512380D01*
X88828476Y-98560000D01*
X88780857Y-98607619D01*
X87828476Y-99512380D02*
X88399904Y-99512380D01*
X88114190Y-99512380D02*
X88114190Y-98512380D01*
X88209428Y-98655238D01*
X88304666Y-98750476D01*
X88399904Y-98798095D01*
X87447523Y-98607619D02*
X87399904Y-98560000D01*
X87304666Y-98512380D01*
X87066571Y-98512380D01*
X86971333Y-98560000D01*
X86923714Y-98607619D01*
X86876095Y-98702857D01*
X86876095Y-98798095D01*
X86923714Y-98940952D01*
X87495142Y-99512380D01*
X86876095Y-99512380D01*
%TO.C,C11*%
X96019857Y-91035142D02*
X96067476Y-91082761D01*
X96210333Y-91130380D01*
X96305571Y-91130380D01*
X96448428Y-91082761D01*
X96543666Y-90987523D01*
X96591285Y-90892285D01*
X96638904Y-90701809D01*
X96638904Y-90558952D01*
X96591285Y-90368476D01*
X96543666Y-90273238D01*
X96448428Y-90178000D01*
X96305571Y-90130380D01*
X96210333Y-90130380D01*
X96067476Y-90178000D01*
X96019857Y-90225619D01*
X95067476Y-91130380D02*
X95638904Y-91130380D01*
X95353190Y-91130380D02*
X95353190Y-90130380D01*
X95448428Y-90273238D01*
X95543666Y-90368476D01*
X95638904Y-90416095D01*
X94115095Y-91130380D02*
X94686523Y-91130380D01*
X94400809Y-91130380D02*
X94400809Y-90130380D01*
X94496047Y-90273238D01*
X94591285Y-90368476D01*
X94686523Y-90416095D01*
%TO.C,C10*%
X103766857Y-98147142D02*
X103814476Y-98194761D01*
X103957333Y-98242380D01*
X104052571Y-98242380D01*
X104195428Y-98194761D01*
X104290666Y-98099523D01*
X104338285Y-98004285D01*
X104385904Y-97813809D01*
X104385904Y-97670952D01*
X104338285Y-97480476D01*
X104290666Y-97385238D01*
X104195428Y-97290000D01*
X104052571Y-97242380D01*
X103957333Y-97242380D01*
X103814476Y-97290000D01*
X103766857Y-97337619D01*
X102814476Y-98242380D02*
X103385904Y-98242380D01*
X103100190Y-98242380D02*
X103100190Y-97242380D01*
X103195428Y-97385238D01*
X103290666Y-97480476D01*
X103385904Y-97528095D01*
X102195428Y-97242380D02*
X102100190Y-97242380D01*
X102004952Y-97290000D01*
X101957333Y-97337619D01*
X101909714Y-97432857D01*
X101862095Y-97623333D01*
X101862095Y-97861428D01*
X101909714Y-98051904D01*
X101957333Y-98147142D01*
X102004952Y-98194761D01*
X102100190Y-98242380D01*
X102195428Y-98242380D01*
X102290666Y-98194761D01*
X102338285Y-98147142D01*
X102385904Y-98051904D01*
X102433523Y-97861428D01*
X102433523Y-97623333D01*
X102385904Y-97432857D01*
X102338285Y-97337619D01*
X102290666Y-97290000D01*
X102195428Y-97242380D01*
%TO.C,C9*%
X106338666Y-98147142D02*
X106386285Y-98194761D01*
X106529142Y-98242380D01*
X106624380Y-98242380D01*
X106767238Y-98194761D01*
X106862476Y-98099523D01*
X106910095Y-98004285D01*
X106957714Y-97813809D01*
X106957714Y-97670952D01*
X106910095Y-97480476D01*
X106862476Y-97385238D01*
X106767238Y-97290000D01*
X106624380Y-97242380D01*
X106529142Y-97242380D01*
X106386285Y-97290000D01*
X106338666Y-97337619D01*
X105862476Y-98242380D02*
X105672000Y-98242380D01*
X105576761Y-98194761D01*
X105529142Y-98147142D01*
X105433904Y-98004285D01*
X105386285Y-97813809D01*
X105386285Y-97432857D01*
X105433904Y-97337619D01*
X105481523Y-97290000D01*
X105576761Y-97242380D01*
X105767238Y-97242380D01*
X105862476Y-97290000D01*
X105910095Y-97337619D01*
X105957714Y-97432857D01*
X105957714Y-97670952D01*
X105910095Y-97766190D01*
X105862476Y-97813809D01*
X105767238Y-97861428D01*
X105576761Y-97861428D01*
X105481523Y-97813809D01*
X105433904Y-97766190D01*
X105386285Y-97670952D01*
%TO.C,C7*%
X126150666Y-92559142D02*
X126198285Y-92606761D01*
X126341142Y-92654380D01*
X126436380Y-92654380D01*
X126579238Y-92606761D01*
X126674476Y-92511523D01*
X126722095Y-92416285D01*
X126769714Y-92225809D01*
X126769714Y-92082952D01*
X126722095Y-91892476D01*
X126674476Y-91797238D01*
X126579238Y-91702000D01*
X126436380Y-91654380D01*
X126341142Y-91654380D01*
X126198285Y-91702000D01*
X126150666Y-91749619D01*
X125817333Y-91654380D02*
X125150666Y-91654380D01*
X125579238Y-92654380D01*
%TO.C,C6*%
X120562666Y-92559142D02*
X120610285Y-92606761D01*
X120753142Y-92654380D01*
X120848380Y-92654380D01*
X120991238Y-92606761D01*
X121086476Y-92511523D01*
X121134095Y-92416285D01*
X121181714Y-92225809D01*
X121181714Y-92082952D01*
X121134095Y-91892476D01*
X121086476Y-91797238D01*
X120991238Y-91702000D01*
X120848380Y-91654380D01*
X120753142Y-91654380D01*
X120610285Y-91702000D01*
X120562666Y-91749619D01*
X119705523Y-91654380D02*
X119896000Y-91654380D01*
X119991238Y-91702000D01*
X120038857Y-91749619D01*
X120134095Y-91892476D01*
X120181714Y-92082952D01*
X120181714Y-92463904D01*
X120134095Y-92559142D01*
X120086476Y-92606761D01*
X119991238Y-92654380D01*
X119800761Y-92654380D01*
X119705523Y-92606761D01*
X119657904Y-92559142D01*
X119610285Y-92463904D01*
X119610285Y-92225809D01*
X119657904Y-92130571D01*
X119705523Y-92082952D01*
X119800761Y-92035333D01*
X119991238Y-92035333D01*
X120086476Y-92082952D01*
X120134095Y-92130571D01*
X120181714Y-92225809D01*
%TO.C,C5*%
X128436666Y-74897142D02*
X128484285Y-74944761D01*
X128627142Y-74992380D01*
X128722380Y-74992380D01*
X128865238Y-74944761D01*
X128960476Y-74849523D01*
X129008095Y-74754285D01*
X129055714Y-74563809D01*
X129055714Y-74420952D01*
X129008095Y-74230476D01*
X128960476Y-74135238D01*
X128865238Y-74040000D01*
X128722380Y-73992380D01*
X128627142Y-73992380D01*
X128484285Y-74040000D01*
X128436666Y-74087619D01*
X127531904Y-73992380D02*
X128008095Y-73992380D01*
X128055714Y-74468571D01*
X128008095Y-74420952D01*
X127912857Y-74373333D01*
X127674761Y-74373333D01*
X127579523Y-74420952D01*
X127531904Y-74468571D01*
X127484285Y-74563809D01*
X127484285Y-74801904D01*
X127531904Y-74897142D01*
X127579523Y-74944761D01*
X127674761Y-74992380D01*
X127912857Y-74992380D01*
X128008095Y-74944761D01*
X128055714Y-74897142D01*
%TO.C,C3*%
X89701666Y-91017142D02*
X89749285Y-91064761D01*
X89892142Y-91112380D01*
X89987380Y-91112380D01*
X90130238Y-91064761D01*
X90225476Y-90969523D01*
X90273095Y-90874285D01*
X90320714Y-90683809D01*
X90320714Y-90540952D01*
X90273095Y-90350476D01*
X90225476Y-90255238D01*
X90130238Y-90160000D01*
X89987380Y-90112380D01*
X89892142Y-90112380D01*
X89749285Y-90160000D01*
X89701666Y-90207619D01*
X89368333Y-90112380D02*
X88749285Y-90112380D01*
X89082619Y-90493333D01*
X88939761Y-90493333D01*
X88844523Y-90540952D01*
X88796904Y-90588571D01*
X88749285Y-90683809D01*
X88749285Y-90921904D01*
X88796904Y-91017142D01*
X88844523Y-91064761D01*
X88939761Y-91112380D01*
X89225476Y-91112380D01*
X89320714Y-91064761D01*
X89368333Y-91017142D01*
%TO.C,C2*%
X81065666Y-86209142D02*
X81113285Y-86256761D01*
X81256142Y-86304380D01*
X81351380Y-86304380D01*
X81494238Y-86256761D01*
X81589476Y-86161523D01*
X81637095Y-86066285D01*
X81684714Y-85875809D01*
X81684714Y-85732952D01*
X81637095Y-85542476D01*
X81589476Y-85447238D01*
X81494238Y-85352000D01*
X81351380Y-85304380D01*
X81256142Y-85304380D01*
X81113285Y-85352000D01*
X81065666Y-85399619D01*
X80684714Y-85399619D02*
X80637095Y-85352000D01*
X80541857Y-85304380D01*
X80303761Y-85304380D01*
X80208523Y-85352000D01*
X80160904Y-85399619D01*
X80113285Y-85494857D01*
X80113285Y-85590095D01*
X80160904Y-85732952D01*
X80732333Y-86304380D01*
X80113285Y-86304380D01*
%TO.C,C1*%
X81056666Y-102719142D02*
X81104285Y-102766761D01*
X81247142Y-102814380D01*
X81342380Y-102814380D01*
X81485238Y-102766761D01*
X81580476Y-102671523D01*
X81628095Y-102576285D01*
X81675714Y-102385809D01*
X81675714Y-102242952D01*
X81628095Y-102052476D01*
X81580476Y-101957238D01*
X81485238Y-101862000D01*
X81342380Y-101814380D01*
X81247142Y-101814380D01*
X81104285Y-101862000D01*
X81056666Y-101909619D01*
X80104285Y-102814380D02*
X80675714Y-102814380D01*
X80390000Y-102814380D02*
X80390000Y-101814380D01*
X80485238Y-101957238D01*
X80580476Y-102052476D01*
X80675714Y-102100095D01*
%TD*%
M02*
