%TF.GenerationSoftware,KiCad,Pcbnew,5.1.6-c6e7f7d~87~ubuntu18.04.1*%
%TF.CreationDate,2020-08-18T12:52:04-04:00*%
%TF.ProjectId,bit_crusher_pedal,6269745f-6372-4757-9368-65725f706564,1*%
%TF.SameCoordinates,Original*%
%TF.FileFunction,Legend,Top*%
%TF.FilePolarity,Positive*%
%FSLAX46Y46*%
G04 Gerber Fmt 4.6, Leading zero omitted, Abs format (unit mm)*
G04 Created by KiCad (PCBNEW 5.1.6-c6e7f7d~87~ubuntu18.04.1) date 2020-08-18 12:52:04*
%MOMM*%
%LPD*%
G01*
G04 APERTURE LIST*
%ADD10C,0.120000*%
%ADD11C,0.150000*%
G04 APERTURE END LIST*
D10*
%TO.C,RV3*%
X121710000Y-53570000D02*
X111970000Y-53570000D01*
X121710000Y-65160000D02*
X120220000Y-65160000D01*
X121710000Y-56630000D02*
X121710000Y-53570000D01*
X111960000Y-65160000D02*
X111960000Y-60440000D01*
X111970000Y-56630000D02*
X111970000Y-53570000D01*
X121710000Y-65160000D02*
X121710000Y-60440000D01*
X113150000Y-65160000D02*
X111970000Y-65160000D01*
X116050000Y-65160000D02*
X115520000Y-65160000D01*
X118500000Y-65160000D02*
X117670000Y-65160000D01*
%TO.C,RV2*%
X91230000Y-53570000D02*
X81490000Y-53570000D01*
X91230000Y-65160000D02*
X89740000Y-65160000D01*
X91230000Y-56630000D02*
X91230000Y-53570000D01*
X81480000Y-65160000D02*
X81480000Y-60440000D01*
X81490000Y-56630000D02*
X81490000Y-53570000D01*
X91230000Y-65160000D02*
X91230000Y-60440000D01*
X82670000Y-65160000D02*
X81490000Y-65160000D01*
X85570000Y-65160000D02*
X85040000Y-65160000D01*
X88020000Y-65160000D02*
X87190000Y-65160000D01*
%TO.C,RV1*%
X152190000Y-53570000D02*
X142450000Y-53570000D01*
X152190000Y-65160000D02*
X150700000Y-65160000D01*
X152190000Y-56630000D02*
X152190000Y-53570000D01*
X142440000Y-65160000D02*
X142440000Y-60440000D01*
X142450000Y-56630000D02*
X142450000Y-53570000D01*
X152190000Y-65160000D02*
X152190000Y-60440000D01*
X143630000Y-65160000D02*
X142450000Y-65160000D01*
X146530000Y-65160000D02*
X146000000Y-65160000D01*
X148980000Y-65160000D02*
X148150000Y-65160000D01*
%TO.C,D1*%
X136180000Y-59656000D02*
X136180000Y-59500000D01*
X136180000Y-57340000D02*
X136180000Y-57184000D01*
X133578870Y-57340163D02*
G75*
G02*
X135660961Y-57340000I1041130J-1079837D01*
G01*
X133578870Y-59499837D02*
G75*
G03*
X135660961Y-59500000I1041130J1079837D01*
G01*
X132947665Y-57341392D02*
G75*
G02*
X136180000Y-57184484I1672335J-1078608D01*
G01*
X132947665Y-59498608D02*
G75*
G03*
X136180000Y-59655516I1672335J1078608D01*
G01*
%TO.C,RV3*%
D11*
X116244761Y-53284380D02*
X115911428Y-52808190D01*
X115673333Y-53284380D02*
X115673333Y-52284380D01*
X116054285Y-52284380D01*
X116149523Y-52332000D01*
X116197142Y-52379619D01*
X116244761Y-52474857D01*
X116244761Y-52617714D01*
X116197142Y-52712952D01*
X116149523Y-52760571D01*
X116054285Y-52808190D01*
X115673333Y-52808190D01*
X116530476Y-52284380D02*
X116863809Y-53284380D01*
X117197142Y-52284380D01*
X117435238Y-52284380D02*
X118054285Y-52284380D01*
X117720952Y-52665333D01*
X117863809Y-52665333D01*
X117959047Y-52712952D01*
X118006666Y-52760571D01*
X118054285Y-52855809D01*
X118054285Y-53093904D01*
X118006666Y-53189142D01*
X117959047Y-53236761D01*
X117863809Y-53284380D01*
X117578095Y-53284380D01*
X117482857Y-53236761D01*
X117435238Y-53189142D01*
%TO.C,RV2*%
X85764761Y-53284380D02*
X85431428Y-52808190D01*
X85193333Y-53284380D02*
X85193333Y-52284380D01*
X85574285Y-52284380D01*
X85669523Y-52332000D01*
X85717142Y-52379619D01*
X85764761Y-52474857D01*
X85764761Y-52617714D01*
X85717142Y-52712952D01*
X85669523Y-52760571D01*
X85574285Y-52808190D01*
X85193333Y-52808190D01*
X86050476Y-52284380D02*
X86383809Y-53284380D01*
X86717142Y-52284380D01*
X87002857Y-52379619D02*
X87050476Y-52332000D01*
X87145714Y-52284380D01*
X87383809Y-52284380D01*
X87479047Y-52332000D01*
X87526666Y-52379619D01*
X87574285Y-52474857D01*
X87574285Y-52570095D01*
X87526666Y-52712952D01*
X86955238Y-53284380D01*
X87574285Y-53284380D01*
%TO.C,RV1*%
X146724761Y-53284380D02*
X146391428Y-52808190D01*
X146153333Y-53284380D02*
X146153333Y-52284380D01*
X146534285Y-52284380D01*
X146629523Y-52332000D01*
X146677142Y-52379619D01*
X146724761Y-52474857D01*
X146724761Y-52617714D01*
X146677142Y-52712952D01*
X146629523Y-52760571D01*
X146534285Y-52808190D01*
X146153333Y-52808190D01*
X147010476Y-52284380D02*
X147343809Y-53284380D01*
X147677142Y-52284380D01*
X148534285Y-53284380D02*
X147962857Y-53284380D01*
X148248571Y-53284380D02*
X148248571Y-52284380D01*
X148153333Y-52427238D01*
X148058095Y-52522476D01*
X147962857Y-52570095D01*
%TO.C,D1*%
X133881904Y-61832380D02*
X133881904Y-60832380D01*
X134120000Y-60832380D01*
X134262857Y-60880000D01*
X134358095Y-60975238D01*
X134405714Y-61070476D01*
X134453333Y-61260952D01*
X134453333Y-61403809D01*
X134405714Y-61594285D01*
X134358095Y-61689523D01*
X134262857Y-61784761D01*
X134120000Y-61832380D01*
X133881904Y-61832380D01*
X135405714Y-61832380D02*
X134834285Y-61832380D01*
X135120000Y-61832380D02*
X135120000Y-60832380D01*
X135024761Y-60975238D01*
X134929523Y-61070476D01*
X134834285Y-61118095D01*
%TD*%
M02*
