%TF.GenerationSoftware,KiCad,Pcbnew,5.1.6-c6e7f7d~87~ubuntu18.04.1*%
%TF.CreationDate,2020-08-18T12:52:04-04:00*%
%TF.ProjectId,bit_crusher_pedal,6269745f-6372-4757-9368-65725f706564,1*%
%TF.SameCoordinates,Original*%
%TF.FileFunction,Paste,Bot*%
%TF.FilePolarity,Positive*%
%FSLAX46Y46*%
G04 Gerber Fmt 4.6, Leading zero omitted, Abs format (unit mm)*
G04 Created by KiCad (PCBNEW 5.1.6-c6e7f7d~87~ubuntu18.04.1) date 2020-08-18 12:52:04*
%MOMM*%
%LPD*%
G01*
G04 APERTURE LIST*
%ADD10R,1.900000X0.800000*%
%ADD11R,1.500000X2.000000*%
%ADD12R,3.800000X2.000000*%
%ADD13R,0.900000X1.200000*%
G04 APERTURE END LIST*
%TO.C,R34*%
G36*
G01*
X152850001Y-99871000D02*
X151949999Y-99871000D01*
G75*
G02*
X151700000Y-99621001I0J249999D01*
G01*
X151700000Y-98970999D01*
G75*
G02*
X151949999Y-98721000I249999J0D01*
G01*
X152850001Y-98721000D01*
G75*
G02*
X153100000Y-98970999I0J-249999D01*
G01*
X153100000Y-99621001D01*
G75*
G02*
X152850001Y-99871000I-249999J0D01*
G01*
G37*
G36*
G01*
X152850001Y-101921000D02*
X151949999Y-101921000D01*
G75*
G02*
X151700000Y-101671001I0J249999D01*
G01*
X151700000Y-101020999D01*
G75*
G02*
X151949999Y-100771000I249999J0D01*
G01*
X152850001Y-100771000D01*
G75*
G02*
X153100000Y-101020999I0J-249999D01*
G01*
X153100000Y-101671001D01*
G75*
G02*
X152850001Y-101921000I-249999J0D01*
G01*
G37*
%TD*%
%TO.C,R33*%
G36*
G01*
X148639000Y-100895999D02*
X148639000Y-101796001D01*
G75*
G02*
X148389001Y-102046000I-249999J0D01*
G01*
X147738999Y-102046000D01*
G75*
G02*
X147489000Y-101796001I0J249999D01*
G01*
X147489000Y-100895999D01*
G75*
G02*
X147738999Y-100646000I249999J0D01*
G01*
X148389001Y-100646000D01*
G75*
G02*
X148639000Y-100895999I0J-249999D01*
G01*
G37*
G36*
G01*
X150689000Y-100895999D02*
X150689000Y-101796001D01*
G75*
G02*
X150439001Y-102046000I-249999J0D01*
G01*
X149788999Y-102046000D01*
G75*
G02*
X149539000Y-101796001I0J249999D01*
G01*
X149539000Y-100895999D01*
G75*
G02*
X149788999Y-100646000I249999J0D01*
G01*
X150439001Y-100646000D01*
G75*
G02*
X150689000Y-100895999I0J-249999D01*
G01*
G37*
%TD*%
%TO.C,R32*%
G36*
G01*
X147761000Y-95192001D02*
X147761000Y-94291999D01*
G75*
G02*
X148010999Y-94042000I249999J0D01*
G01*
X148661001Y-94042000D01*
G75*
G02*
X148911000Y-94291999I0J-249999D01*
G01*
X148911000Y-95192001D01*
G75*
G02*
X148661001Y-95442000I-249999J0D01*
G01*
X148010999Y-95442000D01*
G75*
G02*
X147761000Y-95192001I0J249999D01*
G01*
G37*
G36*
G01*
X145711000Y-95192001D02*
X145711000Y-94291999D01*
G75*
G02*
X145960999Y-94042000I249999J0D01*
G01*
X146611001Y-94042000D01*
G75*
G02*
X146861000Y-94291999I0J-249999D01*
G01*
X146861000Y-95192001D01*
G75*
G02*
X146611001Y-95442000I-249999J0D01*
G01*
X145960999Y-95442000D01*
G75*
G02*
X145711000Y-95192001I0J249999D01*
G01*
G37*
%TD*%
%TO.C,R31*%
G36*
G01*
X142035000Y-100895999D02*
X142035000Y-101796001D01*
G75*
G02*
X141785001Y-102046000I-249999J0D01*
G01*
X141134999Y-102046000D01*
G75*
G02*
X140885000Y-101796001I0J249999D01*
G01*
X140885000Y-100895999D01*
G75*
G02*
X141134999Y-100646000I249999J0D01*
G01*
X141785001Y-100646000D01*
G75*
G02*
X142035000Y-100895999I0J-249999D01*
G01*
G37*
G36*
G01*
X144085000Y-100895999D02*
X144085000Y-101796001D01*
G75*
G02*
X143835001Y-102046000I-249999J0D01*
G01*
X143184999Y-102046000D01*
G75*
G02*
X142935000Y-101796001I0J249999D01*
G01*
X142935000Y-100895999D01*
G75*
G02*
X143184999Y-100646000I249999J0D01*
G01*
X143835001Y-100646000D01*
G75*
G02*
X144085000Y-100895999I0J-249999D01*
G01*
G37*
%TD*%
D10*
%TO.C,Q1*%
X146328000Y-98298000D03*
X149328000Y-99248000D03*
X149328000Y-97348000D03*
%TD*%
%TO.C,C37*%
G36*
G01*
X142035000Y-97847999D02*
X142035000Y-98748001D01*
G75*
G02*
X141785001Y-98998000I-249999J0D01*
G01*
X141134999Y-98998000D01*
G75*
G02*
X140885000Y-98748001I0J249999D01*
G01*
X140885000Y-97847999D01*
G75*
G02*
X141134999Y-97598000I249999J0D01*
G01*
X141785001Y-97598000D01*
G75*
G02*
X142035000Y-97847999I0J-249999D01*
G01*
G37*
G36*
G01*
X144085000Y-97847999D02*
X144085000Y-98748001D01*
G75*
G02*
X143835001Y-98998000I-249999J0D01*
G01*
X143184999Y-98998000D01*
G75*
G02*
X142935000Y-98748001I0J249999D01*
G01*
X142935000Y-97847999D01*
G75*
G02*
X143184999Y-97598000I249999J0D01*
G01*
X143835001Y-97598000D01*
G75*
G02*
X144085000Y-97847999I0J-249999D01*
G01*
G37*
%TD*%
D11*
%TO.C,U4*%
X97268000Y-65405000D03*
X101868000Y-65405000D03*
X99568000Y-65405000D03*
D12*
X99568000Y-71705000D03*
%TD*%
%TO.C,C4*%
G36*
G01*
X117659999Y-77421000D02*
X118560001Y-77421000D01*
G75*
G02*
X118810000Y-77670999I0J-249999D01*
G01*
X118810000Y-78321001D01*
G75*
G02*
X118560001Y-78571000I-249999J0D01*
G01*
X117659999Y-78571000D01*
G75*
G02*
X117410000Y-78321001I0J249999D01*
G01*
X117410000Y-77670999D01*
G75*
G02*
X117659999Y-77421000I249999J0D01*
G01*
G37*
G36*
G01*
X117659999Y-75371000D02*
X118560001Y-75371000D01*
G75*
G02*
X118810000Y-75620999I0J-249999D01*
G01*
X118810000Y-76271001D01*
G75*
G02*
X118560001Y-76521000I-249999J0D01*
G01*
X117659999Y-76521000D01*
G75*
G02*
X117410000Y-76271001I0J249999D01*
G01*
X117410000Y-75620999D01*
G75*
G02*
X117659999Y-75371000I249999J0D01*
G01*
G37*
%TD*%
%TO.C,U5*%
G36*
G01*
X140393000Y-78590000D02*
X140393000Y-78890000D01*
G75*
G02*
X140243000Y-79040000I-150000J0D01*
G01*
X138493000Y-79040000D01*
G75*
G02*
X138343000Y-78890000I0J150000D01*
G01*
X138343000Y-78590000D01*
G75*
G02*
X138493000Y-78440000I150000J0D01*
G01*
X140243000Y-78440000D01*
G75*
G02*
X140393000Y-78590000I0J-150000D01*
G01*
G37*
G36*
G01*
X140393000Y-79860000D02*
X140393000Y-80160000D01*
G75*
G02*
X140243000Y-80310000I-150000J0D01*
G01*
X138493000Y-80310000D01*
G75*
G02*
X138343000Y-80160000I0J150000D01*
G01*
X138343000Y-79860000D01*
G75*
G02*
X138493000Y-79710000I150000J0D01*
G01*
X140243000Y-79710000D01*
G75*
G02*
X140393000Y-79860000I0J-150000D01*
G01*
G37*
G36*
G01*
X140393000Y-81130000D02*
X140393000Y-81430000D01*
G75*
G02*
X140243000Y-81580000I-150000J0D01*
G01*
X138493000Y-81580000D01*
G75*
G02*
X138343000Y-81430000I0J150000D01*
G01*
X138343000Y-81130000D01*
G75*
G02*
X138493000Y-80980000I150000J0D01*
G01*
X140243000Y-80980000D01*
G75*
G02*
X140393000Y-81130000I0J-150000D01*
G01*
G37*
G36*
G01*
X140393000Y-82400000D02*
X140393000Y-82700000D01*
G75*
G02*
X140243000Y-82850000I-150000J0D01*
G01*
X138493000Y-82850000D01*
G75*
G02*
X138343000Y-82700000I0J150000D01*
G01*
X138343000Y-82400000D01*
G75*
G02*
X138493000Y-82250000I150000J0D01*
G01*
X140243000Y-82250000D01*
G75*
G02*
X140393000Y-82400000I0J-150000D01*
G01*
G37*
G36*
G01*
X140393000Y-83670000D02*
X140393000Y-83970000D01*
G75*
G02*
X140243000Y-84120000I-150000J0D01*
G01*
X138493000Y-84120000D01*
G75*
G02*
X138343000Y-83970000I0J150000D01*
G01*
X138343000Y-83670000D01*
G75*
G02*
X138493000Y-83520000I150000J0D01*
G01*
X140243000Y-83520000D01*
G75*
G02*
X140393000Y-83670000I0J-150000D01*
G01*
G37*
G36*
G01*
X140393000Y-84940000D02*
X140393000Y-85240000D01*
G75*
G02*
X140243000Y-85390000I-150000J0D01*
G01*
X138493000Y-85390000D01*
G75*
G02*
X138343000Y-85240000I0J150000D01*
G01*
X138343000Y-84940000D01*
G75*
G02*
X138493000Y-84790000I150000J0D01*
G01*
X140243000Y-84790000D01*
G75*
G02*
X140393000Y-84940000I0J-150000D01*
G01*
G37*
G36*
G01*
X140393000Y-86210000D02*
X140393000Y-86510000D01*
G75*
G02*
X140243000Y-86660000I-150000J0D01*
G01*
X138493000Y-86660000D01*
G75*
G02*
X138343000Y-86510000I0J150000D01*
G01*
X138343000Y-86210000D01*
G75*
G02*
X138493000Y-86060000I150000J0D01*
G01*
X140243000Y-86060000D01*
G75*
G02*
X140393000Y-86210000I0J-150000D01*
G01*
G37*
G36*
G01*
X140393000Y-87480000D02*
X140393000Y-87780000D01*
G75*
G02*
X140243000Y-87930000I-150000J0D01*
G01*
X138493000Y-87930000D01*
G75*
G02*
X138343000Y-87780000I0J150000D01*
G01*
X138343000Y-87480000D01*
G75*
G02*
X138493000Y-87330000I150000J0D01*
G01*
X140243000Y-87330000D01*
G75*
G02*
X140393000Y-87480000I0J-150000D01*
G01*
G37*
G36*
G01*
X149693000Y-87480000D02*
X149693000Y-87780000D01*
G75*
G02*
X149543000Y-87930000I-150000J0D01*
G01*
X147793000Y-87930000D01*
G75*
G02*
X147643000Y-87780000I0J150000D01*
G01*
X147643000Y-87480000D01*
G75*
G02*
X147793000Y-87330000I150000J0D01*
G01*
X149543000Y-87330000D01*
G75*
G02*
X149693000Y-87480000I0J-150000D01*
G01*
G37*
G36*
G01*
X149693000Y-86210000D02*
X149693000Y-86510000D01*
G75*
G02*
X149543000Y-86660000I-150000J0D01*
G01*
X147793000Y-86660000D01*
G75*
G02*
X147643000Y-86510000I0J150000D01*
G01*
X147643000Y-86210000D01*
G75*
G02*
X147793000Y-86060000I150000J0D01*
G01*
X149543000Y-86060000D01*
G75*
G02*
X149693000Y-86210000I0J-150000D01*
G01*
G37*
G36*
G01*
X149693000Y-84940000D02*
X149693000Y-85240000D01*
G75*
G02*
X149543000Y-85390000I-150000J0D01*
G01*
X147793000Y-85390000D01*
G75*
G02*
X147643000Y-85240000I0J150000D01*
G01*
X147643000Y-84940000D01*
G75*
G02*
X147793000Y-84790000I150000J0D01*
G01*
X149543000Y-84790000D01*
G75*
G02*
X149693000Y-84940000I0J-150000D01*
G01*
G37*
G36*
G01*
X149693000Y-83670000D02*
X149693000Y-83970000D01*
G75*
G02*
X149543000Y-84120000I-150000J0D01*
G01*
X147793000Y-84120000D01*
G75*
G02*
X147643000Y-83970000I0J150000D01*
G01*
X147643000Y-83670000D01*
G75*
G02*
X147793000Y-83520000I150000J0D01*
G01*
X149543000Y-83520000D01*
G75*
G02*
X149693000Y-83670000I0J-150000D01*
G01*
G37*
G36*
G01*
X149693000Y-82400000D02*
X149693000Y-82700000D01*
G75*
G02*
X149543000Y-82850000I-150000J0D01*
G01*
X147793000Y-82850000D01*
G75*
G02*
X147643000Y-82700000I0J150000D01*
G01*
X147643000Y-82400000D01*
G75*
G02*
X147793000Y-82250000I150000J0D01*
G01*
X149543000Y-82250000D01*
G75*
G02*
X149693000Y-82400000I0J-150000D01*
G01*
G37*
G36*
G01*
X149693000Y-81130000D02*
X149693000Y-81430000D01*
G75*
G02*
X149543000Y-81580000I-150000J0D01*
G01*
X147793000Y-81580000D01*
G75*
G02*
X147643000Y-81430000I0J150000D01*
G01*
X147643000Y-81130000D01*
G75*
G02*
X147793000Y-80980000I150000J0D01*
G01*
X149543000Y-80980000D01*
G75*
G02*
X149693000Y-81130000I0J-150000D01*
G01*
G37*
G36*
G01*
X149693000Y-79860000D02*
X149693000Y-80160000D01*
G75*
G02*
X149543000Y-80310000I-150000J0D01*
G01*
X147793000Y-80310000D01*
G75*
G02*
X147643000Y-80160000I0J150000D01*
G01*
X147643000Y-79860000D01*
G75*
G02*
X147793000Y-79710000I150000J0D01*
G01*
X149543000Y-79710000D01*
G75*
G02*
X149693000Y-79860000I0J-150000D01*
G01*
G37*
G36*
G01*
X149693000Y-78590000D02*
X149693000Y-78890000D01*
G75*
G02*
X149543000Y-79040000I-150000J0D01*
G01*
X147793000Y-79040000D01*
G75*
G02*
X147643000Y-78890000I0J150000D01*
G01*
X147643000Y-78590000D01*
G75*
G02*
X147793000Y-78440000I150000J0D01*
G01*
X149543000Y-78440000D01*
G75*
G02*
X149693000Y-78590000I0J-150000D01*
G01*
G37*
%TD*%
%TO.C,U1*%
G36*
G01*
X121389000Y-84812000D02*
X121689000Y-84812000D01*
G75*
G02*
X121839000Y-84962000I0J-150000D01*
G01*
X121839000Y-86612000D01*
G75*
G02*
X121689000Y-86762000I-150000J0D01*
G01*
X121389000Y-86762000D01*
G75*
G02*
X121239000Y-86612000I0J150000D01*
G01*
X121239000Y-84962000D01*
G75*
G02*
X121389000Y-84812000I150000J0D01*
G01*
G37*
G36*
G01*
X122659000Y-84812000D02*
X122959000Y-84812000D01*
G75*
G02*
X123109000Y-84962000I0J-150000D01*
G01*
X123109000Y-86612000D01*
G75*
G02*
X122959000Y-86762000I-150000J0D01*
G01*
X122659000Y-86762000D01*
G75*
G02*
X122509000Y-86612000I0J150000D01*
G01*
X122509000Y-84962000D01*
G75*
G02*
X122659000Y-84812000I150000J0D01*
G01*
G37*
G36*
G01*
X123929000Y-84812000D02*
X124229000Y-84812000D01*
G75*
G02*
X124379000Y-84962000I0J-150000D01*
G01*
X124379000Y-86612000D01*
G75*
G02*
X124229000Y-86762000I-150000J0D01*
G01*
X123929000Y-86762000D01*
G75*
G02*
X123779000Y-86612000I0J150000D01*
G01*
X123779000Y-84962000D01*
G75*
G02*
X123929000Y-84812000I150000J0D01*
G01*
G37*
G36*
G01*
X125199000Y-84812000D02*
X125499000Y-84812000D01*
G75*
G02*
X125649000Y-84962000I0J-150000D01*
G01*
X125649000Y-86612000D01*
G75*
G02*
X125499000Y-86762000I-150000J0D01*
G01*
X125199000Y-86762000D01*
G75*
G02*
X125049000Y-86612000I0J150000D01*
G01*
X125049000Y-84962000D01*
G75*
G02*
X125199000Y-84812000I150000J0D01*
G01*
G37*
G36*
G01*
X125199000Y-79862000D02*
X125499000Y-79862000D01*
G75*
G02*
X125649000Y-80012000I0J-150000D01*
G01*
X125649000Y-81662000D01*
G75*
G02*
X125499000Y-81812000I-150000J0D01*
G01*
X125199000Y-81812000D01*
G75*
G02*
X125049000Y-81662000I0J150000D01*
G01*
X125049000Y-80012000D01*
G75*
G02*
X125199000Y-79862000I150000J0D01*
G01*
G37*
G36*
G01*
X123929000Y-79862000D02*
X124229000Y-79862000D01*
G75*
G02*
X124379000Y-80012000I0J-150000D01*
G01*
X124379000Y-81662000D01*
G75*
G02*
X124229000Y-81812000I-150000J0D01*
G01*
X123929000Y-81812000D01*
G75*
G02*
X123779000Y-81662000I0J150000D01*
G01*
X123779000Y-80012000D01*
G75*
G02*
X123929000Y-79862000I150000J0D01*
G01*
G37*
G36*
G01*
X122659000Y-79862000D02*
X122959000Y-79862000D01*
G75*
G02*
X123109000Y-80012000I0J-150000D01*
G01*
X123109000Y-81662000D01*
G75*
G02*
X122959000Y-81812000I-150000J0D01*
G01*
X122659000Y-81812000D01*
G75*
G02*
X122509000Y-81662000I0J150000D01*
G01*
X122509000Y-80012000D01*
G75*
G02*
X122659000Y-79862000I150000J0D01*
G01*
G37*
G36*
G01*
X121389000Y-79862000D02*
X121689000Y-79862000D01*
G75*
G02*
X121839000Y-80012000I0J-150000D01*
G01*
X121839000Y-81662000D01*
G75*
G02*
X121689000Y-81812000I-150000J0D01*
G01*
X121389000Y-81812000D01*
G75*
G02*
X121239000Y-81662000I0J150000D01*
G01*
X121239000Y-80012000D01*
G75*
G02*
X121389000Y-79862000I150000J0D01*
G01*
G37*
%TD*%
%TO.C,R30*%
G36*
G01*
X152213000Y-77019999D02*
X152213000Y-77920001D01*
G75*
G02*
X151963001Y-78170000I-249999J0D01*
G01*
X151312999Y-78170000D01*
G75*
G02*
X151063000Y-77920001I0J249999D01*
G01*
X151063000Y-77019999D01*
G75*
G02*
X151312999Y-76770000I249999J0D01*
G01*
X151963001Y-76770000D01*
G75*
G02*
X152213000Y-77019999I0J-249999D01*
G01*
G37*
G36*
G01*
X154263000Y-77019999D02*
X154263000Y-77920001D01*
G75*
G02*
X154013001Y-78170000I-249999J0D01*
G01*
X153362999Y-78170000D01*
G75*
G02*
X153113000Y-77920001I0J249999D01*
G01*
X153113000Y-77019999D01*
G75*
G02*
X153362999Y-76770000I249999J0D01*
G01*
X154013001Y-76770000D01*
G75*
G02*
X154263000Y-77019999I0J-249999D01*
G01*
G37*
%TD*%
%TO.C,R29*%
G36*
G01*
X153113000Y-88080001D02*
X153113000Y-87179999D01*
G75*
G02*
X153362999Y-86930000I249999J0D01*
G01*
X154013001Y-86930000D01*
G75*
G02*
X154263000Y-87179999I0J-249999D01*
G01*
X154263000Y-88080001D01*
G75*
G02*
X154013001Y-88330000I-249999J0D01*
G01*
X153362999Y-88330000D01*
G75*
G02*
X153113000Y-88080001I0J249999D01*
G01*
G37*
G36*
G01*
X151063000Y-88080001D02*
X151063000Y-87179999D01*
G75*
G02*
X151312999Y-86930000I249999J0D01*
G01*
X151963001Y-86930000D01*
G75*
G02*
X152213000Y-87179999I0J-249999D01*
G01*
X152213000Y-88080001D01*
G75*
G02*
X151963001Y-88330000I-249999J0D01*
G01*
X151312999Y-88330000D01*
G75*
G02*
X151063000Y-88080001I0J249999D01*
G01*
G37*
%TD*%
%TO.C,R28*%
G36*
G01*
X152213000Y-71939999D02*
X152213000Y-72840001D01*
G75*
G02*
X151963001Y-73090000I-249999J0D01*
G01*
X151312999Y-73090000D01*
G75*
G02*
X151063000Y-72840001I0J249999D01*
G01*
X151063000Y-71939999D01*
G75*
G02*
X151312999Y-71690000I249999J0D01*
G01*
X151963001Y-71690000D01*
G75*
G02*
X152213000Y-71939999I0J-249999D01*
G01*
G37*
G36*
G01*
X154263000Y-71939999D02*
X154263000Y-72840001D01*
G75*
G02*
X154013001Y-73090000I-249999J0D01*
G01*
X153362999Y-73090000D01*
G75*
G02*
X153113000Y-72840001I0J249999D01*
G01*
X153113000Y-71939999D01*
G75*
G02*
X153362999Y-71690000I249999J0D01*
G01*
X154013001Y-71690000D01*
G75*
G02*
X154263000Y-71939999I0J-249999D01*
G01*
G37*
%TD*%
%TO.C,R27*%
G36*
G01*
X152213000Y-82099999D02*
X152213000Y-83000001D01*
G75*
G02*
X151963001Y-83250000I-249999J0D01*
G01*
X151312999Y-83250000D01*
G75*
G02*
X151063000Y-83000001I0J249999D01*
G01*
X151063000Y-82099999D01*
G75*
G02*
X151312999Y-81850000I249999J0D01*
G01*
X151963001Y-81850000D01*
G75*
G02*
X152213000Y-82099999I0J-249999D01*
G01*
G37*
G36*
G01*
X154263000Y-82099999D02*
X154263000Y-83000001D01*
G75*
G02*
X154013001Y-83250000I-249999J0D01*
G01*
X153362999Y-83250000D01*
G75*
G02*
X153113000Y-83000001I0J249999D01*
G01*
X153113000Y-82099999D01*
G75*
G02*
X153362999Y-81850000I249999J0D01*
G01*
X154013001Y-81850000D01*
G75*
G02*
X154263000Y-82099999I0J-249999D01*
G01*
G37*
%TD*%
%TO.C,R26*%
G36*
G01*
X135950000Y-93160001D02*
X135950000Y-92259999D01*
G75*
G02*
X136199999Y-92010000I249999J0D01*
G01*
X136850001Y-92010000D01*
G75*
G02*
X137100000Y-92259999I0J-249999D01*
G01*
X137100000Y-93160001D01*
G75*
G02*
X136850001Y-93410000I-249999J0D01*
G01*
X136199999Y-93410000D01*
G75*
G02*
X135950000Y-93160001I0J249999D01*
G01*
G37*
G36*
G01*
X133900000Y-93160001D02*
X133900000Y-92259999D01*
G75*
G02*
X134149999Y-92010000I249999J0D01*
G01*
X134800001Y-92010000D01*
G75*
G02*
X135050000Y-92259999I0J-249999D01*
G01*
X135050000Y-93160001D01*
G75*
G02*
X134800001Y-93410000I-249999J0D01*
G01*
X134149999Y-93410000D01*
G75*
G02*
X133900000Y-93160001I0J249999D01*
G01*
G37*
%TD*%
%TO.C,R25*%
G36*
G01*
X134923000Y-84639999D02*
X134923000Y-85540001D01*
G75*
G02*
X134673001Y-85790000I-249999J0D01*
G01*
X134022999Y-85790000D01*
G75*
G02*
X133773000Y-85540001I0J249999D01*
G01*
X133773000Y-84639999D01*
G75*
G02*
X134022999Y-84390000I249999J0D01*
G01*
X134673001Y-84390000D01*
G75*
G02*
X134923000Y-84639999I0J-249999D01*
G01*
G37*
G36*
G01*
X136973000Y-84639999D02*
X136973000Y-85540001D01*
G75*
G02*
X136723001Y-85790000I-249999J0D01*
G01*
X136072999Y-85790000D01*
G75*
G02*
X135823000Y-85540001I0J249999D01*
G01*
X135823000Y-84639999D01*
G75*
G02*
X136072999Y-84390000I249999J0D01*
G01*
X136723001Y-84390000D01*
G75*
G02*
X136973000Y-84639999I0J-249999D01*
G01*
G37*
%TD*%
%TO.C,R24*%
G36*
G01*
X134923000Y-82099999D02*
X134923000Y-83000001D01*
G75*
G02*
X134673001Y-83250000I-249999J0D01*
G01*
X134022999Y-83250000D01*
G75*
G02*
X133773000Y-83000001I0J249999D01*
G01*
X133773000Y-82099999D01*
G75*
G02*
X134022999Y-81850000I249999J0D01*
G01*
X134673001Y-81850000D01*
G75*
G02*
X134923000Y-82099999I0J-249999D01*
G01*
G37*
G36*
G01*
X136973000Y-82099999D02*
X136973000Y-83000001D01*
G75*
G02*
X136723001Y-83250000I-249999J0D01*
G01*
X136072999Y-83250000D01*
G75*
G02*
X135823000Y-83000001I0J249999D01*
G01*
X135823000Y-82099999D01*
G75*
G02*
X136072999Y-81850000I249999J0D01*
G01*
X136723001Y-81850000D01*
G75*
G02*
X136973000Y-82099999I0J-249999D01*
G01*
G37*
%TD*%
%TO.C,R19*%
G36*
G01*
X87425000Y-80829999D02*
X87425000Y-81730001D01*
G75*
G02*
X87175001Y-81980000I-249999J0D01*
G01*
X86524999Y-81980000D01*
G75*
G02*
X86275000Y-81730001I0J249999D01*
G01*
X86275000Y-80829999D01*
G75*
G02*
X86524999Y-80580000I249999J0D01*
G01*
X87175001Y-80580000D01*
G75*
G02*
X87425000Y-80829999I0J-249999D01*
G01*
G37*
G36*
G01*
X89475000Y-80829999D02*
X89475000Y-81730001D01*
G75*
G02*
X89225001Y-81980000I-249999J0D01*
G01*
X88574999Y-81980000D01*
G75*
G02*
X88325000Y-81730001I0J249999D01*
G01*
X88325000Y-80829999D01*
G75*
G02*
X88574999Y-80580000I249999J0D01*
G01*
X89225001Y-80580000D01*
G75*
G02*
X89475000Y-80829999I0J-249999D01*
G01*
G37*
%TD*%
%TO.C,R12*%
G36*
G01*
X135968000Y-72840001D02*
X135968000Y-71939999D01*
G75*
G02*
X136217999Y-71690000I249999J0D01*
G01*
X136868001Y-71690000D01*
G75*
G02*
X137118000Y-71939999I0J-249999D01*
G01*
X137118000Y-72840001D01*
G75*
G02*
X136868001Y-73090000I-249999J0D01*
G01*
X136217999Y-73090000D01*
G75*
G02*
X135968000Y-72840001I0J249999D01*
G01*
G37*
G36*
G01*
X133918000Y-72840001D02*
X133918000Y-71939999D01*
G75*
G02*
X134167999Y-71690000I249999J0D01*
G01*
X134818001Y-71690000D01*
G75*
G02*
X135068000Y-71939999I0J-249999D01*
G01*
X135068000Y-72840001D01*
G75*
G02*
X134818001Y-73090000I-249999J0D01*
G01*
X134167999Y-73090000D01*
G75*
G02*
X133918000Y-72840001I0J249999D01*
G01*
G37*
%TD*%
%TO.C,R11*%
G36*
G01*
X134923000Y-77019999D02*
X134923000Y-77920001D01*
G75*
G02*
X134673001Y-78170000I-249999J0D01*
G01*
X134022999Y-78170000D01*
G75*
G02*
X133773000Y-77920001I0J249999D01*
G01*
X133773000Y-77019999D01*
G75*
G02*
X134022999Y-76770000I249999J0D01*
G01*
X134673001Y-76770000D01*
G75*
G02*
X134923000Y-77019999I0J-249999D01*
G01*
G37*
G36*
G01*
X136973000Y-77019999D02*
X136973000Y-77920001D01*
G75*
G02*
X136723001Y-78170000I-249999J0D01*
G01*
X136072999Y-78170000D01*
G75*
G02*
X135823000Y-77920001I0J249999D01*
G01*
X135823000Y-77019999D01*
G75*
G02*
X136072999Y-76770000I249999J0D01*
G01*
X136723001Y-76770000D01*
G75*
G02*
X136973000Y-77019999I0J-249999D01*
G01*
G37*
%TD*%
%TO.C,R5*%
G36*
G01*
X140765000Y-65589999D02*
X140765000Y-66490001D01*
G75*
G02*
X140515001Y-66740000I-249999J0D01*
G01*
X139864999Y-66740000D01*
G75*
G02*
X139615000Y-66490001I0J249999D01*
G01*
X139615000Y-65589999D01*
G75*
G02*
X139864999Y-65340000I249999J0D01*
G01*
X140515001Y-65340000D01*
G75*
G02*
X140765000Y-65589999I0J-249999D01*
G01*
G37*
G36*
G01*
X142815000Y-65589999D02*
X142815000Y-66490001D01*
G75*
G02*
X142565001Y-66740000I-249999J0D01*
G01*
X141914999Y-66740000D01*
G75*
G02*
X141665000Y-66490001I0J249999D01*
G01*
X141665000Y-65589999D01*
G75*
G02*
X141914999Y-65340000I249999J0D01*
G01*
X142565001Y-65340000D01*
G75*
G02*
X142815000Y-65589999I0J-249999D01*
G01*
G37*
%TD*%
%TO.C,C36*%
G36*
G01*
X139640000Y-74479999D02*
X139640000Y-75380001D01*
G75*
G02*
X139390001Y-75630000I-249999J0D01*
G01*
X138739999Y-75630000D01*
G75*
G02*
X138490000Y-75380001I0J249999D01*
G01*
X138490000Y-74479999D01*
G75*
G02*
X138739999Y-74230000I249999J0D01*
G01*
X139390001Y-74230000D01*
G75*
G02*
X139640000Y-74479999I0J-249999D01*
G01*
G37*
G36*
G01*
X141690000Y-74479999D02*
X141690000Y-75380001D01*
G75*
G02*
X141440001Y-75630000I-249999J0D01*
G01*
X140789999Y-75630000D01*
G75*
G02*
X140540000Y-75380001I0J249999D01*
G01*
X140540000Y-74479999D01*
G75*
G02*
X140789999Y-74230000I249999J0D01*
G01*
X141440001Y-74230000D01*
G75*
G02*
X141690000Y-74479999I0J-249999D01*
G01*
G37*
%TD*%
%TO.C,C35*%
G36*
G01*
X139640000Y-71939999D02*
X139640000Y-72840001D01*
G75*
G02*
X139390001Y-73090000I-249999J0D01*
G01*
X138739999Y-73090000D01*
G75*
G02*
X138490000Y-72840001I0J249999D01*
G01*
X138490000Y-71939999D01*
G75*
G02*
X138739999Y-71690000I249999J0D01*
G01*
X139390001Y-71690000D01*
G75*
G02*
X139640000Y-71939999I0J-249999D01*
G01*
G37*
G36*
G01*
X141690000Y-71939999D02*
X141690000Y-72840001D01*
G75*
G02*
X141440001Y-73090000I-249999J0D01*
G01*
X140789999Y-73090000D01*
G75*
G02*
X140540000Y-72840001I0J249999D01*
G01*
X140540000Y-71939999D01*
G75*
G02*
X140789999Y-71690000I249999J0D01*
G01*
X141440001Y-71690000D01*
G75*
G02*
X141690000Y-71939999I0J-249999D01*
G01*
G37*
%TD*%
%TO.C,C34*%
G36*
G01*
X152213000Y-89719999D02*
X152213000Y-90620001D01*
G75*
G02*
X151963001Y-90870000I-249999J0D01*
G01*
X151312999Y-90870000D01*
G75*
G02*
X151063000Y-90620001I0J249999D01*
G01*
X151063000Y-89719999D01*
G75*
G02*
X151312999Y-89470000I249999J0D01*
G01*
X151963001Y-89470000D01*
G75*
G02*
X152213000Y-89719999I0J-249999D01*
G01*
G37*
G36*
G01*
X154263000Y-89719999D02*
X154263000Y-90620001D01*
G75*
G02*
X154013001Y-90870000I-249999J0D01*
G01*
X153362999Y-90870000D01*
G75*
G02*
X153113000Y-90620001I0J249999D01*
G01*
X153113000Y-89719999D01*
G75*
G02*
X153362999Y-89470000I249999J0D01*
G01*
X154013001Y-89470000D01*
G75*
G02*
X154263000Y-89719999I0J-249999D01*
G01*
G37*
%TD*%
%TO.C,C33*%
G36*
G01*
X153113000Y-80460001D02*
X153113000Y-79559999D01*
G75*
G02*
X153362999Y-79310000I249999J0D01*
G01*
X154013001Y-79310000D01*
G75*
G02*
X154263000Y-79559999I0J-249999D01*
G01*
X154263000Y-80460001D01*
G75*
G02*
X154013001Y-80710000I-249999J0D01*
G01*
X153362999Y-80710000D01*
G75*
G02*
X153113000Y-80460001I0J249999D01*
G01*
G37*
G36*
G01*
X151063000Y-80460001D02*
X151063000Y-79559999D01*
G75*
G02*
X151312999Y-79310000I249999J0D01*
G01*
X151963001Y-79310000D01*
G75*
G02*
X152213000Y-79559999I0J-249999D01*
G01*
X152213000Y-80460001D01*
G75*
G02*
X151963001Y-80710000I-249999J0D01*
G01*
X151312999Y-80710000D01*
G75*
G02*
X151063000Y-80460001I0J249999D01*
G01*
G37*
%TD*%
%TO.C,C32*%
G36*
G01*
X152213000Y-74479999D02*
X152213000Y-75380001D01*
G75*
G02*
X151963001Y-75630000I-249999J0D01*
G01*
X151312999Y-75630000D01*
G75*
G02*
X151063000Y-75380001I0J249999D01*
G01*
X151063000Y-74479999D01*
G75*
G02*
X151312999Y-74230000I249999J0D01*
G01*
X151963001Y-74230000D01*
G75*
G02*
X152213000Y-74479999I0J-249999D01*
G01*
G37*
G36*
G01*
X154263000Y-74479999D02*
X154263000Y-75380001D01*
G75*
G02*
X154013001Y-75630000I-249999J0D01*
G01*
X153362999Y-75630000D01*
G75*
G02*
X153113000Y-75380001I0J249999D01*
G01*
X153113000Y-74479999D01*
G75*
G02*
X153362999Y-74230000I249999J0D01*
G01*
X154013001Y-74230000D01*
G75*
G02*
X154263000Y-74479999I0J-249999D01*
G01*
G37*
%TD*%
%TO.C,C31*%
G36*
G01*
X152213000Y-92259999D02*
X152213000Y-93160001D01*
G75*
G02*
X151963001Y-93410000I-249999J0D01*
G01*
X151312999Y-93410000D01*
G75*
G02*
X151063000Y-93160001I0J249999D01*
G01*
X151063000Y-92259999D01*
G75*
G02*
X151312999Y-92010000I249999J0D01*
G01*
X151963001Y-92010000D01*
G75*
G02*
X152213000Y-92259999I0J-249999D01*
G01*
G37*
G36*
G01*
X154263000Y-92259999D02*
X154263000Y-93160001D01*
G75*
G02*
X154013001Y-93410000I-249999J0D01*
G01*
X153362999Y-93410000D01*
G75*
G02*
X153113000Y-93160001I0J249999D01*
G01*
X153113000Y-92259999D01*
G75*
G02*
X153362999Y-92010000I249999J0D01*
G01*
X154013001Y-92010000D01*
G75*
G02*
X154263000Y-92259999I0J-249999D01*
G01*
G37*
%TD*%
%TO.C,C30*%
G36*
G01*
X153113000Y-85540001D02*
X153113000Y-84639999D01*
G75*
G02*
X153362999Y-84390000I249999J0D01*
G01*
X154013001Y-84390000D01*
G75*
G02*
X154263000Y-84639999I0J-249999D01*
G01*
X154263000Y-85540001D01*
G75*
G02*
X154013001Y-85790000I-249999J0D01*
G01*
X153362999Y-85790000D01*
G75*
G02*
X153113000Y-85540001I0J249999D01*
G01*
G37*
G36*
G01*
X151063000Y-85540001D02*
X151063000Y-84639999D01*
G75*
G02*
X151312999Y-84390000I249999J0D01*
G01*
X151963001Y-84390000D01*
G75*
G02*
X152213000Y-84639999I0J-249999D01*
G01*
X152213000Y-85540001D01*
G75*
G02*
X151963001Y-85790000I-249999J0D01*
G01*
X151312999Y-85790000D01*
G75*
G02*
X151063000Y-85540001I0J249999D01*
G01*
G37*
%TD*%
%TO.C,C29*%
G36*
G01*
X135050000Y-89719999D02*
X135050000Y-90620001D01*
G75*
G02*
X134800001Y-90870000I-249999J0D01*
G01*
X134149999Y-90870000D01*
G75*
G02*
X133900000Y-90620001I0J249999D01*
G01*
X133900000Y-89719999D01*
G75*
G02*
X134149999Y-89470000I249999J0D01*
G01*
X134800001Y-89470000D01*
G75*
G02*
X135050000Y-89719999I0J-249999D01*
G01*
G37*
G36*
G01*
X137100000Y-89719999D02*
X137100000Y-90620001D01*
G75*
G02*
X136850001Y-90870000I-249999J0D01*
G01*
X136199999Y-90870000D01*
G75*
G02*
X135950000Y-90620001I0J249999D01*
G01*
X135950000Y-89719999D01*
G75*
G02*
X136199999Y-89470000I249999J0D01*
G01*
X136850001Y-89470000D01*
G75*
G02*
X137100000Y-89719999I0J-249999D01*
G01*
G37*
%TD*%
%TO.C,C28*%
G36*
G01*
X134923000Y-87179999D02*
X134923000Y-88080001D01*
G75*
G02*
X134673001Y-88330000I-249999J0D01*
G01*
X134022999Y-88330000D01*
G75*
G02*
X133773000Y-88080001I0J249999D01*
G01*
X133773000Y-87179999D01*
G75*
G02*
X134022999Y-86930000I249999J0D01*
G01*
X134673001Y-86930000D01*
G75*
G02*
X134923000Y-87179999I0J-249999D01*
G01*
G37*
G36*
G01*
X136973000Y-87179999D02*
X136973000Y-88080001D01*
G75*
G02*
X136723001Y-88330000I-249999J0D01*
G01*
X136072999Y-88330000D01*
G75*
G02*
X135823000Y-88080001I0J249999D01*
G01*
X135823000Y-87179999D01*
G75*
G02*
X136072999Y-86930000I249999J0D01*
G01*
X136723001Y-86930000D01*
G75*
G02*
X136973000Y-87179999I0J-249999D01*
G01*
G37*
%TD*%
%TO.C,C27*%
G36*
G01*
X135968000Y-75380001D02*
X135968000Y-74479999D01*
G75*
G02*
X136217999Y-74230000I249999J0D01*
G01*
X136868001Y-74230000D01*
G75*
G02*
X137118000Y-74479999I0J-249999D01*
G01*
X137118000Y-75380001D01*
G75*
G02*
X136868001Y-75630000I-249999J0D01*
G01*
X136217999Y-75630000D01*
G75*
G02*
X135968000Y-75380001I0J249999D01*
G01*
G37*
G36*
G01*
X133918000Y-75380001D02*
X133918000Y-74479999D01*
G75*
G02*
X134167999Y-74230000I249999J0D01*
G01*
X134818001Y-74230000D01*
G75*
G02*
X135068000Y-74479999I0J-249999D01*
G01*
X135068000Y-75380001D01*
G75*
G02*
X134818001Y-75630000I-249999J0D01*
G01*
X134167999Y-75630000D01*
G75*
G02*
X133918000Y-75380001I0J249999D01*
G01*
G37*
%TD*%
%TO.C,C8*%
G36*
G01*
X134923000Y-79559999D02*
X134923000Y-80460001D01*
G75*
G02*
X134673001Y-80710000I-249999J0D01*
G01*
X134022999Y-80710000D01*
G75*
G02*
X133773000Y-80460001I0J249999D01*
G01*
X133773000Y-79559999D01*
G75*
G02*
X134022999Y-79310000I249999J0D01*
G01*
X134673001Y-79310000D01*
G75*
G02*
X134923000Y-79559999I0J-249999D01*
G01*
G37*
G36*
G01*
X136973000Y-79559999D02*
X136973000Y-80460001D01*
G75*
G02*
X136723001Y-80710000I-249999J0D01*
G01*
X136072999Y-80710000D01*
G75*
G02*
X135823000Y-80460001I0J249999D01*
G01*
X135823000Y-79559999D01*
G75*
G02*
X136072999Y-79310000I249999J0D01*
G01*
X136723001Y-79310000D01*
G75*
G02*
X136973000Y-79559999I0J-249999D01*
G01*
G37*
%TD*%
%TO.C,R23*%
G36*
G01*
X118814001Y-103935000D02*
X117913999Y-103935000D01*
G75*
G02*
X117664000Y-103685001I0J249999D01*
G01*
X117664000Y-103034999D01*
G75*
G02*
X117913999Y-102785000I249999J0D01*
G01*
X118814001Y-102785000D01*
G75*
G02*
X119064000Y-103034999I0J-249999D01*
G01*
X119064000Y-103685001D01*
G75*
G02*
X118814001Y-103935000I-249999J0D01*
G01*
G37*
G36*
G01*
X118814001Y-105985000D02*
X117913999Y-105985000D01*
G75*
G02*
X117664000Y-105735001I0J249999D01*
G01*
X117664000Y-105084999D01*
G75*
G02*
X117913999Y-104835000I249999J0D01*
G01*
X118814001Y-104835000D01*
G75*
G02*
X119064000Y-105084999I0J-249999D01*
G01*
X119064000Y-105735001D01*
G75*
G02*
X118814001Y-105985000I-249999J0D01*
G01*
G37*
%TD*%
%TO.C,U3*%
G36*
G01*
X89699212Y-102837437D02*
X90583095Y-101953554D01*
G75*
G02*
X90759871Y-101953554I88388J-88388D01*
G01*
X90936648Y-102130331D01*
G75*
G02*
X90936648Y-102307107I-88388J-88388D01*
G01*
X90052765Y-103190990D01*
G75*
G02*
X89875989Y-103190990I-88388J88388D01*
G01*
X89699212Y-103014213D01*
G75*
G02*
X89699212Y-102837437I88388J88388D01*
G01*
G37*
G36*
G01*
X90264898Y-103403122D02*
X91148781Y-102519239D01*
G75*
G02*
X91325557Y-102519239I88388J-88388D01*
G01*
X91502334Y-102696016D01*
G75*
G02*
X91502334Y-102872792I-88388J-88388D01*
G01*
X90618451Y-103756675D01*
G75*
G02*
X90441675Y-103756675I-88388J88388D01*
G01*
X90264898Y-103579898D01*
G75*
G02*
X90264898Y-103403122I88388J88388D01*
G01*
G37*
G36*
G01*
X90830583Y-103968808D02*
X91714466Y-103084925D01*
G75*
G02*
X91891242Y-103084925I88388J-88388D01*
G01*
X92068019Y-103261702D01*
G75*
G02*
X92068019Y-103438478I-88388J-88388D01*
G01*
X91184136Y-104322361D01*
G75*
G02*
X91007360Y-104322361I-88388J88388D01*
G01*
X90830583Y-104145584D01*
G75*
G02*
X90830583Y-103968808I88388J88388D01*
G01*
G37*
G36*
G01*
X91396268Y-104534493D02*
X92280151Y-103650610D01*
G75*
G02*
X92456927Y-103650610I88388J-88388D01*
G01*
X92633704Y-103827387D01*
G75*
G02*
X92633704Y-104004163I-88388J-88388D01*
G01*
X91749821Y-104888046D01*
G75*
G02*
X91573045Y-104888046I-88388J88388D01*
G01*
X91396268Y-104711269D01*
G75*
G02*
X91396268Y-104534493I88388J88388D01*
G01*
G37*
G36*
G01*
X91961954Y-105100179D02*
X92845837Y-104216296D01*
G75*
G02*
X93022613Y-104216296I88388J-88388D01*
G01*
X93199390Y-104393073D01*
G75*
G02*
X93199390Y-104569849I-88388J-88388D01*
G01*
X92315507Y-105453732D01*
G75*
G02*
X92138731Y-105453732I-88388J88388D01*
G01*
X91961954Y-105276955D01*
G75*
G02*
X91961954Y-105100179I88388J88388D01*
G01*
G37*
G36*
G01*
X92527639Y-105665864D02*
X93411522Y-104781981D01*
G75*
G02*
X93588298Y-104781981I88388J-88388D01*
G01*
X93765075Y-104958758D01*
G75*
G02*
X93765075Y-105135534I-88388J-88388D01*
G01*
X92881192Y-106019417D01*
G75*
G02*
X92704416Y-106019417I-88388J88388D01*
G01*
X92527639Y-105842640D01*
G75*
G02*
X92527639Y-105665864I88388J88388D01*
G01*
G37*
G36*
G01*
X93093325Y-106231549D02*
X93977208Y-105347666D01*
G75*
G02*
X94153984Y-105347666I88388J-88388D01*
G01*
X94330761Y-105524443D01*
G75*
G02*
X94330761Y-105701219I-88388J-88388D01*
G01*
X93446878Y-106585102D01*
G75*
G02*
X93270102Y-106585102I-88388J88388D01*
G01*
X93093325Y-106408325D01*
G75*
G02*
X93093325Y-106231549I88388J88388D01*
G01*
G37*
G36*
G01*
X93659010Y-106797235D02*
X94542893Y-105913352D01*
G75*
G02*
X94719669Y-105913352I88388J-88388D01*
G01*
X94896446Y-106090129D01*
G75*
G02*
X94896446Y-106266905I-88388J-88388D01*
G01*
X94012563Y-107150788D01*
G75*
G02*
X93835787Y-107150788I-88388J88388D01*
G01*
X93659010Y-106974011D01*
G75*
G02*
X93659010Y-106797235I88388J88388D01*
G01*
G37*
G36*
G01*
X95603554Y-106090128D02*
X95780331Y-105913352D01*
G75*
G02*
X95957107Y-105913352I88388J-88388D01*
G01*
X96840990Y-106797235D01*
G75*
G02*
X96840990Y-106974011I-88388J-88388D01*
G01*
X96664213Y-107150788D01*
G75*
G02*
X96487437Y-107150788I-88388J88388D01*
G01*
X95603554Y-106266905D01*
G75*
G02*
X95603554Y-106090129I88388J88388D01*
G01*
G37*
G36*
G01*
X96169239Y-105524442D02*
X96346016Y-105347666D01*
G75*
G02*
X96522792Y-105347666I88388J-88388D01*
G01*
X97406675Y-106231549D01*
G75*
G02*
X97406675Y-106408325I-88388J-88388D01*
G01*
X97229898Y-106585102D01*
G75*
G02*
X97053122Y-106585102I-88388J88388D01*
G01*
X96169239Y-105701219D01*
G75*
G02*
X96169239Y-105524443I88388J88388D01*
G01*
G37*
G36*
G01*
X96734925Y-104958757D02*
X96911702Y-104781981D01*
G75*
G02*
X97088478Y-104781981I88388J-88388D01*
G01*
X97972361Y-105665864D01*
G75*
G02*
X97972361Y-105842640I-88388J-88388D01*
G01*
X97795584Y-106019417D01*
G75*
G02*
X97618808Y-106019417I-88388J88388D01*
G01*
X96734925Y-105135534D01*
G75*
G02*
X96734925Y-104958758I88388J88388D01*
G01*
G37*
G36*
G01*
X97300610Y-104393072D02*
X97477387Y-104216296D01*
G75*
G02*
X97654163Y-104216296I88388J-88388D01*
G01*
X98538046Y-105100179D01*
G75*
G02*
X98538046Y-105276955I-88388J-88388D01*
G01*
X98361269Y-105453732D01*
G75*
G02*
X98184493Y-105453732I-88388J88388D01*
G01*
X97300610Y-104569849D01*
G75*
G02*
X97300610Y-104393073I88388J88388D01*
G01*
G37*
G36*
G01*
X97866296Y-103827386D02*
X98043073Y-103650610D01*
G75*
G02*
X98219849Y-103650610I88388J-88388D01*
G01*
X99103732Y-104534493D01*
G75*
G02*
X99103732Y-104711269I-88388J-88388D01*
G01*
X98926955Y-104888046D01*
G75*
G02*
X98750179Y-104888046I-88388J88388D01*
G01*
X97866296Y-104004163D01*
G75*
G02*
X97866296Y-103827387I88388J88388D01*
G01*
G37*
G36*
G01*
X98431981Y-103261701D02*
X98608758Y-103084925D01*
G75*
G02*
X98785534Y-103084925I88388J-88388D01*
G01*
X99669417Y-103968808D01*
G75*
G02*
X99669417Y-104145584I-88388J-88388D01*
G01*
X99492640Y-104322361D01*
G75*
G02*
X99315864Y-104322361I-88388J88388D01*
G01*
X98431981Y-103438478D01*
G75*
G02*
X98431981Y-103261702I88388J88388D01*
G01*
G37*
G36*
G01*
X98997666Y-102696015D02*
X99174443Y-102519239D01*
G75*
G02*
X99351219Y-102519239I88388J-88388D01*
G01*
X100235102Y-103403122D01*
G75*
G02*
X100235102Y-103579898I-88388J-88388D01*
G01*
X100058325Y-103756675D01*
G75*
G02*
X99881549Y-103756675I-88388J88388D01*
G01*
X98997666Y-102872792D01*
G75*
G02*
X98997666Y-102696016I88388J88388D01*
G01*
G37*
G36*
G01*
X99563352Y-102130330D02*
X99740129Y-101953554D01*
G75*
G02*
X99916905Y-101953554I88388J-88388D01*
G01*
X100800788Y-102837437D01*
G75*
G02*
X100800788Y-103014213I-88388J-88388D01*
G01*
X100624011Y-103190990D01*
G75*
G02*
X100447235Y-103190990I-88388J88388D01*
G01*
X99563352Y-102307107D01*
G75*
G02*
X99563352Y-102130331I88388J88388D01*
G01*
G37*
G36*
G01*
X99563352Y-100892893D02*
X100447235Y-100009010D01*
G75*
G02*
X100624011Y-100009010I88388J-88388D01*
G01*
X100800788Y-100185787D01*
G75*
G02*
X100800788Y-100362563I-88388J-88388D01*
G01*
X99916905Y-101246446D01*
G75*
G02*
X99740129Y-101246446I-88388J88388D01*
G01*
X99563352Y-101069669D01*
G75*
G02*
X99563352Y-100892893I88388J88388D01*
G01*
G37*
G36*
G01*
X98997666Y-100327208D02*
X99881549Y-99443325D01*
G75*
G02*
X100058325Y-99443325I88388J-88388D01*
G01*
X100235102Y-99620102D01*
G75*
G02*
X100235102Y-99796878I-88388J-88388D01*
G01*
X99351219Y-100680761D01*
G75*
G02*
X99174443Y-100680761I-88388J88388D01*
G01*
X98997666Y-100503984D01*
G75*
G02*
X98997666Y-100327208I88388J88388D01*
G01*
G37*
G36*
G01*
X98431981Y-99761522D02*
X99315864Y-98877639D01*
G75*
G02*
X99492640Y-98877639I88388J-88388D01*
G01*
X99669417Y-99054416D01*
G75*
G02*
X99669417Y-99231192I-88388J-88388D01*
G01*
X98785534Y-100115075D01*
G75*
G02*
X98608758Y-100115075I-88388J88388D01*
G01*
X98431981Y-99938298D01*
G75*
G02*
X98431981Y-99761522I88388J88388D01*
G01*
G37*
G36*
G01*
X97866296Y-99195837D02*
X98750179Y-98311954D01*
G75*
G02*
X98926955Y-98311954I88388J-88388D01*
G01*
X99103732Y-98488731D01*
G75*
G02*
X99103732Y-98665507I-88388J-88388D01*
G01*
X98219849Y-99549390D01*
G75*
G02*
X98043073Y-99549390I-88388J88388D01*
G01*
X97866296Y-99372613D01*
G75*
G02*
X97866296Y-99195837I88388J88388D01*
G01*
G37*
G36*
G01*
X97300610Y-98630151D02*
X98184493Y-97746268D01*
G75*
G02*
X98361269Y-97746268I88388J-88388D01*
G01*
X98538046Y-97923045D01*
G75*
G02*
X98538046Y-98099821I-88388J-88388D01*
G01*
X97654163Y-98983704D01*
G75*
G02*
X97477387Y-98983704I-88388J88388D01*
G01*
X97300610Y-98806927D01*
G75*
G02*
X97300610Y-98630151I88388J88388D01*
G01*
G37*
G36*
G01*
X96734925Y-98064466D02*
X97618808Y-97180583D01*
G75*
G02*
X97795584Y-97180583I88388J-88388D01*
G01*
X97972361Y-97357360D01*
G75*
G02*
X97972361Y-97534136I-88388J-88388D01*
G01*
X97088478Y-98418019D01*
G75*
G02*
X96911702Y-98418019I-88388J88388D01*
G01*
X96734925Y-98241242D01*
G75*
G02*
X96734925Y-98064466I88388J88388D01*
G01*
G37*
G36*
G01*
X96169239Y-97498781D02*
X97053122Y-96614898D01*
G75*
G02*
X97229898Y-96614898I88388J-88388D01*
G01*
X97406675Y-96791675D01*
G75*
G02*
X97406675Y-96968451I-88388J-88388D01*
G01*
X96522792Y-97852334D01*
G75*
G02*
X96346016Y-97852334I-88388J88388D01*
G01*
X96169239Y-97675557D01*
G75*
G02*
X96169239Y-97498781I88388J88388D01*
G01*
G37*
G36*
G01*
X95603554Y-96933095D02*
X96487437Y-96049212D01*
G75*
G02*
X96664213Y-96049212I88388J-88388D01*
G01*
X96840990Y-96225989D01*
G75*
G02*
X96840990Y-96402765I-88388J-88388D01*
G01*
X95957107Y-97286648D01*
G75*
G02*
X95780331Y-97286648I-88388J88388D01*
G01*
X95603554Y-97109871D01*
G75*
G02*
X95603554Y-96933095I88388J88388D01*
G01*
G37*
G36*
G01*
X93659010Y-96225988D02*
X93835787Y-96049212D01*
G75*
G02*
X94012563Y-96049212I88388J-88388D01*
G01*
X94896446Y-96933095D01*
G75*
G02*
X94896446Y-97109871I-88388J-88388D01*
G01*
X94719669Y-97286648D01*
G75*
G02*
X94542893Y-97286648I-88388J88388D01*
G01*
X93659010Y-96402765D01*
G75*
G02*
X93659010Y-96225989I88388J88388D01*
G01*
G37*
G36*
G01*
X93093325Y-96791674D02*
X93270102Y-96614898D01*
G75*
G02*
X93446878Y-96614898I88388J-88388D01*
G01*
X94330761Y-97498781D01*
G75*
G02*
X94330761Y-97675557I-88388J-88388D01*
G01*
X94153984Y-97852334D01*
G75*
G02*
X93977208Y-97852334I-88388J88388D01*
G01*
X93093325Y-96968451D01*
G75*
G02*
X93093325Y-96791675I88388J88388D01*
G01*
G37*
G36*
G01*
X92527639Y-97357359D02*
X92704416Y-97180583D01*
G75*
G02*
X92881192Y-97180583I88388J-88388D01*
G01*
X93765075Y-98064466D01*
G75*
G02*
X93765075Y-98241242I-88388J-88388D01*
G01*
X93588298Y-98418019D01*
G75*
G02*
X93411522Y-98418019I-88388J88388D01*
G01*
X92527639Y-97534136D01*
G75*
G02*
X92527639Y-97357360I88388J88388D01*
G01*
G37*
G36*
G01*
X91961954Y-97923044D02*
X92138731Y-97746268D01*
G75*
G02*
X92315507Y-97746268I88388J-88388D01*
G01*
X93199390Y-98630151D01*
G75*
G02*
X93199390Y-98806927I-88388J-88388D01*
G01*
X93022613Y-98983704D01*
G75*
G02*
X92845837Y-98983704I-88388J88388D01*
G01*
X91961954Y-98099821D01*
G75*
G02*
X91961954Y-97923045I88388J88388D01*
G01*
G37*
G36*
G01*
X91396268Y-98488730D02*
X91573045Y-98311954D01*
G75*
G02*
X91749821Y-98311954I88388J-88388D01*
G01*
X92633704Y-99195837D01*
G75*
G02*
X92633704Y-99372613I-88388J-88388D01*
G01*
X92456927Y-99549390D01*
G75*
G02*
X92280151Y-99549390I-88388J88388D01*
G01*
X91396268Y-98665507D01*
G75*
G02*
X91396268Y-98488731I88388J88388D01*
G01*
G37*
G36*
G01*
X90830583Y-99054415D02*
X91007360Y-98877639D01*
G75*
G02*
X91184136Y-98877639I88388J-88388D01*
G01*
X92068019Y-99761522D01*
G75*
G02*
X92068019Y-99938298I-88388J-88388D01*
G01*
X91891242Y-100115075D01*
G75*
G02*
X91714466Y-100115075I-88388J88388D01*
G01*
X90830583Y-99231192D01*
G75*
G02*
X90830583Y-99054416I88388J88388D01*
G01*
G37*
G36*
G01*
X90264898Y-99620101D02*
X90441675Y-99443325D01*
G75*
G02*
X90618451Y-99443325I88388J-88388D01*
G01*
X91502334Y-100327208D01*
G75*
G02*
X91502334Y-100503984I-88388J-88388D01*
G01*
X91325557Y-100680761D01*
G75*
G02*
X91148781Y-100680761I-88388J88388D01*
G01*
X90264898Y-99796878D01*
G75*
G02*
X90264898Y-99620102I88388J88388D01*
G01*
G37*
G36*
G01*
X89699212Y-100185786D02*
X89875989Y-100009010D01*
G75*
G02*
X90052765Y-100009010I88388J-88388D01*
G01*
X90936648Y-100892893D01*
G75*
G02*
X90936648Y-101069669I-88388J-88388D01*
G01*
X90759871Y-101246446D01*
G75*
G02*
X90583095Y-101246446I-88388J88388D01*
G01*
X89699212Y-100362563D01*
G75*
G02*
X89699212Y-100185787I88388J88388D01*
G01*
G37*
%TD*%
%TO.C,U2*%
G36*
G01*
X108054000Y-84812000D02*
X108354000Y-84812000D01*
G75*
G02*
X108504000Y-84962000I0J-150000D01*
G01*
X108504000Y-86612000D01*
G75*
G02*
X108354000Y-86762000I-150000J0D01*
G01*
X108054000Y-86762000D01*
G75*
G02*
X107904000Y-86612000I0J150000D01*
G01*
X107904000Y-84962000D01*
G75*
G02*
X108054000Y-84812000I150000J0D01*
G01*
G37*
G36*
G01*
X109324000Y-84812000D02*
X109624000Y-84812000D01*
G75*
G02*
X109774000Y-84962000I0J-150000D01*
G01*
X109774000Y-86612000D01*
G75*
G02*
X109624000Y-86762000I-150000J0D01*
G01*
X109324000Y-86762000D01*
G75*
G02*
X109174000Y-86612000I0J150000D01*
G01*
X109174000Y-84962000D01*
G75*
G02*
X109324000Y-84812000I150000J0D01*
G01*
G37*
G36*
G01*
X110594000Y-84812000D02*
X110894000Y-84812000D01*
G75*
G02*
X111044000Y-84962000I0J-150000D01*
G01*
X111044000Y-86612000D01*
G75*
G02*
X110894000Y-86762000I-150000J0D01*
G01*
X110594000Y-86762000D01*
G75*
G02*
X110444000Y-86612000I0J150000D01*
G01*
X110444000Y-84962000D01*
G75*
G02*
X110594000Y-84812000I150000J0D01*
G01*
G37*
G36*
G01*
X111864000Y-84812000D02*
X112164000Y-84812000D01*
G75*
G02*
X112314000Y-84962000I0J-150000D01*
G01*
X112314000Y-86612000D01*
G75*
G02*
X112164000Y-86762000I-150000J0D01*
G01*
X111864000Y-86762000D01*
G75*
G02*
X111714000Y-86612000I0J150000D01*
G01*
X111714000Y-84962000D01*
G75*
G02*
X111864000Y-84812000I150000J0D01*
G01*
G37*
G36*
G01*
X111864000Y-79862000D02*
X112164000Y-79862000D01*
G75*
G02*
X112314000Y-80012000I0J-150000D01*
G01*
X112314000Y-81662000D01*
G75*
G02*
X112164000Y-81812000I-150000J0D01*
G01*
X111864000Y-81812000D01*
G75*
G02*
X111714000Y-81662000I0J150000D01*
G01*
X111714000Y-80012000D01*
G75*
G02*
X111864000Y-79862000I150000J0D01*
G01*
G37*
G36*
G01*
X110594000Y-79862000D02*
X110894000Y-79862000D01*
G75*
G02*
X111044000Y-80012000I0J-150000D01*
G01*
X111044000Y-81662000D01*
G75*
G02*
X110894000Y-81812000I-150000J0D01*
G01*
X110594000Y-81812000D01*
G75*
G02*
X110444000Y-81662000I0J150000D01*
G01*
X110444000Y-80012000D01*
G75*
G02*
X110594000Y-79862000I150000J0D01*
G01*
G37*
G36*
G01*
X109324000Y-79862000D02*
X109624000Y-79862000D01*
G75*
G02*
X109774000Y-80012000I0J-150000D01*
G01*
X109774000Y-81662000D01*
G75*
G02*
X109624000Y-81812000I-150000J0D01*
G01*
X109324000Y-81812000D01*
G75*
G02*
X109174000Y-81662000I0J150000D01*
G01*
X109174000Y-80012000D01*
G75*
G02*
X109324000Y-79862000I150000J0D01*
G01*
G37*
G36*
G01*
X108054000Y-79862000D02*
X108354000Y-79862000D01*
G75*
G02*
X108504000Y-80012000I0J-150000D01*
G01*
X108504000Y-81662000D01*
G75*
G02*
X108354000Y-81812000I-150000J0D01*
G01*
X108054000Y-81812000D01*
G75*
G02*
X107904000Y-81662000I0J150000D01*
G01*
X107904000Y-80012000D01*
G75*
G02*
X108054000Y-79862000I150000J0D01*
G01*
G37*
%TD*%
%TO.C,R22*%
G36*
G01*
X107384001Y-89221000D02*
X106483999Y-89221000D01*
G75*
G02*
X106234000Y-88971001I0J249999D01*
G01*
X106234000Y-88320999D01*
G75*
G02*
X106483999Y-88071000I249999J0D01*
G01*
X107384001Y-88071000D01*
G75*
G02*
X107634000Y-88320999I0J-249999D01*
G01*
X107634000Y-88971001D01*
G75*
G02*
X107384001Y-89221000I-249999J0D01*
G01*
G37*
G36*
G01*
X107384001Y-91271000D02*
X106483999Y-91271000D01*
G75*
G02*
X106234000Y-91021001I0J249999D01*
G01*
X106234000Y-90370999D01*
G75*
G02*
X106483999Y-90121000I249999J0D01*
G01*
X107384001Y-90121000D01*
G75*
G02*
X107634000Y-90370999I0J-249999D01*
G01*
X107634000Y-91021001D01*
G75*
G02*
X107384001Y-91271000I-249999J0D01*
G01*
G37*
%TD*%
%TO.C,R21*%
G36*
G01*
X112198999Y-90121000D02*
X113099001Y-90121000D01*
G75*
G02*
X113349000Y-90370999I0J-249999D01*
G01*
X113349000Y-91021001D01*
G75*
G02*
X113099001Y-91271000I-249999J0D01*
G01*
X112198999Y-91271000D01*
G75*
G02*
X111949000Y-91021001I0J249999D01*
G01*
X111949000Y-90370999D01*
G75*
G02*
X112198999Y-90121000I249999J0D01*
G01*
G37*
G36*
G01*
X112198999Y-88071000D02*
X113099001Y-88071000D01*
G75*
G02*
X113349000Y-88320999I0J-249999D01*
G01*
X113349000Y-88971001D01*
G75*
G02*
X113099001Y-89221000I-249999J0D01*
G01*
X112198999Y-89221000D01*
G75*
G02*
X111949000Y-88971001I0J249999D01*
G01*
X111949000Y-88320999D01*
G75*
G02*
X112198999Y-88071000I249999J0D01*
G01*
G37*
%TD*%
%TO.C,R20*%
G36*
G01*
X109277999Y-90121000D02*
X110178001Y-90121000D01*
G75*
G02*
X110428000Y-90370999I0J-249999D01*
G01*
X110428000Y-91021001D01*
G75*
G02*
X110178001Y-91271000I-249999J0D01*
G01*
X109277999Y-91271000D01*
G75*
G02*
X109028000Y-91021001I0J249999D01*
G01*
X109028000Y-90370999D01*
G75*
G02*
X109277999Y-90121000I249999J0D01*
G01*
G37*
G36*
G01*
X109277999Y-88071000D02*
X110178001Y-88071000D01*
G75*
G02*
X110428000Y-88320999I0J-249999D01*
G01*
X110428000Y-88971001D01*
G75*
G02*
X110178001Y-89221000I-249999J0D01*
G01*
X109277999Y-89221000D01*
G75*
G02*
X109028000Y-88971001I0J249999D01*
G01*
X109028000Y-88320999D01*
G75*
G02*
X109277999Y-88071000I249999J0D01*
G01*
G37*
%TD*%
%TO.C,R18*%
G36*
G01*
X106737999Y-77403000D02*
X107638001Y-77403000D01*
G75*
G02*
X107888000Y-77652999I0J-249999D01*
G01*
X107888000Y-78303001D01*
G75*
G02*
X107638001Y-78553000I-249999J0D01*
G01*
X106737999Y-78553000D01*
G75*
G02*
X106488000Y-78303001I0J249999D01*
G01*
X106488000Y-77652999D01*
G75*
G02*
X106737999Y-77403000I249999J0D01*
G01*
G37*
G36*
G01*
X106737999Y-75353000D02*
X107638001Y-75353000D01*
G75*
G02*
X107888000Y-75602999I0J-249999D01*
G01*
X107888000Y-76253001D01*
G75*
G02*
X107638001Y-76503000I-249999J0D01*
G01*
X106737999Y-76503000D01*
G75*
G02*
X106488000Y-76253001I0J249999D01*
G01*
X106488000Y-75602999D01*
G75*
G02*
X106737999Y-75353000I249999J0D01*
G01*
G37*
%TD*%
%TO.C,R17*%
G36*
G01*
X113226001Y-76503000D02*
X112325999Y-76503000D01*
G75*
G02*
X112076000Y-76253001I0J249999D01*
G01*
X112076000Y-75602999D01*
G75*
G02*
X112325999Y-75353000I249999J0D01*
G01*
X113226001Y-75353000D01*
G75*
G02*
X113476000Y-75602999I0J-249999D01*
G01*
X113476000Y-76253001D01*
G75*
G02*
X113226001Y-76503000I-249999J0D01*
G01*
G37*
G36*
G01*
X113226001Y-78553000D02*
X112325999Y-78553000D01*
G75*
G02*
X112076000Y-78303001I0J249999D01*
G01*
X112076000Y-77652999D01*
G75*
G02*
X112325999Y-77403000I249999J0D01*
G01*
X113226001Y-77403000D01*
G75*
G02*
X113476000Y-77652999I0J-249999D01*
G01*
X113476000Y-78303001D01*
G75*
G02*
X113226001Y-78553000I-249999J0D01*
G01*
G37*
%TD*%
%TO.C,R16*%
G36*
G01*
X110432001Y-76503000D02*
X109531999Y-76503000D01*
G75*
G02*
X109282000Y-76253001I0J249999D01*
G01*
X109282000Y-75602999D01*
G75*
G02*
X109531999Y-75353000I249999J0D01*
G01*
X110432001Y-75353000D01*
G75*
G02*
X110682000Y-75602999I0J-249999D01*
G01*
X110682000Y-76253001D01*
G75*
G02*
X110432001Y-76503000I-249999J0D01*
G01*
G37*
G36*
G01*
X110432001Y-78553000D02*
X109531999Y-78553000D01*
G75*
G02*
X109282000Y-78303001I0J249999D01*
G01*
X109282000Y-77652999D01*
G75*
G02*
X109531999Y-77403000I249999J0D01*
G01*
X110432001Y-77403000D01*
G75*
G02*
X110682000Y-77652999I0J-249999D01*
G01*
X110682000Y-78303001D01*
G75*
G02*
X110432001Y-78553000I-249999J0D01*
G01*
G37*
%TD*%
%TO.C,R15*%
G36*
G01*
X87425000Y-70669999D02*
X87425000Y-71570001D01*
G75*
G02*
X87175001Y-71820000I-249999J0D01*
G01*
X86524999Y-71820000D01*
G75*
G02*
X86275000Y-71570001I0J249999D01*
G01*
X86275000Y-70669999D01*
G75*
G02*
X86524999Y-70420000I249999J0D01*
G01*
X87175001Y-70420000D01*
G75*
G02*
X87425000Y-70669999I0J-249999D01*
G01*
G37*
G36*
G01*
X89475000Y-70669999D02*
X89475000Y-71570001D01*
G75*
G02*
X89225001Y-71820000I-249999J0D01*
G01*
X88574999Y-71820000D01*
G75*
G02*
X88325000Y-71570001I0J249999D01*
G01*
X88325000Y-70669999D01*
G75*
G02*
X88574999Y-70420000I249999J0D01*
G01*
X89225001Y-70420000D01*
G75*
G02*
X89475000Y-70669999I0J-249999D01*
G01*
G37*
%TD*%
%TO.C,R14*%
G36*
G01*
X121608001Y-98356000D02*
X120707999Y-98356000D01*
G75*
G02*
X120458000Y-98106001I0J249999D01*
G01*
X120458000Y-97455999D01*
G75*
G02*
X120707999Y-97206000I249999J0D01*
G01*
X121608001Y-97206000D01*
G75*
G02*
X121858000Y-97455999I0J-249999D01*
G01*
X121858000Y-98106001D01*
G75*
G02*
X121608001Y-98356000I-249999J0D01*
G01*
G37*
G36*
G01*
X121608001Y-100406000D02*
X120707999Y-100406000D01*
G75*
G02*
X120458000Y-100156001I0J249999D01*
G01*
X120458000Y-99505999D01*
G75*
G02*
X120707999Y-99256000I249999J0D01*
G01*
X121608001Y-99256000D01*
G75*
G02*
X121858000Y-99505999I0J-249999D01*
G01*
X121858000Y-100156001D01*
G75*
G02*
X121608001Y-100406000I-249999J0D01*
G01*
G37*
%TD*%
%TO.C,R13*%
G36*
G01*
X114992999Y-99247000D02*
X115893001Y-99247000D01*
G75*
G02*
X116143000Y-99496999I0J-249999D01*
G01*
X116143000Y-100147001D01*
G75*
G02*
X115893001Y-100397000I-249999J0D01*
G01*
X114992999Y-100397000D01*
G75*
G02*
X114743000Y-100147001I0J249999D01*
G01*
X114743000Y-99496999D01*
G75*
G02*
X114992999Y-99247000I249999J0D01*
G01*
G37*
G36*
G01*
X114992999Y-97197000D02*
X115893001Y-97197000D01*
G75*
G02*
X116143000Y-97446999I0J-249999D01*
G01*
X116143000Y-98097001D01*
G75*
G02*
X115893001Y-98347000I-249999J0D01*
G01*
X114992999Y-98347000D01*
G75*
G02*
X114743000Y-98097001I0J249999D01*
G01*
X114743000Y-97446999D01*
G75*
G02*
X114992999Y-97197000I249999J0D01*
G01*
G37*
%TD*%
%TO.C,R10*%
G36*
G01*
X122739999Y-90121000D02*
X123640001Y-90121000D01*
G75*
G02*
X123890000Y-90370999I0J-249999D01*
G01*
X123890000Y-91021001D01*
G75*
G02*
X123640001Y-91271000I-249999J0D01*
G01*
X122739999Y-91271000D01*
G75*
G02*
X122490000Y-91021001I0J249999D01*
G01*
X122490000Y-90370999D01*
G75*
G02*
X122739999Y-90121000I249999J0D01*
G01*
G37*
G36*
G01*
X122739999Y-88071000D02*
X123640001Y-88071000D01*
G75*
G02*
X123890000Y-88320999I0J-249999D01*
G01*
X123890000Y-88971001D01*
G75*
G02*
X123640001Y-89221000I-249999J0D01*
G01*
X122739999Y-89221000D01*
G75*
G02*
X122490000Y-88971001I0J249999D01*
G01*
X122490000Y-88320999D01*
G75*
G02*
X122739999Y-88071000I249999J0D01*
G01*
G37*
%TD*%
%TO.C,R9*%
G36*
G01*
X128327999Y-90103000D02*
X129228001Y-90103000D01*
G75*
G02*
X129478000Y-90352999I0J-249999D01*
G01*
X129478000Y-91003001D01*
G75*
G02*
X129228001Y-91253000I-249999J0D01*
G01*
X128327999Y-91253000D01*
G75*
G02*
X128078000Y-91003001I0J249999D01*
G01*
X128078000Y-90352999D01*
G75*
G02*
X128327999Y-90103000I249999J0D01*
G01*
G37*
G36*
G01*
X128327999Y-88053000D02*
X129228001Y-88053000D01*
G75*
G02*
X129478000Y-88302999I0J-249999D01*
G01*
X129478000Y-88953001D01*
G75*
G02*
X129228001Y-89203000I-249999J0D01*
G01*
X128327999Y-89203000D01*
G75*
G02*
X128078000Y-88953001I0J249999D01*
G01*
X128078000Y-88302999D01*
G75*
G02*
X128327999Y-88053000I249999J0D01*
G01*
G37*
%TD*%
%TO.C,R8*%
G36*
G01*
X125279999Y-77403000D02*
X126180001Y-77403000D01*
G75*
G02*
X126430000Y-77652999I0J-249999D01*
G01*
X126430000Y-78303001D01*
G75*
G02*
X126180001Y-78553000I-249999J0D01*
G01*
X125279999Y-78553000D01*
G75*
G02*
X125030000Y-78303001I0J249999D01*
G01*
X125030000Y-77652999D01*
G75*
G02*
X125279999Y-77403000I249999J0D01*
G01*
G37*
G36*
G01*
X125279999Y-75353000D02*
X126180001Y-75353000D01*
G75*
G02*
X126430000Y-75602999I0J-249999D01*
G01*
X126430000Y-76253001D01*
G75*
G02*
X126180001Y-76503000I-249999J0D01*
G01*
X125279999Y-76503000D01*
G75*
G02*
X125030000Y-76253001I0J249999D01*
G01*
X125030000Y-75602999D01*
G75*
G02*
X125279999Y-75353000I249999J0D01*
G01*
G37*
%TD*%
%TO.C,R7*%
G36*
G01*
X123640001Y-76503000D02*
X122739999Y-76503000D01*
G75*
G02*
X122490000Y-76253001I0J249999D01*
G01*
X122490000Y-75602999D01*
G75*
G02*
X122739999Y-75353000I249999J0D01*
G01*
X123640001Y-75353000D01*
G75*
G02*
X123890000Y-75602999I0J-249999D01*
G01*
X123890000Y-76253001D01*
G75*
G02*
X123640001Y-76503000I-249999J0D01*
G01*
G37*
G36*
G01*
X123640001Y-78553000D02*
X122739999Y-78553000D01*
G75*
G02*
X122490000Y-78303001I0J249999D01*
G01*
X122490000Y-77652999D01*
G75*
G02*
X122739999Y-77403000I249999J0D01*
G01*
X123640001Y-77403000D01*
G75*
G02*
X123890000Y-77652999I0J-249999D01*
G01*
X123890000Y-78303001D01*
G75*
G02*
X123640001Y-78553000I-249999J0D01*
G01*
G37*
%TD*%
%TO.C,R6*%
G36*
G01*
X121100001Y-76503000D02*
X120199999Y-76503000D01*
G75*
G02*
X119950000Y-76253001I0J249999D01*
G01*
X119950000Y-75602999D01*
G75*
G02*
X120199999Y-75353000I249999J0D01*
G01*
X121100001Y-75353000D01*
G75*
G02*
X121350000Y-75602999I0J-249999D01*
G01*
X121350000Y-76253001D01*
G75*
G02*
X121100001Y-76503000I-249999J0D01*
G01*
G37*
G36*
G01*
X121100001Y-78553000D02*
X120199999Y-78553000D01*
G75*
G02*
X119950000Y-78303001I0J249999D01*
G01*
X119950000Y-77652999D01*
G75*
G02*
X120199999Y-77403000I249999J0D01*
G01*
X121100001Y-77403000D01*
G75*
G02*
X121350000Y-77652999I0J-249999D01*
G01*
X121350000Y-78303001D01*
G75*
G02*
X121100001Y-78553000I-249999J0D01*
G01*
G37*
%TD*%
%TO.C,R4*%
G36*
G01*
X87687999Y-107502000D02*
X88588001Y-107502000D01*
G75*
G02*
X88838000Y-107751999I0J-249999D01*
G01*
X88838000Y-108402001D01*
G75*
G02*
X88588001Y-108652000I-249999J0D01*
G01*
X87687999Y-108652000D01*
G75*
G02*
X87438000Y-108402001I0J249999D01*
G01*
X87438000Y-107751999D01*
G75*
G02*
X87687999Y-107502000I249999J0D01*
G01*
G37*
G36*
G01*
X87687999Y-105452000D02*
X88588001Y-105452000D01*
G75*
G02*
X88838000Y-105701999I0J-249999D01*
G01*
X88838000Y-106352001D01*
G75*
G02*
X88588001Y-106602000I-249999J0D01*
G01*
X87687999Y-106602000D01*
G75*
G02*
X87438000Y-106352001I0J249999D01*
G01*
X87438000Y-105701999D01*
G75*
G02*
X87687999Y-105452000I249999J0D01*
G01*
G37*
%TD*%
%TO.C,R3*%
G36*
G01*
X131629999Y-63197000D02*
X132530001Y-63197000D01*
G75*
G02*
X132780000Y-63446999I0J-249999D01*
G01*
X132780000Y-64097001D01*
G75*
G02*
X132530001Y-64347000I-249999J0D01*
G01*
X131629999Y-64347000D01*
G75*
G02*
X131380000Y-64097001I0J249999D01*
G01*
X131380000Y-63446999D01*
G75*
G02*
X131629999Y-63197000I249999J0D01*
G01*
G37*
G36*
G01*
X131629999Y-61147000D02*
X132530001Y-61147000D01*
G75*
G02*
X132780000Y-61396999I0J-249999D01*
G01*
X132780000Y-62047001D01*
G75*
G02*
X132530001Y-62297000I-249999J0D01*
G01*
X131629999Y-62297000D01*
G75*
G02*
X131380000Y-62047001I0J249999D01*
G01*
X131380000Y-61396999D01*
G75*
G02*
X131629999Y-61147000I249999J0D01*
G01*
G37*
%TD*%
%TO.C,R2*%
G36*
G01*
X136709999Y-63197000D02*
X137610001Y-63197000D01*
G75*
G02*
X137860000Y-63446999I0J-249999D01*
G01*
X137860000Y-64097001D01*
G75*
G02*
X137610001Y-64347000I-249999J0D01*
G01*
X136709999Y-64347000D01*
G75*
G02*
X136460000Y-64097001I0J249999D01*
G01*
X136460000Y-63446999D01*
G75*
G02*
X136709999Y-63197000I249999J0D01*
G01*
G37*
G36*
G01*
X136709999Y-61147000D02*
X137610001Y-61147000D01*
G75*
G02*
X137860000Y-61396999I0J-249999D01*
G01*
X137860000Y-62047001D01*
G75*
G02*
X137610001Y-62297000I-249999J0D01*
G01*
X136709999Y-62297000D01*
G75*
G02*
X136460000Y-62047001I0J249999D01*
G01*
X136460000Y-61396999D01*
G75*
G02*
X136709999Y-61147000I249999J0D01*
G01*
G37*
%TD*%
%TO.C,R1*%
G36*
G01*
X87064001Y-92759000D02*
X86163999Y-92759000D01*
G75*
G02*
X85914000Y-92509001I0J249999D01*
G01*
X85914000Y-91858999D01*
G75*
G02*
X86163999Y-91609000I249999J0D01*
G01*
X87064001Y-91609000D01*
G75*
G02*
X87314000Y-91858999I0J-249999D01*
G01*
X87314000Y-92509001D01*
G75*
G02*
X87064001Y-92759000I-249999J0D01*
G01*
G37*
G36*
G01*
X87064001Y-94809000D02*
X86163999Y-94809000D01*
G75*
G02*
X85914000Y-94559001I0J249999D01*
G01*
X85914000Y-93908999D01*
G75*
G02*
X86163999Y-93659000I249999J0D01*
G01*
X87064001Y-93659000D01*
G75*
G02*
X87314000Y-93908999I0J-249999D01*
G01*
X87314000Y-94559001D01*
G75*
G02*
X87064001Y-94809000I-249999J0D01*
G01*
G37*
%TD*%
%TO.C,FB2*%
G36*
G01*
X105098001Y-62805000D02*
X104197999Y-62805000D01*
G75*
G02*
X103948000Y-62555001I0J249999D01*
G01*
X103948000Y-61904999D01*
G75*
G02*
X104197999Y-61655000I249999J0D01*
G01*
X105098001Y-61655000D01*
G75*
G02*
X105348000Y-61904999I0J-249999D01*
G01*
X105348000Y-62555001D01*
G75*
G02*
X105098001Y-62805000I-249999J0D01*
G01*
G37*
G36*
G01*
X105098001Y-64855000D02*
X104197999Y-64855000D01*
G75*
G02*
X103948000Y-64605001I0J249999D01*
G01*
X103948000Y-63954999D01*
G75*
G02*
X104197999Y-63705000I249999J0D01*
G01*
X105098001Y-63705000D01*
G75*
G02*
X105348000Y-63954999I0J-249999D01*
G01*
X105348000Y-64605001D01*
G75*
G02*
X105098001Y-64855000I-249999J0D01*
G01*
G37*
%TD*%
%TO.C,FB1*%
G36*
G01*
X98621001Y-92759000D02*
X97720999Y-92759000D01*
G75*
G02*
X97471000Y-92509001I0J249999D01*
G01*
X97471000Y-91858999D01*
G75*
G02*
X97720999Y-91609000I249999J0D01*
G01*
X98621001Y-91609000D01*
G75*
G02*
X98871000Y-91858999I0J-249999D01*
G01*
X98871000Y-92509001D01*
G75*
G02*
X98621001Y-92759000I-249999J0D01*
G01*
G37*
G36*
G01*
X98621001Y-94809000D02*
X97720999Y-94809000D01*
G75*
G02*
X97471000Y-94559001I0J249999D01*
G01*
X97471000Y-93908999D01*
G75*
G02*
X97720999Y-93659000I249999J0D01*
G01*
X98621001Y-93659000D01*
G75*
G02*
X98871000Y-93908999I0J-249999D01*
G01*
X98871000Y-94559001D01*
G75*
G02*
X98621001Y-94809000I-249999J0D01*
G01*
G37*
%TD*%
D13*
%TO.C,D2*%
X98173000Y-62230000D03*
X101473000Y-62230000D03*
%TD*%
%TO.C,C26*%
G36*
G01*
X104590001Y-89221000D02*
X103689999Y-89221000D01*
G75*
G02*
X103440000Y-88971001I0J249999D01*
G01*
X103440000Y-88320999D01*
G75*
G02*
X103689999Y-88071000I249999J0D01*
G01*
X104590001Y-88071000D01*
G75*
G02*
X104840000Y-88320999I0J-249999D01*
G01*
X104840000Y-88971001D01*
G75*
G02*
X104590001Y-89221000I-249999J0D01*
G01*
G37*
G36*
G01*
X104590001Y-91271000D02*
X103689999Y-91271000D01*
G75*
G02*
X103440000Y-91021001I0J249999D01*
G01*
X103440000Y-90370999D01*
G75*
G02*
X103689999Y-90121000I249999J0D01*
G01*
X104590001Y-90121000D01*
G75*
G02*
X104840000Y-90370999I0J-249999D01*
G01*
X104840000Y-91021001D01*
G75*
G02*
X104590001Y-91271000I-249999J0D01*
G01*
G37*
%TD*%
%TO.C,C25*%
G36*
G01*
X116020001Y-89221000D02*
X115119999Y-89221000D01*
G75*
G02*
X114870000Y-88971001I0J249999D01*
G01*
X114870000Y-88320999D01*
G75*
G02*
X115119999Y-88071000I249999J0D01*
G01*
X116020001Y-88071000D01*
G75*
G02*
X116270000Y-88320999I0J-249999D01*
G01*
X116270000Y-88971001D01*
G75*
G02*
X116020001Y-89221000I-249999J0D01*
G01*
G37*
G36*
G01*
X116020001Y-91271000D02*
X115119999Y-91271000D01*
G75*
G02*
X114870000Y-91021001I0J249999D01*
G01*
X114870000Y-90370999D01*
G75*
G02*
X115119999Y-90121000I249999J0D01*
G01*
X116020001Y-90121000D01*
G75*
G02*
X116270000Y-90370999I0J-249999D01*
G01*
X116270000Y-91021001D01*
G75*
G02*
X116020001Y-91271000I-249999J0D01*
G01*
G37*
%TD*%
%TO.C,C24*%
G36*
G01*
X103943999Y-77403000D02*
X104844001Y-77403000D01*
G75*
G02*
X105094000Y-77652999I0J-249999D01*
G01*
X105094000Y-78303001D01*
G75*
G02*
X104844001Y-78553000I-249999J0D01*
G01*
X103943999Y-78553000D01*
G75*
G02*
X103694000Y-78303001I0J249999D01*
G01*
X103694000Y-77652999D01*
G75*
G02*
X103943999Y-77403000I249999J0D01*
G01*
G37*
G36*
G01*
X103943999Y-75353000D02*
X104844001Y-75353000D01*
G75*
G02*
X105094000Y-75602999I0J-249999D01*
G01*
X105094000Y-76253001D01*
G75*
G02*
X104844001Y-76503000I-249999J0D01*
G01*
X103943999Y-76503000D01*
G75*
G02*
X103694000Y-76253001I0J249999D01*
G01*
X103694000Y-75602999D01*
G75*
G02*
X103943999Y-75353000I249999J0D01*
G01*
G37*
%TD*%
%TO.C,C23*%
G36*
G01*
X115119999Y-77403000D02*
X116020001Y-77403000D01*
G75*
G02*
X116270000Y-77652999I0J-249999D01*
G01*
X116270000Y-78303001D01*
G75*
G02*
X116020001Y-78553000I-249999J0D01*
G01*
X115119999Y-78553000D01*
G75*
G02*
X114870000Y-78303001I0J249999D01*
G01*
X114870000Y-77652999D01*
G75*
G02*
X115119999Y-77403000I249999J0D01*
G01*
G37*
G36*
G01*
X115119999Y-75353000D02*
X116020001Y-75353000D01*
G75*
G02*
X116270000Y-75602999I0J-249999D01*
G01*
X116270000Y-76253001D01*
G75*
G02*
X116020001Y-76503000I-249999J0D01*
G01*
X115119999Y-76503000D01*
G75*
G02*
X114870000Y-76253001I0J249999D01*
G01*
X114870000Y-75602999D01*
G75*
G02*
X115119999Y-75353000I249999J0D01*
G01*
G37*
%TD*%
%TO.C,C22*%
G36*
G01*
X118814001Y-98356000D02*
X117913999Y-98356000D01*
G75*
G02*
X117664000Y-98106001I0J249999D01*
G01*
X117664000Y-97455999D01*
G75*
G02*
X117913999Y-97206000I249999J0D01*
G01*
X118814001Y-97206000D01*
G75*
G02*
X119064000Y-97455999I0J-249999D01*
G01*
X119064000Y-98106001D01*
G75*
G02*
X118814001Y-98356000I-249999J0D01*
G01*
G37*
G36*
G01*
X118814001Y-100406000D02*
X117913999Y-100406000D01*
G75*
G02*
X117664000Y-100156001I0J249999D01*
G01*
X117664000Y-99505999D01*
G75*
G02*
X117913999Y-99256000I249999J0D01*
G01*
X118814001Y-99256000D01*
G75*
G02*
X119064000Y-99505999I0J-249999D01*
G01*
X119064000Y-100156001D01*
G75*
G02*
X118814001Y-100406000I-249999J0D01*
G01*
G37*
%TD*%
%TO.C,C21*%
G36*
G01*
X104590001Y-82862000D02*
X103689999Y-82862000D01*
G75*
G02*
X103440000Y-82612001I0J249999D01*
G01*
X103440000Y-81961999D01*
G75*
G02*
X103689999Y-81712000I249999J0D01*
G01*
X104590001Y-81712000D01*
G75*
G02*
X104840000Y-81961999I0J-249999D01*
G01*
X104840000Y-82612001D01*
G75*
G02*
X104590001Y-82862000I-249999J0D01*
G01*
G37*
G36*
G01*
X104590001Y-84912000D02*
X103689999Y-84912000D01*
G75*
G02*
X103440000Y-84662001I0J249999D01*
G01*
X103440000Y-84011999D01*
G75*
G02*
X103689999Y-83762000I249999J0D01*
G01*
X104590001Y-83762000D01*
G75*
G02*
X104840000Y-84011999I0J-249999D01*
G01*
X104840000Y-84662001D01*
G75*
G02*
X104590001Y-84912000I-249999J0D01*
G01*
G37*
%TD*%
%TO.C,C20*%
G36*
G01*
X94684001Y-67876000D02*
X93783999Y-67876000D01*
G75*
G02*
X93534000Y-67626001I0J249999D01*
G01*
X93534000Y-66975999D01*
G75*
G02*
X93783999Y-66726000I249999J0D01*
G01*
X94684001Y-66726000D01*
G75*
G02*
X94934000Y-66975999I0J-249999D01*
G01*
X94934000Y-67626001D01*
G75*
G02*
X94684001Y-67876000I-249999J0D01*
G01*
G37*
G36*
G01*
X94684001Y-69926000D02*
X93783999Y-69926000D01*
G75*
G02*
X93534000Y-69676001I0J249999D01*
G01*
X93534000Y-69025999D01*
G75*
G02*
X93783999Y-68776000I249999J0D01*
G01*
X94684001Y-68776000D01*
G75*
G02*
X94934000Y-69025999I0J-249999D01*
G01*
X94934000Y-69676001D01*
G75*
G02*
X94684001Y-69926000I-249999J0D01*
G01*
G37*
%TD*%
%TO.C,C19*%
G36*
G01*
X114750001Y-82853000D02*
X113849999Y-82853000D01*
G75*
G02*
X113600000Y-82603001I0J249999D01*
G01*
X113600000Y-81952999D01*
G75*
G02*
X113849999Y-81703000I249999J0D01*
G01*
X114750001Y-81703000D01*
G75*
G02*
X115000000Y-81952999I0J-249999D01*
G01*
X115000000Y-82603001D01*
G75*
G02*
X114750001Y-82853000I-249999J0D01*
G01*
G37*
G36*
G01*
X114750001Y-84903000D02*
X113849999Y-84903000D01*
G75*
G02*
X113600000Y-84653001I0J249999D01*
G01*
X113600000Y-84002999D01*
G75*
G02*
X113849999Y-83753000I249999J0D01*
G01*
X114750001Y-83753000D01*
G75*
G02*
X115000000Y-84002999I0J-249999D01*
G01*
X115000000Y-84653001D01*
G75*
G02*
X114750001Y-84903000I-249999J0D01*
G01*
G37*
%TD*%
%TO.C,C18*%
G36*
G01*
X128212001Y-82862000D02*
X127311999Y-82862000D01*
G75*
G02*
X127062000Y-82612001I0J249999D01*
G01*
X127062000Y-81961999D01*
G75*
G02*
X127311999Y-81712000I249999J0D01*
G01*
X128212001Y-81712000D01*
G75*
G02*
X128462000Y-81961999I0J-249999D01*
G01*
X128462000Y-82612001D01*
G75*
G02*
X128212001Y-82862000I-249999J0D01*
G01*
G37*
G36*
G01*
X128212001Y-84912000D02*
X127311999Y-84912000D01*
G75*
G02*
X127062000Y-84662001I0J249999D01*
G01*
X127062000Y-84011999D01*
G75*
G02*
X127311999Y-83762000I249999J0D01*
G01*
X128212001Y-83762000D01*
G75*
G02*
X128462000Y-84011999I0J-249999D01*
G01*
X128462000Y-84662001D01*
G75*
G02*
X128212001Y-84912000I-249999J0D01*
G01*
G37*
%TD*%
%TO.C,C17*%
G36*
G01*
X104197999Y-69275000D02*
X105098001Y-69275000D01*
G75*
G02*
X105348000Y-69524999I0J-249999D01*
G01*
X105348000Y-70175001D01*
G75*
G02*
X105098001Y-70425000I-249999J0D01*
G01*
X104197999Y-70425000D01*
G75*
G02*
X103948000Y-70175001I0J249999D01*
G01*
X103948000Y-69524999D01*
G75*
G02*
X104197999Y-69275000I249999J0D01*
G01*
G37*
G36*
G01*
X104197999Y-67225000D02*
X105098001Y-67225000D01*
G75*
G02*
X105348000Y-67474999I0J-249999D01*
G01*
X105348000Y-68125001D01*
G75*
G02*
X105098001Y-68375000I-249999J0D01*
G01*
X104197999Y-68375000D01*
G75*
G02*
X103948000Y-68125001I0J249999D01*
G01*
X103948000Y-67474999D01*
G75*
G02*
X104197999Y-67225000I249999J0D01*
G01*
G37*
%TD*%
%TO.C,C16*%
G36*
G01*
X117798001Y-82871000D02*
X116897999Y-82871000D01*
G75*
G02*
X116648000Y-82621001I0J249999D01*
G01*
X116648000Y-81970999D01*
G75*
G02*
X116897999Y-81721000I249999J0D01*
G01*
X117798001Y-81721000D01*
G75*
G02*
X118048000Y-81970999I0J-249999D01*
G01*
X118048000Y-82621001D01*
G75*
G02*
X117798001Y-82871000I-249999J0D01*
G01*
G37*
G36*
G01*
X117798001Y-84921000D02*
X116897999Y-84921000D01*
G75*
G02*
X116648000Y-84671001I0J249999D01*
G01*
X116648000Y-84020999D01*
G75*
G02*
X116897999Y-83771000I249999J0D01*
G01*
X117798001Y-83771000D01*
G75*
G02*
X118048000Y-84020999I0J-249999D01*
G01*
X118048000Y-84671001D01*
G75*
G02*
X117798001Y-84921000I-249999J0D01*
G01*
G37*
%TD*%
%TO.C,C15*%
G36*
G01*
X109543001Y-99889000D02*
X108642999Y-99889000D01*
G75*
G02*
X108393000Y-99639001I0J249999D01*
G01*
X108393000Y-98988999D01*
G75*
G02*
X108642999Y-98739000I249999J0D01*
G01*
X109543001Y-98739000D01*
G75*
G02*
X109793000Y-98988999I0J-249999D01*
G01*
X109793000Y-99639001D01*
G75*
G02*
X109543001Y-99889000I-249999J0D01*
G01*
G37*
G36*
G01*
X109543001Y-101939000D02*
X108642999Y-101939000D01*
G75*
G02*
X108393000Y-101689001I0J249999D01*
G01*
X108393000Y-101038999D01*
G75*
G02*
X108642999Y-100789000I249999J0D01*
G01*
X109543001Y-100789000D01*
G75*
G02*
X109793000Y-101038999I0J-249999D01*
G01*
X109793000Y-101689001D01*
G75*
G02*
X109543001Y-101939000I-249999J0D01*
G01*
G37*
%TD*%
%TO.C,C14*%
G36*
G01*
X84893999Y-102059000D02*
X85794001Y-102059000D01*
G75*
G02*
X86044000Y-102308999I0J-249999D01*
G01*
X86044000Y-102959001D01*
G75*
G02*
X85794001Y-103209000I-249999J0D01*
G01*
X84893999Y-103209000D01*
G75*
G02*
X84644000Y-102959001I0J249999D01*
G01*
X84644000Y-102308999D01*
G75*
G02*
X84893999Y-102059000I249999J0D01*
G01*
G37*
G36*
G01*
X84893999Y-100009000D02*
X85794001Y-100009000D01*
G75*
G02*
X86044000Y-100258999I0J-249999D01*
G01*
X86044000Y-100909001D01*
G75*
G02*
X85794001Y-101159000I-249999J0D01*
G01*
X84893999Y-101159000D01*
G75*
G02*
X84644000Y-100909001I0J249999D01*
G01*
X84644000Y-100258999D01*
G75*
G02*
X84893999Y-100009000I249999J0D01*
G01*
G37*
%TD*%
%TO.C,C13*%
G36*
G01*
X92906001Y-92777000D02*
X92005999Y-92777000D01*
G75*
G02*
X91756000Y-92527001I0J249999D01*
G01*
X91756000Y-91876999D01*
G75*
G02*
X92005999Y-91627000I249999J0D01*
G01*
X92906001Y-91627000D01*
G75*
G02*
X93156000Y-91876999I0J-249999D01*
G01*
X93156000Y-92527001D01*
G75*
G02*
X92906001Y-92777000I-249999J0D01*
G01*
G37*
G36*
G01*
X92906001Y-94827000D02*
X92005999Y-94827000D01*
G75*
G02*
X91756000Y-94577001I0J249999D01*
G01*
X91756000Y-93926999D01*
G75*
G02*
X92005999Y-93677000I249999J0D01*
G01*
X92906001Y-93677000D01*
G75*
G02*
X93156000Y-93926999I0J-249999D01*
G01*
X93156000Y-94577001D01*
G75*
G02*
X92906001Y-94827000I-249999J0D01*
G01*
G37*
%TD*%
%TO.C,C12*%
G36*
G01*
X87687999Y-102059000D02*
X88588001Y-102059000D01*
G75*
G02*
X88838000Y-102308999I0J-249999D01*
G01*
X88838000Y-102959001D01*
G75*
G02*
X88588001Y-103209000I-249999J0D01*
G01*
X87687999Y-103209000D01*
G75*
G02*
X87438000Y-102959001I0J249999D01*
G01*
X87438000Y-102308999D01*
G75*
G02*
X87687999Y-102059000I249999J0D01*
G01*
G37*
G36*
G01*
X87687999Y-100009000D02*
X88588001Y-100009000D01*
G75*
G02*
X88838000Y-100258999I0J-249999D01*
G01*
X88838000Y-100909001D01*
G75*
G02*
X88588001Y-101159000I-249999J0D01*
G01*
X87687999Y-101159000D01*
G75*
G02*
X87438000Y-100909001I0J249999D01*
G01*
X87438000Y-100258999D01*
G75*
G02*
X87687999Y-100009000I249999J0D01*
G01*
G37*
%TD*%
%TO.C,C11*%
G36*
G01*
X95827001Y-92759000D02*
X94926999Y-92759000D01*
G75*
G02*
X94677000Y-92509001I0J249999D01*
G01*
X94677000Y-91858999D01*
G75*
G02*
X94926999Y-91609000I249999J0D01*
G01*
X95827001Y-91609000D01*
G75*
G02*
X96077000Y-91858999I0J-249999D01*
G01*
X96077000Y-92509001D01*
G75*
G02*
X95827001Y-92759000I-249999J0D01*
G01*
G37*
G36*
G01*
X95827001Y-94809000D02*
X94926999Y-94809000D01*
G75*
G02*
X94677000Y-94559001I0J249999D01*
G01*
X94677000Y-93908999D01*
G75*
G02*
X94926999Y-93659000I249999J0D01*
G01*
X95827001Y-93659000D01*
G75*
G02*
X96077000Y-93908999I0J-249999D01*
G01*
X96077000Y-94559001D01*
G75*
G02*
X95827001Y-94809000I-249999J0D01*
G01*
G37*
%TD*%
%TO.C,C10*%
G36*
G01*
X103574001Y-99871000D02*
X102673999Y-99871000D01*
G75*
G02*
X102424000Y-99621001I0J249999D01*
G01*
X102424000Y-98970999D01*
G75*
G02*
X102673999Y-98721000I249999J0D01*
G01*
X103574001Y-98721000D01*
G75*
G02*
X103824000Y-98970999I0J-249999D01*
G01*
X103824000Y-99621001D01*
G75*
G02*
X103574001Y-99871000I-249999J0D01*
G01*
G37*
G36*
G01*
X103574001Y-101921000D02*
X102673999Y-101921000D01*
G75*
G02*
X102424000Y-101671001I0J249999D01*
G01*
X102424000Y-101020999D01*
G75*
G02*
X102673999Y-100771000I249999J0D01*
G01*
X103574001Y-100771000D01*
G75*
G02*
X103824000Y-101020999I0J-249999D01*
G01*
X103824000Y-101671001D01*
G75*
G02*
X103574001Y-101921000I-249999J0D01*
G01*
G37*
%TD*%
%TO.C,C9*%
G36*
G01*
X106622001Y-99871000D02*
X105721999Y-99871000D01*
G75*
G02*
X105472000Y-99621001I0J249999D01*
G01*
X105472000Y-98970999D01*
G75*
G02*
X105721999Y-98721000I249999J0D01*
G01*
X106622001Y-98721000D01*
G75*
G02*
X106872000Y-98970999I0J-249999D01*
G01*
X106872000Y-99621001D01*
G75*
G02*
X106622001Y-99871000I-249999J0D01*
G01*
G37*
G36*
G01*
X106622001Y-101921000D02*
X105721999Y-101921000D01*
G75*
G02*
X105472000Y-101671001I0J249999D01*
G01*
X105472000Y-101020999D01*
G75*
G02*
X105721999Y-100771000I249999J0D01*
G01*
X106622001Y-100771000D01*
G75*
G02*
X106872000Y-101020999I0J-249999D01*
G01*
X106872000Y-101671001D01*
G75*
G02*
X106622001Y-101921000I-249999J0D01*
G01*
G37*
%TD*%
%TO.C,C7*%
G36*
G01*
X126434001Y-89221000D02*
X125533999Y-89221000D01*
G75*
G02*
X125284000Y-88971001I0J249999D01*
G01*
X125284000Y-88320999D01*
G75*
G02*
X125533999Y-88071000I249999J0D01*
G01*
X126434001Y-88071000D01*
G75*
G02*
X126684000Y-88320999I0J-249999D01*
G01*
X126684000Y-88971001D01*
G75*
G02*
X126434001Y-89221000I-249999J0D01*
G01*
G37*
G36*
G01*
X126434001Y-91271000D02*
X125533999Y-91271000D01*
G75*
G02*
X125284000Y-91021001I0J249999D01*
G01*
X125284000Y-90370999D01*
G75*
G02*
X125533999Y-90121000I249999J0D01*
G01*
X126434001Y-90121000D01*
G75*
G02*
X126684000Y-90370999I0J-249999D01*
G01*
X126684000Y-91021001D01*
G75*
G02*
X126434001Y-91271000I-249999J0D01*
G01*
G37*
%TD*%
%TO.C,C6*%
G36*
G01*
X119945999Y-90121000D02*
X120846001Y-90121000D01*
G75*
G02*
X121096000Y-90370999I0J-249999D01*
G01*
X121096000Y-91021001D01*
G75*
G02*
X120846001Y-91271000I-249999J0D01*
G01*
X119945999Y-91271000D01*
G75*
G02*
X119696000Y-91021001I0J249999D01*
G01*
X119696000Y-90370999D01*
G75*
G02*
X119945999Y-90121000I249999J0D01*
G01*
G37*
G36*
G01*
X119945999Y-88071000D02*
X120846001Y-88071000D01*
G75*
G02*
X121096000Y-88320999I0J-249999D01*
G01*
X121096000Y-88971001D01*
G75*
G02*
X120846001Y-89221000I-249999J0D01*
G01*
X119945999Y-89221000D01*
G75*
G02*
X119696000Y-88971001I0J249999D01*
G01*
X119696000Y-88320999D01*
G75*
G02*
X119945999Y-88071000I249999J0D01*
G01*
G37*
%TD*%
%TO.C,C5*%
G36*
G01*
X127819999Y-77403000D02*
X128720001Y-77403000D01*
G75*
G02*
X128970000Y-77652999I0J-249999D01*
G01*
X128970000Y-78303001D01*
G75*
G02*
X128720001Y-78553000I-249999J0D01*
G01*
X127819999Y-78553000D01*
G75*
G02*
X127570000Y-78303001I0J249999D01*
G01*
X127570000Y-77652999D01*
G75*
G02*
X127819999Y-77403000I249999J0D01*
G01*
G37*
G36*
G01*
X127819999Y-75353000D02*
X128720001Y-75353000D01*
G75*
G02*
X128970000Y-75602999I0J-249999D01*
G01*
X128970000Y-76253001D01*
G75*
G02*
X128720001Y-76503000I-249999J0D01*
G01*
X127819999Y-76503000D01*
G75*
G02*
X127570000Y-76253001I0J249999D01*
G01*
X127570000Y-75602999D01*
G75*
G02*
X127819999Y-75353000I249999J0D01*
G01*
G37*
%TD*%
%TO.C,C3*%
G36*
G01*
X89985001Y-92759000D02*
X89084999Y-92759000D01*
G75*
G02*
X88835000Y-92509001I0J249999D01*
G01*
X88835000Y-91858999D01*
G75*
G02*
X89084999Y-91609000I249999J0D01*
G01*
X89985001Y-91609000D01*
G75*
G02*
X90235000Y-91858999I0J-249999D01*
G01*
X90235000Y-92509001D01*
G75*
G02*
X89985001Y-92759000I-249999J0D01*
G01*
G37*
G36*
G01*
X89985001Y-94809000D02*
X89084999Y-94809000D01*
G75*
G02*
X88835000Y-94559001I0J249999D01*
G01*
X88835000Y-93908999D01*
G75*
G02*
X89084999Y-93659000I249999J0D01*
G01*
X89985001Y-93659000D01*
G75*
G02*
X90235000Y-93908999I0J-249999D01*
G01*
X90235000Y-94559001D01*
G75*
G02*
X89985001Y-94809000I-249999J0D01*
G01*
G37*
%TD*%
%TO.C,C2*%
G36*
G01*
X80440000Y-86925999D02*
X80440000Y-87826001D01*
G75*
G02*
X80190001Y-88076000I-249999J0D01*
G01*
X79539999Y-88076000D01*
G75*
G02*
X79290000Y-87826001I0J249999D01*
G01*
X79290000Y-86925999D01*
G75*
G02*
X79539999Y-86676000I249999J0D01*
G01*
X80190001Y-86676000D01*
G75*
G02*
X80440000Y-86925999I0J-249999D01*
G01*
G37*
G36*
G01*
X82490000Y-86925999D02*
X82490000Y-87826001D01*
G75*
G02*
X82240001Y-88076000I-249999J0D01*
G01*
X81589999Y-88076000D01*
G75*
G02*
X81340000Y-87826001I0J249999D01*
G01*
X81340000Y-86925999D01*
G75*
G02*
X81589999Y-86676000I249999J0D01*
G01*
X82240001Y-86676000D01*
G75*
G02*
X82490000Y-86925999I0J-249999D01*
G01*
G37*
%TD*%
%TO.C,C1*%
G36*
G01*
X80440000Y-100260999D02*
X80440000Y-101161001D01*
G75*
G02*
X80190001Y-101411000I-249999J0D01*
G01*
X79539999Y-101411000D01*
G75*
G02*
X79290000Y-101161001I0J249999D01*
G01*
X79290000Y-100260999D01*
G75*
G02*
X79539999Y-100011000I249999J0D01*
G01*
X80190001Y-100011000D01*
G75*
G02*
X80440000Y-100260999I0J-249999D01*
G01*
G37*
G36*
G01*
X82490000Y-100260999D02*
X82490000Y-101161001D01*
G75*
G02*
X82240001Y-101411000I-249999J0D01*
G01*
X81589999Y-101411000D01*
G75*
G02*
X81340000Y-101161001I0J249999D01*
G01*
X81340000Y-100260999D01*
G75*
G02*
X81589999Y-100011000I249999J0D01*
G01*
X82240001Y-100011000D01*
G75*
G02*
X82490000Y-100260999I0J-249999D01*
G01*
G37*
%TD*%
M02*
