M48
; DRILL file {KiCad 5.1.6-c6e7f7d~87~ubuntu18.04.1} date Tue Aug 18 09:57:51 2020
; FORMAT={-:-/ absolute / metric / decimal}
; #@! TF.CreationDate,2020-08-18T09:57:51-04:00
; #@! TF.GenerationSoftware,Kicad,Pcbnew,5.1.6-c6e7f7d~87~ubuntu18.04.1
FMAT,2
METRIC
T1C0.400
T2C0.500
T3C0.800
T4C0.900
T5C1.000
T6C1.100
T7C3.200
%
G90
G05
T1
X78.486Y-100.711
X83.82Y-102.616
X86.658Y-102.572
X87.122Y-89.916
X88.392Y-92.202
X89.662Y-101.854
X90.932Y-92.202
X91.659Y-78.12
X92.532Y-95.692
X93.878Y-94.234
X95.15Y-75.03
X96.52Y-90.424
X99.974Y-94.132
X101.549Y-99.263
X102.235Y-81.915
X102.413Y-92.1
X104.292Y-95.606
X104.445Y-92.507
X104.648Y-99.263
X106.299Y-82.233
X107.645Y-99.314
X109.474Y-92.456
X110.744Y-79.35
X110.744Y-99.314
X110.998Y-105.664
X111.912Y-87.325
X112.014Y-92.456
X113.284Y-97.536
X113.843Y-100.076
X114.046Y-70.866
X114.148Y-88.595
X114.3Y-77.978
X114.3Y-81.343
X114.837Y-68.196
X116.078Y-105.664
X116.688Y-103.581
X116.789Y-90.678
X117.297Y-88.595
X117.348Y-81.343
X117.348Y-92.202
X118.669Y-95.606
X119.316Y-78.613
X119.431Y-77.076
X120.142Y-103.48
X120.345Y-80.467
X120.345Y-94.691
X120.904Y-102.108
X120.904Y-105.664
X121.73Y-92.011
X122.42Y-68.893
X122.555Y-70.485
X122.682Y-67.882
X122.936Y-97.79
X123.19Y-74.295
X124.32Y-84.112
X124.46Y-87.325
X124.511Y-75.032
X125.984Y-91.694
X126.187Y-87.274
X127.0Y-75.895
X129.54Y-82.55
X129.54Y-100.965
X129.54Y-105.664
X130.175Y-70.485
X130.175Y-74.295
X130.175Y-93.98
X130.175Y-97.155
X131.013Y-87.274
X131.115Y-80.01
X132.08Y-64.719
X133.033Y-104.394
X133.256Y-103.419
X133.35Y-82.55
X133.35Y-87.63
X133.54Y-74.93
X134.302Y-94.551
X134.302Y-97.409
X134.62Y-69.215
X135.788Y-91.542
X136.957Y-64.77
X138.493Y-97.028
X138.557Y-94.043
X139.04Y-73.66
X139.065Y-69.215
X139.065Y-76.517
X141.097Y-81.915
X142.558Y-90.742
X144.145Y-69.215
X144.145Y-73.025
X144.907Y-92.837
X146.749Y-82.55
X147.002Y-89.535
X147.828Y-93.345
X149.86Y-69.215
X149.86Y-73.025
X153.505Y-86.226
X153.67Y-94.297
X156.528Y-86.423
T2
X150.0Y-106.68
X150.703Y-104.983
X150.703Y-108.377
X152.4Y-104.28
X152.4Y-109.08
X154.097Y-104.983
X154.097Y-108.377
X154.8Y-106.68
X78.88Y-106.68
X79.583Y-104.983
X79.583Y-108.377
X81.28Y-104.28
X81.28Y-109.08
X82.977Y-104.983
X82.977Y-108.377
X83.68Y-106.68
T3
X93.98Y-59.055
X93.98Y-61.595
X93.98Y-64.135
X95.885Y-57.785
X95.885Y-60.325
X95.885Y-62.865
X96.52Y-68.58
X98.482Y-101.467
X99.568Y-67.208
X99.568Y-68.631
X99.568Y-69.977
X99.822Y-92.151
X101.6Y-68.58
X102.108Y-84.226
X106.68Y-60.325
X106.68Y-64.135
X107.315Y-67.945
X107.315Y-70.485
X109.855Y-67.945
X109.855Y-70.485
X88.9Y-76.2
X91.44Y-76.2
X93.98Y-76.2
X81.915Y-91.52
X81.915Y-96.52
X88.9Y-86.36
X91.44Y-86.36
X93.98Y-86.36
T4
X132.08Y-58.42
X134.62Y-58.42
X137.16Y-58.42
T5
X80.01Y-78.74
X80.01Y-81.28
X80.01Y-83.82
X83.86Y-66.04
X86.36Y-66.04
X88.86Y-66.04
X134.62Y-109.22
X137.16Y-109.22
X98.298Y-58.42
X100.838Y-58.42
X80.01Y-68.58
X80.01Y-71.12
X80.01Y-73.66
X142.875Y-109.22
X145.415Y-109.22
X144.82Y-66.04
X147.32Y-66.04
X149.82Y-66.04
X114.34Y-66.04
X116.84Y-66.04
X119.34Y-66.04
X121.92Y-109.22
X124.46Y-109.22
X101.6Y-109.22
X104.14Y-109.22
X106.68Y-109.22
X109.22Y-109.22
T7
X152.4Y-106.68
X81.28Y-106.68
T6
G00X81.56Y-58.89
M15
G01X81.56Y-58.19
M16
G05
G00X91.16Y-58.89
M15
G01X91.16Y-58.19
M16
G05
G00X142.52Y-58.89
M15
G01X142.52Y-58.19
M16
G05
G00X152.12Y-58.89
M15
G01X152.12Y-58.19
M16
G05
G00X112.04Y-58.89
M15
G01X112.04Y-58.19
M16
G05
G00X121.64Y-58.89
M15
G01X121.64Y-58.19
M16
G05
T0
M30
