%TF.GenerationSoftware,KiCad,Pcbnew,5.1.6-c6e7f7d~87~ubuntu18.04.1*%
%TF.CreationDate,2020-07-29T17:40:00-04:00*%
%TF.ProjectId,bit_crusher_pedal,6269745f-6372-4757-9368-65725f706564,rev?*%
%TF.SameCoordinates,Original*%
%TF.FileFunction,Paste,Bot*%
%TF.FilePolarity,Positive*%
%FSLAX46Y46*%
G04 Gerber Fmt 4.6, Leading zero omitted, Abs format (unit mm)*
G04 Created by KiCad (PCBNEW 5.1.6-c6e7f7d~87~ubuntu18.04.1) date 2020-07-29 17:40:00*
%MOMM*%
%LPD*%
G01*
G04 APERTURE LIST*
%ADD10R,1.500000X2.000000*%
%ADD11R,3.800000X2.000000*%
%ADD12R,0.900000X1.200000*%
G04 APERTURE END LIST*
%TO.C,R23*%
G36*
G01*
X142690001Y-98610000D02*
X141789999Y-98610000D01*
G75*
G02*
X141540000Y-98360001I0J249999D01*
G01*
X141540000Y-97709999D01*
G75*
G02*
X141789999Y-97460000I249999J0D01*
G01*
X142690001Y-97460000D01*
G75*
G02*
X142940000Y-97709999I0J-249999D01*
G01*
X142940000Y-98360001D01*
G75*
G02*
X142690001Y-98610000I-249999J0D01*
G01*
G37*
G36*
G01*
X142690001Y-100660000D02*
X141789999Y-100660000D01*
G75*
G02*
X141540000Y-100410001I0J249999D01*
G01*
X141540000Y-99759999D01*
G75*
G02*
X141789999Y-99510000I249999J0D01*
G01*
X142690001Y-99510000D01*
G75*
G02*
X142940000Y-99759999I0J-249999D01*
G01*
X142940000Y-100410001D01*
G75*
G02*
X142690001Y-100660000I-249999J0D01*
G01*
G37*
%TD*%
D10*
%TO.C,U4*%
X97268000Y-65405000D03*
X101868000Y-65405000D03*
X99568000Y-65405000D03*
D11*
X99568000Y-71705000D03*
%TD*%
%TO.C,U3*%
G36*
G01*
X99859212Y-100297437D02*
X100743095Y-99413554D01*
G75*
G02*
X100919871Y-99413554I88388J-88388D01*
G01*
X101096648Y-99590331D01*
G75*
G02*
X101096648Y-99767107I-88388J-88388D01*
G01*
X100212765Y-100650990D01*
G75*
G02*
X100035989Y-100650990I-88388J88388D01*
G01*
X99859212Y-100474213D01*
G75*
G02*
X99859212Y-100297437I88388J88388D01*
G01*
G37*
G36*
G01*
X100424898Y-100863122D02*
X101308781Y-99979239D01*
G75*
G02*
X101485557Y-99979239I88388J-88388D01*
G01*
X101662334Y-100156016D01*
G75*
G02*
X101662334Y-100332792I-88388J-88388D01*
G01*
X100778451Y-101216675D01*
G75*
G02*
X100601675Y-101216675I-88388J88388D01*
G01*
X100424898Y-101039898D01*
G75*
G02*
X100424898Y-100863122I88388J88388D01*
G01*
G37*
G36*
G01*
X100990583Y-101428808D02*
X101874466Y-100544925D01*
G75*
G02*
X102051242Y-100544925I88388J-88388D01*
G01*
X102228019Y-100721702D01*
G75*
G02*
X102228019Y-100898478I-88388J-88388D01*
G01*
X101344136Y-101782361D01*
G75*
G02*
X101167360Y-101782361I-88388J88388D01*
G01*
X100990583Y-101605584D01*
G75*
G02*
X100990583Y-101428808I88388J88388D01*
G01*
G37*
G36*
G01*
X101556268Y-101994493D02*
X102440151Y-101110610D01*
G75*
G02*
X102616927Y-101110610I88388J-88388D01*
G01*
X102793704Y-101287387D01*
G75*
G02*
X102793704Y-101464163I-88388J-88388D01*
G01*
X101909821Y-102348046D01*
G75*
G02*
X101733045Y-102348046I-88388J88388D01*
G01*
X101556268Y-102171269D01*
G75*
G02*
X101556268Y-101994493I88388J88388D01*
G01*
G37*
G36*
G01*
X102121954Y-102560179D02*
X103005837Y-101676296D01*
G75*
G02*
X103182613Y-101676296I88388J-88388D01*
G01*
X103359390Y-101853073D01*
G75*
G02*
X103359390Y-102029849I-88388J-88388D01*
G01*
X102475507Y-102913732D01*
G75*
G02*
X102298731Y-102913732I-88388J88388D01*
G01*
X102121954Y-102736955D01*
G75*
G02*
X102121954Y-102560179I88388J88388D01*
G01*
G37*
G36*
G01*
X102687639Y-103125864D02*
X103571522Y-102241981D01*
G75*
G02*
X103748298Y-102241981I88388J-88388D01*
G01*
X103925075Y-102418758D01*
G75*
G02*
X103925075Y-102595534I-88388J-88388D01*
G01*
X103041192Y-103479417D01*
G75*
G02*
X102864416Y-103479417I-88388J88388D01*
G01*
X102687639Y-103302640D01*
G75*
G02*
X102687639Y-103125864I88388J88388D01*
G01*
G37*
G36*
G01*
X103253325Y-103691549D02*
X104137208Y-102807666D01*
G75*
G02*
X104313984Y-102807666I88388J-88388D01*
G01*
X104490761Y-102984443D01*
G75*
G02*
X104490761Y-103161219I-88388J-88388D01*
G01*
X103606878Y-104045102D01*
G75*
G02*
X103430102Y-104045102I-88388J88388D01*
G01*
X103253325Y-103868325D01*
G75*
G02*
X103253325Y-103691549I88388J88388D01*
G01*
G37*
G36*
G01*
X103819010Y-104257235D02*
X104702893Y-103373352D01*
G75*
G02*
X104879669Y-103373352I88388J-88388D01*
G01*
X105056446Y-103550129D01*
G75*
G02*
X105056446Y-103726905I-88388J-88388D01*
G01*
X104172563Y-104610788D01*
G75*
G02*
X103995787Y-104610788I-88388J88388D01*
G01*
X103819010Y-104434011D01*
G75*
G02*
X103819010Y-104257235I88388J88388D01*
G01*
G37*
G36*
G01*
X105763554Y-103550128D02*
X105940331Y-103373352D01*
G75*
G02*
X106117107Y-103373352I88388J-88388D01*
G01*
X107000990Y-104257235D01*
G75*
G02*
X107000990Y-104434011I-88388J-88388D01*
G01*
X106824213Y-104610788D01*
G75*
G02*
X106647437Y-104610788I-88388J88388D01*
G01*
X105763554Y-103726905D01*
G75*
G02*
X105763554Y-103550129I88388J88388D01*
G01*
G37*
G36*
G01*
X106329239Y-102984442D02*
X106506016Y-102807666D01*
G75*
G02*
X106682792Y-102807666I88388J-88388D01*
G01*
X107566675Y-103691549D01*
G75*
G02*
X107566675Y-103868325I-88388J-88388D01*
G01*
X107389898Y-104045102D01*
G75*
G02*
X107213122Y-104045102I-88388J88388D01*
G01*
X106329239Y-103161219D01*
G75*
G02*
X106329239Y-102984443I88388J88388D01*
G01*
G37*
G36*
G01*
X106894925Y-102418757D02*
X107071702Y-102241981D01*
G75*
G02*
X107248478Y-102241981I88388J-88388D01*
G01*
X108132361Y-103125864D01*
G75*
G02*
X108132361Y-103302640I-88388J-88388D01*
G01*
X107955584Y-103479417D01*
G75*
G02*
X107778808Y-103479417I-88388J88388D01*
G01*
X106894925Y-102595534D01*
G75*
G02*
X106894925Y-102418758I88388J88388D01*
G01*
G37*
G36*
G01*
X107460610Y-101853072D02*
X107637387Y-101676296D01*
G75*
G02*
X107814163Y-101676296I88388J-88388D01*
G01*
X108698046Y-102560179D01*
G75*
G02*
X108698046Y-102736955I-88388J-88388D01*
G01*
X108521269Y-102913732D01*
G75*
G02*
X108344493Y-102913732I-88388J88388D01*
G01*
X107460610Y-102029849D01*
G75*
G02*
X107460610Y-101853073I88388J88388D01*
G01*
G37*
G36*
G01*
X108026296Y-101287386D02*
X108203073Y-101110610D01*
G75*
G02*
X108379849Y-101110610I88388J-88388D01*
G01*
X109263732Y-101994493D01*
G75*
G02*
X109263732Y-102171269I-88388J-88388D01*
G01*
X109086955Y-102348046D01*
G75*
G02*
X108910179Y-102348046I-88388J88388D01*
G01*
X108026296Y-101464163D01*
G75*
G02*
X108026296Y-101287387I88388J88388D01*
G01*
G37*
G36*
G01*
X108591981Y-100721701D02*
X108768758Y-100544925D01*
G75*
G02*
X108945534Y-100544925I88388J-88388D01*
G01*
X109829417Y-101428808D01*
G75*
G02*
X109829417Y-101605584I-88388J-88388D01*
G01*
X109652640Y-101782361D01*
G75*
G02*
X109475864Y-101782361I-88388J88388D01*
G01*
X108591981Y-100898478D01*
G75*
G02*
X108591981Y-100721702I88388J88388D01*
G01*
G37*
G36*
G01*
X109157666Y-100156015D02*
X109334443Y-99979239D01*
G75*
G02*
X109511219Y-99979239I88388J-88388D01*
G01*
X110395102Y-100863122D01*
G75*
G02*
X110395102Y-101039898I-88388J-88388D01*
G01*
X110218325Y-101216675D01*
G75*
G02*
X110041549Y-101216675I-88388J88388D01*
G01*
X109157666Y-100332792D01*
G75*
G02*
X109157666Y-100156016I88388J88388D01*
G01*
G37*
G36*
G01*
X109723352Y-99590330D02*
X109900129Y-99413554D01*
G75*
G02*
X110076905Y-99413554I88388J-88388D01*
G01*
X110960788Y-100297437D01*
G75*
G02*
X110960788Y-100474213I-88388J-88388D01*
G01*
X110784011Y-100650990D01*
G75*
G02*
X110607235Y-100650990I-88388J88388D01*
G01*
X109723352Y-99767107D01*
G75*
G02*
X109723352Y-99590331I88388J88388D01*
G01*
G37*
G36*
G01*
X109723352Y-98352893D02*
X110607235Y-97469010D01*
G75*
G02*
X110784011Y-97469010I88388J-88388D01*
G01*
X110960788Y-97645787D01*
G75*
G02*
X110960788Y-97822563I-88388J-88388D01*
G01*
X110076905Y-98706446D01*
G75*
G02*
X109900129Y-98706446I-88388J88388D01*
G01*
X109723352Y-98529669D01*
G75*
G02*
X109723352Y-98352893I88388J88388D01*
G01*
G37*
G36*
G01*
X109157666Y-97787208D02*
X110041549Y-96903325D01*
G75*
G02*
X110218325Y-96903325I88388J-88388D01*
G01*
X110395102Y-97080102D01*
G75*
G02*
X110395102Y-97256878I-88388J-88388D01*
G01*
X109511219Y-98140761D01*
G75*
G02*
X109334443Y-98140761I-88388J88388D01*
G01*
X109157666Y-97963984D01*
G75*
G02*
X109157666Y-97787208I88388J88388D01*
G01*
G37*
G36*
G01*
X108591981Y-97221522D02*
X109475864Y-96337639D01*
G75*
G02*
X109652640Y-96337639I88388J-88388D01*
G01*
X109829417Y-96514416D01*
G75*
G02*
X109829417Y-96691192I-88388J-88388D01*
G01*
X108945534Y-97575075D01*
G75*
G02*
X108768758Y-97575075I-88388J88388D01*
G01*
X108591981Y-97398298D01*
G75*
G02*
X108591981Y-97221522I88388J88388D01*
G01*
G37*
G36*
G01*
X108026296Y-96655837D02*
X108910179Y-95771954D01*
G75*
G02*
X109086955Y-95771954I88388J-88388D01*
G01*
X109263732Y-95948731D01*
G75*
G02*
X109263732Y-96125507I-88388J-88388D01*
G01*
X108379849Y-97009390D01*
G75*
G02*
X108203073Y-97009390I-88388J88388D01*
G01*
X108026296Y-96832613D01*
G75*
G02*
X108026296Y-96655837I88388J88388D01*
G01*
G37*
G36*
G01*
X107460610Y-96090151D02*
X108344493Y-95206268D01*
G75*
G02*
X108521269Y-95206268I88388J-88388D01*
G01*
X108698046Y-95383045D01*
G75*
G02*
X108698046Y-95559821I-88388J-88388D01*
G01*
X107814163Y-96443704D01*
G75*
G02*
X107637387Y-96443704I-88388J88388D01*
G01*
X107460610Y-96266927D01*
G75*
G02*
X107460610Y-96090151I88388J88388D01*
G01*
G37*
G36*
G01*
X106894925Y-95524466D02*
X107778808Y-94640583D01*
G75*
G02*
X107955584Y-94640583I88388J-88388D01*
G01*
X108132361Y-94817360D01*
G75*
G02*
X108132361Y-94994136I-88388J-88388D01*
G01*
X107248478Y-95878019D01*
G75*
G02*
X107071702Y-95878019I-88388J88388D01*
G01*
X106894925Y-95701242D01*
G75*
G02*
X106894925Y-95524466I88388J88388D01*
G01*
G37*
G36*
G01*
X106329239Y-94958781D02*
X107213122Y-94074898D01*
G75*
G02*
X107389898Y-94074898I88388J-88388D01*
G01*
X107566675Y-94251675D01*
G75*
G02*
X107566675Y-94428451I-88388J-88388D01*
G01*
X106682792Y-95312334D01*
G75*
G02*
X106506016Y-95312334I-88388J88388D01*
G01*
X106329239Y-95135557D01*
G75*
G02*
X106329239Y-94958781I88388J88388D01*
G01*
G37*
G36*
G01*
X105763554Y-94393095D02*
X106647437Y-93509212D01*
G75*
G02*
X106824213Y-93509212I88388J-88388D01*
G01*
X107000990Y-93685989D01*
G75*
G02*
X107000990Y-93862765I-88388J-88388D01*
G01*
X106117107Y-94746648D01*
G75*
G02*
X105940331Y-94746648I-88388J88388D01*
G01*
X105763554Y-94569871D01*
G75*
G02*
X105763554Y-94393095I88388J88388D01*
G01*
G37*
G36*
G01*
X103819010Y-93685988D02*
X103995787Y-93509212D01*
G75*
G02*
X104172563Y-93509212I88388J-88388D01*
G01*
X105056446Y-94393095D01*
G75*
G02*
X105056446Y-94569871I-88388J-88388D01*
G01*
X104879669Y-94746648D01*
G75*
G02*
X104702893Y-94746648I-88388J88388D01*
G01*
X103819010Y-93862765D01*
G75*
G02*
X103819010Y-93685989I88388J88388D01*
G01*
G37*
G36*
G01*
X103253325Y-94251674D02*
X103430102Y-94074898D01*
G75*
G02*
X103606878Y-94074898I88388J-88388D01*
G01*
X104490761Y-94958781D01*
G75*
G02*
X104490761Y-95135557I-88388J-88388D01*
G01*
X104313984Y-95312334D01*
G75*
G02*
X104137208Y-95312334I-88388J88388D01*
G01*
X103253325Y-94428451D01*
G75*
G02*
X103253325Y-94251675I88388J88388D01*
G01*
G37*
G36*
G01*
X102687639Y-94817359D02*
X102864416Y-94640583D01*
G75*
G02*
X103041192Y-94640583I88388J-88388D01*
G01*
X103925075Y-95524466D01*
G75*
G02*
X103925075Y-95701242I-88388J-88388D01*
G01*
X103748298Y-95878019D01*
G75*
G02*
X103571522Y-95878019I-88388J88388D01*
G01*
X102687639Y-94994136D01*
G75*
G02*
X102687639Y-94817360I88388J88388D01*
G01*
G37*
G36*
G01*
X102121954Y-95383044D02*
X102298731Y-95206268D01*
G75*
G02*
X102475507Y-95206268I88388J-88388D01*
G01*
X103359390Y-96090151D01*
G75*
G02*
X103359390Y-96266927I-88388J-88388D01*
G01*
X103182613Y-96443704D01*
G75*
G02*
X103005837Y-96443704I-88388J88388D01*
G01*
X102121954Y-95559821D01*
G75*
G02*
X102121954Y-95383045I88388J88388D01*
G01*
G37*
G36*
G01*
X101556268Y-95948730D02*
X101733045Y-95771954D01*
G75*
G02*
X101909821Y-95771954I88388J-88388D01*
G01*
X102793704Y-96655837D01*
G75*
G02*
X102793704Y-96832613I-88388J-88388D01*
G01*
X102616927Y-97009390D01*
G75*
G02*
X102440151Y-97009390I-88388J88388D01*
G01*
X101556268Y-96125507D01*
G75*
G02*
X101556268Y-95948731I88388J88388D01*
G01*
G37*
G36*
G01*
X100990583Y-96514415D02*
X101167360Y-96337639D01*
G75*
G02*
X101344136Y-96337639I88388J-88388D01*
G01*
X102228019Y-97221522D01*
G75*
G02*
X102228019Y-97398298I-88388J-88388D01*
G01*
X102051242Y-97575075D01*
G75*
G02*
X101874466Y-97575075I-88388J88388D01*
G01*
X100990583Y-96691192D01*
G75*
G02*
X100990583Y-96514416I88388J88388D01*
G01*
G37*
G36*
G01*
X100424898Y-97080101D02*
X100601675Y-96903325D01*
G75*
G02*
X100778451Y-96903325I88388J-88388D01*
G01*
X101662334Y-97787208D01*
G75*
G02*
X101662334Y-97963984I-88388J-88388D01*
G01*
X101485557Y-98140761D01*
G75*
G02*
X101308781Y-98140761I-88388J88388D01*
G01*
X100424898Y-97256878D01*
G75*
G02*
X100424898Y-97080102I88388J88388D01*
G01*
G37*
G36*
G01*
X99859212Y-97645786D02*
X100035989Y-97469010D01*
G75*
G02*
X100212765Y-97469010I88388J-88388D01*
G01*
X101096648Y-98352893D01*
G75*
G02*
X101096648Y-98529669I-88388J-88388D01*
G01*
X100919871Y-98706446D01*
G75*
G02*
X100743095Y-98706446I-88388J88388D01*
G01*
X99859212Y-97822563D01*
G75*
G02*
X99859212Y-97645787I88388J88388D01*
G01*
G37*
%TD*%
%TO.C,U2*%
G36*
G01*
X117960000Y-80748000D02*
X118260000Y-80748000D01*
G75*
G02*
X118410000Y-80898000I0J-150000D01*
G01*
X118410000Y-82548000D01*
G75*
G02*
X118260000Y-82698000I-150000J0D01*
G01*
X117960000Y-82698000D01*
G75*
G02*
X117810000Y-82548000I0J150000D01*
G01*
X117810000Y-80898000D01*
G75*
G02*
X117960000Y-80748000I150000J0D01*
G01*
G37*
G36*
G01*
X119230000Y-80748000D02*
X119530000Y-80748000D01*
G75*
G02*
X119680000Y-80898000I0J-150000D01*
G01*
X119680000Y-82548000D01*
G75*
G02*
X119530000Y-82698000I-150000J0D01*
G01*
X119230000Y-82698000D01*
G75*
G02*
X119080000Y-82548000I0J150000D01*
G01*
X119080000Y-80898000D01*
G75*
G02*
X119230000Y-80748000I150000J0D01*
G01*
G37*
G36*
G01*
X120500000Y-80748000D02*
X120800000Y-80748000D01*
G75*
G02*
X120950000Y-80898000I0J-150000D01*
G01*
X120950000Y-82548000D01*
G75*
G02*
X120800000Y-82698000I-150000J0D01*
G01*
X120500000Y-82698000D01*
G75*
G02*
X120350000Y-82548000I0J150000D01*
G01*
X120350000Y-80898000D01*
G75*
G02*
X120500000Y-80748000I150000J0D01*
G01*
G37*
G36*
G01*
X121770000Y-80748000D02*
X122070000Y-80748000D01*
G75*
G02*
X122220000Y-80898000I0J-150000D01*
G01*
X122220000Y-82548000D01*
G75*
G02*
X122070000Y-82698000I-150000J0D01*
G01*
X121770000Y-82698000D01*
G75*
G02*
X121620000Y-82548000I0J150000D01*
G01*
X121620000Y-80898000D01*
G75*
G02*
X121770000Y-80748000I150000J0D01*
G01*
G37*
G36*
G01*
X121770000Y-75798000D02*
X122070000Y-75798000D01*
G75*
G02*
X122220000Y-75948000I0J-150000D01*
G01*
X122220000Y-77598000D01*
G75*
G02*
X122070000Y-77748000I-150000J0D01*
G01*
X121770000Y-77748000D01*
G75*
G02*
X121620000Y-77598000I0J150000D01*
G01*
X121620000Y-75948000D01*
G75*
G02*
X121770000Y-75798000I150000J0D01*
G01*
G37*
G36*
G01*
X120500000Y-75798000D02*
X120800000Y-75798000D01*
G75*
G02*
X120950000Y-75948000I0J-150000D01*
G01*
X120950000Y-77598000D01*
G75*
G02*
X120800000Y-77748000I-150000J0D01*
G01*
X120500000Y-77748000D01*
G75*
G02*
X120350000Y-77598000I0J150000D01*
G01*
X120350000Y-75948000D01*
G75*
G02*
X120500000Y-75798000I150000J0D01*
G01*
G37*
G36*
G01*
X119230000Y-75798000D02*
X119530000Y-75798000D01*
G75*
G02*
X119680000Y-75948000I0J-150000D01*
G01*
X119680000Y-77598000D01*
G75*
G02*
X119530000Y-77748000I-150000J0D01*
G01*
X119230000Y-77748000D01*
G75*
G02*
X119080000Y-77598000I0J150000D01*
G01*
X119080000Y-75948000D01*
G75*
G02*
X119230000Y-75798000I150000J0D01*
G01*
G37*
G36*
G01*
X117960000Y-75798000D02*
X118260000Y-75798000D01*
G75*
G02*
X118410000Y-75948000I0J-150000D01*
G01*
X118410000Y-77598000D01*
G75*
G02*
X118260000Y-77748000I-150000J0D01*
G01*
X117960000Y-77748000D01*
G75*
G02*
X117810000Y-77598000I0J150000D01*
G01*
X117810000Y-75948000D01*
G75*
G02*
X117960000Y-75798000I150000J0D01*
G01*
G37*
%TD*%
%TO.C,U1*%
G36*
G01*
X131295000Y-80748000D02*
X131595000Y-80748000D01*
G75*
G02*
X131745000Y-80898000I0J-150000D01*
G01*
X131745000Y-82548000D01*
G75*
G02*
X131595000Y-82698000I-150000J0D01*
G01*
X131295000Y-82698000D01*
G75*
G02*
X131145000Y-82548000I0J150000D01*
G01*
X131145000Y-80898000D01*
G75*
G02*
X131295000Y-80748000I150000J0D01*
G01*
G37*
G36*
G01*
X132565000Y-80748000D02*
X132865000Y-80748000D01*
G75*
G02*
X133015000Y-80898000I0J-150000D01*
G01*
X133015000Y-82548000D01*
G75*
G02*
X132865000Y-82698000I-150000J0D01*
G01*
X132565000Y-82698000D01*
G75*
G02*
X132415000Y-82548000I0J150000D01*
G01*
X132415000Y-80898000D01*
G75*
G02*
X132565000Y-80748000I150000J0D01*
G01*
G37*
G36*
G01*
X133835000Y-80748000D02*
X134135000Y-80748000D01*
G75*
G02*
X134285000Y-80898000I0J-150000D01*
G01*
X134285000Y-82548000D01*
G75*
G02*
X134135000Y-82698000I-150000J0D01*
G01*
X133835000Y-82698000D01*
G75*
G02*
X133685000Y-82548000I0J150000D01*
G01*
X133685000Y-80898000D01*
G75*
G02*
X133835000Y-80748000I150000J0D01*
G01*
G37*
G36*
G01*
X135105000Y-80748000D02*
X135405000Y-80748000D01*
G75*
G02*
X135555000Y-80898000I0J-150000D01*
G01*
X135555000Y-82548000D01*
G75*
G02*
X135405000Y-82698000I-150000J0D01*
G01*
X135105000Y-82698000D01*
G75*
G02*
X134955000Y-82548000I0J150000D01*
G01*
X134955000Y-80898000D01*
G75*
G02*
X135105000Y-80748000I150000J0D01*
G01*
G37*
G36*
G01*
X135105000Y-75798000D02*
X135405000Y-75798000D01*
G75*
G02*
X135555000Y-75948000I0J-150000D01*
G01*
X135555000Y-77598000D01*
G75*
G02*
X135405000Y-77748000I-150000J0D01*
G01*
X135105000Y-77748000D01*
G75*
G02*
X134955000Y-77598000I0J150000D01*
G01*
X134955000Y-75948000D01*
G75*
G02*
X135105000Y-75798000I150000J0D01*
G01*
G37*
G36*
G01*
X133835000Y-75798000D02*
X134135000Y-75798000D01*
G75*
G02*
X134285000Y-75948000I0J-150000D01*
G01*
X134285000Y-77598000D01*
G75*
G02*
X134135000Y-77748000I-150000J0D01*
G01*
X133835000Y-77748000D01*
G75*
G02*
X133685000Y-77598000I0J150000D01*
G01*
X133685000Y-75948000D01*
G75*
G02*
X133835000Y-75798000I150000J0D01*
G01*
G37*
G36*
G01*
X132565000Y-75798000D02*
X132865000Y-75798000D01*
G75*
G02*
X133015000Y-75948000I0J-150000D01*
G01*
X133015000Y-77598000D01*
G75*
G02*
X132865000Y-77748000I-150000J0D01*
G01*
X132565000Y-77748000D01*
G75*
G02*
X132415000Y-77598000I0J150000D01*
G01*
X132415000Y-75948000D01*
G75*
G02*
X132565000Y-75798000I150000J0D01*
G01*
G37*
G36*
G01*
X131295000Y-75798000D02*
X131595000Y-75798000D01*
G75*
G02*
X131745000Y-75948000I0J-150000D01*
G01*
X131745000Y-77598000D01*
G75*
G02*
X131595000Y-77748000I-150000J0D01*
G01*
X131295000Y-77748000D01*
G75*
G02*
X131145000Y-77598000I0J150000D01*
G01*
X131145000Y-75948000D01*
G75*
G02*
X131295000Y-75798000I150000J0D01*
G01*
G37*
%TD*%
%TO.C,R22*%
G36*
G01*
X117290001Y-85157000D02*
X116389999Y-85157000D01*
G75*
G02*
X116140000Y-84907001I0J249999D01*
G01*
X116140000Y-84256999D01*
G75*
G02*
X116389999Y-84007000I249999J0D01*
G01*
X117290001Y-84007000D01*
G75*
G02*
X117540000Y-84256999I0J-249999D01*
G01*
X117540000Y-84907001D01*
G75*
G02*
X117290001Y-85157000I-249999J0D01*
G01*
G37*
G36*
G01*
X117290001Y-87207000D02*
X116389999Y-87207000D01*
G75*
G02*
X116140000Y-86957001I0J249999D01*
G01*
X116140000Y-86306999D01*
G75*
G02*
X116389999Y-86057000I249999J0D01*
G01*
X117290001Y-86057000D01*
G75*
G02*
X117540000Y-86306999I0J-249999D01*
G01*
X117540000Y-86957001D01*
G75*
G02*
X117290001Y-87207000I-249999J0D01*
G01*
G37*
%TD*%
%TO.C,R21*%
G36*
G01*
X122104999Y-86057000D02*
X123005001Y-86057000D01*
G75*
G02*
X123255000Y-86306999I0J-249999D01*
G01*
X123255000Y-86957001D01*
G75*
G02*
X123005001Y-87207000I-249999J0D01*
G01*
X122104999Y-87207000D01*
G75*
G02*
X121855000Y-86957001I0J249999D01*
G01*
X121855000Y-86306999D01*
G75*
G02*
X122104999Y-86057000I249999J0D01*
G01*
G37*
G36*
G01*
X122104999Y-84007000D02*
X123005001Y-84007000D01*
G75*
G02*
X123255000Y-84256999I0J-249999D01*
G01*
X123255000Y-84907001D01*
G75*
G02*
X123005001Y-85157000I-249999J0D01*
G01*
X122104999Y-85157000D01*
G75*
G02*
X121855000Y-84907001I0J249999D01*
G01*
X121855000Y-84256999D01*
G75*
G02*
X122104999Y-84007000I249999J0D01*
G01*
G37*
%TD*%
%TO.C,R20*%
G36*
G01*
X119183999Y-86057000D02*
X120084001Y-86057000D01*
G75*
G02*
X120334000Y-86306999I0J-249999D01*
G01*
X120334000Y-86957001D01*
G75*
G02*
X120084001Y-87207000I-249999J0D01*
G01*
X119183999Y-87207000D01*
G75*
G02*
X118934000Y-86957001I0J249999D01*
G01*
X118934000Y-86306999D01*
G75*
G02*
X119183999Y-86057000I249999J0D01*
G01*
G37*
G36*
G01*
X119183999Y-84007000D02*
X120084001Y-84007000D01*
G75*
G02*
X120334000Y-84256999I0J-249999D01*
G01*
X120334000Y-84907001D01*
G75*
G02*
X120084001Y-85157000I-249999J0D01*
G01*
X119183999Y-85157000D01*
G75*
G02*
X118934000Y-84907001I0J249999D01*
G01*
X118934000Y-84256999D01*
G75*
G02*
X119183999Y-84007000I249999J0D01*
G01*
G37*
%TD*%
%TO.C,R19*%
G36*
G01*
X85030000Y-89719999D02*
X85030000Y-90620001D01*
G75*
G02*
X84780001Y-90870000I-249999J0D01*
G01*
X84129999Y-90870000D01*
G75*
G02*
X83880000Y-90620001I0J249999D01*
G01*
X83880000Y-89719999D01*
G75*
G02*
X84129999Y-89470000I249999J0D01*
G01*
X84780001Y-89470000D01*
G75*
G02*
X85030000Y-89719999I0J-249999D01*
G01*
G37*
G36*
G01*
X87080000Y-89719999D02*
X87080000Y-90620001D01*
G75*
G02*
X86830001Y-90870000I-249999J0D01*
G01*
X86179999Y-90870000D01*
G75*
G02*
X85930000Y-90620001I0J249999D01*
G01*
X85930000Y-89719999D01*
G75*
G02*
X86179999Y-89470000I249999J0D01*
G01*
X86830001Y-89470000D01*
G75*
G02*
X87080000Y-89719999I0J-249999D01*
G01*
G37*
%TD*%
%TO.C,R18*%
G36*
G01*
X116643999Y-73339000D02*
X117544001Y-73339000D01*
G75*
G02*
X117794000Y-73588999I0J-249999D01*
G01*
X117794000Y-74239001D01*
G75*
G02*
X117544001Y-74489000I-249999J0D01*
G01*
X116643999Y-74489000D01*
G75*
G02*
X116394000Y-74239001I0J249999D01*
G01*
X116394000Y-73588999D01*
G75*
G02*
X116643999Y-73339000I249999J0D01*
G01*
G37*
G36*
G01*
X116643999Y-71289000D02*
X117544001Y-71289000D01*
G75*
G02*
X117794000Y-71538999I0J-249999D01*
G01*
X117794000Y-72189001D01*
G75*
G02*
X117544001Y-72439000I-249999J0D01*
G01*
X116643999Y-72439000D01*
G75*
G02*
X116394000Y-72189001I0J249999D01*
G01*
X116394000Y-71538999D01*
G75*
G02*
X116643999Y-71289000I249999J0D01*
G01*
G37*
%TD*%
%TO.C,R17*%
G36*
G01*
X123132001Y-72439000D02*
X122231999Y-72439000D01*
G75*
G02*
X121982000Y-72189001I0J249999D01*
G01*
X121982000Y-71538999D01*
G75*
G02*
X122231999Y-71289000I249999J0D01*
G01*
X123132001Y-71289000D01*
G75*
G02*
X123382000Y-71538999I0J-249999D01*
G01*
X123382000Y-72189001D01*
G75*
G02*
X123132001Y-72439000I-249999J0D01*
G01*
G37*
G36*
G01*
X123132001Y-74489000D02*
X122231999Y-74489000D01*
G75*
G02*
X121982000Y-74239001I0J249999D01*
G01*
X121982000Y-73588999D01*
G75*
G02*
X122231999Y-73339000I249999J0D01*
G01*
X123132001Y-73339000D01*
G75*
G02*
X123382000Y-73588999I0J-249999D01*
G01*
X123382000Y-74239001D01*
G75*
G02*
X123132001Y-74489000I-249999J0D01*
G01*
G37*
%TD*%
%TO.C,R16*%
G36*
G01*
X120338001Y-72439000D02*
X119437999Y-72439000D01*
G75*
G02*
X119188000Y-72189001I0J249999D01*
G01*
X119188000Y-71538999D01*
G75*
G02*
X119437999Y-71289000I249999J0D01*
G01*
X120338001Y-71289000D01*
G75*
G02*
X120588000Y-71538999I0J-249999D01*
G01*
X120588000Y-72189001D01*
G75*
G02*
X120338001Y-72439000I-249999J0D01*
G01*
G37*
G36*
G01*
X120338001Y-74489000D02*
X119437999Y-74489000D01*
G75*
G02*
X119188000Y-74239001I0J249999D01*
G01*
X119188000Y-73588999D01*
G75*
G02*
X119437999Y-73339000I249999J0D01*
G01*
X120338001Y-73339000D01*
G75*
G02*
X120588000Y-73588999I0J-249999D01*
G01*
X120588000Y-74239001D01*
G75*
G02*
X120338001Y-74489000I-249999J0D01*
G01*
G37*
%TD*%
%TO.C,R15*%
G36*
G01*
X85030000Y-75749999D02*
X85030000Y-76650001D01*
G75*
G02*
X84780001Y-76900000I-249999J0D01*
G01*
X84129999Y-76900000D01*
G75*
G02*
X83880000Y-76650001I0J249999D01*
G01*
X83880000Y-75749999D01*
G75*
G02*
X84129999Y-75500000I249999J0D01*
G01*
X84780001Y-75500000D01*
G75*
G02*
X85030000Y-75749999I0J-249999D01*
G01*
G37*
G36*
G01*
X87080000Y-75749999D02*
X87080000Y-76650001D01*
G75*
G02*
X86830001Y-76900000I-249999J0D01*
G01*
X86179999Y-76900000D01*
G75*
G02*
X85930000Y-76650001I0J249999D01*
G01*
X85930000Y-75749999D01*
G75*
G02*
X86179999Y-75500000I249999J0D01*
G01*
X86830001Y-75500000D01*
G75*
G02*
X87080000Y-75749999I0J-249999D01*
G01*
G37*
%TD*%
%TO.C,R14*%
G36*
G01*
X134308001Y-94292000D02*
X133407999Y-94292000D01*
G75*
G02*
X133158000Y-94042001I0J249999D01*
G01*
X133158000Y-93391999D01*
G75*
G02*
X133407999Y-93142000I249999J0D01*
G01*
X134308001Y-93142000D01*
G75*
G02*
X134558000Y-93391999I0J-249999D01*
G01*
X134558000Y-94042001D01*
G75*
G02*
X134308001Y-94292000I-249999J0D01*
G01*
G37*
G36*
G01*
X134308001Y-96342000D02*
X133407999Y-96342000D01*
G75*
G02*
X133158000Y-96092001I0J249999D01*
G01*
X133158000Y-95441999D01*
G75*
G02*
X133407999Y-95192000I249999J0D01*
G01*
X134308001Y-95192000D01*
G75*
G02*
X134558000Y-95441999I0J-249999D01*
G01*
X134558000Y-96092001D01*
G75*
G02*
X134308001Y-96342000I-249999J0D01*
G01*
G37*
%TD*%
%TO.C,R13*%
G36*
G01*
X127692999Y-95183000D02*
X128593001Y-95183000D01*
G75*
G02*
X128843000Y-95432999I0J-249999D01*
G01*
X128843000Y-96083001D01*
G75*
G02*
X128593001Y-96333000I-249999J0D01*
G01*
X127692999Y-96333000D01*
G75*
G02*
X127443000Y-96083001I0J249999D01*
G01*
X127443000Y-95432999D01*
G75*
G02*
X127692999Y-95183000I249999J0D01*
G01*
G37*
G36*
G01*
X127692999Y-93133000D02*
X128593001Y-93133000D01*
G75*
G02*
X128843000Y-93382999I0J-249999D01*
G01*
X128843000Y-94033001D01*
G75*
G02*
X128593001Y-94283000I-249999J0D01*
G01*
X127692999Y-94283000D01*
G75*
G02*
X127443000Y-94033001I0J249999D01*
G01*
X127443000Y-93382999D01*
G75*
G02*
X127692999Y-93133000I249999J0D01*
G01*
G37*
%TD*%
%TO.C,R12*%
G36*
G01*
X148140000Y-88957999D02*
X148140000Y-89858001D01*
G75*
G02*
X147890001Y-90108000I-249999J0D01*
G01*
X147239999Y-90108000D01*
G75*
G02*
X146990000Y-89858001I0J249999D01*
G01*
X146990000Y-88957999D01*
G75*
G02*
X147239999Y-88708000I249999J0D01*
G01*
X147890001Y-88708000D01*
G75*
G02*
X148140000Y-88957999I0J-249999D01*
G01*
G37*
G36*
G01*
X150190000Y-88957999D02*
X150190000Y-89858001D01*
G75*
G02*
X149940001Y-90108000I-249999J0D01*
G01*
X149289999Y-90108000D01*
G75*
G02*
X149040000Y-89858001I0J249999D01*
G01*
X149040000Y-88957999D01*
G75*
G02*
X149289999Y-88708000I249999J0D01*
G01*
X149940001Y-88708000D01*
G75*
G02*
X150190000Y-88957999I0J-249999D01*
G01*
G37*
%TD*%
%TO.C,R11*%
G36*
G01*
X143305000Y-88957999D02*
X143305000Y-89858001D01*
G75*
G02*
X143055001Y-90108000I-249999J0D01*
G01*
X142404999Y-90108000D01*
G75*
G02*
X142155000Y-89858001I0J249999D01*
G01*
X142155000Y-88957999D01*
G75*
G02*
X142404999Y-88708000I249999J0D01*
G01*
X143055001Y-88708000D01*
G75*
G02*
X143305000Y-88957999I0J-249999D01*
G01*
G37*
G36*
G01*
X145355000Y-88957999D02*
X145355000Y-89858001D01*
G75*
G02*
X145105001Y-90108000I-249999J0D01*
G01*
X144454999Y-90108000D01*
G75*
G02*
X144205000Y-89858001I0J249999D01*
G01*
X144205000Y-88957999D01*
G75*
G02*
X144454999Y-88708000I249999J0D01*
G01*
X145105001Y-88708000D01*
G75*
G02*
X145355000Y-88957999I0J-249999D01*
G01*
G37*
%TD*%
%TO.C,R10*%
G36*
G01*
X132645999Y-86057000D02*
X133546001Y-86057000D01*
G75*
G02*
X133796000Y-86306999I0J-249999D01*
G01*
X133796000Y-86957001D01*
G75*
G02*
X133546001Y-87207000I-249999J0D01*
G01*
X132645999Y-87207000D01*
G75*
G02*
X132396000Y-86957001I0J249999D01*
G01*
X132396000Y-86306999D01*
G75*
G02*
X132645999Y-86057000I249999J0D01*
G01*
G37*
G36*
G01*
X132645999Y-84007000D02*
X133546001Y-84007000D01*
G75*
G02*
X133796000Y-84256999I0J-249999D01*
G01*
X133796000Y-84907001D01*
G75*
G02*
X133546001Y-85157000I-249999J0D01*
G01*
X132645999Y-85157000D01*
G75*
G02*
X132396000Y-84907001I0J249999D01*
G01*
X132396000Y-84256999D01*
G75*
G02*
X132645999Y-84007000I249999J0D01*
G01*
G37*
%TD*%
%TO.C,R9*%
G36*
G01*
X138233999Y-86039000D02*
X139134001Y-86039000D01*
G75*
G02*
X139384000Y-86288999I0J-249999D01*
G01*
X139384000Y-86939001D01*
G75*
G02*
X139134001Y-87189000I-249999J0D01*
G01*
X138233999Y-87189000D01*
G75*
G02*
X137984000Y-86939001I0J249999D01*
G01*
X137984000Y-86288999D01*
G75*
G02*
X138233999Y-86039000I249999J0D01*
G01*
G37*
G36*
G01*
X138233999Y-83989000D02*
X139134001Y-83989000D01*
G75*
G02*
X139384000Y-84238999I0J-249999D01*
G01*
X139384000Y-84889001D01*
G75*
G02*
X139134001Y-85139000I-249999J0D01*
G01*
X138233999Y-85139000D01*
G75*
G02*
X137984000Y-84889001I0J249999D01*
G01*
X137984000Y-84238999D01*
G75*
G02*
X138233999Y-83989000I249999J0D01*
G01*
G37*
%TD*%
%TO.C,R8*%
G36*
G01*
X134169999Y-73339000D02*
X135070001Y-73339000D01*
G75*
G02*
X135320000Y-73588999I0J-249999D01*
G01*
X135320000Y-74239001D01*
G75*
G02*
X135070001Y-74489000I-249999J0D01*
G01*
X134169999Y-74489000D01*
G75*
G02*
X133920000Y-74239001I0J249999D01*
G01*
X133920000Y-73588999D01*
G75*
G02*
X134169999Y-73339000I249999J0D01*
G01*
G37*
G36*
G01*
X134169999Y-71289000D02*
X135070001Y-71289000D01*
G75*
G02*
X135320000Y-71538999I0J-249999D01*
G01*
X135320000Y-72189001D01*
G75*
G02*
X135070001Y-72439000I-249999J0D01*
G01*
X134169999Y-72439000D01*
G75*
G02*
X133920000Y-72189001I0J249999D01*
G01*
X133920000Y-71538999D01*
G75*
G02*
X134169999Y-71289000I249999J0D01*
G01*
G37*
%TD*%
%TO.C,R7*%
G36*
G01*
X132276001Y-72439000D02*
X131375999Y-72439000D01*
G75*
G02*
X131126000Y-72189001I0J249999D01*
G01*
X131126000Y-71538999D01*
G75*
G02*
X131375999Y-71289000I249999J0D01*
G01*
X132276001Y-71289000D01*
G75*
G02*
X132526000Y-71538999I0J-249999D01*
G01*
X132526000Y-72189001D01*
G75*
G02*
X132276001Y-72439000I-249999J0D01*
G01*
G37*
G36*
G01*
X132276001Y-74489000D02*
X131375999Y-74489000D01*
G75*
G02*
X131126000Y-74239001I0J249999D01*
G01*
X131126000Y-73588999D01*
G75*
G02*
X131375999Y-73339000I249999J0D01*
G01*
X132276001Y-73339000D01*
G75*
G02*
X132526000Y-73588999I0J-249999D01*
G01*
X132526000Y-74239001D01*
G75*
G02*
X132276001Y-74489000I-249999J0D01*
G01*
G37*
%TD*%
%TO.C,R6*%
G36*
G01*
X129482001Y-72439000D02*
X128581999Y-72439000D01*
G75*
G02*
X128332000Y-72189001I0J249999D01*
G01*
X128332000Y-71538999D01*
G75*
G02*
X128581999Y-71289000I249999J0D01*
G01*
X129482001Y-71289000D01*
G75*
G02*
X129732000Y-71538999I0J-249999D01*
G01*
X129732000Y-72189001D01*
G75*
G02*
X129482001Y-72439000I-249999J0D01*
G01*
G37*
G36*
G01*
X129482001Y-74489000D02*
X128581999Y-74489000D01*
G75*
G02*
X128332000Y-74239001I0J249999D01*
G01*
X128332000Y-73588999D01*
G75*
G02*
X128581999Y-73339000I249999J0D01*
G01*
X129482001Y-73339000D01*
G75*
G02*
X129732000Y-73588999I0J-249999D01*
G01*
X129732000Y-74239001D01*
G75*
G02*
X129482001Y-74489000I-249999J0D01*
G01*
G37*
%TD*%
%TO.C,R5*%
G36*
G01*
X147877000Y-76511999D02*
X147877000Y-77412001D01*
G75*
G02*
X147627001Y-77662000I-249999J0D01*
G01*
X146976999Y-77662000D01*
G75*
G02*
X146727000Y-77412001I0J249999D01*
G01*
X146727000Y-76511999D01*
G75*
G02*
X146976999Y-76262000I249999J0D01*
G01*
X147627001Y-76262000D01*
G75*
G02*
X147877000Y-76511999I0J-249999D01*
G01*
G37*
G36*
G01*
X149927000Y-76511999D02*
X149927000Y-77412001D01*
G75*
G02*
X149677001Y-77662000I-249999J0D01*
G01*
X149026999Y-77662000D01*
G75*
G02*
X148777000Y-77412001I0J249999D01*
G01*
X148777000Y-76511999D01*
G75*
G02*
X149026999Y-76262000I249999J0D01*
G01*
X149677001Y-76262000D01*
G75*
G02*
X149927000Y-76511999I0J-249999D01*
G01*
G37*
%TD*%
%TO.C,R4*%
G36*
G01*
X97847999Y-104962000D02*
X98748001Y-104962000D01*
G75*
G02*
X98998000Y-105211999I0J-249999D01*
G01*
X98998000Y-105862001D01*
G75*
G02*
X98748001Y-106112000I-249999J0D01*
G01*
X97847999Y-106112000D01*
G75*
G02*
X97598000Y-105862001I0J249999D01*
G01*
X97598000Y-105211999D01*
G75*
G02*
X97847999Y-104962000I249999J0D01*
G01*
G37*
G36*
G01*
X97847999Y-102912000D02*
X98748001Y-102912000D01*
G75*
G02*
X98998000Y-103161999I0J-249999D01*
G01*
X98998000Y-103812001D01*
G75*
G02*
X98748001Y-104062000I-249999J0D01*
G01*
X97847999Y-104062000D01*
G75*
G02*
X97598000Y-103812001I0J249999D01*
G01*
X97598000Y-103161999D01*
G75*
G02*
X97847999Y-102912000I249999J0D01*
G01*
G37*
%TD*%
%TO.C,R3*%
G36*
G01*
X131629999Y-63197000D02*
X132530001Y-63197000D01*
G75*
G02*
X132780000Y-63446999I0J-249999D01*
G01*
X132780000Y-64097001D01*
G75*
G02*
X132530001Y-64347000I-249999J0D01*
G01*
X131629999Y-64347000D01*
G75*
G02*
X131380000Y-64097001I0J249999D01*
G01*
X131380000Y-63446999D01*
G75*
G02*
X131629999Y-63197000I249999J0D01*
G01*
G37*
G36*
G01*
X131629999Y-61147000D02*
X132530001Y-61147000D01*
G75*
G02*
X132780000Y-61396999I0J-249999D01*
G01*
X132780000Y-62047001D01*
G75*
G02*
X132530001Y-62297000I-249999J0D01*
G01*
X131629999Y-62297000D01*
G75*
G02*
X131380000Y-62047001I0J249999D01*
G01*
X131380000Y-61396999D01*
G75*
G02*
X131629999Y-61147000I249999J0D01*
G01*
G37*
%TD*%
%TO.C,R2*%
G36*
G01*
X136709999Y-63197000D02*
X137610001Y-63197000D01*
G75*
G02*
X137860000Y-63446999I0J-249999D01*
G01*
X137860000Y-64097001D01*
G75*
G02*
X137610001Y-64347000I-249999J0D01*
G01*
X136709999Y-64347000D01*
G75*
G02*
X136460000Y-64097001I0J249999D01*
G01*
X136460000Y-63446999D01*
G75*
G02*
X136709999Y-63197000I249999J0D01*
G01*
G37*
G36*
G01*
X136709999Y-61147000D02*
X137610001Y-61147000D01*
G75*
G02*
X137860000Y-61396999I0J-249999D01*
G01*
X137860000Y-62047001D01*
G75*
G02*
X137610001Y-62297000I-249999J0D01*
G01*
X136709999Y-62297000D01*
G75*
G02*
X136460000Y-62047001I0J249999D01*
G01*
X136460000Y-61396999D01*
G75*
G02*
X136709999Y-61147000I249999J0D01*
G01*
G37*
%TD*%
%TO.C,R1*%
G36*
G01*
X97224001Y-89584000D02*
X96323999Y-89584000D01*
G75*
G02*
X96074000Y-89334001I0J249999D01*
G01*
X96074000Y-88683999D01*
G75*
G02*
X96323999Y-88434000I249999J0D01*
G01*
X97224001Y-88434000D01*
G75*
G02*
X97474000Y-88683999I0J-249999D01*
G01*
X97474000Y-89334001D01*
G75*
G02*
X97224001Y-89584000I-249999J0D01*
G01*
G37*
G36*
G01*
X97224001Y-91634000D02*
X96323999Y-91634000D01*
G75*
G02*
X96074000Y-91384001I0J249999D01*
G01*
X96074000Y-90733999D01*
G75*
G02*
X96323999Y-90484000I249999J0D01*
G01*
X97224001Y-90484000D01*
G75*
G02*
X97474000Y-90733999I0J-249999D01*
G01*
X97474000Y-91384001D01*
G75*
G02*
X97224001Y-91634000I-249999J0D01*
G01*
G37*
%TD*%
%TO.C,FB2*%
G36*
G01*
X105098001Y-62805000D02*
X104197999Y-62805000D01*
G75*
G02*
X103948000Y-62555001I0J249999D01*
G01*
X103948000Y-61904999D01*
G75*
G02*
X104197999Y-61655000I249999J0D01*
G01*
X105098001Y-61655000D01*
G75*
G02*
X105348000Y-61904999I0J-249999D01*
G01*
X105348000Y-62555001D01*
G75*
G02*
X105098001Y-62805000I-249999J0D01*
G01*
G37*
G36*
G01*
X105098001Y-64855000D02*
X104197999Y-64855000D01*
G75*
G02*
X103948000Y-64605001I0J249999D01*
G01*
X103948000Y-63954999D01*
G75*
G02*
X104197999Y-63705000I249999J0D01*
G01*
X105098001Y-63705000D01*
G75*
G02*
X105348000Y-63954999I0J-249999D01*
G01*
X105348000Y-64605001D01*
G75*
G02*
X105098001Y-64855000I-249999J0D01*
G01*
G37*
%TD*%
%TO.C,FB1*%
G36*
G01*
X108781001Y-89584000D02*
X107880999Y-89584000D01*
G75*
G02*
X107631000Y-89334001I0J249999D01*
G01*
X107631000Y-88683999D01*
G75*
G02*
X107880999Y-88434000I249999J0D01*
G01*
X108781001Y-88434000D01*
G75*
G02*
X109031000Y-88683999I0J-249999D01*
G01*
X109031000Y-89334001D01*
G75*
G02*
X108781001Y-89584000I-249999J0D01*
G01*
G37*
G36*
G01*
X108781001Y-91634000D02*
X107880999Y-91634000D01*
G75*
G02*
X107631000Y-91384001I0J249999D01*
G01*
X107631000Y-90733999D01*
G75*
G02*
X107880999Y-90484000I249999J0D01*
G01*
X108781001Y-90484000D01*
G75*
G02*
X109031000Y-90733999I0J-249999D01*
G01*
X109031000Y-91384001D01*
G75*
G02*
X108781001Y-91634000I-249999J0D01*
G01*
G37*
%TD*%
D12*
%TO.C,D2*%
X98173000Y-62230000D03*
X101473000Y-62230000D03*
%TD*%
%TO.C,C26*%
G36*
G01*
X114496001Y-85157000D02*
X113595999Y-85157000D01*
G75*
G02*
X113346000Y-84907001I0J249999D01*
G01*
X113346000Y-84256999D01*
G75*
G02*
X113595999Y-84007000I249999J0D01*
G01*
X114496001Y-84007000D01*
G75*
G02*
X114746000Y-84256999I0J-249999D01*
G01*
X114746000Y-84907001D01*
G75*
G02*
X114496001Y-85157000I-249999J0D01*
G01*
G37*
G36*
G01*
X114496001Y-87207000D02*
X113595999Y-87207000D01*
G75*
G02*
X113346000Y-86957001I0J249999D01*
G01*
X113346000Y-86306999D01*
G75*
G02*
X113595999Y-86057000I249999J0D01*
G01*
X114496001Y-86057000D01*
G75*
G02*
X114746000Y-86306999I0J-249999D01*
G01*
X114746000Y-86957001D01*
G75*
G02*
X114496001Y-87207000I-249999J0D01*
G01*
G37*
%TD*%
%TO.C,C25*%
G36*
G01*
X125926001Y-85157000D02*
X125025999Y-85157000D01*
G75*
G02*
X124776000Y-84907001I0J249999D01*
G01*
X124776000Y-84256999D01*
G75*
G02*
X125025999Y-84007000I249999J0D01*
G01*
X125926001Y-84007000D01*
G75*
G02*
X126176000Y-84256999I0J-249999D01*
G01*
X126176000Y-84907001D01*
G75*
G02*
X125926001Y-85157000I-249999J0D01*
G01*
G37*
G36*
G01*
X125926001Y-87207000D02*
X125025999Y-87207000D01*
G75*
G02*
X124776000Y-86957001I0J249999D01*
G01*
X124776000Y-86306999D01*
G75*
G02*
X125025999Y-86057000I249999J0D01*
G01*
X125926001Y-86057000D01*
G75*
G02*
X126176000Y-86306999I0J-249999D01*
G01*
X126176000Y-86957001D01*
G75*
G02*
X125926001Y-87207000I-249999J0D01*
G01*
G37*
%TD*%
%TO.C,C24*%
G36*
G01*
X113849999Y-73339000D02*
X114750001Y-73339000D01*
G75*
G02*
X115000000Y-73588999I0J-249999D01*
G01*
X115000000Y-74239001D01*
G75*
G02*
X114750001Y-74489000I-249999J0D01*
G01*
X113849999Y-74489000D01*
G75*
G02*
X113600000Y-74239001I0J249999D01*
G01*
X113600000Y-73588999D01*
G75*
G02*
X113849999Y-73339000I249999J0D01*
G01*
G37*
G36*
G01*
X113849999Y-71289000D02*
X114750001Y-71289000D01*
G75*
G02*
X115000000Y-71538999I0J-249999D01*
G01*
X115000000Y-72189001D01*
G75*
G02*
X114750001Y-72439000I-249999J0D01*
G01*
X113849999Y-72439000D01*
G75*
G02*
X113600000Y-72189001I0J249999D01*
G01*
X113600000Y-71538999D01*
G75*
G02*
X113849999Y-71289000I249999J0D01*
G01*
G37*
%TD*%
%TO.C,C23*%
G36*
G01*
X125025999Y-73339000D02*
X125926001Y-73339000D01*
G75*
G02*
X126176000Y-73588999I0J-249999D01*
G01*
X126176000Y-74239001D01*
G75*
G02*
X125926001Y-74489000I-249999J0D01*
G01*
X125025999Y-74489000D01*
G75*
G02*
X124776000Y-74239001I0J249999D01*
G01*
X124776000Y-73588999D01*
G75*
G02*
X125025999Y-73339000I249999J0D01*
G01*
G37*
G36*
G01*
X125025999Y-71289000D02*
X125926001Y-71289000D01*
G75*
G02*
X126176000Y-71538999I0J-249999D01*
G01*
X126176000Y-72189001D01*
G75*
G02*
X125926001Y-72439000I-249999J0D01*
G01*
X125025999Y-72439000D01*
G75*
G02*
X124776000Y-72189001I0J249999D01*
G01*
X124776000Y-71538999D01*
G75*
G02*
X125025999Y-71289000I249999J0D01*
G01*
G37*
%TD*%
%TO.C,C22*%
G36*
G01*
X131514001Y-94292000D02*
X130613999Y-94292000D01*
G75*
G02*
X130364000Y-94042001I0J249999D01*
G01*
X130364000Y-93391999D01*
G75*
G02*
X130613999Y-93142000I249999J0D01*
G01*
X131514001Y-93142000D01*
G75*
G02*
X131764000Y-93391999I0J-249999D01*
G01*
X131764000Y-94042001D01*
G75*
G02*
X131514001Y-94292000I-249999J0D01*
G01*
G37*
G36*
G01*
X131514001Y-96342000D02*
X130613999Y-96342000D01*
G75*
G02*
X130364000Y-96092001I0J249999D01*
G01*
X130364000Y-95441999D01*
G75*
G02*
X130613999Y-95192000I249999J0D01*
G01*
X131514001Y-95192000D01*
G75*
G02*
X131764000Y-95441999I0J-249999D01*
G01*
X131764000Y-96092001D01*
G75*
G02*
X131514001Y-96342000I-249999J0D01*
G01*
G37*
%TD*%
%TO.C,C21*%
G36*
G01*
X114496001Y-78798000D02*
X113595999Y-78798000D01*
G75*
G02*
X113346000Y-78548001I0J249999D01*
G01*
X113346000Y-77897999D01*
G75*
G02*
X113595999Y-77648000I249999J0D01*
G01*
X114496001Y-77648000D01*
G75*
G02*
X114746000Y-77897999I0J-249999D01*
G01*
X114746000Y-78548001D01*
G75*
G02*
X114496001Y-78798000I-249999J0D01*
G01*
G37*
G36*
G01*
X114496001Y-80848000D02*
X113595999Y-80848000D01*
G75*
G02*
X113346000Y-80598001I0J249999D01*
G01*
X113346000Y-79947999D01*
G75*
G02*
X113595999Y-79698000I249999J0D01*
G01*
X114496001Y-79698000D01*
G75*
G02*
X114746000Y-79947999I0J-249999D01*
G01*
X114746000Y-80598001D01*
G75*
G02*
X114496001Y-80848000I-249999J0D01*
G01*
G37*
%TD*%
%TO.C,C20*%
G36*
G01*
X94684001Y-67876000D02*
X93783999Y-67876000D01*
G75*
G02*
X93534000Y-67626001I0J249999D01*
G01*
X93534000Y-66975999D01*
G75*
G02*
X93783999Y-66726000I249999J0D01*
G01*
X94684001Y-66726000D01*
G75*
G02*
X94934000Y-66975999I0J-249999D01*
G01*
X94934000Y-67626001D01*
G75*
G02*
X94684001Y-67876000I-249999J0D01*
G01*
G37*
G36*
G01*
X94684001Y-69926000D02*
X93783999Y-69926000D01*
G75*
G02*
X93534000Y-69676001I0J249999D01*
G01*
X93534000Y-69025999D01*
G75*
G02*
X93783999Y-68776000I249999J0D01*
G01*
X94684001Y-68776000D01*
G75*
G02*
X94934000Y-69025999I0J-249999D01*
G01*
X94934000Y-69676001D01*
G75*
G02*
X94684001Y-69926000I-249999J0D01*
G01*
G37*
%TD*%
%TO.C,C19*%
G36*
G01*
X124656001Y-78789000D02*
X123755999Y-78789000D01*
G75*
G02*
X123506000Y-78539001I0J249999D01*
G01*
X123506000Y-77888999D01*
G75*
G02*
X123755999Y-77639000I249999J0D01*
G01*
X124656001Y-77639000D01*
G75*
G02*
X124906000Y-77888999I0J-249999D01*
G01*
X124906000Y-78539001D01*
G75*
G02*
X124656001Y-78789000I-249999J0D01*
G01*
G37*
G36*
G01*
X124656001Y-80839000D02*
X123755999Y-80839000D01*
G75*
G02*
X123506000Y-80589001I0J249999D01*
G01*
X123506000Y-79938999D01*
G75*
G02*
X123755999Y-79689000I249999J0D01*
G01*
X124656001Y-79689000D01*
G75*
G02*
X124906000Y-79938999I0J-249999D01*
G01*
X124906000Y-80589001D01*
G75*
G02*
X124656001Y-80839000I-249999J0D01*
G01*
G37*
%TD*%
%TO.C,C18*%
G36*
G01*
X138118001Y-78798000D02*
X137217999Y-78798000D01*
G75*
G02*
X136968000Y-78548001I0J249999D01*
G01*
X136968000Y-77897999D01*
G75*
G02*
X137217999Y-77648000I249999J0D01*
G01*
X138118001Y-77648000D01*
G75*
G02*
X138368000Y-77897999I0J-249999D01*
G01*
X138368000Y-78548001D01*
G75*
G02*
X138118001Y-78798000I-249999J0D01*
G01*
G37*
G36*
G01*
X138118001Y-80848000D02*
X137217999Y-80848000D01*
G75*
G02*
X136968000Y-80598001I0J249999D01*
G01*
X136968000Y-79947999D01*
G75*
G02*
X137217999Y-79698000I249999J0D01*
G01*
X138118001Y-79698000D01*
G75*
G02*
X138368000Y-79947999I0J-249999D01*
G01*
X138368000Y-80598001D01*
G75*
G02*
X138118001Y-80848000I-249999J0D01*
G01*
G37*
%TD*%
%TO.C,C17*%
G36*
G01*
X104197999Y-69275000D02*
X105098001Y-69275000D01*
G75*
G02*
X105348000Y-69524999I0J-249999D01*
G01*
X105348000Y-70175001D01*
G75*
G02*
X105098001Y-70425000I-249999J0D01*
G01*
X104197999Y-70425000D01*
G75*
G02*
X103948000Y-70175001I0J249999D01*
G01*
X103948000Y-69524999D01*
G75*
G02*
X104197999Y-69275000I249999J0D01*
G01*
G37*
G36*
G01*
X104197999Y-67225000D02*
X105098001Y-67225000D01*
G75*
G02*
X105348000Y-67474999I0J-249999D01*
G01*
X105348000Y-68125001D01*
G75*
G02*
X105098001Y-68375000I-249999J0D01*
G01*
X104197999Y-68375000D01*
G75*
G02*
X103948000Y-68125001I0J249999D01*
G01*
X103948000Y-67474999D01*
G75*
G02*
X104197999Y-67225000I249999J0D01*
G01*
G37*
%TD*%
%TO.C,C16*%
G36*
G01*
X127704001Y-78807000D02*
X126803999Y-78807000D01*
G75*
G02*
X126554000Y-78557001I0J249999D01*
G01*
X126554000Y-77906999D01*
G75*
G02*
X126803999Y-77657000I249999J0D01*
G01*
X127704001Y-77657000D01*
G75*
G02*
X127954000Y-77906999I0J-249999D01*
G01*
X127954000Y-78557001D01*
G75*
G02*
X127704001Y-78807000I-249999J0D01*
G01*
G37*
G36*
G01*
X127704001Y-80857000D02*
X126803999Y-80857000D01*
G75*
G02*
X126554000Y-80607001I0J249999D01*
G01*
X126554000Y-79956999D01*
G75*
G02*
X126803999Y-79707000I249999J0D01*
G01*
X127704001Y-79707000D01*
G75*
G02*
X127954000Y-79956999I0J-249999D01*
G01*
X127954000Y-80607001D01*
G75*
G02*
X127704001Y-80857000I-249999J0D01*
G01*
G37*
%TD*%
%TO.C,C15*%
G36*
G01*
X119068001Y-98619000D02*
X118167999Y-98619000D01*
G75*
G02*
X117918000Y-98369001I0J249999D01*
G01*
X117918000Y-97718999D01*
G75*
G02*
X118167999Y-97469000I249999J0D01*
G01*
X119068001Y-97469000D01*
G75*
G02*
X119318000Y-97718999I0J-249999D01*
G01*
X119318000Y-98369001D01*
G75*
G02*
X119068001Y-98619000I-249999J0D01*
G01*
G37*
G36*
G01*
X119068001Y-100669000D02*
X118167999Y-100669000D01*
G75*
G02*
X117918000Y-100419001I0J249999D01*
G01*
X117918000Y-99768999D01*
G75*
G02*
X118167999Y-99519000I249999J0D01*
G01*
X119068001Y-99519000D01*
G75*
G02*
X119318000Y-99768999I0J-249999D01*
G01*
X119318000Y-100419001D01*
G75*
G02*
X119068001Y-100669000I-249999J0D01*
G01*
G37*
%TD*%
%TO.C,C14*%
G36*
G01*
X95053999Y-99519000D02*
X95954001Y-99519000D01*
G75*
G02*
X96204000Y-99768999I0J-249999D01*
G01*
X96204000Y-100419001D01*
G75*
G02*
X95954001Y-100669000I-249999J0D01*
G01*
X95053999Y-100669000D01*
G75*
G02*
X94804000Y-100419001I0J249999D01*
G01*
X94804000Y-99768999D01*
G75*
G02*
X95053999Y-99519000I249999J0D01*
G01*
G37*
G36*
G01*
X95053999Y-97469000D02*
X95954001Y-97469000D01*
G75*
G02*
X96204000Y-97718999I0J-249999D01*
G01*
X96204000Y-98369001D01*
G75*
G02*
X95954001Y-98619000I-249999J0D01*
G01*
X95053999Y-98619000D01*
G75*
G02*
X94804000Y-98369001I0J249999D01*
G01*
X94804000Y-97718999D01*
G75*
G02*
X95053999Y-97469000I249999J0D01*
G01*
G37*
%TD*%
%TO.C,C13*%
G36*
G01*
X103066001Y-89602000D02*
X102165999Y-89602000D01*
G75*
G02*
X101916000Y-89352001I0J249999D01*
G01*
X101916000Y-88701999D01*
G75*
G02*
X102165999Y-88452000I249999J0D01*
G01*
X103066001Y-88452000D01*
G75*
G02*
X103316000Y-88701999I0J-249999D01*
G01*
X103316000Y-89352001D01*
G75*
G02*
X103066001Y-89602000I-249999J0D01*
G01*
G37*
G36*
G01*
X103066001Y-91652000D02*
X102165999Y-91652000D01*
G75*
G02*
X101916000Y-91402001I0J249999D01*
G01*
X101916000Y-90751999D01*
G75*
G02*
X102165999Y-90502000I249999J0D01*
G01*
X103066001Y-90502000D01*
G75*
G02*
X103316000Y-90751999I0J-249999D01*
G01*
X103316000Y-91402001D01*
G75*
G02*
X103066001Y-91652000I-249999J0D01*
G01*
G37*
%TD*%
%TO.C,C12*%
G36*
G01*
X97847999Y-99519000D02*
X98748001Y-99519000D01*
G75*
G02*
X98998000Y-99768999I0J-249999D01*
G01*
X98998000Y-100419001D01*
G75*
G02*
X98748001Y-100669000I-249999J0D01*
G01*
X97847999Y-100669000D01*
G75*
G02*
X97598000Y-100419001I0J249999D01*
G01*
X97598000Y-99768999D01*
G75*
G02*
X97847999Y-99519000I249999J0D01*
G01*
G37*
G36*
G01*
X97847999Y-97469000D02*
X98748001Y-97469000D01*
G75*
G02*
X98998000Y-97718999I0J-249999D01*
G01*
X98998000Y-98369001D01*
G75*
G02*
X98748001Y-98619000I-249999J0D01*
G01*
X97847999Y-98619000D01*
G75*
G02*
X97598000Y-98369001I0J249999D01*
G01*
X97598000Y-97718999D01*
G75*
G02*
X97847999Y-97469000I249999J0D01*
G01*
G37*
%TD*%
%TO.C,C11*%
G36*
G01*
X105987001Y-89584000D02*
X105086999Y-89584000D01*
G75*
G02*
X104837000Y-89334001I0J249999D01*
G01*
X104837000Y-88683999D01*
G75*
G02*
X105086999Y-88434000I249999J0D01*
G01*
X105987001Y-88434000D01*
G75*
G02*
X106237000Y-88683999I0J-249999D01*
G01*
X106237000Y-89334001D01*
G75*
G02*
X105987001Y-89584000I-249999J0D01*
G01*
G37*
G36*
G01*
X105987001Y-91634000D02*
X105086999Y-91634000D01*
G75*
G02*
X104837000Y-91384001I0J249999D01*
G01*
X104837000Y-90733999D01*
G75*
G02*
X105086999Y-90484000I249999J0D01*
G01*
X105987001Y-90484000D01*
G75*
G02*
X106237000Y-90733999I0J-249999D01*
G01*
X106237000Y-91384001D01*
G75*
G02*
X105987001Y-91634000I-249999J0D01*
G01*
G37*
%TD*%
%TO.C,C10*%
G36*
G01*
X113099001Y-98601000D02*
X112198999Y-98601000D01*
G75*
G02*
X111949000Y-98351001I0J249999D01*
G01*
X111949000Y-97700999D01*
G75*
G02*
X112198999Y-97451000I249999J0D01*
G01*
X113099001Y-97451000D01*
G75*
G02*
X113349000Y-97700999I0J-249999D01*
G01*
X113349000Y-98351001D01*
G75*
G02*
X113099001Y-98601000I-249999J0D01*
G01*
G37*
G36*
G01*
X113099001Y-100651000D02*
X112198999Y-100651000D01*
G75*
G02*
X111949000Y-100401001I0J249999D01*
G01*
X111949000Y-99750999D01*
G75*
G02*
X112198999Y-99501000I249999J0D01*
G01*
X113099001Y-99501000D01*
G75*
G02*
X113349000Y-99750999I0J-249999D01*
G01*
X113349000Y-100401001D01*
G75*
G02*
X113099001Y-100651000I-249999J0D01*
G01*
G37*
%TD*%
%TO.C,C9*%
G36*
G01*
X116147001Y-98601000D02*
X115246999Y-98601000D01*
G75*
G02*
X114997000Y-98351001I0J249999D01*
G01*
X114997000Y-97700999D01*
G75*
G02*
X115246999Y-97451000I249999J0D01*
G01*
X116147001Y-97451000D01*
G75*
G02*
X116397000Y-97700999I0J-249999D01*
G01*
X116397000Y-98351001D01*
G75*
G02*
X116147001Y-98601000I-249999J0D01*
G01*
G37*
G36*
G01*
X116147001Y-100651000D02*
X115246999Y-100651000D01*
G75*
G02*
X114997000Y-100401001I0J249999D01*
G01*
X114997000Y-99750999D01*
G75*
G02*
X115246999Y-99501000I249999J0D01*
G01*
X116147001Y-99501000D01*
G75*
G02*
X116397000Y-99750999I0J-249999D01*
G01*
X116397000Y-100401001D01*
G75*
G02*
X116147001Y-100651000I-249999J0D01*
G01*
G37*
%TD*%
%TO.C,C7*%
G36*
G01*
X136340001Y-85157000D02*
X135439999Y-85157000D01*
G75*
G02*
X135190000Y-84907001I0J249999D01*
G01*
X135190000Y-84256999D01*
G75*
G02*
X135439999Y-84007000I249999J0D01*
G01*
X136340001Y-84007000D01*
G75*
G02*
X136590000Y-84256999I0J-249999D01*
G01*
X136590000Y-84907001D01*
G75*
G02*
X136340001Y-85157000I-249999J0D01*
G01*
G37*
G36*
G01*
X136340001Y-87207000D02*
X135439999Y-87207000D01*
G75*
G02*
X135190000Y-86957001I0J249999D01*
G01*
X135190000Y-86306999D01*
G75*
G02*
X135439999Y-86057000I249999J0D01*
G01*
X136340001Y-86057000D01*
G75*
G02*
X136590000Y-86306999I0J-249999D01*
G01*
X136590000Y-86957001D01*
G75*
G02*
X136340001Y-87207000I-249999J0D01*
G01*
G37*
%TD*%
%TO.C,C6*%
G36*
G01*
X129851999Y-86057000D02*
X130752001Y-86057000D01*
G75*
G02*
X131002000Y-86306999I0J-249999D01*
G01*
X131002000Y-86957001D01*
G75*
G02*
X130752001Y-87207000I-249999J0D01*
G01*
X129851999Y-87207000D01*
G75*
G02*
X129602000Y-86957001I0J249999D01*
G01*
X129602000Y-86306999D01*
G75*
G02*
X129851999Y-86057000I249999J0D01*
G01*
G37*
G36*
G01*
X129851999Y-84007000D02*
X130752001Y-84007000D01*
G75*
G02*
X131002000Y-84256999I0J-249999D01*
G01*
X131002000Y-84907001D01*
G75*
G02*
X130752001Y-85157000I-249999J0D01*
G01*
X129851999Y-85157000D01*
G75*
G02*
X129602000Y-84907001I0J249999D01*
G01*
X129602000Y-84256999D01*
G75*
G02*
X129851999Y-84007000I249999J0D01*
G01*
G37*
%TD*%
%TO.C,C5*%
G36*
G01*
X136963999Y-73339000D02*
X137864001Y-73339000D01*
G75*
G02*
X138114000Y-73588999I0J-249999D01*
G01*
X138114000Y-74239001D01*
G75*
G02*
X137864001Y-74489000I-249999J0D01*
G01*
X136963999Y-74489000D01*
G75*
G02*
X136714000Y-74239001I0J249999D01*
G01*
X136714000Y-73588999D01*
G75*
G02*
X136963999Y-73339000I249999J0D01*
G01*
G37*
G36*
G01*
X136963999Y-71289000D02*
X137864001Y-71289000D01*
G75*
G02*
X138114000Y-71538999I0J-249999D01*
G01*
X138114000Y-72189001D01*
G75*
G02*
X137864001Y-72439000I-249999J0D01*
G01*
X136963999Y-72439000D01*
G75*
G02*
X136714000Y-72189001I0J249999D01*
G01*
X136714000Y-71538999D01*
G75*
G02*
X136963999Y-71289000I249999J0D01*
G01*
G37*
%TD*%
%TO.C,C3*%
G36*
G01*
X100145001Y-89584000D02*
X99244999Y-89584000D01*
G75*
G02*
X98995000Y-89334001I0J249999D01*
G01*
X98995000Y-88683999D01*
G75*
G02*
X99244999Y-88434000I249999J0D01*
G01*
X100145001Y-88434000D01*
G75*
G02*
X100395000Y-88683999I0J-249999D01*
G01*
X100395000Y-89334001D01*
G75*
G02*
X100145001Y-89584000I-249999J0D01*
G01*
G37*
G36*
G01*
X100145001Y-91634000D02*
X99244999Y-91634000D01*
G75*
G02*
X98995000Y-91384001I0J249999D01*
G01*
X98995000Y-90733999D01*
G75*
G02*
X99244999Y-90484000I249999J0D01*
G01*
X100145001Y-90484000D01*
G75*
G02*
X100395000Y-90733999I0J-249999D01*
G01*
X100395000Y-91384001D01*
G75*
G02*
X100145001Y-91634000I-249999J0D01*
G01*
G37*
%TD*%
%TO.C,C2*%
G36*
G01*
X90600000Y-84385999D02*
X90600000Y-85286001D01*
G75*
G02*
X90350001Y-85536000I-249999J0D01*
G01*
X89699999Y-85536000D01*
G75*
G02*
X89450000Y-85286001I0J249999D01*
G01*
X89450000Y-84385999D01*
G75*
G02*
X89699999Y-84136000I249999J0D01*
G01*
X90350001Y-84136000D01*
G75*
G02*
X90600000Y-84385999I0J-249999D01*
G01*
G37*
G36*
G01*
X92650000Y-84385999D02*
X92650000Y-85286001D01*
G75*
G02*
X92400001Y-85536000I-249999J0D01*
G01*
X91749999Y-85536000D01*
G75*
G02*
X91500000Y-85286001I0J249999D01*
G01*
X91500000Y-84385999D01*
G75*
G02*
X91749999Y-84136000I249999J0D01*
G01*
X92400001Y-84136000D01*
G75*
G02*
X92650000Y-84385999I0J-249999D01*
G01*
G37*
%TD*%
%TO.C,C1*%
G36*
G01*
X90600000Y-97720999D02*
X90600000Y-98621001D01*
G75*
G02*
X90350001Y-98871000I-249999J0D01*
G01*
X89699999Y-98871000D01*
G75*
G02*
X89450000Y-98621001I0J249999D01*
G01*
X89450000Y-97720999D01*
G75*
G02*
X89699999Y-97471000I249999J0D01*
G01*
X90350001Y-97471000D01*
G75*
G02*
X90600000Y-97720999I0J-249999D01*
G01*
G37*
G36*
G01*
X92650000Y-97720999D02*
X92650000Y-98621001D01*
G75*
G02*
X92400001Y-98871000I-249999J0D01*
G01*
X91749999Y-98871000D01*
G75*
G02*
X91500000Y-98621001I0J249999D01*
G01*
X91500000Y-97720999D01*
G75*
G02*
X91749999Y-97471000I249999J0D01*
G01*
X92400001Y-97471000D01*
G75*
G02*
X92650000Y-97720999I0J-249999D01*
G01*
G37*
%TD*%
M02*
