%TF.GenerationSoftware,KiCad,Pcbnew,5.1.6-c6e7f7d~87~ubuntu18.04.1*%
%TF.CreationDate,2020-07-29T17:40:00-04:00*%
%TF.ProjectId,bit_crusher_pedal,6269745f-6372-4757-9368-65725f706564,rev?*%
%TF.SameCoordinates,Original*%
%TF.FileFunction,Copper,L1,Top*%
%TF.FilePolarity,Positive*%
%FSLAX46Y46*%
G04 Gerber Fmt 4.6, Leading zero omitted, Abs format (unit mm)*
G04 Created by KiCad (PCBNEW 5.1.6-c6e7f7d~87~ubuntu18.04.1) date 2020-07-29 17:40:00*
%MOMM*%
%LPD*%
G01*
G04 APERTURE LIST*
%TA.AperFunction,ComponentPad*%
%ADD10O,1.700000X1.700000*%
%TD*%
%TA.AperFunction,ComponentPad*%
%ADD11R,1.700000X1.700000*%
%TD*%
%TA.AperFunction,ComponentPad*%
%ADD12C,0.800000*%
%TD*%
%TA.AperFunction,ComponentPad*%
%ADD13C,6.400000*%
%TD*%
%TA.AperFunction,ComponentPad*%
%ADD14C,1.500000*%
%TD*%
%TA.AperFunction,ComponentPad*%
%ADD15O,2.720000X3.240000*%
%TD*%
%TA.AperFunction,ComponentPad*%
%ADD16C,1.800000*%
%TD*%
%TA.AperFunction,ComponentPad*%
%ADD17R,1.800000X1.800000*%
%TD*%
%TA.AperFunction,ComponentPad*%
%ADD18C,1.600000*%
%TD*%
%TA.AperFunction,ComponentPad*%
%ADD19R,1.600000X1.600000*%
%TD*%
%TA.AperFunction,ViaPad*%
%ADD20C,1.000000*%
%TD*%
%TA.AperFunction,ViaPad*%
%ADD21C,0.800000*%
%TD*%
%TA.AperFunction,Conductor*%
%ADD22C,0.400000*%
%TD*%
%TA.AperFunction,Conductor*%
%ADD23C,1.000000*%
%TD*%
%TA.AperFunction,Conductor*%
%ADD24C,0.500000*%
%TD*%
%TA.AperFunction,Conductor*%
%ADD25C,0.254000*%
%TD*%
G04 APERTURE END LIST*
D10*
%TO.P,J7,2*%
%TO.N,GND*%
X144780000Y-109220000D03*
D11*
%TO.P,J7,1*%
%TO.N,Net-(J7-Pad1)*%
X142240000Y-109220000D03*
%TD*%
D12*
%TO.P,H2,1*%
%TO.N,GND*%
X154097056Y-104982944D03*
X152400000Y-104280000D03*
X150702944Y-104982944D03*
X150000000Y-106680000D03*
X150702944Y-108377056D03*
X152400000Y-109080000D03*
X154097056Y-108377056D03*
X154800000Y-106680000D03*
D13*
X152400000Y-106680000D03*
%TD*%
D12*
%TO.P,H1,1*%
%TO.N,GND*%
X82977056Y-104982944D03*
X81280000Y-104280000D03*
X79582944Y-104982944D03*
X78880000Y-106680000D03*
X79582944Y-108377056D03*
X81280000Y-109080000D03*
X82977056Y-108377056D03*
X83680000Y-106680000D03*
D13*
X81280000Y-106680000D03*
%TD*%
D14*
%TO.P,X1,2*%
%TO.N,Net-(C2-Pad1)*%
X92075000Y-88980000D03*
%TO.P,X1,1*%
%TO.N,Net-(C1-Pad1)*%
X92075000Y-93980000D03*
%TD*%
D15*
%TO.P,RV3,*%
%TO.N,*%
X112040000Y-58540000D03*
X121640000Y-58540000D03*
D16*
%TO.P,RV3,3*%
%TO.N,+3.3VA*%
X119340000Y-66040000D03*
%TO.P,RV3,2*%
%TO.N,Net-(C25-Pad1)*%
X116840000Y-66040000D03*
D17*
%TO.P,RV3,1*%
%TO.N,GND*%
X114340000Y-66040000D03*
%TD*%
D15*
%TO.P,RV2,*%
%TO.N,*%
X81560000Y-58540000D03*
X91160000Y-58540000D03*
D16*
%TO.P,RV2,3*%
%TO.N,+3.3VA*%
X88860000Y-66040000D03*
%TO.P,RV2,2*%
%TO.N,Net-(C23-Pad1)*%
X86360000Y-66040000D03*
D17*
%TO.P,RV2,1*%
%TO.N,GND*%
X83860000Y-66040000D03*
%TD*%
D15*
%TO.P,RV1,*%
%TO.N,*%
X142520000Y-58540000D03*
X152120000Y-58540000D03*
D16*
%TO.P,RV1,3*%
%TO.N,/microcontroller/ADC_in*%
X149820000Y-66040000D03*
%TO.P,RV1,2*%
X147320000Y-66040000D03*
D17*
%TO.P,RV1,1*%
%TO.N,Net-(R6-Pad1)*%
X144820000Y-66040000D03*
%TD*%
D10*
%TO.P,J6,3*%
%TO.N,GND*%
X81280000Y-92710000D03*
%TO.P,J6,2*%
%TO.N,Net-(J6-Pad2)*%
X81280000Y-90170000D03*
D11*
%TO.P,J6,1*%
%TO.N,Net-(J6-Pad1)*%
X81280000Y-87630000D03*
%TD*%
D10*
%TO.P,J5,3*%
%TO.N,GND*%
X81280000Y-78740000D03*
%TO.P,J5,2*%
%TO.N,Net-(J5-Pad2)*%
X81280000Y-76200000D03*
D11*
%TO.P,J5,1*%
%TO.N,Net-(J5-Pad1)*%
X81280000Y-73660000D03*
%TD*%
D10*
%TO.P,J4,2*%
%TO.N,GND*%
X100838000Y-58420000D03*
D11*
%TO.P,J4,1*%
%TO.N,Net-(D2-Pad2)*%
X98298000Y-58420000D03*
%TD*%
D10*
%TO.P,J3,4*%
%TO.N,/microcontroller/SWDIO*%
X119380000Y-109220000D03*
%TO.P,J3,3*%
%TO.N,GND*%
X116840000Y-109220000D03*
%TO.P,J3,2*%
%TO.N,/microcontroller/SWCLK*%
X114300000Y-109220000D03*
D11*
%TO.P,J3,1*%
%TO.N,+3V3*%
X111760000Y-109220000D03*
%TD*%
D10*
%TO.P,J2,2*%
%TO.N,GND*%
X152400000Y-86360000D03*
D11*
%TO.P,J2,1*%
%TO.N,/audio_output/buffered_wet_audio*%
X152400000Y-83820000D03*
%TD*%
D10*
%TO.P,J1,2*%
%TO.N,GND*%
X152400000Y-76200000D03*
D11*
%TO.P,J1,1*%
%TO.N,/audio_input/dry_audio_input*%
X152400000Y-73660000D03*
%TD*%
D16*
%TO.P,D1,3*%
%TO.N,Net-(D1-Pad3)*%
X132080000Y-58420000D03*
%TO.P,D1,2*%
%TO.N,GND*%
X134620000Y-58420000D03*
D17*
%TO.P,D1,1*%
%TO.N,Net-(D1-Pad1)*%
X137160000Y-58420000D03*
%TD*%
D18*
%TO.P,C8,2*%
%TO.N,/audio_output/buffered_wet_audio*%
X147574000Y-83820000D03*
D19*
%TO.P,C8,1*%
%TO.N,Net-(C8-Pad1)*%
X145074000Y-83820000D03*
%TD*%
D18*
%TO.P,C4,2*%
%TO.N,/audio_input/dry_audio_input*%
X147320000Y-73660000D03*
%TO.P,C4,1*%
%TO.N,Net-(C4-Pad1)*%
X142320000Y-73660000D03*
%TD*%
D20*
%TO.N,GND*%
X94615000Y-65405000D03*
X94615000Y-61595000D03*
X94615000Y-59055000D03*
X92075000Y-65405000D03*
X92075000Y-67945000D03*
X92075000Y-70485000D03*
X94615000Y-56515000D03*
X106781600Y-69850000D03*
X106832400Y-67284600D03*
X107315000Y-64770000D03*
X107315000Y-62230000D03*
X107315000Y-59690000D03*
X111506000Y-78232000D03*
X111506000Y-75438000D03*
X111506000Y-82042000D03*
X104648000Y-82042000D03*
X104648000Y-78232000D03*
X97536000Y-82042000D03*
X97282000Y-78232000D03*
X91948000Y-78232000D03*
X91948000Y-82042000D03*
X97536000Y-85598000D03*
X94234000Y-85598000D03*
X105410000Y-86106000D03*
X111252000Y-88900000D03*
X123444000Y-89408000D03*
X125984000Y-82296000D03*
X129540000Y-82550000D03*
X124206000Y-75692000D03*
X127254000Y-75692000D03*
X139954000Y-78232000D03*
X127000000Y-69850000D03*
X127000000Y-65786000D03*
X139954000Y-69850000D03*
X139954000Y-64262000D03*
X112522000Y-94996000D03*
X115824000Y-94996000D03*
X118872000Y-94996000D03*
X130810000Y-98679000D03*
X134874000Y-98679000D03*
X138811000Y-98679000D03*
X109982000Y-103886000D03*
X120650000Y-104140000D03*
X100330000Y-105664000D03*
X96266000Y-105664000D03*
X93472000Y-100076000D03*
X88138000Y-98298000D03*
X88392000Y-84836000D03*
X135483600Y-93726000D03*
X127762000Y-89408000D03*
X134620000Y-89408000D03*
X140716000Y-93726000D03*
X135128000Y-103886000D03*
X131064000Y-103886000D03*
X139192000Y-103886000D03*
X119989600Y-78790800D03*
X135280400Y-78790800D03*
X135331200Y-69138800D03*
D21*
%TO.N,+3V3*%
X131826000Y-70866000D03*
X131978400Y-80314800D03*
D20*
X99568000Y-67437000D03*
X99568000Y-69977000D03*
X99568000Y-68707000D03*
X100965000Y-67945000D03*
X100965000Y-69215000D03*
X98425000Y-67945000D03*
X98425000Y-69215000D03*
X99695000Y-80009982D03*
X120142000Y-100076000D03*
X107696000Y-86106000D03*
D21*
%TO.N,+3.3VA*%
X101346000Y-90805000D03*
X101346000Y-74399001D03*
%TO.N,/control_voltage_generator/CV_amp_bias*%
X121005600Y-75133200D03*
X122682000Y-81723000D03*
X129667000Y-95758000D03*
%TO.N,Net-(C23-Pad1)*%
X86233000Y-72771000D03*
%TO.N,/microcontroller/resolution_CV_in*%
X102260400Y-93878400D03*
X102353144Y-76749022D03*
%TO.N,Net-(C25-Pad1)*%
X116890800Y-88747600D03*
%TO.N,/microcontroller/sample_rate_CV_in*%
X103276400Y-92964000D03*
X103389529Y-83197790D03*
%TO.N,+9V*%
X86461600Y-88900000D03*
X86512400Y-77520800D03*
X78867000Y-63627008D03*
%TO.N,Net-(J6-Pad1)*%
X81280000Y-83464400D03*
%TO.N,Net-(R2-Pad2)*%
X136017000Y-63881012D03*
X136906000Y-101114011D03*
%TO.N,Net-(R3-Pad2)*%
X133223000Y-63881000D03*
X132842000Y-101987622D03*
%TO.N,Net-(R6-Pad1)*%
X133692010Y-66141600D03*
X133692010Y-75082400D03*
%TO.N,/microcontroller/DAC_out*%
X138938000Y-89408008D03*
X138938000Y-97155000D03*
%TO.N,/microcontroller/ADC_in*%
X130556000Y-76657200D03*
X109118400Y-94437200D03*
X130352800Y-67589400D03*
X109423200Y-68275200D03*
%TD*%
D22*
%TO.N,+3V3*%
X131826000Y-70866000D02*
X131826000Y-80162400D01*
X131826000Y-80162400D02*
X131978400Y-80314800D01*
D23*
X99568000Y-69977000D02*
X99568000Y-79882982D01*
X99568000Y-79882982D02*
X99695000Y-80009982D01*
D24*
X111760000Y-109220000D02*
X111760000Y-100076000D01*
D23*
X120142000Y-100076000D02*
X111760000Y-100076000D01*
X100965000Y-69215000D02*
X107696000Y-75946000D01*
X107696000Y-96012000D02*
X107696000Y-86106000D01*
X107696000Y-75946000D02*
X107696000Y-86106000D01*
X111760000Y-100076000D02*
X107696000Y-96012000D01*
D24*
%TO.N,+3.3VA*%
X101346000Y-90805000D02*
X101534001Y-90616999D01*
X101534001Y-90616999D02*
X101534001Y-85141999D01*
X101534001Y-85141999D02*
X101346000Y-84953998D01*
X101346000Y-84953998D02*
X101346000Y-74399001D01*
D22*
%TO.N,/control_voltage_generator/CV_amp_bias*%
X121005600Y-75133200D02*
X122682000Y-76809600D01*
X122682000Y-76809600D02*
X122682000Y-81723000D01*
X129667000Y-88708000D02*
X122682000Y-81723000D01*
X129667000Y-95758000D02*
X129667000Y-88708000D01*
%TO.N,Net-(C23-Pad1)*%
X86233000Y-66167000D02*
X86360000Y-66040000D01*
X86233000Y-72771000D02*
X86233000Y-66167000D01*
%TO.N,/microcontroller/resolution_CV_in*%
X102260400Y-76841766D02*
X102353144Y-76749022D01*
X102260400Y-93878400D02*
X102260400Y-76841766D01*
%TO.N,Net-(C25-Pad1)*%
X116840000Y-66040000D02*
X116840000Y-88696800D01*
X116840000Y-88696800D02*
X116890800Y-88747600D01*
%TO.N,/microcontroller/sample_rate_CV_in*%
X103276400Y-83310919D02*
X103389529Y-83197790D01*
X103276400Y-92964000D02*
X103276400Y-83310919D01*
%TO.N,+9V*%
X86461600Y-88900000D02*
X86461600Y-78028800D01*
X86461600Y-78028800D02*
X86461600Y-77571600D01*
X86461600Y-77571600D02*
X86512400Y-77520800D01*
D24*
X86512400Y-77520800D02*
X86512400Y-75031600D01*
X86512400Y-75031600D02*
X78867000Y-67386200D01*
X78867000Y-67386200D02*
X78867000Y-63627008D01*
D22*
%TO.N,Net-(J6-Pad1)*%
X81280000Y-87630000D02*
X81280000Y-83464400D01*
D24*
%TO.N,Net-(R2-Pad2)*%
X136906000Y-64770012D02*
X136906000Y-101114011D01*
X136017000Y-63881012D02*
X136906000Y-64770012D01*
%TO.N,Net-(R3-Pad2)*%
X133223000Y-63881000D02*
X132842000Y-64262000D01*
X132842000Y-64262000D02*
X132842000Y-101987622D01*
D22*
%TO.N,Net-(R6-Pad1)*%
X133692010Y-75082400D02*
X133692010Y-74516715D01*
X133692010Y-74516715D02*
X133692010Y-66141600D01*
%TO.N,/microcontroller/DAC_out*%
X138938000Y-89408008D02*
X138938000Y-97155000D01*
%TO.N,/microcontroller/ADC_in*%
X130556000Y-67792600D02*
X130352800Y-67589400D01*
X130556000Y-76657200D02*
X130556000Y-67792600D01*
X109118400Y-68580000D02*
X109423200Y-68275200D01*
X109118400Y-94437200D02*
X109118400Y-68580000D01*
%TD*%
D25*
%TO.N,GND*%
G36*
X153182249Y-51532437D02*
G01*
X153939774Y-51739672D01*
X154648625Y-52077777D01*
X155286404Y-52536067D01*
X155832946Y-53100055D01*
X156270977Y-53751913D01*
X156586651Y-54471038D01*
X156771206Y-55239768D01*
X156820001Y-55904221D01*
X156820000Y-106650608D01*
X156747563Y-107462249D01*
X156540328Y-108219774D01*
X156202221Y-108928627D01*
X155743928Y-109566410D01*
X155179945Y-110112946D01*
X154528085Y-110550978D01*
X153808963Y-110866651D01*
X153040232Y-111051206D01*
X152375792Y-111100000D01*
X81309392Y-111100000D01*
X80497751Y-111027563D01*
X79740226Y-110820328D01*
X79031373Y-110482221D01*
X78393590Y-110023928D01*
X77847054Y-109459945D01*
X77793926Y-109380881D01*
X78758724Y-109380881D01*
X79118912Y-109870548D01*
X79782882Y-110230849D01*
X80504385Y-110454694D01*
X81255695Y-110533480D01*
X82007938Y-110464178D01*
X82732208Y-110249452D01*
X83400670Y-109897555D01*
X83441088Y-109870548D01*
X83801276Y-109380881D01*
X81280000Y-106859605D01*
X78758724Y-109380881D01*
X77793926Y-109380881D01*
X77409022Y-108808085D01*
X77093349Y-108088963D01*
X76908794Y-107320232D01*
X76860000Y-106655792D01*
X76860000Y-106655695D01*
X77426520Y-106655695D01*
X77495822Y-107407938D01*
X77710548Y-108132208D01*
X78062445Y-108800670D01*
X78089452Y-108841088D01*
X78579119Y-109201276D01*
X81100395Y-106680000D01*
X81459605Y-106680000D01*
X83980881Y-109201276D01*
X84470548Y-108841088D01*
X84830849Y-108177118D01*
X85054694Y-107455615D01*
X85133480Y-106704305D01*
X85064178Y-105952062D01*
X84849452Y-105227792D01*
X84497555Y-104559330D01*
X84470548Y-104518912D01*
X83980881Y-104158724D01*
X81459605Y-106680000D01*
X81100395Y-106680000D01*
X78579119Y-104158724D01*
X78089452Y-104518912D01*
X77729151Y-105182882D01*
X77505306Y-105904385D01*
X77426520Y-106655695D01*
X76860000Y-106655695D01*
X76860000Y-103979119D01*
X78758724Y-103979119D01*
X81280000Y-106500395D01*
X83801276Y-103979119D01*
X83441088Y-103489452D01*
X82777118Y-103129151D01*
X82055615Y-102905306D01*
X81304305Y-102826520D01*
X80552062Y-102895822D01*
X79827792Y-103110548D01*
X79159330Y-103462445D01*
X79118912Y-103489452D01*
X78758724Y-103979119D01*
X76860000Y-103979119D01*
X76860000Y-93066890D01*
X79838524Y-93066890D01*
X79883175Y-93214099D01*
X80008359Y-93476920D01*
X80182412Y-93710269D01*
X80398645Y-93905178D01*
X80648748Y-94054157D01*
X80923109Y-94151481D01*
X81153000Y-94030814D01*
X81153000Y-92837000D01*
X81407000Y-92837000D01*
X81407000Y-94030814D01*
X81636891Y-94151481D01*
X81911252Y-94054157D01*
X82161355Y-93905178D01*
X82229682Y-93843589D01*
X90690000Y-93843589D01*
X90690000Y-94116411D01*
X90743225Y-94383989D01*
X90847629Y-94636043D01*
X90999201Y-94862886D01*
X91192114Y-95055799D01*
X91418957Y-95207371D01*
X91671011Y-95311775D01*
X91938589Y-95365000D01*
X92211411Y-95365000D01*
X92478989Y-95311775D01*
X92731043Y-95207371D01*
X92957886Y-95055799D01*
X93150799Y-94862886D01*
X93302371Y-94636043D01*
X93406775Y-94383989D01*
X93460000Y-94116411D01*
X93460000Y-93843589D01*
X93406775Y-93576011D01*
X93302371Y-93323957D01*
X93150799Y-93097114D01*
X92957886Y-92904201D01*
X92731043Y-92752629D01*
X92478989Y-92648225D01*
X92211411Y-92595000D01*
X91938589Y-92595000D01*
X91671011Y-92648225D01*
X91418957Y-92752629D01*
X91192114Y-92904201D01*
X90999201Y-93097114D01*
X90847629Y-93323957D01*
X90743225Y-93576011D01*
X90690000Y-93843589D01*
X82229682Y-93843589D01*
X82377588Y-93710269D01*
X82551641Y-93476920D01*
X82676825Y-93214099D01*
X82721476Y-93066890D01*
X82600155Y-92837000D01*
X81407000Y-92837000D01*
X81153000Y-92837000D01*
X79959845Y-92837000D01*
X79838524Y-93066890D01*
X76860000Y-93066890D01*
X76860000Y-86780000D01*
X79791928Y-86780000D01*
X79791928Y-88480000D01*
X79804188Y-88604482D01*
X79840498Y-88724180D01*
X79899463Y-88834494D01*
X79978815Y-88931185D01*
X80075506Y-89010537D01*
X80185820Y-89069502D01*
X80258380Y-89091513D01*
X80126525Y-89223368D01*
X79964010Y-89466589D01*
X79852068Y-89736842D01*
X79795000Y-90023740D01*
X79795000Y-90316260D01*
X79852068Y-90603158D01*
X79964010Y-90873411D01*
X80126525Y-91116632D01*
X80333368Y-91323475D01*
X80515534Y-91445195D01*
X80398645Y-91514822D01*
X80182412Y-91709731D01*
X80008359Y-91943080D01*
X79883175Y-92205901D01*
X79838524Y-92353110D01*
X79959845Y-92583000D01*
X81153000Y-92583000D01*
X81153000Y-92563000D01*
X81407000Y-92563000D01*
X81407000Y-92583000D01*
X82600155Y-92583000D01*
X82721476Y-92353110D01*
X82676825Y-92205901D01*
X82551641Y-91943080D01*
X82377588Y-91709731D01*
X82161355Y-91514822D01*
X82044466Y-91445195D01*
X82226632Y-91323475D01*
X82433475Y-91116632D01*
X82595990Y-90873411D01*
X82707932Y-90603158D01*
X82765000Y-90316260D01*
X82765000Y-90023740D01*
X82707932Y-89736842D01*
X82595990Y-89466589D01*
X82433475Y-89223368D01*
X82301620Y-89091513D01*
X82374180Y-89069502D01*
X82484494Y-89010537D01*
X82581185Y-88931185D01*
X82660537Y-88834494D01*
X82719502Y-88724180D01*
X82755812Y-88604482D01*
X82768072Y-88480000D01*
X82768072Y-86780000D01*
X82755812Y-86655518D01*
X82719502Y-86535820D01*
X82660537Y-86425506D01*
X82581185Y-86328815D01*
X82484494Y-86249463D01*
X82374180Y-86190498D01*
X82254482Y-86154188D01*
X82130000Y-86141928D01*
X82115000Y-86141928D01*
X82115000Y-84077685D01*
X82197205Y-83954656D01*
X82275226Y-83766298D01*
X82315000Y-83566339D01*
X82315000Y-83362461D01*
X82275226Y-83162502D01*
X82197205Y-82974144D01*
X82083937Y-82804626D01*
X81939774Y-82660463D01*
X81770256Y-82547195D01*
X81581898Y-82469174D01*
X81381939Y-82429400D01*
X81178061Y-82429400D01*
X80978102Y-82469174D01*
X80789744Y-82547195D01*
X80620226Y-82660463D01*
X80476063Y-82804626D01*
X80362795Y-82974144D01*
X80284774Y-83162502D01*
X80245000Y-83362461D01*
X80245000Y-83566339D01*
X80284774Y-83766298D01*
X80362795Y-83954656D01*
X80445001Y-84077686D01*
X80445000Y-86141928D01*
X80430000Y-86141928D01*
X80305518Y-86154188D01*
X80185820Y-86190498D01*
X80075506Y-86249463D01*
X79978815Y-86328815D01*
X79899463Y-86425506D01*
X79840498Y-86535820D01*
X79804188Y-86655518D01*
X79791928Y-86780000D01*
X76860000Y-86780000D01*
X76860000Y-79096890D01*
X79838524Y-79096890D01*
X79883175Y-79244099D01*
X80008359Y-79506920D01*
X80182412Y-79740269D01*
X80398645Y-79935178D01*
X80648748Y-80084157D01*
X80923109Y-80181481D01*
X81153000Y-80060814D01*
X81153000Y-78867000D01*
X81407000Y-78867000D01*
X81407000Y-80060814D01*
X81636891Y-80181481D01*
X81911252Y-80084157D01*
X82161355Y-79935178D01*
X82377588Y-79740269D01*
X82551641Y-79506920D01*
X82676825Y-79244099D01*
X82721476Y-79096890D01*
X82600155Y-78867000D01*
X81407000Y-78867000D01*
X81153000Y-78867000D01*
X79959845Y-78867000D01*
X79838524Y-79096890D01*
X76860000Y-79096890D01*
X76860000Y-72810000D01*
X79791928Y-72810000D01*
X79791928Y-74510000D01*
X79804188Y-74634482D01*
X79840498Y-74754180D01*
X79899463Y-74864494D01*
X79978815Y-74961185D01*
X80075506Y-75040537D01*
X80185820Y-75099502D01*
X80258380Y-75121513D01*
X80126525Y-75253368D01*
X79964010Y-75496589D01*
X79852068Y-75766842D01*
X79795000Y-76053740D01*
X79795000Y-76346260D01*
X79852068Y-76633158D01*
X79964010Y-76903411D01*
X80126525Y-77146632D01*
X80333368Y-77353475D01*
X80515534Y-77475195D01*
X80398645Y-77544822D01*
X80182412Y-77739731D01*
X80008359Y-77973080D01*
X79883175Y-78235901D01*
X79838524Y-78383110D01*
X79959845Y-78613000D01*
X81153000Y-78613000D01*
X81153000Y-78593000D01*
X81407000Y-78593000D01*
X81407000Y-78613000D01*
X82600155Y-78613000D01*
X82721476Y-78383110D01*
X82676825Y-78235901D01*
X82551641Y-77973080D01*
X82377588Y-77739731D01*
X82161355Y-77544822D01*
X82044466Y-77475195D01*
X82226632Y-77353475D01*
X82433475Y-77146632D01*
X82595990Y-76903411D01*
X82707932Y-76633158D01*
X82765000Y-76346260D01*
X82765000Y-76053740D01*
X82707932Y-75766842D01*
X82595990Y-75496589D01*
X82433475Y-75253368D01*
X82301620Y-75121513D01*
X82374180Y-75099502D01*
X82484494Y-75040537D01*
X82581185Y-74961185D01*
X82660537Y-74864494D01*
X82719502Y-74754180D01*
X82755812Y-74634482D01*
X82768072Y-74510000D01*
X82768072Y-72810000D01*
X82755812Y-72685518D01*
X82719502Y-72565820D01*
X82660537Y-72455506D01*
X82581185Y-72358815D01*
X82484494Y-72279463D01*
X82374180Y-72220498D01*
X82254482Y-72184188D01*
X82130000Y-72171928D01*
X80430000Y-72171928D01*
X80305518Y-72184188D01*
X80185820Y-72220498D01*
X80075506Y-72279463D01*
X79978815Y-72358815D01*
X79899463Y-72455506D01*
X79840498Y-72565820D01*
X79804188Y-72685518D01*
X79791928Y-72810000D01*
X76860000Y-72810000D01*
X76860000Y-63525069D01*
X77832000Y-63525069D01*
X77832000Y-63728947D01*
X77871774Y-63928906D01*
X77949795Y-64117264D01*
X77982001Y-64165464D01*
X77982000Y-67342731D01*
X77977719Y-67386200D01*
X77982000Y-67429669D01*
X77982000Y-67429676D01*
X77988929Y-67500029D01*
X77994805Y-67559690D01*
X78003818Y-67589400D01*
X78045411Y-67726512D01*
X78127589Y-67880258D01*
X78238183Y-68015017D01*
X78271956Y-68042734D01*
X85627401Y-75398180D01*
X85627400Y-76982345D01*
X85595195Y-77030544D01*
X85517174Y-77218902D01*
X85477400Y-77418861D01*
X85477400Y-77622739D01*
X85517174Y-77822698D01*
X85595195Y-78011056D01*
X85626600Y-78058057D01*
X85626600Y-78069818D01*
X85626601Y-78069828D01*
X85626600Y-88286715D01*
X85544395Y-88409744D01*
X85466374Y-88598102D01*
X85426600Y-88798061D01*
X85426600Y-89001939D01*
X85466374Y-89201898D01*
X85544395Y-89390256D01*
X85657663Y-89559774D01*
X85801826Y-89703937D01*
X85971344Y-89817205D01*
X86159702Y-89895226D01*
X86359661Y-89935000D01*
X86563539Y-89935000D01*
X86763498Y-89895226D01*
X86951856Y-89817205D01*
X87121374Y-89703937D01*
X87265537Y-89559774D01*
X87378805Y-89390256D01*
X87456826Y-89201898D01*
X87496600Y-89001939D01*
X87496600Y-88843589D01*
X90690000Y-88843589D01*
X90690000Y-89116411D01*
X90743225Y-89383989D01*
X90847629Y-89636043D01*
X90999201Y-89862886D01*
X91192114Y-90055799D01*
X91418957Y-90207371D01*
X91671011Y-90311775D01*
X91938589Y-90365000D01*
X92211411Y-90365000D01*
X92478989Y-90311775D01*
X92731043Y-90207371D01*
X92957886Y-90055799D01*
X93150799Y-89862886D01*
X93302371Y-89636043D01*
X93406775Y-89383989D01*
X93460000Y-89116411D01*
X93460000Y-88843589D01*
X93406775Y-88576011D01*
X93302371Y-88323957D01*
X93150799Y-88097114D01*
X92957886Y-87904201D01*
X92731043Y-87752629D01*
X92478989Y-87648225D01*
X92211411Y-87595000D01*
X91938589Y-87595000D01*
X91671011Y-87648225D01*
X91418957Y-87752629D01*
X91192114Y-87904201D01*
X90999201Y-88097114D01*
X90847629Y-88323957D01*
X90743225Y-88576011D01*
X90690000Y-88843589D01*
X87496600Y-88843589D01*
X87496600Y-88798061D01*
X87456826Y-88598102D01*
X87378805Y-88409744D01*
X87296600Y-88286715D01*
X87296600Y-78200311D01*
X87316337Y-78180574D01*
X87429605Y-78011056D01*
X87507626Y-77822698D01*
X87547400Y-77622739D01*
X87547400Y-77418861D01*
X87507626Y-77218902D01*
X87429605Y-77030544D01*
X87397400Y-76982346D01*
X87397400Y-75075065D01*
X87401681Y-75031599D01*
X87397400Y-74988133D01*
X87397400Y-74988123D01*
X87384595Y-74858110D01*
X87333989Y-74691287D01*
X87251811Y-74537541D01*
X87141217Y-74402783D01*
X87107449Y-74375070D01*
X86504626Y-73772247D01*
X86534898Y-73766226D01*
X86723256Y-73688205D01*
X86892774Y-73574937D01*
X87036937Y-73430774D01*
X87150205Y-73261256D01*
X87228226Y-73072898D01*
X87268000Y-72872939D01*
X87268000Y-72669061D01*
X87228226Y-72469102D01*
X87150205Y-72280744D01*
X87068000Y-72157715D01*
X87068000Y-67833212D01*
X97290000Y-67833212D01*
X97290000Y-68056788D01*
X97333617Y-68276067D01*
X97419176Y-68482624D01*
X97484241Y-68580000D01*
X97419176Y-68677376D01*
X97333617Y-68883933D01*
X97290000Y-69103212D01*
X97290000Y-69326788D01*
X97333617Y-69546067D01*
X97419176Y-69752624D01*
X97543388Y-69938520D01*
X97701480Y-70096612D01*
X97887376Y-70220824D01*
X98093933Y-70306383D01*
X98313212Y-70350000D01*
X98433000Y-70350000D01*
X98433001Y-79827221D01*
X98427509Y-79882982D01*
X98449423Y-80105480D01*
X98514324Y-80319428D01*
X98525881Y-80341049D01*
X98619717Y-80516605D01*
X98761552Y-80689431D01*
X98804860Y-80724973D01*
X98813386Y-80733499D01*
X98813388Y-80733502D01*
X98971480Y-80891594D01*
X99018079Y-80922731D01*
X99061378Y-80958265D01*
X99110774Y-80984668D01*
X99157376Y-81015806D01*
X99209161Y-81037256D01*
X99258554Y-81063657D01*
X99312149Y-81079915D01*
X99363933Y-81101365D01*
X99418897Y-81112298D01*
X99472501Y-81128559D01*
X99528253Y-81134050D01*
X99583212Y-81144982D01*
X99639248Y-81144982D01*
X99694999Y-81150473D01*
X99750751Y-81144982D01*
X99806788Y-81144982D01*
X99861748Y-81134050D01*
X99917498Y-81128559D01*
X99971101Y-81112298D01*
X100026067Y-81101365D01*
X100077851Y-81079915D01*
X100131446Y-81063657D01*
X100180839Y-81037256D01*
X100232624Y-81015806D01*
X100279226Y-80984668D01*
X100328622Y-80958265D01*
X100371920Y-80922731D01*
X100418520Y-80891594D01*
X100458151Y-80851963D01*
X100461000Y-80849625D01*
X100461000Y-84910529D01*
X100456719Y-84953998D01*
X100461000Y-84997467D01*
X100461000Y-84997474D01*
X100473805Y-85127487D01*
X100524411Y-85294310D01*
X100606589Y-85448056D01*
X100649002Y-85499736D01*
X100649001Y-90038288D01*
X100542063Y-90145226D01*
X100428795Y-90314744D01*
X100350774Y-90503102D01*
X100311000Y-90703061D01*
X100311000Y-90906939D01*
X100350774Y-91106898D01*
X100428795Y-91295256D01*
X100542063Y-91464774D01*
X100686226Y-91608937D01*
X100855744Y-91722205D01*
X101044102Y-91800226D01*
X101244061Y-91840000D01*
X101425400Y-91840000D01*
X101425400Y-93265115D01*
X101343195Y-93388144D01*
X101265174Y-93576502D01*
X101225400Y-93776461D01*
X101225400Y-93980339D01*
X101265174Y-94180298D01*
X101343195Y-94368656D01*
X101456463Y-94538174D01*
X101600626Y-94682337D01*
X101770144Y-94795605D01*
X101958502Y-94873626D01*
X102158461Y-94913400D01*
X102362339Y-94913400D01*
X102562298Y-94873626D01*
X102750656Y-94795605D01*
X102920174Y-94682337D01*
X103064337Y-94538174D01*
X103177605Y-94368656D01*
X103255626Y-94180298D01*
X103291688Y-93999000D01*
X103378339Y-93999000D01*
X103578298Y-93959226D01*
X103766656Y-93881205D01*
X103936174Y-93767937D01*
X104080337Y-93623774D01*
X104193605Y-93454256D01*
X104271626Y-93265898D01*
X104311400Y-93065939D01*
X104311400Y-92862061D01*
X104271626Y-92662102D01*
X104193605Y-92473744D01*
X104111400Y-92350715D01*
X104111400Y-83939630D01*
X104193466Y-83857564D01*
X104306734Y-83688046D01*
X104384755Y-83499688D01*
X104424529Y-83299729D01*
X104424529Y-83095851D01*
X104384755Y-82895892D01*
X104306734Y-82707534D01*
X104193466Y-82538016D01*
X104049303Y-82393853D01*
X103879785Y-82280585D01*
X103691427Y-82202564D01*
X103491468Y-82162790D01*
X103287590Y-82162790D01*
X103095400Y-82201019D01*
X103095400Y-77470477D01*
X103157081Y-77408796D01*
X103270349Y-77239278D01*
X103348370Y-77050920D01*
X103388144Y-76850961D01*
X103388144Y-76647083D01*
X103348370Y-76447124D01*
X103270349Y-76258766D01*
X103157081Y-76089248D01*
X103012918Y-75945085D01*
X102843400Y-75831817D01*
X102655042Y-75753796D01*
X102455083Y-75714022D01*
X102251205Y-75714022D01*
X102231000Y-75718041D01*
X102231000Y-74937455D01*
X102263205Y-74889257D01*
X102341226Y-74700899D01*
X102381000Y-74500940D01*
X102381000Y-74297062D01*
X102341226Y-74097103D01*
X102263205Y-73908745D01*
X102149937Y-73739227D01*
X102005774Y-73595064D01*
X101836256Y-73481796D01*
X101647898Y-73403775D01*
X101447939Y-73364001D01*
X101244061Y-73364001D01*
X101044102Y-73403775D01*
X100855744Y-73481796D01*
X100703000Y-73583856D01*
X100703000Y-70558131D01*
X106561000Y-76416132D01*
X106561001Y-85994207D01*
X106561000Y-85994212D01*
X106561000Y-86217788D01*
X106561001Y-86217793D01*
X106561000Y-95956248D01*
X106555509Y-96012000D01*
X106561000Y-96067751D01*
X106577423Y-96234498D01*
X106642324Y-96448446D01*
X106747716Y-96645623D01*
X106889551Y-96818449D01*
X106932865Y-96853996D01*
X110875001Y-100796133D01*
X110875000Y-107735375D01*
X110785518Y-107744188D01*
X110665820Y-107780498D01*
X110555506Y-107839463D01*
X110458815Y-107918815D01*
X110379463Y-108015506D01*
X110320498Y-108125820D01*
X110284188Y-108245518D01*
X110271928Y-108370000D01*
X110271928Y-110070000D01*
X110284188Y-110194482D01*
X110320498Y-110314180D01*
X110379463Y-110424494D01*
X110458815Y-110521185D01*
X110555506Y-110600537D01*
X110665820Y-110659502D01*
X110785518Y-110695812D01*
X110910000Y-110708072D01*
X112610000Y-110708072D01*
X112734482Y-110695812D01*
X112854180Y-110659502D01*
X112964494Y-110600537D01*
X113061185Y-110521185D01*
X113140537Y-110424494D01*
X113199502Y-110314180D01*
X113221513Y-110241620D01*
X113353368Y-110373475D01*
X113596589Y-110535990D01*
X113866842Y-110647932D01*
X114153740Y-110705000D01*
X114446260Y-110705000D01*
X114733158Y-110647932D01*
X115003411Y-110535990D01*
X115246632Y-110373475D01*
X115453475Y-110166632D01*
X115575195Y-109984466D01*
X115644822Y-110101355D01*
X115839731Y-110317588D01*
X116073080Y-110491641D01*
X116335901Y-110616825D01*
X116483110Y-110661476D01*
X116713000Y-110540155D01*
X116713000Y-109347000D01*
X116693000Y-109347000D01*
X116693000Y-109093000D01*
X116713000Y-109093000D01*
X116713000Y-107899845D01*
X116967000Y-107899845D01*
X116967000Y-109093000D01*
X116987000Y-109093000D01*
X116987000Y-109347000D01*
X116967000Y-109347000D01*
X116967000Y-110540155D01*
X117196890Y-110661476D01*
X117344099Y-110616825D01*
X117606920Y-110491641D01*
X117840269Y-110317588D01*
X118035178Y-110101355D01*
X118104805Y-109984466D01*
X118226525Y-110166632D01*
X118433368Y-110373475D01*
X118676589Y-110535990D01*
X118946842Y-110647932D01*
X119233740Y-110705000D01*
X119526260Y-110705000D01*
X119813158Y-110647932D01*
X120083411Y-110535990D01*
X120326632Y-110373475D01*
X120533475Y-110166632D01*
X120695990Y-109923411D01*
X120807932Y-109653158D01*
X120865000Y-109366260D01*
X120865000Y-109073740D01*
X120807932Y-108786842D01*
X120695990Y-108516589D01*
X120598043Y-108370000D01*
X140751928Y-108370000D01*
X140751928Y-110070000D01*
X140764188Y-110194482D01*
X140800498Y-110314180D01*
X140859463Y-110424494D01*
X140938815Y-110521185D01*
X141035506Y-110600537D01*
X141145820Y-110659502D01*
X141265518Y-110695812D01*
X141390000Y-110708072D01*
X143090000Y-110708072D01*
X143214482Y-110695812D01*
X143334180Y-110659502D01*
X143444494Y-110600537D01*
X143541185Y-110521185D01*
X143620537Y-110424494D01*
X143679502Y-110314180D01*
X143703966Y-110233534D01*
X143779731Y-110317588D01*
X144013080Y-110491641D01*
X144275901Y-110616825D01*
X144423110Y-110661476D01*
X144653000Y-110540155D01*
X144653000Y-109347000D01*
X144907000Y-109347000D01*
X144907000Y-110540155D01*
X145136890Y-110661476D01*
X145284099Y-110616825D01*
X145546920Y-110491641D01*
X145780269Y-110317588D01*
X145975178Y-110101355D01*
X146124157Y-109851252D01*
X146221481Y-109576891D01*
X146118598Y-109380881D01*
X149878724Y-109380881D01*
X150238912Y-109870548D01*
X150902882Y-110230849D01*
X151624385Y-110454694D01*
X152375695Y-110533480D01*
X153127938Y-110464178D01*
X153852208Y-110249452D01*
X154520670Y-109897555D01*
X154561088Y-109870548D01*
X154921276Y-109380881D01*
X152400000Y-106859605D01*
X149878724Y-109380881D01*
X146118598Y-109380881D01*
X146100814Y-109347000D01*
X144907000Y-109347000D01*
X144653000Y-109347000D01*
X144633000Y-109347000D01*
X144633000Y-109093000D01*
X144653000Y-109093000D01*
X144653000Y-107899845D01*
X144907000Y-107899845D01*
X144907000Y-109093000D01*
X146100814Y-109093000D01*
X146221481Y-108863109D01*
X146124157Y-108588748D01*
X145975178Y-108338645D01*
X145780269Y-108122412D01*
X145546920Y-107948359D01*
X145284099Y-107823175D01*
X145136890Y-107778524D01*
X144907000Y-107899845D01*
X144653000Y-107899845D01*
X144423110Y-107778524D01*
X144275901Y-107823175D01*
X144013080Y-107948359D01*
X143779731Y-108122412D01*
X143703966Y-108206466D01*
X143679502Y-108125820D01*
X143620537Y-108015506D01*
X143541185Y-107918815D01*
X143444494Y-107839463D01*
X143334180Y-107780498D01*
X143214482Y-107744188D01*
X143090000Y-107731928D01*
X141390000Y-107731928D01*
X141265518Y-107744188D01*
X141145820Y-107780498D01*
X141035506Y-107839463D01*
X140938815Y-107918815D01*
X140859463Y-108015506D01*
X140800498Y-108125820D01*
X140764188Y-108245518D01*
X140751928Y-108370000D01*
X120598043Y-108370000D01*
X120533475Y-108273368D01*
X120326632Y-108066525D01*
X120083411Y-107904010D01*
X119813158Y-107792068D01*
X119526260Y-107735000D01*
X119233740Y-107735000D01*
X118946842Y-107792068D01*
X118676589Y-107904010D01*
X118433368Y-108066525D01*
X118226525Y-108273368D01*
X118104805Y-108455534D01*
X118035178Y-108338645D01*
X117840269Y-108122412D01*
X117606920Y-107948359D01*
X117344099Y-107823175D01*
X117196890Y-107778524D01*
X116967000Y-107899845D01*
X116713000Y-107899845D01*
X116483110Y-107778524D01*
X116335901Y-107823175D01*
X116073080Y-107948359D01*
X115839731Y-108122412D01*
X115644822Y-108338645D01*
X115575195Y-108455534D01*
X115453475Y-108273368D01*
X115246632Y-108066525D01*
X115003411Y-107904010D01*
X114733158Y-107792068D01*
X114446260Y-107735000D01*
X114153740Y-107735000D01*
X113866842Y-107792068D01*
X113596589Y-107904010D01*
X113353368Y-108066525D01*
X113221513Y-108198380D01*
X113199502Y-108125820D01*
X113140537Y-108015506D01*
X113061185Y-107918815D01*
X112964494Y-107839463D01*
X112854180Y-107780498D01*
X112734482Y-107744188D01*
X112645000Y-107735375D01*
X112645000Y-106655695D01*
X148546520Y-106655695D01*
X148615822Y-107407938D01*
X148830548Y-108132208D01*
X149182445Y-108800670D01*
X149209452Y-108841088D01*
X149699119Y-109201276D01*
X152220395Y-106680000D01*
X152579605Y-106680000D01*
X155100881Y-109201276D01*
X155590548Y-108841088D01*
X155950849Y-108177118D01*
X156174694Y-107455615D01*
X156253480Y-106704305D01*
X156184178Y-105952062D01*
X155969452Y-105227792D01*
X155617555Y-104559330D01*
X155590548Y-104518912D01*
X155100881Y-104158724D01*
X152579605Y-106680000D01*
X152220395Y-106680000D01*
X149699119Y-104158724D01*
X149209452Y-104518912D01*
X148849151Y-105182882D01*
X148625306Y-105904385D01*
X148546520Y-106655695D01*
X112645000Y-106655695D01*
X112645000Y-103979119D01*
X149878724Y-103979119D01*
X152400000Y-106500395D01*
X154921276Y-103979119D01*
X154561088Y-103489452D01*
X153897118Y-103129151D01*
X153175615Y-102905306D01*
X152424305Y-102826520D01*
X151672062Y-102895822D01*
X150947792Y-103110548D01*
X150279330Y-103462445D01*
X150238912Y-103489452D01*
X149878724Y-103979119D01*
X112645000Y-103979119D01*
X112645000Y-101211000D01*
X120253788Y-101211000D01*
X120308747Y-101200068D01*
X120364499Y-101194577D01*
X120418106Y-101178315D01*
X120473067Y-101167383D01*
X120524842Y-101145937D01*
X120578447Y-101129676D01*
X120627851Y-101103269D01*
X120679624Y-101081824D01*
X120726214Y-101050693D01*
X120775623Y-101024284D01*
X120818932Y-100988741D01*
X120865520Y-100957612D01*
X120905141Y-100917991D01*
X120948449Y-100882449D01*
X120983991Y-100839141D01*
X121023612Y-100799520D01*
X121054741Y-100752932D01*
X121090284Y-100709623D01*
X121116693Y-100660214D01*
X121147824Y-100613624D01*
X121169269Y-100561851D01*
X121195676Y-100512447D01*
X121211937Y-100458842D01*
X121233383Y-100407067D01*
X121244315Y-100352106D01*
X121260577Y-100298499D01*
X121266068Y-100242747D01*
X121277000Y-100187788D01*
X121277000Y-100131752D01*
X121282491Y-100076000D01*
X121277000Y-100020248D01*
X121277000Y-99964212D01*
X121266068Y-99909253D01*
X121260577Y-99853501D01*
X121244315Y-99799894D01*
X121233383Y-99744933D01*
X121211937Y-99693158D01*
X121195676Y-99639553D01*
X121169269Y-99590149D01*
X121147824Y-99538376D01*
X121116693Y-99491786D01*
X121090284Y-99442377D01*
X121054741Y-99399068D01*
X121023612Y-99352480D01*
X120983991Y-99312859D01*
X120948449Y-99269551D01*
X120905141Y-99234009D01*
X120865520Y-99194388D01*
X120818932Y-99163259D01*
X120775623Y-99127716D01*
X120726214Y-99101307D01*
X120679624Y-99070176D01*
X120627851Y-99048731D01*
X120578447Y-99022324D01*
X120524842Y-99006063D01*
X120473067Y-98984617D01*
X120418106Y-98973685D01*
X120364499Y-98957423D01*
X120308747Y-98951932D01*
X120253788Y-98941000D01*
X112230132Y-98941000D01*
X108831000Y-95541869D01*
X108831000Y-95435310D01*
X109016461Y-95472200D01*
X109220339Y-95472200D01*
X109420298Y-95432426D01*
X109608656Y-95354405D01*
X109778174Y-95241137D01*
X109922337Y-95096974D01*
X110035605Y-94927456D01*
X110113626Y-94739098D01*
X110153400Y-94539139D01*
X110153400Y-94335261D01*
X110113626Y-94135302D01*
X110035605Y-93946944D01*
X109953400Y-93823915D01*
X109953400Y-69165715D01*
X110082974Y-69079137D01*
X110227137Y-68934974D01*
X110340405Y-68765456D01*
X110418426Y-68577098D01*
X110458200Y-68377139D01*
X110458200Y-68173261D01*
X110418426Y-67973302D01*
X110340405Y-67784944D01*
X110227137Y-67615426D01*
X110082974Y-67471263D01*
X109913456Y-67357995D01*
X109725098Y-67279974D01*
X109525139Y-67240200D01*
X109321261Y-67240200D01*
X109121302Y-67279974D01*
X108932944Y-67357995D01*
X108763426Y-67471263D01*
X108619263Y-67615426D01*
X108505995Y-67784944D01*
X108427974Y-67973302D01*
X108388200Y-68173261D01*
X108388200Y-68174778D01*
X108343228Y-68258914D01*
X108295482Y-68416312D01*
X108279360Y-68580000D01*
X108283401Y-68621029D01*
X108283401Y-74928269D01*
X101917524Y-68562393D01*
X101970824Y-68482624D01*
X102056383Y-68276067D01*
X102100000Y-68056788D01*
X102100000Y-67833212D01*
X102056383Y-67613933D01*
X101970824Y-67407376D01*
X101846612Y-67221480D01*
X101688520Y-67063388D01*
X101503858Y-66940000D01*
X112801928Y-66940000D01*
X112814188Y-67064482D01*
X112850498Y-67184180D01*
X112909463Y-67294494D01*
X112988815Y-67391185D01*
X113085506Y-67470537D01*
X113195820Y-67529502D01*
X113315518Y-67565812D01*
X113440000Y-67578072D01*
X114054250Y-67575000D01*
X114213000Y-67416250D01*
X114213000Y-66167000D01*
X112963750Y-66167000D01*
X112805000Y-66325750D01*
X112801928Y-66940000D01*
X101503858Y-66940000D01*
X101502624Y-66939176D01*
X101296067Y-66853617D01*
X101076788Y-66810000D01*
X100853212Y-66810000D01*
X100633933Y-66853617D01*
X100562907Y-66883037D01*
X100449612Y-66713480D01*
X100291520Y-66555388D01*
X100105624Y-66431176D01*
X99899067Y-66345617D01*
X99679788Y-66302000D01*
X99456212Y-66302000D01*
X99236933Y-66345617D01*
X99030376Y-66431176D01*
X98844480Y-66555388D01*
X98686388Y-66713480D01*
X98611911Y-66824943D01*
X98536788Y-66810000D01*
X98313212Y-66810000D01*
X98093933Y-66853617D01*
X97887376Y-66939176D01*
X97701480Y-67063388D01*
X97543388Y-67221480D01*
X97419176Y-67407376D01*
X97333617Y-67613933D01*
X97290000Y-67833212D01*
X87068000Y-67833212D01*
X87068000Y-67408208D01*
X87087095Y-67400299D01*
X87338505Y-67232312D01*
X87552312Y-67018505D01*
X87610000Y-66932169D01*
X87667688Y-67018505D01*
X87881495Y-67232312D01*
X88132905Y-67400299D01*
X88412257Y-67516011D01*
X88708816Y-67575000D01*
X89011184Y-67575000D01*
X89307743Y-67516011D01*
X89587095Y-67400299D01*
X89838505Y-67232312D01*
X90052312Y-67018505D01*
X90220299Y-66767095D01*
X90336011Y-66487743D01*
X90395000Y-66191184D01*
X90395000Y-65888816D01*
X90336011Y-65592257D01*
X90220299Y-65312905D01*
X90104768Y-65140000D01*
X112801928Y-65140000D01*
X112805000Y-65754250D01*
X112963750Y-65913000D01*
X114213000Y-65913000D01*
X114213000Y-64663750D01*
X114467000Y-64663750D01*
X114467000Y-65913000D01*
X114487000Y-65913000D01*
X114487000Y-66167000D01*
X114467000Y-66167000D01*
X114467000Y-67416250D01*
X114625750Y-67575000D01*
X115240000Y-67578072D01*
X115364482Y-67565812D01*
X115484180Y-67529502D01*
X115594494Y-67470537D01*
X115691185Y-67391185D01*
X115770537Y-67294494D01*
X115823880Y-67194697D01*
X115861495Y-67232312D01*
X116005000Y-67328199D01*
X116005001Y-88210342D01*
X115973595Y-88257344D01*
X115895574Y-88445702D01*
X115855800Y-88645661D01*
X115855800Y-88849539D01*
X115895574Y-89049498D01*
X115973595Y-89237856D01*
X116086863Y-89407374D01*
X116231026Y-89551537D01*
X116400544Y-89664805D01*
X116588902Y-89742826D01*
X116788861Y-89782600D01*
X116992739Y-89782600D01*
X117192698Y-89742826D01*
X117381056Y-89664805D01*
X117550574Y-89551537D01*
X117694737Y-89407374D01*
X117808005Y-89237856D01*
X117886026Y-89049498D01*
X117925800Y-88849539D01*
X117925800Y-88645661D01*
X117886026Y-88445702D01*
X117808005Y-88257344D01*
X117694737Y-88087826D01*
X117675000Y-88068089D01*
X117675000Y-75031261D01*
X119970600Y-75031261D01*
X119970600Y-75235139D01*
X120010374Y-75435098D01*
X120088395Y-75623456D01*
X120201663Y-75792974D01*
X120345826Y-75937137D01*
X120515344Y-76050405D01*
X120703702Y-76128426D01*
X120848825Y-76157293D01*
X121847000Y-77155469D01*
X121847001Y-81109714D01*
X121764795Y-81232744D01*
X121686774Y-81421102D01*
X121647000Y-81621061D01*
X121647000Y-81824939D01*
X121686774Y-82024898D01*
X121764795Y-82213256D01*
X121878063Y-82382774D01*
X122022226Y-82526937D01*
X122191744Y-82640205D01*
X122380102Y-82718226D01*
X122525225Y-82747093D01*
X128832001Y-89053870D01*
X128832000Y-95144715D01*
X128749795Y-95267744D01*
X128671774Y-95456102D01*
X128632000Y-95656061D01*
X128632000Y-95859939D01*
X128671774Y-96059898D01*
X128749795Y-96248256D01*
X128863063Y-96417774D01*
X129007226Y-96561937D01*
X129176744Y-96675205D01*
X129365102Y-96753226D01*
X129565061Y-96793000D01*
X129768939Y-96793000D01*
X129968898Y-96753226D01*
X130157256Y-96675205D01*
X130326774Y-96561937D01*
X130470937Y-96417774D01*
X130584205Y-96248256D01*
X130662226Y-96059898D01*
X130702000Y-95859939D01*
X130702000Y-95656061D01*
X130662226Y-95456102D01*
X130584205Y-95267744D01*
X130502000Y-95144715D01*
X130502000Y-88749018D01*
X130506040Y-88708000D01*
X130493040Y-88576011D01*
X130489918Y-88544311D01*
X130442172Y-88386913D01*
X130364636Y-88241854D01*
X130260291Y-88114709D01*
X130228432Y-88088563D01*
X123706093Y-81566225D01*
X123677226Y-81421102D01*
X123599205Y-81232744D01*
X123517000Y-81109715D01*
X123517000Y-76850618D01*
X123521040Y-76809600D01*
X123504918Y-76645912D01*
X123492082Y-76603595D01*
X123457172Y-76488513D01*
X123379636Y-76343454D01*
X123329922Y-76282877D01*
X123301439Y-76248170D01*
X123301437Y-76248168D01*
X123275291Y-76216309D01*
X123243433Y-76190164D01*
X122029693Y-74976425D01*
X122000826Y-74831302D01*
X121922805Y-74642944D01*
X121809537Y-74473426D01*
X121665374Y-74329263D01*
X121495856Y-74215995D01*
X121307498Y-74137974D01*
X121107539Y-74098200D01*
X120903661Y-74098200D01*
X120703702Y-74137974D01*
X120515344Y-74215995D01*
X120345826Y-74329263D01*
X120201663Y-74473426D01*
X120088395Y-74642944D01*
X120010374Y-74831302D01*
X119970600Y-75031261D01*
X117675000Y-75031261D01*
X117675000Y-67328199D01*
X117818505Y-67232312D01*
X118032312Y-67018505D01*
X118090000Y-66932169D01*
X118147688Y-67018505D01*
X118361495Y-67232312D01*
X118612905Y-67400299D01*
X118892257Y-67516011D01*
X119188816Y-67575000D01*
X119491184Y-67575000D01*
X119787743Y-67516011D01*
X119856668Y-67487461D01*
X129317800Y-67487461D01*
X129317800Y-67691339D01*
X129357574Y-67891298D01*
X129435595Y-68079656D01*
X129548863Y-68249174D01*
X129693026Y-68393337D01*
X129721001Y-68412029D01*
X129721000Y-76043915D01*
X129638795Y-76166944D01*
X129560774Y-76355302D01*
X129521000Y-76555261D01*
X129521000Y-76759139D01*
X129560774Y-76959098D01*
X129638795Y-77147456D01*
X129752063Y-77316974D01*
X129896226Y-77461137D01*
X130065744Y-77574405D01*
X130254102Y-77652426D01*
X130454061Y-77692200D01*
X130657939Y-77692200D01*
X130857898Y-77652426D01*
X130991001Y-77597293D01*
X130991001Y-79994006D01*
X130983174Y-80012902D01*
X130943400Y-80212861D01*
X130943400Y-80416739D01*
X130983174Y-80616698D01*
X131061195Y-80805056D01*
X131174463Y-80974574D01*
X131318626Y-81118737D01*
X131488144Y-81232005D01*
X131676502Y-81310026D01*
X131876461Y-81349800D01*
X131957000Y-81349800D01*
X131957001Y-101449166D01*
X131924795Y-101497366D01*
X131846774Y-101685724D01*
X131807000Y-101885683D01*
X131807000Y-102089561D01*
X131846774Y-102289520D01*
X131924795Y-102477878D01*
X132038063Y-102647396D01*
X132182226Y-102791559D01*
X132351744Y-102904827D01*
X132540102Y-102982848D01*
X132740061Y-103022622D01*
X132943939Y-103022622D01*
X133143898Y-102982848D01*
X133332256Y-102904827D01*
X133501774Y-102791559D01*
X133645937Y-102647396D01*
X133759205Y-102477878D01*
X133837226Y-102289520D01*
X133877000Y-102089561D01*
X133877000Y-101885683D01*
X133837226Y-101685724D01*
X133759205Y-101497366D01*
X133727000Y-101449168D01*
X133727000Y-76117400D01*
X133793949Y-76117400D01*
X133993908Y-76077626D01*
X134182266Y-75999605D01*
X134351784Y-75886337D01*
X134495947Y-75742174D01*
X134609215Y-75572656D01*
X134687236Y-75384298D01*
X134727010Y-75184339D01*
X134727010Y-74980461D01*
X134687236Y-74780502D01*
X134609215Y-74592144D01*
X134527010Y-74469115D01*
X134527010Y-66754885D01*
X134609215Y-66631856D01*
X134687236Y-66443498D01*
X134727010Y-66243539D01*
X134727010Y-66039661D01*
X134687236Y-65839702D01*
X134609215Y-65651344D01*
X134495947Y-65481826D01*
X134351784Y-65337663D01*
X134182266Y-65224395D01*
X133993908Y-65146374D01*
X133793949Y-65106600D01*
X133727000Y-65106600D01*
X133727000Y-64789022D01*
X133882774Y-64684937D01*
X134026937Y-64540774D01*
X134140205Y-64371256D01*
X134218226Y-64182898D01*
X134258000Y-63982939D01*
X134258000Y-63779073D01*
X134982000Y-63779073D01*
X134982000Y-63982951D01*
X135021774Y-64182910D01*
X135099795Y-64371268D01*
X135213063Y-64540786D01*
X135357226Y-64684949D01*
X135526744Y-64798217D01*
X135715102Y-64876238D01*
X135771957Y-64887547D01*
X136021000Y-65136591D01*
X136021001Y-100575555D01*
X135988795Y-100623755D01*
X135910774Y-100812113D01*
X135871000Y-101012072D01*
X135871000Y-101215950D01*
X135910774Y-101415909D01*
X135988795Y-101604267D01*
X136102063Y-101773785D01*
X136246226Y-101917948D01*
X136415744Y-102031216D01*
X136604102Y-102109237D01*
X136804061Y-102149011D01*
X137007939Y-102149011D01*
X137207898Y-102109237D01*
X137396256Y-102031216D01*
X137565774Y-101917948D01*
X137709937Y-101773785D01*
X137823205Y-101604267D01*
X137901226Y-101415909D01*
X137941000Y-101215950D01*
X137941000Y-101012072D01*
X137901226Y-100812113D01*
X137823205Y-100623755D01*
X137791000Y-100575557D01*
X137791000Y-89306069D01*
X137903000Y-89306069D01*
X137903000Y-89509947D01*
X137942774Y-89709906D01*
X138020795Y-89898264D01*
X138103000Y-90021293D01*
X138103001Y-96541714D01*
X138020795Y-96664744D01*
X137942774Y-96853102D01*
X137903000Y-97053061D01*
X137903000Y-97256939D01*
X137942774Y-97456898D01*
X138020795Y-97645256D01*
X138134063Y-97814774D01*
X138278226Y-97958937D01*
X138447744Y-98072205D01*
X138636102Y-98150226D01*
X138836061Y-98190000D01*
X139039939Y-98190000D01*
X139239898Y-98150226D01*
X139428256Y-98072205D01*
X139597774Y-97958937D01*
X139741937Y-97814774D01*
X139855205Y-97645256D01*
X139933226Y-97456898D01*
X139973000Y-97256939D01*
X139973000Y-97053061D01*
X139933226Y-96853102D01*
X139855205Y-96664744D01*
X139773000Y-96541715D01*
X139773000Y-90021293D01*
X139855205Y-89898264D01*
X139933226Y-89709906D01*
X139973000Y-89509947D01*
X139973000Y-89306069D01*
X139933226Y-89106110D01*
X139855205Y-88917752D01*
X139741937Y-88748234D01*
X139597774Y-88604071D01*
X139428256Y-88490803D01*
X139239898Y-88412782D01*
X139039939Y-88373008D01*
X138836061Y-88373008D01*
X138636102Y-88412782D01*
X138447744Y-88490803D01*
X138278226Y-88604071D01*
X138134063Y-88748234D01*
X138020795Y-88917752D01*
X137942774Y-89106110D01*
X137903000Y-89306069D01*
X137791000Y-89306069D01*
X137791000Y-86716890D01*
X150958524Y-86716890D01*
X151003175Y-86864099D01*
X151128359Y-87126920D01*
X151302412Y-87360269D01*
X151518645Y-87555178D01*
X151768748Y-87704157D01*
X152043109Y-87801481D01*
X152273000Y-87680814D01*
X152273000Y-86487000D01*
X152527000Y-86487000D01*
X152527000Y-87680814D01*
X152756891Y-87801481D01*
X153031252Y-87704157D01*
X153281355Y-87555178D01*
X153497588Y-87360269D01*
X153671641Y-87126920D01*
X153796825Y-86864099D01*
X153841476Y-86716890D01*
X153720155Y-86487000D01*
X152527000Y-86487000D01*
X152273000Y-86487000D01*
X151079845Y-86487000D01*
X150958524Y-86716890D01*
X137791000Y-86716890D01*
X137791000Y-83020000D01*
X143635928Y-83020000D01*
X143635928Y-84620000D01*
X143648188Y-84744482D01*
X143684498Y-84864180D01*
X143743463Y-84974494D01*
X143822815Y-85071185D01*
X143919506Y-85150537D01*
X144029820Y-85209502D01*
X144149518Y-85245812D01*
X144274000Y-85258072D01*
X145874000Y-85258072D01*
X145998482Y-85245812D01*
X146118180Y-85209502D01*
X146228494Y-85150537D01*
X146325185Y-85071185D01*
X146404537Y-84974494D01*
X146463502Y-84864180D01*
X146492661Y-84768057D01*
X146659241Y-84934637D01*
X146894273Y-85091680D01*
X147155426Y-85199853D01*
X147432665Y-85255000D01*
X147715335Y-85255000D01*
X147992574Y-85199853D01*
X148253727Y-85091680D01*
X148488759Y-84934637D01*
X148688637Y-84734759D01*
X148845680Y-84499727D01*
X148953853Y-84238574D01*
X149009000Y-83961335D01*
X149009000Y-83678665D01*
X148953853Y-83401426D01*
X148845680Y-83140273D01*
X148731908Y-82970000D01*
X150911928Y-82970000D01*
X150911928Y-84670000D01*
X150924188Y-84794482D01*
X150960498Y-84914180D01*
X151019463Y-85024494D01*
X151098815Y-85121185D01*
X151195506Y-85200537D01*
X151305820Y-85259502D01*
X151386466Y-85283966D01*
X151302412Y-85359731D01*
X151128359Y-85593080D01*
X151003175Y-85855901D01*
X150958524Y-86003110D01*
X151079845Y-86233000D01*
X152273000Y-86233000D01*
X152273000Y-86213000D01*
X152527000Y-86213000D01*
X152527000Y-86233000D01*
X153720155Y-86233000D01*
X153841476Y-86003110D01*
X153796825Y-85855901D01*
X153671641Y-85593080D01*
X153497588Y-85359731D01*
X153413534Y-85283966D01*
X153494180Y-85259502D01*
X153604494Y-85200537D01*
X153701185Y-85121185D01*
X153780537Y-85024494D01*
X153839502Y-84914180D01*
X153875812Y-84794482D01*
X153888072Y-84670000D01*
X153888072Y-82970000D01*
X153875812Y-82845518D01*
X153839502Y-82725820D01*
X153780537Y-82615506D01*
X153701185Y-82518815D01*
X153604494Y-82439463D01*
X153494180Y-82380498D01*
X153374482Y-82344188D01*
X153250000Y-82331928D01*
X151550000Y-82331928D01*
X151425518Y-82344188D01*
X151305820Y-82380498D01*
X151195506Y-82439463D01*
X151098815Y-82518815D01*
X151019463Y-82615506D01*
X150960498Y-82725820D01*
X150924188Y-82845518D01*
X150911928Y-82970000D01*
X148731908Y-82970000D01*
X148688637Y-82905241D01*
X148488759Y-82705363D01*
X148253727Y-82548320D01*
X147992574Y-82440147D01*
X147715335Y-82385000D01*
X147432665Y-82385000D01*
X147155426Y-82440147D01*
X146894273Y-82548320D01*
X146659241Y-82705363D01*
X146492661Y-82871943D01*
X146463502Y-82775820D01*
X146404537Y-82665506D01*
X146325185Y-82568815D01*
X146228494Y-82489463D01*
X146118180Y-82430498D01*
X145998482Y-82394188D01*
X145874000Y-82381928D01*
X144274000Y-82381928D01*
X144149518Y-82394188D01*
X144029820Y-82430498D01*
X143919506Y-82489463D01*
X143822815Y-82568815D01*
X143743463Y-82665506D01*
X143684498Y-82775820D01*
X143648188Y-82895518D01*
X143635928Y-83020000D01*
X137791000Y-83020000D01*
X137791000Y-76556890D01*
X150958524Y-76556890D01*
X151003175Y-76704099D01*
X151128359Y-76966920D01*
X151302412Y-77200269D01*
X151518645Y-77395178D01*
X151768748Y-77544157D01*
X152043109Y-77641481D01*
X152273000Y-77520814D01*
X152273000Y-76327000D01*
X152527000Y-76327000D01*
X152527000Y-77520814D01*
X152756891Y-77641481D01*
X153031252Y-77544157D01*
X153281355Y-77395178D01*
X153497588Y-77200269D01*
X153671641Y-76966920D01*
X153796825Y-76704099D01*
X153841476Y-76556890D01*
X153720155Y-76327000D01*
X152527000Y-76327000D01*
X152273000Y-76327000D01*
X151079845Y-76327000D01*
X150958524Y-76556890D01*
X137791000Y-76556890D01*
X137791000Y-73518665D01*
X140885000Y-73518665D01*
X140885000Y-73801335D01*
X140940147Y-74078574D01*
X141048320Y-74339727D01*
X141205363Y-74574759D01*
X141405241Y-74774637D01*
X141640273Y-74931680D01*
X141901426Y-75039853D01*
X142178665Y-75095000D01*
X142461335Y-75095000D01*
X142738574Y-75039853D01*
X142999727Y-74931680D01*
X143234759Y-74774637D01*
X143434637Y-74574759D01*
X143591680Y-74339727D01*
X143699853Y-74078574D01*
X143755000Y-73801335D01*
X143755000Y-73518665D01*
X145885000Y-73518665D01*
X145885000Y-73801335D01*
X145940147Y-74078574D01*
X146048320Y-74339727D01*
X146205363Y-74574759D01*
X146405241Y-74774637D01*
X146640273Y-74931680D01*
X146901426Y-75039853D01*
X147178665Y-75095000D01*
X147461335Y-75095000D01*
X147738574Y-75039853D01*
X147999727Y-74931680D01*
X148234759Y-74774637D01*
X148434637Y-74574759D01*
X148591680Y-74339727D01*
X148699853Y-74078574D01*
X148755000Y-73801335D01*
X148755000Y-73518665D01*
X148699853Y-73241426D01*
X148591680Y-72980273D01*
X148477908Y-72810000D01*
X150911928Y-72810000D01*
X150911928Y-74510000D01*
X150924188Y-74634482D01*
X150960498Y-74754180D01*
X151019463Y-74864494D01*
X151098815Y-74961185D01*
X151195506Y-75040537D01*
X151305820Y-75099502D01*
X151386466Y-75123966D01*
X151302412Y-75199731D01*
X151128359Y-75433080D01*
X151003175Y-75695901D01*
X150958524Y-75843110D01*
X151079845Y-76073000D01*
X152273000Y-76073000D01*
X152273000Y-76053000D01*
X152527000Y-76053000D01*
X152527000Y-76073000D01*
X153720155Y-76073000D01*
X153841476Y-75843110D01*
X153796825Y-75695901D01*
X153671641Y-75433080D01*
X153497588Y-75199731D01*
X153413534Y-75123966D01*
X153494180Y-75099502D01*
X153604494Y-75040537D01*
X153701185Y-74961185D01*
X153780537Y-74864494D01*
X153839502Y-74754180D01*
X153875812Y-74634482D01*
X153888072Y-74510000D01*
X153888072Y-72810000D01*
X153875812Y-72685518D01*
X153839502Y-72565820D01*
X153780537Y-72455506D01*
X153701185Y-72358815D01*
X153604494Y-72279463D01*
X153494180Y-72220498D01*
X153374482Y-72184188D01*
X153250000Y-72171928D01*
X151550000Y-72171928D01*
X151425518Y-72184188D01*
X151305820Y-72220498D01*
X151195506Y-72279463D01*
X151098815Y-72358815D01*
X151019463Y-72455506D01*
X150960498Y-72565820D01*
X150924188Y-72685518D01*
X150911928Y-72810000D01*
X148477908Y-72810000D01*
X148434637Y-72745241D01*
X148234759Y-72545363D01*
X147999727Y-72388320D01*
X147738574Y-72280147D01*
X147461335Y-72225000D01*
X147178665Y-72225000D01*
X146901426Y-72280147D01*
X146640273Y-72388320D01*
X146405241Y-72545363D01*
X146205363Y-72745241D01*
X146048320Y-72980273D01*
X145940147Y-73241426D01*
X145885000Y-73518665D01*
X143755000Y-73518665D01*
X143699853Y-73241426D01*
X143591680Y-72980273D01*
X143434637Y-72745241D01*
X143234759Y-72545363D01*
X142999727Y-72388320D01*
X142738574Y-72280147D01*
X142461335Y-72225000D01*
X142178665Y-72225000D01*
X141901426Y-72280147D01*
X141640273Y-72388320D01*
X141405241Y-72545363D01*
X141205363Y-72745241D01*
X141048320Y-72980273D01*
X140940147Y-73241426D01*
X140885000Y-73518665D01*
X137791000Y-73518665D01*
X137791000Y-65140000D01*
X143281928Y-65140000D01*
X143281928Y-66940000D01*
X143294188Y-67064482D01*
X143330498Y-67184180D01*
X143389463Y-67294494D01*
X143468815Y-67391185D01*
X143565506Y-67470537D01*
X143675820Y-67529502D01*
X143795518Y-67565812D01*
X143920000Y-67578072D01*
X145720000Y-67578072D01*
X145844482Y-67565812D01*
X145964180Y-67529502D01*
X146074494Y-67470537D01*
X146171185Y-67391185D01*
X146250537Y-67294494D01*
X146303880Y-67194697D01*
X146341495Y-67232312D01*
X146592905Y-67400299D01*
X146872257Y-67516011D01*
X147168816Y-67575000D01*
X147471184Y-67575000D01*
X147767743Y-67516011D01*
X148047095Y-67400299D01*
X148298505Y-67232312D01*
X148512312Y-67018505D01*
X148570000Y-66932169D01*
X148627688Y-67018505D01*
X148841495Y-67232312D01*
X149092905Y-67400299D01*
X149372257Y-67516011D01*
X149668816Y-67575000D01*
X149971184Y-67575000D01*
X150267743Y-67516011D01*
X150547095Y-67400299D01*
X150798505Y-67232312D01*
X151012312Y-67018505D01*
X151180299Y-66767095D01*
X151296011Y-66487743D01*
X151355000Y-66191184D01*
X151355000Y-65888816D01*
X151296011Y-65592257D01*
X151180299Y-65312905D01*
X151012312Y-65061495D01*
X150798505Y-64847688D01*
X150547095Y-64679701D01*
X150267743Y-64563989D01*
X149971184Y-64505000D01*
X149668816Y-64505000D01*
X149372257Y-64563989D01*
X149092905Y-64679701D01*
X148841495Y-64847688D01*
X148627688Y-65061495D01*
X148570000Y-65147831D01*
X148512312Y-65061495D01*
X148298505Y-64847688D01*
X148047095Y-64679701D01*
X147767743Y-64563989D01*
X147471184Y-64505000D01*
X147168816Y-64505000D01*
X146872257Y-64563989D01*
X146592905Y-64679701D01*
X146341495Y-64847688D01*
X146303880Y-64885303D01*
X146250537Y-64785506D01*
X146171185Y-64688815D01*
X146074494Y-64609463D01*
X145964180Y-64550498D01*
X145844482Y-64514188D01*
X145720000Y-64501928D01*
X143920000Y-64501928D01*
X143795518Y-64514188D01*
X143675820Y-64550498D01*
X143565506Y-64609463D01*
X143468815Y-64688815D01*
X143389463Y-64785506D01*
X143330498Y-64895820D01*
X143294188Y-65015518D01*
X143281928Y-65140000D01*
X137791000Y-65140000D01*
X137791000Y-64813481D01*
X137795281Y-64770012D01*
X137791000Y-64726543D01*
X137791000Y-64726535D01*
X137778195Y-64596522D01*
X137727589Y-64429699D01*
X137645411Y-64275953D01*
X137534817Y-64141195D01*
X137501050Y-64113483D01*
X137023535Y-63635969D01*
X137012226Y-63579114D01*
X136934205Y-63390756D01*
X136820937Y-63221238D01*
X136676774Y-63077075D01*
X136507256Y-62963807D01*
X136318898Y-62885786D01*
X136118939Y-62846012D01*
X135915061Y-62846012D01*
X135715102Y-62885786D01*
X135526744Y-62963807D01*
X135357226Y-63077075D01*
X135213063Y-63221238D01*
X135099795Y-63390756D01*
X135021774Y-63579114D01*
X134982000Y-63779073D01*
X134258000Y-63779073D01*
X134258000Y-63779061D01*
X134218226Y-63579102D01*
X134140205Y-63390744D01*
X134026937Y-63221226D01*
X133882774Y-63077063D01*
X133713256Y-62963795D01*
X133524898Y-62885774D01*
X133324939Y-62846000D01*
X133121061Y-62846000D01*
X132921102Y-62885774D01*
X132732744Y-62963795D01*
X132563226Y-63077063D01*
X132419063Y-63221226D01*
X132305795Y-63390744D01*
X132227774Y-63579102D01*
X132217765Y-63629423D01*
X132213183Y-63633183D01*
X132102589Y-63767942D01*
X132020411Y-63921688D01*
X131969805Y-64088511D01*
X131957000Y-64218524D01*
X131957000Y-64218531D01*
X131952719Y-64262000D01*
X131957000Y-64305469D01*
X131957000Y-69836781D01*
X131927939Y-69831000D01*
X131724061Y-69831000D01*
X131524102Y-69870774D01*
X131391000Y-69925907D01*
X131391000Y-67833618D01*
X131395040Y-67792599D01*
X131385972Y-67700530D01*
X131387800Y-67691339D01*
X131387800Y-67487461D01*
X131348026Y-67287502D01*
X131270005Y-67099144D01*
X131156737Y-66929626D01*
X131012574Y-66785463D01*
X130843056Y-66672195D01*
X130654698Y-66594174D01*
X130454739Y-66554400D01*
X130250861Y-66554400D01*
X130050902Y-66594174D01*
X129862544Y-66672195D01*
X129693026Y-66785463D01*
X129548863Y-66929626D01*
X129435595Y-67099144D01*
X129357574Y-67287502D01*
X129317800Y-67487461D01*
X119856668Y-67487461D01*
X120067095Y-67400299D01*
X120318505Y-67232312D01*
X120532312Y-67018505D01*
X120700299Y-66767095D01*
X120816011Y-66487743D01*
X120875000Y-66191184D01*
X120875000Y-65888816D01*
X120816011Y-65592257D01*
X120700299Y-65312905D01*
X120532312Y-65061495D01*
X120318505Y-64847688D01*
X120067095Y-64679701D01*
X119787743Y-64563989D01*
X119491184Y-64505000D01*
X119188816Y-64505000D01*
X118892257Y-64563989D01*
X118612905Y-64679701D01*
X118361495Y-64847688D01*
X118147688Y-65061495D01*
X118090000Y-65147831D01*
X118032312Y-65061495D01*
X117818505Y-64847688D01*
X117567095Y-64679701D01*
X117287743Y-64563989D01*
X116991184Y-64505000D01*
X116688816Y-64505000D01*
X116392257Y-64563989D01*
X116112905Y-64679701D01*
X115861495Y-64847688D01*
X115823880Y-64885303D01*
X115770537Y-64785506D01*
X115691185Y-64688815D01*
X115594494Y-64609463D01*
X115484180Y-64550498D01*
X115364482Y-64514188D01*
X115240000Y-64501928D01*
X114625750Y-64505000D01*
X114467000Y-64663750D01*
X114213000Y-64663750D01*
X114054250Y-64505000D01*
X113440000Y-64501928D01*
X113315518Y-64514188D01*
X113195820Y-64550498D01*
X113085506Y-64609463D01*
X112988815Y-64688815D01*
X112909463Y-64785506D01*
X112850498Y-64895820D01*
X112814188Y-65015518D01*
X112801928Y-65140000D01*
X90104768Y-65140000D01*
X90052312Y-65061495D01*
X89838505Y-64847688D01*
X89587095Y-64679701D01*
X89307743Y-64563989D01*
X89011184Y-64505000D01*
X88708816Y-64505000D01*
X88412257Y-64563989D01*
X88132905Y-64679701D01*
X87881495Y-64847688D01*
X87667688Y-65061495D01*
X87610000Y-65147831D01*
X87552312Y-65061495D01*
X87338505Y-64847688D01*
X87087095Y-64679701D01*
X86807743Y-64563989D01*
X86511184Y-64505000D01*
X86208816Y-64505000D01*
X85912257Y-64563989D01*
X85632905Y-64679701D01*
X85381495Y-64847688D01*
X85343880Y-64885303D01*
X85290537Y-64785506D01*
X85211185Y-64688815D01*
X85114494Y-64609463D01*
X85004180Y-64550498D01*
X84884482Y-64514188D01*
X84760000Y-64501928D01*
X84145750Y-64505000D01*
X83987000Y-64663750D01*
X83987000Y-65913000D01*
X84007000Y-65913000D01*
X84007000Y-66167000D01*
X83987000Y-66167000D01*
X83987000Y-67416250D01*
X84145750Y-67575000D01*
X84760000Y-67578072D01*
X84884482Y-67565812D01*
X85004180Y-67529502D01*
X85114494Y-67470537D01*
X85211185Y-67391185D01*
X85290537Y-67294494D01*
X85343880Y-67194697D01*
X85381495Y-67232312D01*
X85398001Y-67243341D01*
X85398000Y-72157715D01*
X85315795Y-72280744D01*
X85237774Y-72469102D01*
X85231753Y-72499374D01*
X79752000Y-67019622D01*
X79752000Y-66940000D01*
X82321928Y-66940000D01*
X82334188Y-67064482D01*
X82370498Y-67184180D01*
X82429463Y-67294494D01*
X82508815Y-67391185D01*
X82605506Y-67470537D01*
X82715820Y-67529502D01*
X82835518Y-67565812D01*
X82960000Y-67578072D01*
X83574250Y-67575000D01*
X83733000Y-67416250D01*
X83733000Y-66167000D01*
X82483750Y-66167000D01*
X82325000Y-66325750D01*
X82321928Y-66940000D01*
X79752000Y-66940000D01*
X79752000Y-65140000D01*
X82321928Y-65140000D01*
X82325000Y-65754250D01*
X82483750Y-65913000D01*
X83733000Y-65913000D01*
X83733000Y-64663750D01*
X83574250Y-64505000D01*
X82960000Y-64501928D01*
X82835518Y-64514188D01*
X82715820Y-64550498D01*
X82605506Y-64609463D01*
X82508815Y-64688815D01*
X82429463Y-64785506D01*
X82370498Y-64895820D01*
X82334188Y-65015518D01*
X82321928Y-65140000D01*
X79752000Y-65140000D01*
X79752000Y-64165462D01*
X79784205Y-64117264D01*
X79862226Y-63928906D01*
X79902000Y-63728947D01*
X79902000Y-63525069D01*
X79862226Y-63325110D01*
X79784205Y-63136752D01*
X79670937Y-62967234D01*
X79526774Y-62823071D01*
X79357256Y-62709803D01*
X79168898Y-62631782D01*
X78968939Y-62592008D01*
X78765061Y-62592008D01*
X78565102Y-62631782D01*
X78376744Y-62709803D01*
X78207226Y-62823071D01*
X78063063Y-62967234D01*
X77949795Y-63136752D01*
X77871774Y-63325110D01*
X77832000Y-63525069D01*
X76860000Y-63525069D01*
X76860000Y-58182002D01*
X79565000Y-58182002D01*
X79565000Y-58897997D01*
X79593867Y-59191087D01*
X79707943Y-59567146D01*
X79893193Y-59913725D01*
X80142497Y-60217503D01*
X80446275Y-60466807D01*
X80792853Y-60652057D01*
X81168912Y-60766133D01*
X81560000Y-60804652D01*
X81951087Y-60766133D01*
X82327146Y-60652057D01*
X82673725Y-60466807D01*
X82977503Y-60217503D01*
X83226807Y-59913725D01*
X83412057Y-59567147D01*
X83526133Y-59191088D01*
X83555000Y-58897998D01*
X83555000Y-58182003D01*
X83555000Y-58182002D01*
X89165000Y-58182002D01*
X89165000Y-58897997D01*
X89193867Y-59191087D01*
X89307943Y-59567146D01*
X89493193Y-59913725D01*
X89742497Y-60217503D01*
X90046275Y-60466807D01*
X90392853Y-60652057D01*
X90768912Y-60766133D01*
X91160000Y-60804652D01*
X91551087Y-60766133D01*
X91927146Y-60652057D01*
X92273725Y-60466807D01*
X92577503Y-60217503D01*
X92826807Y-59913725D01*
X93012057Y-59567147D01*
X93126133Y-59191088D01*
X93155000Y-58897998D01*
X93155000Y-58182003D01*
X93126133Y-57888913D01*
X93029393Y-57570000D01*
X96809928Y-57570000D01*
X96809928Y-59270000D01*
X96822188Y-59394482D01*
X96858498Y-59514180D01*
X96917463Y-59624494D01*
X96996815Y-59721185D01*
X97093506Y-59800537D01*
X97203820Y-59859502D01*
X97323518Y-59895812D01*
X97448000Y-59908072D01*
X99148000Y-59908072D01*
X99272482Y-59895812D01*
X99392180Y-59859502D01*
X99502494Y-59800537D01*
X99599185Y-59721185D01*
X99678537Y-59624494D01*
X99737502Y-59514180D01*
X99761966Y-59433534D01*
X99837731Y-59517588D01*
X100071080Y-59691641D01*
X100333901Y-59816825D01*
X100481110Y-59861476D01*
X100711000Y-59740155D01*
X100711000Y-58547000D01*
X100965000Y-58547000D01*
X100965000Y-59740155D01*
X101194890Y-59861476D01*
X101342099Y-59816825D01*
X101604920Y-59691641D01*
X101838269Y-59517588D01*
X102033178Y-59301355D01*
X102182157Y-59051252D01*
X102279481Y-58776891D01*
X102158814Y-58547000D01*
X100965000Y-58547000D01*
X100711000Y-58547000D01*
X100691000Y-58547000D01*
X100691000Y-58293000D01*
X100711000Y-58293000D01*
X100711000Y-57099845D01*
X100965000Y-57099845D01*
X100965000Y-58293000D01*
X102158814Y-58293000D01*
X102217075Y-58182002D01*
X110045000Y-58182002D01*
X110045000Y-58897997D01*
X110073867Y-59191087D01*
X110187943Y-59567146D01*
X110373193Y-59913725D01*
X110622497Y-60217503D01*
X110926275Y-60466807D01*
X111272853Y-60652057D01*
X111648912Y-60766133D01*
X112040000Y-60804652D01*
X112431087Y-60766133D01*
X112807146Y-60652057D01*
X113153725Y-60466807D01*
X113457503Y-60217503D01*
X113706807Y-59913725D01*
X113892057Y-59567147D01*
X114006133Y-59191088D01*
X114035000Y-58897998D01*
X114035000Y-58182003D01*
X114035000Y-58182002D01*
X119645000Y-58182002D01*
X119645000Y-58897997D01*
X119673867Y-59191087D01*
X119787943Y-59567146D01*
X119973193Y-59913725D01*
X120222497Y-60217503D01*
X120526275Y-60466807D01*
X120872853Y-60652057D01*
X121248912Y-60766133D01*
X121640000Y-60804652D01*
X122031087Y-60766133D01*
X122407146Y-60652057D01*
X122753725Y-60466807D01*
X123057503Y-60217503D01*
X123306807Y-59913725D01*
X123492057Y-59567147D01*
X123606133Y-59191088D01*
X123635000Y-58897998D01*
X123635000Y-58268816D01*
X130545000Y-58268816D01*
X130545000Y-58571184D01*
X130603989Y-58867743D01*
X130719701Y-59147095D01*
X130887688Y-59398505D01*
X131101495Y-59612312D01*
X131352905Y-59780299D01*
X131632257Y-59896011D01*
X131928816Y-59955000D01*
X132231184Y-59955000D01*
X132527743Y-59896011D01*
X132807095Y-59780299D01*
X133058505Y-59612312D01*
X133272312Y-59398505D01*
X133374951Y-59244895D01*
X133555920Y-59304475D01*
X134440395Y-58420000D01*
X133555920Y-57535525D01*
X133374951Y-57595105D01*
X133272312Y-57441495D01*
X133186737Y-57355920D01*
X133735525Y-57355920D01*
X134620000Y-58240395D01*
X134634143Y-58226253D01*
X134813748Y-58405858D01*
X134799605Y-58420000D01*
X134813748Y-58434143D01*
X134634143Y-58613748D01*
X134620000Y-58599605D01*
X133735525Y-59484080D01*
X133819208Y-59738261D01*
X134091775Y-59869158D01*
X134384642Y-59944365D01*
X134686553Y-59960991D01*
X134985907Y-59918397D01*
X135271199Y-59818222D01*
X135420792Y-59738261D01*
X135504474Y-59484082D01*
X135620422Y-59600030D01*
X135667187Y-59553265D01*
X135670498Y-59564180D01*
X135729463Y-59674494D01*
X135808815Y-59771185D01*
X135905506Y-59850537D01*
X136015820Y-59909502D01*
X136135518Y-59945812D01*
X136260000Y-59958072D01*
X138060000Y-59958072D01*
X138184482Y-59945812D01*
X138304180Y-59909502D01*
X138414494Y-59850537D01*
X138511185Y-59771185D01*
X138590537Y-59674494D01*
X138649502Y-59564180D01*
X138685812Y-59444482D01*
X138698072Y-59320000D01*
X138698072Y-58182002D01*
X140525000Y-58182002D01*
X140525000Y-58897997D01*
X140553867Y-59191087D01*
X140667943Y-59567146D01*
X140853193Y-59913725D01*
X141102497Y-60217503D01*
X141406275Y-60466807D01*
X141752853Y-60652057D01*
X142128912Y-60766133D01*
X142520000Y-60804652D01*
X142911087Y-60766133D01*
X143287146Y-60652057D01*
X143633725Y-60466807D01*
X143937503Y-60217503D01*
X144186807Y-59913725D01*
X144372057Y-59567147D01*
X144486133Y-59191088D01*
X144515000Y-58897998D01*
X144515000Y-58182003D01*
X144515000Y-58182002D01*
X150125000Y-58182002D01*
X150125000Y-58897997D01*
X150153867Y-59191087D01*
X150267943Y-59567146D01*
X150453193Y-59913725D01*
X150702497Y-60217503D01*
X151006275Y-60466807D01*
X151352853Y-60652057D01*
X151728912Y-60766133D01*
X152120000Y-60804652D01*
X152511087Y-60766133D01*
X152887146Y-60652057D01*
X153233725Y-60466807D01*
X153537503Y-60217503D01*
X153786807Y-59913725D01*
X153972057Y-59567147D01*
X154086133Y-59191088D01*
X154115000Y-58897998D01*
X154115000Y-58182003D01*
X154086133Y-57888913D01*
X153972057Y-57512853D01*
X153786807Y-57166275D01*
X153537503Y-56862497D01*
X153233725Y-56613193D01*
X152887147Y-56427943D01*
X152511088Y-56313867D01*
X152120000Y-56275348D01*
X151728913Y-56313867D01*
X151352854Y-56427943D01*
X151006276Y-56613193D01*
X150702498Y-56862497D01*
X150453193Y-57166275D01*
X150267943Y-57512853D01*
X150153867Y-57888912D01*
X150125000Y-58182002D01*
X144515000Y-58182002D01*
X144486133Y-57888913D01*
X144372057Y-57512853D01*
X144186807Y-57166275D01*
X143937503Y-56862497D01*
X143633725Y-56613193D01*
X143287147Y-56427943D01*
X142911088Y-56313867D01*
X142520000Y-56275348D01*
X142128913Y-56313867D01*
X141752854Y-56427943D01*
X141406276Y-56613193D01*
X141102498Y-56862497D01*
X140853193Y-57166275D01*
X140667943Y-57512853D01*
X140553867Y-57888912D01*
X140525000Y-58182002D01*
X138698072Y-58182002D01*
X138698072Y-57520000D01*
X138685812Y-57395518D01*
X138649502Y-57275820D01*
X138590537Y-57165506D01*
X138511185Y-57068815D01*
X138414494Y-56989463D01*
X138304180Y-56930498D01*
X138184482Y-56894188D01*
X138060000Y-56881928D01*
X136260000Y-56881928D01*
X136135518Y-56894188D01*
X136015820Y-56930498D01*
X135905506Y-56989463D01*
X135808815Y-57068815D01*
X135729463Y-57165506D01*
X135670498Y-57275820D01*
X135667187Y-57286735D01*
X135620422Y-57239970D01*
X135504474Y-57355918D01*
X135420792Y-57101739D01*
X135148225Y-56970842D01*
X134855358Y-56895635D01*
X134553447Y-56879009D01*
X134254093Y-56921603D01*
X133968801Y-57021778D01*
X133819208Y-57101739D01*
X133735525Y-57355920D01*
X133186737Y-57355920D01*
X133058505Y-57227688D01*
X132807095Y-57059701D01*
X132527743Y-56943989D01*
X132231184Y-56885000D01*
X131928816Y-56885000D01*
X131632257Y-56943989D01*
X131352905Y-57059701D01*
X131101495Y-57227688D01*
X130887688Y-57441495D01*
X130719701Y-57692905D01*
X130603989Y-57972257D01*
X130545000Y-58268816D01*
X123635000Y-58268816D01*
X123635000Y-58182003D01*
X123606133Y-57888913D01*
X123492057Y-57512853D01*
X123306807Y-57166275D01*
X123057503Y-56862497D01*
X122753725Y-56613193D01*
X122407147Y-56427943D01*
X122031088Y-56313867D01*
X121640000Y-56275348D01*
X121248913Y-56313867D01*
X120872854Y-56427943D01*
X120526276Y-56613193D01*
X120222498Y-56862497D01*
X119973193Y-57166275D01*
X119787943Y-57512853D01*
X119673867Y-57888912D01*
X119645000Y-58182002D01*
X114035000Y-58182002D01*
X114006133Y-57888913D01*
X113892057Y-57512853D01*
X113706807Y-57166275D01*
X113457503Y-56862497D01*
X113153725Y-56613193D01*
X112807147Y-56427943D01*
X112431088Y-56313867D01*
X112040000Y-56275348D01*
X111648913Y-56313867D01*
X111272854Y-56427943D01*
X110926276Y-56613193D01*
X110622498Y-56862497D01*
X110373193Y-57166275D01*
X110187943Y-57512853D01*
X110073867Y-57888912D01*
X110045000Y-58182002D01*
X102217075Y-58182002D01*
X102279481Y-58063109D01*
X102182157Y-57788748D01*
X102033178Y-57538645D01*
X101838269Y-57322412D01*
X101604920Y-57148359D01*
X101342099Y-57023175D01*
X101194890Y-56978524D01*
X100965000Y-57099845D01*
X100711000Y-57099845D01*
X100481110Y-56978524D01*
X100333901Y-57023175D01*
X100071080Y-57148359D01*
X99837731Y-57322412D01*
X99761966Y-57406466D01*
X99737502Y-57325820D01*
X99678537Y-57215506D01*
X99599185Y-57118815D01*
X99502494Y-57039463D01*
X99392180Y-56980498D01*
X99272482Y-56944188D01*
X99148000Y-56931928D01*
X97448000Y-56931928D01*
X97323518Y-56944188D01*
X97203820Y-56980498D01*
X97093506Y-57039463D01*
X96996815Y-57118815D01*
X96917463Y-57215506D01*
X96858498Y-57325820D01*
X96822188Y-57445518D01*
X96809928Y-57570000D01*
X93029393Y-57570000D01*
X93012057Y-57512853D01*
X92826807Y-57166275D01*
X92577503Y-56862497D01*
X92273725Y-56613193D01*
X91927147Y-56427943D01*
X91551088Y-56313867D01*
X91160000Y-56275348D01*
X90768913Y-56313867D01*
X90392854Y-56427943D01*
X90046276Y-56613193D01*
X89742498Y-56862497D01*
X89493193Y-57166275D01*
X89307943Y-57512853D01*
X89193867Y-57888912D01*
X89165000Y-58182002D01*
X83555000Y-58182002D01*
X83526133Y-57888913D01*
X83412057Y-57512853D01*
X83226807Y-57166275D01*
X82977503Y-56862497D01*
X82673725Y-56613193D01*
X82327147Y-56427943D01*
X81951088Y-56313867D01*
X81560000Y-56275348D01*
X81168913Y-56313867D01*
X80792854Y-56427943D01*
X80446276Y-56613193D01*
X80142498Y-56862497D01*
X79893193Y-57166275D01*
X79707943Y-57512853D01*
X79593867Y-57888912D01*
X79565000Y-58182002D01*
X76860000Y-58182002D01*
X76860000Y-55909392D01*
X76932437Y-55097751D01*
X77139672Y-54340226D01*
X77477777Y-53631375D01*
X77936067Y-52993596D01*
X78500055Y-52447054D01*
X79151913Y-52009023D01*
X79871038Y-51693349D01*
X80639768Y-51508794D01*
X81304207Y-51460000D01*
X152370608Y-51460000D01*
X153182249Y-51532437D01*
G37*
X153182249Y-51532437D02*
X153939774Y-51739672D01*
X154648625Y-52077777D01*
X155286404Y-52536067D01*
X155832946Y-53100055D01*
X156270977Y-53751913D01*
X156586651Y-54471038D01*
X156771206Y-55239768D01*
X156820001Y-55904221D01*
X156820000Y-106650608D01*
X156747563Y-107462249D01*
X156540328Y-108219774D01*
X156202221Y-108928627D01*
X155743928Y-109566410D01*
X155179945Y-110112946D01*
X154528085Y-110550978D01*
X153808963Y-110866651D01*
X153040232Y-111051206D01*
X152375792Y-111100000D01*
X81309392Y-111100000D01*
X80497751Y-111027563D01*
X79740226Y-110820328D01*
X79031373Y-110482221D01*
X78393590Y-110023928D01*
X77847054Y-109459945D01*
X77793926Y-109380881D01*
X78758724Y-109380881D01*
X79118912Y-109870548D01*
X79782882Y-110230849D01*
X80504385Y-110454694D01*
X81255695Y-110533480D01*
X82007938Y-110464178D01*
X82732208Y-110249452D01*
X83400670Y-109897555D01*
X83441088Y-109870548D01*
X83801276Y-109380881D01*
X81280000Y-106859605D01*
X78758724Y-109380881D01*
X77793926Y-109380881D01*
X77409022Y-108808085D01*
X77093349Y-108088963D01*
X76908794Y-107320232D01*
X76860000Y-106655792D01*
X76860000Y-106655695D01*
X77426520Y-106655695D01*
X77495822Y-107407938D01*
X77710548Y-108132208D01*
X78062445Y-108800670D01*
X78089452Y-108841088D01*
X78579119Y-109201276D01*
X81100395Y-106680000D01*
X81459605Y-106680000D01*
X83980881Y-109201276D01*
X84470548Y-108841088D01*
X84830849Y-108177118D01*
X85054694Y-107455615D01*
X85133480Y-106704305D01*
X85064178Y-105952062D01*
X84849452Y-105227792D01*
X84497555Y-104559330D01*
X84470548Y-104518912D01*
X83980881Y-104158724D01*
X81459605Y-106680000D01*
X81100395Y-106680000D01*
X78579119Y-104158724D01*
X78089452Y-104518912D01*
X77729151Y-105182882D01*
X77505306Y-105904385D01*
X77426520Y-106655695D01*
X76860000Y-106655695D01*
X76860000Y-103979119D01*
X78758724Y-103979119D01*
X81280000Y-106500395D01*
X83801276Y-103979119D01*
X83441088Y-103489452D01*
X82777118Y-103129151D01*
X82055615Y-102905306D01*
X81304305Y-102826520D01*
X80552062Y-102895822D01*
X79827792Y-103110548D01*
X79159330Y-103462445D01*
X79118912Y-103489452D01*
X78758724Y-103979119D01*
X76860000Y-103979119D01*
X76860000Y-93066890D01*
X79838524Y-93066890D01*
X79883175Y-93214099D01*
X80008359Y-93476920D01*
X80182412Y-93710269D01*
X80398645Y-93905178D01*
X80648748Y-94054157D01*
X80923109Y-94151481D01*
X81153000Y-94030814D01*
X81153000Y-92837000D01*
X81407000Y-92837000D01*
X81407000Y-94030814D01*
X81636891Y-94151481D01*
X81911252Y-94054157D01*
X82161355Y-93905178D01*
X82229682Y-93843589D01*
X90690000Y-93843589D01*
X90690000Y-94116411D01*
X90743225Y-94383989D01*
X90847629Y-94636043D01*
X90999201Y-94862886D01*
X91192114Y-95055799D01*
X91418957Y-95207371D01*
X91671011Y-95311775D01*
X91938589Y-95365000D01*
X92211411Y-95365000D01*
X92478989Y-95311775D01*
X92731043Y-95207371D01*
X92957886Y-95055799D01*
X93150799Y-94862886D01*
X93302371Y-94636043D01*
X93406775Y-94383989D01*
X93460000Y-94116411D01*
X93460000Y-93843589D01*
X93406775Y-93576011D01*
X93302371Y-93323957D01*
X93150799Y-93097114D01*
X92957886Y-92904201D01*
X92731043Y-92752629D01*
X92478989Y-92648225D01*
X92211411Y-92595000D01*
X91938589Y-92595000D01*
X91671011Y-92648225D01*
X91418957Y-92752629D01*
X91192114Y-92904201D01*
X90999201Y-93097114D01*
X90847629Y-93323957D01*
X90743225Y-93576011D01*
X90690000Y-93843589D01*
X82229682Y-93843589D01*
X82377588Y-93710269D01*
X82551641Y-93476920D01*
X82676825Y-93214099D01*
X82721476Y-93066890D01*
X82600155Y-92837000D01*
X81407000Y-92837000D01*
X81153000Y-92837000D01*
X79959845Y-92837000D01*
X79838524Y-93066890D01*
X76860000Y-93066890D01*
X76860000Y-86780000D01*
X79791928Y-86780000D01*
X79791928Y-88480000D01*
X79804188Y-88604482D01*
X79840498Y-88724180D01*
X79899463Y-88834494D01*
X79978815Y-88931185D01*
X80075506Y-89010537D01*
X80185820Y-89069502D01*
X80258380Y-89091513D01*
X80126525Y-89223368D01*
X79964010Y-89466589D01*
X79852068Y-89736842D01*
X79795000Y-90023740D01*
X79795000Y-90316260D01*
X79852068Y-90603158D01*
X79964010Y-90873411D01*
X80126525Y-91116632D01*
X80333368Y-91323475D01*
X80515534Y-91445195D01*
X80398645Y-91514822D01*
X80182412Y-91709731D01*
X80008359Y-91943080D01*
X79883175Y-92205901D01*
X79838524Y-92353110D01*
X79959845Y-92583000D01*
X81153000Y-92583000D01*
X81153000Y-92563000D01*
X81407000Y-92563000D01*
X81407000Y-92583000D01*
X82600155Y-92583000D01*
X82721476Y-92353110D01*
X82676825Y-92205901D01*
X82551641Y-91943080D01*
X82377588Y-91709731D01*
X82161355Y-91514822D01*
X82044466Y-91445195D01*
X82226632Y-91323475D01*
X82433475Y-91116632D01*
X82595990Y-90873411D01*
X82707932Y-90603158D01*
X82765000Y-90316260D01*
X82765000Y-90023740D01*
X82707932Y-89736842D01*
X82595990Y-89466589D01*
X82433475Y-89223368D01*
X82301620Y-89091513D01*
X82374180Y-89069502D01*
X82484494Y-89010537D01*
X82581185Y-88931185D01*
X82660537Y-88834494D01*
X82719502Y-88724180D01*
X82755812Y-88604482D01*
X82768072Y-88480000D01*
X82768072Y-86780000D01*
X82755812Y-86655518D01*
X82719502Y-86535820D01*
X82660537Y-86425506D01*
X82581185Y-86328815D01*
X82484494Y-86249463D01*
X82374180Y-86190498D01*
X82254482Y-86154188D01*
X82130000Y-86141928D01*
X82115000Y-86141928D01*
X82115000Y-84077685D01*
X82197205Y-83954656D01*
X82275226Y-83766298D01*
X82315000Y-83566339D01*
X82315000Y-83362461D01*
X82275226Y-83162502D01*
X82197205Y-82974144D01*
X82083937Y-82804626D01*
X81939774Y-82660463D01*
X81770256Y-82547195D01*
X81581898Y-82469174D01*
X81381939Y-82429400D01*
X81178061Y-82429400D01*
X80978102Y-82469174D01*
X80789744Y-82547195D01*
X80620226Y-82660463D01*
X80476063Y-82804626D01*
X80362795Y-82974144D01*
X80284774Y-83162502D01*
X80245000Y-83362461D01*
X80245000Y-83566339D01*
X80284774Y-83766298D01*
X80362795Y-83954656D01*
X80445001Y-84077686D01*
X80445000Y-86141928D01*
X80430000Y-86141928D01*
X80305518Y-86154188D01*
X80185820Y-86190498D01*
X80075506Y-86249463D01*
X79978815Y-86328815D01*
X79899463Y-86425506D01*
X79840498Y-86535820D01*
X79804188Y-86655518D01*
X79791928Y-86780000D01*
X76860000Y-86780000D01*
X76860000Y-79096890D01*
X79838524Y-79096890D01*
X79883175Y-79244099D01*
X80008359Y-79506920D01*
X80182412Y-79740269D01*
X80398645Y-79935178D01*
X80648748Y-80084157D01*
X80923109Y-80181481D01*
X81153000Y-80060814D01*
X81153000Y-78867000D01*
X81407000Y-78867000D01*
X81407000Y-80060814D01*
X81636891Y-80181481D01*
X81911252Y-80084157D01*
X82161355Y-79935178D01*
X82377588Y-79740269D01*
X82551641Y-79506920D01*
X82676825Y-79244099D01*
X82721476Y-79096890D01*
X82600155Y-78867000D01*
X81407000Y-78867000D01*
X81153000Y-78867000D01*
X79959845Y-78867000D01*
X79838524Y-79096890D01*
X76860000Y-79096890D01*
X76860000Y-72810000D01*
X79791928Y-72810000D01*
X79791928Y-74510000D01*
X79804188Y-74634482D01*
X79840498Y-74754180D01*
X79899463Y-74864494D01*
X79978815Y-74961185D01*
X80075506Y-75040537D01*
X80185820Y-75099502D01*
X80258380Y-75121513D01*
X80126525Y-75253368D01*
X79964010Y-75496589D01*
X79852068Y-75766842D01*
X79795000Y-76053740D01*
X79795000Y-76346260D01*
X79852068Y-76633158D01*
X79964010Y-76903411D01*
X80126525Y-77146632D01*
X80333368Y-77353475D01*
X80515534Y-77475195D01*
X80398645Y-77544822D01*
X80182412Y-77739731D01*
X80008359Y-77973080D01*
X79883175Y-78235901D01*
X79838524Y-78383110D01*
X79959845Y-78613000D01*
X81153000Y-78613000D01*
X81153000Y-78593000D01*
X81407000Y-78593000D01*
X81407000Y-78613000D01*
X82600155Y-78613000D01*
X82721476Y-78383110D01*
X82676825Y-78235901D01*
X82551641Y-77973080D01*
X82377588Y-77739731D01*
X82161355Y-77544822D01*
X82044466Y-77475195D01*
X82226632Y-77353475D01*
X82433475Y-77146632D01*
X82595990Y-76903411D01*
X82707932Y-76633158D01*
X82765000Y-76346260D01*
X82765000Y-76053740D01*
X82707932Y-75766842D01*
X82595990Y-75496589D01*
X82433475Y-75253368D01*
X82301620Y-75121513D01*
X82374180Y-75099502D01*
X82484494Y-75040537D01*
X82581185Y-74961185D01*
X82660537Y-74864494D01*
X82719502Y-74754180D01*
X82755812Y-74634482D01*
X82768072Y-74510000D01*
X82768072Y-72810000D01*
X82755812Y-72685518D01*
X82719502Y-72565820D01*
X82660537Y-72455506D01*
X82581185Y-72358815D01*
X82484494Y-72279463D01*
X82374180Y-72220498D01*
X82254482Y-72184188D01*
X82130000Y-72171928D01*
X80430000Y-72171928D01*
X80305518Y-72184188D01*
X80185820Y-72220498D01*
X80075506Y-72279463D01*
X79978815Y-72358815D01*
X79899463Y-72455506D01*
X79840498Y-72565820D01*
X79804188Y-72685518D01*
X79791928Y-72810000D01*
X76860000Y-72810000D01*
X76860000Y-63525069D01*
X77832000Y-63525069D01*
X77832000Y-63728947D01*
X77871774Y-63928906D01*
X77949795Y-64117264D01*
X77982001Y-64165464D01*
X77982000Y-67342731D01*
X77977719Y-67386200D01*
X77982000Y-67429669D01*
X77982000Y-67429676D01*
X77988929Y-67500029D01*
X77994805Y-67559690D01*
X78003818Y-67589400D01*
X78045411Y-67726512D01*
X78127589Y-67880258D01*
X78238183Y-68015017D01*
X78271956Y-68042734D01*
X85627401Y-75398180D01*
X85627400Y-76982345D01*
X85595195Y-77030544D01*
X85517174Y-77218902D01*
X85477400Y-77418861D01*
X85477400Y-77622739D01*
X85517174Y-77822698D01*
X85595195Y-78011056D01*
X85626600Y-78058057D01*
X85626600Y-78069818D01*
X85626601Y-78069828D01*
X85626600Y-88286715D01*
X85544395Y-88409744D01*
X85466374Y-88598102D01*
X85426600Y-88798061D01*
X85426600Y-89001939D01*
X85466374Y-89201898D01*
X85544395Y-89390256D01*
X85657663Y-89559774D01*
X85801826Y-89703937D01*
X85971344Y-89817205D01*
X86159702Y-89895226D01*
X86359661Y-89935000D01*
X86563539Y-89935000D01*
X86763498Y-89895226D01*
X86951856Y-89817205D01*
X87121374Y-89703937D01*
X87265537Y-89559774D01*
X87378805Y-89390256D01*
X87456826Y-89201898D01*
X87496600Y-89001939D01*
X87496600Y-88843589D01*
X90690000Y-88843589D01*
X90690000Y-89116411D01*
X90743225Y-89383989D01*
X90847629Y-89636043D01*
X90999201Y-89862886D01*
X91192114Y-90055799D01*
X91418957Y-90207371D01*
X91671011Y-90311775D01*
X91938589Y-90365000D01*
X92211411Y-90365000D01*
X92478989Y-90311775D01*
X92731043Y-90207371D01*
X92957886Y-90055799D01*
X93150799Y-89862886D01*
X93302371Y-89636043D01*
X93406775Y-89383989D01*
X93460000Y-89116411D01*
X93460000Y-88843589D01*
X93406775Y-88576011D01*
X93302371Y-88323957D01*
X93150799Y-88097114D01*
X92957886Y-87904201D01*
X92731043Y-87752629D01*
X92478989Y-87648225D01*
X92211411Y-87595000D01*
X91938589Y-87595000D01*
X91671011Y-87648225D01*
X91418957Y-87752629D01*
X91192114Y-87904201D01*
X90999201Y-88097114D01*
X90847629Y-88323957D01*
X90743225Y-88576011D01*
X90690000Y-88843589D01*
X87496600Y-88843589D01*
X87496600Y-88798061D01*
X87456826Y-88598102D01*
X87378805Y-88409744D01*
X87296600Y-88286715D01*
X87296600Y-78200311D01*
X87316337Y-78180574D01*
X87429605Y-78011056D01*
X87507626Y-77822698D01*
X87547400Y-77622739D01*
X87547400Y-77418861D01*
X87507626Y-77218902D01*
X87429605Y-77030544D01*
X87397400Y-76982346D01*
X87397400Y-75075065D01*
X87401681Y-75031599D01*
X87397400Y-74988133D01*
X87397400Y-74988123D01*
X87384595Y-74858110D01*
X87333989Y-74691287D01*
X87251811Y-74537541D01*
X87141217Y-74402783D01*
X87107449Y-74375070D01*
X86504626Y-73772247D01*
X86534898Y-73766226D01*
X86723256Y-73688205D01*
X86892774Y-73574937D01*
X87036937Y-73430774D01*
X87150205Y-73261256D01*
X87228226Y-73072898D01*
X87268000Y-72872939D01*
X87268000Y-72669061D01*
X87228226Y-72469102D01*
X87150205Y-72280744D01*
X87068000Y-72157715D01*
X87068000Y-67833212D01*
X97290000Y-67833212D01*
X97290000Y-68056788D01*
X97333617Y-68276067D01*
X97419176Y-68482624D01*
X97484241Y-68580000D01*
X97419176Y-68677376D01*
X97333617Y-68883933D01*
X97290000Y-69103212D01*
X97290000Y-69326788D01*
X97333617Y-69546067D01*
X97419176Y-69752624D01*
X97543388Y-69938520D01*
X97701480Y-70096612D01*
X97887376Y-70220824D01*
X98093933Y-70306383D01*
X98313212Y-70350000D01*
X98433000Y-70350000D01*
X98433001Y-79827221D01*
X98427509Y-79882982D01*
X98449423Y-80105480D01*
X98514324Y-80319428D01*
X98525881Y-80341049D01*
X98619717Y-80516605D01*
X98761552Y-80689431D01*
X98804860Y-80724973D01*
X98813386Y-80733499D01*
X98813388Y-80733502D01*
X98971480Y-80891594D01*
X99018079Y-80922731D01*
X99061378Y-80958265D01*
X99110774Y-80984668D01*
X99157376Y-81015806D01*
X99209161Y-81037256D01*
X99258554Y-81063657D01*
X99312149Y-81079915D01*
X99363933Y-81101365D01*
X99418897Y-81112298D01*
X99472501Y-81128559D01*
X99528253Y-81134050D01*
X99583212Y-81144982D01*
X99639248Y-81144982D01*
X99694999Y-81150473D01*
X99750751Y-81144982D01*
X99806788Y-81144982D01*
X99861748Y-81134050D01*
X99917498Y-81128559D01*
X99971101Y-81112298D01*
X100026067Y-81101365D01*
X100077851Y-81079915D01*
X100131446Y-81063657D01*
X100180839Y-81037256D01*
X100232624Y-81015806D01*
X100279226Y-80984668D01*
X100328622Y-80958265D01*
X100371920Y-80922731D01*
X100418520Y-80891594D01*
X100458151Y-80851963D01*
X100461000Y-80849625D01*
X100461000Y-84910529D01*
X100456719Y-84953998D01*
X100461000Y-84997467D01*
X100461000Y-84997474D01*
X100473805Y-85127487D01*
X100524411Y-85294310D01*
X100606589Y-85448056D01*
X100649002Y-85499736D01*
X100649001Y-90038288D01*
X100542063Y-90145226D01*
X100428795Y-90314744D01*
X100350774Y-90503102D01*
X100311000Y-90703061D01*
X100311000Y-90906939D01*
X100350774Y-91106898D01*
X100428795Y-91295256D01*
X100542063Y-91464774D01*
X100686226Y-91608937D01*
X100855744Y-91722205D01*
X101044102Y-91800226D01*
X101244061Y-91840000D01*
X101425400Y-91840000D01*
X101425400Y-93265115D01*
X101343195Y-93388144D01*
X101265174Y-93576502D01*
X101225400Y-93776461D01*
X101225400Y-93980339D01*
X101265174Y-94180298D01*
X101343195Y-94368656D01*
X101456463Y-94538174D01*
X101600626Y-94682337D01*
X101770144Y-94795605D01*
X101958502Y-94873626D01*
X102158461Y-94913400D01*
X102362339Y-94913400D01*
X102562298Y-94873626D01*
X102750656Y-94795605D01*
X102920174Y-94682337D01*
X103064337Y-94538174D01*
X103177605Y-94368656D01*
X103255626Y-94180298D01*
X103291688Y-93999000D01*
X103378339Y-93999000D01*
X103578298Y-93959226D01*
X103766656Y-93881205D01*
X103936174Y-93767937D01*
X104080337Y-93623774D01*
X104193605Y-93454256D01*
X104271626Y-93265898D01*
X104311400Y-93065939D01*
X104311400Y-92862061D01*
X104271626Y-92662102D01*
X104193605Y-92473744D01*
X104111400Y-92350715D01*
X104111400Y-83939630D01*
X104193466Y-83857564D01*
X104306734Y-83688046D01*
X104384755Y-83499688D01*
X104424529Y-83299729D01*
X104424529Y-83095851D01*
X104384755Y-82895892D01*
X104306734Y-82707534D01*
X104193466Y-82538016D01*
X104049303Y-82393853D01*
X103879785Y-82280585D01*
X103691427Y-82202564D01*
X103491468Y-82162790D01*
X103287590Y-82162790D01*
X103095400Y-82201019D01*
X103095400Y-77470477D01*
X103157081Y-77408796D01*
X103270349Y-77239278D01*
X103348370Y-77050920D01*
X103388144Y-76850961D01*
X103388144Y-76647083D01*
X103348370Y-76447124D01*
X103270349Y-76258766D01*
X103157081Y-76089248D01*
X103012918Y-75945085D01*
X102843400Y-75831817D01*
X102655042Y-75753796D01*
X102455083Y-75714022D01*
X102251205Y-75714022D01*
X102231000Y-75718041D01*
X102231000Y-74937455D01*
X102263205Y-74889257D01*
X102341226Y-74700899D01*
X102381000Y-74500940D01*
X102381000Y-74297062D01*
X102341226Y-74097103D01*
X102263205Y-73908745D01*
X102149937Y-73739227D01*
X102005774Y-73595064D01*
X101836256Y-73481796D01*
X101647898Y-73403775D01*
X101447939Y-73364001D01*
X101244061Y-73364001D01*
X101044102Y-73403775D01*
X100855744Y-73481796D01*
X100703000Y-73583856D01*
X100703000Y-70558131D01*
X106561000Y-76416132D01*
X106561001Y-85994207D01*
X106561000Y-85994212D01*
X106561000Y-86217788D01*
X106561001Y-86217793D01*
X106561000Y-95956248D01*
X106555509Y-96012000D01*
X106561000Y-96067751D01*
X106577423Y-96234498D01*
X106642324Y-96448446D01*
X106747716Y-96645623D01*
X106889551Y-96818449D01*
X106932865Y-96853996D01*
X110875001Y-100796133D01*
X110875000Y-107735375D01*
X110785518Y-107744188D01*
X110665820Y-107780498D01*
X110555506Y-107839463D01*
X110458815Y-107918815D01*
X110379463Y-108015506D01*
X110320498Y-108125820D01*
X110284188Y-108245518D01*
X110271928Y-108370000D01*
X110271928Y-110070000D01*
X110284188Y-110194482D01*
X110320498Y-110314180D01*
X110379463Y-110424494D01*
X110458815Y-110521185D01*
X110555506Y-110600537D01*
X110665820Y-110659502D01*
X110785518Y-110695812D01*
X110910000Y-110708072D01*
X112610000Y-110708072D01*
X112734482Y-110695812D01*
X112854180Y-110659502D01*
X112964494Y-110600537D01*
X113061185Y-110521185D01*
X113140537Y-110424494D01*
X113199502Y-110314180D01*
X113221513Y-110241620D01*
X113353368Y-110373475D01*
X113596589Y-110535990D01*
X113866842Y-110647932D01*
X114153740Y-110705000D01*
X114446260Y-110705000D01*
X114733158Y-110647932D01*
X115003411Y-110535990D01*
X115246632Y-110373475D01*
X115453475Y-110166632D01*
X115575195Y-109984466D01*
X115644822Y-110101355D01*
X115839731Y-110317588D01*
X116073080Y-110491641D01*
X116335901Y-110616825D01*
X116483110Y-110661476D01*
X116713000Y-110540155D01*
X116713000Y-109347000D01*
X116693000Y-109347000D01*
X116693000Y-109093000D01*
X116713000Y-109093000D01*
X116713000Y-107899845D01*
X116967000Y-107899845D01*
X116967000Y-109093000D01*
X116987000Y-109093000D01*
X116987000Y-109347000D01*
X116967000Y-109347000D01*
X116967000Y-110540155D01*
X117196890Y-110661476D01*
X117344099Y-110616825D01*
X117606920Y-110491641D01*
X117840269Y-110317588D01*
X118035178Y-110101355D01*
X118104805Y-109984466D01*
X118226525Y-110166632D01*
X118433368Y-110373475D01*
X118676589Y-110535990D01*
X118946842Y-110647932D01*
X119233740Y-110705000D01*
X119526260Y-110705000D01*
X119813158Y-110647932D01*
X120083411Y-110535990D01*
X120326632Y-110373475D01*
X120533475Y-110166632D01*
X120695990Y-109923411D01*
X120807932Y-109653158D01*
X120865000Y-109366260D01*
X120865000Y-109073740D01*
X120807932Y-108786842D01*
X120695990Y-108516589D01*
X120598043Y-108370000D01*
X140751928Y-108370000D01*
X140751928Y-110070000D01*
X140764188Y-110194482D01*
X140800498Y-110314180D01*
X140859463Y-110424494D01*
X140938815Y-110521185D01*
X141035506Y-110600537D01*
X141145820Y-110659502D01*
X141265518Y-110695812D01*
X141390000Y-110708072D01*
X143090000Y-110708072D01*
X143214482Y-110695812D01*
X143334180Y-110659502D01*
X143444494Y-110600537D01*
X143541185Y-110521185D01*
X143620537Y-110424494D01*
X143679502Y-110314180D01*
X143703966Y-110233534D01*
X143779731Y-110317588D01*
X144013080Y-110491641D01*
X144275901Y-110616825D01*
X144423110Y-110661476D01*
X144653000Y-110540155D01*
X144653000Y-109347000D01*
X144907000Y-109347000D01*
X144907000Y-110540155D01*
X145136890Y-110661476D01*
X145284099Y-110616825D01*
X145546920Y-110491641D01*
X145780269Y-110317588D01*
X145975178Y-110101355D01*
X146124157Y-109851252D01*
X146221481Y-109576891D01*
X146118598Y-109380881D01*
X149878724Y-109380881D01*
X150238912Y-109870548D01*
X150902882Y-110230849D01*
X151624385Y-110454694D01*
X152375695Y-110533480D01*
X153127938Y-110464178D01*
X153852208Y-110249452D01*
X154520670Y-109897555D01*
X154561088Y-109870548D01*
X154921276Y-109380881D01*
X152400000Y-106859605D01*
X149878724Y-109380881D01*
X146118598Y-109380881D01*
X146100814Y-109347000D01*
X144907000Y-109347000D01*
X144653000Y-109347000D01*
X144633000Y-109347000D01*
X144633000Y-109093000D01*
X144653000Y-109093000D01*
X144653000Y-107899845D01*
X144907000Y-107899845D01*
X144907000Y-109093000D01*
X146100814Y-109093000D01*
X146221481Y-108863109D01*
X146124157Y-108588748D01*
X145975178Y-108338645D01*
X145780269Y-108122412D01*
X145546920Y-107948359D01*
X145284099Y-107823175D01*
X145136890Y-107778524D01*
X144907000Y-107899845D01*
X144653000Y-107899845D01*
X144423110Y-107778524D01*
X144275901Y-107823175D01*
X144013080Y-107948359D01*
X143779731Y-108122412D01*
X143703966Y-108206466D01*
X143679502Y-108125820D01*
X143620537Y-108015506D01*
X143541185Y-107918815D01*
X143444494Y-107839463D01*
X143334180Y-107780498D01*
X143214482Y-107744188D01*
X143090000Y-107731928D01*
X141390000Y-107731928D01*
X141265518Y-107744188D01*
X141145820Y-107780498D01*
X141035506Y-107839463D01*
X140938815Y-107918815D01*
X140859463Y-108015506D01*
X140800498Y-108125820D01*
X140764188Y-108245518D01*
X140751928Y-108370000D01*
X120598043Y-108370000D01*
X120533475Y-108273368D01*
X120326632Y-108066525D01*
X120083411Y-107904010D01*
X119813158Y-107792068D01*
X119526260Y-107735000D01*
X119233740Y-107735000D01*
X118946842Y-107792068D01*
X118676589Y-107904010D01*
X118433368Y-108066525D01*
X118226525Y-108273368D01*
X118104805Y-108455534D01*
X118035178Y-108338645D01*
X117840269Y-108122412D01*
X117606920Y-107948359D01*
X117344099Y-107823175D01*
X117196890Y-107778524D01*
X116967000Y-107899845D01*
X116713000Y-107899845D01*
X116483110Y-107778524D01*
X116335901Y-107823175D01*
X116073080Y-107948359D01*
X115839731Y-108122412D01*
X115644822Y-108338645D01*
X115575195Y-108455534D01*
X115453475Y-108273368D01*
X115246632Y-108066525D01*
X115003411Y-107904010D01*
X114733158Y-107792068D01*
X114446260Y-107735000D01*
X114153740Y-107735000D01*
X113866842Y-107792068D01*
X113596589Y-107904010D01*
X113353368Y-108066525D01*
X113221513Y-108198380D01*
X113199502Y-108125820D01*
X113140537Y-108015506D01*
X113061185Y-107918815D01*
X112964494Y-107839463D01*
X112854180Y-107780498D01*
X112734482Y-107744188D01*
X112645000Y-107735375D01*
X112645000Y-106655695D01*
X148546520Y-106655695D01*
X148615822Y-107407938D01*
X148830548Y-108132208D01*
X149182445Y-108800670D01*
X149209452Y-108841088D01*
X149699119Y-109201276D01*
X152220395Y-106680000D01*
X152579605Y-106680000D01*
X155100881Y-109201276D01*
X155590548Y-108841088D01*
X155950849Y-108177118D01*
X156174694Y-107455615D01*
X156253480Y-106704305D01*
X156184178Y-105952062D01*
X155969452Y-105227792D01*
X155617555Y-104559330D01*
X155590548Y-104518912D01*
X155100881Y-104158724D01*
X152579605Y-106680000D01*
X152220395Y-106680000D01*
X149699119Y-104158724D01*
X149209452Y-104518912D01*
X148849151Y-105182882D01*
X148625306Y-105904385D01*
X148546520Y-106655695D01*
X112645000Y-106655695D01*
X112645000Y-103979119D01*
X149878724Y-103979119D01*
X152400000Y-106500395D01*
X154921276Y-103979119D01*
X154561088Y-103489452D01*
X153897118Y-103129151D01*
X153175615Y-102905306D01*
X152424305Y-102826520D01*
X151672062Y-102895822D01*
X150947792Y-103110548D01*
X150279330Y-103462445D01*
X150238912Y-103489452D01*
X149878724Y-103979119D01*
X112645000Y-103979119D01*
X112645000Y-101211000D01*
X120253788Y-101211000D01*
X120308747Y-101200068D01*
X120364499Y-101194577D01*
X120418106Y-101178315D01*
X120473067Y-101167383D01*
X120524842Y-101145937D01*
X120578447Y-101129676D01*
X120627851Y-101103269D01*
X120679624Y-101081824D01*
X120726214Y-101050693D01*
X120775623Y-101024284D01*
X120818932Y-100988741D01*
X120865520Y-100957612D01*
X120905141Y-100917991D01*
X120948449Y-100882449D01*
X120983991Y-100839141D01*
X121023612Y-100799520D01*
X121054741Y-100752932D01*
X121090284Y-100709623D01*
X121116693Y-100660214D01*
X121147824Y-100613624D01*
X121169269Y-100561851D01*
X121195676Y-100512447D01*
X121211937Y-100458842D01*
X121233383Y-100407067D01*
X121244315Y-100352106D01*
X121260577Y-100298499D01*
X121266068Y-100242747D01*
X121277000Y-100187788D01*
X121277000Y-100131752D01*
X121282491Y-100076000D01*
X121277000Y-100020248D01*
X121277000Y-99964212D01*
X121266068Y-99909253D01*
X121260577Y-99853501D01*
X121244315Y-99799894D01*
X121233383Y-99744933D01*
X121211937Y-99693158D01*
X121195676Y-99639553D01*
X121169269Y-99590149D01*
X121147824Y-99538376D01*
X121116693Y-99491786D01*
X121090284Y-99442377D01*
X121054741Y-99399068D01*
X121023612Y-99352480D01*
X120983991Y-99312859D01*
X120948449Y-99269551D01*
X120905141Y-99234009D01*
X120865520Y-99194388D01*
X120818932Y-99163259D01*
X120775623Y-99127716D01*
X120726214Y-99101307D01*
X120679624Y-99070176D01*
X120627851Y-99048731D01*
X120578447Y-99022324D01*
X120524842Y-99006063D01*
X120473067Y-98984617D01*
X120418106Y-98973685D01*
X120364499Y-98957423D01*
X120308747Y-98951932D01*
X120253788Y-98941000D01*
X112230132Y-98941000D01*
X108831000Y-95541869D01*
X108831000Y-95435310D01*
X109016461Y-95472200D01*
X109220339Y-95472200D01*
X109420298Y-95432426D01*
X109608656Y-95354405D01*
X109778174Y-95241137D01*
X109922337Y-95096974D01*
X110035605Y-94927456D01*
X110113626Y-94739098D01*
X110153400Y-94539139D01*
X110153400Y-94335261D01*
X110113626Y-94135302D01*
X110035605Y-93946944D01*
X109953400Y-93823915D01*
X109953400Y-69165715D01*
X110082974Y-69079137D01*
X110227137Y-68934974D01*
X110340405Y-68765456D01*
X110418426Y-68577098D01*
X110458200Y-68377139D01*
X110458200Y-68173261D01*
X110418426Y-67973302D01*
X110340405Y-67784944D01*
X110227137Y-67615426D01*
X110082974Y-67471263D01*
X109913456Y-67357995D01*
X109725098Y-67279974D01*
X109525139Y-67240200D01*
X109321261Y-67240200D01*
X109121302Y-67279974D01*
X108932944Y-67357995D01*
X108763426Y-67471263D01*
X108619263Y-67615426D01*
X108505995Y-67784944D01*
X108427974Y-67973302D01*
X108388200Y-68173261D01*
X108388200Y-68174778D01*
X108343228Y-68258914D01*
X108295482Y-68416312D01*
X108279360Y-68580000D01*
X108283401Y-68621029D01*
X108283401Y-74928269D01*
X101917524Y-68562393D01*
X101970824Y-68482624D01*
X102056383Y-68276067D01*
X102100000Y-68056788D01*
X102100000Y-67833212D01*
X102056383Y-67613933D01*
X101970824Y-67407376D01*
X101846612Y-67221480D01*
X101688520Y-67063388D01*
X101503858Y-66940000D01*
X112801928Y-66940000D01*
X112814188Y-67064482D01*
X112850498Y-67184180D01*
X112909463Y-67294494D01*
X112988815Y-67391185D01*
X113085506Y-67470537D01*
X113195820Y-67529502D01*
X113315518Y-67565812D01*
X113440000Y-67578072D01*
X114054250Y-67575000D01*
X114213000Y-67416250D01*
X114213000Y-66167000D01*
X112963750Y-66167000D01*
X112805000Y-66325750D01*
X112801928Y-66940000D01*
X101503858Y-66940000D01*
X101502624Y-66939176D01*
X101296067Y-66853617D01*
X101076788Y-66810000D01*
X100853212Y-66810000D01*
X100633933Y-66853617D01*
X100562907Y-66883037D01*
X100449612Y-66713480D01*
X100291520Y-66555388D01*
X100105624Y-66431176D01*
X99899067Y-66345617D01*
X99679788Y-66302000D01*
X99456212Y-66302000D01*
X99236933Y-66345617D01*
X99030376Y-66431176D01*
X98844480Y-66555388D01*
X98686388Y-66713480D01*
X98611911Y-66824943D01*
X98536788Y-66810000D01*
X98313212Y-66810000D01*
X98093933Y-66853617D01*
X97887376Y-66939176D01*
X97701480Y-67063388D01*
X97543388Y-67221480D01*
X97419176Y-67407376D01*
X97333617Y-67613933D01*
X97290000Y-67833212D01*
X87068000Y-67833212D01*
X87068000Y-67408208D01*
X87087095Y-67400299D01*
X87338505Y-67232312D01*
X87552312Y-67018505D01*
X87610000Y-66932169D01*
X87667688Y-67018505D01*
X87881495Y-67232312D01*
X88132905Y-67400299D01*
X88412257Y-67516011D01*
X88708816Y-67575000D01*
X89011184Y-67575000D01*
X89307743Y-67516011D01*
X89587095Y-67400299D01*
X89838505Y-67232312D01*
X90052312Y-67018505D01*
X90220299Y-66767095D01*
X90336011Y-66487743D01*
X90395000Y-66191184D01*
X90395000Y-65888816D01*
X90336011Y-65592257D01*
X90220299Y-65312905D01*
X90104768Y-65140000D01*
X112801928Y-65140000D01*
X112805000Y-65754250D01*
X112963750Y-65913000D01*
X114213000Y-65913000D01*
X114213000Y-64663750D01*
X114467000Y-64663750D01*
X114467000Y-65913000D01*
X114487000Y-65913000D01*
X114487000Y-66167000D01*
X114467000Y-66167000D01*
X114467000Y-67416250D01*
X114625750Y-67575000D01*
X115240000Y-67578072D01*
X115364482Y-67565812D01*
X115484180Y-67529502D01*
X115594494Y-67470537D01*
X115691185Y-67391185D01*
X115770537Y-67294494D01*
X115823880Y-67194697D01*
X115861495Y-67232312D01*
X116005000Y-67328199D01*
X116005001Y-88210342D01*
X115973595Y-88257344D01*
X115895574Y-88445702D01*
X115855800Y-88645661D01*
X115855800Y-88849539D01*
X115895574Y-89049498D01*
X115973595Y-89237856D01*
X116086863Y-89407374D01*
X116231026Y-89551537D01*
X116400544Y-89664805D01*
X116588902Y-89742826D01*
X116788861Y-89782600D01*
X116992739Y-89782600D01*
X117192698Y-89742826D01*
X117381056Y-89664805D01*
X117550574Y-89551537D01*
X117694737Y-89407374D01*
X117808005Y-89237856D01*
X117886026Y-89049498D01*
X117925800Y-88849539D01*
X117925800Y-88645661D01*
X117886026Y-88445702D01*
X117808005Y-88257344D01*
X117694737Y-88087826D01*
X117675000Y-88068089D01*
X117675000Y-75031261D01*
X119970600Y-75031261D01*
X119970600Y-75235139D01*
X120010374Y-75435098D01*
X120088395Y-75623456D01*
X120201663Y-75792974D01*
X120345826Y-75937137D01*
X120515344Y-76050405D01*
X120703702Y-76128426D01*
X120848825Y-76157293D01*
X121847000Y-77155469D01*
X121847001Y-81109714D01*
X121764795Y-81232744D01*
X121686774Y-81421102D01*
X121647000Y-81621061D01*
X121647000Y-81824939D01*
X121686774Y-82024898D01*
X121764795Y-82213256D01*
X121878063Y-82382774D01*
X122022226Y-82526937D01*
X122191744Y-82640205D01*
X122380102Y-82718226D01*
X122525225Y-82747093D01*
X128832001Y-89053870D01*
X128832000Y-95144715D01*
X128749795Y-95267744D01*
X128671774Y-95456102D01*
X128632000Y-95656061D01*
X128632000Y-95859939D01*
X128671774Y-96059898D01*
X128749795Y-96248256D01*
X128863063Y-96417774D01*
X129007226Y-96561937D01*
X129176744Y-96675205D01*
X129365102Y-96753226D01*
X129565061Y-96793000D01*
X129768939Y-96793000D01*
X129968898Y-96753226D01*
X130157256Y-96675205D01*
X130326774Y-96561937D01*
X130470937Y-96417774D01*
X130584205Y-96248256D01*
X130662226Y-96059898D01*
X130702000Y-95859939D01*
X130702000Y-95656061D01*
X130662226Y-95456102D01*
X130584205Y-95267744D01*
X130502000Y-95144715D01*
X130502000Y-88749018D01*
X130506040Y-88708000D01*
X130493040Y-88576011D01*
X130489918Y-88544311D01*
X130442172Y-88386913D01*
X130364636Y-88241854D01*
X130260291Y-88114709D01*
X130228432Y-88088563D01*
X123706093Y-81566225D01*
X123677226Y-81421102D01*
X123599205Y-81232744D01*
X123517000Y-81109715D01*
X123517000Y-76850618D01*
X123521040Y-76809600D01*
X123504918Y-76645912D01*
X123492082Y-76603595D01*
X123457172Y-76488513D01*
X123379636Y-76343454D01*
X123329922Y-76282877D01*
X123301439Y-76248170D01*
X123301437Y-76248168D01*
X123275291Y-76216309D01*
X123243433Y-76190164D01*
X122029693Y-74976425D01*
X122000826Y-74831302D01*
X121922805Y-74642944D01*
X121809537Y-74473426D01*
X121665374Y-74329263D01*
X121495856Y-74215995D01*
X121307498Y-74137974D01*
X121107539Y-74098200D01*
X120903661Y-74098200D01*
X120703702Y-74137974D01*
X120515344Y-74215995D01*
X120345826Y-74329263D01*
X120201663Y-74473426D01*
X120088395Y-74642944D01*
X120010374Y-74831302D01*
X119970600Y-75031261D01*
X117675000Y-75031261D01*
X117675000Y-67328199D01*
X117818505Y-67232312D01*
X118032312Y-67018505D01*
X118090000Y-66932169D01*
X118147688Y-67018505D01*
X118361495Y-67232312D01*
X118612905Y-67400299D01*
X118892257Y-67516011D01*
X119188816Y-67575000D01*
X119491184Y-67575000D01*
X119787743Y-67516011D01*
X119856668Y-67487461D01*
X129317800Y-67487461D01*
X129317800Y-67691339D01*
X129357574Y-67891298D01*
X129435595Y-68079656D01*
X129548863Y-68249174D01*
X129693026Y-68393337D01*
X129721001Y-68412029D01*
X129721000Y-76043915D01*
X129638795Y-76166944D01*
X129560774Y-76355302D01*
X129521000Y-76555261D01*
X129521000Y-76759139D01*
X129560774Y-76959098D01*
X129638795Y-77147456D01*
X129752063Y-77316974D01*
X129896226Y-77461137D01*
X130065744Y-77574405D01*
X130254102Y-77652426D01*
X130454061Y-77692200D01*
X130657939Y-77692200D01*
X130857898Y-77652426D01*
X130991001Y-77597293D01*
X130991001Y-79994006D01*
X130983174Y-80012902D01*
X130943400Y-80212861D01*
X130943400Y-80416739D01*
X130983174Y-80616698D01*
X131061195Y-80805056D01*
X131174463Y-80974574D01*
X131318626Y-81118737D01*
X131488144Y-81232005D01*
X131676502Y-81310026D01*
X131876461Y-81349800D01*
X131957000Y-81349800D01*
X131957001Y-101449166D01*
X131924795Y-101497366D01*
X131846774Y-101685724D01*
X131807000Y-101885683D01*
X131807000Y-102089561D01*
X131846774Y-102289520D01*
X131924795Y-102477878D01*
X132038063Y-102647396D01*
X132182226Y-102791559D01*
X132351744Y-102904827D01*
X132540102Y-102982848D01*
X132740061Y-103022622D01*
X132943939Y-103022622D01*
X133143898Y-102982848D01*
X133332256Y-102904827D01*
X133501774Y-102791559D01*
X133645937Y-102647396D01*
X133759205Y-102477878D01*
X133837226Y-102289520D01*
X133877000Y-102089561D01*
X133877000Y-101885683D01*
X133837226Y-101685724D01*
X133759205Y-101497366D01*
X133727000Y-101449168D01*
X133727000Y-76117400D01*
X133793949Y-76117400D01*
X133993908Y-76077626D01*
X134182266Y-75999605D01*
X134351784Y-75886337D01*
X134495947Y-75742174D01*
X134609215Y-75572656D01*
X134687236Y-75384298D01*
X134727010Y-75184339D01*
X134727010Y-74980461D01*
X134687236Y-74780502D01*
X134609215Y-74592144D01*
X134527010Y-74469115D01*
X134527010Y-66754885D01*
X134609215Y-66631856D01*
X134687236Y-66443498D01*
X134727010Y-66243539D01*
X134727010Y-66039661D01*
X134687236Y-65839702D01*
X134609215Y-65651344D01*
X134495947Y-65481826D01*
X134351784Y-65337663D01*
X134182266Y-65224395D01*
X133993908Y-65146374D01*
X133793949Y-65106600D01*
X133727000Y-65106600D01*
X133727000Y-64789022D01*
X133882774Y-64684937D01*
X134026937Y-64540774D01*
X134140205Y-64371256D01*
X134218226Y-64182898D01*
X134258000Y-63982939D01*
X134258000Y-63779073D01*
X134982000Y-63779073D01*
X134982000Y-63982951D01*
X135021774Y-64182910D01*
X135099795Y-64371268D01*
X135213063Y-64540786D01*
X135357226Y-64684949D01*
X135526744Y-64798217D01*
X135715102Y-64876238D01*
X135771957Y-64887547D01*
X136021000Y-65136591D01*
X136021001Y-100575555D01*
X135988795Y-100623755D01*
X135910774Y-100812113D01*
X135871000Y-101012072D01*
X135871000Y-101215950D01*
X135910774Y-101415909D01*
X135988795Y-101604267D01*
X136102063Y-101773785D01*
X136246226Y-101917948D01*
X136415744Y-102031216D01*
X136604102Y-102109237D01*
X136804061Y-102149011D01*
X137007939Y-102149011D01*
X137207898Y-102109237D01*
X137396256Y-102031216D01*
X137565774Y-101917948D01*
X137709937Y-101773785D01*
X137823205Y-101604267D01*
X137901226Y-101415909D01*
X137941000Y-101215950D01*
X137941000Y-101012072D01*
X137901226Y-100812113D01*
X137823205Y-100623755D01*
X137791000Y-100575557D01*
X137791000Y-89306069D01*
X137903000Y-89306069D01*
X137903000Y-89509947D01*
X137942774Y-89709906D01*
X138020795Y-89898264D01*
X138103000Y-90021293D01*
X138103001Y-96541714D01*
X138020795Y-96664744D01*
X137942774Y-96853102D01*
X137903000Y-97053061D01*
X137903000Y-97256939D01*
X137942774Y-97456898D01*
X138020795Y-97645256D01*
X138134063Y-97814774D01*
X138278226Y-97958937D01*
X138447744Y-98072205D01*
X138636102Y-98150226D01*
X138836061Y-98190000D01*
X139039939Y-98190000D01*
X139239898Y-98150226D01*
X139428256Y-98072205D01*
X139597774Y-97958937D01*
X139741937Y-97814774D01*
X139855205Y-97645256D01*
X139933226Y-97456898D01*
X139973000Y-97256939D01*
X139973000Y-97053061D01*
X139933226Y-96853102D01*
X139855205Y-96664744D01*
X139773000Y-96541715D01*
X139773000Y-90021293D01*
X139855205Y-89898264D01*
X139933226Y-89709906D01*
X139973000Y-89509947D01*
X139973000Y-89306069D01*
X139933226Y-89106110D01*
X139855205Y-88917752D01*
X139741937Y-88748234D01*
X139597774Y-88604071D01*
X139428256Y-88490803D01*
X139239898Y-88412782D01*
X139039939Y-88373008D01*
X138836061Y-88373008D01*
X138636102Y-88412782D01*
X138447744Y-88490803D01*
X138278226Y-88604071D01*
X138134063Y-88748234D01*
X138020795Y-88917752D01*
X137942774Y-89106110D01*
X137903000Y-89306069D01*
X137791000Y-89306069D01*
X137791000Y-86716890D01*
X150958524Y-86716890D01*
X151003175Y-86864099D01*
X151128359Y-87126920D01*
X151302412Y-87360269D01*
X151518645Y-87555178D01*
X151768748Y-87704157D01*
X152043109Y-87801481D01*
X152273000Y-87680814D01*
X152273000Y-86487000D01*
X152527000Y-86487000D01*
X152527000Y-87680814D01*
X152756891Y-87801481D01*
X153031252Y-87704157D01*
X153281355Y-87555178D01*
X153497588Y-87360269D01*
X153671641Y-87126920D01*
X153796825Y-86864099D01*
X153841476Y-86716890D01*
X153720155Y-86487000D01*
X152527000Y-86487000D01*
X152273000Y-86487000D01*
X151079845Y-86487000D01*
X150958524Y-86716890D01*
X137791000Y-86716890D01*
X137791000Y-83020000D01*
X143635928Y-83020000D01*
X143635928Y-84620000D01*
X143648188Y-84744482D01*
X143684498Y-84864180D01*
X143743463Y-84974494D01*
X143822815Y-85071185D01*
X143919506Y-85150537D01*
X144029820Y-85209502D01*
X144149518Y-85245812D01*
X144274000Y-85258072D01*
X145874000Y-85258072D01*
X145998482Y-85245812D01*
X146118180Y-85209502D01*
X146228494Y-85150537D01*
X146325185Y-85071185D01*
X146404537Y-84974494D01*
X146463502Y-84864180D01*
X146492661Y-84768057D01*
X146659241Y-84934637D01*
X146894273Y-85091680D01*
X147155426Y-85199853D01*
X147432665Y-85255000D01*
X147715335Y-85255000D01*
X147992574Y-85199853D01*
X148253727Y-85091680D01*
X148488759Y-84934637D01*
X148688637Y-84734759D01*
X148845680Y-84499727D01*
X148953853Y-84238574D01*
X149009000Y-83961335D01*
X149009000Y-83678665D01*
X148953853Y-83401426D01*
X148845680Y-83140273D01*
X148731908Y-82970000D01*
X150911928Y-82970000D01*
X150911928Y-84670000D01*
X150924188Y-84794482D01*
X150960498Y-84914180D01*
X151019463Y-85024494D01*
X151098815Y-85121185D01*
X151195506Y-85200537D01*
X151305820Y-85259502D01*
X151386466Y-85283966D01*
X151302412Y-85359731D01*
X151128359Y-85593080D01*
X151003175Y-85855901D01*
X150958524Y-86003110D01*
X151079845Y-86233000D01*
X152273000Y-86233000D01*
X152273000Y-86213000D01*
X152527000Y-86213000D01*
X152527000Y-86233000D01*
X153720155Y-86233000D01*
X153841476Y-86003110D01*
X153796825Y-85855901D01*
X153671641Y-85593080D01*
X153497588Y-85359731D01*
X153413534Y-85283966D01*
X153494180Y-85259502D01*
X153604494Y-85200537D01*
X153701185Y-85121185D01*
X153780537Y-85024494D01*
X153839502Y-84914180D01*
X153875812Y-84794482D01*
X153888072Y-84670000D01*
X153888072Y-82970000D01*
X153875812Y-82845518D01*
X153839502Y-82725820D01*
X153780537Y-82615506D01*
X153701185Y-82518815D01*
X153604494Y-82439463D01*
X153494180Y-82380498D01*
X153374482Y-82344188D01*
X153250000Y-82331928D01*
X151550000Y-82331928D01*
X151425518Y-82344188D01*
X151305820Y-82380498D01*
X151195506Y-82439463D01*
X151098815Y-82518815D01*
X151019463Y-82615506D01*
X150960498Y-82725820D01*
X150924188Y-82845518D01*
X150911928Y-82970000D01*
X148731908Y-82970000D01*
X148688637Y-82905241D01*
X148488759Y-82705363D01*
X148253727Y-82548320D01*
X147992574Y-82440147D01*
X147715335Y-82385000D01*
X147432665Y-82385000D01*
X147155426Y-82440147D01*
X146894273Y-82548320D01*
X146659241Y-82705363D01*
X146492661Y-82871943D01*
X146463502Y-82775820D01*
X146404537Y-82665506D01*
X146325185Y-82568815D01*
X146228494Y-82489463D01*
X146118180Y-82430498D01*
X145998482Y-82394188D01*
X145874000Y-82381928D01*
X144274000Y-82381928D01*
X144149518Y-82394188D01*
X144029820Y-82430498D01*
X143919506Y-82489463D01*
X143822815Y-82568815D01*
X143743463Y-82665506D01*
X143684498Y-82775820D01*
X143648188Y-82895518D01*
X143635928Y-83020000D01*
X137791000Y-83020000D01*
X137791000Y-76556890D01*
X150958524Y-76556890D01*
X151003175Y-76704099D01*
X151128359Y-76966920D01*
X151302412Y-77200269D01*
X151518645Y-77395178D01*
X151768748Y-77544157D01*
X152043109Y-77641481D01*
X152273000Y-77520814D01*
X152273000Y-76327000D01*
X152527000Y-76327000D01*
X152527000Y-77520814D01*
X152756891Y-77641481D01*
X153031252Y-77544157D01*
X153281355Y-77395178D01*
X153497588Y-77200269D01*
X153671641Y-76966920D01*
X153796825Y-76704099D01*
X153841476Y-76556890D01*
X153720155Y-76327000D01*
X152527000Y-76327000D01*
X152273000Y-76327000D01*
X151079845Y-76327000D01*
X150958524Y-76556890D01*
X137791000Y-76556890D01*
X137791000Y-73518665D01*
X140885000Y-73518665D01*
X140885000Y-73801335D01*
X140940147Y-74078574D01*
X141048320Y-74339727D01*
X141205363Y-74574759D01*
X141405241Y-74774637D01*
X141640273Y-74931680D01*
X141901426Y-75039853D01*
X142178665Y-75095000D01*
X142461335Y-75095000D01*
X142738574Y-75039853D01*
X142999727Y-74931680D01*
X143234759Y-74774637D01*
X143434637Y-74574759D01*
X143591680Y-74339727D01*
X143699853Y-74078574D01*
X143755000Y-73801335D01*
X143755000Y-73518665D01*
X145885000Y-73518665D01*
X145885000Y-73801335D01*
X145940147Y-74078574D01*
X146048320Y-74339727D01*
X146205363Y-74574759D01*
X146405241Y-74774637D01*
X146640273Y-74931680D01*
X146901426Y-75039853D01*
X147178665Y-75095000D01*
X147461335Y-75095000D01*
X147738574Y-75039853D01*
X147999727Y-74931680D01*
X148234759Y-74774637D01*
X148434637Y-74574759D01*
X148591680Y-74339727D01*
X148699853Y-74078574D01*
X148755000Y-73801335D01*
X148755000Y-73518665D01*
X148699853Y-73241426D01*
X148591680Y-72980273D01*
X148477908Y-72810000D01*
X150911928Y-72810000D01*
X150911928Y-74510000D01*
X150924188Y-74634482D01*
X150960498Y-74754180D01*
X151019463Y-74864494D01*
X151098815Y-74961185D01*
X151195506Y-75040537D01*
X151305820Y-75099502D01*
X151386466Y-75123966D01*
X151302412Y-75199731D01*
X151128359Y-75433080D01*
X151003175Y-75695901D01*
X150958524Y-75843110D01*
X151079845Y-76073000D01*
X152273000Y-76073000D01*
X152273000Y-76053000D01*
X152527000Y-76053000D01*
X152527000Y-76073000D01*
X153720155Y-76073000D01*
X153841476Y-75843110D01*
X153796825Y-75695901D01*
X153671641Y-75433080D01*
X153497588Y-75199731D01*
X153413534Y-75123966D01*
X153494180Y-75099502D01*
X153604494Y-75040537D01*
X153701185Y-74961185D01*
X153780537Y-74864494D01*
X153839502Y-74754180D01*
X153875812Y-74634482D01*
X153888072Y-74510000D01*
X153888072Y-72810000D01*
X153875812Y-72685518D01*
X153839502Y-72565820D01*
X153780537Y-72455506D01*
X153701185Y-72358815D01*
X153604494Y-72279463D01*
X153494180Y-72220498D01*
X153374482Y-72184188D01*
X153250000Y-72171928D01*
X151550000Y-72171928D01*
X151425518Y-72184188D01*
X151305820Y-72220498D01*
X151195506Y-72279463D01*
X151098815Y-72358815D01*
X151019463Y-72455506D01*
X150960498Y-72565820D01*
X150924188Y-72685518D01*
X150911928Y-72810000D01*
X148477908Y-72810000D01*
X148434637Y-72745241D01*
X148234759Y-72545363D01*
X147999727Y-72388320D01*
X147738574Y-72280147D01*
X147461335Y-72225000D01*
X147178665Y-72225000D01*
X146901426Y-72280147D01*
X146640273Y-72388320D01*
X146405241Y-72545363D01*
X146205363Y-72745241D01*
X146048320Y-72980273D01*
X145940147Y-73241426D01*
X145885000Y-73518665D01*
X143755000Y-73518665D01*
X143699853Y-73241426D01*
X143591680Y-72980273D01*
X143434637Y-72745241D01*
X143234759Y-72545363D01*
X142999727Y-72388320D01*
X142738574Y-72280147D01*
X142461335Y-72225000D01*
X142178665Y-72225000D01*
X141901426Y-72280147D01*
X141640273Y-72388320D01*
X141405241Y-72545363D01*
X141205363Y-72745241D01*
X141048320Y-72980273D01*
X140940147Y-73241426D01*
X140885000Y-73518665D01*
X137791000Y-73518665D01*
X137791000Y-65140000D01*
X143281928Y-65140000D01*
X143281928Y-66940000D01*
X143294188Y-67064482D01*
X143330498Y-67184180D01*
X143389463Y-67294494D01*
X143468815Y-67391185D01*
X143565506Y-67470537D01*
X143675820Y-67529502D01*
X143795518Y-67565812D01*
X143920000Y-67578072D01*
X145720000Y-67578072D01*
X145844482Y-67565812D01*
X145964180Y-67529502D01*
X146074494Y-67470537D01*
X146171185Y-67391185D01*
X146250537Y-67294494D01*
X146303880Y-67194697D01*
X146341495Y-67232312D01*
X146592905Y-67400299D01*
X146872257Y-67516011D01*
X147168816Y-67575000D01*
X147471184Y-67575000D01*
X147767743Y-67516011D01*
X148047095Y-67400299D01*
X148298505Y-67232312D01*
X148512312Y-67018505D01*
X148570000Y-66932169D01*
X148627688Y-67018505D01*
X148841495Y-67232312D01*
X149092905Y-67400299D01*
X149372257Y-67516011D01*
X149668816Y-67575000D01*
X149971184Y-67575000D01*
X150267743Y-67516011D01*
X150547095Y-67400299D01*
X150798505Y-67232312D01*
X151012312Y-67018505D01*
X151180299Y-66767095D01*
X151296011Y-66487743D01*
X151355000Y-66191184D01*
X151355000Y-65888816D01*
X151296011Y-65592257D01*
X151180299Y-65312905D01*
X151012312Y-65061495D01*
X150798505Y-64847688D01*
X150547095Y-64679701D01*
X150267743Y-64563989D01*
X149971184Y-64505000D01*
X149668816Y-64505000D01*
X149372257Y-64563989D01*
X149092905Y-64679701D01*
X148841495Y-64847688D01*
X148627688Y-65061495D01*
X148570000Y-65147831D01*
X148512312Y-65061495D01*
X148298505Y-64847688D01*
X148047095Y-64679701D01*
X147767743Y-64563989D01*
X147471184Y-64505000D01*
X147168816Y-64505000D01*
X146872257Y-64563989D01*
X146592905Y-64679701D01*
X146341495Y-64847688D01*
X146303880Y-64885303D01*
X146250537Y-64785506D01*
X146171185Y-64688815D01*
X146074494Y-64609463D01*
X145964180Y-64550498D01*
X145844482Y-64514188D01*
X145720000Y-64501928D01*
X143920000Y-64501928D01*
X143795518Y-64514188D01*
X143675820Y-64550498D01*
X143565506Y-64609463D01*
X143468815Y-64688815D01*
X143389463Y-64785506D01*
X143330498Y-64895820D01*
X143294188Y-65015518D01*
X143281928Y-65140000D01*
X137791000Y-65140000D01*
X137791000Y-64813481D01*
X137795281Y-64770012D01*
X137791000Y-64726543D01*
X137791000Y-64726535D01*
X137778195Y-64596522D01*
X137727589Y-64429699D01*
X137645411Y-64275953D01*
X137534817Y-64141195D01*
X137501050Y-64113483D01*
X137023535Y-63635969D01*
X137012226Y-63579114D01*
X136934205Y-63390756D01*
X136820937Y-63221238D01*
X136676774Y-63077075D01*
X136507256Y-62963807D01*
X136318898Y-62885786D01*
X136118939Y-62846012D01*
X135915061Y-62846012D01*
X135715102Y-62885786D01*
X135526744Y-62963807D01*
X135357226Y-63077075D01*
X135213063Y-63221238D01*
X135099795Y-63390756D01*
X135021774Y-63579114D01*
X134982000Y-63779073D01*
X134258000Y-63779073D01*
X134258000Y-63779061D01*
X134218226Y-63579102D01*
X134140205Y-63390744D01*
X134026937Y-63221226D01*
X133882774Y-63077063D01*
X133713256Y-62963795D01*
X133524898Y-62885774D01*
X133324939Y-62846000D01*
X133121061Y-62846000D01*
X132921102Y-62885774D01*
X132732744Y-62963795D01*
X132563226Y-63077063D01*
X132419063Y-63221226D01*
X132305795Y-63390744D01*
X132227774Y-63579102D01*
X132217765Y-63629423D01*
X132213183Y-63633183D01*
X132102589Y-63767942D01*
X132020411Y-63921688D01*
X131969805Y-64088511D01*
X131957000Y-64218524D01*
X131957000Y-64218531D01*
X131952719Y-64262000D01*
X131957000Y-64305469D01*
X131957000Y-69836781D01*
X131927939Y-69831000D01*
X131724061Y-69831000D01*
X131524102Y-69870774D01*
X131391000Y-69925907D01*
X131391000Y-67833618D01*
X131395040Y-67792599D01*
X131385972Y-67700530D01*
X131387800Y-67691339D01*
X131387800Y-67487461D01*
X131348026Y-67287502D01*
X131270005Y-67099144D01*
X131156737Y-66929626D01*
X131012574Y-66785463D01*
X130843056Y-66672195D01*
X130654698Y-66594174D01*
X130454739Y-66554400D01*
X130250861Y-66554400D01*
X130050902Y-66594174D01*
X129862544Y-66672195D01*
X129693026Y-66785463D01*
X129548863Y-66929626D01*
X129435595Y-67099144D01*
X129357574Y-67287502D01*
X129317800Y-67487461D01*
X119856668Y-67487461D01*
X120067095Y-67400299D01*
X120318505Y-67232312D01*
X120532312Y-67018505D01*
X120700299Y-66767095D01*
X120816011Y-66487743D01*
X120875000Y-66191184D01*
X120875000Y-65888816D01*
X120816011Y-65592257D01*
X120700299Y-65312905D01*
X120532312Y-65061495D01*
X120318505Y-64847688D01*
X120067095Y-64679701D01*
X119787743Y-64563989D01*
X119491184Y-64505000D01*
X119188816Y-64505000D01*
X118892257Y-64563989D01*
X118612905Y-64679701D01*
X118361495Y-64847688D01*
X118147688Y-65061495D01*
X118090000Y-65147831D01*
X118032312Y-65061495D01*
X117818505Y-64847688D01*
X117567095Y-64679701D01*
X117287743Y-64563989D01*
X116991184Y-64505000D01*
X116688816Y-64505000D01*
X116392257Y-64563989D01*
X116112905Y-64679701D01*
X115861495Y-64847688D01*
X115823880Y-64885303D01*
X115770537Y-64785506D01*
X115691185Y-64688815D01*
X115594494Y-64609463D01*
X115484180Y-64550498D01*
X115364482Y-64514188D01*
X115240000Y-64501928D01*
X114625750Y-64505000D01*
X114467000Y-64663750D01*
X114213000Y-64663750D01*
X114054250Y-64505000D01*
X113440000Y-64501928D01*
X113315518Y-64514188D01*
X113195820Y-64550498D01*
X113085506Y-64609463D01*
X112988815Y-64688815D01*
X112909463Y-64785506D01*
X112850498Y-64895820D01*
X112814188Y-65015518D01*
X112801928Y-65140000D01*
X90104768Y-65140000D01*
X90052312Y-65061495D01*
X89838505Y-64847688D01*
X89587095Y-64679701D01*
X89307743Y-64563989D01*
X89011184Y-64505000D01*
X88708816Y-64505000D01*
X88412257Y-64563989D01*
X88132905Y-64679701D01*
X87881495Y-64847688D01*
X87667688Y-65061495D01*
X87610000Y-65147831D01*
X87552312Y-65061495D01*
X87338505Y-64847688D01*
X87087095Y-64679701D01*
X86807743Y-64563989D01*
X86511184Y-64505000D01*
X86208816Y-64505000D01*
X85912257Y-64563989D01*
X85632905Y-64679701D01*
X85381495Y-64847688D01*
X85343880Y-64885303D01*
X85290537Y-64785506D01*
X85211185Y-64688815D01*
X85114494Y-64609463D01*
X85004180Y-64550498D01*
X84884482Y-64514188D01*
X84760000Y-64501928D01*
X84145750Y-64505000D01*
X83987000Y-64663750D01*
X83987000Y-65913000D01*
X84007000Y-65913000D01*
X84007000Y-66167000D01*
X83987000Y-66167000D01*
X83987000Y-67416250D01*
X84145750Y-67575000D01*
X84760000Y-67578072D01*
X84884482Y-67565812D01*
X85004180Y-67529502D01*
X85114494Y-67470537D01*
X85211185Y-67391185D01*
X85290537Y-67294494D01*
X85343880Y-67194697D01*
X85381495Y-67232312D01*
X85398001Y-67243341D01*
X85398000Y-72157715D01*
X85315795Y-72280744D01*
X85237774Y-72469102D01*
X85231753Y-72499374D01*
X79752000Y-67019622D01*
X79752000Y-66940000D01*
X82321928Y-66940000D01*
X82334188Y-67064482D01*
X82370498Y-67184180D01*
X82429463Y-67294494D01*
X82508815Y-67391185D01*
X82605506Y-67470537D01*
X82715820Y-67529502D01*
X82835518Y-67565812D01*
X82960000Y-67578072D01*
X83574250Y-67575000D01*
X83733000Y-67416250D01*
X83733000Y-66167000D01*
X82483750Y-66167000D01*
X82325000Y-66325750D01*
X82321928Y-66940000D01*
X79752000Y-66940000D01*
X79752000Y-65140000D01*
X82321928Y-65140000D01*
X82325000Y-65754250D01*
X82483750Y-65913000D01*
X83733000Y-65913000D01*
X83733000Y-64663750D01*
X83574250Y-64505000D01*
X82960000Y-64501928D01*
X82835518Y-64514188D01*
X82715820Y-64550498D01*
X82605506Y-64609463D01*
X82508815Y-64688815D01*
X82429463Y-64785506D01*
X82370498Y-64895820D01*
X82334188Y-65015518D01*
X82321928Y-65140000D01*
X79752000Y-65140000D01*
X79752000Y-64165462D01*
X79784205Y-64117264D01*
X79862226Y-63928906D01*
X79902000Y-63728947D01*
X79902000Y-63525069D01*
X79862226Y-63325110D01*
X79784205Y-63136752D01*
X79670937Y-62967234D01*
X79526774Y-62823071D01*
X79357256Y-62709803D01*
X79168898Y-62631782D01*
X78968939Y-62592008D01*
X78765061Y-62592008D01*
X78565102Y-62631782D01*
X78376744Y-62709803D01*
X78207226Y-62823071D01*
X78063063Y-62967234D01*
X77949795Y-63136752D01*
X77871774Y-63325110D01*
X77832000Y-63525069D01*
X76860000Y-63525069D01*
X76860000Y-58182002D01*
X79565000Y-58182002D01*
X79565000Y-58897997D01*
X79593867Y-59191087D01*
X79707943Y-59567146D01*
X79893193Y-59913725D01*
X80142497Y-60217503D01*
X80446275Y-60466807D01*
X80792853Y-60652057D01*
X81168912Y-60766133D01*
X81560000Y-60804652D01*
X81951087Y-60766133D01*
X82327146Y-60652057D01*
X82673725Y-60466807D01*
X82977503Y-60217503D01*
X83226807Y-59913725D01*
X83412057Y-59567147D01*
X83526133Y-59191088D01*
X83555000Y-58897998D01*
X83555000Y-58182003D01*
X83555000Y-58182002D01*
X89165000Y-58182002D01*
X89165000Y-58897997D01*
X89193867Y-59191087D01*
X89307943Y-59567146D01*
X89493193Y-59913725D01*
X89742497Y-60217503D01*
X90046275Y-60466807D01*
X90392853Y-60652057D01*
X90768912Y-60766133D01*
X91160000Y-60804652D01*
X91551087Y-60766133D01*
X91927146Y-60652057D01*
X92273725Y-60466807D01*
X92577503Y-60217503D01*
X92826807Y-59913725D01*
X93012057Y-59567147D01*
X93126133Y-59191088D01*
X93155000Y-58897998D01*
X93155000Y-58182003D01*
X93126133Y-57888913D01*
X93029393Y-57570000D01*
X96809928Y-57570000D01*
X96809928Y-59270000D01*
X96822188Y-59394482D01*
X96858498Y-59514180D01*
X96917463Y-59624494D01*
X96996815Y-59721185D01*
X97093506Y-59800537D01*
X97203820Y-59859502D01*
X97323518Y-59895812D01*
X97448000Y-59908072D01*
X99148000Y-59908072D01*
X99272482Y-59895812D01*
X99392180Y-59859502D01*
X99502494Y-59800537D01*
X99599185Y-59721185D01*
X99678537Y-59624494D01*
X99737502Y-59514180D01*
X99761966Y-59433534D01*
X99837731Y-59517588D01*
X100071080Y-59691641D01*
X100333901Y-59816825D01*
X100481110Y-59861476D01*
X100711000Y-59740155D01*
X100711000Y-58547000D01*
X100965000Y-58547000D01*
X100965000Y-59740155D01*
X101194890Y-59861476D01*
X101342099Y-59816825D01*
X101604920Y-59691641D01*
X101838269Y-59517588D01*
X102033178Y-59301355D01*
X102182157Y-59051252D01*
X102279481Y-58776891D01*
X102158814Y-58547000D01*
X100965000Y-58547000D01*
X100711000Y-58547000D01*
X100691000Y-58547000D01*
X100691000Y-58293000D01*
X100711000Y-58293000D01*
X100711000Y-57099845D01*
X100965000Y-57099845D01*
X100965000Y-58293000D01*
X102158814Y-58293000D01*
X102217075Y-58182002D01*
X110045000Y-58182002D01*
X110045000Y-58897997D01*
X110073867Y-59191087D01*
X110187943Y-59567146D01*
X110373193Y-59913725D01*
X110622497Y-60217503D01*
X110926275Y-60466807D01*
X111272853Y-60652057D01*
X111648912Y-60766133D01*
X112040000Y-60804652D01*
X112431087Y-60766133D01*
X112807146Y-60652057D01*
X113153725Y-60466807D01*
X113457503Y-60217503D01*
X113706807Y-59913725D01*
X113892057Y-59567147D01*
X114006133Y-59191088D01*
X114035000Y-58897998D01*
X114035000Y-58182003D01*
X114035000Y-58182002D01*
X119645000Y-58182002D01*
X119645000Y-58897997D01*
X119673867Y-59191087D01*
X119787943Y-59567146D01*
X119973193Y-59913725D01*
X120222497Y-60217503D01*
X120526275Y-60466807D01*
X120872853Y-60652057D01*
X121248912Y-60766133D01*
X121640000Y-60804652D01*
X122031087Y-60766133D01*
X122407146Y-60652057D01*
X122753725Y-60466807D01*
X123057503Y-60217503D01*
X123306807Y-59913725D01*
X123492057Y-59567147D01*
X123606133Y-59191088D01*
X123635000Y-58897998D01*
X123635000Y-58268816D01*
X130545000Y-58268816D01*
X130545000Y-58571184D01*
X130603989Y-58867743D01*
X130719701Y-59147095D01*
X130887688Y-59398505D01*
X131101495Y-59612312D01*
X131352905Y-59780299D01*
X131632257Y-59896011D01*
X131928816Y-59955000D01*
X132231184Y-59955000D01*
X132527743Y-59896011D01*
X132807095Y-59780299D01*
X133058505Y-59612312D01*
X133272312Y-59398505D01*
X133374951Y-59244895D01*
X133555920Y-59304475D01*
X134440395Y-58420000D01*
X133555920Y-57535525D01*
X133374951Y-57595105D01*
X133272312Y-57441495D01*
X133186737Y-57355920D01*
X133735525Y-57355920D01*
X134620000Y-58240395D01*
X134634143Y-58226253D01*
X134813748Y-58405858D01*
X134799605Y-58420000D01*
X134813748Y-58434143D01*
X134634143Y-58613748D01*
X134620000Y-58599605D01*
X133735525Y-59484080D01*
X133819208Y-59738261D01*
X134091775Y-59869158D01*
X134384642Y-59944365D01*
X134686553Y-59960991D01*
X134985907Y-59918397D01*
X135271199Y-59818222D01*
X135420792Y-59738261D01*
X135504474Y-59484082D01*
X135620422Y-59600030D01*
X135667187Y-59553265D01*
X135670498Y-59564180D01*
X135729463Y-59674494D01*
X135808815Y-59771185D01*
X135905506Y-59850537D01*
X136015820Y-59909502D01*
X136135518Y-59945812D01*
X136260000Y-59958072D01*
X138060000Y-59958072D01*
X138184482Y-59945812D01*
X138304180Y-59909502D01*
X138414494Y-59850537D01*
X138511185Y-59771185D01*
X138590537Y-59674494D01*
X138649502Y-59564180D01*
X138685812Y-59444482D01*
X138698072Y-59320000D01*
X138698072Y-58182002D01*
X140525000Y-58182002D01*
X140525000Y-58897997D01*
X140553867Y-59191087D01*
X140667943Y-59567146D01*
X140853193Y-59913725D01*
X141102497Y-60217503D01*
X141406275Y-60466807D01*
X141752853Y-60652057D01*
X142128912Y-60766133D01*
X142520000Y-60804652D01*
X142911087Y-60766133D01*
X143287146Y-60652057D01*
X143633725Y-60466807D01*
X143937503Y-60217503D01*
X144186807Y-59913725D01*
X144372057Y-59567147D01*
X144486133Y-59191088D01*
X144515000Y-58897998D01*
X144515000Y-58182003D01*
X144515000Y-58182002D01*
X150125000Y-58182002D01*
X150125000Y-58897997D01*
X150153867Y-59191087D01*
X150267943Y-59567146D01*
X150453193Y-59913725D01*
X150702497Y-60217503D01*
X151006275Y-60466807D01*
X151352853Y-60652057D01*
X151728912Y-60766133D01*
X152120000Y-60804652D01*
X152511087Y-60766133D01*
X152887146Y-60652057D01*
X153233725Y-60466807D01*
X153537503Y-60217503D01*
X153786807Y-59913725D01*
X153972057Y-59567147D01*
X154086133Y-59191088D01*
X154115000Y-58897998D01*
X154115000Y-58182003D01*
X154086133Y-57888913D01*
X153972057Y-57512853D01*
X153786807Y-57166275D01*
X153537503Y-56862497D01*
X153233725Y-56613193D01*
X152887147Y-56427943D01*
X152511088Y-56313867D01*
X152120000Y-56275348D01*
X151728913Y-56313867D01*
X151352854Y-56427943D01*
X151006276Y-56613193D01*
X150702498Y-56862497D01*
X150453193Y-57166275D01*
X150267943Y-57512853D01*
X150153867Y-57888912D01*
X150125000Y-58182002D01*
X144515000Y-58182002D01*
X144486133Y-57888913D01*
X144372057Y-57512853D01*
X144186807Y-57166275D01*
X143937503Y-56862497D01*
X143633725Y-56613193D01*
X143287147Y-56427943D01*
X142911088Y-56313867D01*
X142520000Y-56275348D01*
X142128913Y-56313867D01*
X141752854Y-56427943D01*
X141406276Y-56613193D01*
X141102498Y-56862497D01*
X140853193Y-57166275D01*
X140667943Y-57512853D01*
X140553867Y-57888912D01*
X140525000Y-58182002D01*
X138698072Y-58182002D01*
X138698072Y-57520000D01*
X138685812Y-57395518D01*
X138649502Y-57275820D01*
X138590537Y-57165506D01*
X138511185Y-57068815D01*
X138414494Y-56989463D01*
X138304180Y-56930498D01*
X138184482Y-56894188D01*
X138060000Y-56881928D01*
X136260000Y-56881928D01*
X136135518Y-56894188D01*
X136015820Y-56930498D01*
X135905506Y-56989463D01*
X135808815Y-57068815D01*
X135729463Y-57165506D01*
X135670498Y-57275820D01*
X135667187Y-57286735D01*
X135620422Y-57239970D01*
X135504474Y-57355918D01*
X135420792Y-57101739D01*
X135148225Y-56970842D01*
X134855358Y-56895635D01*
X134553447Y-56879009D01*
X134254093Y-56921603D01*
X133968801Y-57021778D01*
X133819208Y-57101739D01*
X133735525Y-57355920D01*
X133186737Y-57355920D01*
X133058505Y-57227688D01*
X132807095Y-57059701D01*
X132527743Y-56943989D01*
X132231184Y-56885000D01*
X131928816Y-56885000D01*
X131632257Y-56943989D01*
X131352905Y-57059701D01*
X131101495Y-57227688D01*
X130887688Y-57441495D01*
X130719701Y-57692905D01*
X130603989Y-57972257D01*
X130545000Y-58268816D01*
X123635000Y-58268816D01*
X123635000Y-58182003D01*
X123606133Y-57888913D01*
X123492057Y-57512853D01*
X123306807Y-57166275D01*
X123057503Y-56862497D01*
X122753725Y-56613193D01*
X122407147Y-56427943D01*
X122031088Y-56313867D01*
X121640000Y-56275348D01*
X121248913Y-56313867D01*
X120872854Y-56427943D01*
X120526276Y-56613193D01*
X120222498Y-56862497D01*
X119973193Y-57166275D01*
X119787943Y-57512853D01*
X119673867Y-57888912D01*
X119645000Y-58182002D01*
X114035000Y-58182002D01*
X114006133Y-57888913D01*
X113892057Y-57512853D01*
X113706807Y-57166275D01*
X113457503Y-56862497D01*
X113153725Y-56613193D01*
X112807147Y-56427943D01*
X112431088Y-56313867D01*
X112040000Y-56275348D01*
X111648913Y-56313867D01*
X111272854Y-56427943D01*
X110926276Y-56613193D01*
X110622498Y-56862497D01*
X110373193Y-57166275D01*
X110187943Y-57512853D01*
X110073867Y-57888912D01*
X110045000Y-58182002D01*
X102217075Y-58182002D01*
X102279481Y-58063109D01*
X102182157Y-57788748D01*
X102033178Y-57538645D01*
X101838269Y-57322412D01*
X101604920Y-57148359D01*
X101342099Y-57023175D01*
X101194890Y-56978524D01*
X100965000Y-57099845D01*
X100711000Y-57099845D01*
X100481110Y-56978524D01*
X100333901Y-57023175D01*
X100071080Y-57148359D01*
X99837731Y-57322412D01*
X99761966Y-57406466D01*
X99737502Y-57325820D01*
X99678537Y-57215506D01*
X99599185Y-57118815D01*
X99502494Y-57039463D01*
X99392180Y-56980498D01*
X99272482Y-56944188D01*
X99148000Y-56931928D01*
X97448000Y-56931928D01*
X97323518Y-56944188D01*
X97203820Y-56980498D01*
X97093506Y-57039463D01*
X96996815Y-57118815D01*
X96917463Y-57215506D01*
X96858498Y-57325820D01*
X96822188Y-57445518D01*
X96809928Y-57570000D01*
X93029393Y-57570000D01*
X93012057Y-57512853D01*
X92826807Y-57166275D01*
X92577503Y-56862497D01*
X92273725Y-56613193D01*
X91927147Y-56427943D01*
X91551088Y-56313867D01*
X91160000Y-56275348D01*
X90768913Y-56313867D01*
X90392854Y-56427943D01*
X90046276Y-56613193D01*
X89742498Y-56862497D01*
X89493193Y-57166275D01*
X89307943Y-57512853D01*
X89193867Y-57888912D01*
X89165000Y-58182002D01*
X83555000Y-58182002D01*
X83526133Y-57888913D01*
X83412057Y-57512853D01*
X83226807Y-57166275D01*
X82977503Y-56862497D01*
X82673725Y-56613193D01*
X82327147Y-56427943D01*
X81951088Y-56313867D01*
X81560000Y-56275348D01*
X81168913Y-56313867D01*
X80792854Y-56427943D01*
X80446276Y-56613193D01*
X80142498Y-56862497D01*
X79893193Y-57166275D01*
X79707943Y-57512853D01*
X79593867Y-57888912D01*
X79565000Y-58182002D01*
X76860000Y-58182002D01*
X76860000Y-55909392D01*
X76932437Y-55097751D01*
X77139672Y-54340226D01*
X77477777Y-53631375D01*
X77936067Y-52993596D01*
X78500055Y-52447054D01*
X79151913Y-52009023D01*
X79871038Y-51693349D01*
X80639768Y-51508794D01*
X81304207Y-51460000D01*
X152370608Y-51460000D01*
X153182249Y-51532437D01*
%TD*%
M02*
