M48
; DRILL file {KiCad 5.1.6-c6e7f7d~87~ubuntu18.04.1} date Wed Jul 29 17:39:32 2020
; FORMAT={-:-/ absolute / metric / decimal}
; #@! TF.CreationDate,2020-07-29T17:39:32-04:00
; #@! TF.GenerationSoftware,Kicad,Pcbnew,5.1.6-c6e7f7d~87~ubuntu18.04.1
FMAT,2
METRIC
T1C0.400
T2C0.500
T3C0.800
T4C0.900
T5C1.000
T6C1.100
T7C3.200
%
G90
G05
T1
X78.867Y-63.627
X81.28Y-83.464
X86.233Y-72.771
X86.462Y-88.9
X86.512Y-77.521
X101.346Y-74.399
X101.346Y-90.805
X102.26Y-93.878
X102.353Y-76.749
X103.276Y-92.964
X103.39Y-83.198
X109.118Y-94.437
X109.423Y-68.275
X116.891Y-88.748
X121.006Y-75.133
X122.682Y-81.723
X129.667Y-95.758
X130.353Y-67.589
X130.556Y-76.657
X131.826Y-70.866
X131.978Y-80.315
X132.842Y-101.988
X133.223Y-63.881
X133.692Y-66.142
X133.692Y-75.082
X136.017Y-63.881
X136.906Y-101.114
X138.938Y-89.408
X138.938Y-97.155
T2
X150.0Y-106.68
X150.703Y-104.983
X150.703Y-108.377
X152.4Y-104.28
X152.4Y-109.08
X154.097Y-104.983
X154.097Y-108.377
X154.8Y-106.68
X78.88Y-106.68
X79.583Y-104.983
X79.583Y-108.377
X81.28Y-104.28
X81.28Y-109.08
X82.977Y-104.983
X82.977Y-108.377
X83.68Y-106.68
T3
X88.138Y-98.298
X88.392Y-84.836
X91.948Y-78.232
X91.948Y-82.042
X92.075Y-65.405
X92.075Y-67.945
X92.075Y-70.485
X93.472Y-100.076
X94.234Y-85.598
X94.615Y-56.515
X94.615Y-59.055
X94.615Y-61.595
X94.615Y-65.405
X96.266Y-105.664
X97.282Y-78.232
X97.536Y-82.042
X97.536Y-85.598
X98.425Y-67.945
X98.425Y-69.215
X99.568Y-67.437
X99.568Y-68.707
X99.568Y-69.977
X99.695Y-80.01
X100.33Y-105.664
X100.965Y-67.945
X100.965Y-69.215
X104.648Y-78.232
X104.648Y-82.042
X105.41Y-86.106
X106.782Y-69.85
X106.832Y-67.285
X107.315Y-59.69
X107.315Y-62.23
X107.315Y-64.77
X107.696Y-86.106
X109.982Y-103.886
X111.252Y-88.9
X111.506Y-75.438
X111.506Y-78.232
X111.506Y-82.042
X112.522Y-94.996
X115.824Y-94.996
X118.872Y-94.996
X119.99Y-78.791
X120.142Y-100.076
X120.65Y-104.14
X123.444Y-89.408
X124.206Y-75.692
X125.984Y-82.296
X127.0Y-65.786
X127.0Y-69.85
X127.254Y-75.692
X127.762Y-89.408
X129.54Y-82.55
X130.81Y-98.679
X131.064Y-103.886
X134.62Y-89.408
X134.874Y-98.679
X135.128Y-103.886
X135.28Y-78.791
X135.331Y-69.139
X135.484Y-93.726
X138.811Y-98.679
X139.192Y-103.886
X139.954Y-64.262
X139.954Y-69.85
X139.954Y-78.232
X140.716Y-93.726
X145.074Y-83.82
X147.574Y-83.82
X142.32Y-73.66
X147.32Y-73.66
X92.075Y-88.98
X92.075Y-93.98
T4
X132.08Y-58.42
X134.62Y-58.42
X137.16Y-58.42
T5
X98.298Y-58.42
X100.838Y-58.42
X152.4Y-73.66
X152.4Y-76.2
X152.4Y-83.82
X152.4Y-86.36
X83.86Y-66.04
X86.36Y-66.04
X88.86Y-66.04
X142.24Y-109.22
X144.78Y-109.22
X81.28Y-87.63
X81.28Y-90.17
X81.28Y-92.71
X114.34Y-66.04
X116.84Y-66.04
X119.34Y-66.04
X111.76Y-109.22
X114.3Y-109.22
X116.84Y-109.22
X119.38Y-109.22
X144.82Y-66.04
X147.32Y-66.04
X149.82Y-66.04
X81.28Y-73.66
X81.28Y-76.2
X81.28Y-78.74
T7
X152.4Y-106.68
X81.28Y-106.68
T6
G00X142.52Y-58.89
M15
G01X142.52Y-58.19
M16
G05
G00X152.12Y-58.89
M15
G01X152.12Y-58.19
M16
G05
G00X81.56Y-58.89
M15
G01X81.56Y-58.19
M16
G05
G00X91.16Y-58.89
M15
G01X91.16Y-58.19
M16
G05
G00X112.04Y-58.89
M15
G01X112.04Y-58.19
M16
G05
G00X121.64Y-58.89
M15
G01X121.64Y-58.19
M16
G05
T0
M30
