%TF.GenerationSoftware,KiCad,Pcbnew,5.1.6-c6e7f7d~87~ubuntu18.04.1*%
%TF.CreationDate,2020-07-29T17:40:00-04:00*%
%TF.ProjectId,bit_crusher_pedal,6269745f-6372-4757-9368-65725f706564,rev?*%
%TF.SameCoordinates,Original*%
%TF.FileFunction,Soldermask,Top*%
%TF.FilePolarity,Negative*%
%FSLAX46Y46*%
G04 Gerber Fmt 4.6, Leading zero omitted, Abs format (unit mm)*
G04 Created by KiCad (PCBNEW 5.1.6-c6e7f7d~87~ubuntu18.04.1) date 2020-07-29 17:40:00*
%MOMM*%
%LPD*%
G01*
G04 APERTURE LIST*
%ADD10O,1.800000X1.800000*%
%ADD11R,1.800000X1.800000*%
%ADD12C,0.900000*%
%ADD13C,6.500000*%
%ADD14C,1.600000*%
%ADD15O,2.820000X3.340000*%
%ADD16C,1.900000*%
%ADD17R,1.900000X1.900000*%
%ADD18C,1.700000*%
%ADD19R,1.700000X1.700000*%
G04 APERTURE END LIST*
D10*
%TO.C,J7*%
X144780000Y-109220000D03*
D11*
X142240000Y-109220000D03*
%TD*%
D12*
%TO.C,H2*%
X154097056Y-104982944D03*
X152400000Y-104280000D03*
X150702944Y-104982944D03*
X150000000Y-106680000D03*
X150702944Y-108377056D03*
X152400000Y-109080000D03*
X154097056Y-108377056D03*
X154800000Y-106680000D03*
D13*
X152400000Y-106680000D03*
%TD*%
D12*
%TO.C,H1*%
X82977056Y-104982944D03*
X81280000Y-104280000D03*
X79582944Y-104982944D03*
X78880000Y-106680000D03*
X79582944Y-108377056D03*
X81280000Y-109080000D03*
X82977056Y-108377056D03*
X83680000Y-106680000D03*
D13*
X81280000Y-106680000D03*
%TD*%
D14*
%TO.C,X1*%
X92075000Y-88980000D03*
X92075000Y-93980000D03*
%TD*%
D15*
%TO.C,RV3*%
X112040000Y-58540000D03*
X121640000Y-58540000D03*
D16*
X119340000Y-66040000D03*
X116840000Y-66040000D03*
D17*
X114340000Y-66040000D03*
%TD*%
D15*
%TO.C,RV2*%
X81560000Y-58540000D03*
X91160000Y-58540000D03*
D16*
X88860000Y-66040000D03*
X86360000Y-66040000D03*
D17*
X83860000Y-66040000D03*
%TD*%
D15*
%TO.C,RV1*%
X142520000Y-58540000D03*
X152120000Y-58540000D03*
D16*
X149820000Y-66040000D03*
X147320000Y-66040000D03*
D17*
X144820000Y-66040000D03*
%TD*%
D10*
%TO.C,J6*%
X81280000Y-92710000D03*
X81280000Y-90170000D03*
D11*
X81280000Y-87630000D03*
%TD*%
D10*
%TO.C,J5*%
X81280000Y-78740000D03*
X81280000Y-76200000D03*
D11*
X81280000Y-73660000D03*
%TD*%
D10*
%TO.C,J4*%
X100838000Y-58420000D03*
D11*
X98298000Y-58420000D03*
%TD*%
D10*
%TO.C,J3*%
X119380000Y-109220000D03*
X116840000Y-109220000D03*
X114300000Y-109220000D03*
D11*
X111760000Y-109220000D03*
%TD*%
D10*
%TO.C,J2*%
X152400000Y-86360000D03*
D11*
X152400000Y-83820000D03*
%TD*%
D10*
%TO.C,J1*%
X152400000Y-76200000D03*
D11*
X152400000Y-73660000D03*
%TD*%
D16*
%TO.C,D1*%
X132080000Y-58420000D03*
X134620000Y-58420000D03*
D17*
X137160000Y-58420000D03*
%TD*%
D18*
%TO.C,C8*%
X147574000Y-83820000D03*
D19*
X145074000Y-83820000D03*
%TD*%
D18*
%TO.C,C4*%
X147320000Y-73660000D03*
X142320000Y-73660000D03*
%TD*%
M02*
