%TF.GenerationSoftware,KiCad,Pcbnew,5.1.6-c6e7f7d~87~ubuntu18.04.1*%
%TF.CreationDate,2020-07-29T17:50:40-04:00*%
%TF.ProjectId,bit_crusher_front_panel,6269745f-6372-4757-9368-65725f66726f,rev?*%
%TF.SameCoordinates,Original*%
%TF.FileFunction,Legend,Top*%
%TF.FilePolarity,Positive*%
%FSLAX46Y46*%
G04 Gerber Fmt 4.6, Leading zero omitted, Abs format (unit mm)*
G04 Created by KiCad (PCBNEW 5.1.6-c6e7f7d~87~ubuntu18.04.1) date 2020-07-29 17:50:40*
%MOMM*%
%LPD*%
G01*
G04 APERTURE LIST*
%ADD10C,0.120000*%
%ADD11C,0.100000*%
%ADD12C,0.500000*%
%ADD13C,0.010000*%
G04 APERTURE END LIST*
D10*
X152400000Y-86512400D02*
X152400000Y-87680800D01*
X152806400Y-86512400D02*
X152400000Y-86512400D01*
X152806400Y-88290400D02*
X152806400Y-86512400D01*
X151130000Y-88290400D02*
X152806400Y-88290400D01*
X150672800Y-87833200D02*
X150622000Y-87731600D01*
X150571200Y-87680800D02*
X152450800Y-87680800D01*
X150571200Y-90932000D02*
X150571200Y-87680800D01*
X145288000Y-96164400D02*
X145288000Y-94640400D01*
X149199600Y-96164400D02*
X145288000Y-96164400D01*
X133705600Y-83413600D02*
X133705600Y-80264000D01*
X131978400Y-83413600D02*
X133705600Y-83413600D01*
X131978400Y-86512400D02*
X131978400Y-83464400D01*
X131419600Y-86512400D02*
X131978400Y-86512400D01*
X131419600Y-83007200D02*
X131419600Y-86512400D01*
X133299200Y-83007200D02*
X131419600Y-83007200D01*
X148844000Y-90982800D02*
X150622000Y-90982800D01*
X148844000Y-95656400D02*
X148844000Y-90982800D01*
X140106400Y-78689200D02*
X140055600Y-78638400D01*
X140106400Y-83464400D02*
X140106400Y-78689200D01*
X141833600Y-83464400D02*
X140106400Y-83464400D01*
X140716000Y-78384400D02*
X140716000Y-83159600D01*
X138836400Y-78384400D02*
X140716000Y-78384400D01*
X119786400Y-96570800D02*
X119786400Y-96037400D01*
X122123200Y-96570800D02*
X119786400Y-96570800D01*
X122123200Y-96570800D02*
X122123200Y-96012000D01*
X121970800Y-96570800D02*
X122123200Y-96570800D01*
X122885200Y-95961200D02*
X121970800Y-95986600D01*
X122885200Y-94437200D02*
X122885200Y-95961200D01*
X121564400Y-95478600D02*
X122504200Y-95478600D01*
X121564400Y-96164400D02*
X121564400Y-95478600D01*
X120218200Y-95478600D02*
X120218200Y-96215200D01*
X120192800Y-95478600D02*
X120218200Y-95478600D01*
X119380000Y-95478600D02*
X120192800Y-95478600D01*
X117271800Y-94411800D02*
X117297200Y-92125800D01*
X117297200Y-94411800D02*
X117271800Y-94411800D01*
X118110000Y-94411800D02*
X117297200Y-94411800D01*
X118135400Y-94945200D02*
X118135400Y-95148400D01*
X118059200Y-95224600D02*
X118059200Y-94335600D01*
X118948200Y-95224600D02*
X118059200Y-95224600D01*
X123875800Y-92786200D02*
X123799600Y-94335600D01*
X123875800Y-94386400D02*
X123875800Y-92786200D01*
X122859800Y-94386400D02*
X123875800Y-94386400D01*
X124663200Y-92760800D02*
X124587000Y-92735400D01*
X124688600Y-92786200D02*
X124637800Y-92583000D01*
X124739400Y-92811600D02*
X124739400Y-90322400D01*
X123748800Y-92811600D02*
X124739400Y-92811600D01*
X126365000Y-87985600D02*
X125501400Y-87985600D01*
X125933200Y-87096600D02*
X125933200Y-87579200D01*
X126365000Y-87096600D02*
X125933200Y-87096600D01*
X126365000Y-87985600D02*
X126365000Y-87096600D01*
X105410000Y-86715600D02*
X105410000Y-86817200D01*
X105486200Y-86893400D02*
X105486200Y-86385400D01*
X104978200Y-86893400D02*
X105486200Y-86893400D01*
X104978200Y-86029800D02*
X104978200Y-86893400D01*
X114096800Y-79578200D02*
X113411000Y-79552800D01*
X114147600Y-79502000D02*
X113182400Y-79502000D01*
X114147600Y-79679800D02*
X114147600Y-79502000D01*
X112801400Y-79984600D02*
X112852200Y-79984600D01*
X112750600Y-80060800D02*
X113766600Y-80060800D01*
X112750600Y-80035400D02*
X112750600Y-80060800D01*
X112750600Y-79349600D02*
X112750600Y-80035400D01*
X113157000Y-78943200D02*
X113157000Y-78867000D01*
X113233200Y-78816200D02*
X113233200Y-79603600D01*
X112547400Y-78816200D02*
X113233200Y-78816200D01*
X112522000Y-78028800D02*
X111607600Y-78028800D01*
X112522000Y-78765400D02*
X112522000Y-78028800D01*
D11*
G36*
X111607600Y-78486000D02*
G01*
X111175800Y-78460600D01*
X111125000Y-78435200D01*
X111125000Y-77317600D01*
X111607600Y-77317600D01*
X111607600Y-78486000D01*
G37*
X111607600Y-78486000D02*
X111175800Y-78460600D01*
X111125000Y-78435200D01*
X111125000Y-77317600D01*
X111607600Y-77317600D01*
X111607600Y-78486000D01*
D12*
X90363809Y-42449523D02*
X90363809Y-38449523D01*
X92078095Y-42449523D02*
X92078095Y-40354285D01*
X91887619Y-39973333D01*
X91506666Y-39782857D01*
X90935238Y-39782857D01*
X90554285Y-39973333D01*
X90363809Y-40163809D01*
X94554285Y-42449523D02*
X94173333Y-42259047D01*
X93982857Y-42068571D01*
X93792380Y-41687619D01*
X93792380Y-40544761D01*
X93982857Y-40163809D01*
X94173333Y-39973333D01*
X94554285Y-39782857D01*
X95125714Y-39782857D01*
X95506666Y-39973333D01*
X95697142Y-40163809D01*
X95887619Y-40544761D01*
X95887619Y-41687619D01*
X95697142Y-42068571D01*
X95506666Y-42259047D01*
X95125714Y-42449523D01*
X94554285Y-42449523D01*
X97601904Y-42449523D02*
X97601904Y-39782857D01*
X97601904Y-40544761D02*
X97792380Y-40163809D01*
X97982857Y-39973333D01*
X98363809Y-39782857D01*
X98744761Y-39782857D01*
X100078095Y-42449523D02*
X100078095Y-39782857D01*
X100078095Y-40544761D02*
X100268571Y-40163809D01*
X100459047Y-39973333D01*
X100840000Y-39782857D01*
X101220952Y-39782857D01*
X102554285Y-42449523D02*
X102554285Y-39782857D01*
X102554285Y-38449523D02*
X102363809Y-38640000D01*
X102554285Y-38830476D01*
X102744761Y-38640000D01*
X102554285Y-38449523D01*
X102554285Y-38830476D01*
X104459047Y-42449523D02*
X104459047Y-38449523D01*
X104459047Y-39973333D02*
X104840000Y-39782857D01*
X105601904Y-39782857D01*
X105982857Y-39973333D01*
X106173333Y-40163809D01*
X106363809Y-40544761D01*
X106363809Y-41687619D01*
X106173333Y-42068571D01*
X105982857Y-42259047D01*
X105601904Y-42449523D01*
X104840000Y-42449523D01*
X104459047Y-42259047D01*
X108649523Y-42449523D02*
X108268571Y-42259047D01*
X108078095Y-41878095D01*
X108078095Y-38449523D01*
X111697142Y-42259047D02*
X111316190Y-42449523D01*
X110554285Y-42449523D01*
X110173333Y-42259047D01*
X109982857Y-41878095D01*
X109982857Y-40354285D01*
X110173333Y-39973333D01*
X110554285Y-39782857D01*
X111316190Y-39782857D01*
X111697142Y-39973333D01*
X111887619Y-40354285D01*
X111887619Y-40735238D01*
X109982857Y-41116190D01*
X118363809Y-42449523D02*
X118363809Y-38449523D01*
X118363809Y-42259047D02*
X117982857Y-42449523D01*
X117220952Y-42449523D01*
X116840000Y-42259047D01*
X116649523Y-42068571D01*
X116459047Y-41687619D01*
X116459047Y-40544761D01*
X116649523Y-40163809D01*
X116840000Y-39973333D01*
X117220952Y-39782857D01*
X117982857Y-39782857D01*
X118363809Y-39973333D01*
X120268571Y-42449523D02*
X120268571Y-39782857D01*
X120268571Y-38449523D02*
X120078095Y-38640000D01*
X120268571Y-38830476D01*
X120459047Y-38640000D01*
X120268571Y-38449523D01*
X120268571Y-38830476D01*
X121982857Y-42259047D02*
X122363809Y-42449523D01*
X123125714Y-42449523D01*
X123506666Y-42259047D01*
X123697142Y-41878095D01*
X123697142Y-41687619D01*
X123506666Y-41306666D01*
X123125714Y-41116190D01*
X122554285Y-41116190D01*
X122173333Y-40925714D01*
X121982857Y-40544761D01*
X121982857Y-40354285D01*
X122173333Y-39973333D01*
X122554285Y-39782857D01*
X123125714Y-39782857D01*
X123506666Y-39973333D01*
X124840000Y-39782857D02*
X126363809Y-39782857D01*
X125411428Y-38449523D02*
X125411428Y-41878095D01*
X125601904Y-42259047D01*
X125982857Y-42449523D01*
X126363809Y-42449523D01*
X128268571Y-42449523D02*
X127887619Y-42259047D01*
X127697142Y-42068571D01*
X127506666Y-41687619D01*
X127506666Y-40544761D01*
X127697142Y-40163809D01*
X127887619Y-39973333D01*
X128268571Y-39782857D01*
X128840000Y-39782857D01*
X129220952Y-39973333D01*
X129411428Y-40163809D01*
X129601904Y-40544761D01*
X129601904Y-41687619D01*
X129411428Y-42068571D01*
X129220952Y-42259047D01*
X128840000Y-42449523D01*
X128268571Y-42449523D01*
X131316190Y-42449523D02*
X131316190Y-39782857D01*
X131316190Y-40544761D02*
X131506666Y-40163809D01*
X131697142Y-39973333D01*
X132078095Y-39782857D01*
X132459047Y-39782857D01*
X133220952Y-39782857D02*
X134744761Y-39782857D01*
X133792380Y-38449523D02*
X133792380Y-41878095D01*
X133982857Y-42259047D01*
X134363809Y-42449523D01*
X134744761Y-42449523D01*
X136078095Y-42449523D02*
X136078095Y-39782857D01*
X136078095Y-38449523D02*
X135887619Y-38640000D01*
X136078095Y-38830476D01*
X136268571Y-38640000D01*
X136078095Y-38449523D01*
X136078095Y-38830476D01*
X138554285Y-42449523D02*
X138173333Y-42259047D01*
X137982857Y-42068571D01*
X137792380Y-41687619D01*
X137792380Y-40544761D01*
X137982857Y-40163809D01*
X138173333Y-39973333D01*
X138554285Y-39782857D01*
X139125714Y-39782857D01*
X139506666Y-39973333D01*
X139697142Y-40163809D01*
X139887619Y-40544761D01*
X139887619Y-41687619D01*
X139697142Y-42068571D01*
X139506666Y-42259047D01*
X139125714Y-42449523D01*
X138554285Y-42449523D01*
X141601904Y-39782857D02*
X141601904Y-42449523D01*
X141601904Y-40163809D02*
X141792380Y-39973333D01*
X142173333Y-39782857D01*
X142744761Y-39782857D01*
X143125714Y-39973333D01*
X143316190Y-40354285D01*
X143316190Y-42449523D01*
X143605714Y-67722857D02*
X143605714Y-70960952D01*
X143415238Y-71341904D01*
X143224761Y-71532380D01*
X142843809Y-71722857D01*
X142272380Y-71722857D01*
X141891428Y-71532380D01*
X143605714Y-70199047D02*
X143224761Y-70389523D01*
X142462857Y-70389523D01*
X142081904Y-70199047D01*
X141891428Y-70008571D01*
X141700952Y-69627619D01*
X141700952Y-68484761D01*
X141891428Y-68103809D01*
X142081904Y-67913333D01*
X142462857Y-67722857D01*
X143224761Y-67722857D01*
X143605714Y-67913333D01*
X147224761Y-70389523D02*
X147224761Y-68294285D01*
X147034285Y-67913333D01*
X146653333Y-67722857D01*
X145891428Y-67722857D01*
X145510476Y-67913333D01*
X147224761Y-70199047D02*
X146843809Y-70389523D01*
X145891428Y-70389523D01*
X145510476Y-70199047D01*
X145320000Y-69818095D01*
X145320000Y-69437142D01*
X145510476Y-69056190D01*
X145891428Y-68865714D01*
X146843809Y-68865714D01*
X147224761Y-68675238D01*
X149129523Y-70389523D02*
X149129523Y-67722857D01*
X149129523Y-66389523D02*
X148939047Y-66580000D01*
X149129523Y-66770476D01*
X149320000Y-66580000D01*
X149129523Y-66389523D01*
X149129523Y-66770476D01*
X151034285Y-67722857D02*
X151034285Y-70389523D01*
X151034285Y-68103809D02*
X151224761Y-67913333D01*
X151605714Y-67722857D01*
X152177142Y-67722857D01*
X152558095Y-67913333D01*
X152748571Y-68294285D01*
X152748571Y-70389523D01*
X112268571Y-70389523D02*
X112268571Y-68294285D01*
X112078095Y-67913333D01*
X111697142Y-67722857D01*
X110935238Y-67722857D01*
X110554285Y-67913333D01*
X112268571Y-70199047D02*
X111887619Y-70389523D01*
X110935238Y-70389523D01*
X110554285Y-70199047D01*
X110363809Y-69818095D01*
X110363809Y-69437142D01*
X110554285Y-69056190D01*
X110935238Y-68865714D01*
X111887619Y-68865714D01*
X112268571Y-68675238D01*
X114744761Y-70389523D02*
X114363809Y-70199047D01*
X114173333Y-69818095D01*
X114173333Y-66389523D01*
X116268571Y-70389523D02*
X116268571Y-67722857D01*
X116268571Y-66389523D02*
X116078095Y-66580000D01*
X116268571Y-66770476D01*
X116459047Y-66580000D01*
X116268571Y-66389523D01*
X116268571Y-66770476D01*
X119887619Y-70389523D02*
X119887619Y-68294285D01*
X119697142Y-67913333D01*
X119316190Y-67722857D01*
X118554285Y-67722857D01*
X118173333Y-67913333D01*
X119887619Y-70199047D02*
X119506666Y-70389523D01*
X118554285Y-70389523D01*
X118173333Y-70199047D01*
X117982857Y-69818095D01*
X117982857Y-69437142D01*
X118173333Y-69056190D01*
X118554285Y-68865714D01*
X119506666Y-68865714D01*
X119887619Y-68675238D01*
X121601904Y-70199047D02*
X121982857Y-70389523D01*
X122744761Y-70389523D01*
X123125714Y-70199047D01*
X123316190Y-69818095D01*
X123316190Y-69627619D01*
X123125714Y-69246666D01*
X122744761Y-69056190D01*
X122173333Y-69056190D01*
X121792380Y-68865714D01*
X121601904Y-68484761D01*
X121601904Y-68294285D01*
X121792380Y-67913333D01*
X122173333Y-67722857D01*
X122744761Y-67722857D01*
X123125714Y-67913333D01*
X81598095Y-70199047D02*
X81217142Y-70389523D01*
X80455238Y-70389523D01*
X80074285Y-70199047D01*
X79883809Y-69818095D01*
X79883809Y-68294285D01*
X80074285Y-67913333D01*
X80455238Y-67722857D01*
X81217142Y-67722857D01*
X81598095Y-67913333D01*
X81788571Y-68294285D01*
X81788571Y-68675238D01*
X79883809Y-69056190D01*
X83502857Y-70389523D02*
X83502857Y-67722857D01*
X83502857Y-68484761D02*
X83693333Y-68103809D01*
X83883809Y-67913333D01*
X84264761Y-67722857D01*
X84645714Y-67722857D01*
X85979047Y-70389523D02*
X85979047Y-67722857D01*
X85979047Y-68484761D02*
X86169523Y-68103809D01*
X86360000Y-67913333D01*
X86740952Y-67722857D01*
X87121904Y-67722857D01*
X89026666Y-70389523D02*
X88645714Y-70199047D01*
X88455238Y-70008571D01*
X88264761Y-69627619D01*
X88264761Y-68484761D01*
X88455238Y-68103809D01*
X88645714Y-67913333D01*
X89026666Y-67722857D01*
X89598095Y-67722857D01*
X89979047Y-67913333D01*
X90169523Y-68103809D01*
X90360000Y-68484761D01*
X90360000Y-69627619D01*
X90169523Y-70008571D01*
X89979047Y-70199047D01*
X89598095Y-70389523D01*
X89026666Y-70389523D01*
X92074285Y-70389523D02*
X92074285Y-67722857D01*
X92074285Y-68484761D02*
X92264761Y-68103809D01*
X92455238Y-67913333D01*
X92836190Y-67722857D01*
X93217142Y-67722857D01*
D13*
%TO.C,G\u002A\u002A\u002A*%
G36*
X119770770Y-96324616D02*
G01*
X119758026Y-96144398D01*
X119684445Y-96059041D01*
X119497004Y-96033195D01*
X119331154Y-96031539D01*
X118891539Y-96031539D01*
X118891539Y-95640769D01*
X118882038Y-95390645D01*
X118816477Y-95279502D01*
X118639262Y-95250939D01*
X118506387Y-95250000D01*
X118264455Y-95240434D01*
X118148758Y-95175381D01*
X118104767Y-95000314D01*
X118091194Y-94834808D01*
X118062804Y-94574026D01*
X117989059Y-94449678D01*
X117811452Y-94403257D01*
X117645962Y-94389575D01*
X117230770Y-94359535D01*
X117230770Y-92134552D01*
X116766731Y-92104776D01*
X116302693Y-92075000D01*
X116248009Y-89583846D01*
X115374616Y-89583846D01*
X115374616Y-84894616D01*
X114593077Y-84894616D01*
X114593077Y-82550000D01*
X113713847Y-82550000D01*
X113713847Y-80107693D01*
X113284683Y-80107693D01*
X112969508Y-80076519D01*
X112802090Y-79955462D01*
X112740933Y-79703213D01*
X112736923Y-79562395D01*
X112714252Y-79409970D01*
X112609836Y-79342239D01*
X112369076Y-79326195D01*
X112346154Y-79326154D01*
X111955385Y-79326154D01*
X111955385Y-78544616D01*
X111076154Y-78544616D01*
X111076154Y-77763077D01*
X109903847Y-77763077D01*
X109903847Y-78544616D01*
X108926923Y-78544616D01*
X108926923Y-80107693D01*
X108047693Y-80107693D01*
X108047693Y-81768462D01*
X107266154Y-81768462D01*
X107266154Y-84113077D01*
X106386923Y-84113077D01*
X106386923Y-86457693D01*
X105949169Y-86457693D01*
X105671580Y-86471326D01*
X105528262Y-86531909D01*
X105458880Y-86668971D01*
X105450117Y-86701923D01*
X105338661Y-86897861D01*
X105155179Y-86946154D01*
X105016343Y-86928740D01*
X104947074Y-86843329D01*
X104923575Y-86640174D01*
X104921539Y-86457693D01*
X104921539Y-85969231D01*
X105898462Y-85969231D01*
X105898462Y-83526923D01*
X106680000Y-83526923D01*
X106680000Y-81182308D01*
X107559231Y-81182308D01*
X107559231Y-79619231D01*
X108438462Y-79619231D01*
X108438462Y-78056154D01*
X109220000Y-78056154D01*
X109220000Y-77274616D01*
X111552821Y-77274616D01*
X111583142Y-77640962D01*
X111611120Y-77866087D01*
X111683447Y-77972673D01*
X111856992Y-78005053D01*
X112053077Y-78007308D01*
X112492693Y-78007308D01*
X112522733Y-78422500D01*
X112551563Y-78682832D01*
X112619659Y-78802526D01*
X112775151Y-78836127D01*
X112889079Y-78837693D01*
X113118310Y-78857102D01*
X113211024Y-78942123D01*
X113225385Y-79073933D01*
X113256699Y-79387691D01*
X113378303Y-79554358D01*
X113631691Y-79615240D01*
X113773145Y-79619231D01*
X114202308Y-79619231D01*
X114202308Y-81963846D01*
X115081539Y-81963846D01*
X115081539Y-84308462D01*
X115960770Y-84308462D01*
X115960770Y-89095385D01*
X116937693Y-89095385D01*
X116937693Y-91440000D01*
X117719231Y-91440000D01*
X117719231Y-93784616D01*
X118598462Y-93784616D01*
X118598462Y-94566154D01*
X119477693Y-94566154D01*
X119477693Y-95445385D01*
X119868462Y-95445385D01*
X120118658Y-95455736D01*
X120229846Y-95519650D01*
X120258357Y-95686415D01*
X120259231Y-95787308D01*
X120259231Y-96129231D01*
X121529231Y-96129231D01*
X121529231Y-95787308D01*
X121538616Y-95577216D01*
X121602220Y-95477730D01*
X121773216Y-95447494D01*
X121968847Y-95445385D01*
X122408462Y-95445385D01*
X122408462Y-93784616D01*
X123287693Y-93784616D01*
X123287693Y-92221539D01*
X124069231Y-92221539D01*
X124069231Y-89876923D01*
X125046154Y-89876923D01*
X125046154Y-87532308D01*
X125485770Y-87532308D01*
X125757047Y-87522185D01*
X125885576Y-87472428D01*
X125923706Y-87353952D01*
X125925385Y-87288077D01*
X125965734Y-87102168D01*
X126124608Y-87044878D01*
X126169616Y-87043846D01*
X126314564Y-87059683D01*
X126386876Y-87140505D01*
X126411533Y-87336277D01*
X126413847Y-87532308D01*
X126413847Y-88020769D01*
X125534616Y-88020769D01*
X125534616Y-90365385D01*
X124753077Y-90365385D01*
X124751743Y-91366731D01*
X124745115Y-91933906D01*
X124722823Y-92333440D01*
X124678618Y-92592853D01*
X124606250Y-92739660D01*
X124499470Y-92801381D01*
X124424183Y-92809027D01*
X124109457Y-92826067D01*
X123917103Y-92897802D01*
X123817368Y-93062561D01*
X123780500Y-93358673D01*
X123776154Y-93643854D01*
X123776154Y-94359535D01*
X123360962Y-94389575D01*
X122945770Y-94419616D01*
X122917339Y-95171073D01*
X122888909Y-95922530D01*
X122526570Y-95952611D01*
X122284748Y-95990462D01*
X122174963Y-96086743D01*
X122133881Y-96297475D01*
X122133618Y-96300193D01*
X122103006Y-96617693D01*
X119770770Y-96617693D01*
X119770770Y-96324616D01*
G37*
X119770770Y-96324616D02*
X119758026Y-96144398D01*
X119684445Y-96059041D01*
X119497004Y-96033195D01*
X119331154Y-96031539D01*
X118891539Y-96031539D01*
X118891539Y-95640769D01*
X118882038Y-95390645D01*
X118816477Y-95279502D01*
X118639262Y-95250939D01*
X118506387Y-95250000D01*
X118264455Y-95240434D01*
X118148758Y-95175381D01*
X118104767Y-95000314D01*
X118091194Y-94834808D01*
X118062804Y-94574026D01*
X117989059Y-94449678D01*
X117811452Y-94403257D01*
X117645962Y-94389575D01*
X117230770Y-94359535D01*
X117230770Y-92134552D01*
X116766731Y-92104776D01*
X116302693Y-92075000D01*
X116248009Y-89583846D01*
X115374616Y-89583846D01*
X115374616Y-84894616D01*
X114593077Y-84894616D01*
X114593077Y-82550000D01*
X113713847Y-82550000D01*
X113713847Y-80107693D01*
X113284683Y-80107693D01*
X112969508Y-80076519D01*
X112802090Y-79955462D01*
X112740933Y-79703213D01*
X112736923Y-79562395D01*
X112714252Y-79409970D01*
X112609836Y-79342239D01*
X112369076Y-79326195D01*
X112346154Y-79326154D01*
X111955385Y-79326154D01*
X111955385Y-78544616D01*
X111076154Y-78544616D01*
X111076154Y-77763077D01*
X109903847Y-77763077D01*
X109903847Y-78544616D01*
X108926923Y-78544616D01*
X108926923Y-80107693D01*
X108047693Y-80107693D01*
X108047693Y-81768462D01*
X107266154Y-81768462D01*
X107266154Y-84113077D01*
X106386923Y-84113077D01*
X106386923Y-86457693D01*
X105949169Y-86457693D01*
X105671580Y-86471326D01*
X105528262Y-86531909D01*
X105458880Y-86668971D01*
X105450117Y-86701923D01*
X105338661Y-86897861D01*
X105155179Y-86946154D01*
X105016343Y-86928740D01*
X104947074Y-86843329D01*
X104923575Y-86640174D01*
X104921539Y-86457693D01*
X104921539Y-85969231D01*
X105898462Y-85969231D01*
X105898462Y-83526923D01*
X106680000Y-83526923D01*
X106680000Y-81182308D01*
X107559231Y-81182308D01*
X107559231Y-79619231D01*
X108438462Y-79619231D01*
X108438462Y-78056154D01*
X109220000Y-78056154D01*
X109220000Y-77274616D01*
X111552821Y-77274616D01*
X111583142Y-77640962D01*
X111611120Y-77866087D01*
X111683447Y-77972673D01*
X111856992Y-78005053D01*
X112053077Y-78007308D01*
X112492693Y-78007308D01*
X112522733Y-78422500D01*
X112551563Y-78682832D01*
X112619659Y-78802526D01*
X112775151Y-78836127D01*
X112889079Y-78837693D01*
X113118310Y-78857102D01*
X113211024Y-78942123D01*
X113225385Y-79073933D01*
X113256699Y-79387691D01*
X113378303Y-79554358D01*
X113631691Y-79615240D01*
X113773145Y-79619231D01*
X114202308Y-79619231D01*
X114202308Y-81963846D01*
X115081539Y-81963846D01*
X115081539Y-84308462D01*
X115960770Y-84308462D01*
X115960770Y-89095385D01*
X116937693Y-89095385D01*
X116937693Y-91440000D01*
X117719231Y-91440000D01*
X117719231Y-93784616D01*
X118598462Y-93784616D01*
X118598462Y-94566154D01*
X119477693Y-94566154D01*
X119477693Y-95445385D01*
X119868462Y-95445385D01*
X120118658Y-95455736D01*
X120229846Y-95519650D01*
X120258357Y-95686415D01*
X120259231Y-95787308D01*
X120259231Y-96129231D01*
X121529231Y-96129231D01*
X121529231Y-95787308D01*
X121538616Y-95577216D01*
X121602220Y-95477730D01*
X121773216Y-95447494D01*
X121968847Y-95445385D01*
X122408462Y-95445385D01*
X122408462Y-93784616D01*
X123287693Y-93784616D01*
X123287693Y-92221539D01*
X124069231Y-92221539D01*
X124069231Y-89876923D01*
X125046154Y-89876923D01*
X125046154Y-87532308D01*
X125485770Y-87532308D01*
X125757047Y-87522185D01*
X125885576Y-87472428D01*
X125923706Y-87353952D01*
X125925385Y-87288077D01*
X125965734Y-87102168D01*
X126124608Y-87044878D01*
X126169616Y-87043846D01*
X126314564Y-87059683D01*
X126386876Y-87140505D01*
X126411533Y-87336277D01*
X126413847Y-87532308D01*
X126413847Y-88020769D01*
X125534616Y-88020769D01*
X125534616Y-90365385D01*
X124753077Y-90365385D01*
X124751743Y-91366731D01*
X124745115Y-91933906D01*
X124722823Y-92333440D01*
X124678618Y-92592853D01*
X124606250Y-92739660D01*
X124499470Y-92801381D01*
X124424183Y-92809027D01*
X124109457Y-92826067D01*
X123917103Y-92897802D01*
X123817368Y-93062561D01*
X123780500Y-93358673D01*
X123776154Y-93643854D01*
X123776154Y-94359535D01*
X123360962Y-94389575D01*
X122945770Y-94419616D01*
X122917339Y-95171073D01*
X122888909Y-95922530D01*
X122526570Y-95952611D01*
X122284748Y-95990462D01*
X122174963Y-96086743D01*
X122133881Y-96297475D01*
X122133618Y-96300193D01*
X122103006Y-96617693D01*
X119770770Y-96617693D01*
X119770770Y-96324616D01*
G36*
X95055148Y-95640727D02*
G01*
X94494628Y-95271994D01*
X93961667Y-94714411D01*
X93808041Y-94510866D01*
X93390055Y-93862659D01*
X92977666Y-93086980D01*
X92566958Y-92173456D01*
X92154014Y-91111713D01*
X91734917Y-89891377D01*
X91305752Y-88502074D01*
X90862602Y-86933431D01*
X90657144Y-86164616D01*
X90219153Y-84566160D01*
X89793497Y-83151753D01*
X89375791Y-81910777D01*
X88961649Y-80832612D01*
X88546685Y-79906640D01*
X88126514Y-79122243D01*
X87696750Y-78468800D01*
X87263046Y-77946303D01*
X86944116Y-77620182D01*
X86704629Y-77413303D01*
X86499404Y-77294426D01*
X86283260Y-77232313D01*
X86213582Y-77220681D01*
X85818460Y-77199500D01*
X85460217Y-77276208D01*
X85100196Y-77469333D01*
X84699740Y-77797405D01*
X84402329Y-78088844D01*
X84079032Y-78438561D01*
X83806141Y-78784271D01*
X83548978Y-79177097D01*
X83272864Y-79668161D01*
X83080511Y-80037401D01*
X82466421Y-81310311D01*
X81939525Y-82567952D01*
X81468173Y-83889841D01*
X81177122Y-84819397D01*
X80970672Y-85478326D01*
X80802005Y-85946142D01*
X80670790Y-86223365D01*
X80576698Y-86310513D01*
X80519399Y-86208105D01*
X80498564Y-85916660D01*
X80498462Y-85887142D01*
X80531345Y-85635953D01*
X80622787Y-85236595D01*
X80761979Y-84723555D01*
X80938108Y-84131320D01*
X81140366Y-83494377D01*
X81357942Y-82847212D01*
X81580025Y-82224313D01*
X81795805Y-81660167D01*
X81912013Y-81377693D01*
X82164497Y-80811138D01*
X82452374Y-80209036D01*
X82750651Y-79620133D01*
X83034334Y-79093175D01*
X83278430Y-78676906D01*
X83364631Y-78544616D01*
X83715650Y-78078560D01*
X84102657Y-77641829D01*
X84484005Y-77276942D01*
X84818045Y-77026415D01*
X84892211Y-76985154D01*
X85342029Y-76833750D01*
X85878351Y-76763030D01*
X86405731Y-76782484D01*
X86588254Y-76816533D01*
X86901409Y-76947818D01*
X87209262Y-77159974D01*
X87272100Y-77218403D01*
X87746980Y-77748366D01*
X88193881Y-78359321D01*
X88618983Y-79065654D01*
X89028466Y-79881749D01*
X89428512Y-80821994D01*
X89825300Y-81900774D01*
X90225011Y-83132475D01*
X90633825Y-84531481D01*
X91004048Y-85904866D01*
X91468086Y-87603397D01*
X91926335Y-89118542D01*
X92382794Y-90462053D01*
X92841465Y-91645684D01*
X93306347Y-92681188D01*
X93320389Y-92710000D01*
X93598467Y-93261226D01*
X93835870Y-93681268D01*
X94065673Y-94019876D01*
X94320953Y-94326795D01*
X94565599Y-94582794D01*
X94933999Y-94932753D01*
X95222087Y-95154196D01*
X95467902Y-95274067D01*
X95583458Y-95303704D01*
X96086227Y-95317662D01*
X96582378Y-95165166D01*
X97078600Y-94840742D01*
X97581581Y-94338911D01*
X98098008Y-93654198D01*
X98608835Y-92826403D01*
X98810640Y-92468142D01*
X98983189Y-92146866D01*
X99138261Y-91833929D01*
X99287636Y-91500681D01*
X99443095Y-91118476D01*
X99616416Y-90658665D01*
X99819380Y-90092602D01*
X100063768Y-89391638D01*
X100283627Y-88753462D01*
X100566737Y-87944871D01*
X100803672Y-87300738D01*
X100992214Y-86826608D01*
X101130140Y-86528024D01*
X101215232Y-86410532D01*
X101222511Y-86408846D01*
X101320560Y-86445157D01*
X101365215Y-86566265D01*
X101353374Y-86790440D01*
X101281937Y-87135949D01*
X101147803Y-87621060D01*
X100947871Y-88264040D01*
X100863233Y-88525298D01*
X100319657Y-90095438D01*
X99777013Y-91471628D01*
X99234493Y-92655291D01*
X98691289Y-93647854D01*
X98146595Y-94450742D01*
X97599603Y-95065380D01*
X97049506Y-95493194D01*
X96858006Y-95598119D01*
X96241242Y-95805360D01*
X95638821Y-95819039D01*
X95055148Y-95640727D01*
G37*
X95055148Y-95640727D02*
X94494628Y-95271994D01*
X93961667Y-94714411D01*
X93808041Y-94510866D01*
X93390055Y-93862659D01*
X92977666Y-93086980D01*
X92566958Y-92173456D01*
X92154014Y-91111713D01*
X91734917Y-89891377D01*
X91305752Y-88502074D01*
X90862602Y-86933431D01*
X90657144Y-86164616D01*
X90219153Y-84566160D01*
X89793497Y-83151753D01*
X89375791Y-81910777D01*
X88961649Y-80832612D01*
X88546685Y-79906640D01*
X88126514Y-79122243D01*
X87696750Y-78468800D01*
X87263046Y-77946303D01*
X86944116Y-77620182D01*
X86704629Y-77413303D01*
X86499404Y-77294426D01*
X86283260Y-77232313D01*
X86213582Y-77220681D01*
X85818460Y-77199500D01*
X85460217Y-77276208D01*
X85100196Y-77469333D01*
X84699740Y-77797405D01*
X84402329Y-78088844D01*
X84079032Y-78438561D01*
X83806141Y-78784271D01*
X83548978Y-79177097D01*
X83272864Y-79668161D01*
X83080511Y-80037401D01*
X82466421Y-81310311D01*
X81939525Y-82567952D01*
X81468173Y-83889841D01*
X81177122Y-84819397D01*
X80970672Y-85478326D01*
X80802005Y-85946142D01*
X80670790Y-86223365D01*
X80576698Y-86310513D01*
X80519399Y-86208105D01*
X80498564Y-85916660D01*
X80498462Y-85887142D01*
X80531345Y-85635953D01*
X80622787Y-85236595D01*
X80761979Y-84723555D01*
X80938108Y-84131320D01*
X81140366Y-83494377D01*
X81357942Y-82847212D01*
X81580025Y-82224313D01*
X81795805Y-81660167D01*
X81912013Y-81377693D01*
X82164497Y-80811138D01*
X82452374Y-80209036D01*
X82750651Y-79620133D01*
X83034334Y-79093175D01*
X83278430Y-78676906D01*
X83364631Y-78544616D01*
X83715650Y-78078560D01*
X84102657Y-77641829D01*
X84484005Y-77276942D01*
X84818045Y-77026415D01*
X84892211Y-76985154D01*
X85342029Y-76833750D01*
X85878351Y-76763030D01*
X86405731Y-76782484D01*
X86588254Y-76816533D01*
X86901409Y-76947818D01*
X87209262Y-77159974D01*
X87272100Y-77218403D01*
X87746980Y-77748366D01*
X88193881Y-78359321D01*
X88618983Y-79065654D01*
X89028466Y-79881749D01*
X89428512Y-80821994D01*
X89825300Y-81900774D01*
X90225011Y-83132475D01*
X90633825Y-84531481D01*
X91004048Y-85904866D01*
X91468086Y-87603397D01*
X91926335Y-89118542D01*
X92382794Y-90462053D01*
X92841465Y-91645684D01*
X93306347Y-92681188D01*
X93320389Y-92710000D01*
X93598467Y-93261226D01*
X93835870Y-93681268D01*
X94065673Y-94019876D01*
X94320953Y-94326795D01*
X94565599Y-94582794D01*
X94933999Y-94932753D01*
X95222087Y-95154196D01*
X95467902Y-95274067D01*
X95583458Y-95303704D01*
X96086227Y-95317662D01*
X96582378Y-95165166D01*
X97078600Y-94840742D01*
X97581581Y-94338911D01*
X98098008Y-93654198D01*
X98608835Y-92826403D01*
X98810640Y-92468142D01*
X98983189Y-92146866D01*
X99138261Y-91833929D01*
X99287636Y-91500681D01*
X99443095Y-91118476D01*
X99616416Y-90658665D01*
X99819380Y-90092602D01*
X100063768Y-89391638D01*
X100283627Y-88753462D01*
X100566737Y-87944871D01*
X100803672Y-87300738D01*
X100992214Y-86826608D01*
X101130140Y-86528024D01*
X101215232Y-86410532D01*
X101222511Y-86408846D01*
X101320560Y-86445157D01*
X101365215Y-86566265D01*
X101353374Y-86790440D01*
X101281937Y-87135949D01*
X101147803Y-87621060D01*
X100947871Y-88264040D01*
X100863233Y-88525298D01*
X100319657Y-90095438D01*
X99777013Y-91471628D01*
X99234493Y-92655291D01*
X98691289Y-93647854D01*
X98146595Y-94450742D01*
X97599603Y-95065380D01*
X97049506Y-95493194D01*
X96858006Y-95598119D01*
X96241242Y-95805360D01*
X95638821Y-95819039D01*
X95055148Y-95640727D01*
G36*
X147637500Y-96225848D02*
G01*
X147061916Y-96221893D01*
X146528212Y-96211658D01*
X146078610Y-96196443D01*
X145755332Y-96177548D01*
X145634808Y-96164220D01*
X145268462Y-96103666D01*
X145268462Y-94663846D01*
X143607693Y-94663846D01*
X143607693Y-91440000D01*
X141851423Y-91440000D01*
X141825904Y-87459039D01*
X141800385Y-83478077D01*
X140945577Y-83449851D01*
X140090770Y-83421624D01*
X140090770Y-78740000D01*
X138438219Y-78740000D01*
X138409687Y-77982885D01*
X138381154Y-77225769D01*
X136891347Y-77198802D01*
X135401539Y-77171834D01*
X135401539Y-80303077D01*
X133740770Y-80303077D01*
X133740770Y-83421624D01*
X132885962Y-83449851D01*
X132031154Y-83478077D01*
X132004250Y-85016731D01*
X131977347Y-86555385D01*
X131396154Y-86555385D01*
X131396154Y-83045794D01*
X133203462Y-82989616D01*
X133257230Y-79920130D01*
X134060730Y-79891796D01*
X134864231Y-79863462D01*
X134891016Y-78227116D01*
X134917802Y-76590769D01*
X138918462Y-76590769D01*
X138918462Y-78349231D01*
X139786299Y-78349231D01*
X140201741Y-78352464D01*
X140462254Y-78368553D01*
X140608264Y-78407089D01*
X140680198Y-78477660D01*
X140713042Y-78569039D01*
X140730498Y-78729103D01*
X140746024Y-79052504D01*
X140758798Y-79507200D01*
X140767995Y-80061147D01*
X140772792Y-80682301D01*
X140773282Y-80913654D01*
X140774616Y-83038462D01*
X142435385Y-83038462D01*
X142435385Y-90951539D01*
X144096154Y-90951539D01*
X144096154Y-94077693D01*
X145952308Y-94077693D01*
X145952308Y-95645993D01*
X147393270Y-95618958D01*
X148834231Y-95591923D01*
X148860422Y-93271731D01*
X148886614Y-90951539D01*
X150543847Y-90951539D01*
X150544922Y-89657116D01*
X150549898Y-89137597D01*
X150562703Y-88656217D01*
X150581452Y-88263790D01*
X150604258Y-88011132D01*
X150606550Y-87996346D01*
X150667103Y-87630000D01*
X152400000Y-87630000D01*
X152400000Y-87043846D01*
X152406035Y-86718191D01*
X152435520Y-86542276D01*
X152505525Y-86470564D01*
X152619808Y-86457474D01*
X152721345Y-86465826D01*
X152783918Y-86515471D01*
X152814949Y-86642919D01*
X152821862Y-86884683D01*
X152812079Y-87277274D01*
X152808489Y-87385550D01*
X152777362Y-88313846D01*
X151130000Y-88313846D01*
X151130000Y-91440000D01*
X149273847Y-91440000D01*
X149273847Y-96226923D01*
X147637500Y-96225848D01*
G37*
X147637500Y-96225848D02*
X147061916Y-96221893D01*
X146528212Y-96211658D01*
X146078610Y-96196443D01*
X145755332Y-96177548D01*
X145634808Y-96164220D01*
X145268462Y-96103666D01*
X145268462Y-94663846D01*
X143607693Y-94663846D01*
X143607693Y-91440000D01*
X141851423Y-91440000D01*
X141825904Y-87459039D01*
X141800385Y-83478077D01*
X140945577Y-83449851D01*
X140090770Y-83421624D01*
X140090770Y-78740000D01*
X138438219Y-78740000D01*
X138409687Y-77982885D01*
X138381154Y-77225769D01*
X136891347Y-77198802D01*
X135401539Y-77171834D01*
X135401539Y-80303077D01*
X133740770Y-80303077D01*
X133740770Y-83421624D01*
X132885962Y-83449851D01*
X132031154Y-83478077D01*
X132004250Y-85016731D01*
X131977347Y-86555385D01*
X131396154Y-86555385D01*
X131396154Y-83045794D01*
X133203462Y-82989616D01*
X133257230Y-79920130D01*
X134060730Y-79891796D01*
X134864231Y-79863462D01*
X134891016Y-78227116D01*
X134917802Y-76590769D01*
X138918462Y-76590769D01*
X138918462Y-78349231D01*
X139786299Y-78349231D01*
X140201741Y-78352464D01*
X140462254Y-78368553D01*
X140608264Y-78407089D01*
X140680198Y-78477660D01*
X140713042Y-78569039D01*
X140730498Y-78729103D01*
X140746024Y-79052504D01*
X140758798Y-79507200D01*
X140767995Y-80061147D01*
X140772792Y-80682301D01*
X140773282Y-80913654D01*
X140774616Y-83038462D01*
X142435385Y-83038462D01*
X142435385Y-90951539D01*
X144096154Y-90951539D01*
X144096154Y-94077693D01*
X145952308Y-94077693D01*
X145952308Y-95645993D01*
X147393270Y-95618958D01*
X148834231Y-95591923D01*
X148860422Y-93271731D01*
X148886614Y-90951539D01*
X150543847Y-90951539D01*
X150544922Y-89657116D01*
X150549898Y-89137597D01*
X150562703Y-88656217D01*
X150581452Y-88263790D01*
X150604258Y-88011132D01*
X150606550Y-87996346D01*
X150667103Y-87630000D01*
X152400000Y-87630000D01*
X152400000Y-87043846D01*
X152406035Y-86718191D01*
X152435520Y-86542276D01*
X152505525Y-86470564D01*
X152619808Y-86457474D01*
X152721345Y-86465826D01*
X152783918Y-86515471D01*
X152814949Y-86642919D01*
X152821862Y-86884683D01*
X152812079Y-87277274D01*
X152808489Y-87385550D01*
X152777362Y-88313846D01*
X151130000Y-88313846D01*
X151130000Y-91440000D01*
X149273847Y-91440000D01*
X149273847Y-96226923D01*
X147637500Y-96225848D01*
%TD*%
M02*
